<?xml version="1.0" encoding="UTF-8"?>
<svg width="279px" height="207px" viewBox="0 0 279 207" version="1.1" xmlns="http://www.w3.org/2000/svg" xmlns:xlink="http://www.w3.org/1999/xlink">
    <!-- Generator: Sketch 54.1 (76490) - https://sketchapp.com -->
    <title>Classic Header Statement + Image</title>
    <desc>Created with Sketch.</desc>
    <defs>
        <polygon id="path-1" points="0 0 57.475 0 57.475 42.5315 0 42.5315"></polygon>
    </defs>
    <g id="Classic-Header-Statement-+-Image" stroke="none" stroke-width="1" fill="none" fill-rule="evenodd">
        <rect id="Rectangle-Copy-14" fill="#313131" x="0" y="0" width="279" height="207"></rect>
        <g id="Section" transform="translate(51.000000, 41.000000)">
            <path d="M3.4485,63.79725 L102.3055,64.372" id="Line" stroke="#FFFFFF" stroke-width="4.598" stroke-linecap="square"></path>
            <path d="M3.4485,101.73075 L174.27089,101.73075" id="Line-Copy" stroke="#FFFFFF" stroke-linecap="square"></path>
            <path d="M3.4485,83.33875 L174.27089,83.33875" id="Line-Copy-3" stroke="#FFFFFF" stroke-linecap="square"></path>
            <path d="M3.4485,123.57125 L112.19599,123.57125" id="Line-Copy-2" stroke="#FFFFFF" stroke-linecap="square"></path>
            <path d="M0.929478516,12.6753052 C0.929478516,10.0754465 1.62658043,8.07169942 3.02080518,6.66400391 C4.23317452,5.43816379 5.7755546,4.82525293 7.6479917,4.82525293 C10.153555,4.82525293 11.9855523,5.6469576 13.1440386,7.2903916 C13.7839002,8.21313938 14.1273997,9.13924096 14.1745474,10.0687241 L11.0628149,10.0687241 C10.8607534,9.35477329 10.6014449,8.81595055 10.2848818,8.45223975 C9.71910948,7.80564276 8.88056659,7.48234912 7.76922803,7.48234912 C6.63768331,7.48234912 5.74525815,7.93866463 5.09192578,8.85130933 C4.43859341,9.76395403 4.11193213,11.0554448 4.11193213,12.7258203 C4.11193213,14.3961959 4.45711544,15.6472749 5.14749243,16.479095 C5.83786942,17.310915 6.71514019,17.7268188 7.77933105,17.7268188 C8.87046346,17.7268188 9.70227106,17.3698488 10.2747788,16.6558979 C10.5913419,16.271981 10.854018,15.6961142 11.0628149,14.9282803 L14.1442383,14.9282803 C13.8748229,16.5515081 13.1861401,17.8716238 12.0781692,18.888667 C10.9701983,19.9057102 9.55073717,20.4142241 7.81974316,20.4142241 C5.67789066,20.4142241 3.99406961,19.7272251 2.76822949,18.3532065 C1.54238938,16.9724526 0.929478516,15.0798377 0.929478516,12.6753052 Z M23.3711579,17.777334 C24.6037334,17.777334 25.5820335,17.3227023 26.3060874,16.4134253 C27.0301413,15.5041483 27.3921628,14.2109737 27.3921628,12.5338628 C27.3921628,10.8634873 27.0301413,9.57199651 26.3060874,8.65935181 C25.5820335,7.74670711 24.6037334,7.2903916 23.3711579,7.2903916 C22.1385824,7.2903916 21.1552309,7.74502329 20.421074,8.65430029 C19.686917,9.5635773 19.319844,10.8567519 19.319844,12.5338628 C19.319844,14.2109737 19.686917,15.5041483 20.421074,16.4134253 C21.1552309,17.3227023 22.1385824,17.777334 23.3711579,17.777334 Z M30.5038952,12.5338628 C30.5038952,15.2078107 29.7529111,17.2553371 28.2509201,18.6765034 C27.1261108,19.8349897 25.4995397,20.4142241 23.3711579,20.4142241 C21.2427762,20.4142241 19.6162051,19.8349897 18.4913957,18.6765034 C16.9826694,17.2553371 16.2283176,15.2078107 16.2283176,12.5338628 C16.2283176,9.80603177 16.9826694,7.75850537 18.4913957,6.39122217 C19.6162051,5.23273591 21.2427762,4.65350146 23.3711579,4.65350146 C25.4995397,4.65350146 27.1261108,5.23273591 28.2509201,6.39122217 C29.7529111,7.75850537 30.5038952,9.80603177 30.5038952,12.5338628 Z M43.0142988,5.1081377 L47.4899399,5.1081377 L47.4899399,20 L44.5903711,20 L44.5903711,9.92728174 C44.5903711,9.63766017 44.5937387,9.2318593 44.6004741,8.70986694 C44.6072095,8.18787459 44.6105771,7.78544136 44.6105771,7.50255518 L41.7918325,20 L38.7710273,20 L35.9724887,7.50255518 C35.9724887,7.78544136 35.9758564,8.18787459 35.9825918,8.70986694 C35.9893271,9.2318593 35.9926948,9.63766017 35.9926948,9.92728174 L35.9926948,20 L33.0931259,20 L33.0931259,5.1081377 L37.6192822,5.1081377 L40.3268935,16.8175464 L43.0142988,5.1081377 Z M59.0304528,9.84645752 C59.0304528,9.07188822 58.8267105,8.51959491 58.4192197,8.18956104 C58.0117289,7.85952716 57.4409135,7.6945127 56.7067565,7.6945127 L53.8071877,7.6945127 L53.8071877,12.0792266 L56.7067565,12.0792266 C57.4409135,12.0792266 58.0117289,11.9007415 58.4192197,11.5437661 C58.8267105,11.1867907 59.0304528,10.6210268 59.0304528,9.84645752 Z M62.1118762,9.82625146 C62.1118762,11.584187 61.6673474,12.8268469 60.7782766,13.5542686 C59.8892057,14.2816902 58.6196046,14.6453955 56.9694353,14.6453955 L53.8071877,14.6453955 L53.8071877,20 L50.7156613,20 L50.7156613,5.1081377 L57.2018049,5.1081377 C58.6970604,5.1081377 59.8892057,5.4920489 60.7782766,6.25988281 C61.6673474,7.02771673 62.1118762,8.21649439 62.1118762,9.82625146 Z M67.2571728,14.3726138 L71.035705,14.3726138 L69.176748,8.51285791 L67.2571728,14.3726138 Z M67.4491303,5.1081377 L70.9649838,5.1081377 L76.2387641,20 L72.864353,20 L71.9045654,16.9387827 L66.4186215,16.9387827 L65.3881127,20 L62.1349379,20 L67.4491303,5.1081377 Z M78.3430495,5.1081377 L81.6063273,5.1081377 L87.5368044,15.5041528 L87.5368044,5.1081377 L90.4363732,5.1081377 L90.4363732,20 L87.3246408,20 L81.2426183,9.42213037 L81.2426183,20 L78.3430495,20 L78.3430495,5.1081377 Z M102.098122,5.1081377 L105.624079,5.1081377 L100.643287,14.4029229 L100.643287,20 L97.5315541,20 L97.5315541,14.4029229 L92.3790102,5.1081377 L96.0464091,5.1081377 L99.1379354,11.5942813 L102.098122,5.1081377 Z M1.52555713,30.1081377 L4.78883496,30.1081377 L10.719312,40.5041528 L10.719312,30.1081377 L13.6188809,30.1081377 L13.6188809,45 L10.5071484,45 L4.42512598,34.4221304 L4.42512598,45 L1.52555713,45 L1.52555713,30.1081377 Z M20.8555041,39.3726138 L24.6340364,39.3726138 L22.7750793,33.5128579 L20.8555041,39.3726138 Z M21.0474617,30.1081377 L24.5633152,30.1081377 L29.8370954,45 L26.4626843,45 L25.5028967,41.9387827 L20.0169529,41.9387827 L18.9864441,45 L15.7332693,45 L21.0474617,30.1081377 Z M41.8625537,30.1081377 L46.3381948,30.1081377 L46.3381948,45 L43.4386259,45 L43.4386259,34.9272817 C43.4386259,34.6376602 43.4419936,34.2318593 43.448729,33.7098669 C43.4554644,33.1878746 43.458832,32.7854414 43.458832,32.5025552 L40.6400874,45 L37.6192822,45 L34.8207436,32.5025552 C34.8207436,32.7854414 34.8241113,33.1878746 34.8308466,33.7098669 C34.837582,34.2318593 34.8409497,34.6376602 34.8409497,34.9272817 L34.8409497,45 L31.9413808,45 L31.9413808,30.1081377 L36.4675371,30.1081377 L39.1751484,41.8175464 L41.8625537,30.1081377 Z M60.5054948,32.7450278 L52.6251335,32.7450278 L52.6251335,35.9072754 L59.8589011,35.9072754 L59.8589011,38.4936504 L52.6251335,38.4936504 L52.6251335,42.3226978 L60.8692038,42.3226978 L60.8692038,45 L49.5841223,45 L49.5841223,30.1081377 L60.5054948,30.1081377 L60.5054948,32.7450278 Z" id="COMPANYNAME" fill="#FFFFFF" fill-rule="nonzero"></path>
            <g id="Group-3" transform="translate(120.697500, 8.046500)">
                <mask id="mask-2" fill="white">
                    <use xlink:href="#path-1"></use>
                </mask>
                <g id="Clip-2"></g>
                <path d="M12.8109748,36.2659536 L3.28219472,42.5315 L1.58100836,40.0141167 L11.0163167,33.9213579 L12.8109748,36.2659536 Z M1.3459936,39.6446169 L0,37.5844563 L2.06973223,36.2446874 L3.41305521,38.304848 L1.3459936,39.6446169 Z M3.7602361,38.0762366 L2.4142425,36.0187343 L4.48397472,34.6789654 L5.82996833,36.7364677 L3.7602361,38.0762366 Z M4.83115561,34.4530123 L6.89821722,33.1132433 L8.24421082,35.1707456 L6.17981984,36.5105146 L4.83115561,34.4530123 Z M44.9492428,8.21587045 C47.1124468,8.59600331 48.5545828,10.6481891 48.1700132,12.8013892 C47.7907848,14.9545892 45.7263938,16.390056 43.5658604,16.0099231 C41.3999858,15.6297903 39.9578498,13.5776045 40.3424194,11.4244044 C40.7243184,9.27120432 42.7887094,7.8357376 44.9492428,8.21587045 L44.9492428,8.21587045 Z M11.4916875,33.6209732 C9.87596101,30.1731948 9.99079776,8.86714702 20.4382719,5.45392614 C20.4382719,5.45392614 16.6112703,7.22965165 17.9626051,12.1421378 C19.7252158,8.80866504 22.9379743,3.07477296 32.0982086,1.55424154 C37.9682362,0.855116078 28.8801088,1.82538525 30.6427195,6.96914102 C30.6988025,4.80530784 45.1762456,-4.00154634 57.0685264,2.14171959 C60.2892968,25.4946366 43.3121513,26.799848 43.3121513,26.799848 C43.3121513,26.799848 46.9682332,27.3820095 49.1421197,26.682884 C46.9121501,36.3829175 33.6952407,36.9438129 33.6952407,36.9438129 C33.6952407,36.9438129 38.7160105,38.187884 42.2412318,37.541924 C30.1433131,45.4343327 13.6495502,36.3589931 13.6495502,36.3589931 C13.5854553,36.3802593 13.4465829,36.2579788 13.2649806,36.0426587 L40.6682353,17.0439908 C41.3919739,17.5703286 42.2465731,17.9398284 43.1919733,18.1072995 C46.516898,18.6947775 49.6922678,16.4857538 50.2798047,13.1708889 C50.8673416,9.86134064 48.6480545,6.70331385 45.3204592,6.11849407 C41.9955346,5.53101602 38.8201647,7.74269809 38.2352985,11.0549046 C37.9442006,12.6711338 38.3314409,14.2554638 39.18604,15.5154846 L19.5489547,29.3225479 L19.0014772,28.5277246 L11.5210643,33.6342646 L11.4916875,33.6209732 Z" id="Fill-1" fill="#FEFEFE" mask="url(#mask-2)"></path>
            </g>
        </g>
    </g>
</svg>