<?xml version="1.0" encoding="utf-8"?>
<!-- Generator: Adobe Illustrator 23.1.1, SVG Export Plug-In . SVG Version: 6.00 Build 0)  -->
<svg version="1.1" id="Layer_1" xmlns="http://www.w3.org/2000/svg" xmlns:xlink="http://www.w3.org/1999/xlink" x="0px" y="0px"
	 viewBox="0 0 279 207" style="enable-background:new 0 0 279 207;" xml:space="preserve">
<style type="text/css">
	.st0{fill-rule:evenodd;clip-rule:evenodd;fill:#202020;}
	.st1{fill:#FFFFFF;}
	.st2{fill:none;stroke:#FFFFFF;stroke-linecap:square;}
	.st3{fill-rule:evenodd;clip-rule:evenodd;fill:#C8282C;}
	.st4{fill:none;stroke:#FEFEFE;stroke-width:3.4485;stroke-linecap:round;}
	.st5{fill-rule:evenodd;clip-rule:evenodd;fill:#FEFEFE;}
	.st6{fill:none;stroke:#819FB3;stroke-width:3.4485;}
	.st7{fill-rule:evenodd;clip-rule:evenodd;fill:#FFFFFF;}
</style>
<title>large-page-title-description-background-image</title>
<desc>Created with Sketch.</desc>
<g id="large-page-title-description-background-image">
	<image style="overflow:visible;" width="315" height="210" xlink:href="C115D1AD2C620B81.jpg"  transform="matrix(1 0 0 1 -25 0)">
	</image>
	<rect id="BG" x="24" y="120" class="st0" width="172" height="27"/>
	<path id="Dialogboxtext" class="st1" d="M33.3,135c0.2,0,0.5,0,0.6-0.1c0.3-0.1,0.5-0.3,0.7-0.5c0.1-0.2,0.3-0.5,0.3-0.8
		c0-0.2,0.1-0.4,0.1-0.5c0-0.6-0.1-1.1-0.4-1.5c-0.3-0.4-0.7-0.5-1.3-0.5H32v4H33.3z M31,130h2c0.7,0,1.2,0.3,1.5,0.9
		c0.3,0.5,0.5,1.2,0.5,2c0,0.6-0.1,1.2-0.3,1.7c-0.3,0.9-0.9,1.4-1.8,1.4h-2V130z M36,132h1v4h-1V132z M36,131h1v1h-1V131z
		 M38,135.6c0,0.1,0.1,0.2,0.2,0.3c0.1,0.1,0.3,0.1,0.5,0.1c0.2,0,0.5,0,0.7-0.1c0.4-0.1,0.6-0.3,0.6-0.6V135
		c-0.1,0-0.2,0.1-0.3,0.1s-0.3,0-0.4,0l-0.4,0c-0.2,0-0.4,0.1-0.6,0.1C38.1,135.3,38,135.4,38,135.6z M40.5,133.6
		c0.2,0,0.3-0.1,0.3-0.2c0-0.1,0-0.1,0-0.2c0-0.2-0.1-0.4-0.3-0.5c-0.2-0.1-0.4-0.1-0.7-0.1c-0.4,0-0.6,0.1-0.8,0.3
		c-0.1,0.1-0.1,0.2-0.2,0.4h-0.7c0-0.5,0.2-0.8,0.5-1c0.3-0.2,0.7-0.3,1.1-0.3c0.5,0,0.9,0.1,1.2,0.3c0.3,0.2,0.5,0.4,0.5,0.8v2.2
		c0,0.1,0,0.1,0,0.2s0.1,0.1,0.2,0.1c0,0,0.1,0,0.1,0c0,0,0.1,0,0.1,0v0.5c-0.1,0-0.2,0-0.3,0.1c-0.1,0-0.1,0-0.2,0
		c-0.2,0-0.4-0.1-0.5-0.2c-0.1-0.1-0.1-0.2-0.1-0.3c-0.1,0.2-0.4,0.3-0.6,0.4c-0.3,0.1-0.6,0.2-0.9,0.2c-0.4,0-0.7-0.1-1-0.3
		c-0.2-0.2-0.4-0.5-0.4-0.8c0-0.4,0.1-0.6,0.4-0.8c0.2-0.2,0.6-0.3,1-0.4L40.5,133.6z M43,130h1v6h-1V130z M46,135
		c0.4,0,0.6-0.2,0.8-0.5c0.1-0.3,0.2-0.7,0.2-1.1c0-0.4-0.1-0.7-0.2-0.9c-0.2-0.4-0.4-0.5-0.8-0.5c-0.4,0-0.6,0.2-0.8,0.5
		c-0.2,0.3-0.2,0.7-0.2,1.1c0,0.4,0.1,0.8,0.2,1C45.4,134.9,45.7,135,46,135z M46,132c0.6,0,1,0.2,1.4,0.5s0.6,0.8,0.6,1.4
		c0,0.6-0.2,1.1-0.5,1.5c-0.3,0.4-0.9,0.6-1.6,0.6c-0.6,0-1.1-0.2-1.4-0.5c-0.3-0.3-0.5-0.8-0.5-1.4c0-0.6,0.2-1.1,0.5-1.5
		C44.9,132.2,45.4,132,46,132z M49.9,132c0.4,0,0.7,0.1,0.9,0.2c0.1,0.1,0.3,0.2,0.4,0.4v-0.5H52v3.8c0,0.5-0.1,0.9-0.3,1.3
		c-0.3,0.6-0.9,0.8-1.8,0.8c-0.5,0-0.9-0.1-1.2-0.3s-0.5-0.5-0.6-0.9h0.8c0,0.2,0.1,0.3,0.2,0.4c0.2,0.2,0.4,0.2,0.8,0.2
		c0.6,0,1-0.2,1.2-0.6c0.1-0.2,0.2-0.6,0.1-1.2c-0.2,0.2-0.3,0.4-0.6,0.5c-0.2,0.1-0.5,0.2-0.9,0.2c-0.5,0-0.9-0.2-1.3-0.5
		c-0.4-0.3-0.6-0.8-0.6-1.6c0-0.7,0.2-1.2,0.6-1.6C48.9,132.2,49.4,132,49.9,132z M51,133.5c0-0.5-0.1-0.9-0.3-1.1S50.3,132,50,132
		c-0.4,0-0.7,0.2-0.9,0.7c-0.1,0.2-0.1,0.6-0.1,0.9c0,0.5,0.1,0.8,0.2,1c0.2,0.2,0.4,0.4,0.7,0.4c0.4,0,0.7-0.2,0.9-0.7
		C51,134.1,51,133.8,51,133.5z M55,130h0.7v2.1c0.2-0.2,0.4-0.4,0.6-0.5c0.2-0.1,0.5-0.2,0.8-0.2c0.6,0,1,0.2,1.4,0.5
		c0.4,0.4,0.5,0.9,0.5,1.6c0,0.7-0.2,1.2-0.5,1.7c-0.3,0.4-0.8,0.7-1.4,0.7c-0.3,0-0.6-0.1-0.9-0.2c-0.1-0.1-0.3-0.2-0.5-0.4v0.5H55
		V130z M57,135c0.3,0,0.6-0.1,0.7-0.4c0.2-0.3,0.2-0.7,0.2-1.1c0-0.4-0.1-0.8-0.2-1c-0.2-0.3-0.4-0.4-0.7-0.4
		c-0.3,0-0.5,0.1-0.7,0.3c-0.2,0.2-0.3,0.6-0.3,1.1c0,0.4,0,0.7,0.1,0.9C56.3,134.8,56.6,135,57,135z M61,135c0.4,0,0.6-0.2,0.8-0.5
		c0.1-0.3,0.2-0.7,0.2-1.1c0-0.4-0.1-0.7-0.2-0.9c-0.2-0.4-0.4-0.5-0.8-0.5c-0.4,0-0.6,0.2-0.8,0.5c-0.2,0.3-0.2,0.7-0.2,1.1
		c0,0.4,0.1,0.8,0.2,1C60.4,134.9,60.7,135,61,135z M61,132c0.6,0,1,0.2,1.4,0.5s0.6,0.8,0.6,1.4c0,0.6-0.2,1.1-0.5,1.5
		c-0.3,0.4-0.9,0.6-1.6,0.6c-0.6,0-1.1-0.2-1.4-0.5c-0.3-0.3-0.5-0.8-0.5-1.4c0-0.6,0.2-1.1,0.5-1.5C59.9,132.2,60.4,132,61,132z
		 M64.1,132H65l1,1.4l1-1.4l0.9,0l-1.5,1.9L68,136h-0.9l-1.1-1.5l-1.1,1.5H64l1.5-2.1L64.1,132z M70.6,131h0.7v1.1H72v0.5h-0.7v2.5
		c0,0.1,0.1,0.2,0.2,0.3c0.1,0,0.1,0,0.3,0c0,0,0.1,0,0.1,0c0,0,0.1,0,0.1,0v0.5c-0.1,0-0.2,0-0.3,0c-0.1,0-0.2,0-0.3,0
		c-0.3,0-0.6-0.1-0.7-0.2s-0.2-0.4-0.2-0.6v-2.6H70v-0.5h0.6V131z M75.1,132c0.3,0,0.6,0.1,0.9,0.2c0.3,0.1,0.5,0.3,0.7,0.5
		c0.1,0.2,0.2,0.4,0.3,0.7c0,0.2,0.1,0.5,0.1,0.8h-3.2c0,0.4,0.1,0.7,0.3,0.9c0.2,0.2,0.5,0.3,0.9,0.3c0.4,0,0.7-0.1,0.9-0.3
		c0.1-0.1,0.2-0.3,0.3-0.4h0.7c0,0.1-0.1,0.3-0.2,0.5s-0.2,0.3-0.4,0.4c-0.2,0.2-0.5,0.3-0.8,0.4c-0.2,0-0.4,0.1-0.6,0.1
		c-0.5,0-1-0.2-1.4-0.5c-0.4-0.3-0.6-0.8-0.6-1.4c0-0.6,0.2-1.1,0.6-1.5C74,132.2,74.5,132,75.1,132z M76,133c0-0.2-0.1-0.4-0.2-0.6
		c-0.2-0.3-0.4-0.4-0.8-0.4c-0.3,0-0.5,0.1-0.7,0.3c-0.2,0.2-0.3,0.4-0.3,0.7H76z M77.1,132H78l1,1.4l1-1.4l0.9,0l-1.5,1.9L81,136
		h-0.9l-1.1-1.5l-1.1,1.5H77l1.5-2.1L77.1,132z M81.6,131h0.7v1.1H83v0.5h-0.7v2.5c0,0.1,0.1,0.2,0.2,0.3c0.1,0,0.1,0,0.3,0
		c0,0,0.1,0,0.1,0c0,0,0.1,0,0.1,0v0.5c-0.1,0-0.2,0-0.3,0c-0.1,0-0.2,0-0.3,0c-0.3,0-0.6-0.1-0.7-0.2s-0.2-0.4-0.2-0.6v-2.6H81
		v-0.5h0.6V131z"/>
	<path id="Line-Copy" class="st2" d="M24,98.2h170.8"/>
	<path id="Line-Copy-2" class="st2" d="M24,108.5h108.7"/>
	<path id="PAGETITLE" class="st1" d="M31.9,47c0-0.7-0.2-1.2-0.5-1.5c-0.4-0.3-0.9-0.4-1.5-0.4h-2.6V49h2.6c0.7,0,1.2-0.2,1.5-0.5
		C31.7,48.2,31.9,47.7,31.9,47z M34.6,47c0,1.6-0.4,2.7-1.2,3.3c-0.8,0.6-1.9,1-3.4,1h-2.8V56h-2.7V42.8h5.8c1.3,0,2.4,0.3,3.2,1
		C34.2,44.5,34.6,45.5,34.6,47z M39.1,51h3.4l-1.7-5.2L39.1,51z M39.3,42.8h3.1L47.1,56h-3l-0.9-2.7h-4.9L37.4,56h-2.9L39.3,42.8z
		 M57.8,46.9c-0.2-0.9-0.7-1.5-1.5-1.9c-0.5-0.2-1-0.3-1.5-0.3c-1.1,0-1.9,0.4-2.6,1.2s-1,2-1,3.6c0,1.6,0.4,2.8,1.1,3.5
		s1.6,1,2.5,1c0.9,0,1.7-0.3,2.3-0.8c0.6-0.5,1-1.2,1.1-2.1h-3.1v-2.2h5.5V56h-1.8l-0.3-1.7c-0.5,0.6-1,1.1-1.4,1.3
		c-0.7,0.4-1.6,0.7-2.7,0.7c-1.8,0-3.2-0.6-4.3-1.8c-1.2-1.2-1.8-2.9-1.8-5c0-2.1,0.6-3.9,1.8-5.2s2.7-1.9,4.7-1.9
		c1.7,0,3,0.4,4.1,1.3c1,0.9,1.6,1.9,1.8,3.2H57.8z M73.2,45.1h-7v2.8h6.4v2.3h-6.4v3.4h7.3V56h-10V42.8h9.7V45.1z M90.7,42.8v2.3
		h-4V56H84V45.1h-4v-2.3H90.7z M95.1,56h-2.7V42.8h2.7V56z M107.4,42.8v2.3h-4V56h-2.8V45.1h-4v-2.3H107.4z M109.2,42.8h2.8v10.9
		h6.6V56h-9.3V42.8z M130.4,45.1h-7v2.8h6.4v2.3h-6.4v3.4h7.3V56h-10V42.8h9.7V45.1z"/>
	<path id="Pagedescriptiontogowithit" class="st1" d="M23.7,71v-6.7h2.5c0.4,0,0.8,0,1.1,0.1c0.3,0.1,0.5,0.2,0.7,0.4
		c0.2,0.2,0.3,0.4,0.3,0.6c0.1,0.2,0.1,0.5,0.1,0.7c0,0.4-0.1,0.7-0.2,0.9s-0.4,0.4-0.6,0.6s-0.5,0.2-0.8,0.3S26.1,68,25.8,68h-1.4
		v3H23.7z M25.8,67.5c0.3,0,0.6,0,0.8-0.1s0.4-0.1,0.6-0.2s0.3-0.2,0.4-0.4s0.1-0.4,0.1-0.7c0-0.4-0.1-0.7-0.4-1s-0.7-0.3-1.3-0.3
		h-1.6v2.7H25.8z M32.9,68.5c-0.2,0.1-0.5,0.2-0.7,0.2c-0.2,0-0.5,0.1-0.7,0.1c-0.4,0-0.8,0.1-1,0.3c-0.2,0.2-0.4,0.4-0.4,0.7
		c0,0.1,0,0.3,0.1,0.4c0.1,0.1,0.1,0.2,0.2,0.3s0.2,0.1,0.3,0.2c0.1,0,0.3,0.1,0.4,0.1c0.2,0,0.4,0,0.7-0.1c0.2-0.1,0.4-0.1,0.6-0.3
		c0.2-0.1,0.3-0.3,0.4-0.4c0.1-0.2,0.1-0.4,0.1-0.6V68.5z M31.9,68.2c0.1,0,0.2,0,0.4-0.1s0.3-0.1,0.4-0.1c0.1,0,0.2-0.1,0.2-0.2
		c0-0.1,0-0.2,0-0.3c0-0.3-0.1-0.5-0.3-0.7c-0.2-0.2-0.5-0.3-0.9-0.3c-0.2,0-0.4,0-0.5,0.1c-0.2,0-0.3,0.1-0.4,0.2
		c-0.1,0.1-0.2,0.2-0.3,0.3s-0.1,0.3-0.2,0.5h-0.6c0-0.3,0.1-0.5,0.2-0.7c0.1-0.2,0.3-0.4,0.4-0.5s0.4-0.2,0.6-0.3s0.5-0.1,0.7-0.1
		c0.2,0,0.5,0,0.7,0.1c0.2,0.1,0.4,0.1,0.6,0.3s0.3,0.3,0.4,0.5c0.1,0.2,0.1,0.4,0.1,0.7v2.6c0,0.2,0,0.4,0.1,0.4
		c0.1,0.1,0.2,0,0.5,0V71c0,0-0.1,0-0.2,0.1c-0.1,0-0.2,0-0.2,0c-0.1,0-0.2,0-0.3,0c-0.1,0-0.2,0-0.2-0.1c-0.1,0-0.1-0.1-0.1-0.2
		c0-0.1-0.1-0.1-0.1-0.2c0-0.1,0-0.2,0-0.2c-0.2,0.3-0.5,0.5-0.8,0.6c-0.3,0.1-0.6,0.2-1,0.2c-0.2,0-0.4,0-0.6-0.1
		c-0.2-0.1-0.4-0.1-0.5-0.3c-0.1-0.1-0.3-0.3-0.4-0.4s-0.1-0.4-0.1-0.6c0-0.8,0.6-1.3,1.7-1.5L31.9,68.2z M38.9,68.6
		c0-0.3,0-0.6-0.1-0.8c-0.1-0.3-0.2-0.5-0.3-0.7s-0.3-0.3-0.5-0.4c-0.2-0.1-0.4-0.2-0.7-0.2c-0.2,0-0.5,0-0.7,0.1
		c-0.2,0.1-0.4,0.2-0.5,0.4c-0.1,0.2-0.3,0.4-0.4,0.6c-0.1,0.2-0.1,0.5-0.1,0.8c0,0.3,0,0.6,0.1,0.9c0.1,0.3,0.2,0.5,0.3,0.7
		s0.3,0.4,0.5,0.5s0.5,0.2,0.8,0.2c0.3,0,0.5-0.1,0.7-0.2c0.2-0.1,0.4-0.3,0.5-0.4s0.2-0.4,0.3-0.6C38.9,69.1,38.9,68.9,38.9,68.6z
		 M38.9,66.2h0.6v4.4c0,0.3,0,0.6-0.1,0.9c-0.1,0.3-0.2,0.6-0.4,0.8c-0.2,0.2-0.4,0.4-0.7,0.5S37.7,73,37.2,73c-0.4,0-0.7,0-0.9-0.1
		c-0.3-0.1-0.5-0.2-0.6-0.3c-0.2-0.1-0.3-0.3-0.4-0.5c-0.1-0.2-0.1-0.3-0.1-0.5h0.6c0,0.2,0.1,0.3,0.2,0.4c0.1,0.1,0.2,0.2,0.3,0.3
		c0.1,0.1,0.3,0.1,0.4,0.1c0.2,0,0.3,0,0.5,0c0.4,0,0.7-0.1,0.9-0.2c0.2-0.1,0.4-0.3,0.5-0.5c0.1-0.2,0.2-0.5,0.2-0.7
		c0-0.3,0-0.5,0-0.8c-0.2,0.3-0.4,0.5-0.7,0.7s-0.6,0.2-1,0.2c-0.4,0-0.7-0.1-1-0.2s-0.5-0.3-0.7-0.6c-0.2-0.2-0.3-0.5-0.4-0.8
		c-0.1-0.3-0.1-0.6-0.1-1c0-0.4,0-0.7,0.1-1c0.1-0.3,0.2-0.6,0.4-0.8c0.2-0.2,0.4-0.4,0.7-0.5c0.3-0.1,0.6-0.2,1-0.2
		c0.2,0,0.3,0,0.5,0.1s0.3,0.1,0.5,0.2c0.2,0.1,0.3,0.2,0.4,0.3c0.1,0.1,0.2,0.3,0.3,0.4h0V66.2z M44.7,68.2c0-0.2,0-0.5-0.1-0.7
		c-0.1-0.2-0.2-0.4-0.3-0.5c-0.1-0.2-0.3-0.3-0.5-0.4c-0.2-0.1-0.4-0.1-0.7-0.1c-0.2,0-0.5,0-0.7,0.1c-0.2,0.1-0.4,0.2-0.5,0.4
		c-0.1,0.2-0.2,0.3-0.3,0.5c-0.1,0.2-0.1,0.4-0.2,0.7H44.7z M41.6,68.7c0,0.3,0,0.5,0.1,0.7c0.1,0.2,0.2,0.4,0.3,0.6
		c0.1,0.2,0.3,0.3,0.5,0.4c0.2,0.1,0.4,0.2,0.7,0.2c0.4,0,0.7-0.1,0.9-0.3c0.3-0.2,0.4-0.5,0.5-0.8h0.6c-0.1,0.2-0.2,0.4-0.3,0.6
		c-0.1,0.2-0.3,0.4-0.4,0.5S44.2,70.9,44,71c-0.2,0.1-0.5,0.1-0.8,0.1c-0.4,0-0.7-0.1-1-0.2c-0.3-0.1-0.5-0.3-0.7-0.5
		s-0.3-0.5-0.4-0.8C41,69.3,41,69,41,68.6c0-0.4,0.1-0.7,0.2-1c0.1-0.3,0.2-0.6,0.4-0.8c0.2-0.2,0.4-0.4,0.7-0.6
		c0.3-0.1,0.6-0.2,0.9-0.2c0.7,0,1.2,0.2,1.6,0.7s0.6,1.1,0.6,2H41.6z M53.4,68.6c0-0.3,0-0.5-0.1-0.8c-0.1-0.2-0.2-0.5-0.3-0.6
		s-0.3-0.3-0.5-0.4c-0.2-0.1-0.4-0.2-0.7-0.2c-0.3,0-0.5,0.1-0.8,0.2c-0.2,0.1-0.4,0.3-0.5,0.5s-0.2,0.4-0.3,0.7
		c-0.1,0.3-0.1,0.6-0.1,0.9c0,0.3,0,0.6,0.1,0.8c0.1,0.2,0.2,0.4,0.4,0.6c0.1,0.2,0.3,0.3,0.5,0.4c0.2,0.1,0.4,0.1,0.7,0.1
		c0.3,0,0.5-0.1,0.7-0.2c0.2-0.1,0.4-0.3,0.5-0.4s0.2-0.4,0.3-0.7C53.4,69.1,53.4,68.9,53.4,68.6z M53.4,64.3H54V71h-0.6v-0.9h0
		c-0.1,0.2-0.2,0.3-0.3,0.4s-0.3,0.2-0.4,0.3s-0.3,0.1-0.5,0.2s-0.3,0.1-0.5,0.1c-0.4,0-0.7-0.1-1-0.2c-0.3-0.1-0.5-0.3-0.7-0.5
		s-0.3-0.5-0.4-0.8c-0.1-0.3-0.1-0.6-0.1-1c0-0.3,0-0.7,0.1-1c0.1-0.3,0.2-0.6,0.4-0.8c0.2-0.2,0.4-0.4,0.7-0.6
		c0.3-0.1,0.6-0.2,1-0.2c0.3,0,0.7,0.1,1,0.2s0.6,0.4,0.7,0.7V64.3z M59.2,68.2c0-0.2,0-0.5-0.1-0.7c-0.1-0.2-0.2-0.4-0.3-0.5
		s-0.3-0.3-0.5-0.4s-0.4-0.1-0.7-0.1c-0.2,0-0.5,0-0.7,0.1c-0.2,0.1-0.4,0.2-0.5,0.4c-0.1,0.2-0.2,0.3-0.3,0.5
		C56.1,67.8,56,68,56,68.2H59.2z M56,68.7c0,0.3,0,0.5,0.1,0.7c0.1,0.2,0.2,0.4,0.3,0.6s0.3,0.3,0.5,0.4c0.2,0.1,0.4,0.2,0.7,0.2
		c0.4,0,0.7-0.1,0.9-0.3c0.3-0.2,0.4-0.5,0.5-0.8h0.6c-0.1,0.2-0.2,0.4-0.3,0.6s-0.3,0.4-0.4,0.5s-0.4,0.3-0.6,0.3
		c-0.2,0.1-0.5,0.1-0.8,0.1c-0.4,0-0.7-0.1-1-0.2c-0.3-0.1-0.5-0.3-0.7-0.5c-0.2-0.2-0.3-0.5-0.4-0.8c-0.1-0.3-0.1-0.6-0.1-1
		c0-0.4,0.1-0.7,0.2-1s0.2-0.6,0.4-0.8c0.2-0.2,0.4-0.4,0.7-0.6s0.6-0.2,0.9-0.2c0.7,0,1.2,0.2,1.6,0.7c0.4,0.5,0.6,1.1,0.6,2H56z
		 M61.5,69.5c0.1,0.4,0.2,0.7,0.5,0.9c0.2,0.2,0.6,0.3,1,0.3c0.2,0,0.4,0,0.5-0.1s0.3-0.1,0.4-0.2c0.1-0.1,0.2-0.2,0.2-0.3
		c0-0.1,0.1-0.2,0.1-0.3c0-0.2-0.1-0.4-0.2-0.5c-0.2-0.1-0.3-0.2-0.6-0.3c-0.2-0.1-0.5-0.1-0.7-0.2c-0.3,0-0.5-0.1-0.7-0.2
		s-0.4-0.2-0.6-0.4c-0.2-0.2-0.2-0.4-0.2-0.7c0-0.4,0.1-0.7,0.4-1s0.7-0.4,1.3-0.4c0.5,0,0.9,0.1,1.3,0.4c0.3,0.2,0.5,0.6,0.6,1.2
		h-0.6c0-0.4-0.2-0.6-0.4-0.8c-0.2-0.2-0.5-0.2-0.9-0.2c-0.4,0-0.6,0.1-0.8,0.2c-0.2,0.2-0.3,0.4-0.3,0.6c0,0.2,0.1,0.4,0.2,0.5
		s0.3,0.2,0.6,0.3c0.2,0.1,0.5,0.1,0.7,0.2c0.3,0.1,0.5,0.1,0.7,0.2c0.2,0.1,0.4,0.2,0.6,0.4c0.2,0.2,0.2,0.4,0.2,0.7
		c0,0.2,0,0.4-0.1,0.6s-0.2,0.3-0.4,0.4C64,70.9,63.8,71,63.6,71c-0.2,0.1-0.5,0.1-0.8,0.1c-0.3,0-0.5,0-0.8-0.1
		c-0.2-0.1-0.4-0.2-0.6-0.4c-0.2-0.1-0.3-0.3-0.4-0.5c-0.1-0.2-0.1-0.4-0.1-0.6H61.5z M69.6,67.7c-0.1-0.4-0.3-0.6-0.5-0.8
		c-0.2-0.2-0.6-0.3-0.9-0.3c-0.3,0-0.5,0.1-0.7,0.2c-0.2,0.1-0.4,0.3-0.5,0.5c-0.1,0.2-0.2,0.4-0.3,0.7c-0.1,0.2-0.1,0.5-0.1,0.7
		c0,0.3,0,0.5,0.1,0.7c0.1,0.2,0.2,0.5,0.3,0.7c0.1,0.2,0.3,0.3,0.5,0.5c0.2,0.1,0.5,0.2,0.7,0.2c0.4,0,0.8-0.1,1-0.3
		c0.3-0.2,0.4-0.5,0.5-1h0.6c0,0.3-0.1,0.5-0.2,0.7s-0.2,0.4-0.4,0.6S69.2,70.9,69,71s-0.5,0.1-0.8,0.1c-0.4,0-0.7-0.1-1-0.2
		c-0.3-0.1-0.5-0.3-0.7-0.5c-0.2-0.2-0.3-0.5-0.4-0.8s-0.1-0.6-0.1-1c0-0.3,0-0.7,0.1-1c0.1-0.3,0.2-0.6,0.4-0.8
		c0.2-0.2,0.4-0.4,0.7-0.6c0.3-0.1,0.6-0.2,1-0.2c0.6,0,1,0.1,1.4,0.4s0.6,0.7,0.6,1.3H69.6z M72.3,71h-0.6v-4.8h0.6v0.9h0
		c0.2-0.4,0.4-0.7,0.6-0.8s0.6-0.2,1-0.2v0.6c-0.3,0-0.6,0-0.8,0.1c-0.2,0.1-0.4,0.2-0.5,0.4c-0.1,0.2-0.2,0.4-0.3,0.6
		c0,0.2-0.1,0.5-0.1,0.8V71z M75.2,71v-4.8h0.6V71H75.2z M75.2,65.1v-0.8h0.6v0.8H75.2z M78.1,68.6c0,0.3,0,0.5,0.1,0.8
		c0.1,0.2,0.2,0.5,0.3,0.6s0.3,0.3,0.5,0.4c0.2,0.1,0.4,0.2,0.7,0.2c0.3,0,0.5-0.1,0.8-0.2s0.4-0.3,0.5-0.5c0.1-0.2,0.2-0.4,0.3-0.7
		c0.1-0.3,0.1-0.6,0.1-0.9c0-0.3,0-0.6-0.1-0.8c-0.1-0.2-0.2-0.4-0.4-0.6c-0.1-0.2-0.3-0.3-0.5-0.4c-0.2-0.1-0.4-0.1-0.7-0.1
		c-0.3,0-0.5,0.1-0.7,0.2c-0.2,0.1-0.4,0.3-0.5,0.4c-0.1,0.2-0.2,0.4-0.3,0.7C78.2,68,78.1,68.3,78.1,68.6z M78.1,72.9h-0.6v-6.8
		h0.6V67h0c0.1-0.2,0.2-0.3,0.3-0.4s0.3-0.2,0.4-0.3s0.3-0.1,0.5-0.2c0.2,0,0.3-0.1,0.5-0.1c0.4,0,0.7,0.1,1,0.2
		c0.3,0.1,0.5,0.3,0.7,0.5s0.3,0.5,0.4,0.8s0.1,0.6,0.1,1c0,0.3,0,0.7-0.1,1c-0.1,0.3-0.2,0.6-0.4,0.8c-0.2,0.2-0.4,0.4-0.7,0.6
		s-0.6,0.2-1,0.2c-0.3,0-0.7-0.1-1-0.2c-0.3-0.2-0.6-0.4-0.7-0.7V72.9z M85.2,71c-0.1,0-0.2,0-0.3,0.1c-0.1,0-0.2,0-0.4,0
		c-0.3,0-0.5-0.1-0.6-0.2s-0.2-0.4-0.2-0.8v-3.5H83v-0.5h0.7v-1.3h0.6v1.3h0.9v0.5h-0.9v3.3c0,0.1,0,0.2,0,0.3s0,0.2,0.1,0.2
		c0,0.1,0.1,0.1,0.1,0.1s0.2,0,0.3,0c0.1,0,0.2,0,0.2,0c0.1,0,0.2,0,0.2,0V71z M86.5,71v-4.8h0.6V71H86.5z M86.5,65.1v-0.8h0.6v0.8
		H86.5z M90.7,71.1c-0.3,0-0.6-0.1-0.9-0.2c-0.3-0.1-0.5-0.3-0.7-0.5c-0.2-0.2-0.4-0.5-0.5-0.8c-0.1-0.3-0.2-0.7-0.2-1.1
		c0-0.4,0-0.7,0.1-1c0.1-0.3,0.2-0.6,0.4-0.8c0.2-0.2,0.4-0.4,0.7-0.5s0.6-0.2,1-0.2c0.4,0,0.7,0.1,1,0.2s0.5,0.3,0.7,0.5
		c0.2,0.2,0.3,0.5,0.4,0.8c0.1,0.3,0.1,0.6,0.1,1c0,0.4-0.1,0.7-0.2,1c-0.1,0.3-0.3,0.6-0.5,0.8c-0.2,0.2-0.4,0.4-0.7,0.5
		C91.4,71.1,91.1,71.1,90.7,71.1z M92.4,68.6c0-0.3,0-0.6-0.1-0.8c-0.1-0.2-0.2-0.5-0.3-0.6c-0.1-0.2-0.3-0.3-0.5-0.4
		c-0.2-0.1-0.5-0.2-0.8-0.2c-0.3,0-0.5,0.1-0.8,0.2s-0.4,0.3-0.5,0.5c-0.1,0.2-0.2,0.4-0.3,0.7c-0.1,0.2-0.1,0.5-0.1,0.8
		c0,0.3,0,0.6,0.1,0.8c0.1,0.3,0.2,0.5,0.3,0.6c0.1,0.2,0.3,0.3,0.5,0.4c0.2,0.1,0.4,0.1,0.7,0.1c0.3,0,0.5-0.1,0.8-0.2
		c0.2-0.1,0.4-0.3,0.5-0.5c0.1-0.2,0.2-0.4,0.3-0.7C92.4,69.1,92.4,68.8,92.4,68.6z M94.9,71h-0.6v-4.8h0.6v0.7
		c0.2-0.2,0.5-0.4,0.7-0.6c0.2-0.1,0.5-0.2,0.9-0.2c0.3,0,0.6,0.1,0.8,0.2s0.5,0.3,0.6,0.5c0.1,0.2,0.2,0.4,0.2,0.5
		c0,0.2,0,0.4,0,0.6V71h-0.6v-3.2c0-0.4-0.1-0.8-0.3-1c-0.2-0.2-0.5-0.3-1-0.3c-0.2,0-0.3,0-0.5,0.1c-0.1,0.1-0.3,0.1-0.4,0.2
		c-0.1,0.1-0.2,0.2-0.3,0.3c-0.1,0.1-0.1,0.2-0.2,0.4c-0.1,0.2-0.1,0.3-0.1,0.4c0,0.1,0,0.3,0,0.5V71z M25.4,82
		c-0.1,0-0.2,0-0.3,0.1c-0.1,0-0.2,0-0.4,0c-0.3,0-0.5-0.1-0.6-0.2s-0.2-0.4-0.2-0.8v-3.5h-0.7v-0.5h0.7v-1.3h0.6v1.3h0.9v0.5h-0.9
		v3.3c0,0.1,0,0.2,0,0.3s0,0.2,0.1,0.2c0,0.1,0.1,0.1,0.1,0.1s0.2,0,0.3,0c0.1,0,0.2,0,0.2,0s0.2,0,0.2,0V82z M28.5,82.1
		c-0.3,0-0.6-0.1-0.9-0.2c-0.3-0.1-0.5-0.3-0.7-0.5c-0.2-0.2-0.4-0.5-0.5-0.8c-0.1-0.3-0.2-0.7-0.2-1.1c0-0.4,0-0.7,0.1-1
		c0.1-0.3,0.2-0.6,0.4-0.8c0.2-0.2,0.4-0.4,0.7-0.5c0.3-0.1,0.6-0.2,1-0.2c0.4,0,0.7,0.1,1,0.2c0.3,0.1,0.5,0.3,0.7,0.5
		s0.3,0.5,0.4,0.8c0.1,0.3,0.1,0.6,0.1,1c0,0.4-0.1,0.7-0.2,1s-0.3,0.6-0.5,0.8c-0.2,0.2-0.4,0.4-0.7,0.5
		C29.2,82.1,28.8,82.1,28.5,82.1z M30.2,79.6c0-0.3,0-0.6-0.1-0.8c-0.1-0.2-0.2-0.5-0.3-0.6s-0.3-0.3-0.5-0.4
		c-0.2-0.1-0.5-0.2-0.8-0.2c-0.3,0-0.5,0.1-0.8,0.2c-0.2,0.1-0.4,0.3-0.5,0.5c-0.1,0.2-0.2,0.4-0.3,0.7c-0.1,0.2-0.1,0.5-0.1,0.8
		c0,0.3,0,0.6,0.1,0.8c0.1,0.3,0.2,0.5,0.3,0.6c0.1,0.2,0.3,0.3,0.5,0.4c0.2,0.1,0.4,0.1,0.7,0.1c0.3,0,0.5-0.1,0.8-0.2
		c0.2-0.1,0.4-0.3,0.5-0.5c0.1-0.2,0.2-0.4,0.3-0.7C30.1,80.1,30.2,79.8,30.2,79.6z M38.7,79.6c0-0.3,0-0.6-0.1-0.8
		c-0.1-0.3-0.2-0.5-0.3-0.7s-0.3-0.3-0.5-0.4c-0.2-0.1-0.4-0.2-0.7-0.2c-0.2,0-0.5,0-0.7,0.1c-0.2,0.1-0.4,0.2-0.5,0.4
		c-0.1,0.2-0.3,0.4-0.4,0.6c-0.1,0.2-0.1,0.5-0.1,0.8c0,0.3,0,0.6,0.1,0.9c0.1,0.3,0.2,0.5,0.3,0.7c0.1,0.2,0.3,0.4,0.5,0.5
		c0.2,0.1,0.5,0.2,0.8,0.2c0.3,0,0.5-0.1,0.7-0.2c0.2-0.1,0.4-0.3,0.5-0.4c0.1-0.2,0.2-0.4,0.3-0.6C38.7,80.1,38.7,79.9,38.7,79.6z
		 M38.7,77.2h0.6v4.4c0,0.3,0,0.6-0.1,0.9c-0.1,0.3-0.2,0.6-0.4,0.8c-0.2,0.2-0.4,0.4-0.7,0.5S37.5,84,37,84c-0.4,0-0.7,0-0.9-0.1
		s-0.5-0.2-0.6-0.3c-0.2-0.1-0.3-0.3-0.4-0.5C35,82.9,35,82.7,35,82.6h0.6c0,0.2,0.1,0.3,0.2,0.4c0.1,0.1,0.2,0.2,0.3,0.3
		c0.1,0.1,0.3,0.1,0.4,0.1c0.2,0,0.3,0,0.5,0c0.4,0,0.7-0.1,0.9-0.2c0.2-0.1,0.4-0.3,0.5-0.5c0.1-0.2,0.2-0.5,0.2-0.7
		c0-0.3,0-0.5,0-0.8c-0.2,0.3-0.4,0.5-0.7,0.7s-0.6,0.2-1,0.2c-0.4,0-0.7-0.1-1-0.2c-0.3-0.1-0.5-0.3-0.7-0.6
		c-0.2-0.2-0.3-0.5-0.4-0.8c-0.1-0.3-0.1-0.6-0.1-1c0-0.4,0-0.7,0.1-1c0.1-0.3,0.2-0.6,0.4-0.8s0.4-0.4,0.7-0.5
		c0.3-0.1,0.6-0.2,1-0.2c0.2,0,0.3,0,0.5,0.1s0.3,0.1,0.5,0.2s0.3,0.2,0.4,0.3s0.2,0.3,0.3,0.4h0V77.2z M43,82.1
		c-0.3,0-0.6-0.1-0.9-0.2c-0.3-0.1-0.5-0.3-0.7-0.5c-0.2-0.2-0.4-0.5-0.5-0.8s-0.2-0.7-0.2-1.1c0-0.4,0-0.7,0.1-1
		c0.1-0.3,0.2-0.6,0.4-0.8c0.2-0.2,0.4-0.4,0.7-0.5c0.3-0.1,0.6-0.2,1-0.2c0.4,0,0.7,0.1,1,0.2s0.5,0.3,0.7,0.5s0.3,0.5,0.4,0.8
		c0.1,0.3,0.1,0.6,0.1,1c0,0.4-0.1,0.7-0.2,1c-0.1,0.3-0.3,0.6-0.5,0.8s-0.4,0.4-0.7,0.5C43.6,82.1,43.3,82.1,43,82.1z M44.6,79.6
		c0-0.3,0-0.6-0.1-0.8c-0.1-0.2-0.2-0.5-0.3-0.6c-0.1-0.2-0.3-0.3-0.5-0.4c-0.2-0.1-0.5-0.2-0.8-0.2c-0.3,0-0.5,0.1-0.8,0.2
		s-0.4,0.3-0.5,0.5s-0.2,0.4-0.3,0.7c-0.1,0.2-0.1,0.5-0.1,0.8c0,0.3,0,0.6,0.1,0.8c0.1,0.3,0.2,0.5,0.3,0.6
		c0.1,0.2,0.3,0.3,0.5,0.4c0.2,0.1,0.4,0.1,0.7,0.1c0.3,0,0.5-0.1,0.8-0.2c0.2-0.1,0.4-0.3,0.5-0.5c0.1-0.2,0.2-0.4,0.3-0.7
		S44.6,79.8,44.6,79.6z M53.5,81.3l1.3-4.1h0.6L53.8,82h-0.6l-1.1-4.1h0L51.1,82h-0.7l-1.5-4.8h0.6l1.3,4.1l1.1-4.1h0.6L53.5,81.3z
		 M56.6,82v-4.8h0.6V82H56.6z M56.6,76.1v-0.8h0.6v0.8H56.6z M60.6,82c-0.1,0-0.2,0-0.3,0.1c-0.1,0-0.2,0-0.4,0
		c-0.3,0-0.5-0.1-0.6-0.2s-0.2-0.4-0.2-0.8v-3.5h-0.7v-0.5h0.7v-1.3h0.6v1.3h0.9v0.5h-0.9v3.3c0,0.1,0,0.2,0,0.3s0,0.2,0.1,0.2
		s0.1,0.1,0.1,0.1s0.2,0,0.3,0c0.1,0,0.2,0,0.2,0c0.1,0,0.2,0,0.2,0V82z M61.8,82v-6.7h0.6v2.6c0.2-0.2,0.5-0.4,0.7-0.6
		c0.2-0.1,0.5-0.2,0.9-0.2c0.3,0,0.6,0.1,0.8,0.2c0.3,0.1,0.5,0.3,0.6,0.5c0.1,0.2,0.2,0.4,0.2,0.5c0,0.2,0,0.4,0,0.6V82h-0.6v-3.2
		c0-0.4-0.1-0.8-0.3-1c-0.2-0.2-0.5-0.3-1-0.3c-0.2,0-0.3,0-0.5,0.1s-0.3,0.1-0.4,0.2c-0.1,0.1-0.2,0.2-0.3,0.3
		c-0.1,0.1-0.1,0.2-0.2,0.4c-0.1,0.2-0.1,0.3-0.1,0.4c0,0.1,0,0.3,0,0.5V82H61.8z M70.3,82v-4.8h0.6V82H70.3z M70.3,76.1v-0.8h0.6
		v0.8H70.3z M74.3,82c-0.1,0-0.2,0-0.3,0.1c-0.1,0-0.2,0-0.4,0c-0.3,0-0.5-0.1-0.6-0.2s-0.2-0.4-0.2-0.8v-3.5h-0.7v-0.5h0.7v-1.3
		h0.6v1.3h0.9v0.5h-0.9v3.3c0,0.1,0,0.2,0,0.3s0,0.2,0.1,0.2c0,0.1,0.1,0.1,0.1,0.1s0.2,0,0.3,0c0.1,0,0.2,0,0.2,0
		c0.1,0,0.2,0,0.2,0V82z"/>
	
		<g id="Group-6-Copy-2" transform="translate(21.000000, 18.000000) scale(-1, 1) translate(-21.000000, -18.000000) translate(9.000000, 6.000000)">
		<path id="Fill-1" class="st3" d="M14.9,8L0,22.9"/>
		<path id="Stroke-2" class="st4" d="M6.9,16l-5.7,5.7"/>
		<polygon id="Fill-4" class="st5" points="1.1,12.5 13.7,9.1 10.4,21.7 		"/>
		<path id="Path-2" class="st6" d="M22.3,24V0"/>
		<path class="st6" d="M24,1.7H0"/>
	</g>
	
		<g transform="translate(21.000000, 185.000000) scale(-1, 1) rotate(90.000000) translate(-21.000000, -185.000000) translate(9.000000, 173.000000)">
		<path class="st3" d="M14.9,8L0,22.9"/>
		<path class="st4" d="M6.9,16l-5.7,5.7"/>
		<polygon class="st5" points="1.1,12.5 13.7,9.1 10.4,21.7 		"/>
		<path class="st6" d="M22.3,24V0"/>
		<path class="st6" d="M24,1.7H0"/>
	</g>
	
		<g transform="translate(257.000000, 185.000000) scale(1, -1) translate(-257.000000, -185.000000) translate(245.000000, 173.000000)">
		<path class="st3" d="M14.9,8L0,22.9"/>
		<path class="st4" d="M6.9,16l-5.7,5.7"/>
		<polygon class="st5" points="1.1,12.5 13.7,9.1 10.4,21.7 		"/>
		<path class="st6" d="M22.3,24V0"/>
		<path class="st6" d="M24,1.7H0"/>
	</g>
	
		<g transform="translate(257.000000, 18.000000) scale(1, -1) rotate(90.000000) translate(-257.000000, -18.000000) translate(245.000000, 6.000000)">
		<path class="st3" d="M14.9,8L0,22.9"/>
		<path class="st4" d="M6.9,16l-5.7,5.7"/>
		<polygon class="st5" points="1.1,12.5 13.7,9.1 10.4,21.7 		"/>
		<path class="st6" d="M22.3,24V0"/>
		<path class="st6" d="M24,1.7H0"/>
	</g>
	<path id="Rectangle-Copy-3" class="st7" d="M253,95v4V95z"/>
	<path id="Line-Copy-3" class="st2" d="M24,89.5h170.8"/>
	<path class="st2" d="M24,108.5h108.7"/>
</g>
</svg>
