<?xml version="1.0" encoding="utf-8"?>
<!-- Generator: Adobe Illustrator 23.1.1, SVG Export Plug-In . SVG Version: 6.00 Build 0)  -->
<svg version="1.1" id="Layer_1" xmlns="http://www.w3.org/2000/svg" xmlns:xlink="http://www.w3.org/1999/xlink" x="0px" y="0px"
	 viewBox="0 0 279 207" style="enable-background:new 0 0 279 207;" xml:space="preserve">
<style type="text/css">
	.st0{fill-rule:evenodd;clip-rule:evenodd;}
	.st1{fill-rule:evenodd;clip-rule:evenodd;fill:#819FB3;}
	.st2{fill:#FFFFFF;}
	.st3{font-family:'FontAwesome';}
	.st4{font-size:4.598px;}
	.st5{enable-background:new    ;}
	.st6{fill-rule:evenodd;clip-rule:evenodd;fill:#C8282C;}
	.st7{fill-rule:evenodd;clip-rule:evenodd;fill:#FFFFFF;}
</style>
<title>Large Featured Video Carouse</title>
<desc>Created with Sketch.</desc>
<g id="Large-Featured-Video-Carouse">
	
		<image style="overflow:visible;enable-background:new    ;" width="279" height="207" id="BG_fullscreen_video" xlink:href="4EDF90BC461E8038.png" >
	</image>
	<g id="Group-13" transform="translate(26.000000, 67.000000)">
		<g id="Video" transform="translate(11.495000, 0.000000)">
			<rect id="Rectangle" x="0" class="st0" width="106.9" height="73.6"/>
			<rect x="0" y="65.5" class="st1" width="106.9" height="8"/>
			<text transform="matrix(1 0 0 1 4.598 71.8205)" class="st2 st3 st4"></text>
		</g>
		<g class="st5">
			<path class="st2" d="M6,33.8l-2.7,2.7L6,39.3c0.1,0.1,0.1,0.1,0.1,0.2c0,0.1,0,0.2-0.1,0.2l-0.9,0.9c-0.1,0.1-0.1,0.1-0.2,0.1
				s-0.2,0-0.2-0.1l-3.8-3.8c-0.1-0.1-0.1-0.1-0.1-0.2s0-0.2,0.1-0.2l3.8-3.8c0.1-0.1,0.1-0.1,0.2-0.1s0.2,0,0.2,0.1L6,33.4
				c0.1,0.1,0.1,0.1,0.1,0.2S6.1,33.8,6,33.8z"/>
		</g>
		<g class="st5">
			<path class="st2" d="M128.7,36.8l-3.8,3.8c-0.1,0.1-0.1,0.1-0.2,0.1s-0.2,0-0.2-0.1l-0.9-0.9c-0.1-0.1-0.1-0.1-0.1-0.2
				c0-0.1,0-0.2,0.1-0.2l2.7-2.7l-2.7-2.7c-0.1-0.1-0.1-0.1-0.1-0.2s0-0.2,0.1-0.2l0.9-0.9c0.1-0.1,0.1-0.1,0.2-0.1s0.2,0,0.2,0.1
				l3.8,3.8c0.1,0.1,0.1,0.1,0.1,0.2S128.7,36.7,128.7,36.8z"/>
		</g>
		<path class="st6" d="M140.8,33.3h37.9c2.2,0,4,1.8,4,4l0,0c0,2.2-1.8,4-4,4h-37.9c-2.2,0-4-1.8-4-4l0,0
			C136.8,35.1,138.6,33.3,140.8,33.3z"/>
		<path id="HEADING" class="st2" d="M137.7,12.1V3.9h1.7V7h3.2V3.9h1.7v8.3h-1.7V8.5h-3.2v3.7H137.7z M152.3,5.3h-4.4v1.8h4v1.4h-4
			v2.1h4.6v1.5h-6.3V3.9h6.1V5.3z M156.4,9h2.1l-1-3.3L156.4,9z M156.5,3.9h2l2.9,8.3h-1.9l-0.5-1.7h-3l-0.6,1.7h-1.8L156.5,3.9z
			 M164.3,5.3v5.4h1.6c0.8,0,1.4-0.4,1.7-1.2c0.2-0.4,0.3-1,0.3-1.6c0-0.8-0.1-1.5-0.4-1.9c-0.3-0.5-0.8-0.7-1.6-0.7H164.3z
			 M166.2,3.9c0.5,0,0.9,0.1,1.3,0.2c0.6,0.2,1,0.5,1.4,1c0.3,0.4,0.5,0.9,0.6,1.3c0.1,0.5,0.2,0.9,0.2,1.4c0,1.1-0.2,2-0.7,2.8
			c-0.6,1-1.5,1.5-2.8,1.5h-3.6V3.9H166.2z M172.8,12.1h-1.7V3.9h1.7V12.1z M174.6,3.9h1.8l3.3,5.8V3.9h1.6v8.3h-1.7l-3.4-5.9v5.9
			h-1.6V3.9z M188.7,6.5c-0.1-0.6-0.5-1-1-1.2c-0.3-0.1-0.6-0.2-0.9-0.2c-0.7,0-1.2,0.3-1.6,0.8s-0.6,1.3-0.6,2.3
			c0,1,0.2,1.7,0.7,2.2c0.5,0.4,1,0.6,1.6,0.6c0.6,0,1.1-0.2,1.4-0.5c0.4-0.3,0.6-0.8,0.7-1.3H187V7.7h3.4v4.4h-1.1l-0.2-1
			c-0.3,0.4-0.6,0.7-0.9,0.8c-0.5,0.3-1,0.4-1.7,0.4c-1.1,0-2-0.4-2.7-1.1c-0.7-0.8-1.1-1.8-1.1-3.1c0-1.3,0.4-2.4,1.1-3.2
			s1.7-1.2,2.9-1.2c1.1,0,1.9,0.3,2.5,0.8c0.6,0.5,1,1.2,1.1,2H188.7z"/>
		<rect x="136.8" y="20.7" class="st7" width="81.6" height="3.4"/>
	</g>
	<path id="Shape" class="st1" d="M82,97h13.3c1.1,0,2,0.9,2,2v2.3l3.9-2.7c0.3-0.2,0.8,0,0.8,0.5v8.9c0,0.5-0.5,0.7-0.8,0.5
		l-3.9-2.7v2.3c0,1.1-0.9,2-2,2H82c-1.1,0-2-0.9-2-2v-9C80,97.9,80.9,97,82,97z M90.6,102.9l-3.4-1.8c-0.6-0.3-1.2,0.1-1.2,0.6v3.6
		c0,0.5,0.6,0.9,1.2,0.6l3.4-1.8C91.1,103.8,91.1,103.2,90.6,102.9z"/>
</g>
</svg>
