<?xml version="1.0" encoding="utf-8"?>
<!-- Generator: Adobe Illustrator 23.1.1, SVG Export Plug-In . SVG Version: 6.00 Build 0)  -->
<svg version="1.1" id="Layer_1" xmlns="http://www.w3.org/2000/svg" xmlns:xlink="http://www.w3.org/1999/xlink" x="0px" y="0px"
	 viewBox="0 0 279 207" style="enable-background:new 0 0 279 207;" xml:space="preserve">
<style type="text/css">
	.st0{fill-rule:evenodd;clip-rule:evenodd;fill:#819FB3;}
	.st1{fill-rule:evenodd;clip-rule:evenodd;fill:#EEF8FF;fill-opacity:0.73;}
	.st2{fill:none;stroke:#FFFFFF;stroke-width:3.4485;stroke-linecap:square;}
	.st3{fill:none;stroke:#819FB3;stroke-width:3.4485;stroke-linecap:square;}
	.st4{fill-rule:evenodd;clip-rule:evenodd;fill:#FEFEFE;}
	.st5{fill-rule:evenodd;clip-rule:evenodd;fill:#C8282C;}
	.st6{enable-background:new    ;}
	.st7{fill:#FFFFFF;}
</style>
<title>Large Gallery Carousel</title>
<desc>Created with Sketch.</desc>
<g id="Large-Gallery-Carousel">
	
		<image style="overflow:visible;enable-background:new    ;" width="279" height="207" id="Rocker_crowd_" xlink:href="97164C04FC5FBCBE.png" >
	</image>
	<g id="Carousel" transform="translate(50.000000, 29.000000)">
		<polygon id="Fill-1" class="st0" points="0,131.8 181,131.8 181,0 0,0 		"/>
		<polygon id="Fill-7" class="st1" points="42.5,92.7 77.2,110.9 131.3,52.7 181,130.2 5.8,130.7 		"/>
		<path id="Line-4" class="st2" d="M2.3,148.7l54.2-0.6"/>
		<path id="Line-4-Copy" class="st3" d="M64.6,148.7l54.2-0.6"/>
		<path id="Line-4-Copy-2" class="st3" d="M126.8,148.7l54.2-0.6"/>
		<path id="Fill-3" class="st4" d="M74.9,59.6c-0.8,0-1.6-0.2-2.3-0.6l-9.3-5.3C62,53,61.1,51.5,61.1,50V39.4c0-1.6,0.9-3,2.3-3.8
			l9.3-5.3c0.7-0.4,1.5-0.6,2.3-0.6c0.8,0,1.6,0.2,2.3,0.6l9.3,5.3c1.4,0.8,2.3,2.2,2.3,3.8V50c0,1.6-0.9,3-2.3,3.8L77.2,59
			C76.5,59.4,75.7,59.6,74.9,59.6"/>
		<path id="Fill-5" class="st5" d="M74.9,28.7c-1,0-2,0.3-2.9,0.8l-9.2,5.2c-1.8,1-2.9,2.9-2.9,4.9v10.4c0,2,1.1,3.9,2.9,4.9
			l9.2,5.2c0.9,0.5,1.9,0.8,2.9,0.8c1,0,2-0.3,2.9-0.8l9.2-5.2c1.8-1,2.9-2.9,2.9-4.9V39.5c0-2-1.1-3.9-2.9-4.9l-9.2-5.2
			C76.9,28.9,75.9,28.7,74.9,28.7 M74.4,30.9c0.5,0,1.1,0.1,1.5,0.4l9,5.3c0.9,0.6,1.5,1.6,1.5,2.7V50c0,1.1-0.6,2.2-1.5,2.7l-9,5.3
			c-0.5,0.3-1,0.4-1.5,0.4s-1.1-0.1-1.5-0.4l-9-5.3c-1-0.6-1.5-1.6-1.5-2.7V39.4c0-1.1,0.6-2.2,1.5-2.7l9-5.3
			C73.3,31.1,73.8,30.9,74.4,30.9"/>
		<g class="st6">
			<path class="st7" d="M16.4,61.2L13.7,64l2.7,2.7c0.1,0.1,0.1,0.1,0.1,0.2c0,0.1,0,0.2-0.1,0.2L15.5,68c-0.1,0.1-0.1,0.1-0.2,0.1
				s-0.2,0-0.2-0.1l-3.8-3.8c-0.1-0.1-0.1-0.1-0.1-0.2s0-0.2,0.1-0.2l3.8-3.8c0.1-0.1,0.1-0.1,0.2-0.1s0.2,0,0.2,0.1l0.9,0.9
				c0.1,0.1,0.1,0.1,0.1,0.2S16.5,61.2,16.4,61.2z"/>
		</g>
		<g class="st6">
			<path class="st7" d="M170.5,64.2l-3.8,3.8c-0.1,0.1-0.1,0.1-0.2,0.1s-0.2,0-0.2-0.1l-0.9-0.9c-0.1-0.1-0.1-0.1-0.1-0.2
				c0-0.1,0-0.2,0.1-0.2l2.7-2.7l-2.7-2.7c-0.1-0.1-0.1-0.1-0.1-0.2s0-0.2,0.1-0.2l0.9-0.9c0.1-0.1,0.1-0.1,0.2-0.1s0.2,0,0.2,0.1
				l3.8,3.8c0.1,0.1,0.1,0.1,0.1,0.2S170.6,64.1,170.5,64.2z"/>
		</g>
	</g>
</g>
</svg>
