<?xml version="1.0" encoding="utf-8"?>
<!-- Generator: Adobe Illustrator 23.1.1, SVG Export Plug-In . SVG Version: 6.00 Build 0)  -->
<svg version="1.1" id="Layer_1" xmlns="http://www.w3.org/2000/svg" xmlns:xlink="http://www.w3.org/1999/xlink" x="0px" y="0px"
	 viewBox="0 0 279 207" style="enable-background:new 0 0 279 207;" xml:space="preserve">
<style type="text/css">
	.st0{fill-rule:evenodd;clip-rule:evenodd;fill:#FEFEFE;}
	.st1{fill:none;stroke:#FEFEFE;stroke-width:0.5748;}
	.st2{fill:#FEFEFE;}
	.st3{font-family:'FontAwesome';}
	.st4{font-size:4.3068px;}
	.st5{fill-rule:evenodd;clip-rule:evenodd;fill:#202020;}
	.st6{fill:#FFFFFF;}
	.st7{fill:none;stroke:#FFFFFF;}
	.st8{fill:none;stroke:#FFFFFF;stroke-linecap:square;}
	.st9{fill-rule:evenodd;clip-rule:evenodd;fill:#C8282C;}
	.st10{fill-rule:evenodd;clip-rule:evenodd;fill:#FFFFFF;}
</style>
<title>lead-gen-form-offer</title>
<desc>Created with Sketch.</desc>
<g id="lead-gen-form-offer">
	<g id="Group-16" transform="translate(111.000000, 80.000000)">
		<path id="Fill-1" class="st0" d="M-1,24.2h58.1V0H-1V24.2z M-0.4,23.6h56.9V0.6H-0.4V23.6z"/>
		<g id="Group-8" transform="translate(2.299000, 0.066326)">
			<path id="Fill-2" class="st0" d="M51.1,4.6c0-0.1,0-0.1-0.1-0.2C50.6,4.2,50.1,4,49.6,4c-0.3,0-0.6,0-0.9,0.1
				c-0.1,0-0.1,0.1-0.1,0.2c0,0,0,0.1,0,0.1c0,0,0.1,0,0.1,0c0,0,0,0,0.1,0c0.3-0.1,0.5-0.1,0.8-0.1c0.5,0,0.9,0.1,1.3,0.3
				c0,0,0.1,0,0.1,0c0,0,0.1,0,0.1,0C51.1,4.6,51.1,4.6,51.1,4.6 M51.4,3.9c0-0.1,0-0.1-0.1-0.2c-0.5-0.3-1.1-0.4-1.7-0.4
				c-0.3,0-0.6,0-1,0.1c-0.1,0-0.2,0.1-0.2,0.2c0,0.1,0,0.1,0.1,0.1c0,0,0.1,0.1,0.1,0.1c0,0,0.1,0,0.1,0c0.3-0.1,0.5-0.1,0.8-0.1
				c0.6,0,1.1,0.1,1.5,0.4c0.1,0,0.1,0,0.1,0c0.1,0,0.1,0,0.1-0.1C51.4,4,51.4,3.9,51.4,3.9 M51.7,3.1c0-0.1,0-0.2-0.1-0.2
				c-0.3-0.2-0.6-0.3-0.9-0.3c-0.3-0.1-0.7-0.1-1.1-0.1c-0.4,0-0.8,0-1.1,0.1c0,0-0.1,0-0.1,0.1c0,0,0,0.1,0,0.2
				c0,0.1,0,0.1,0.1,0.2S48.4,3,48.5,3c0,0,0.1,0,0.1,0c0.3-0.1,0.6-0.1,1-0.1c0.3,0,0.7,0,1,0.1c0.3,0.1,0.6,0.2,0.8,0.3
				c0,0,0.1,0,0.1,0c0.1,0,0.1,0,0.2-0.1C51.7,3.2,51.7,3.2,51.7,3.1 M52.1,2.3c0.2,0.4,0.3,0.8,0.3,1.2s-0.1,0.8-0.3,1.2
				c-0.2,0.4-0.5,0.7-0.9,0.9C50.8,5.9,50.4,6,50,6c-0.4,0-0.8-0.1-1.2-0.3c-0.4-0.2-0.7-0.5-0.9-0.9c-0.2-0.4-0.3-0.8-0.3-1.2
				s0.1-0.8,0.3-1.2c0.2-0.4,0.5-0.7,0.9-0.9c0.4-0.2,0.8-0.3,1.2-0.3c0.4,0,0.8,0.1,1.2,0.3C51.5,1.7,51.8,2,52.1,2.3"/>
			<path id="Stroke-4" class="st1" d="M9.7,7.8c0,2.8-2.3,5.1-5.1,5.1s-5.1-2.3-5.1-5.1s2.3-5.1,5.1-5.1S9.7,5,9.7,7.8z"/>
			<path id="Fill-6" class="st0" d="M5.9,7.8C5,8.4,4.1,8.9,3.3,9.5V6.1C3.3,6.1,5.8,7.8,5.9,7.8"/>
		</g>
		<text transform="matrix(1 0 0 1 50.4076 14.2169)" class="st2 st3 st4"></text>
		<g id="Group-15" transform="translate(16.093000, 10.411826)">
			<polygon id="Fill-9" class="st0" points="4.7,2.9 26.5,2.9 26.5,1.7 4.7,1.7 			"/>
			<path id="Fill-11" class="st0" d="M0.9,2.2c0.9,0.6,1.7,1.1,2.6,1.7V0.5C3.5,0.5,1,2.2,0.9,2.2"/>
			<path id="Stroke-12" class="st1" d="M-0.1,0.5v3.6"/>
			<path id="Fill-13" class="st0" d="M30.3,2.2c-0.9,0.6-1.7,1.1-2.6,1.7V0.5C27.7,0.5,30.2,2.2,30.3,2.2"/>
			<path id="Stroke-14" class="st1" d="M31.3,0.5v3.6"/>
		</g>
	</g>
	<image style="overflow:visible;" width="338" height="215" xlink:href="424457CD2FC08AAA.jpg"  transform="matrix(1 0 0 1 -5 -7)">
	</image>
	<rect id="BG" x="87" y="120" class="st5" width="107" height="70"/>
	<path id="FORM" class="st6" d="M122.2,126.7h5.9v1.5h-4.1v1.9h3.6v1.4h-3.6v3.5h-1.7V126.7z M133.1,133.8c0.7,0,1.2-0.3,1.6-0.8
		s0.6-1.2,0.6-2.2c0-0.9-0.2-1.6-0.6-2.2c-0.4-0.5-0.9-0.8-1.6-0.8s-1.2,0.3-1.6,0.8c-0.4,0.5-0.6,1.2-0.6,2.2
		c0,0.9,0.2,1.7,0.6,2.2C131.8,133.5,132.4,133.8,133.1,133.8z M137,130.9c0,1.5-0.4,2.6-1.3,3.4c-0.6,0.6-1.5,1-2.7,1
		s-2.1-0.3-2.7-1c-0.8-0.8-1.3-1.9-1.3-3.4c0-1.5,0.4-2.7,1.3-3.4c0.6-0.6,1.5-1,2.7-1s2.1,0.3,2.7,1
		C136.6,128.2,137,129.3,137,130.9z M140.3,128.2v2.2h2c0.4,0,0.7,0,0.9-0.1c0.3-0.2,0.5-0.5,0.5-0.9c0-0.5-0.2-0.8-0.5-1
		c-0.2-0.1-0.5-0.1-0.8-0.1H140.3z M142.7,126.7c0.6,0,1,0.1,1.3,0.2c0.3,0.1,0.6,0.3,0.8,0.6c0.2,0.2,0.3,0.4,0.4,0.7
		c0.1,0.3,0.2,0.5,0.2,0.9c0,0.4-0.1,0.8-0.3,1.2c-0.2,0.4-0.5,0.6-1,0.8c0.4,0.2,0.7,0.4,0.8,0.7c0.2,0.3,0.2,0.7,0.2,1.3v0.6
		c0,0.4,0,0.6,0,0.8c0,0.2,0.1,0.4,0.3,0.5v0.2h-1.9c-0.1-0.2-0.1-0.3-0.1-0.4c0-0.2-0.1-0.5-0.1-0.7l0-0.8c0-0.5-0.1-0.9-0.3-1.1
		c-0.2-0.2-0.5-0.3-1-0.3h-1.8v3.2h-1.7v-8.3H142.7z M152.6,126.7h2.5v8.3h-1.6v-5.6c0-0.2,0-0.4,0-0.7c0-0.3,0-0.5,0-0.7l-1.6,6.9
		h-1.7l-1.6-6.9c0,0.2,0,0.4,0,0.7s0,0.5,0,0.7v5.6h-1.6v-8.3h2.5l1.5,6.5L152.6,126.7z"/>
	<path id="OFFERHEADLINE" class="st6" d="M64.2,39c1.1,0,2-0.4,2.6-1.2c0.6-0.8,1-2,1-3.4c0-1.5-0.3-2.6-1-3.4s-1.5-1.2-2.6-1.2
		c-1.1,0-2,0.4-2.6,1.2c-0.7,0.8-1,2-1,3.4s0.3,2.6,1,3.4C62.2,38.6,63.1,39,64.2,39z M70.5,34.4c0,2.4-0.7,4.2-2,5.5
		c-1,1-2.4,1.5-4.3,1.5c-1.9,0-3.3-0.5-4.3-1.5c-1.3-1.3-2-3.1-2-5.5c0-2.4,0.7-4.2,2-5.5c1-1,2.4-1.5,4.3-1.5
		c1.9,0,3.3,0.5,4.3,1.5C69.9,30.1,70.5,31.9,70.5,34.4z M72.8,27.8h9.4v2.3h-6.6v3h5.8v2.3h-5.8V41h-2.7V27.8z M84.3,27.8h9.4v2.3
		H87v3h5.8v2.3H87V41h-2.7V27.8z M105.5,30.1h-7v2.8h6.4v2.3h-6.4v3.4h7.3V41h-10V27.8h9.7V30.1z M110.9,30.1v3.6h3.1
		c0.6,0,1.1-0.1,1.4-0.2c0.6-0.3,0.8-0.7,0.8-1.5c0-0.8-0.3-1.3-0.8-1.6c-0.3-0.2-0.7-0.2-1.3-0.2H110.9z M114.7,27.8
		c0.9,0,1.6,0.1,2.1,0.3c0.5,0.2,0.9,0.5,1.3,0.9c0.3,0.3,0.5,0.7,0.7,1.1c0.2,0.4,0.3,0.9,0.3,1.4c0,0.6-0.2,1.2-0.5,1.9
		c-0.3,0.6-0.8,1-1.6,1.3c0.6,0.2,1,0.6,1.3,1c0.3,0.5,0.4,1.1,0.4,2.1v0.9c0,0.6,0,1,0.1,1.2c0.1,0.3,0.2,0.6,0.5,0.8V41h-3
		c-0.1-0.3-0.1-0.5-0.2-0.7c-0.1-0.4-0.1-0.8-0.1-1.1l0-1.2c0-0.8-0.2-1.4-0.5-1.7c-0.3-0.3-0.9-0.4-1.7-0.4h-2.9V41h-2.7V27.8
		H114.7z M126.9,41V27.8h2.7v5h5.2v-5h2.7V41h-2.7v-5.9h-5.2V41H126.9z M150.2,30.1h-7v2.8h6.4v2.3h-6.4v3.4h7.3V41h-10V27.8h9.7
		V30.1z M156.5,36h3.4l-1.7-5.2L156.5,36z M156.6,27.8h3.1l4.7,13.2h-3l-0.9-2.7h-4.9l-0.9,2.7h-2.9L156.6,27.8z M169,30.1v8.6h2.6
		c1.3,0,2.2-0.6,2.7-1.9c0.3-0.7,0.4-1.5,0.4-2.5c0-1.3-0.2-2.4-0.6-3.1c-0.4-0.7-1.3-1.1-2.5-1.1H169z M172,27.8
		c0.8,0,1.5,0.1,2,0.3c0.9,0.3,1.7,0.9,2.3,1.7c0.5,0.7,0.8,1.4,0.9,2.1c0.2,0.8,0.3,1.5,0.3,2.2c0,1.8-0.4,3.3-1.1,4.5
		c-1,1.6-2.4,2.5-4.4,2.5h-5.7V27.8H172z M179.8,27.8h2.8v10.9h6.6V41h-9.3V27.8z M193.8,41H191V27.8h2.7V41z M196.5,27.8h2.9
		l5.3,9.2v-9.2h2.6V41h-2.8l-5.4-9.4V41h-2.6V27.8z M219.8,30.1h-7v2.8h6.4v2.3h-6.4v3.4h7.3V41h-10V27.8h9.7V30.1z"/>
	<rect id="Rectangle" x="99.5" y="141.5" class="st7" width="80" height="8"/>
	<rect id="Rectangle-Copy" x="99.5" y="157.5" class="st7" width="80" height="8"/>
	<path id="Line-Copy" class="st8" d="M53,80.6h170.8"/>
	<path id="Line-Copy-3" class="st8" d="M53,70.6h170.8"/>
	<path id="Line-Copy-2" class="st8" d="M84,91.6h108.7"/>
	<g id="Img" transform="translate(116.000000, 173.000000)">
		<path class="st9" d="M3.8,0.9h38.3c2.2,0,4,1.8,4,4l0,0c0,2.2-1.8,4-4,4H3.8c-2.2,0-4-1.8-4-4l0,0C-0.2,2.7,1.6,0.9,3.8,0.9z"/>
	</g>
	<rect id="Rectangle-Copy-2" x="121" y="53" class="st10" width="36" height="4"/>
	<rect id="Rectangle-Copy-3" x="121" y="107" class="st10" width="36" height="4"/>
</g>
</svg>
