<?xml version="1.0" encoding="UTF-8"?>
<svg width="279px" height="207px" viewBox="0 0 279 207" version="1.1" xmlns="http://www.w3.org/2000/svg" xmlns:xlink="http://www.w3.org/1999/xlink">
    <!-- Generator: Sketch 54.1 (76490) - https://sketchapp.com -->
    <title>Sections Overview + 2 Testimonial</title>
    <desc>Created with Sketch.</desc>
    <g id="Sections-Overview-+-2-Testimonial" stroke="none" stroke-width="1" fill="none" fill-rule="evenodd">
        <rect id="Rectangle-Copy-13" fill="#313131" x="0" y="0" width="279" height="207"></rect>
        <g id="What-we-do" transform="translate(26.000000, 24.000000)">
            <g id="testimonial-block" transform="translate(0.000000, 131.043000)">
                <g id="Another-testimonial">
                    <g id="1-testimonial" transform="translate(20.691000, 5.747500)" stroke="#FFFFFF" stroke-linecap="square">
                        <path d="M0,1.1495 L98.857,1.1495" id="Line-Copy-5"></path>
                        <path d="M0,10.3455 L98.857,10.3455" id="Line-Copy-6"></path>
                        <path d="M0,19.5415 L98.857,19.5415" id="Line-Copy-7"></path>
                    </g>
                    <path d="M12.6445,4.598 L12.6445,27.588" id="Line-5" stroke="#FFFFFF" stroke-width="3.4485" stroke-linecap="square"></path>
                    <text id="“" font-family="Helvetica-Bold, Helvetica" font-size="14.9435" font-weight="bold" letter-spacing="0.265534407" fill="#FFFFFF">
                        <tspan x="0" y="15">“</tspan>
                    </text>
                </g>
                <path d="M139.822531,14.4697046 L141.082042,14.4697046 L140.462389,12.5164526 L139.822531,14.4697046 Z M139.886517,11.3815459 L141.058468,11.3815459 L142.816395,16.3455 L141.691591,16.3455 L141.371662,15.3250942 L139.543014,15.3250942 L139.199511,16.3455 L138.115119,16.3455 L139.886517,11.3815459 Z M143.694846,11.3815459 L144.782605,11.3815459 L146.759431,14.8468843 L146.759431,11.3815459 L147.725954,11.3815459 L147.725954,16.3455 L146.68871,16.3455 L144.661369,12.8195435 L144.661369,16.3455 L143.694846,16.3455 L143.694846,11.3815459 Z M151.153736,15.6046113 C151.564594,15.6046113 151.890694,15.4530674 152.132046,15.1499751 C152.373397,14.8468828 152.494071,14.4158246 152.494071,13.8567876 C152.494071,13.2999958 152.373397,12.8694988 152.132046,12.5652839 C151.890694,12.261069 151.564594,12.1089639 151.153736,12.1089639 C150.742877,12.1089639 150.415093,12.2605078 150.170374,12.5636001 C149.925655,12.8666924 149.803298,13.2977506 149.803298,13.8567876 C149.803298,14.4158246 149.925655,14.8468828 150.170374,15.1499751 C150.415093,15.4530674 150.742877,15.6046113 151.153736,15.6046113 Z M153.531315,13.8567876 C153.531315,14.7481036 153.280987,15.4306124 152.780323,15.9043345 C152.405387,16.2904966 151.863196,16.4835747 151.153736,16.4835747 C150.444275,16.4835747 149.902085,16.2904966 149.527148,15.9043345 C149.02424,15.4306124 148.772789,14.7481036 148.772789,13.8567876 C148.772789,12.9475106 149.02424,12.2650018 149.527148,11.8092407 C149.902085,11.4230786 150.444275,11.2300005 151.153736,11.2300005 C151.863196,11.2300005 152.405387,11.4230786 152.780323,11.8092407 C153.280987,12.2650018 153.531315,12.9475106 153.531315,13.8567876 Z M158.195034,11.3815459 L158.195034,12.2605093 L156.709889,12.2605093 L156.709889,16.3455 L155.665909,16.3455 L155.665909,12.2605093 L154.174029,12.2605093 L154.174029,11.3815459 L158.195034,11.3815459 Z M159.060015,16.3455 L159.060015,11.3815459 L160.087156,11.3815459 L160.087156,13.2741797 L162.026937,13.2741797 L162.026937,11.3815459 L163.057446,11.3815459 L163.057446,16.3455 L162.026937,16.3455 L162.026937,14.1295693 L160.087156,14.1295693 L160.087156,16.3455 L159.060015,16.3455 Z M167.983843,12.2605093 L165.357056,12.2605093 L165.357056,13.3145918 L167.768312,13.3145918 L167.768312,14.1767168 L165.357056,14.1767168 L165.357056,15.4530659 L168.10508,15.4530659 L168.10508,16.3455 L164.343386,16.3455 L164.343386,11.3815459 L167.983843,11.3815459 L167.983843,12.2605093 Z M170.2161,12.2436709 L170.2161,13.5772705 L171.391419,13.5772705 C171.624913,13.5772705 171.80003,13.5503294 171.916777,13.4964463 C172.123329,13.4021509 172.226603,13.215808 172.226603,12.9374121 C172.226603,12.6365649 172.126696,12.4345064 171.92688,12.3312305 C171.814623,12.2728571 171.646241,12.2436709 171.421728,12.2436709 L170.2161,12.2436709 Z M171.63726,11.3815459 C171.985255,11.3882813 172.252982,11.4309381 172.44045,11.5095176 C172.627919,11.5880971 172.786759,11.7037195 172.916976,11.8563882 C173.024743,11.9821154 173.110056,12.1213112 173.17292,12.27398 C173.235783,12.4266487 173.267215,12.6006436 173.267215,12.7959697 C173.267215,13.0317082 173.20772,13.2635142 173.088728,13.4913948 C172.969736,13.7192753 172.77329,13.8803609 172.499385,13.9746562 C172.728388,14.0667065 172.890596,14.1974833 172.986014,14.3669905 C173.081432,14.5364977 173.12914,14.7952448 173.12914,15.1432397 L173.12914,15.4766396 C173.12914,15.7033976 173.13812,15.8571866 173.156081,15.9380112 C173.183023,16.0659836 173.245886,16.1602775 173.344671,16.220896 L173.344671,16.3455 L172.203029,16.3455 C172.171597,16.2354887 172.149146,16.1468075 172.135676,16.0794536 C172.108734,15.9402557 172.094141,15.7976921 172.091896,15.6517588 L172.085161,15.1903872 C172.08067,14.8738241 172.022859,14.6627852 171.911725,14.5572642 C171.800591,14.4517431 171.592359,14.3989834 171.287021,14.3989834 L170.2161,14.3989834 L170.2161,16.3455 L169.20243,16.3455 L169.20243,11.3815459 L171.63726,11.3815459 Z M180.213706,11.3815459 L180.213706,12.2605093 L178.728561,12.2605093 L178.728561,16.3455 L177.684581,16.3455 L177.684581,12.2605093 L176.192701,12.2605093 L176.192701,11.3815459 L180.213706,11.3815459 Z M184.756189,12.2605093 L182.129401,12.2605093 L182.129401,13.3145918 L184.540657,13.3145918 L184.540657,14.1767168 L182.129401,14.1767168 L182.129401,15.4530659 L184.877425,15.4530659 L184.877425,16.3455 L181.115731,16.3455 L181.115731,11.3815459 L184.756189,11.3815459 L184.756189,12.2605093 Z M186.702193,14.8132075 C186.733625,15.0399655 186.795365,15.2094701 186.887415,15.3217266 C187.0558,15.5260332 187.344295,15.6281851 187.752908,15.6281851 C187.997627,15.6281851 188.196318,15.6012439 188.348987,15.5473608 C188.638608,15.4440849 188.783417,15.2521293 188.783417,14.9714883 C188.783417,14.8075939 188.711574,14.6807461 188.567886,14.5909409 C188.424197,14.5033809 188.198565,14.4259251 187.890983,14.3585713 L187.365625,14.2407026 C186.849246,14.123956 186.492276,13.9971081 186.294704,13.8601553 C185.96018,13.6311522 185.792921,13.2730596 185.792921,12.7858667 C185.792921,12.3413313 185.954568,11.9720132 186.277866,11.6779014 C186.601165,11.3837895 187.076002,11.2367358 187.702393,11.2367358 C188.225508,11.2367358 188.67172,11.3753704 189.041044,11.6526438 C189.410368,11.9299172 189.604007,12.3323504 189.621968,12.8599556 L188.625136,12.8599556 C188.607175,12.5613535 188.47696,12.349192 188.234486,12.2234648 C188.072836,12.1403951 187.8719,12.0988608 187.631672,12.0988608 C187.364501,12.0988608 187.151217,12.1527431 186.991813,12.2605093 C186.832409,12.3682754 186.752708,12.5186968 186.752708,12.7117778 C186.752708,12.889143 186.831287,13.0216036 186.988446,13.1091636 C187.089476,13.1675369 187.305006,13.2360123 187.635039,13.3145918 L188.490429,13.52002 C188.865365,13.6098252 189.148247,13.7299377 189.339083,13.8803613 C189.63544,14.1138547 189.783617,14.4517414 189.783617,14.8940317 C189.783617,15.3475477 189.610183,15.7241623 189.263311,16.023887 C188.916438,16.3236116 188.426446,16.4734717 187.79332,16.4734717 C187.146723,16.4734717 186.638209,16.3258567 186.267763,16.0306223 C185.897317,15.7353879 185.712097,15.3295871 185.712097,14.8132075 L186.702193,14.8132075 Z M194.423762,11.3815459 L194.423762,12.2605093 L192.938617,12.2605093 L192.938617,16.3455 L191.894637,16.3455 L191.894637,12.2605093 L190.402757,12.2605093 L190.402757,11.3815459 L194.423762,11.3815459 Z M196.245162,16.3455 L195.214654,16.3455 L195.214654,11.3815459 L196.245162,11.3815459 L196.245162,16.3455 Z M200.767439,11.3815459 L202.259319,11.3815459 L202.259319,16.3455 L201.292796,16.3455 L201.292796,12.9879272 C201.292796,12.8913867 201.293919,12.7561198 201.296164,12.5821223 C201.298409,12.4081249 201.299532,12.2739805 201.299532,12.1796851 L200.35995,16.3455 L199.353015,16.3455 L198.420169,12.1796851 C198.420169,12.2739805 198.421292,12.4081249 198.423537,12.5821223 C198.425782,12.7561198 198.426904,12.8913867 198.426904,12.9879272 L198.426904,16.3455 L197.460381,16.3455 L197.460381,11.3815459 L198.9691,11.3815459 L199.871637,15.2846821 L200.767439,11.3815459 Z M205.683734,15.6046113 C206.094592,15.6046113 206.420692,15.4530674 206.662043,15.1499751 C206.903395,14.8468828 207.024069,14.4158246 207.024069,13.8567876 C207.024069,13.2999958 206.903395,12.8694988 206.662043,12.5652839 C206.420692,12.261069 206.094592,12.1089639 205.683734,12.1089639 C205.272875,12.1089639 204.945091,12.2605078 204.700372,12.5636001 C204.455653,12.8666924 204.333296,13.2977506 204.333296,13.8567876 C204.333296,14.4158246 204.455653,14.8468828 204.700372,15.1499751 C204.945091,15.4530674 205.272875,15.6046113 205.683734,15.6046113 Z M208.061313,13.8567876 C208.061313,14.7481036 207.810985,15.4306124 207.310321,15.9043345 C206.935385,16.2904966 206.393194,16.4835747 205.683734,16.4835747 C204.974273,16.4835747 204.432083,16.2904966 204.057146,15.9043345 C203.554237,15.4306124 203.302787,14.7481036 203.302787,13.8567876 C203.302787,12.9475106 203.554237,12.2650018 204.057146,11.8092407 C204.432083,11.4230786 204.974273,11.2300005 205.683734,11.2300005 C206.393194,11.2300005 206.935385,11.4230786 207.310321,11.8092407 C207.810985,12.2650018 208.061313,12.9475106 208.061313,13.8567876 Z M209.101413,11.3815459 L210.189172,11.3815459 L212.165998,14.8468843 L212.165998,11.3815459 L213.13252,11.3815459 L213.13252,16.3455 L212.095276,16.3455 L210.067936,12.8195435 L210.067936,16.3455 L209.101413,16.3455 L209.101413,11.3815459 Z M215.314262,16.3455 L214.283754,16.3455 L214.283754,11.3815459 L215.314262,11.3815459 L215.314262,16.3455 Z M217.903493,14.4697046 L219.163004,14.4697046 L218.543352,12.5164526 L217.903493,14.4697046 Z M217.967479,11.3815459 L219.13943,11.3815459 L220.897357,16.3455 L219.772553,16.3455 L219.452624,15.3250942 L217.623976,15.3250942 L217.280473,16.3455 L216.196081,16.3455 L217.967479,11.3815459 Z M221.792647,11.3815459 L222.829891,11.3815459 L222.829891,15.4530659 L225.288294,15.4530659 L225.288294,16.3455 L221.792647,16.3455 L221.792647,11.3815459 Z" id="ANOTHERTESTIMONIAL" fill="#FFFFFF" fill-rule="nonzero"></path>
            </g>
            <g id="Testimonial-1" transform="translate(6.897000, 88.511500)">
                <path d="M2.82379614,12.9338069 L4.71306226,12.9338069 L3.78358374,10.003929 L2.82379614,12.9338069 Z M2.9197749,8.30156885 L4.67770166,8.30156885 L7.3145918,15.7475 L5.62738623,15.7475 L5.14749243,14.2168914 L2.40452051,14.2168914 L1.88926611,15.7475 L0.262678711,15.7475 L2.9197749,8.30156885 Z M16.6959126,8.30156885 L16.6959126,9.62001392 L14.468195,9.62001392 L14.468195,15.7475 L12.9022258,15.7475 L12.9022258,9.62001392 L10.6644052,9.62001392 L10.6644052,8.30156885 L16.6959126,8.30156885 Z M23.3768693,9.62001392 L19.4366887,9.62001392 L19.4366887,11.2011377 L23.0535725,11.2011377 L23.0535725,12.4943252 L19.4366887,12.4943252 L19.4366887,14.4088489 L23.5587238,14.4088489 L23.5587238,15.7475 L17.9161831,15.7475 L17.9161831,8.30156885 L23.3768693,8.30156885 L23.3768693,9.62001392 Z M26.1631091,13.4490613 C26.2102568,13.7891982 26.3028669,14.0434552 26.4409423,14.2118398 C26.6935193,14.5182999 27.1262613,14.6715276 27.7391813,14.6715276 C28.1062598,14.6715276 28.4042962,14.6311159 28.6332992,14.5502913 C29.0677316,14.3953774 29.2849445,14.107444 29.2849445,13.6864824 C29.2849445,13.4406409 29.17718,13.2503691 28.9616476,13.1156614 C28.7461153,12.9843214 28.4076673,12.8681377 27.9462934,12.7671069 L27.1582573,12.590304 C26.383688,12.4151839 25.8482329,12.2249122 25.5518759,12.0194829 C25.0500897,11.6759783 24.7992004,11.1388393 24.7992004,10.40805 C24.7992004,9.74124691 25.0416706,9.18726978 25.5266183,8.74610205 C26.0115661,8.30493432 26.7238224,8.08435376 27.6634086,8.08435376 C28.448081,8.08435376 29.1173999,8.29230566 29.6713853,8.7082157 C30.2253707,9.12412574 30.5158299,9.72777558 30.5427714,10.5191833 L29.0475234,10.5191833 C29.0205818,10.0712802 28.8252586,9.75303805 28.4615478,9.56444727 C28.2190739,9.43984264 27.9176699,9.37754126 27.5573268,9.37754126 C27.1565714,9.37754126 26.8366454,9.45836467 26.5975392,9.62001392 C26.3584331,9.78166316 26.2388818,10.0072952 26.2388818,10.2969167 C26.2388818,10.5629645 26.3567492,10.7616553 26.5924877,10.8929954 C26.7440339,10.9805554 27.0673275,11.0832685 27.5623784,11.2011377 L28.8454628,11.50928 C29.4078675,11.6439877 29.8321904,11.8241566 30.1184443,12.049792 C30.5629797,12.400032 30.7852441,12.9068622 30.7852441,13.5702976 C30.7852441,14.2505715 30.5250937,14.8154935 30.0047852,15.2650804 C29.4844767,15.7146674 28.7494888,15.9394575 27.7997995,15.9394575 C26.829904,15.9394575 26.0671331,15.7180351 25.5114638,15.2751835 C24.9557945,14.8323319 24.677964,14.2236306 24.677964,13.4490613 L26.1631091,13.4490613 Z M37.6126947,8.30156885 L37.6126947,9.62001392 L35.3849772,9.62001392 L35.3849772,15.7475 L33.819008,15.7475 L33.819008,9.62001392 L31.5811874,9.62001392 L31.5811874,8.30156885 L37.6126947,8.30156885 Z M40.2120285,15.7475 L38.6662653,15.7475 L38.6662653,8.30156885 L40.2120285,8.30156885 L40.2120285,15.7475 Z M46.8626762,8.30156885 L49.1004967,8.30156885 L49.1004967,15.7475 L47.6507123,15.7475 L47.6507123,10.7111409 C47.6507123,10.5663301 47.6523961,10.3634296 47.6557638,10.1024335 C47.6591315,9.84143729 47.6608153,9.64022068 47.6608153,9.49877759 L46.251443,15.7475 L44.7410404,15.7475 L43.3417711,9.49877759 C43.3417711,9.64022068 43.3434549,9.84143729 43.3468226,10.1024335 C43.3501903,10.3634296 43.3518741,10.5663301 43.3518741,10.7111409 L43.3518741,15.7475 L41.9020897,15.7475 L41.9020897,8.30156885 L44.1651679,8.30156885 L45.5189735,14.1562732 L46.8626762,8.30156885 Z M54.1043509,14.636167 C54.7206387,14.636167 55.2097887,14.4088512 55.5718157,13.9542126 C55.9338426,13.4995741 56.1148534,12.8529869 56.1148534,12.0144314 C56.1148534,11.1792436 55.9338426,10.5334983 55.5718157,10.0771759 C55.2097887,9.62085355 54.7206387,9.3926958 54.1043509,9.3926958 C53.4880632,9.3926958 52.9963874,9.62001164 52.6293089,10.0746501 C52.2622305,10.5292887 52.078694,11.1758759 52.078694,12.0144314 C52.078694,12.8529869 52.2622305,13.4995741 52.6293089,13.9542126 C52.9963874,14.4088512 53.4880632,14.636167 54.1043509,14.636167 Z M57.6707196,12.0144314 C57.6707196,13.3514054 57.2952275,14.3751686 56.544232,15.0857517 C55.9818274,15.6649948 55.1685418,15.9546121 54.1043509,15.9546121 C53.0401601,15.9546121 52.2268745,15.6649948 51.6644698,15.0857517 C50.9101067,14.3751686 50.5329308,13.3514054 50.5329308,12.0144314 C50.5329308,10.6505159 50.9101067,9.62675269 51.6644698,8.94311108 C52.2268745,8.36386795 53.0401601,8.07425073 54.1043509,8.07425073 C55.1685418,8.07425073 55.9818274,8.36386795 56.544232,8.94311108 C57.2952275,9.62675269 57.6707196,10.6505159 57.6707196,12.0144314 Z M59.0981021,8.30156885 L60.7297411,8.30156885 L63.6949796,13.4995764 L63.6949796,8.30156885 L65.144764,8.30156885 L65.144764,15.7475 L63.5888978,15.7475 L60.5478866,10.4585652 L60.5478866,15.7475 L59.0981021,15.7475 L59.0981021,8.30156885 Z M68.2846097,15.7475 L66.7388465,15.7475 L66.7388465,8.30156885 L68.2846097,8.30156885 L68.2846097,15.7475 Z M72.0356885,12.9338069 L73.9249546,12.9338069 L72.9954761,10.003929 L72.0356885,12.9338069 Z M72.1316673,8.30156885 L73.8895941,8.30156885 L76.5264842,15.7475 L74.8392786,15.7475 L74.3593848,14.2168914 L71.6164129,14.2168914 L71.1011585,15.7475 L69.4745711,15.7475 L72.1316673,8.30156885 Z M77.7366517,8.30156885 L79.2925179,8.30156885 L79.2925179,14.4088489 L82.9801228,14.4088489 L82.9801228,15.7475 L77.7366517,15.7475 L77.7366517,8.30156885 Z" id="ATESTIMONIAL" fill="#FFFFFF" fill-rule="nonzero"></path>
                <path d="M113.8005,6.897 L212.6575,6.897" id="Line-Copy-5" stroke="#FFFFFF" stroke-linecap="square"></path>
                <path d="M113.8005,16.093 L212.6575,16.093" id="Line-Copy-6" stroke="#FFFFFF" stroke-linecap="square"></path>
                <path d="M113.8005,25.289 L212.6575,25.289" id="Line-Copy-7" stroke="#FFFFFF" stroke-linecap="square"></path>
                <path d="M105.754,4.598 L105.754,27.588" id="Line-5" stroke="#FFFFFF" stroke-width="3.4485" stroke-linecap="square"></path>
                <text id="“" font-family="Helvetica-Bold, Helvetica" font-size="14.9435" font-weight="bold" letter-spacing="0.265534407" fill="#FFFFFF">
                    <tspan x="93.1095" y="15">“</tspan>
                </text>
            </g>
            <g id="WHAT-WE-DO" transform="translate(8.046500, 0.000000)">
                <path d="M40.3907808,5.1081377 L42.3608711,13.6350928 L42.7851982,16.0093042 L43.2196284,13.6856079 L44.896731,5.1081377 L48.1802148,5.1081377 L49.9482446,13.6350928 L50.4028809,16.0093042 L50.8575171,13.72602 L52.8478135,5.1081377 L56.010061,5.1081377 L51.8173047,20 L48.8470146,20 L47.0486758,11.2911904 L46.5233184,8.41182764 L45.9979609,11.2911904 L44.1996221,20 L41.3101563,20 L37.0870908,5.1081377 L40.3907808,5.1081377 Z M58.1345525,20 L58.1345525,5.1081377 L61.2159758,5.1081377 L61.2159758,10.7860391 L67.0353196,10.7860391 L67.0353196,5.1081377 L70.1268459,5.1081377 L70.1268459,20 L67.0353196,20 L67.0353196,13.352208 L61.2159758,13.352208 L61.2159758,20 L58.1345525,20 Z M77.4341904,14.3726138 L81.2127226,14.3726138 L79.3537656,8.51285791 L77.4341904,14.3726138 Z M77.6261479,5.1081377 L81.1420014,5.1081377 L86.4157817,20 L83.0413706,20 L82.081583,16.9387827 L76.5956391,16.9387827 L75.5651303,20 L72.3119555,20 L77.6261479,5.1081377 Z M97.8653674,5.1081377 L97.8653674,7.74502783 L93.4099323,7.74502783 L93.4099323,20 L90.2779938,20 L90.2779938,7.74502783 L85.8023527,7.74502783 L85.8023527,5.1081377 L97.8653674,5.1081377 Z M107.994312,5.1081377 L109.964403,13.6350928 L110.38873,16.0093042 L110.82316,13.6856079 L112.500262,5.1081377 L115.783746,5.1081377 L117.551776,13.6350928 L118.006412,16.0093042 L118.461048,13.72602 L120.451345,5.1081377 L123.613592,5.1081377 L119.420836,20 L116.450546,20 L114.652207,11.2911904 L114.12685,8.41182764 L113.601492,11.2911904 L111.803153,20 L108.913688,20 L104.690622,5.1081377 L107.994312,5.1081377 Z M136.77059,7.74502783 L128.890228,7.74502783 L128.890228,10.9072754 L136.123996,10.9072754 L136.123996,13.4936504 L128.890228,13.4936504 L128.890228,17.3226978 L137.134299,17.3226978 L137.134299,20 L125.849217,20 L125.849217,5.1081377 L136.77059,5.1081377 L136.77059,7.74502783 Z M148.859522,7.6945127 L148.859522,17.413625 L151.728782,17.413625 C153.197096,17.413625 154.220859,16.6895819 154.800102,15.2414741 C155.116665,14.4466987 155.274944,13.5003912 155.274944,12.4025234 C155.274944,10.8870618 155.037525,9.72354141 154.562681,8.91192749 C154.087836,8.10031357 153.143213,7.6945127 151.728782,7.6945127 L148.859522,7.6945127 Z M152.254139,5.1081377 C153.176887,5.12160847 153.944709,5.22937301 154.557629,5.43143457 C155.601614,5.77493922 156.446892,6.40468829 157.093489,7.32070068 C157.612114,8.06159306 157.965716,8.86309188 158.154307,9.72522119 C158.342898,10.5873505 158.437192,11.4090552 158.437192,12.1903599 C158.437192,14.1705631 158.03981,15.8476489 157.245035,17.2216675 C156.167373,19.0738984 154.503758,20 152.254139,20 L145.838717,20 L145.838717,5.1081377 L152.254139,5.1081377 Z M167.633802,17.777334 C168.866378,17.777334 169.844678,17.3227023 170.568732,16.4134253 C171.292786,15.5041483 171.654807,14.2109737 171.654807,12.5338628 C171.654807,10.8634873 171.292786,9.57199651 170.568732,8.65935181 C169.844678,7.74670711 168.866378,7.2903916 167.633802,7.2903916 C166.401227,7.2903916 165.417875,7.74502329 164.683718,8.65430029 C163.949561,9.5635773 163.582488,10.8567519 163.582488,12.5338628 C163.582488,14.2109737 163.949561,15.5041483 164.683718,16.4134253 C165.417875,17.3227023 166.401227,17.777334 167.633802,17.777334 Z M174.76654,12.5338628 C174.76654,15.2078107 174.015555,17.2553371 172.513565,18.6765034 C171.388755,19.8349897 169.762184,20.4142241 167.633802,20.4142241 C165.505421,20.4142241 163.878849,19.8349897 162.75404,18.6765034 C161.245314,17.2553371 160.490962,15.2078107 160.490962,12.5338628 C160.490962,9.80603177 161.245314,7.75850537 162.75404,6.39122217 C163.878849,5.23273591 165.505421,4.65350146 167.633802,4.65350146 C169.762184,4.65350146 171.388755,5.23273591 172.513565,6.39122217 C174.015555,7.75850537 174.76654,9.80603177 174.76654,12.5338628 Z" id="WHATWEDO" fill="#FFFFFF" fill-rule="nonzero"></path>
                <path d="M0,35.6345 L98.857,35.6345" id="Line-Copy-2" stroke="#FFFFFF" stroke-linecap="square"></path>
                <path d="M0,54.0265 L98.857,54.0265" id="Line-Copy-4" stroke="#FFFFFF" stroke-linecap="square"></path>
                <path d="M0,72.4185 L98.857,72.4185" id="Line-Copy-8" stroke="#FFFFFF" stroke-linecap="square"></path>
                <path d="M112.651,35.6345 L211.508,35.6345" id="Line-Copy-2" stroke="#FFFFFF" stroke-linecap="square"></path>
                <path d="M112.651,54.0265 L211.508,54.0265" id="Line-Copy-4" stroke="#FFFFFF" stroke-linecap="square"></path>
                <path d="M112.651,72.4185 L211.508,72.4185" id="Line-Copy-5" stroke="#FFFFFF" stroke-linecap="square"></path>
            </g>
        </g>
    </g>
</svg>