<?xml version="1.0" encoding="UTF-8"?>
<svg width="279px" height="207px" viewBox="0 0 279 207" version="1.1" xmlns="http://www.w3.org/2000/svg" xmlns:xlink="http://www.w3.org/1999/xlink">
    <!-- Generator: Sketch 54.1 (76490) - https://sketchapp.com -->
    <title>tell-a-friend-social-share</title>
    <desc>Created with Sketch.</desc>
    <g id="tell-a-friend-social-share" stroke="none" stroke-width="1" fill="none" fill-rule="evenodd">
        <rect id="Rectangle-Copy-19" fill="#313131" x="0" y="0" width="279" height="207"></rect>
        <g id="Group-3" transform="translate(8.000000, 75.000000)">
            <g id="Group-2" fill-rule="nonzero">
                <path d="M9.37025391,1.74347656 L9.37025391,3.73666016 L6.00246094,3.73666016 L6.00246094,13 L3.63507813,13 L3.63507813,3.73666016 L0.252011719,3.73666016 L0.252011719,1.74347656 L9.37025391,1.74347656 Z M12.9984451,6.24914062 C12.4944191,6.24914062 12.1036776,6.40696457 11.8262088,6.72261719 C11.5487399,7.03826981 11.3743699,7.46592178 11.3030935,8.00558594 L14.6861599,8.00558594 C14.6505217,7.43028358 14.4761517,6.99372219 14.1630447,6.69588867 C13.8499377,6.39805515 13.4617417,6.24914062 12.9984451,6.24914062 Z M12.9984451,4.45451172 C13.6908444,4.45451172 14.3145035,4.58433464 14.8694412,4.84398437 C15.4243788,5.10363411 15.8825774,5.51346725 16.2440506,6.07349609 C16.5698855,6.56733971 16.781166,7.14008789 16.8778982,7.79175781 C16.9339011,8.17359566 16.956811,8.72343391 16.9466287,9.44128906 L11.2496365,9.44128906 C11.2801835,10.2762412 11.5423749,10.8617171 12.0362185,11.1977344 C12.3365976,11.4064724 12.6980654,11.5108398 13.1206326,11.5108398 C13.5686557,11.5108398 13.9326689,11.3835625 14.2126834,11.1290039 C14.3654185,10.9915423 14.5003325,10.8006262 14.6174295,10.55625 L16.8397146,10.55625 C16.7837117,11.0500936 16.5266114,11.5515665 16.068406,12.0606836 C15.355642,12.8701798 14.3577874,13.2749219 13.0748123,13.2749219 C12.0158486,13.2749219 11.0816327,12.9338185 10.2721365,12.2516016 C9.46264025,11.5693846 9.05789821,10.4595259 9.05789821,8.92199219 C9.05789821,7.48119071 9.42318427,6.37642311 10.1537673,5.60765625 C10.8843504,4.83888939 11.8325669,4.45451172 12.9984451,4.45451172 Z M20.9337456,13 L18.7572808,13 L18.7572808,1.74347656 L20.9337456,1.74347656 L20.9337456,13 Z M25.5776204,13 L23.4011556,13 L23.4011556,1.74347656 L25.5776204,1.74347656 L25.5776204,13 Z M37.2327528,8.95253906 C37.0952911,9.03908897 36.9565588,9.10909153 36.8165516,9.16254883 C36.6765444,9.21600613 36.4843555,9.2656443 36.2399793,9.31146484 L35.7512293,9.40310547 C35.2930239,9.48456421 34.9646483,9.58384056 34.7660926,9.7009375 C34.4300753,9.89949318 34.2620692,10.2075044 34.2620692,10.6249805 C34.2620692,10.996636 34.3651638,11.2651912 34.5713563,11.4306543 C34.7775487,11.5961174 35.0282851,11.6788477 35.3235731,11.6788477 C35.7919608,11.6788477 36.2234311,11.5413881 36.6179969,11.2664648 C37.0125627,10.9915416 37.2174792,10.4900687 37.2327528,9.76203125 L37.2327528,8.95253906 Z M35.9116004,7.93685547 C36.3138029,7.88594376 36.6014498,7.82230507 36.7745496,7.7459375 C37.0851111,7.61356705 37.2403895,7.4073777 37.2403895,7.12736328 C37.2403895,6.7862548 37.1220215,6.55079166 36.885282,6.4209668 C36.6485426,6.29114193 36.3010754,6.22623047 35.8428699,6.22623047 C35.3286616,6.22623047 34.9646484,6.35350784 34.7508192,6.60806641 C34.598084,6.79643974 34.4962621,7.05099449 34.4453504,7.37173828 L32.3452528,7.37173828 C32.3910733,6.64370079 32.5947171,6.04549713 32.9561903,5.57710937 C33.5314926,4.84398071 34.519165,4.47742187 35.9192371,4.47742187 C36.8305568,4.47742187 37.6400409,4.65815574 38.3477137,5.01962891 C39.0553865,5.38110207 39.4092176,6.06330879 39.4092176,7.06626953 L39.4092176,10.8846289 C39.4092176,11.1493698 39.4143087,11.4701088 39.424491,11.8468555 C39.4397645,12.1319611 39.4830389,12.3254227 39.5543153,12.4272461 C39.6255916,12.5290695 39.7325046,12.6130726 39.8750574,12.6792578 L39.8750574,13 L37.5076746,13 C37.4414894,12.8319913 37.3956695,12.6741674 37.3702137,12.5265234 C37.3447578,12.3788795 37.3243935,12.2108733 37.3091199,12.0225 C37.0087408,12.348335 36.6625464,12.6257996 36.2705262,12.8549023 C35.8021384,13.1247344 35.2726646,13.2596484 34.6820887,13.2596484 C33.9285953,13.2596484 33.306209,13.0445497 32.814911,12.6143457 C32.3236129,12.1841417 32.0779676,11.5744831 32.0779676,10.7853516 C32.0779676,9.76202613 32.4725275,9.02127182 33.261659,8.56306641 C33.6944086,8.31359901 34.3307954,8.13541069 35.1708387,8.02849609 L35.9116004,7.93685547 Z M49.3537249,1.62892578 C49.4911866,1.62892578 49.6159184,1.6327441 49.7279242,1.64038086 C49.8399299,1.64801762 49.9926628,1.65947258 50.1861273,1.67474609 L50.1861273,3.44646484 C50.0639392,3.43119133 49.8590226,3.41973637 49.5713714,3.41209961 C49.2837203,3.40446285 49.0851675,3.46810154 48.9757074,3.60301758 C48.8662472,3.73793362 48.8115179,3.88684814 48.8115179,4.04976562 L48.8115179,4.75234375 L50.2395843,4.75234375 L50.2395843,6.28732422 L48.8115179,6.28732422 L48.8115179,13 L46.6426898,13 L46.6426898,6.28732422 L45.4284515,6.28732422 L45.4284515,4.75234375 L46.6197796,4.75234375 L46.6197796,4.21777344 C46.6197796,3.32681846 46.7699669,2.71334152 47.070346,2.37732422 C47.3859987,1.87838943 48.1471173,1.62892578 49.3537249,1.62892578 Z M56.3115255,4.47742187 C56.3522549,4.47742187 56.3866198,4.47869465 56.4146212,4.48124023 C56.4426226,4.48378582 56.5049886,4.48760414 56.6017208,4.49269531 L56.6017208,6.72261719 C56.4642592,6.70734367 56.3420729,6.69716148 56.2351583,6.69207031 C56.1282437,6.68697914 56.0416951,6.68443359 55.9755099,6.68443359 C55.0998284,6.68443359 54.5118069,6.96953491 54.2114278,7.53974609 C54.0434192,7.86048988 53.9594161,8.35432609 53.9594161,9.02126953 L53.9594161,13 L51.7676778,13 L51.7676778,4.67597656 L53.8448653,4.67597656 L53.8448653,6.12695312 C54.1808826,5.57201545 54.4736206,5.19272888 54.723088,4.98908203 C55.1303817,4.64797355 55.6598556,4.47742187 56.3115255,4.47742187 Z M60.4131932,3.68320312 L58.2061815,3.68320312 L58.2061815,1.67474609 L60.4131932,1.67474609 L60.4131932,3.68320312 Z M58.2061815,4.67597656 L60.4131932,4.67597656 L60.4131932,13 L58.2061815,13 L58.2061815,4.67597656 Z M66.1032985,6.24914062 C65.5992725,6.24914062 65.208531,6.40696457 64.9310621,6.72261719 C64.6535933,7.03826981 64.4792233,7.46592178 64.4079469,8.00558594 L67.7910133,8.00558594 C67.7553751,7.43028358 67.5810051,6.99372219 67.2678981,6.69588867 C66.954791,6.39805515 66.5665951,6.24914062 66.1032985,6.24914062 Z M66.1032985,4.45451172 C66.7956978,4.45451172 67.4193569,4.58433464 67.9742946,4.84398437 C68.5292322,5.10363411 68.9874308,5.51346725 69.3489039,6.07349609 C69.6747389,6.56733971 69.8860193,7.14008789 69.9827516,7.79175781 C70.0387545,8.17359566 70.0616644,8.72343391 70.0514821,9.44128906 L64.3544899,9.44128906 C64.3850369,10.2762412 64.6472283,10.8617171 65.1410719,11.1977344 C65.441451,11.4064724 65.8029188,11.5108398 66.225486,11.5108398 C66.673509,11.5108398 67.0375223,11.3835625 67.3175368,11.1290039 C67.4702719,10.9915423 67.6051859,10.8006262 67.7222828,10.55625 L69.944568,10.55625 C69.8885651,11.0500936 69.6314648,11.5515665 69.1732594,12.0606836 C68.4604954,12.8701798 67.4626408,13.2749219 66.1796657,13.2749219 C65.120702,13.2749219 64.1864861,12.9338185 63.3769899,12.2516016 C62.5674936,11.5693846 62.1627516,10.4595259 62.1627516,8.92199219 C62.1627516,7.48119071 62.5280377,6.37642311 63.2586207,5.60765625 C63.9892038,4.83888939 64.9374202,4.45451172 66.1032985,4.45451172 Z M76.428892,4.47742187 C77.2892999,4.47742187 77.9931438,4.70270283 78.5404447,5.15327148 C79.0877456,5.60384014 79.361392,6.35095832 79.361392,7.39464844 L79.361392,13 L77.1314701,13 L77.1314701,7.93685547 C77.1314701,7.49901474 77.0729225,7.16300247 76.9558256,6.92880859 C76.7419964,6.50115021 76.3347088,6.28732422 75.7339506,6.28732422 C74.9957307,6.28732422 74.4891668,6.60042656 74.2142436,7.22664062 C74.0716908,7.55756676 74.0004154,7.98012764 74.0004154,8.49433594 L74.0004154,13 L71.8315873,13 L71.8315873,4.69125 L73.931685,4.69125 L73.931685,5.90548828 C74.2116994,5.47782989 74.4764363,5.16981865 74.7259037,4.98144531 C75.1739268,4.64542801 75.7415839,4.47742187 76.428892,4.47742187 Z M84.7383918,4.47742187 C85.2424177,4.47742187 85.6904341,4.58815319 86.0824543,4.80961914 C86.4744744,5.03108509 86.7926679,5.33782356 87.0370441,5.72984375 L87.0370441,1.75875 L89.2440558,1.75875 L89.2440558,13 L87.1286847,13 L87.1286847,11.8468555 C86.8181233,12.3406991 86.4642922,12.6996213 86.0671808,12.9236328 C85.6700695,13.1476443 85.1762333,13.2596484 84.5856574,13.2596484 C83.6132437,13.2596484 82.7948502,12.8663614 82.1304523,12.0797754 C81.4660544,11.2931894 81.1338605,10.2838799 81.1338605,9.05181641 C81.1338605,7.63137962 81.4609634,6.51388428 82.1151789,5.69929687 C82.7693944,4.88470947 83.6437899,4.47742187 84.7383918,4.47742187 Z M85.2118683,11.4268359 C85.8279,11.4268359 86.2962808,11.1977367 86.6170246,10.7395312 C86.9377684,10.2813258 87.0981379,9.68821328 87.0981379,8.96017578 C87.0981379,7.94194152 86.8410376,7.21391495 86.3268293,6.77607422 C86.0111766,6.51133331 85.6446178,6.37896484 85.2271418,6.37896484 C84.5907453,6.37896484 84.1236374,6.61951908 83.8258039,7.10063477 C83.5279703,7.58175045 83.3790558,8.17868133 83.3790558,8.89144531 C83.3790558,9.66021218 83.5305159,10.2749619 83.8334406,10.7357129 C84.1363653,11.1964639 84.5958366,11.4268359 85.2118683,11.4268359 Z" id="Tellafriend" fill="#FFFFFF"></path>
                <path d="M98.054541,11.6897705 C98.5977566,11.6897705 99.01494,11.4963887 99.3061035,11.1096191 C99.5972671,10.7228496 99.7428467,10.1731237 99.7428467,9.4604248 C99.7428467,8.74772593 99.5972671,8.1990864 99.3061035,7.81448975 C99.01494,7.4298931 98.5977566,7.23759766 98.054541,7.23759766 C97.5113254,7.23759766 97.0930557,7.4298931 96.7997192,7.81448975 C96.5063828,8.1990864 96.3597168,8.74772593 96.3597168,9.4604248 C96.3597168,10.1731237 96.5063828,10.7228496 96.7997192,11.1096191 C97.0930557,11.4963887 97.5113254,11.6897705 98.054541,11.6897705 Z M101.691895,9.4604248 C101.691895,10.5033988 101.392044,11.3953454 100.792334,12.1362915 C100.192624,12.8772376 99.2822083,13.2477051 98.0610596,13.2477051 C96.8399109,13.2477051 95.9294952,12.8772376 95.3297852,12.1362915 C94.7300751,11.3953454 94.4302246,10.5033988 94.4302246,9.4604248 C94.4302246,8.43483374 94.7300751,7.54614634 95.3297852,6.79433594 C95.9294952,6.04252554 96.8399109,5.66662598 98.0610596,5.66662598 C99.2822083,5.66662598 100.192624,6.04252554 100.792334,6.79433594 C101.392044,7.54614634 101.691895,8.43483374 101.691895,9.4604248 Z M107.192164,5.72529297 C107.22693,5.72529297 107.256263,5.72637938 107.280165,5.72855225 C107.304066,5.73072511 107.3573,5.73398435 107.439869,5.73833008 L107.439869,7.64174805 C107.322535,7.62871087 107.218239,7.62001955 107.126979,7.61567383 C107.035718,7.6113281 106.961842,7.60915527 106.905348,7.60915527 C106.157883,7.60915527 105.655959,7.85251221 105.399562,8.3392334 C105.256153,8.61301406 105.184449,9.03454305 105.184449,9.60383301 L105.184449,13 L103.313624,13 L103.313624,5.89477539 L105.086671,5.89477539 L105.086671,7.13330078 C105.373489,6.65961677 105.623364,6.33586513 105.836305,6.16203613 C106.183963,5.87087257 106.635911,5.72529297 107.192164,5.72529297 Z M120.800125,5.73833008 C121.113017,5.73833008 121.421559,5.79916931 121.72576,5.92084961 C122.029961,6.04252991 122.30591,6.25546723 122.553616,6.55966797 C122.75352,6.80737429 122.888235,7.11157046 122.957767,7.47226563 C123.001224,7.71128049 123.022952,8.0611061 123.022952,8.52175293 L123.009915,13 L121.106497,13 L121.106497,8.47612305 C121.106497,8.20668811 121.06304,7.98505946 120.976126,7.81123047 C120.810988,7.48095538 120.506792,7.31582031 120.063528,7.31582031 C119.550733,7.31582031 119.196562,7.52875764 119.001004,7.95463867 C118.901052,8.18061636 118.851077,8.45222009 118.851077,8.76945801 L118.851077,13 L116.980252,13 L116.980252,8.76945801 C116.980252,8.3479227 116.936795,8.04155369 116.849881,7.8503418 C116.693435,7.50702953 116.387066,7.33537598 115.930765,7.33537598 C115.400586,7.33537598 115.044242,7.50702953 114.861722,7.8503418 C114.76177,8.04589942 114.711795,8.33705861 114.711795,8.72382813 L114.711795,13 L112.827933,13 L112.827933,5.9078125 L114.633572,5.9078125 L114.633572,6.9442627 C114.863896,6.57487608 115.081179,6.31196367 115.285428,6.15551758 C115.646123,5.87739119 116.113281,5.73833008 116.686917,5.73833008 C117.230133,5.73833008 117.669044,5.85783572 118.003665,6.09685059 C118.2731,6.31848255 118.477346,6.60312326 118.616409,6.95078125 C118.85977,6.53359166 119.161793,6.22722266 119.522488,6.03166504 C119.904912,5.83610742 120.330787,5.73833008 120.800125,5.73833008 Z M125.32913,14.3623779 L125.563798,14.375415 C125.746318,14.3841065 125.920145,14.377588 126.085282,14.3558594 C126.25042,14.3341308 126.389481,14.2841557 126.50247,14.2059326 C126.611113,14.1320553 126.712149,13.9777844 126.805583,13.7431152 C126.899016,13.5084461 126.93704,13.3650393 126.919657,13.3128906 L124.312235,5.89477539 L126.378617,5.89477539 L127.930033,11.1356934 L129.396708,5.89477539 L131.37183,5.89477539 L128.933891,12.882666 C128.464552,14.2298407 128.092998,15.0652938 127.819218,15.3890503 C127.545437,15.7128068 126.997884,15.8746826 126.176542,15.8746826 C126.011404,15.8746826 125.878862,15.8735962 125.77891,15.8714233 C125.678958,15.8692505 125.529033,15.8616456 125.32913,15.8486084 L125.32913,14.3623779 Z M140.638434,5.73833008 C141.572764,5.73833008 142.303922,6.0751187 142.831927,6.74870605 C143.359933,7.42229341 143.623932,8.29142534 143.623932,9.35612793 C143.623932,10.459942 143.363192,11.3747034 142.841705,12.1004395 C142.320218,12.8261755 141.59232,13.1890381 140.657989,13.1890381 C140.071316,13.1890381 139.599812,13.0717053 139.243463,12.8370361 C139.030522,12.6979729 138.800202,12.454616 138.552496,12.106958 L138.552496,13 L136.733819,13 L136.733819,3.4046875 L138.585089,3.4046875 L138.585089,6.82041016 C138.819758,6.49013507 139.078325,6.23808681 139.360797,6.06425781 C139.695418,5.84697157 140.121292,5.73833008 140.638434,5.73833008 Z M140.162579,11.6571777 C140.640609,11.6571777 141.012163,11.4637959 141.277252,11.0770264 C141.542341,10.6902569 141.674884,10.1818147 141.674884,9.55168457 C141.674884,9.04758049 141.609699,8.63039716 141.479327,8.30012207 C141.231621,7.67433769 140.775327,7.3614502 140.110431,7.3614502 C139.436843,7.3614502 138.974031,7.6678192 138.721979,8.28056641 C138.591607,8.60649577 138.526422,9.02802476 138.526422,9.54516602 C138.526422,10.1535675 138.661137,10.657664 138.930572,11.0574707 C139.200007,11.4572774 139.610672,11.6571777 140.162579,11.6571777 Z M148.45279,11.6897705 C148.996006,11.6897705 149.413189,11.4963887 149.704353,11.1096191 C149.995516,10.7228496 150.141096,10.1731237 150.141096,9.4604248 C150.141096,8.74772593 149.995516,8.1990864 149.704353,7.81448975 C149.413189,7.4298931 148.996006,7.23759766 148.45279,7.23759766 C147.909574,7.23759766 147.491305,7.4298931 147.197968,7.81448975 C146.904632,8.1990864 146.757966,8.74772593 146.757966,9.4604248 C146.757966,10.1731237 146.904632,10.7228496 147.197968,11.1096191 C147.491305,11.4963887 147.909574,11.6897705 148.45279,11.6897705 Z M152.090144,9.4604248 C152.090144,10.5033988 151.790293,11.3953454 151.190583,12.1362915 C150.590873,12.8772376 149.680457,13.2477051 148.459309,13.2477051 C147.23816,13.2477051 146.327744,12.8772376 145.728034,12.1362915 C145.128324,11.3953454 144.828474,10.5033988 144.828474,9.4604248 C144.828474,8.43483374 145.128324,7.54614634 145.728034,6.79433594 C146.327744,6.04252554 147.23816,5.66662598 148.459309,5.66662598 C149.680457,5.66662598 150.590873,6.04252554 151.190583,6.79433594 C151.790293,7.54614634 152.090144,8.43483374 152.090144,9.4604248 Z M155.178548,10.731543 C155.217659,11.0618181 155.3024,11.2964837 155.432771,11.4355469 C155.663095,11.6832532 156.08897,11.8071045 156.710408,11.8071045 C157.075449,11.8071045 157.365522,11.7527837 157.580635,11.6441406 C157.795749,11.5354975 157.903304,11.3725353 157.903304,11.155249 C157.903304,10.9466542 157.816391,10.7880377 157.642562,10.6793945 C157.468733,10.5707514 156.823402,10.383888 155.706551,10.1187988 C154.902592,9.91889548 154.335483,9.66902005 154.005208,9.36916504 C153.674933,9.07365575 153.509798,8.6477811 153.509798,8.09152832 C153.509798,7.43532387 153.767278,6.87147453 154.282247,6.39996338 C154.797215,5.92845223 155.521854,5.6927002 156.456185,5.6927002 C157.342712,5.6927002 158.065178,5.86978583 158.623604,6.2239624 C159.18203,6.57813898 159.502522,7.18979058 159.585091,8.05893555 L157.727303,8.05893555 C157.701228,7.81992068 157.633871,7.63088448 157.525228,7.49182129 C157.320978,7.23976925 156.973326,7.11374512 156.482259,7.11374512 C156.078106,7.11374512 155.790206,7.17675718 155.61855,7.3027832 C155.446894,7.42880922 155.361067,7.57656165 155.361067,7.74604492 C155.361067,7.95898544 155.452326,8.11325636 155.634847,8.2088623 C155.817367,8.30881398 156.462698,8.48046753 157.570857,8.72382813 C158.309631,8.89765712 158.863702,9.16056953 159.233089,9.51257324 C159.59813,9.86892268 159.780647,10.3143528 159.780647,10.848877 C159.780647,11.5528844 159.518821,12.1275979 158.995162,12.5730347 C158.471502,13.0184715 157.662123,13.2411865 156.567,13.2411865 C155.450149,13.2411865 154.62556,13.0054345 154.093208,12.5339233 C153.560857,12.0624122 153.294686,11.4616247 153.294686,10.731543 L155.178548,10.731543 Z M162.914682,10.731543 C162.953793,11.0618181 163.038534,11.2964837 163.168905,11.4355469 C163.399229,11.6832532 163.825103,11.8071045 164.446542,11.8071045 C164.811583,11.8071045 165.101656,11.7527837 165.316769,11.6441406 C165.531882,11.5354975 165.639437,11.3725353 165.639437,11.155249 C165.639437,10.9466542 165.552524,10.7880377 165.378695,10.6793945 C165.204866,10.5707514 164.559536,10.383888 163.442685,10.1187988 C162.638725,9.91889548 162.071617,9.66902005 161.741342,9.36916504 C161.411067,9.07365575 161.245932,8.6477811 161.245932,8.09152832 C161.245932,7.43532387 161.503412,6.87147453 162.01838,6.39996338 C162.533349,5.92845223 163.257988,5.6927002 164.192318,5.6927002 C165.078846,5.6927002 165.801312,5.86978583 166.359738,6.2239624 C166.918163,6.57813898 167.238656,7.18979058 167.321225,8.05893555 L165.463437,8.05893555 C165.437362,7.81992068 165.370004,7.63088448 165.261361,7.49182129 C165.057112,7.23976925 164.709459,7.11374512 164.218393,7.11374512 C163.81424,7.11374512 163.52634,7.17675718 163.354684,7.3027832 C163.183028,7.42880922 163.097201,7.57656165 163.097201,7.74604492 C163.097201,7.95898544 163.18846,8.11325636 163.37098,8.2088623 C163.553501,8.30881398 164.198831,8.48046753 165.306991,8.72382813 C166.045764,8.89765712 166.599836,9.16056953 166.969223,9.51257324 C167.334264,9.86892268 167.516781,10.3143528 167.516781,10.848877 C167.516781,11.5528844 167.254955,12.1275979 166.731295,12.5730347 C166.207636,13.0184715 165.398256,13.2411865 164.303134,13.2411865 C163.186283,13.2411865 162.361694,13.0054345 161.829342,12.5339233 C161.296991,12.0624122 161.030819,11.4616247 161.030819,10.731543 L162.914682,10.731543 Z M176.574791,5.89477539 L178.458653,5.89477539 L179.540733,11.0118408 L180.648888,5.89477539 L182.584898,5.89477539 L180.525035,13 L178.615099,13 L177.500426,7.82426758 L176.372716,13 L174.443224,13 L172.448546,5.89477539 L174.443224,5.89477539 L175.551378,10.9922852 L176.574791,5.89477539 Z M185.829748,5.04736328 L183.945886,5.04736328 L183.945886,3.3329834 L185.829748,3.3329834 L185.829748,5.04736328 Z M183.945886,5.89477539 L185.829748,5.89477539 L185.829748,13 L183.945886,13 L183.945886,5.89477539 Z M189.837269,13 L187.97948,13 L187.97948,3.39165039 L189.837269,3.39165039 L189.837269,13 Z M193.857826,13 L192.000038,13 L192.000038,3.39165039 L193.857826,3.39165039 L193.857826,13 Z M200.288858,14.3623779 L200.523526,14.375415 C200.706047,14.3841065 200.879873,14.377588 201.045011,14.3558594 C201.210148,14.3341308 201.349209,14.2841557 201.462198,14.2059326 C201.570841,14.1320553 201.671878,13.9777844 201.765311,13.7431152 C201.858744,13.5084461 201.896769,13.3650393 201.879386,13.3128906 L199.271964,5.89477539 L201.338346,5.89477539 L202.889762,11.1356934 L204.356437,5.89477539 L206.331559,5.89477539 L203.893619,12.882666 C203.424281,14.2298407 203.052727,15.0652938 202.778946,15.3890503 C202.505166,15.7128068 201.957613,15.8746826 201.136271,15.8746826 C200.971133,15.8746826 200.83859,15.8735962 200.738639,15.8714233 C200.638687,15.8692505 200.488762,15.8616456 200.288858,15.8486084 L200.288858,14.3623779 Z M210.541154,7.23759766 C210.110928,7.23759766 209.777398,7.37231311 209.540556,7.64174805 C209.303714,7.91118299 209.154875,8.2762184 209.094035,8.73686523 L211.981755,8.73686523 C211.951335,8.24579833 211.802496,7.87315801 211.535234,7.61893311 C211.267972,7.3647082 210.936615,7.23759766 210.541154,7.23759766 Z M210.541154,5.7057373 C211.132173,5.7057373 211.664516,5.81655163 212.1382,6.03818359 C212.611884,6.25981556 213.002994,6.60964116 213.31154,7.0876709 C213.589666,7.50920621 213.770011,7.99809292 213.85258,8.5543457 C213.900383,8.88027507 213.919939,9.34960631 213.911247,9.96235352 L209.048405,9.96235352 C209.07448,10.6750524 209.298281,11.1748033 209.719816,11.4616211 C209.976214,11.6397958 210.284756,11.7288818 210.645451,11.7288818 C211.027875,11.7288818 211.33859,11.6202403 211.577604,11.4029541 C211.707976,11.2856195 211.823136,11.1226573 211.923088,10.9140625 L213.819987,10.9140625 C213.772184,11.3355978 213.552729,11.7636453 213.161613,12.1982178 C212.553212,12.889188 211.701463,13.234668 210.60634,13.234668 C209.702429,13.234668 208.905001,12.9435088 208.21403,12.3611816 C207.52306,11.7788545 207.17758,10.8315007 207.17758,9.5190918 C207.17758,8.28925166 207.489381,7.34624352 208.112993,6.69003906 C208.736604,6.03383461 209.545983,5.7057373 210.541154,5.7057373 Z M217.371209,13 L215.513421,13 L215.513421,3.39165039 L217.371209,3.39165039 L217.371209,13 Z M221.391767,13 L219.533979,13 L219.533979,3.39165039 L221.391767,3.39165039 L221.391767,13 Z M231.453634,9.54516602 C231.336299,9.61904334 231.21788,9.67879616 231.098373,9.72442627 C230.978865,9.77005638 230.814816,9.81242656 230.606222,9.85153809 L230.189034,9.92976074 C229.797919,9.99929234 229.517624,10.0840327 229.348141,10.1839844 C229.061323,10.3534676 228.917916,10.6163801 228.917916,10.9727295 C228.917916,11.2899674 229.005916,11.519201 229.181917,11.660437 C229.357919,11.8016731 229.571943,11.87229 229.823995,11.87229 C230.223802,11.87229 230.592096,11.7549572 230.92889,11.5202881 C231.265684,11.2856189 231.440597,10.8575715 231.453634,10.2361328 L231.453634,9.54516602 Z M230.325924,8.67819824 C230.669236,8.63474099 230.914766,8.58042025 231.062521,8.51523438 C231.32761,8.40224553 231.460152,8.22624631 231.460152,7.98723145 C231.460152,7.69606788 231.359116,7.49508112 231.15704,7.38426514 C230.954963,7.27344915 230.658372,7.21804199 230.267257,7.21804199 C229.828339,7.21804199 229.517624,7.32668348 229.335104,7.54396973 C229.204732,7.70476155 229.117819,7.92204453 229.074361,8.1958252 L227.281759,8.1958252 C227.32087,7.57438654 227.494697,7.06377153 227.803243,6.66396484 C228.29431,6.03818046 229.137368,5.72529297 230.332442,5.72529297 C231.110327,5.72529297 231.801287,5.87956389 232.405343,6.18811035 C233.009399,6.49665682 233.311422,7.07897521 233.311422,7.93508301 L233.311422,11.1943604 C233.311422,11.420338 233.315768,11.6941146 233.324459,12.0156982 C233.337496,12.2590588 233.374434,12.4241939 233.435274,12.5111084 C233.496115,12.5980229 233.587373,12.6697263 233.709054,12.7262207 L233.709054,13 L231.688302,13 C231.631807,12.8565911 231.592696,12.7218756 231.570968,12.5958496 C231.549239,12.4698236 231.531857,12.3264168 231.518819,12.165625 C231.262422,12.4437514 230.966917,12.6805898 230.632296,12.8761475 C230.232489,13.1064709 229.780541,13.2216309 229.276437,13.2216309 C228.633269,13.2216309 228.102012,13.0380267 227.68265,12.670813 C227.263287,12.3035992 227.053609,11.7832065 227.053609,11.1096191 C227.053609,10.2361284 227.390398,9.60383496 228.063985,9.21271973 C228.433372,8.99977921 228.976579,8.84768112 229.693624,8.7564209 L230.325924,8.67819824 Z M234.542038,7.28322754 L234.542038,5.95996094 L235.532858,5.95996094 L235.532858,3.97832031 L237.371091,3.97832031 L237.371091,5.95996094 L238.524875,5.95996094 L238.524875,7.28322754 L237.371091,7.28322754 L237.371091,11.037915 C237.371091,11.3290786 237.408029,11.5105099 237.481906,11.5822144 C237.555784,11.6539188 237.781758,11.6897705 238.159836,11.6897705 C238.21633,11.6897705 238.276083,11.6886841 238.339096,11.6865112 C238.402109,11.6843384 238.464035,11.6810791 238.524875,11.6767334 L238.524875,13.0651855 L237.64487,13.0977783 C236.767034,13.1281984 236.167333,12.9761003 235.845749,12.6414795 C235.637154,12.428539 235.532858,12.1004417 235.532858,11.6571777 L235.532858,7.28322754 L234.542038,7.28322754 Z M251.989428,5.73833008 C252.30232,5.73833008 252.610862,5.79916931 252.915063,5.92084961 C253.219263,6.04252991 253.495213,6.25546723 253.742919,6.55966797 C253.942822,6.80737429 254.077538,7.11157046 254.147069,7.47226563 C254.190527,7.71128049 254.212255,8.0611061 254.212255,8.52175293 L254.199218,13 L252.2958,13 L252.2958,8.47612305 C252.2958,8.20668811 252.252343,7.98505946 252.165429,7.81123047 C252.000291,7.48095538 251.696095,7.31582031 251.252831,7.31582031 C250.740036,7.31582031 250.385864,7.52875764 250.190307,7.95463867 C250.090355,8.18061636 250.04038,8.45222009 250.04038,8.76945801 L250.04038,13 L248.169555,13 L248.169555,8.76945801 C248.169555,8.3479227 248.126098,8.04155369 248.039184,7.8503418 C247.882737,7.50702953 247.576368,7.33537598 247.120067,7.33537598 C246.589889,7.33537598 246.233545,7.50702953 246.051024,7.8503418 C245.951073,8.04589942 245.901098,8.33705861 245.901098,8.72382813 L245.901098,13 L244.017235,13 L244.017235,5.9078125 L245.822875,5.9078125 L245.822875,6.9442627 C246.053198,6.57487608 246.270481,6.31196367 246.47473,6.15551758 C246.835426,5.87739119 247.302584,5.73833008 247.87622,5.73833008 C248.419435,5.73833008 248.858347,5.85783572 249.192968,6.09685059 C249.462403,6.31848255 249.666649,6.60312326 249.805712,6.95078125 C250.049073,6.53359166 250.351096,6.22722266 250.711791,6.03166504 C251.094215,5.83610742 251.520089,5.73833008 251.989428,5.73833008 Z M259.034595,7.23759766 C258.604368,7.23759766 258.270839,7.37231311 258.033997,7.64174805 C257.797155,7.91118299 257.648316,8.2762184 257.587476,8.73686523 L260.475195,8.73686523 C260.444775,8.24579833 260.295936,7.87315801 260.028674,7.61893311 C259.761412,7.3647082 259.430056,7.23759766 259.034595,7.23759766 Z M259.034595,5.7057373 C259.625613,5.7057373 260.157957,5.81655163 260.631641,6.03818359 C261.105325,6.25981556 261.496434,6.60964116 261.80498,7.0876709 C262.083107,7.50920621 262.263452,7.99809292 262.346021,8.5543457 C262.393823,8.88027507 262.413379,9.34960631 262.404688,9.96235352 L257.541846,9.96235352 C257.56792,10.6750524 257.791722,11.1748033 258.213257,11.4616211 C258.469655,11.6397958 258.778196,11.7288818 259.138892,11.7288818 C259.521315,11.7288818 259.83203,11.6202403 260.071045,11.4029541 C260.201417,11.2856195 260.316577,11.1226573 260.416528,10.9140625 L262.313428,10.9140625 C262.265625,11.3355978 262.046169,11.7636453 261.655054,12.1982178 C261.046652,12.889188 260.194903,13.234668 259.09978,13.234668 C258.19587,13.234668 257.398441,12.9435088 256.707471,12.3611816 C256.0165,11.7788545 255.671021,10.8315007 255.671021,9.5190918 C255.671021,8.28925166 255.982822,7.34624352 256.606433,6.69003906 C257.230045,6.03383461 258.039424,5.7057373 259.034595,5.7057373 Z" id="ormybosswillyellatme" fill="#727C85"></path>
            </g>
            <g id="Group" transform="translate(27.000000, 30.000000)">
                <circle id="Oval" fill="#1DA1F3" cx="15" cy="15" r="15"></circle>
                <circle id="Oval-Copy" fill="#3A5899" cx="59" cy="15" r="15"></circle>
                <circle id="Oval-Copy-2" fill="#BD091B" cx="103" cy="15" r="15"></circle>
                <circle id="Oval-Copy-3" fill="#1377B5" cx="147" cy="15" r="15"></circle>
                <circle id="Oval-Copy-4" fill="#FB4402" cx="191" cy="15" r="15"></circle>
            </g>
        </g>
        <path d="M97.1443359,114.64654 L97.1443359,116.613281 L95.974721,116.613281 C95.5475983,116.613281 95.2595432,116.702678 95.1105469,116.881473 C94.9615506,117.060269 94.8870536,117.328458 94.8870536,117.686049 L94.8870536,119.094057 L97.0698382,119.094057 L96.7792969,121.299191 L94.8870536,121.299191 L94.8870536,126.953571 L92.6074219,126.953571 L92.6074219,121.299191 L90.7077288,121.299191 L90.7077288,119.094057 L92.6074219,119.094057 L92.6074219,117.470006 C92.6074219,116.546229 92.8656782,115.829816 93.3821987,115.320745 C93.8987191,114.811674 94.5865749,114.557143 95.4457868,114.557143 C96.1758686,114.557143 96.742046,114.586942 97.1443359,114.64654 Z" id="" fill="#FFFFFF" fill-rule="nonzero"></path>
        <path d="M56.0686384,117.596652 C55.73588,118.083373 55.3335961,118.498073 54.8617746,118.840765 C54.8667411,118.910296 54.8692243,119.014592 54.8692243,119.153655 C54.8692243,119.799306 54.7748614,120.443705 54.5861328,121.086872 C54.3974042,121.730039 54.1105907,122.347123 53.7256836,122.938142 C53.3407765,123.52916 52.8826198,124.051881 52.3511998,124.50632 C51.8197797,124.960758 51.1791053,125.323311 50.4291574,125.593987 C49.6792094,125.864664 48.8771248,126 48.0228795,126 C46.6769464,126 45.4452623,125.639931 44.3277902,124.919782 C44.5016192,124.939649 44.6953114,124.949581 44.9088728,124.949581 C46.0263449,124.949581 47.0221217,124.606895 47.8962333,123.921512 C47.3747463,123.911579 46.9078983,123.751411 46.4956752,123.441002 C46.0834522,123.130593 45.8003635,122.734517 45.6464007,122.252762 C45.8102966,122.277595 45.9617739,122.290011 46.1008371,122.290011 C46.3143984,122.290011 46.5254733,122.262696 46.7340681,122.208064 C46.1778153,122.093833 45.7171754,121.816953 45.3521345,121.377414 C44.9870936,120.937874 44.8045759,120.42757 44.8045759,119.846484 L44.8045759,119.816685 C45.1423008,120.005414 45.504853,120.107226 45.8922433,120.122126 C45.5644515,119.903598 45.3037119,119.618026 45.1100167,119.265402 C44.9163216,118.912777 44.8194754,118.530359 44.8194754,118.118136 C44.8194754,117.68108 44.9287377,117.276313 45.1472656,116.903823 C45.7482173,117.643837 46.4795297,118.236089 47.3412249,118.680594 C48.20292,119.1251 49.1254415,119.372182 50.108817,119.421847 C50.0690846,119.233118 50.0492188,119.049359 50.0492188,118.870564 C50.0492188,118.205047 50.2838844,117.637628 50.7532227,117.16829 C51.2225609,116.698951 51.7899799,116.464286 52.4554967,116.464286 C53.1508126,116.464286 53.7368559,116.717576 54.213644,117.224163 C54.7549971,117.119866 55.2640601,116.926173 55.7408482,116.64308 C55.5570861,117.214233 55.2044669,117.656248 54.6829799,117.969141 C55.1448684,117.919475 55.6067499,117.795313 56.0686384,117.596652 Z" id="" fill="#FFFFFF" fill-rule="nonzero"></path>
        <path d="M134,119.00466 C134,118.468273 134.093121,117.962935 134.279367,117.48863 C134.465612,117.014325 134.722627,116.600867 135.050419,116.248242 C135.37821,115.895618 135.755662,115.59018 136.182785,115.33192 C136.609907,115.073659 137.069306,114.879967 137.560993,114.750837 C138.052681,114.621707 138.554294,114.557143 139.065848,114.557143 C139.850562,114.557143 140.580633,114.722278 141.256083,115.052553 C141.931532,115.382828 142.480327,115.863334 142.902483,116.494085 C143.324639,117.124836 143.535714,117.837524 143.535714,118.632171 C143.535714,119.108959 143.488533,119.575807 143.394169,120.032729 C143.299804,120.489651 143.15081,120.929183 142.947182,121.351339 C142.743554,121.773495 142.49523,122.144739 142.202204,122.465081 C141.909178,122.785423 141.549109,123.041196 141.121987,123.232408 C140.694864,123.42362 140.225533,123.519224 139.713979,123.519224 C139.376254,123.519224 139.041017,123.439761 138.708259,123.280831 C138.375501,123.121902 138.13711,122.903378 137.99308,122.625251 C137.943415,122.818946 137.873884,123.09831 137.784487,123.463351 C137.695089,123.828392 137.636733,124.064299 137.609417,124.17108 C137.582101,124.27786 137.531195,124.45417 137.456696,124.700014 C137.382198,124.945858 137.317634,125.122167 137.263002,125.228948 C137.20837,125.335729 137.128907,125.490931 137.024609,125.694559 C136.920312,125.898187 136.806083,126.090638 136.68192,126.271917 C136.557756,126.453196 136.403796,126.667995 136.220033,126.916323 L136.115737,126.953571 L136.048689,126.879074 C135.97419,126.099326 135.936942,125.632478 135.936942,125.478516 C135.936942,125.021594 135.990331,124.508806 136.097112,123.940137 C136.203893,123.371468 136.369028,122.657538 136.592522,121.798326 C136.816017,120.939114 136.945145,120.435017 136.979911,120.286021 C136.820981,119.963196 136.741518,119.543529 136.741518,119.027009 C136.741518,118.614786 136.870646,118.227401 137.128906,117.864844 C137.387166,117.502286 137.714953,117.32101 138.112277,117.32101 C138.415236,117.32101 138.651143,117.421581 138.820006,117.622726 C138.988868,117.823871 139.073298,118.078402 139.073298,118.386328 C139.073298,118.71412 138.964036,119.188418 138.745508,119.809235 C138.52698,120.430053 138.417718,120.894418 138.417718,121.202344 C138.417718,121.515236 138.529463,121.774734 138.752958,121.980845 C138.976452,122.186957 139.247125,122.290011 139.564983,122.290011 C139.838143,122.290011 140.091433,122.22793 140.32486,122.103767 C140.558288,121.979603 140.753222,121.810743 140.909668,121.597182 C141.066114,121.383621 141.205175,121.147713 141.326855,120.889453 C141.448536,120.631193 141.542899,120.356796 141.609947,120.066253 C141.676995,119.77571 141.72666,119.500071 141.758943,119.239328 C141.791225,118.978584 141.807366,118.731502 141.807366,118.498075 C141.807366,117.638863 141.535452,116.969631 140.991616,116.49036 C140.447779,116.011089 139.738816,115.771456 138.864704,115.771456 C137.871396,115.771456 137.041996,116.093035 136.376479,116.736203 C135.710962,117.37937 135.378209,118.195112 135.378209,119.183454 C135.378209,119.401982 135.409249,119.613057 135.471331,119.816685 C135.533413,120.020314 135.60046,120.181724 135.672475,120.300921 C135.74449,120.420118 135.811537,120.533105 135.873619,120.639886 C135.935701,120.746666 135.966741,120.822405 135.966741,120.867104 C135.966741,121.006167 135.929493,121.187443 135.854994,121.410938 C135.780496,121.634432 135.688617,121.746177 135.579353,121.746177 C135.56942,121.746177 135.527205,121.738728 135.452706,121.723828 C135.199413,121.64933 134.97468,121.510269 134.778502,121.306641 C134.582323,121.103012 134.430846,120.868347 134.324065,120.602637 C134.217285,120.336927 134.13658,120.068737 134.081948,119.798061 C134.027316,119.527384 134,119.26292 134,119.00466 Z" id="" fill="#FFFFFF" fill-rule="nonzero"></path>
        <path d="M179.599972,118.213253 L179.599972,125.595982 L177.141546,125.595982 L177.141546,118.213253 L179.599972,118.213253 Z M179.756417,115.933622 C179.761384,116.296179 179.635981,116.599134 179.380204,116.842494 C179.124427,117.085855 178.787949,117.207533 178.370759,117.207533 L178.355859,117.207533 C177.948603,117.207533 177.620816,117.085855 177.372489,116.842494 C177.124162,116.599134 177,116.296179 177,115.933622 C177,115.566097 177.127887,115.261901 177.383664,115.021024 C177.63944,114.780147 177.973435,114.65971 178.385658,114.65971 C178.797882,114.65971 179.128152,114.780147 179.376479,115.021024 C179.624806,115.261901 179.751451,115.566097 179.756417,115.933622 Z M183.406808,119.26236 C183.501414,119.113253 183.59826,118.982078 183.697349,118.868834 C183.801647,118.749637 183.941949,118.620509 184.118262,118.481445 C184.294574,118.342382 184.510615,118.234361 184.766392,118.15738 C185.022169,118.080399 185.3065,118.041908 185.619392,118.041908 C186.468671,118.041908 187.15156,118.323756 187.66808,118.887458 C188.184601,119.451161 188.442857,120.276836 188.442857,121.364509 L188.442857,125.595982 L185.991881,125.595982 L185.991881,121.6476 C185.991881,121.126113 185.89131,120.717621 185.690165,120.422112 C185.48902,120.126603 185.174891,119.97885 184.747768,119.97885 C184.434876,119.97885 184.172894,120.064522 183.961816,120.235868 C183.750738,120.407213 183.593053,120.61953 183.488756,120.872824 C183.434124,121.02182 183.406808,121.222962 183.406808,121.476256 L183.406808,125.595982 L180.955831,125.595982 C180.965765,123.614332 180.970731,122.007679 180.970731,120.775977 C180.970731,119.544274 180.968248,118.809237 180.963281,118.570843 L180.955831,118.213253 L183.406808,118.213253 L183.406808,119.26236 L183.406808,119.26236 Z" id="" fill="#FFFFFF" fill-rule="nonzero"></path>
        <path d="M233.35,119.859654 C233.35,120.147713 233.276745,120.409695 233.130232,120.645605 C232.983719,120.881516 232.786301,121.061551 232.537974,121.185714 C232.597573,121.414175 232.627372,121.652566 232.627372,121.900893 C232.627372,122.670707 232.362907,123.383395 231.83397,124.038979 C231.305034,124.694562 230.583654,125.212317 229.66981,125.592257 C228.755966,125.972198 227.762673,126.162165 226.6899,126.162165 C225.617126,126.162165 224.625074,125.972198 223.713714,125.592257 C222.802353,125.212317 222.082215,124.694562 221.553278,124.038979 C221.024342,123.383395 220.759877,122.670707 220.759877,121.900893 C220.759877,121.667465 220.787193,121.434041 220.841825,121.200614 C220.588531,121.07645 220.384906,120.893933 220.230943,120.653055 C220.07698,120.412178 220,120.147713 220,119.859654 C220,119.452398 220.144028,119.103503 220.432087,118.81296 C220.720147,118.522418 221.070283,118.377148 221.482506,118.377148 C221.904662,118.377148 222.264731,118.533592 222.562723,118.846484 C223.64543,118.09157 224.924295,117.689286 226.399358,117.639621 L227.263532,113.758287 C227.278432,113.693722 227.315681,113.641574 227.375279,113.601842 C227.434878,113.562109 227.499442,113.549693 227.568973,113.564593 L230.317941,114.168025 C230.407339,113.984262 230.541433,113.83651 230.720229,113.724763 C230.899024,113.613016 231.0952,113.557143 231.308761,113.557143 C231.616687,113.557143 231.87991,113.665164 232.098437,113.881208 C232.316965,114.097253 232.426228,114.359234 232.426228,114.66716 C232.426228,114.975085 232.316965,115.238308 232.098437,115.456836 C231.87991,115.675364 231.616687,115.784626 231.308761,115.784626 C231.000836,115.784626 230.738854,115.676605 230.52281,115.460561 C230.306765,115.244516 230.198744,114.982535 230.198744,114.674609 L227.710519,114.123326 L226.935742,117.639621 C228.425705,117.684319 229.714503,118.081637 230.802176,118.831585 C231.090236,118.528626 231.445338,118.377148 231.867494,118.377148 C232.279717,118.377148 232.629853,118.522418 232.917913,118.81296 C233.205972,119.103503 233.35,119.452398 233.35,119.859654 Z M223.114007,121.34216 C223.114007,121.650085 223.222027,121.913308 223.438072,122.131836 C223.654117,122.350364 223.916098,122.459626 224.224023,122.459626 C224.531949,122.459626 224.795172,122.350364 225.0137,122.131836 C225.232228,121.913308 225.34149,121.650085 225.34149,121.34216 C225.34149,121.034234 225.232228,120.772253 225.0137,120.556208 C224.795172,120.340164 224.531949,120.232143 224.224023,120.232143 C223.921064,120.232143 223.660325,120.341405 223.441797,120.559933 C223.223269,120.778461 223.114007,121.0392 223.114007,121.34216 Z M229.148326,123.98683 C229.202958,123.932198 229.230273,123.867634 229.230273,123.793136 C229.230273,123.718638 229.202958,123.654074 229.148326,123.599442 C229.09866,123.549777 229.03658,123.524944 228.962081,123.524944 C228.887583,123.524944 228.823019,123.549777 228.768387,123.599442 C228.564759,123.808037 228.264288,123.961997 227.866964,124.061328 C227.469641,124.160659 227.072323,124.210324 226.675,124.210324 C226.277677,124.210324 225.880359,124.160659 225.483036,124.061328 C225.085712,123.961997 224.785241,123.808037 224.581613,123.599442 C224.526981,123.549777 224.462417,123.524944 224.387919,123.524944 C224.31342,123.524944 224.25134,123.549777 224.201674,123.599442 C224.147042,123.649107 224.119727,123.71243 224.119727,123.789411 C224.119727,123.866393 224.147042,123.932198 224.201674,123.98683 C224.415235,124.200392 224.709499,124.369252 225.084473,124.493415 C225.459447,124.617579 225.763643,124.690834 225.99707,124.713184 C226.230498,124.735533 226.456472,124.746708 226.675,124.746708 C226.893528,124.746708 227.119502,124.735533 227.35293,124.713184 C227.586357,124.690834 227.890553,124.617579 228.265527,124.493415 C228.640501,124.369252 228.934765,124.200392 229.148326,123.98683 Z M228.3363,122.131836 C228.554828,122.350364 228.818051,122.459626 229.125977,122.459626 C229.433902,122.459626 229.695883,122.350364 229.911928,122.131836 C230.127973,121.913308 230.235993,121.650085 230.235993,121.34216 C230.235993,121.0392 230.126731,120.778461 229.908203,120.559933 C229.689675,120.341405 229.428936,120.232143 229.125977,120.232143 C228.818051,120.232143 228.554828,120.340164 228.3363,120.556208 C228.117772,120.772253 228.00851,121.034234 228.00851,121.34216 C228.00851,121.650085 228.117772,121.913308 228.3363,122.131836 Z" id="" fill="#FFFFFF" fill-rule="nonzero"></path>
    </g>
</svg>