<?xml version="1.0" encoding="UTF-8"?>
<svg width="279px" height="207px" viewBox="0 0 279 207" version="1.1" xmlns="http://www.w3.org/2000/svg" xmlns:xlink="http://www.w3.org/1999/xlink">
    <!-- Generator: Sketch 54.1 (76490) - https://sketchapp.com -->
    <title>Testimonial</title>
    <desc>Created with Sketch.</desc>
    <g id="Testimonial" stroke="none" stroke-width="1" fill="none" fill-rule="evenodd">
        <rect id="Rectangle-Copy-13" fill="#313131" x="0" y="0" width="279" height="207"></rect>
        <g id="Section" transform="translate(27.000000, 55.000000)">
            <rect id="Rectangle-Copy" fill="#819FB3" x="0" y="0" width="226.4515" height="98.857"></rect>
            <path d="M26.4385,20.11625 L125.2955,20.691" id="Line" stroke="#FFFFFF" stroke-width="4.598" stroke-linecap="square"></path>
            <path d="M26.4385,57.57475 L197.26089,57.57475" id="Line-Copy" stroke="#FFFFFF" stroke-linecap="square"></path>
            <path d="M26.4385,39.57475 L197.26089,39.57475" id="Line-Copy-3" stroke="#FFFFFF" stroke-linecap="square"></path>
            <path d="M91.0479211,81.1511313 L93.94749,81.1511313 L93.94749,82.51504 L91.0479211,82.51504 L91.0479211,81.1511313 Z M101.534365,83.606167 C101.712853,83.606167 101.884603,83.5842773 102.049619,83.5404973 C102.140547,83.5169235 102.256731,83.4748279 102.398174,83.4142095 L101.645498,82.6968945 L102.448689,81.8583433 L103.201365,82.5756582 C103.319234,82.3331843 103.401741,82.1210229 103.448889,81.9391675 C103.522978,81.6663844 103.560022,81.3481422 103.560022,80.9844314 C103.560022,80.1492436 103.389114,79.5034983 103.047293,79.0471759 C102.705473,78.5908536 102.20622,78.3626958 101.54952,78.3626958 C100.933232,78.3626958 100.441556,78.5815925 100.074478,79.0193926 C99.7073991,79.4571926 99.5238626,80.112199 99.5238626,80.9844314 C99.5238626,82.0048423 99.7865387,82.7356206 100.311899,83.1767883 C100.652036,83.4630422 101.05952,83.606167 101.534365,83.606167 Z M105.115888,80.8732981 C105.115888,81.5367335 105.035065,82.0923945 104.873416,82.5402976 C104.742076,82.9679946 104.548436,83.3232808 104.292492,83.606167 L105.151249,84.4093577 L104.337955,85.258012 L103.438786,84.4093577 C103.166003,84.5743746 102.930268,84.6905583 102.731574,84.7579121 C102.398172,84.869046 101.999107,84.9246121 101.534365,84.9246121 C100.56447,84.9246121 99.7629708,84.6349948 99.1298446,84.0557517 C98.3620107,83.3586393 97.9780995,82.3348761 97.9780995,80.9844314 C97.9780995,79.6238836 98.3721136,78.5950689 99.1601537,77.8979565 C99.803383,77.3288165 100.603198,77.0442507 101.559623,77.0442507 C102.522783,77.0442507 103.331017,77.3456547 103.984349,77.9484717 C104.738712,78.6455841 105.115888,79.6205164 105.115888,80.8732981 Z M106.47197,77.2715688 L108.053094,77.2715688 L108.053094,81.8482402 C108.053094,82.3601295 108.113712,82.7339378 108.234949,82.9696763 C108.42354,83.3872702 108.834392,83.596064 109.467518,83.596064 C110.097277,83.596064 110.506445,83.3872702 110.695036,82.9696763 C110.816273,82.7339378 110.87689,82.3601295 110.87689,81.8482402 L110.87689,77.2715688 L112.458014,77.2715688 L112.458014,81.8482402 C112.458014,82.639648 112.335095,83.2559265 112.089254,83.6970942 C111.631247,84.5053405 110.757344,84.9094575 109.467518,84.9094575 C108.177692,84.9094575 107.302105,84.5053405 106.840731,83.6970942 C106.594889,83.2559265 106.47197,82.639648 106.47197,81.8482402 L106.47197,77.2715688 Z M117.405723,83.606167 C118.02201,83.606167 118.51116,83.3788512 118.873187,82.9242126 C119.235214,82.4695741 119.416225,81.8229869 119.416225,80.9844314 C119.416225,80.1492436 119.235214,79.5034983 118.873187,79.0471759 C118.51116,78.5908536 118.02201,78.3626958 117.405723,78.3626958 C116.789435,78.3626958 116.297759,78.5900116 115.930681,79.0446501 C115.563602,79.4992887 115.380066,80.1458759 115.380066,80.9844314 C115.380066,81.8229869 115.563602,82.4695741 115.930681,82.9242126 C116.297759,83.3788512 116.789435,83.606167 117.405723,83.606167 Z M120.972091,80.9844314 C120.972091,82.3214054 120.596599,83.3451686 119.845604,84.0557517 C119.283199,84.6349948 118.469913,84.9246121 117.405723,84.9246121 C116.341532,84.9246121 115.528246,84.6349948 114.965842,84.0557517 C114.211478,83.3451686 113.834302,82.3214054 113.834302,80.9844314 C113.834302,79.6205159 114.211478,78.5967527 114.965842,77.9131111 C115.528246,77.333868 116.341532,77.0442507 117.405723,77.0442507 C118.469913,77.0442507 119.283199,77.333868 119.845604,77.9131111 C120.596599,78.5967527 120.972091,79.6205159 120.972091,80.9844314 Z M127.738345,77.2715688 L127.738345,78.5900139 L125.510627,78.5900139 L125.510627,84.7175 L123.944658,84.7175 L123.944658,78.5900139 L121.706837,78.5900139 L121.706837,77.2715688 L127.738345,77.2715688 Z M134.322743,78.5900139 L130.382563,78.5900139 L130.382563,80.1711377 L133.999447,80.1711377 L133.999447,81.4643252 L130.382563,81.4643252 L130.382563,83.3788489 L134.504598,83.3788489 L134.504598,84.7175 L128.862057,84.7175 L128.862057,77.2715688 L134.322743,77.2715688 L134.322743,78.5900139 Z" id="-QUOTE" fill="#FFFFFF" fill-rule="nonzero"></path>
        </g>
    </g>
</svg>