<?xml version="1.0" encoding="utf-8"?>
<!-- Generator: Adobe Illustrator 23.1.1, SVG Export Plug-In . SVG Version: 6.00 Build 0)  -->
<svg version="1.1" id="Layer_1" xmlns="http://www.w3.org/2000/svg" xmlns:xlink="http://www.w3.org/1999/xlink" x="0px" y="0px"
	 viewBox="0 0 279 207" style="enable-background:new 0 0 279 207;" xml:space="preserve">
<style type="text/css">
	.st0{fill-rule:evenodd;clip-rule:evenodd;}
	.st1{fill:#FFFFFF;}
	.st2{fill-rule:evenodd;clip-rule:evenodd;fill:#819FB3;}
</style>
<title>widescreen-video-simple-big-heading</title>
<desc>Created with Sketch.</desc>
<g id="widescreen-video-simple-big-heading">
	
		<image style="overflow:visible;enable-background:new    ;" width="216" height="160" xlink:href="55CCFE06696FF1AD.png"  transform="matrix(1.2917 0 0 1.2917 0 0.1667)">
	</image>
	
		<image style="overflow:visible;" width="315" height="210" xlink:href="55CCFE06696FF1AF.jpg"  transform="matrix(1 0 0 1 -25 -39)">
	</image>
	<rect id="Rectangle" y="150" class="st0" width="279" height="57"/>
	<rect id="Rectangle-Copy" class="st0" width="279" height="57"/>
	<path id="PAGETITLE" class="st1" d="M69.4,100c0-1.1-0.3-1.8-0.8-2.3c-0.6-0.5-1.3-0.7-2.3-0.7h-4v6h4c1,0,1.8-0.2,2.3-0.7
		S69.4,101.1,69.4,100z M73.6,100c0,2.4-0.6,4.1-1.8,5.1s-3,1.5-5.2,1.5h-4.3v7.3H58V93.5h8.9c2.1,0,3.7,0.5,4.9,1.6
		S73.6,97.8,73.6,100z M80.6,106.2h5.2l-2.6-8L80.6,106.2z M80.9,93.5h4.8l7.2,20.4h-4.6l-1.3-4.2h-7.5L78,114h-4.5L80.9,93.5z
		 M109.5,99.9c-0.3-1.4-1.1-2.4-2.4-2.9c-0.7-0.3-1.5-0.5-2.3-0.5c-1.6,0-3,0.6-4.1,1.9c-1.1,1.2-1.6,3.1-1.6,5.6
		c0,2.5,0.6,4.3,1.7,5.3c1.1,1,2.4,1.6,3.9,1.6c1.4,0,2.6-0.4,3.5-1.2c0.9-0.8,1.5-1.9,1.7-3.3h-4.7V103h8.5v11h-2.8l-0.4-2.6
		c-0.8,1-1.6,1.7-2.2,2.1c-1.1,0.7-2.5,1-4.2,1c-2.7,0-4.9-0.9-6.7-2.8c-1.8-1.9-2.7-4.5-2.7-7.7c0-3.3,0.9-6,2.7-8
		c1.8-2,4.2-3,7.2-3c2.6,0,4.7,0.7,6.3,2s2.5,3,2.7,4.9H109.5z M133.2,97.1h-10.8v4.3h9.9v3.5h-9.9v5.3h11.3v3.7h-15.5V93.5h15V97.1
		z M160.3,93.5v3.6h-6.1V114h-4.3V97.1h-6.1v-3.6H160.3z M167,114h-4.2V93.5h4.2V114z M186.1,93.5v3.6h-6.1V114h-4.3V97.1h-6.1v-3.6
		H186.1z M188.8,93.5h4.3v16.8h10.1v3.7h-14.4V93.5z M221.5,97.1h-10.8v4.3h9.9v3.5h-9.9v5.3H222v3.7h-15.5V93.5h15V97.1z"/>
	<path id="Shape" class="st2" d="M248.4,127.1h13.3c1.1,0,2,0.9,2,2v2.3l3.9-2.7c0.3-0.2,0.8,0,0.8,0.5v8.9c0,0.5-0.5,0.7-0.8,0.5
		l-3.9-2.7v2.3c0,1.1-0.9,2-2,2h-13.3c-1.1,0-2-0.9-2-2v-9C246.4,128,247.3,127.1,248.4,127.1z M257,133l-3.4-1.8
		c-0.6-0.3-1.2,0.1-1.2,0.6v3.6c0,0.5,0.6,0.9,1.2,0.6l3.4-1.8C257.5,133.9,257.5,133.3,257,133z"/>
</g>
</svg>
