<?xml version="1.0" encoding="utf-8"?>
<!-- Generator: Adobe Illustrator 23.1.1, SVG Export Plug-In . SVG Version: 6.00 Build 0)  -->
<svg version="1.1" id="Layer_1" xmlns="http://www.w3.org/2000/svg" xmlns:xlink="http://www.w3.org/1999/xlink" x="0px" y="0px"
	 viewBox="0 0 279 207" style="enable-background:new 0 0 279 207;" xml:space="preserve">
<style type="text/css">
	.st0{filter:url(#Adobe_OpacityMaskFilter);}
	.st1{fill-rule:evenodd;clip-rule:evenodd;fill:#FFFFFF;}
	.st2{fill:none;stroke:#FFFFFF;stroke-linecap:square;}
	.st3{fill:none;stroke:#C3C3C3;stroke-width:1.7242;stroke-linecap:square;}
	.st4{fill-rule:evenodd;clip-rule:evenodd;}
	.st5{fill:#FFFFFF;}
	.st6{font-family:'Helvetica-Light';}
	.st7{font-size:9.35px;}
	.st8{fill-rule:evenodd;clip-rule:evenodd;fill:#819FB3;}
</style>
<title>widescreen-video-with-title-description</title>
<desc>Created with Sketch.</desc>
<g id="widescreen-video-with-title-description">
	
		<image style="overflow:visible;enable-background:new    ;" width="216" height="160" xlink:href="9A2017AAA8284683.png"  transform="matrix(1.2917 0 0 1.2917 0 0.1667)">
	</image>
	<g transform="translate(0.000000, -39.000000)">
		<g id="Mask">
		</g>
		<defs>
			<filter id="Adobe_OpacityMaskFilter" filterUnits="userSpaceOnUse" x="-24.1" y="0.2" width="313.4" height="209">
				<feColorMatrix  type="matrix" values="1 0 0 0 0  0 1 0 0 0  0 0 1 0 0  0 0 0 1 0"/>
			</filter>
		</defs>
		<mask maskUnits="userSpaceOnUse" x="-24.1" y="0.2" width="313.4" height="209" id="mask-2_1_">
			<g class="st0">
				<polygon id="path-1_1_" class="st1" points="0,0 279,0 279,207 0,207 				"/>
			</g>
		</mask>
		<g transform="matrix(1 0 0 1 0 0)" style="mask:url(#mask-2_1_);enable-background:new    ;">
			
				<image style="overflow:visible;" width="627" height="418" xlink:href="9A2017AAA8284681.png"  transform="matrix(0.4999 0 0 0.4999 -24.1111 0.1685)">
			</image>
		</g>
	</g>
	<g id="paragraph" transform="translate(138.000000, 93.000000)">
		<path id="Line" class="st2" d="M-11,16.5h114.1"/>
		<path class="st2" d="M-11,22.5h89.3"/>
		<path id="Line-Copy-2" class="st2" d="M-11,10.5h114.1"/>
		<path id="Line-Copy-4" class="st3" d="M28.5,0.5h31"/>
	</g>
	<rect id="Rectangle" y="150" class="st4" width="279" height="57"/>
	<rect id="Rectangle-Copy" class="st4" width="279" height="57"/>
	<path id="PAGETITLE" class="st5" d="M14,90.5c0-0.5-0.2-0.9-0.5-1.1S12.8,89,12.2,89H10v3h2.2c0.6,0,1-0.1,1.3-0.4
		C13.8,91.4,14,91,14,90.5z M16,90.2c0,1.2-0.3,2-0.9,2.5c-0.6,0.5-1.5,0.7-2.7,0.7h-2.2V97H8V87h4.6c1,0,1.9,0.3,2.5,0.8
		C15.7,88.3,16,89.1,16,90.2z M19,93h3l-1.5-4L19,93z M19.8,87h2.5L26,97h-2.4l-0.7-2.1H19L18.3,97H16L19.8,87z M34.8,90.5
		c-0.2-0.7-0.6-1.2-1.2-1.5c-0.4-0.2-0.8-0.2-1.2-0.2c-0.9,0-1.6,0.3-2.1,1c-0.6,0.6-0.8,1.6-0.8,2.9c0,1.3,0.3,2.2,0.9,2.7
		c0.6,0.5,1.3,0.8,2.1,0.8c0.8,0,1.4-0.2,1.9-0.6s0.8-1,0.9-1.7h-2.5v-1.7H37v5.6h-1.5l-0.2-1.3c-0.4,0.5-0.8,0.8-1.2,1
		c-0.6,0.4-1.3,0.5-2.2,0.5c-1.4,0-2.6-0.5-3.5-1.4c-0.9-1-1.4-2.3-1.4-4c0-1.7,0.5-3,1.4-4.1c1-1,2.2-1.5,3.8-1.5
		c1.4,0,2.5,0.3,3.3,1c0.8,0.7,1.3,1.5,1.4,2.5H34.8z M46.7,88.8h-5.6v2.1h5.1v1.7h-5.1v2.6H47V97h-8V87h7.7V88.8z M60,87v1.8h-3V97
		H55v-8.2h-3V87H60z M64,97h-2V87h2V97z M73,87v1.8h-3V97H68v-8.2h-3V87H73z M75,87h2.1v8.2H82V97h-7V87z M91.7,88.8h-5.6v2.1h5.1
		v1.7h-5.1v2.6H92V97h-8V87h7.7V88.8z"/>
	<text transform="matrix(1 0 0 1 8 115)" class="st5 st6 st7">Page description</text>
	<text transform="matrix(1 0 0 1 84.1649 115)" class="st5 st6 st7"> </text>
	<text transform="matrix(1 0 0 1 8 126)" class="st5 st6 st7">to go with it</text>
	<path id="Shape" class="st8" d="M249.6,128.1h13.3c1.1,0,2,0.9,2,2v2.3l3.9-2.7c0.3-0.2,0.8,0,0.8,0.5v8.9c0,0.5-0.5,0.7-0.8,0.5
		l-3.9-2.7v2.3c0,1.1-0.9,2-2,2h-13.3c-1.1,0-2-0.9-2-2v-9C247.6,129,248.5,128.1,249.6,128.1z M258.2,134l-3.4-1.8
		c-0.6-0.3-1.2,0.1-1.2,0.6v3.6c0,0.5,0.6,0.9,1.2,0.6l3.4-1.8C258.7,134.9,258.7,134.3,258.2,134z"/>
</g>
</svg>
