<?xml version="1.0" encoding="utf-8"?><svg xmlns="http://www.w3.org/2000/svg" viewBox="0 0 237 275"><defs><style>.cls-1,.cls-11,.cls-13,.cls-8{fill:#fff;}.cls-10,.cls-2,.cls-9{fill:#81a0b4;}.cls-3{opacity:0.44;}.cls-4{fill:none;stroke-width:0.5px;}.cls-4,.cls-9{stroke:#81a0b4;stroke-miterlimit:10;}.cls-5{opacity:0.68;}.cls-6{opacity:0.62;}.cls-7{fill:#c9292c;}.cls-8{opacity:0.3;}.cls-10{font-size:12px;font-family:Muli-Black, Muli;font-weight:800;}.cls-11{font-size:12.25px;font-family:Helvetica-Bold, Helvetica;font-weight:700;}.cls-12{letter-spacing:-0.07em;}.cls-13{fill-rule:evenodd;}</style></defs><title>c9 blocks</title><g id="logo_dark_grey" data-name="logo dark grey"><rect class="cls-1" y="0.19" width="238.26" height="274.81"/><rect class="cls-2" x="-1.13" y="0.19" width="239.26" height="70.71"/><g class="cls-3"><rect class="cls-2" y="70.4" width="238.26" height="60.62"/></g><line class="cls-4" x1="45.01" y1="116.38" x2="82.93" y2="116.38"/><line class="cls-4" x1="45.01" y1="110.06" x2="111.38" y2="110.06"/><line class="cls-4" x1="45.01" y1="103.74" x2="111.38" y2="103.74"/><line class="cls-4" x1="45.01" y1="97.42" x2="111.38" y2="97.42"/><line class="cls-4" x1="125.6" y1="116.38" x2="163.51" y2="116.38"/><line class="cls-4" x1="125.6" y1="110.06" x2="191.95" y2="110.06"/><line class="cls-4" x1="125.6" y1="103.74" x2="191.95" y2="103.74"/><line class="cls-4" x1="125.6" y1="97.42" x2="191.95" y2="97.42"/><rect class="cls-2" x="70.94" y="78.72" width="94.79" height="7.11"/></g><g id="Layer_23" data-name="Layer 23"><g class="cls-3"><polygon class="cls-2" points="238.62 277 -2 277 -1.62 162.45 239 162.45 238.62 277"/></g><g class="cls-5"><g class="cls-6"><path class="cls-2" d="M35.76,169.89v47.48H73.55V169.89Z"/></g></g><polygon class="cls-2" points="73.55 217.33 61.74 188.78 52.29 210.04 45.21 202.96 35.76 217.33 73.55 217.33"/><g class="cls-5"><g class="cls-6"><path class="cls-2" d="M35.76,220.57v47.48H73.55V220.57Z"/></g></g><polygon class="cls-2" points="73.55 268 61.74 239.46 52.29 260.72 45.21 253.63 35.76 268 73.55 268"/><path class="cls-1" d="M49.85,238.16a1.8,1.8,0,0,1-.93-.25l-2.68-1.55a1.86,1.86,0,0,1-.94-1.61v-3.1a1.87,1.87,0,0,1,.94-1.62l2.68-1.55a1.91,1.91,0,0,1,.93-.25,1.94,1.94,0,0,1,.94.25L53.47,230a1.86,1.86,0,0,1,.93,1.62v3.1a1.85,1.85,0,0,1-.93,1.61l-2.68,1.55A1.84,1.84,0,0,1,49.85,238.16Z"/><path class="cls-7" d="M49.85,228.48a1.61,1.61,0,0,1,.81.22l2.69,1.55a1.63,1.63,0,0,1,.8,1.4v3.1a1.64,1.64,0,0,1-.8,1.4l-2.69,1.55a1.65,1.65,0,0,1-1.61,0l-2.69-1.55a1.63,1.63,0,0,1-.81-1.4v-3.1a1.62,1.62,0,0,1,.81-1.4l2.69-1.55a1.6,1.6,0,0,1,.8-.22m0-.5a2.08,2.08,0,0,0-1.05.29l-2.69,1.54a2.14,2.14,0,0,0-1.06,1.84v3.1a2.13,2.13,0,0,0,1.06,1.83l2.69,1.55a2.13,2.13,0,0,0,2.11,0l2.69-1.55a2.12,2.12,0,0,0,1-1.83v-3.1a2.13,2.13,0,0,0-1-1.84l-2.69-1.54a2.09,2.09,0,0,0-1.06-.29Z"/><path class="cls-1" d="M47.85,187.49a1.91,1.91,0,0,1-.93-.25l-2.68-1.55a1.89,1.89,0,0,1-.94-1.62V181a1.89,1.89,0,0,1,.94-1.62l2.68-1.54a1.8,1.8,0,0,1,.93-.25,1.84,1.84,0,0,1,.94.25l2.68,1.54A1.88,1.88,0,0,1,52.4,181v3.1a1.88,1.88,0,0,1-.93,1.62l-2.68,1.55A1.94,1.94,0,0,1,47.85,187.49Z"/><path class="cls-7" d="M47.85,177.81a1.6,1.6,0,0,1,.81.21l2.69,1.55a1.64,1.64,0,0,1,.8,1.4v3.1a1.63,1.63,0,0,1-.8,1.4L48.66,187a1.58,1.58,0,0,1-1.61,0l-2.69-1.55a1.62,1.62,0,0,1-.81-1.4V181a1.63,1.63,0,0,1,.81-1.4L47.05,178a1.59,1.59,0,0,1,.8-.21m0-.5a2.07,2.07,0,0,0-1.05.28l-2.69,1.55A2.12,2.12,0,0,0,43.05,181v3.1a2.12,2.12,0,0,0,1.06,1.83l2.69,1.55a2.06,2.06,0,0,0,2.11,0l2.69-1.55a2.11,2.11,0,0,0,1-1.83V181a2.11,2.11,0,0,0-1-1.83l-2.69-1.55a2.08,2.08,0,0,0-1.06-.28Z"/><g class="cls-5"><g class="cls-6"><path class="cls-2" d="M78.33,169.89v47.48h37.78V169.89Z"/></g></g><polygon class="cls-2" points="116.11 217.33 104.3 188.78 94.86 210.04 87.77 202.96 78.33 217.33 116.11 217.33"/><g class="cls-5"><g class="cls-6"><path class="cls-2" d="M78.33,220.57v47.48h37.78V220.57Z"/></g></g><polygon class="cls-2" points="116.11 268 104.3 239.46 94.86 260.72 87.77 253.63 78.33 268 116.11 268"/><path class="cls-1" d="M92.42,187.49a1.94,1.94,0,0,1-.94-.25l-2.68-1.55a1.9,1.9,0,0,1-.93-1.62V181a1.9,1.9,0,0,1,.93-1.62l2.68-1.54a1.84,1.84,0,0,1,.94-.25,1.78,1.78,0,0,1,.93.25L96,179.35A1.9,1.9,0,0,1,97,181v3.1a1.9,1.9,0,0,1-.93,1.62l-2.69,1.55A1.88,1.88,0,0,1,92.42,187.49Z"/><path class="cls-7" d="M92.42,177.81a1.66,1.66,0,0,1,.81.21l2.68,1.55a1.63,1.63,0,0,1,.81,1.4v3.1a1.62,1.62,0,0,1-.81,1.4L93.23,187a1.67,1.67,0,0,1-.81.22,1.64,1.64,0,0,1-.81-.22l-2.68-1.55a1.62,1.62,0,0,1-.81-1.4V181a1.63,1.63,0,0,1,.81-1.4L91.61,178a1.63,1.63,0,0,1,.81-.21m0-.5a2.1,2.1,0,0,0-1.06.28l-2.68,1.55A2.1,2.1,0,0,0,87.62,181v3.1a2.1,2.1,0,0,0,1.06,1.83l2.68,1.55a2.11,2.11,0,0,0,1.06.29,2.14,2.14,0,0,0,1.06-.29l2.68-1.55a2.12,2.12,0,0,0,1.06-1.83V181a2.12,2.12,0,0,0-1.06-1.83l-2.68-1.55a2.13,2.13,0,0,0-1.06-.28Z"/><path class="cls-1" d="M92.42,238.16a1.84,1.84,0,0,1-.94-.25l-2.68-1.55a1.87,1.87,0,0,1-.93-1.61v-3.1A1.88,1.88,0,0,1,88.8,230l2.68-1.55a1.94,1.94,0,0,1,.94-.25,1.88,1.88,0,0,1,.93.25L96,230a1.88,1.88,0,0,1,.93,1.62v3.1a1.87,1.87,0,0,1-.93,1.61l-2.69,1.55A1.78,1.78,0,0,1,92.42,238.16Z"/><path class="cls-7" d="M92.42,228.48a1.67,1.67,0,0,1,.81.22l2.68,1.55a1.62,1.62,0,0,1,.81,1.4v3.1a1.63,1.63,0,0,1-.81,1.4l-2.68,1.55a1.66,1.66,0,0,1-.81.21,1.63,1.63,0,0,1-.81-.21l-2.68-1.55a1.63,1.63,0,0,1-.81-1.4v-3.1a1.62,1.62,0,0,1,.81-1.4l2.68-1.55a1.64,1.64,0,0,1,.81-.22m0-.5a2.11,2.11,0,0,0-1.06.29l-2.68,1.54a2.12,2.12,0,0,0-1.06,1.84v3.1a2.11,2.11,0,0,0,1.06,1.83l2.68,1.55a2.1,2.1,0,0,0,1.06.28,2.13,2.13,0,0,0,1.06-.28l2.68-1.55a2.13,2.13,0,0,0,1.06-1.83v-3.1a2.14,2.14,0,0,0-1.06-1.84l-2.68-1.54a2.14,2.14,0,0,0-1.06-.29Z"/><g class="cls-5"><g class="cls-6"><path class="cls-2" d="M120.89,169.89v47.48h37.78V169.89Z"/></g></g><polygon class="cls-2" points="158.67 217.33 146.87 188.78 137.42 210.04 130.34 202.96 120.89 217.33 158.67 217.33"/><g class="cls-5"><g class="cls-6"><path class="cls-2" d="M120.89,220.57v47.48h37.78V220.57Z"/></g></g><polygon class="cls-2" points="158.67 268 146.87 239.46 137.42 260.72 130.34 253.63 120.89 268 158.67 268"/><path class="cls-1" d="M135,187.49a1.88,1.88,0,0,1-.93-.25l-2.68-1.55a1.89,1.89,0,0,1-.94-1.62V181a1.89,1.89,0,0,1,.94-1.62l2.68-1.54a1.78,1.78,0,0,1,.93-.25,1.84,1.84,0,0,1,.94.25l2.68,1.54a1.9,1.9,0,0,1,.93,1.62v3.1a1.9,1.9,0,0,1-.93,1.62l-2.68,1.55A1.94,1.94,0,0,1,135,187.49Z"/><path class="cls-7" d="M135,177.81a1.63,1.63,0,0,1,.81.21l2.68,1.55a1.63,1.63,0,0,1,.81,1.4v3.1a1.62,1.62,0,0,1-.81,1.4L135.79,187a1.64,1.64,0,0,1-.81.22,1.67,1.67,0,0,1-.81-.22l-2.68-1.55a1.62,1.62,0,0,1-.81-1.4V181a1.63,1.63,0,0,1,.81-1.4l2.68-1.55a1.66,1.66,0,0,1,.81-.21m0-.5a2.13,2.13,0,0,0-1.06.28l-2.68,1.55a2.12,2.12,0,0,0-1.06,1.83v3.1a2.12,2.12,0,0,0,1.06,1.83l2.68,1.55a2.14,2.14,0,0,0,1.06.29,2.11,2.11,0,0,0,1.06-.29l2.68-1.55a2.1,2.1,0,0,0,1.06-1.83V181a2.1,2.1,0,0,0-1.06-1.83L136,177.59a2.1,2.1,0,0,0-1.06-.28Z"/><path class="cls-1" d="M135,238.16a1.78,1.78,0,0,1-.93-.25l-2.68-1.55a1.86,1.86,0,0,1-.94-1.61v-3.1a1.87,1.87,0,0,1,.94-1.62l2.68-1.55a1.88,1.88,0,0,1,.93-.25,1.94,1.94,0,0,1,.94.25L138.6,230a1.88,1.88,0,0,1,.93,1.62v3.1a1.87,1.87,0,0,1-.93,1.61l-2.68,1.55A1.84,1.84,0,0,1,135,238.16Z"/><path class="cls-7" d="M135,228.48a1.64,1.64,0,0,1,.81.22l2.68,1.55a1.62,1.62,0,0,1,.81,1.4v3.1a1.63,1.63,0,0,1-.81,1.4l-2.68,1.55a1.63,1.63,0,0,1-.81.21,1.66,1.66,0,0,1-.81-.21l-2.68-1.55a1.63,1.63,0,0,1-.81-1.4v-3.1a1.62,1.62,0,0,1,.81-1.4l2.68-1.55a1.67,1.67,0,0,1,.81-.22m0-.5a2.14,2.14,0,0,0-1.06.29l-2.68,1.54a2.14,2.14,0,0,0-1.06,1.84v3.1a2.13,2.13,0,0,0,1.06,1.83l2.68,1.55a2.13,2.13,0,0,0,1.06.28,2.1,2.1,0,0,0,1.06-.28l2.68-1.55a2.11,2.11,0,0,0,1.06-1.83v-3.1a2.12,2.12,0,0,0-1.06-1.84L136,228.27A2.11,2.11,0,0,0,135,228Z"/><g class="cls-5"><g class="cls-6"><path class="cls-2" d="M163.45,169.89v47.48h37.79V169.89Z"/></g></g><polygon class="cls-2" points="201.24 217.33 189.43 188.78 179.98 210.04 172.9 202.96 163.45 217.33 201.24 217.33"/><g class="cls-5"><g class="cls-6"><path class="cls-2" d="M163.45,220.57v47.48h37.79V220.57Z"/></g></g><polygon class="cls-2" points="201.24 268 189.43 239.46 179.98 260.72 172.9 253.63 163.45 268 201.24 268"/><path class="cls-1" d="M177.55,187.49a1.94,1.94,0,0,1-.94-.25l-2.68-1.55a1.88,1.88,0,0,1-.93-1.62V181a1.88,1.88,0,0,1,.93-1.62l2.68-1.54a1.84,1.84,0,0,1,.94-.25,1.8,1.8,0,0,1,.93.25l2.68,1.54a1.89,1.89,0,0,1,.94,1.62v3.1a1.89,1.89,0,0,1-.94,1.62l-2.68,1.55A1.91,1.91,0,0,1,177.55,187.49Z"/><path class="cls-7" d="M177.55,177.81a1.59,1.59,0,0,1,.8.21l2.69,1.55a1.63,1.63,0,0,1,.81,1.4v3.1a1.62,1.62,0,0,1-.81,1.4L178.35,187a1.58,1.58,0,0,1-1.61,0l-2.69-1.55a1.63,1.63,0,0,1-.8-1.4V181a1.64,1.64,0,0,1,.8-1.4l2.69-1.55a1.6,1.6,0,0,1,.81-.21m0-.5a2.08,2.08,0,0,0-1.06.28l-2.69,1.55a2.11,2.11,0,0,0-1.05,1.83v3.1a2.11,2.11,0,0,0,1.05,1.83l2.69,1.55a2.06,2.06,0,0,0,2.11,0l2.69-1.55a2.12,2.12,0,0,0,1.06-1.83V181a2.12,2.12,0,0,0-1.06-1.83l-2.69-1.55a2.07,2.07,0,0,0-1-.28Z"/><path class="cls-1" d="M177.55,238.16a1.84,1.84,0,0,1-.94-.25l-2.68-1.55a1.85,1.85,0,0,1-.93-1.61v-3.1a1.86,1.86,0,0,1,.93-1.62l2.68-1.55a1.94,1.94,0,0,1,.94-.25,1.91,1.91,0,0,1,.93.25l2.68,1.55a1.87,1.87,0,0,1,.94,1.62v3.1a1.86,1.86,0,0,1-.94,1.61l-2.68,1.55A1.8,1.8,0,0,1,177.55,238.16Z"/><path class="cls-7" d="M177.55,228.48a1.6,1.6,0,0,1,.8.22l2.69,1.55a1.62,1.62,0,0,1,.81,1.4v3.1a1.63,1.63,0,0,1-.81,1.4l-2.69,1.55a1.65,1.65,0,0,1-1.61,0l-2.69-1.55a1.64,1.64,0,0,1-.8-1.4v-3.1a1.63,1.63,0,0,1,.8-1.4l2.69-1.55a1.61,1.61,0,0,1,.81-.22m0-.5a2.09,2.09,0,0,0-1.06.29l-2.69,1.54a2.13,2.13,0,0,0-1.05,1.84v3.1a2.12,2.12,0,0,0,1.05,1.83l2.69,1.55a2.13,2.13,0,0,0,2.11,0l2.69-1.55a2.13,2.13,0,0,0,1.06-1.83v-3.1a2.14,2.14,0,0,0-1.06-1.84l-2.69-1.54a2.08,2.08,0,0,0-1-.29Z"/><polygon class="cls-2" points="240.62 68.71 0 68.71 0.38 13 241 13 240.62 68.71"/><path class="cls-8" d="M240.87,41.76a2.6,2.6,0,0,1-.18-.54,1.94,1.94,0,0,0-.27-.54,3.07,3.07,0,0,1-.09-.49c0-.11-.18-.31-.19-.43a.61.61,0,0,0-.16-.32c-.07-.06.07-.09.24-.09s.52,0,.77.08h0V37.85c-.19-.08-.63-.25-.75-.28s-.12-.09-.13-.15-.14,0-.14.06,0,.05-.1.05,0,0-.07-.1-.1-.11-.14-.11-.08,0-.12,0-.09,0-.12,0-.06.06-.09.06a.11.11,0,0,0-.11.05s0,.08,0,.08h-.05s-.06.12,0,.14,0,.07-.08.09-.23.31-.28.49a7,7,0,0,0-.08.73c-.09-.07-.19-.16-.3-.23a.38.38,0,0,1-.19-.29c0-.06.05-.18.07-.3s0-.12.06-.18.08-.12.08-.12.06,0,.09,0a1.13,1.13,0,0,0,.07-.15c.06-.11,0-.18,0-.19s0,0,0-.1,0-.17,0-.23,0-.23,0-.3a1.07,1.07,0,0,0-.1-.22c0-.08,0-.13,0-.14s0,0-.07,0l-.19-.21v0c.05-.16,0-.16,0-.17s-.05.06-.08.11,0-.05-.06-.06,0,0-.07,0v0c0-.11,0-.12,0-.12s-.09.09-.14.19l-.07,0h0a1,1,0,0,0,0-.14c0-.13-.1,0-.17.09a.25.25,0,0,0,0,.16l0,0a1.83,1.83,0,0,1-.16.13s0,0-.05,0,0,0,0,0-.06,0-.05.09,0,0-.05.07a.58.58,0,0,0-.09.39c0,.22-.07.18-.11.21s0,.19,0,.19l-.06-.09a1.43,1.43,0,0,1-.08-.22c-.05-.09,0-.14,0-.26s0-.25,0-.55a2.4,2.4,0,0,0-.19-.74.85.85,0,0,1,0-.35l0-.21c0-.21-.08-.84-.1-1.1a3.26,3.26,0,0,1,0-.7c0-.23.07-.23.22-.36a.61.61,0,0,0,.18-.34,1.88,1.88,0,0,0,.06-.4c0-.2-.07-.2-.1-.19a.36.36,0,0,0-.06.21c0,.11-.08.2-.08.14a.15.15,0,0,0-.07-.13.08.08,0,0,0-.12,0c0,.06,0,.06-.06.05a.28.28,0,0,0-.13,0s-.05.08-.08.07a.21.21,0,0,0-.11,0s0,.2-.05.24A.9.9,0,0,0,236,33a5,5,0,0,0,0,.51c0,.18-.06.56-.09.85a8.12,8.12,0,0,0,0,1,1.79,1.79,0,0,1,0,.8c0,.11-.07.74-.08.91s0,.56,0,.7a3.53,3.53,0,0,0,0,.65,1.3,1.3,0,0,1,0,.48,3.05,3.05,0,0,0,0,.53,2.55,2.55,0,0,1,0,.48s-.06,0-.07,0-.07.11-.11.12-.14,0-.14.08-.12,0-.2.05-.13.06-.14,0-.13,0-.16,0-.09,0-.1,0,0,0-.1-.08a.22.22,0,0,0-.25,0s-.05,0,0-.06,0,0,.07,0l0,0a.15.15,0,0,0,0-.1.85.85,0,0,1,0-.22.23.23,0,0,0,0-.2c0-.07,0-.19,0-.28a1.87,1.87,0,0,0-.09-.39s.05-.13.1-.16.05-.09,0-.19a.38.38,0,0,0-.16-.19l-.38-.23c-.07-.06-.5.05-.68.14s-.13.22-.13.31a.16.16,0,0,1-.08.15.64.64,0,0,0-.11.36,1.08,1.08,0,0,1,0,.36.23.23,0,0,0,0,.14.22.22,0,0,1,0,.11.84.84,0,0,0,0,.19c0,.08.06.09.1.08s0,0,0,.14,0,.11-.06.13-.09.12-.14.09-.12,0-.16,0a.14.14,0,0,0-.16,0s-.1,0-.12,0-.08,0-.07,0-.05,0-.09,0-.17-.11-.18-.14a.32.32,0,0,0-.15-.19,1,1,0,0,1-.28-.36,1.23,1.23,0,0,0-.24-.29c-.08-.07-.05-.26-.05-.36s-.08-.25-.07-.33a.89.89,0,0,0-.08-.26,1.09,1.09,0,0,1,0-.24c0-.1,0-.15,0-.17s-.05-.19,0-.31,0-.2-.06-.21,0-.2,0-.25a1.5,1.5,0,0,1,.22-.34l.28-.31a.53.53,0,0,0,.06-.21c0-.09,0-.07-.08-.05s-.06,0,0,0a.69.69,0,0,0,0-.31c0-.14-.11,0-.11,0a.88.88,0,0,1-.09.27c-.06.14,0,0,0,0a3.15,3.15,0,0,0,0-.37c-.06-.11-.11,0-.12.06a1.24,1.24,0,0,0,0,.27c0,.06,0,.21-.09.22a4.16,4.16,0,0,1,0-.45c0-.18-.12,0-.12,0a3.31,3.31,0,0,0,0,.4c0,.14-.05.1-.08.1a2.28,2.28,0,0,1-.09-.34c0-.14-.12,0-.12,0a.46.46,0,0,0,0,.25.32.32,0,0,1,0,.28,1.16,1.16,0,0,0-.06.39,1.06,1.06,0,0,1,0,.24.49.49,0,0,1-.07.24s0,.05,0,.15,0,.34-.07.38,0,.09,0,.14,0,.1,0,.21,0,.57,0,.85a1.22,1.22,0,0,0,.13.54c0,.09.23.49.4.77s.57,1,.71,1.18a.74.74,0,0,1,.12.55,4.37,4.37,0,0,0-.11.62c0,.18-.08.86-.05,1.07s.09.63.17.65a.19.19,0,0,1,.14.17c0,.07,0,.28,0,.28v0a.08.08,0,0,1,0-.08s0,0-.06,0-.21-.15-.26-.18-.17-.1-.18-.15-.09-.07-.09-.07-.12-.11-.12-.13-.12-.08-.15-.11a1.2,1.2,0,0,1-.18-.2c.09-.19.08-.19.06-.23a.26.26,0,0,1,0-.08l.15-.23c0-.07.07-.1.11-.08s.12-.07.12-.07l.16-.18c.08-.11,0-.18,0-.2s-.11.07-.09,0,.08-.12.17-.16.1-.13.12-.33a1.25,1.25,0,0,0-.07-.48.67.67,0,0,0-.3-.33,1,1,0,0,0-.36-.11,1.11,1.11,0,0,0-.25,0,.7.7,0,0,0-.39.16,2.68,2.68,0,0,0-.23.26c0,.07-.07.07-.07.07h-.27a1.11,1.11,0,0,0-.37,0,.42.42,0,0,0-.12.37.61.61,0,0,0,.24.44,1.1,1.1,0,0,0,.41.12,0,0,0,0,1,0,0,.62.62,0,0,0,0,.15,2.63,2.63,0,0,1-.1.3c0,.07-.05.07-.08.07h-.11s-.1-.06-.12,0-.09-.16-.11-.16a.26.26,0,0,1-.1-.14s-.08-.1-.12-.13-.13-.13-.13-.17-.09-.07-.09-.07l-.18-.2c0-.06-.08-.05-.09-.13s-.07-.21-.12-.38a3.5,3.5,0,0,0-.33-.65,3.53,3.53,0,0,1-.08-.55,4.64,4.64,0,0,0-.24-.82,2.22,2.22,0,0,1-.13-.49,2.85,2.85,0,0,0-.06-.39c0-.08,0-.29,0-.37A1.48,1.48,0,0,1,228,38a1.43,1.43,0,0,0,.09-.44c0-.05,0-.3,0-.51s0-.19-.06-.2-.1.19-.12.33a1.68,1.68,0,0,1-.11.31c0,.06-.07,0-.13,0a.3.3,0,0,0-.18,0s0,.06,0,0,0,0-.06,0,0,0-.07-.07a2.55,2.55,0,0,1-.1-.24c-.05-.11-.08-.1-.13-.08s0,.13,0,.22a1.75,1.75,0,0,0,.16.36s0,.13,0,.24a3.68,3.68,0,0,0,0,.47,1.77,1.77,0,0,0,.08.33,3.63,3.63,0,0,1,0,.74,5.69,5.69,0,0,0,0,1c0,.2.14.51.16.63a1.44,1.44,0,0,0,.08.33,3.45,3.45,0,0,1,.1.43c0,.09.13.59.16.72s.2.57.23.66a1.43,1.43,0,0,1,0,.36c0,.07.1.19.1.3s.05.36.07.51v.06l-.13-.07-.23-.16a1.42,1.42,0,0,0-.22-.18,2.92,2.92,0,0,0-.44-.19,1.37,1.37,0,0,0-.29,0h-.2a.35.35,0,0,1-.21,0,1.87,1.87,0,0,1-.25-.12.19.19,0,0,1-.15-.18,3.19,3.19,0,0,1,.13-.34.78.78,0,0,0,0-.34,3.18,3.18,0,0,0,0-.34,3,3,0,0,0-.23-.38.8.8,0,0,0-.31-.26,1.13,1.13,0,0,0-.45,0,1.28,1.28,0,0,0-.33.3,2,2,0,0,0-.15.45,1.23,1.23,0,0,0,0,.65c.21.32.2.4.13.43s-.12.07-.17.06h-.29c-.1,0-.14,0-.27-.06a1.05,1.05,0,0,0-.21,0c-.16-.29-.36-.64-.52-.88-.27-.43-.18-.45-.08-.47s-.06-.28-.13-.46-.27-.56-.37-.76a4.62,4.62,0,0,0-.69-.72c-.19-.19-.14-.2-.08-.38a.63.63,0,0,1,.15-.26.24.24,0,0,0,.13,0c.05,0,.11-.28.07-.31s0-.07,0-.2a1.59,1.59,0,0,0,0-.49,2.52,2.52,0,0,0-.3-.48.31.31,0,0,0-.37-.09c-.07,0-.35.2-.45.24a.69.69,0,0,0-.27.44c-.06.21,0,.23-.13.27-.07.35-.07.13-.12,0a1.13,1.13,0,0,1-.09-.47,4.7,4.7,0,0,0,0-.92,1.35,1.35,0,0,1-.05-.56c0-.12-.17-1-.22-1.53s0-.59.07-.66l.36-.33a1.15,1.15,0,0,0,.21-.47c.08-.27-.05-.28-.1-.19a3.19,3.19,0,0,1-.2.33c0,.06-.11-.1-.14-.14s-.11,0-.15,0-.13,0-.13,0,0,.13-.07.12-.09,0-.13.12,0,.19-.12.25a1.32,1.32,0,0,0-.11.51c0,.11-.05.5-.08.79a6.86,6.86,0,0,0,.05,1.29,1.49,1.49,0,0,1,0,.64c0,.19-.1,1.42-.1,1.53s0,.4,0,.52,0,.6-.05.72v0a.44.44,0,0,1,0-.1c0-.08,0-.35-.05-.41a.6.6,0,0,0-.09-.21l-.13-.09s-.07,0-.08,0a.37.37,0,0,0-.11,0s-.05,0-.09,0-.11,0-.14,0-.06,0-.11,0,0,.12,0,.24c0,.29.06.27.11.28a.79.79,0,0,1,.22.19,2.6,2.6,0,0,1,.08.42,6.9,6.9,0,0,1,0,.91,2.91,2.91,0,0,1-.08.49s0,0-.13.08-.28.19-.35.24a1.31,1.31,0,0,1-.3.14.47.47,0,0,0-.14,0s-.09,0-.12,0a.31.31,0,0,0-.19,0s-.14,0-.18,0a1.1,1.1,0,0,1-.37,0c-.13,0-.14-.07-.14-.12a.56.56,0,0,1,.06-.2c0-.07.06,0,.09,0s.06-.06.07-.11a.45.45,0,0,0,0-.2c0-.05-.08-.06-.09-.07s0,0,0-.09a1.71,1.71,0,0,0,0-.32,1.13,1.13,0,0,0-.13-.32c0-.06-.15-.17-.18-.21s-.09-.1-.16-.15a.23.23,0,0,0-.24,0,.56.56,0,0,0-.13.07l-.18.12-.2.19a.9.9,0,0,0-.11.38c0,.24,0,.24-.07.27s0,.14,0,.22.1.12.13.1,0,0,0,.16-.06.12-.1.09-.06-.12-.09-.15a.14.14,0,0,0-.11,0s-.1.07-.14,0a.7.7,0,0,0-.19-.06s-.14,0-.16-.07-.14-.07-.15-.09-.14-.12-.2-.19-.38-.33-.5-.43,0-.29,0-.38.15-.51.19-.61l.06-.14,0,0,.35-.33a3.78,3.78,0,0,1,.38-.21l.51-.33a3.47,3.47,0,0,0,.38-.29c.11-.11.33-.26.46-.37s.43-.43.52-.49.21-.13.26-.18a2.12,2.12,0,0,0,.21-.27.33.33,0,0,1,.19-.13,1.38,1.38,0,0,0,.3-.14c.05,0,.05-.08,0-.1s-.08,0-.13,0a.53.53,0,0,1-.17.08.25.25,0,0,1-.19,0c-.05,0,0-.11,0-.18a2.66,2.66,0,0,1,.2-.26c.11-.15.07-.15,0-.18s-.05,0-.09,0-.07.09-.17.19-.14.14-.16.09,0-.09,0-.17a1,1,0,0,1,.13-.26c.06-.11,0-.14,0-.14s-.07,0-.1.05l-.12.16c-.05.08-.08.14-.08.08a.25.25,0,0,1,0-.14c0-.08,0-.1,0-.2s-.05,0-.07,0a.26.26,0,0,0-.07.14,1.31,1.31,0,0,0-.09.26,1.87,1.87,0,0,1-.08.32.09.09,0,0,1-.14.05s-.05,0-.07-.09,0-.12,0-.18-.07-.11-.13-.09,0,.1,0,.15a.66.66,0,0,1,0,.21.75.75,0,0,0,0,.24c.1.26-.06.33-.18.43a5.12,5.12,0,0,1-.5.32c-.1.06-.28.19-.35.22s-.33.14-.43.19l-.24.15s-.07-.07-.11-.07-.07,0-.08,0a.19.19,0,0,0-.11,0s-.08,0-.11,0-.06.06-.08.08a3.39,3.39,0,0,0-.24.47h0l-.19.1c-.11.06-.3.21-.42.27a.86.86,0,0,1-.37.1l-.4.08a.64.64,0,0,0-.32.15c-.09.06-.12.12-.16.13s-.15-.06-.2-.11a.17.17,0,0,1,0-.19s.1,0,.17-.11,0-.06.08-.13a.93.93,0,0,0,.07-.2,3.65,3.65,0,0,0,.07-.4,2.8,2.8,0,0,0,0-.36,1,1,0,0,0-.15-.31.8.8,0,0,0-.32-.24,1,1,0,0,0-.39,0,.63.63,0,0,0-.27.16,1.51,1.51,0,0,0-.22.28,3.72,3.72,0,0,0-.16.44.65.65,0,0,0,0,.39,2.28,2.28,0,0,1,.13.28.46.46,0,0,1-.08.3c0,.06-.1,0-.14,0a1.58,1.58,0,0,0-.22-.29,1.29,1.29,0,0,0-.33-.25,1,1,0,0,1-.26-.41,4.92,4.92,0,0,0-.33-.62.75.75,0,0,1-.13-.37c0-.1,0-.45,0-.6s-.05-.55-.05-.67a5.24,5.24,0,0,1,.07-.74c0-.16.17-.19.25-.24a1.86,1.86,0,0,0,.28-.21.23.23,0,0,1,.15-.07c.07,0,.18-.11.25-.15a.76.76,0,0,0,.15-.1c.05,0,0-.07,0-.07a.11.11,0,0,0-.09,0l-.12.08s0,0,0,0a.51.51,0,0,1,.09-.13.13.13,0,0,0,0-.11.06.06,0,0,0-.09,0,1,1,0,0,0-.13.14c-.06.07-.06.08-.09.08s-.06,0,0-.1l.09-.16c0-.05-.09,0-.12,0a1.08,1.08,0,0,0-.13.15.4.4,0,0,1-.16.18c-.08,0-.06,0-.05-.09s0,0,.07-.13,0-.11-.06-.09-.07.08-.13.15-.13.2-.19.22a1.78,1.78,0,0,0-.28.18.48.48,0,0,0-.16.28,1.22,1.22,0,0,1-.12.33c0,.08-.15.55-.18.67s-.08.63-.08.82a3.91,3.91,0,0,0,0,.69,4.4,4.4,0,0,1,.17.49c0,.16.14.44.18.61a4.78,4.78,0,0,0,.51.83,1.05,1.05,0,0,1,.18.63,3.23,3.23,0,0,0,.16,1c0,.11.2.84.22.92s.12.54.15.71.11.53.14.67a4.16,4.16,0,0,1,.07.58c0,.1,0,.44,0,.55s0,.63,0,.76h0l-.21-.07v0c0-.08,0-.59,0-.59s0-.33,0-.38,0-.24-.05-.31a5.21,5.21,0,0,0-.17-.64.79.79,0,0,0-.25-.28,1.14,1.14,0,0,1-.3-.25,2,2,0,0,0-.58-.33c-.24-.1-.24,0-.19-.33s.13-.33.19-.33.14-.09.18-.14.12-.1.05-.21-.05-.1,0-.17a1.52,1.52,0,0,0,.06-.32,1,1,0,0,0-.14-.45,2.23,2.23,0,0,0-.39-.42c-.19-.17-.27-.05-.39,0a2.39,2.39,0,0,0-.34.21.94.94,0,0,0-.26.44,2.1,2.1,0,0,1-.11.4.09.09,0,0,0,0,.09s0,.16,0,.25.06,0,.08.11a.91.91,0,0,1,0,.37c0,.17-.14.08-.23.11s-.08,0-.12,0a.37.37,0,0,0-.17-.13s-.11,0-.12-.06-.17-.12-.23-.13a.35.35,0,0,1-.15-.07.85.85,0,0,0-.19-.06,1.92,1.92,0,0,1-.32-.18,1.72,1.72,0,0,1-.25-.28c-.07-.08-.31-.27-.32-.32A.4.4,0,0,0,206,42s0-.08-.09-.08-.07-.09-.08-.14-.07-.22-.12-.4-.14-.49-.19-.64a1.42,1.42,0,0,1,0-.35.6.6,0,0,1,.12-.24s0-.12,0-.13,0-.08,0-.14a1.81,1.81,0,0,1,0-.25s0-.14,0-.16.06-.06.1-.11a.25.25,0,0,0,.08-.12.67.67,0,0,0,.1-.19c.05-.12,0-.1-.08-.07s0,.07-.07.11,0,.07-.08.09-.05,0-.09,0-.05,0-.06-.06-.08-.05-.11-.05-.15.05-.17,0,0-.23,0-.31,0,0,0,0v0c0-.3-.07-.25-.1-.23s0,0,0,0a.28.28,0,0,0-.11-.08l.95-6.77,0,0,.84-5.83a16.1,16.1,0,0,0-8.31-1.52,39.76,39.76,0,0,1-8.75-.16l-.44,6.22a57.21,57.21,0,0,1,9.83-.87c4.79.06,6.28,1.43,6.68,1.95l-1,6.93h-.06c-.07,0-.14.07-.17.1a1.1,1.1,0,0,0-.12.16s-.1,0-.1.1a.17.17,0,0,1-.05.12s0,.12,0,.15,0,.12.06.19a1.63,1.63,0,0,0,.19.24s0,.07,0,.09a1.71,1.71,0,0,1,.08.23l-.32,2.32h.14a3.54,3.54,0,0,0-.14.39,1,1,0,0,1-.15.22s-.14.31-.18.37-.06,0-.09.12,0,.07-.09.12-.07.06-.1,0,0,.09-.07.1-.05.07-.08.1-.06,0-.08,0a.09.09,0,0,0-.1,0s0,.1-.08.09a.43.43,0,0,0-.19,0S203,44,203,44s-.09.05-.1,0,.05-.09.08-.16.06-.12.09-.21a1.31,1.31,0,0,0,.06-.31,1.78,1.78,0,0,0,0-.4,2.82,2.82,0,0,0-.07-.47.91.91,0,0,0-.27-.31.92.92,0,0,0-.3-.07,1.64,1.64,0,0,0-.37,0,.94.94,0,0,0-.35.26,1.26,1.26,0,0,0-.2.67,1.23,1.23,0,0,0,.1.64,2.14,2.14,0,0,0,.16.28c0,.06,0,.11,0,.1s-.09,0-.07,0a.08.08,0,0,0,0-.09l-.06,0s-.06,0-.06-.05-.06-.07-.09,0-.1,0-.08,0,0-.07,0-.07-.06,0-.11,0-.09,0-.12-.07,0-.09,0-.1a.26.26,0,0,1-.1-.07s0-.11-.06-.15a1.94,1.94,0,0,1-.08-.21c0-.09-.26-.43-.29-.48s0-.12,0-.14-.1,0-.08-.06,0-.08,0-.16a1.37,1.37,0,0,0-.08-.35c0-.07-.05-.26-.1-.4s0-.05,0-.08l.39-.22c.11-.06.47-.33.54-.38l.51-.44a5.85,5.85,0,0,1,.47-.4,1.06,1.06,0,0,1,.19-.06l.19-.06a.84.84,0,0,0,.23-.12,1.88,1.88,0,0,1,.24-.14l.2-.07a1.21,1.21,0,0,0,.25-.13c.11-.06,0-.11,0-.12s-.07,0-.07,0l-.1,0-.18.06c-.27.08-.13-.06-.1-.08l.21-.15.22-.18c.13-.11.09-.13.07-.16a.05.05,0,0,0-.09,0,.63.63,0,0,1-.12.1l-.17.1c-.33.26-.14,0-.1,0a1.74,1.74,0,0,0,.15-.13,1,1,0,0,1,.19-.16c.12-.1.11-.12.06-.16s-.11,0-.16.06a2.23,2.23,0,0,0-.25.18c-.3.29-.15.08-.13,0a.41.41,0,0,0,.09-.12l.17-.21c.1-.13.07-.13,0-.16s-.07,0-.12.05a.81.81,0,0,0-.12.14s-.16.15-.19.2a1.14,1.14,0,0,1-.22.22.5.5,0,0,1-.24,0c-.05,0,0-.1,0-.15a1.22,1.22,0,0,0,0-.25c-.06-.26-.14-.09-.14,0a1.89,1.89,0,0,1-.06.18.83.83,0,0,1-.09.16.71.71,0,0,0-.08.15c0,.06,0,.11,0,.24a.26.26,0,0,1-.13.22l-.29.18-.37.24c-.07,0-.37.21-.43.23s-.26.11-.33.13-.19.11-.27.14l-.12.08h0a2.09,2.09,0,0,1,0-.46c0-.11-.05-.12-.05-.17a.81.81,0,0,1,0-.24,1.46,1.46,0,0,0,0-.35c0-.07,0-.24,0-.55s0-.29-.06-.3-.06.12-.08.2a2.06,2.06,0,0,1-.07.34c0,.14-.06.14-.09.12l-.11,0a.16.16,0,0,0-.15,0s0,.08,0,.08a.12.12,0,0,1-.08,0,1,1,0,0,1-.14-.22c-.08-.16-.11-.16-.14-.14s0,.07,0,.2.12.22.11.25,0,.07.05.12a.28.28,0,0,1,0,.21,1.22,1.22,0,0,0,.06.38c0,.13,0,.14-.09.19s.05.16.1.24a1.74,1.74,0,0,1,0,.53V41l-.3.17-.31.2a.58.58,0,0,1-.19.06s-.09,0-.12,0-.09,0-.14,0-.12.06-.16.07l-.25.06a3.25,3.25,0,0,1-.35.11.15.15,0,0,0-.11,0s-.05.1-.09.1l-.13,0h-.11s0,0-.08,0-.1,0-.11,0,0-.12,0-.16a1.21,1.21,0,0,1,0-.19.42.42,0,0,1,.05-.14.08.08,0,0,0,.08,0,.15.15,0,0,0,0-.08.83.83,0,0,0,.08-.23.13.13,0,0,0-.06-.15s-.06,0,0-.07,0-.09,0-.14a1.21,1.21,0,0,0,0-.26A1.45,1.45,0,0,0,197,40a1.3,1.3,0,0,0-.15-.2,1.14,1.14,0,0,0-.11-.11c0-.06,0,0-.09-.08s0,0-.06,0-.08,0-.1,0,0,0-.09,0,0,0-.08,0-.06,0-.06,0l-.05,0s0,0-.07,0a.42.42,0,0,0-.13.07,2,2,0,0,1-.16.14,1.4,1.4,0,0,0-.24.33,2.26,2.26,0,0,0,0,.42c0,.17,0,.19,0,.2s-.06.1-.06.14a.66.66,0,0,1,0,.15.23.23,0,0,0,.1.14s.08,0,.08,0a.61.61,0,0,0,0,.11,2.42,2.42,0,0,1,.05.24v.16s0,.07,0,.07h-.12s0,0-.07,0,0,0-.08,0-.07,0-.08,0,0-.06,0-.08,0-.05,0-.05-.11,0-.15,0l-.06,0a1.38,1.38,0,0,0,0-.25,5.46,5.46,0,0,0,.06-1,4,4,0,0,1,0-.74,1.59,1.59,0,0,0,.08-.33,3.68,3.68,0,0,0,0-.47c0-.11,0-.19,0-.24a1.92,1.92,0,0,0,.16-.35c0-.1.06-.21,0-.23s-.08,0-.13.08a2.55,2.55,0,0,1-.1.24s0,.07-.07.07,0,0-.06,0,0,0,0,0a.41.41,0,0,0-.18,0c-.06,0-.13.07-.13,0a2.24,2.24,0,0,1-.11-.32c0-.14-.08-.34-.12-.33s-.07,0-.06.2,0,.46,0,.51a1.43,1.43,0,0,0,.09.44,1.48,1.48,0,0,1,.09.53c0,.08,0,.29,0,.37a2.76,2.76,0,0,0-.06.4,2.29,2.29,0,0,1-.13.48c0,.07-.12.34-.19.58h0a.53.53,0,0,1-.2-.09l-.17-.12a2.43,2.43,0,0,0-.29-.2,2.46,2.46,0,0,1-.27-.17,1.64,1.64,0,0,1-.25-.23,1.48,1.48,0,0,0-.29-.21,2.07,2.07,0,0,1-.32-.19s-.33-.18-.41-.22l-.27-.18-.32-.26-.31-.24c-.08-.07-.12-.09-.14-.16s0-.12-.05-.22a.27.27,0,0,0-.11-.19.41.41,0,0,1-.09-.36c0-.12-.1,0-.13,0a.35.35,0,0,0,0,.2c.08.22,0,.15-.05.12l-.17-.14-.18-.19a2.38,2.38,0,0,0-.19-.2c-.14-.13-.14-.11-.21-.12s0,.11,0,.18.19.22.13.18l-.21-.11a.53.53,0,0,0-.19-.09c-.11,0,0,.15,0,.13h-.07a.1.1,0,0,0,0,.09l.08.08a1.27,1.27,0,0,0,.28.25c.2.16.12.19,0,.17s-.07,0-.2-.12c-.28-.1-.16.14-.09.2s.25.14.38.21l.21.15a2.42,2.42,0,0,0,.39.25,1.79,1.79,0,0,1,.32.17,4.68,4.68,0,0,0,.33.34c.13.1.48.49.63.63s.59.44.78.56a2,2,0,0,1,.43.27c.11.1.34.41.46.52s.38.33.46.42a1.69,1.69,0,0,0-.13.3c0,.17-.11.31-.12.39s0,.06-.09.12a2.23,2.23,0,0,1-.18.2s-.09,0-.09.08-.08.12-.13.16-.12.1-.12.14a.27.27,0,0,1-.1.13s-.09.18-.11.17-.12,0-.12,0h-.11s-.06,0-.08-.07a2.63,2.63,0,0,1-.1-.3.62.62,0,0,0,0-.15,0,0,0,0,1,0,0,1.1,1.1,0,0,0,.41-.12.61.61,0,0,0,.24-.44.42.42,0,0,0-.12-.37,1.45,1.45,0,0,0-.37,0h-.27s0,0-.07-.06a1.94,1.94,0,0,0-.23-.27.78.78,0,0,0-.39-.15,1.44,1.44,0,0,0-.25,0,.89.89,0,0,0-.36.12.66.66,0,0,0-.3.32,1.28,1.28,0,0,0-.07.48c0,.2,0,.28.12.33s.15.08.17.16,0,0-.09,0-.1.09,0,.2l.16.18s.08.09.12.07.07,0,.11.08.16.24.21.32.09.17,0,.22a1.84,1.84,0,0,1-.19.2s-.15.1-.15.11-.12.13-.12.13-.08,0-.09.08-.13.11-.18.14-.24.19-.26.19-.1,0-.06,0,0,.13,0,.17a1.83,1.83,0,0,0-.06.19s0,.17-.07.34h-.64l-.21-.28c0-.06,0-.13,0-.17s0-.27,0-.27.08-.46.08-.52.07-.23.09-.33a.59.59,0,0,1,.08-.19,1.71,1.71,0,0,0,.08-.29.35.35,0,0,1,0-.11.84.84,0,0,0,0-.27,1.5,1.5,0,0,1,0-.29c0-.09,0-.25,0-.31A2,2,0,0,1,190,43a.39.39,0,0,1,.13-.17s0-.12,0-.12,0,0,0-.11a1.74,1.74,0,0,1,.13-.32,4.06,4.06,0,0,0,.15-.84c0-.2.06-.6.08-.77s0-.18-.1-.25L190,40a4.72,4.72,0,0,0-.5-.5l-.41-.3a3.92,3.92,0,0,1-.29-.29.64.64,0,0,1-.12-.25,1.06,1.06,0,0,1-.07-.22s-.05-.11-.06-.15a.73.73,0,0,0-.05-.12.64.64,0,0,1,0-.2s0-.07,0-.09,0,0-.05,0-.06.07-.06.11a1.83,1.83,0,0,1-.06.19l-.1.3a1.33,1.33,0,0,0-.1.28c0,.08-.1.24-.16.24s-.18.16-.29.23-.59.34-.81.51-.46.42-.58.54a.35.35,0,0,0-.1.33,6.58,6.58,0,0,1,0,.75,4.64,4.64,0,0,0,.18,1s0,.22.07.4a5.25,5.25,0,0,1,.18.65,1,1,0,0,1,0,.46,1.21,1.21,0,0,0,.1.6,1,1,0,0,1,.08.25c0,.06,0,.16,0,.32a2.54,2.54,0,0,0-.05.63,2.39,2.39,0,0,1,0,.36c0,.05.06.07.11.09v.28a.39.39,0,0,1-.25.35v-.37a.59.59,0,0,0-.1-.28s0,0,0-.1,0-.1,0-.13a.11.11,0,0,1,0-.11,1.52,1.52,0,0,0,0-.38c0-.17-.05-.59-.06-.73s0-.66,0-.8a3.71,3.71,0,0,0-.07-.5,1.42,1.42,0,0,1,0-.43,1,1,0,0,0,0-.32,1.56,1.56,0,0,1,0-.4.44.44,0,0,0-.14-.28c-.06-.09-.07-.12-.07-.16s-.07-.25-.08-.35a.94.94,0,0,0-.07-.26s0-.16,0-.16,0-.11.05-.08.07,0,.06-.07a1.77,1.77,0,0,1,.06-.28,4.56,4.56,0,0,0,.07-.48c0-.14,0-.54,0-.61s0-.17.05-.27a.47.47,0,0,1,.07-.2,1.83,1.83,0,0,0,.14-.48,3.35,3.35,0,0,0,.07-.37c0-.11,0-.26.1-.28s.08-.21.1-.28a.27.27,0,0,1,.11-.17.69.69,0,0,1,.19-.1,4,4,0,0,0,.44-.24.72.72,0,0,1,.24-.12s.17-.19.19-.23.07-.09.11-.08.2-.15.25-.2.11-.08.15,0,.14-.15.14-.15a.16.16,0,0,0,.09-.05s.07-.08.1-.07.14-.07.15-.1.06,0,.12,0,.05,0,.05,0,0,0,0,0l.06,0,.1-.06s.09-.08.09-.11,0,0,.09-.06.36-.23.55-.35.65-.47.7-.5a.77.77,0,0,1,.28-.09,1.76,1.76,0,0,0,.55-.3.61.61,0,0,1,.2-.13c.08,0,.25-.21.22-.27s-.22.11-.32.15,0,0,.2-.29.18-.32.14-.35-.13.09-.23.23,0,0,.09-.19.18-.27.14-.31-.09,0-.21.14-.05,0,0-.13.05-.17,0-.19-.1.08-.17.19-.18.29-.25.42-.13.12-.18.13a.07.07,0,0,1-.09-.06,1.72,1.72,0,0,0,0-.28c0-.14-.12-.19-.18-.16s0,.15,0,.2a1.6,1.6,0,0,1-.09.53c0,.16-.19.23-.36.3s-.68.32-1,.44-.37.09-.39,0-.15,0-.17.06,0,0-.1,0-.09.16-.12.17a1,1,0,0,1-.18.07s-.14.12-.17.15-.16,0-.15,0-.14,0-.26.08a.36.36,0,0,0-.16.16.06.06,0,0,1-.06.06c-.07,0-.29.15-.33.15a.76.76,0,0,0-.21.06c-.06,0-.32.1-.34.13s0,.08-.1-.06-.46-.06-.58,0a1.55,1.55,0,0,1-.47,0,.09.09,0,0,1-.09-.1s.05,0,.1,0,.1-.07.22-.17a.49.49,0,0,0,.11-.35,1.58,1.58,0,0,0-.06-.32c0-.1-.06-.19-.08-.29a.85.85,0,0,0-.22-.41.89.89,0,0,0-.55-.29,1,1,0,0,0-.46.07,1.3,1.3,0,0,0-.29.28.33.33,0,0,1-.1.16,1.7,1.7,0,0,0-.27.48.52.52,0,0,0,.08.45c.05,0,.06.06.06.1s0,.12.06.11.07,0,.09,0,0,.11,0,.11a1.72,1.72,0,0,1-.32-.07c-.14,0-.17,0-.18-.13s-.51-.14-.57-.14-.14,0-.16-.05-.18-.11-.22-.11-.06-.09-.06-.24a.22.22,0,0,0-.24-.24c-.12,0-.08,0-.14,0s-.2-.19-.21-.17-.08-.06-.14-.12-.28-.31-.3-.34,0,0-.06,0a.12.12,0,0,1-.09,0,.25.25,0,0,0-.1-.08s-.21-.16-.41-.29-.45-.3-.64-.44-.34-.27-.56-.45-.22-.25-.22-.33-.05-.29-.06-.38,0-.12.07-.23-.08-.11-.14-.09a.37.37,0,0,0-.16.23c0,.09,0,.13-.09.1s-.15-.13-.22-.23-.22-.27-.31-.42-.16-.1-.18-.06.06.15.12.25.06.15,0,.13a.85.85,0,0,1-.24-.18c-.14-.13-.18-.09-.21,0s0,.1.2.26.18.2.14.19a2.22,2.22,0,0,1-.19-.13c-.06-.05-.09-.12-.16-.12s-.06.07,0,.13a2.36,2.36,0,0,0,.39.34c.13.09.07.12,0,.13a1.11,1.11,0,0,1-.26-.13c-.13-.07-.17,0-.17,0s.3.24.35.26a1.2,1.2,0,0,1,.21.19A2.63,2.63,0,0,0,179,33a1.62,1.62,0,0,1,.31.27l.62.76c.13.14.55.54.63.6s.1.08.1.13a.06.06,0,0,0,0,.08s0,.09.06.1.06.17.07.23.07,0,.11,0,.07-.06.06,0,.13.1.11.14,0,.15.08.15.13.07.16.1.21.29.25.32.31.43.42.58a1.78,1.78,0,0,0,.47.38s.05.14,0,.27a3,3,0,0,0,.16.75,3,3,0,0,1,0,.5,3.38,3.38,0,0,0,0,.45c0,.11.13.48.14.53a.35.35,0,0,1,0,.26,2.15,2.15,0,0,0-.06.45s0,.37,0,.44a.62.62,0,0,1,0,.31c-.05.17,0,.2,0,.2s0,.05,0,.09-.06.25-.06.28a2.5,2.5,0,0,1-.09.25s0,.13-.05.17-.09.13-.07.17a5.16,5.16,0,0,1-.21.63,2.36,2.36,0,0,0,0,.25s-.16.81-.18.94v0h0s-.1-.11-.13-.16a.7.7,0,0,0-.15-.13.73.73,0,0,0-.09-.1.11.11,0,0,1-.05-.13s-.12-.22-.13-.29a.49.49,0,0,0-.11-.23.17.17,0,0,1-.08-.13.23.23,0,0,0,0-.1s0-.08,0-.13a.65.65,0,0,1,.09-.2.32.32,0,0,0,0-.23,3,3,0,0,1-.17-.28,1.74,1.74,0,0,0-.11-.18s-.18-.28-.22-.32a.33.33,0,0,1-.07-.21c0-.05-.06-.2-.05-.24a1.77,1.77,0,0,0-.06-.3c0-.06.08-.1.11-.08s.05-.07.05-.1,0-.08.11-.2a.17.17,0,0,0,0-.21s0-.07.07-.27a1.62,1.62,0,0,0-.08-.8c-.24-.72-1-.27-1.28-.06a.57.57,0,0,0-.24.54c0,.07,0,.12,0,.12s-.1,0-.12.24.08.26.11.26,0,0,.05.07-.07.11-.16.1-.1-.09-.13-.19a.45.45,0,0,0-.24-.22s0-.14,0-.26a.82.82,0,0,0-.09-.43.52.52,0,0,1-.05-.3.82.82,0,0,0,0-.14,1,1,0,0,1,.11-.14c0-.11.22-.62.25-.75s.38-1,.42-1.08,0-.12.07-.2,0-.21,0-.28a.57.57,0,0,0,0-.26c0-.06-.06,0-.06,0l-.06-.09s-.09,0-.11,0-.09,0-.11,0-.07,0-.11,0a.17.17,0,0,0-.14,0c-.08,0-.07.08-.11.08s-.08.06-.09.13,0,.15.12.37.1.32,0,.43l-.18.3c-.06.1-.2.34-.32.52h0a.57.57,0,0,1,0-.24c0-.1-.08-.52-.11-.72a8.09,8.09,0,0,1-.08-1,.56.56,0,0,1,.17-.48.54.54,0,0,0,.16-.38.22.22,0,0,0-.1-.22.19.19,0,0,1-.13-.09c-.05-.07-.34,0-.4,0a.14.14,0,0,0-.09.05l-.13.06a1,1,0,0,0-.09.33,1.19,1.19,0,0,0,0,.38,1.57,1.57,0,0,1,0,.26c0,.11,0,.58-.06.84s0,.62-.06.73a1.6,1.6,0,0,0,.05.5.18.18,0,0,1-.05.19s0,.14,0,.19,0,.08,0,.19.05.12.09.17,0,.17,0,.27a.45.45,0,0,0,0,.11l-.17.15c-.09.07-.3.32-.39.37s-.22.14-.27.14-.12.06-.19.06-.14.11-.19.11a1.11,1.11,0,0,0-.23,0,1.34,1.34,0,0,0-.26.09c-.06,0-.05.16-.1.17s-.11.05-.14,0,0-.12,0-.19,0-.15.07-.11.05,0,.08,0,0-.1.06-.15a.45.45,0,0,0,0-.22c0-.05-.07-.08-.07-.12a1.64,1.64,0,0,0,0-.18,1.27,1.27,0,0,0,0-.34.74.74,0,0,0-.18-.28,2.12,2.12,0,0,1-.2-.24,1.73,1.73,0,0,0-.2-.15.11.11,0,0,0-.16,0s-.08.06-.13.08a2.26,2.26,0,0,0-.2.13,2.62,2.62,0,0,1-.21.17c-.06,0-.13.16-.17.38s0,.37-.08.39,0,.11,0,.2,0,.15.09.17.06,0,.08.09,0,.21,0,.19l-.09-.09s0-.1-.05-.12a.4.4,0,0,0-.17,0,1.21,1.21,0,0,1-.19,0s-.06-.08-.1-.08-.11-.07-.19-.14a3.2,3.2,0,0,1-.27-.22c-.05-.06-.25-.34-.36-.45a2.31,2.31,0,0,1-.39-.61,4.59,4.59,0,0,0-.22-.69,5.29,5.29,0,0,1-.19-.9c-.14-.53,0-.54,0-.6a.46.46,0,0,1,.15-.23.94.94,0,0,0,.13-.24c0-.07,0-.19-.05-.24a.34.34,0,0,0-.19-.11.44.44,0,0,1-.14,0c-.06,0-.13,0-.19,0s-.13.07-.17.07a.14.14,0,0,0-.11.09,1.63,1.63,0,0,0-.06.37c0,.15,0,.73,0,.86s.05,1,.05,1.27a3.17,3.17,0,0,0,.32,1c.06.08.34.61.41.77a6.25,6.25,0,0,0,.54.74s0,0,0,.14.1.21.2.37a1.91,1.91,0,0,1,.2.62c0,.1.07.66.1.84s.1.69.13,1a2.41,2.41,0,0,1-.05.73c0,.12,0,.6,0,.63a2.19,2.19,0,0,0,0,.27,1,1,0,0,1,0,.28c0,.06-.13.21-.21.32a2.92,2.92,0,0,0-.2.46,1.39,1.39,0,0,0-.1.37.69.69,0,0,1-.05.41h-.31a.37.37,0,0,1-.16.38.38.38,0,0,1-.53-.1,1.74,1.74,0,0,1-.14-.27h0v-.06c0-.29,0-1.05.08-1.21s.08-.46.11-.5a.2.2,0,0,0,.06-.14,1.08,1.08,0,0,1,.05-.28,3,3,0,0,0,.4-.64c.08-.22.26-.65.31-.81a2.71,2.71,0,0,1,.18-.44.34.34,0,0,0,0-.19,5,5,0,0,0,0-.69,3.16,3.16,0,0,0-.19-.7.89.89,0,0,1-.1-.31,5.89,5.89,0,0,0-.16-.59,1,1,0,0,0-.21-.38l-.22-.2s-.08-.1-.1-.1-.07-.07-.07-.07a.25.25,0,0,0-.14,0,.84.84,0,0,1-.24.06c-.05,0-.24.05-.27.11s0,.13-.07.13-.34.06-.41.18a1.38,1.38,0,0,0-.18.46,1.25,1.25,0,0,0,0,.47,1.11,1.11,0,0,1,.08.3.8.8,0,0,0,.12.53c.14.2.18.19.2.21a.4.4,0,0,0,.22.1.75.75,0,0,0,.42,0c.06,0,.14-.16.18-.17a1.31,1.31,0,0,0,.25-.06s0,.1,0,.21,0,.34,0,.39,0,.11,0,.22-.23.25-.28.33a2.13,2.13,0,0,0-.23.45.34.34,0,0,1-.07.17l-.19.15a2.35,2.35,0,0,0-.25.19s-.14.09-.16.09,0,.05,0,.05-.11.06-.1.1-.07.06-.07.06-.06.06,0,.09-.09,0-.13,0-.14,0-.15-.12,0-.35,0-.42,0-.12,0-.13.08-.08.08-.17,0-.3,0-.31-.06,0-.06-.15a.93.93,0,0,0-.31-.7c-.25-.15-.75-.4-1,.07s-.24.57-.24.69a.85.85,0,0,0,.08.31s0,.07,0,.08-.07,0,0,.24.19.26.21.23.07.08.13.16a1.11,1.11,0,0,1,.15.34.18.18,0,0,1-.11.16.5.5,0,0,0-.13,0,2.65,2.65,0,0,1-.24-.33,4.19,4.19,0,0,0-.51-.62.74.74,0,0,1-.17-.23,1.32,1.32,0,0,0-.13-.27l-.32-.35a2.16,2.16,0,0,0-.23-.22.52.52,0,0,1-.25-.13c-.12-.11,0-.31-.06-.37s0-.14,0-.21.07-.47.08-.56,0-.2,0-.21,0-.1,0-.15a.7.7,0,0,0,0-.28s0-.18,0-.29a2.1,2.1,0,0,1,.15-.45s.15-.42.18-.56.06-.51.1-.63l.17-.5c0-.08.19-.16.21-.2s.11-.06.16-.06.06,0,.07-.09a.15.15,0,0,1,.08-.15c.08-.06.52-.33.66-.45s.55-.53.78-.69.23-.2.29-.32.15-.26.29-.54a12.59,12.59,0,0,0,.53-1.21,2.58,2.58,0,0,1,.29-.72,1.1,1.1,0,0,0,.19-.42.71.71,0,0,1,.17-.3c.08-.08.12,0,.22-.21s-.07-.17-.08-.16l-.15.15a.22.22,0,0,1-.18.07s0-.09,0-.2a2.22,2.22,0,0,0,.13-.41c0-.22-.12-.11-.13-.07s-.07.13-.15.32-.12.12-.15.1,0-.14,0-.23,0-.26,0-.41-.14-.11-.15-.08a2.24,2.24,0,0,0-.05.27c0,.14-.06.25-.08.19s0-.12-.06-.34-.13-.11-.15-.07a2.54,2.54,0,0,0,0,.42c0,.25,0,.45,0,.52s-.13.06-.17,0a.22.22,0,0,0-.14-.08.3.3,0,0,0-.26,0c-.07.06.06.1.13.13s.14.17.16.21l.21.3c.09.15-.08.38-.2.6a5.17,5.17,0,0,1-.52.86c-.14.18-.57.78-.64.87a5.54,5.54,0,0,1-.69.49,1.53,1.53,0,0,1-.69.34,2.62,2.62,0,0,0-.38.09c-.11,0-.19.07-.2,0s-.11-.08-.17-.08-.14.12-.15.19-.19.16-.24.11-.1,0-.16,0,0-.11,0-.25a.74.74,0,0,1,.11-.25s.08.07.12,0a1.35,1.35,0,0,1,.09-.28c.07-.16,0-.24,0-.24s0,0,0-.11,0-.15,0-.26a1.31,1.31,0,0,0-.18-.55,2.21,2.21,0,0,0-.4-.41.29.29,0,0,0-.36,0,4,4,0,0,0-.41.23.83.83,0,0,0-.33.46c-.06.18,0,.52-.08.52s-.09.07-.1.1a1.29,1.29,0,0,1,0,.24c0,.08,0,.21.08.18s.07,0,.08,0a2.57,2.57,0,0,1,.08.43c0,.14,0,.12-.06,0s-.07-.11,0-.17-.12,0-.17,0-.13,0-.21-.05-.28-.16-.4-.24a.37.37,0,0,0-.21-.09.77.77,0,0,1-.25-.24c-.06-.1-.38-.5-.47-.61a1.07,1.07,0,0,1-.23-.41,2.45,2.45,0,0,0-.12-.42,12.87,12.87,0,0,1-.34-1.43c-.09-.52-.08-.56,0-.68a.7.7,0,0,1,.25-.32c.07-.05.25-.27.33-.32s-.07-.09-.12-.09-.15.09-.24.15-.05-.06,0-.13a5.39,5.39,0,0,0,.27-.49c.14-.27.07-.32,0-.32s-.11.12-.21.29-.11.15-.11.11,0-.15,0-.35-.06-.16-.08-.15a.34.34,0,0,0-.08.2,2.31,2.31,0,0,1-.1.37c0,.13-.07.09-.07.09s0-.2,0-.28a2.27,2.27,0,0,1,0-.24c-.08-.07-.11,0-.14,0a2.09,2.09,0,0,0-.07.42c0,.15,0,.16-.07.18s-.06,0-.12-.12-.06-.23-.11-.25-.07.06-.06.12a.73.73,0,0,0,.09.32s0,.13-.06.27a1.65,1.65,0,0,0,0,.54.43.43,0,0,1,0,.22c0,.07,0,.53,0,.88a5.4,5.4,0,0,0,.1,1.13,2.82,2.82,0,0,1,.1.58c0,.08.12.21.19.35s.3.61.43.88.59.76.58.79,0,.14,0,.15.12,0,.25.24,0,.37.09.74a1.49,1.49,0,0,1,0,.61,6.15,6.15,0,0,0,.06.9,2.21,2.21,0,0,1,.08.57,3.7,3.7,0,0,1-.07.48l0-.3-.13-.71c0-.21-.11-.54-.15-.73s-.08-.51-.12-.61a.64.64,0,0,1-.05-.21,1.05,1.05,0,0,1,0-.13.3.3,0,0,0,0-.19c0-.05-.09-.07-.09-.11s0,0,0-.08-.1,0-.11-.07a.09.09,0,0,0-.1-.06c-.05,0-.11.06-.11,0s-.12,0-.16,0a.37.37,0,0,0-.08.15s0,.06,0,.06-.06,0,0-.17,0-.16,0-.16-.12.1-.17.15a.12.12,0,0,0,0,.12s-.16,0-.49,0-1.86,0-2.23,0-2.28-.07-2.59-.07-.94-.05-1.15-.07a8.21,8.21,0,0,0-.83,0c-.13,0-.35,0-.42,0s-.1-.09-.11-.17a.06.06,0,0,0-.11,0,.19.19,0,0,0,0,.18s0,.06,0,.07,0,0-.06,0,0-.1-.06-.13-.13-.06-.16,0,0,.09-.08.05-.08,0-.13,0,0,.1-.07.08-.1,0-.14,0,0,.1-.07.11-.06.15-.06.2,0,.13,0,.17a1.77,1.77,0,0,0-.17.5c0,.18-.1.65-.12.87s0,.55-.07.69-.05.62-.08.79,0,.08,0,.13l-.17.15a1.14,1.14,0,0,0-.24.15,2.43,2.43,0,0,0-.18.24v0s.09-.7.12-.8a2.68,2.68,0,0,0,0-.56.39.39,0,0,0,0-.13s-.06-.11-.1-.12-.09-.08-.15-.06a.2.2,0,0,1-.14,0s-.17,0-.18,0,0,0-.05,0a.14.14,0,0,0-.1,0s0,.05-.05,0a.13.13,0,0,0-.11.15.69.69,0,0,0,.14.43c.11.13.2.15.19.27a1.89,1.89,0,0,1-.06.53,3.34,3.34,0,0,1-.24.61,4.77,4.77,0,0,0-.24.55c0,.12-.18.39-.18.44s0,.11-.11.11l-.17,0,0,0c-.05-.08-.09-.1-.13-.1s-.06,0-.09-.13-.15-.14-.21-.2-.28-.22-.32-.26a2.21,2.21,0,0,1-.19-.26c-.05-.09-.2-.18-.25-.26s-.28-.39-.3-.43a2.9,2.9,0,0,0-.21-.34,3.79,3.79,0,0,1-.18-.34c0-.06-.1-.1-.13-.2s0-.18.07-.26a1.3,1.3,0,0,0,0-.52,1.32,1.32,0,0,1,0-.29.44.44,0,0,0-.08-.28c-.06,0-.15,0-.17.14a2.57,2.57,0,0,0,0,.4c0,.09-.12,0-.17-.1a.93.93,0,0,1-.15-.26c0-.08-.16-.3-.22-.44s-.13-.13-.16-.1,0,.08,0,.13.09.21.13.37,0,.16,0,.06-.1-.16-.18-.29-.14-.09-.17,0,0,.12.1.29.07.18,0,.1-.06-.11-.12-.13-.07.07-.06.12l.12.25c0,.08,0,.1,0,.1s0,.08,0,.16a1.23,1.23,0,0,0,.22.24.44.44,0,0,1,.14.22c0,.08.16.22.19.32s0,.19,0,.2-.06.06-.07.19a.52.52,0,0,0,.17.33,3.67,3.67,0,0,1,.22.52,1,1,0,0,0-.37-.27.45.45,0,0,0-.34,0c-.09,0-.17,0-.2,0a1.15,1.15,0,0,1-.22.19,1.7,1.7,0,0,0-.25.31.38.38,0,0,0-.06.22.41.41,0,0,1,0,.22c0,.06-.25.25-.32.34s-.24.27-.09.38.32.18.37.23a1.25,1.25,0,0,0,.28.15c.06,0,.09,0,.09.06s0,.18,0,.18a.42.42,0,0,0-.18.07.08.08,0,0,1-.11,0,.54.54,0,0,0-.19-.07s-.06-.09-.12-.08-.14,0-.15,0-.06-.06-.08,0a1.06,1.06,0,0,1-.29,0,.2.2,0,0,0-.13,0s-.14-.07-.16,0-.15,0-.15,0a.93.93,0,0,0-.21-.08h0c0-.11.1-.4.13-.53s.06-.71.06-.76a.22.22,0,0,1,.06-.19.93.93,0,0,0,.16-.36s.05-.12.18-.26.11-.2.08-.22a.1.1,0,0,0-.1,0l-.22.21c-.06.06,0,0,.09-.23s.05-.22,0-.24-.07,0-.1.11a2.28,2.28,0,0,1-.19.3s0-.14.08-.24.07-.18,0-.19-.09,0-.13.08a2.08,2.08,0,0,0-.13.3c0,.1,0-.13,0-.28s-.1-.08-.11,0a2.28,2.28,0,0,0-.06.35c0,.1-.08.17-.13.25s-.05,0-.11-.07a.23.23,0,0,0-.23-.1c-.05,0-.07.09,0,.13a.41.41,0,0,1,.16.23.77.77,0,0,0,.18.21c.09.08-.09.42-.17.6a3.25,3.25,0,0,0-.18.53.41.41,0,0,1,0,.1l-.21-.05c-.05,0-.14,0-.15-.11s-.21-.49-.28-.67a7.52,7.52,0,0,1-.35-.87,2.92,2.92,0,0,1-.06-.64c0-.06.09-.07.16-.19a1.82,1.82,0,0,0,.13-.4c0-.06,0-.16,0-.19a1.16,1.16,0,0,1-.15-.07.09.09,0,0,0-.11,0,1.38,1.38,0,0,1-.2.08h-.08s-.13,0-.16,0-.13.13-.12.19v.27c0,.07,0,.3,0,.31s0,.12,0,.17a2.06,2.06,0,0,1,.05.38c0,.16,0,.37,0,.49s0,.15,0,.26a1.67,1.67,0,0,0-.38,0,.66.66,0,0,0-.52.27,2,2,0,0,0-.12.68c0,.21,0,.12-.17.34s.18.46.24.51.12.07.12.13,0,.16,0,.22-.11.05-.14.05-.09-.09-.09-.09a.48.48,0,0,0-.12,0,1.83,1.83,0,0,1-.24-.18.65.65,0,0,1-.15-.2,1.65,1.65,0,0,0-.13-.29c-.23-.23-.24-.36-.24-.44a1.89,1.89,0,0,0-.25-.52,1.68,1.68,0,0,1-.17-.42c0-.11,0-.13,0-.18a.71.71,0,0,0,.1-.3,1.62,1.62,0,0,1,.08-.27c0-.08,0-.1-.08-.09s-.14.17-.16.27-.17,0-.21,0-.06-.22-.1-.4-.06-.2-.11-.2,0,.06,0,.1,0,.27,0,.34-.05-.06-.1-.23-.09-.17-.14-.16,0,.07,0,.09a1.14,1.14,0,0,1,.07.27c0,.16,0,.16,0,.09a.9.9,0,0,1-.13-.26c0-.09-.06-.1-.11-.1s0,.09,0,.15a1.14,1.14,0,0,0,.15.34c.06.05,0,.11-.07.09l-.21-.12c-.08,0-.13-.11-.16-.08s0,.06,0,.11a1.09,1.09,0,0,0,.22.18.39.39,0,0,1,.15.1,1.89,1.89,0,0,0,.25.3.12.12,0,0,1,.07.13c0,.07,0,.32,0,.45a6.21,6.21,0,0,0,.29.83.55.55,0,0,1,.05.26,6,6,0,0,0,.17.8c0,.12.31,1,.36,1.19,0,0,0,.11,0,.18a1.65,1.65,0,0,1,.17.5l0,.22a.14.14,0,0,1,0,.11c0,.15,0,.31,0,.47v.05a1.14,1.14,0,0,1,0,.32.29.29,0,0,1,0,.09.54.54,0,0,1-.08.19.42.42,0,0,1-.49.17,2.06,2.06,0,0,1-1.44-1.5l-.71-.93-1.17,3-.77-.94a.18.18,0,0,1-.2,0h-.05a.1.1,0,0,1-.1,0,1.64,1.64,0,0,1-.37-.26.18.18,0,0,1-.05-.08.49.49,0,0,1-.22-.23,1.18,1.18,0,0,1,0-.45h0v-.07h0v0s0-.06,0-.07a1.09,1.09,0,0,1,0-.35s.06-.4.07-.45a1.27,1.27,0,0,1,.12-.47c.08-.16.12-.26.18-.3s.06-.08.06-.21a.81.81,0,0,1,.07-.39,7.57,7.57,0,0,0,.36-.81,4.07,4.07,0,0,1,.13-.53c0-.13.16-.34.17-.39s.17-.51.22-.62a8.21,8.21,0,0,0,.19-.81l.13-.63a1.58,1.58,0,0,1,.15-.4c0-.08.26-.4.24-.46a.51.51,0,0,0-.08-.18s0-.14,0-.15-.09-.09-.12-.09l-.18-.06s-.05,0-.05-.1a1.72,1.72,0,0,1,.08-.44c0-.15,0-.18,0-.21s-.09,0-.15.16-.13.29-.16.4-.1.35-.12.5,0,.49,0,.56-.15.39-.18.53a2.65,2.65,0,0,1-.17.5,3.8,3.8,0,0,0-.33.67,3.65,3.65,0,0,0-.15.51.7.7,0,0,1-.07.23,3.68,3.68,0,0,0-.37.48,3.27,3.27,0,0,0-.22.49c0,.06,0,0-.08.1a.93.93,0,0,1-.22.19,1.35,1.35,0,0,1-.22.14s-.05,0-.07.07l-.09.11-.1,0-.09,0s-.11,0-.11-.07,0-.2,0-.26.07-.19.07-.23,0-.06,0,0,.08,0,.09-.1a1.68,1.68,0,0,0,0-.29s-.08,0-.08-.09,0-.12,0-.16a.9.9,0,0,0,.19-.51.52.52,0,0,0-.2-.37.51.51,0,0,0-.3,0h0c0-.08,0-.16-.05-.23s-.12-.61-.16-.83-.09-.55-.13-.87-.19-1.07-.24-1.35-.07-.48-.12-.67,0-.17,0-.24a.54.54,0,0,0,0-.28.27.27,0,0,0-.14-.19.21.21,0,0,1-.1-.06s-.1-.08-.13-.08,0,0-.06,0-.09,0-.12,0-.06,0-.11,0-.15,0-.17.07a.16.16,0,0,0,0,.15c0,.06,0,.08,0,.08a.12.12,0,0,1-.08,0s0-.16,0-.24a.07.07,0,0,0-.12,0s-.05.16-.07.19a1,1,0,0,0,0,.11s0,.06-.05.06l-.55.07c-.23,0-.95.12-1.31.17l-1.19.17c0-.14,0-.26,0-.32s-.06-.53-.06-.74a.75.75,0,0,0-.13-.4c-.05-.1-.1-.08-.14-.08s-.13,0-.16,0a.15.15,0,0,0-.16,0c-.07-.05-.11,0-.14,0a.28.28,0,0,0-.11,0s0,.11,0,.19.09.14.06.18.05.11.14.15.19.32.2.48a2.6,2.6,0,0,1-.1.58l-.45.06c0-.06,0-.1,0-.17s-.11-.11-.13-.09a.8.8,0,0,0,0,.23s0,0,0,.06h-.08c0-.07,0-.12,0-.22s-.08-.17-.13-.17,0,.2,0,.28a.62.62,0,0,0,0,.13h-.06a1.54,1.54,0,0,1,0-.19c0-.15-.07-.13-.11-.13s0,.14,0,.2,0,.08,0,.14l-.15,0a.34.34,0,0,0,0-.14s-.07.05-.07.16a4.34,4.34,0,0,0-.47.07l-1,.16c-.26.06-.61.09-.75.11s-.15,0-.16-.06-.1-.09-.19-.16-.12,0-.12,0,.07.13.1.18,0,.07,0,.08,0,0,0,0a.3.3,0,0,0-.06-.13s-.11,0-.13,0-.06.09-.1.08a.1.1,0,0,0-.13,0c0,.05,0,0-.07,0s-.11.05-.11.08,0,.1,0,.1-.07.06-.09.14a.93.93,0,0,0,0,.33.56.56,0,0,0,0-.08s0,0,0,0,.08-.13.06-.16-.11,0-.13,0-.06,0-.12.07a.8.8,0,0,1-.13-.19c0-.07.08-.12.12-.2s.08-.22,0-.25a.07.07,0,0,0-.1.06.93.93,0,0,1-.11.16c0-.16,0-.35,0-.45a8.48,8.48,0,0,1,.1-1.07c.09-.4.14-.35.23-.42s.21-.14.23-.25,0-.12,0-.23-.06-.14-.11-.14,0,.06,0,.06v0s0,0-.07-.06-.11,0-.11,0,0,0-.08-.06-.11.06-.15,0a.17.17,0,0,0-.12,0,.68.68,0,0,0-.15.18,1.32,1.32,0,0,0-.09.4,4.84,4.84,0,0,1-.14.61c-.06.14-.17.62-.22.76s-.07.58-.11.86a.46.46,0,0,0,0,.2l-.12.09c-.05,0-.05,0-.08,0s0-.14-.07-.2-.16-.16-.22-.14,0,.12,0,.14a.58.58,0,0,1,.08.34.31.31,0,0,0,.07.24.31.31,0,0,1,0,.29s0,0,0,.06a1.46,1.46,0,0,0-.13-.33.82.82,0,0,0-1.14-.15,1.05,1.05,0,0,0-.25.37.9.9,0,0,0,0,.25s-.08.09-.13.06-.08,0-.12,0l-.64-.26-1.13-.43a1,1,0,0,1,0-.17c0-.07,0-.38,0-.43s0-.2,0-.29a1.3,1.3,0,0,1,.25-.72s.12-.27.15-.35a1,1,0,0,1,.25-.29c.09-.06,0-.11,0-.13a.48.48,0,0,0-.25.12,1.59,1.59,0,0,0-.18.22s-.06,0-.09-.07a1.8,1.8,0,0,0-.2-.18s-.11,0-.15,0,0,0-.1,0a.12.12,0,0,0-.14.07.09.09,0,0,1-.09.05.12.12,0,0,0-.09.08.09.09,0,0,1-.06.07.21.21,0,0,0-.1.18.79.79,0,0,0,.16.42.29.29,0,0,1,.1.26.45.45,0,0,1-.16.33.4.4,0,0,0-.12.31.77.77,0,0,1,0,.17l-.7-.29c-.21-.09-.71-.25-1-.36s-1.17-.42-1.31-.49a7.56,7.56,0,0,0-.82-.31c-.15,0-.12-.09-.13-.15s-.14,0-.14.06,0,.05-.1.05,0,0-.07-.1-.1-.11-.14-.11-.08,0-.12,0-.09,0-.12,0-.06.06-.09.06a.11.11,0,0,0-.11.05s0,.08,0,.08h0s-.06.12,0,.14,0,.07-.08.09-.23.31-.28.49a7,7,0,0,0-.08.73l-.13-.09c0-.11,0-.23,0-.38a3.93,3.93,0,0,0-.07-.66h0a1.13,1.13,0,0,0,.07-.15c.06-.11,0-.18,0-.19s0,0,0-.1,0-.17,0-.23a1.56,1.56,0,0,0,0-.3.72.72,0,0,0-.1-.22c0-.08,0-.13,0-.14s0,0-.07,0l-.19-.21v0c0-.16,0-.16,0-.17v-.1a2.45,2.45,0,0,1,0-.39c0-.17,0-.24,0-.24s0,0,0,0-.08,0-.09,0,0,0-.06-.06-.07,0,0,.22,0,.16,0,.05,0-.11-.08-.1a.16.16,0,0,0,0,.12s0,.19.07.36a.37.37,0,0,1-.07.26l0,0h0a1,1,0,0,0,0-.14c0-.13-.1,0-.17.09s0,0,0,.06h0c-.06,0,0,.06,0,.12h0a1.83,1.83,0,0,1-.16.13l0,0s0,0,0,0-.06,0,0,.09,0,0,0,.07a.58.58,0,0,0-.09.39c0,.22-.07.18-.11.21s0,.19,0,.19l-.06-.09a1.43,1.43,0,0,1-.08-.22c0-.09,0-.14,0-.26s0-.25,0-.55a2.4,2.4,0,0,0-.19-.74.85.85,0,0,1,0-.35l0-.21c0-.21-.08-.84-.1-1.1a3.26,3.26,0,0,1,0-.7c0-.23.07-.23.22-.36a.61.61,0,0,0,.18-.34,1.88,1.88,0,0,0,.06-.4c0-.2-.07-.2-.1-.19a.36.36,0,0,0-.06.21c0,.11-.08.2-.08.14a.15.15,0,0,0-.07-.13.08.08,0,0,0-.12,0c0,.06,0,.06-.06.05a.28.28,0,0,0-.13,0s-.05.08-.08.07a.21.21,0,0,0-.11,0s0,.2,0,.24a.9.9,0,0,0-.13.31,5,5,0,0,0,0,.51c0,.18-.06.56-.09.85a8.12,8.12,0,0,0,0,1,1.79,1.79,0,0,1,0,.8c0,.11-.07.74-.08.91s0,.56,0,.7a4.24,4.24,0,0,0,0,.52l-.07-.09a.71.71,0,0,0-.91,0,.45.45,0,0,0-.1.14.38.38,0,0,0-.15-.18L109,38c-.07-.06-.5.05-.68.14s-.13.22-.13.31a.16.16,0,0,1-.08.15.43.43,0,0,0-.08.2l-.18-.17s0-.12,0-.15a3.92,3.92,0,0,0,0-.4c0-.15.07-.58.11-.8a4.51,4.51,0,0,1,.14-.62c.06-.14.14-.15.18-.2a.54.54,0,0,0,.15-.18c0-.08-.11-.09-.15-.07s-.06,0-.12,0-.11-.11-.15-.19a1.07,1.07,0,0,1-.06-.36c0-.16-.08-.11-.1-.1s0,0,0-.09,0-.11,0-.11,0,0,0,0-.07-.06-.08,0-.05,0-.07,0,0,.09,0,.18a1.19,1.19,0,0,0,.05.29s0,.11,0,.21,0,.34,0,.41a5.25,5.25,0,0,1-.16.52c-.05.16-.24.59-.31.82a5.94,5.94,0,0,0-.18.82.54.54,0,0,0,.1.35c0,.07.27.82.35,1s.09.15.14.24,0,0-.07,0-.1,0-.12,0-.08,0-.07,0,0,0-.09,0-.17-.11-.18-.14a.32.32,0,0,0-.15-.19,1.09,1.09,0,0,1-.28-.36,1.23,1.23,0,0,0-.24-.29c-.08-.07,0-.26,0-.36s-.08-.25-.07-.33a.89.89,0,0,0-.08-.26,1.09,1.09,0,0,1,0-.24c0-.1,0-.15,0-.17s0-.19,0-.31,0-.2-.06-.21,0-.2,0-.25a1.5,1.5,0,0,1,.22-.34l.28-.31a.53.53,0,0,0,.06-.21c0-.09,0-.07-.08-.05s-.06,0,0,0a.69.69,0,0,0,0-.31c0-.14-.11,0-.11,0a.88.88,0,0,1-.09.27c-.06.14,0,0,0,0a3.15,3.15,0,0,0,0-.37c-.06-.11-.11,0-.12.06a1.24,1.24,0,0,0,0,.27c0,.06-.05.21-.09.22a4.16,4.16,0,0,1,0-.45c0-.18-.12,0-.12,0a3.31,3.31,0,0,0,0,.4c0,.14,0,.1-.08.1a2.28,2.28,0,0,1-.09-.34c0-.14-.12,0-.12,0a.46.46,0,0,0,0,.25.32.32,0,0,1,0,.28,1.16,1.16,0,0,0-.06.39,1.06,1.06,0,0,1,0,.24.49.49,0,0,1-.07.24s0,.05,0,.15,0,.34-.07.38,0,.09,0,.14,0,.1,0,.21,0,.57,0,.85a1.22,1.22,0,0,0,.13.54c0,.09.24.49.4.77s.57,1,.71,1.18a.74.74,0,0,1,.12.55,4.37,4.37,0,0,0-.11.62c0,.18-.08.86,0,1.07s.09.63.17.65a.19.19,0,0,1,.14.17c0,.07,0,.28,0,.28v0a.08.08,0,0,1,0-.08s0,0-.06,0-.21-.15-.26-.18-.17-.1-.18-.15-.09-.07-.09-.07-.12-.11-.12-.13-.12-.08-.15-.11a1.2,1.2,0,0,1-.18-.2c.1-.19.08-.19.06-.23a.26.26,0,0,1,0-.08l.15-.23c0-.07.07-.1.11-.08s.12-.07.12-.07l.16-.18c.08-.11,0-.18,0-.2s-.11.07-.09,0,.08-.12.17-.16.1-.13.12-.33a1.25,1.25,0,0,0-.07-.48.67.67,0,0,0-.3-.33,1,1,0,0,0-.36-.11,1.11,1.11,0,0,0-.25,0,.7.7,0,0,0-.39.16,2.68,2.68,0,0,0-.23.26c0,.07-.07.07-.07.07h-.27a1.11,1.11,0,0,0-.37,0,.42.42,0,0,0-.12.37.59.59,0,0,0,.25.44,1,1,0,0,0,.4.12,0,0,0,0,1,0,0,.62.62,0,0,0,0,.15,2.63,2.63,0,0,1-.1.3c0,.07,0,.07-.08.07h-.11s-.1-.06-.12,0-.09-.16-.11-.16a.26.26,0,0,1-.1-.14s-.08-.1-.12-.13-.13-.13-.13-.17-.09-.07-.09-.07l-.18-.2c0-.06-.08-.05-.09-.13s-.07-.21-.12-.38a3.5,3.5,0,0,0-.33-.65,3.53,3.53,0,0,1-.08-.55,4.64,4.64,0,0,0-.24-.82,2.22,2.22,0,0,1-.13-.49,2.85,2.85,0,0,0-.06-.39c0-.08,0-.29,0-.37a1.48,1.48,0,0,1,.09-.53,1.43,1.43,0,0,0,.09-.44c0-.05,0-.3,0-.51s0-.19-.06-.2-.1.19-.12.33a1.68,1.68,0,0,1-.11.31c0,.06-.07,0-.13,0a.3.3,0,0,0-.18,0s0,.06,0,0,0,0-.06,0,0,0-.07-.07a2.55,2.55,0,0,1-.1-.24c0-.11-.08-.1-.13-.08s0,.13,0,.22a1.75,1.75,0,0,0,.16.36s0,.13,0,.24a3.68,3.68,0,0,0,0,.47,1.77,1.77,0,0,0,.08.33,3.63,3.63,0,0,1,0,.74,4.73,4.73,0,0,0,0,1c0,.2.13.51.15.63a1.44,1.44,0,0,0,.08.33,3.45,3.45,0,0,1,.1.43c0,.09.13.59.16.72s.2.57.23.66a1.43,1.43,0,0,1,0,.36c0,.07.1.19.1.3s0,.36.07.51v.06l-.13-.07-.23-.16a1.42,1.42,0,0,0-.22-.18,2.92,2.92,0,0,0-.44-.19,1.37,1.37,0,0,0-.29,0h-.2a.35.35,0,0,1-.21,0,1.87,1.87,0,0,1-.25-.12.19.19,0,0,1-.15-.18,3.19,3.19,0,0,1,.13-.34.78.78,0,0,0,0-.34,3.18,3.18,0,0,0,0-.34,3,3,0,0,0-.23-.38.8.8,0,0,0-.31-.26,1.13,1.13,0,0,0-.45,0,1.28,1.28,0,0,0-.33.3,2,2,0,0,0-.15.45,1.23,1.23,0,0,0,0,.65c.21.32.2.4.13.43s-.12.07-.17.06h-.29c-.1,0-.14,0-.27-.06a1.05,1.05,0,0,0-.21,0c-.16-.29-.36-.64-.52-.88-.27-.43-.18-.45-.08-.47s-.06-.28-.13-.46-.27-.56-.37-.76a4.62,4.62,0,0,0-.69-.72c-.19-.19-.14-.2-.08-.38a.63.63,0,0,1,.15-.26.24.24,0,0,0,.13,0s.11-.28.07-.31,0-.07,0-.2a1.59,1.59,0,0,0,0-.49,2.52,2.52,0,0,0-.3-.48.31.31,0,0,0-.37-.09c-.07,0-.35.2-.45.24A.69.69,0,0,0,96,39c-.06.21,0,.23-.13.27-.07.35-.07.13-.11,0a1,1,0,0,1-.1-.47,3.53,3.53,0,0,0,0-.92,1.35,1.35,0,0,1,0-.56c0-.12-.17-1-.22-1.53s0-.59.07-.66l.36-.33a1.15,1.15,0,0,0,.21-.47c.08-.27,0-.28-.1-.19a3.19,3.19,0,0,1-.2.33c-.05.06-.1-.1-.13-.14s-.12,0-.16,0-.13,0-.13,0,0,.13-.07.12-.09,0-.13.12,0,.19-.12.25a1.32,1.32,0,0,0-.11.51c0,.11,0,.5-.08.79a6.86,6.86,0,0,0,0,1.29,1.49,1.49,0,0,1,0,.64c0,.19-.1,1.42-.1,1.53s0,.4,0,.52,0,.6,0,.72v0a.44.44,0,0,1,0-.1c0-.08,0-.35,0-.41a.6.6,0,0,0-.09-.21L94.3,40s-.07,0-.08,0a.37.37,0,0,0-.11,0s0,0-.09,0-.11,0-.14,0-.06,0-.11,0,0,.12,0,.24c0,.29.06.27.11.28a.79.79,0,0,1,.22.19,2.6,2.6,0,0,1,.08.42,6.9,6.9,0,0,1,0,.91,2.91,2.91,0,0,1-.08.49s0,0-.13.08-.28.19-.35.24a1.31,1.31,0,0,1-.3.14.47.47,0,0,0-.14,0s-.09,0-.12,0a.31.31,0,0,0-.19,0s-.14,0-.18,0a1.1,1.1,0,0,1-.37,0c-.13,0-.14-.07-.14-.12a.56.56,0,0,1,.06-.2c0-.07.06,0,.09,0s.06-.06.07-.11a.45.45,0,0,0,0-.2c0-.05-.08-.06-.09-.07s0,0,0-.09a1.71,1.71,0,0,0,0-.32,1.13,1.13,0,0,0-.13-.32,2,2,0,0,0-.18-.21s-.09-.1-.16-.15a.23.23,0,0,0-.24,0,.56.56,0,0,0-.13.07l-.18.12-.2.19a.9.9,0,0,0-.11.38c0,.24,0,.24-.07.27s0,.14,0,.22.1.12.13.1,0,0,0,.16-.06.12-.1.09-.06-.12-.09-.15a.14.14,0,0,0-.11,0s-.1.07-.14,0a.7.7,0,0,0-.19-.06s-.14,0-.16-.07-.14-.07-.15-.09-.14-.12-.2-.19-.38-.33-.5-.43,0-.29,0-.38.15-.51.19-.61l.06-.14,0,0c.09-.07.28-.26.35-.33a3.78,3.78,0,0,1,.38-.21l.51-.33a3.47,3.47,0,0,0,.38-.29c.11-.11.33-.26.46-.37s.43-.43.52-.49.21-.13.26-.18a2.12,2.12,0,0,0,.21-.27.33.33,0,0,1,.19-.13,1.38,1.38,0,0,0,.3-.14s0-.08,0-.1-.08,0-.13,0a.53.53,0,0,1-.17.08.25.25,0,0,1-.19,0s0-.11,0-.18a2.66,2.66,0,0,1,.2-.26c.11-.15.07-.15,0-.18s0,0-.09,0-.07.09-.17.19-.14.14-.16.09,0-.09,0-.17a1,1,0,0,1,.13-.26c.06-.11,0-.14,0-.14s-.07,0-.1.05l-.12.16c0,.08-.08.14-.08.08a.25.25,0,0,1,0-.14,1.06,1.06,0,0,0,0-.2c0-.07,0,0-.07,0a.26.26,0,0,0-.07.14,1.31,1.31,0,0,0-.09.26,1.87,1.87,0,0,1-.08.32.09.09,0,0,1-.14.05s0,0-.07-.09,0-.12-.05-.18-.07-.11-.13-.09,0,.1,0,.15A.66.66,0,0,1,92,38a.75.75,0,0,0,0,.24c.1.26-.06.33-.18.43a5.12,5.12,0,0,1-.5.32c-.1.06-.28.19-.35.22s-.33.14-.43.19l-.24.15s-.07-.07-.11-.07-.07,0-.08,0a.19.19,0,0,0-.11,0s-.08,0-.11,0-.06.06-.08.08a3.39,3.39,0,0,0-.24.47h0l-.19.1c-.11.06-.3.21-.42.27a.86.86,0,0,1-.37.1l-.4.08a.64.64,0,0,0-.32.15c-.09.06-.12.12-.16.13s-.15-.06-.2-.11a.17.17,0,0,1,0-.19s.1,0,.17-.11,0-.06.08-.13a.93.93,0,0,0,.07-.2,3.65,3.65,0,0,0,.07-.4,2.8,2.8,0,0,0,0-.36,1,1,0,0,0-.15-.31.8.8,0,0,0-.32-.24,1,1,0,0,0-.39,0,.63.63,0,0,0-.27.16,1.51,1.51,0,0,0-.22.28,3.72,3.72,0,0,0-.16.44.65.65,0,0,0,0,.39,2.28,2.28,0,0,1,.13.28.46.46,0,0,1-.08.3c-.05.06-.1,0-.14,0a1.23,1.23,0,0,0-.22-.29,1.29,1.29,0,0,0-.33-.25,1,1,0,0,1-.26-.41,4.92,4.92,0,0,0-.33-.62.75.75,0,0,1-.13-.37c0-.1,0-.45,0-.6s0-.55,0-.67A5.24,5.24,0,0,1,85,36.7c0-.16.17-.19.25-.24a1.86,1.86,0,0,0,.28-.21.23.23,0,0,1,.15-.07c.07,0,.18-.11.25-.15a.76.76,0,0,0,.15-.1s0-.07,0-.07a.11.11,0,0,0-.09,0l-.12.08s0,0,0,0a.51.51,0,0,1,.09-.13.13.13,0,0,0,0-.11.06.06,0,0,0-.09,0,1,1,0,0,0-.13.14c-.06.07-.06.08-.09.08s-.06,0,0-.1l.09-.16c0-.05-.08,0-.12,0a1.08,1.08,0,0,0-.13.15.4.4,0,0,1-.16.18c-.08,0-.06,0,0-.09s0,0,.07-.13,0-.11-.06-.09-.07.08-.13.15-.13.2-.19.22a1.78,1.78,0,0,0-.28.18.48.48,0,0,0-.16.28,1.22,1.22,0,0,1-.12.33c0,.08-.15.55-.18.67s-.08.63-.08.82a3.91,3.91,0,0,0,0,.69,4.4,4.4,0,0,1,.17.49c0,.16.14.44.19.61a4.16,4.16,0,0,0,.5.83,1.05,1.05,0,0,1,.18.63,3.23,3.23,0,0,0,.16,1c0,.11.2.84.22.92s.12.54.15.71.11.53.14.67a4.16,4.16,0,0,1,.07.58c0,.1,0,.44,0,.55s0,.63,0,.76h0l-.21-.07v0c0-.08-.06-.59-.06-.59s0-.33,0-.38,0-.24,0-.31a5.21,5.21,0,0,0-.17-.64.79.79,0,0,0-.25-.28,1.33,1.33,0,0,1-.3-.25,2,2,0,0,0-.58-.33c-.24-.1-.24,0-.19-.33s.13-.33.19-.33.14-.09.18-.14.12-.1,0-.21,0-.1,0-.17a1.52,1.52,0,0,0,.06-.32,1,1,0,0,0-.14-.45,2.23,2.23,0,0,0-.39-.42c-.19-.17-.27-.05-.39,0a2.39,2.39,0,0,0-.34.21.94.94,0,0,0-.26.44,2.1,2.1,0,0,1-.11.4.09.09,0,0,0,0,.09s0,.16,0,.25.06,0,.08.11a.91.91,0,0,1,0,.37c0,.17-.14.08-.23.11s-.08,0-.12,0a.37.37,0,0,0-.17-.13s-.11,0-.12-.06-.17-.12-.23-.13A.35.35,0,0,1,82,43a.85.85,0,0,0-.19-.06,2.43,2.43,0,0,1-.32-.18,1.72,1.72,0,0,1-.25-.28c-.07-.08-.31-.27-.32-.32a.4.4,0,0,0-.06-.13s0-.08-.09-.08-.07-.09-.08-.14-.07-.22-.12-.4-.14-.49-.19-.64a1.42,1.42,0,0,1,0-.35.6.6,0,0,1,.12-.24s0-.12,0-.13,0-.08,0-.14a1.81,1.81,0,0,1,0-.25s0-.14,0-.16.06-.06.1-.11a.25.25,0,0,0,.08-.12.67.67,0,0,0,.1-.19c0-.12,0-.1-.08-.07s0,.07-.07.11,0,.07-.08.09-.05,0-.09,0,0,0-.06-.06-.08-.05-.11-.05-.15.05-.17,0,0-.23,0-.31,0,0,0,0v0c0-.3-.07-.25-.1-.23a0,0,0,0,1,0,0,.28.28,0,0,0-.11-.08l1-6.77,0,0,.84-5.83a16.1,16.1,0,0,0-8.31-1.52,39.76,39.76,0,0,1-8.75-.16l-.44,6.22A57.21,57.21,0,0,1,74,29.6c4.79.06,6.29,1.43,6.69,1.95l-1,6.93h-.06c-.07,0-.14.07-.17.1a1.1,1.1,0,0,0-.12.16s-.1,0-.1.1a.17.17,0,0,1-.05.12s0,.12,0,.15,0,.12.06.19a1.63,1.63,0,0,0,.19.24s0,.07,0,.09a1.71,1.71,0,0,1,.08.23l-.32,2.32h.14a3.54,3.54,0,0,0-.14.39,1,1,0,0,1-.15.22s-.14.31-.18.37-.06,0-.09.12,0,.07-.09.12-.07.06-.09,0,0,.09-.08.1-.05.07-.08.1-.06,0-.08,0a.09.09,0,0,0-.1,0s0,.1-.08.09a.43.43,0,0,0-.19,0s-.09.12-.1.13-.09.05-.1,0,0-.09.08-.16.06-.12.09-.21a1.31,1.31,0,0,0,.06-.31,1.78,1.78,0,0,0,0-.4,2.82,2.82,0,0,0-.07-.47.91.91,0,0,0-.27-.31.92.92,0,0,0-.3-.07,1.64,1.64,0,0,0-.37,0,.94.94,0,0,0-.35.26,1.19,1.19,0,0,0-.19.67,1.17,1.17,0,0,0,.09.64,2.14,2.14,0,0,0,.16.28c0,.06,0,.11,0,.1s-.09,0-.07,0a.08.08,0,0,0,0-.09l-.06,0s-.06,0-.06-.05a.07.07,0,0,0-.09,0s-.1,0-.08,0,0-.07,0-.07-.06,0-.11,0-.09,0-.12-.07,0-.09,0-.1a.26.26,0,0,1-.1-.07s0-.11-.06-.15a1.94,1.94,0,0,1-.08-.21c0-.09-.26-.43-.29-.48s0-.12,0-.14-.09,0-.08-.06,0-.08,0-.16a1.37,1.37,0,0,0-.08-.35c0-.07,0-.26-.1-.4s0-.05,0-.08l.39-.22c.11-.06.47-.33.54-.38l.52-.44A4.4,4.4,0,0,1,77,40a1.06,1.06,0,0,1,.19-.06l.19-.06a.84.84,0,0,0,.23-.12,1.88,1.88,0,0,1,.24-.14l.2-.07a1.21,1.21,0,0,0,.25-.13c.11-.06.05-.11,0-.12s-.07,0-.07,0l-.1,0-.18.06c-.27.08-.13-.06-.1-.08l.21-.15.22-.18c.13-.11.09-.13.07-.16a.05.05,0,0,0-.09,0,.63.63,0,0,1-.12.1L78,39c-.33.26-.14,0-.1,0a1.74,1.74,0,0,0,.15-.13,1,1,0,0,1,.19-.16c.12-.1.11-.12.06-.16s-.11,0-.16.06a2.23,2.23,0,0,0-.25.18c-.3.29-.15.08-.13,0a.41.41,0,0,0,.09-.12l.17-.21c.1-.13.07-.13,0-.16s-.07,0-.12.05l-.12.14s-.16.15-.19.2a1.14,1.14,0,0,1-.22.22.5.5,0,0,1-.24,0s0-.1,0-.15a1.22,1.22,0,0,0,0-.25c-.06-.26-.13-.09-.14,0l-.06.18a.51.51,0,0,1-.09.16s0,.1-.08.15,0,.11,0,.24a.26.26,0,0,1-.13.22l-.29.18-.37.24c-.07,0-.37.21-.43.23s-.26.11-.33.13-.19.11-.27.14l-.12.08h0a2.09,2.09,0,0,1-.05-.46c0-.11,0-.12,0-.17a.81.81,0,0,1,0-.24,1.46,1.46,0,0,0,0-.35c0-.07,0-.24,0-.55s0-.29-.06-.3-.06.12-.08.2a2.06,2.06,0,0,1-.07.34c0,.14-.06.14-.09.12l-.11,0a.16.16,0,0,0-.15,0s0,.08,0,.08a.14.14,0,0,1-.08,0,1,1,0,0,1-.14-.22c-.08-.16-.11-.16-.14-.14s0,.07,0,.2.12.22.11.25,0,.07,0,.12a.28.28,0,0,1,.05.21,1.22,1.22,0,0,0,.06.38c.05.13,0,.14-.09.19s0,.16.1.24a1.74,1.74,0,0,1,0,.53V41l-.3.17-.31.2a.58.58,0,0,1-.19.06s-.09,0-.12,0-.09,0-.14,0-.12.06-.16.07l-.25.06a3.25,3.25,0,0,1-.35.11.15.15,0,0,0-.11,0s0,.1-.09.1l-.13,0H72s0,0-.08,0-.1,0-.11,0,0-.12,0-.16a1.21,1.21,0,0,1,0-.19.42.42,0,0,1,0-.14.08.08,0,0,0,.08,0,.15.15,0,0,0,0-.08.83.83,0,0,0,.08-.23.13.13,0,0,0-.06-.15s-.06,0,0-.07,0-.09,0-.14a1.21,1.21,0,0,0,0-.26,1.45,1.45,0,0,0-.09-.22,1.3,1.3,0,0,0-.15-.2l-.11-.11c-.05-.06-.05,0-.09-.08s0,0-.06,0-.08,0-.1,0-.05,0-.09,0,0,0-.08,0,0,0,0,0l-.06,0s0,0-.07,0a.42.42,0,0,0-.13.07,2,2,0,0,1-.16.14,1.4,1.4,0,0,0-.24.33,2.26,2.26,0,0,0,0,.42c0,.17,0,.19,0,.2s-.06.1-.06.14a.66.66,0,0,1,0,.15.23.23,0,0,0,.1.14s.08,0,.08,0a.61.61,0,0,0,0,.11,2.42,2.42,0,0,1,0,.24v.16s0,.07,0,.07H70.5s0,0-.07,0-.05,0-.08,0-.07,0-.08,0,0-.06,0-.08,0-.05,0-.05-.11,0-.15,0l-.06,0c0-.09,0-.18.06-.25a6.77,6.77,0,0,0,0-1,4,4,0,0,1,0-.74,1.59,1.59,0,0,0,.08-.33,2.46,2.46,0,0,0,0-.47c0-.11-.05-.19,0-.24a1.92,1.92,0,0,0,.16-.35c0-.1.06-.21,0-.23s-.08,0-.13.08a2.55,2.55,0,0,1-.1.24s0,.07-.07.07,0,0-.06,0,0,0,0,0a.41.41,0,0,0-.18,0c-.06,0-.13.07-.13,0a2.24,2.24,0,0,1-.11-.32c0-.14-.08-.34-.12-.33s-.07,0-.06.2,0,.46,0,.51a1.43,1.43,0,0,0,.09.44,1.48,1.48,0,0,1,.09.53c0,.08,0,.29,0,.37a2.76,2.76,0,0,0-.06.4,2.29,2.29,0,0,1-.13.48c0,.07-.12.34-.19.58h0a.53.53,0,0,1-.2-.09l-.17-.12a2.43,2.43,0,0,0-.29-.2,2.46,2.46,0,0,1-.27-.17,1.64,1.64,0,0,1-.25-.23,1.48,1.48,0,0,0-.29-.21,2.07,2.07,0,0,1-.32-.19s-.33-.18-.41-.22l-.27-.18-.32-.26L66,39.22c-.08-.07-.12-.09-.14-.16s0-.12,0-.22a.27.27,0,0,0-.11-.19.41.41,0,0,1-.09-.36c0-.12-.1,0-.13,0a.35.35,0,0,0,0,.2c.08.22,0,.15,0,.12l-.17-.14-.18-.19a2.38,2.38,0,0,0-.19-.2c-.14-.13-.14-.11-.21-.12s0,.11,0,.18.19.22.13.18l-.21-.11a.53.53,0,0,0-.19-.09c-.11,0,0,.15,0,.13h-.07a.1.1,0,0,0,0,.09s0,0,.08.08a1.27,1.27,0,0,0,.28.25c.2.16.13.19,0,.17s-.07,0-.2-.12c-.28-.1-.16.14-.09.2s.25.14.38.21l.21.15a2.42,2.42,0,0,0,.39.25,1.79,1.79,0,0,1,.32.17,4.68,4.68,0,0,0,.33.34c.13.1.48.49.63.63s.59.44.78.56a2,2,0,0,1,.43.27c.11.1.34.41.46.52s.38.33.46.42a1.69,1.69,0,0,0-.13.3c-.05.17-.11.31-.12.39s0,.06-.09.12a2.23,2.23,0,0,1-.18.2s-.09,0-.09.08-.08.12-.13.16-.12.1-.12.14a.27.27,0,0,1-.1.13s-.09.18-.11.17-.12,0-.12,0h-.11s-.06,0-.08-.07a2.63,2.63,0,0,1-.1-.3.62.62,0,0,0,0-.15,0,0,0,0,1,0,0,1.1,1.1,0,0,0,.41-.12.61.61,0,0,0,.24-.44.42.42,0,0,0-.12-.37,1.45,1.45,0,0,0-.37,0h-.27s0,0-.07-.06a1.43,1.43,0,0,0-.23-.27.78.78,0,0,0-.39-.15,1.44,1.44,0,0,0-.25,0,.89.89,0,0,0-.36.12.66.66,0,0,0-.3.32,1.28,1.28,0,0,0-.07.48c0,.2,0,.28.12.33s.15.08.17.16,0,0-.09,0-.1.09,0,.2l.16.18s.08.09.12.07.07,0,.11.08.16.24.21.32.09.17,0,.22a1.84,1.84,0,0,1-.19.2s-.15.1-.15.11-.12.13-.12.13-.08,0-.09.08-.13.11-.18.14-.24.19-.26.19-.1,0-.06,0,0,.13,0,.17a1.83,1.83,0,0,0-.06.19s0,.17-.07.34h-.64L64.34,46c0-.06,0-.13,0-.17s0-.27,0-.27.08-.46.08-.52.07-.23.09-.33a.59.59,0,0,1,.08-.19,1.71,1.71,0,0,0,.08-.29.35.35,0,0,1,0-.11.84.84,0,0,0,0-.27,1.5,1.5,0,0,1,0-.29c0-.09,0-.25,0-.31A2,2,0,0,1,64.9,43a.39.39,0,0,1,.13-.17s0-.12,0-.12,0,0,0-.11a1.74,1.74,0,0,1,.13-.32,4.06,4.06,0,0,0,.15-.84c0-.2.06-.6.08-.77s0-.18-.1-.25L64.9,40a4.72,4.72,0,0,0-.5-.5l-.41-.3a3.92,3.92,0,0,1-.29-.29.64.64,0,0,1-.12-.25,1.06,1.06,0,0,1-.07-.22s0-.11-.06-.15a.73.73,0,0,0-.05-.12.64.64,0,0,1,0-.2s0-.07,0-.09,0,0,0,0-.06.07-.06.11a1.83,1.83,0,0,1-.06.19l-.1.3a1.33,1.33,0,0,0-.1.28c0,.08-.1.24-.16.24s-.18.16-.29.23-.59.34-.81.51-.46.42-.58.54a.35.35,0,0,0-.1.33,6.58,6.58,0,0,1,0,.75,4.64,4.64,0,0,0,.18,1s0,.22.07.4a5.25,5.25,0,0,1,.18.65,1,1,0,0,1,0,.46,1.21,1.21,0,0,0,.1.6,1,1,0,0,1,.08.25c0,.06,0,.16,0,.32a2.54,2.54,0,0,0,0,.63,2.39,2.39,0,0,1,0,.36c0,.05.06.07.11.09v.28a.39.39,0,0,1-.25.35v-.37a.59.59,0,0,0-.1-.28c-.05,0-.05,0,0-.1s0-.1,0-.13a.11.11,0,0,1,0-.11,1.52,1.52,0,0,0,0-.38c0-.17,0-.59-.06-.73s0-.66,0-.8a3.71,3.71,0,0,0-.07-.5,1.42,1.42,0,0,1,0-.43,1,1,0,0,0,0-.32,1.56,1.56,0,0,1,0-.4.44.44,0,0,0-.14-.28c-.06-.09-.07-.12-.07-.16s-.07-.25-.08-.35a.68.68,0,0,0-.07-.26s0-.16,0-.16,0-.11.05-.08.07,0,.06-.07a1.77,1.77,0,0,1,.06-.28,4.56,4.56,0,0,0,.07-.48c0-.14,0-.54,0-.61s0-.17.05-.27a.47.47,0,0,1,.07-.2,1.83,1.83,0,0,0,.14-.48,3.35,3.35,0,0,0,.07-.37c0-.11.05-.26.1-.28s.08-.21.1-.28a.27.27,0,0,1,.11-.17.63.63,0,0,1,.2-.1c.07,0,.32-.18.43-.24a.83.83,0,0,1,.24-.12s.17-.19.19-.23.07-.09.11-.08.2-.15.25-.2.11-.08.15,0,.14-.15.14-.15a.16.16,0,0,0,.09-.05s.07-.08.1-.07.14-.07.15-.1.06,0,.12,0,0,0,0,0,0,0,0,0l.06,0,.1-.06s.09-.08.09-.11,0,0,.09-.06.36-.23.55-.35.65-.47.7-.5a.77.77,0,0,1,.28-.09,1.76,1.76,0,0,0,.55-.3.61.61,0,0,1,.2-.13c.08,0,.25-.21.22-.27s-.22.11-.32.15,0,0,.2-.29.18-.32.14-.35-.13.09-.23.23,0,0,.09-.19.18-.27.14-.31-.09,0-.21.14,0,0,0-.13,0-.17,0-.19-.1.08-.17.19-.17.29-.25.42-.13.12-.18.13a.07.07,0,0,1-.09-.06,1.72,1.72,0,0,0,0-.28c0-.14-.12-.19-.18-.16s0,.15,0,.2a1.6,1.6,0,0,1-.09.53c0,.16-.19.23-.36.3s-.68.32-1,.44-.37.09-.39,0-.15,0-.17.06-.05,0-.1,0-.09.16-.12.17a1,1,0,0,1-.18.07s-.14.12-.17.15-.16,0-.15,0-.14,0-.26.08a.36.36,0,0,0-.16.16.06.06,0,0,1-.06.06c-.07,0-.29.15-.33.15a.76.76,0,0,0-.21.06c-.06,0-.32.1-.34.13s0,.08-.1-.06-.46-.06-.58,0a1.55,1.55,0,0,1-.47,0,.09.09,0,0,1-.09-.1s.06,0,.1,0,.1-.07.22-.17a.49.49,0,0,0,.11-.35,1.58,1.58,0,0,0-.06-.32c0-.1-.06-.19-.08-.29a.85.85,0,0,0-.22-.41.87.87,0,0,0-.55-.29,1,1,0,0,0-.46.07,1.3,1.3,0,0,0-.29.28.33.33,0,0,1-.1.16,1.7,1.7,0,0,0-.27.48.52.52,0,0,0,.08.45c.05,0,.06.06.06.1s0,.12.06.11.07,0,.09,0,0,.11,0,.11a1.72,1.72,0,0,1-.32-.07c-.13,0-.17,0-.18-.13s-.51-.14-.57-.14-.14,0-.16-.05-.18-.11-.22-.11-.06-.09-.06-.24a.22.22,0,0,0-.24-.24c-.12,0-.08,0-.14,0s-.2-.19-.21-.17-.08-.06-.14-.12-.28-.31-.29-.34a.07.07,0,0,0-.06,0,.12.12,0,0,1-.1,0,.25.25,0,0,0-.1-.08s-.21-.16-.41-.29-.45-.3-.64-.44-.34-.27-.56-.45-.22-.25-.22-.33,0-.29-.06-.38,0-.12.07-.23-.08-.11-.14-.09a.37.37,0,0,0-.16.23c0,.09,0,.13-.09.1s-.15-.13-.22-.23-.22-.27-.31-.42-.16-.1-.18-.06.06.15.12.25.06.15,0,.13a.85.85,0,0,1-.24-.18c-.13-.13-.18-.09-.21,0s0,.1.2.26.18.2.14.19a2.22,2.22,0,0,1-.19-.13c-.06-.05-.09-.12-.16-.12s-.06.07,0,.13a2.36,2.36,0,0,0,.39.34c.13.09.07.12,0,.13a1.11,1.11,0,0,1-.26-.13c-.13-.07-.17,0-.17,0s.3.24.35.26a1.2,1.2,0,0,1,.21.19,2.63,2.63,0,0,0,.49.37,1.62,1.62,0,0,1,.31.27l.62.76c.13.14.55.54.63.6s.1.08.1.13a.06.06,0,0,0,0,.08s0,.09.06.1.06.17.07.23.07,0,.11,0,.07-.06.06,0,.13.1.11.14,0,.15.08.15.13.07.16.1.21.29.25.32.31.43.42.58a1.78,1.78,0,0,0,.47.38s0,.14,0,.27a3,3,0,0,0,.16.75,3,3,0,0,1,0,.5,3.38,3.38,0,0,0,0,.45c0,.11.13.48.14.53a.35.35,0,0,1,0,.26,2.15,2.15,0,0,0-.06.45s0,.37,0,.44a.62.62,0,0,1,0,.31c0,.17,0,.2,0,.2s0,.05,0,.09-.06.25-.06.28a2.5,2.5,0,0,1-.09.25s0,.13-.05.17-.09.13-.07.17a5.16,5.16,0,0,1-.21.63,2.36,2.36,0,0,0,0,.25s-.16.81-.18.94v0h0s-.1-.11-.13-.16a.7.7,0,0,0-.15-.13.73.73,0,0,0-.09-.1.11.11,0,0,1,0-.13s-.12-.22-.13-.29a.49.49,0,0,0-.11-.23.17.17,0,0,1-.08-.13c0-.06,0-.09,0-.1s0-.08,0-.13a.65.65,0,0,1,.09-.2.32.32,0,0,0,0-.23,3,3,0,0,1-.17-.28,1.74,1.74,0,0,0-.11-.18s-.18-.28-.22-.32a.33.33,0,0,1-.07-.21c0-.05-.06-.2-.05-.24a1.77,1.77,0,0,0-.06-.3c0-.06.08-.1.11-.08s0-.07,0-.1,0-.08.11-.2a.17.17,0,0,0,0-.21s0-.07.07-.27a1.62,1.62,0,0,0-.08-.8c-.24-.72-1-.27-1.28-.06a.57.57,0,0,0-.24.54c0,.07,0,.12,0,.12s-.1,0-.12.24.08.26.11.26,0,0,0,.07-.07.11-.16.1S54,39.9,54,39.8a.45.45,0,0,0-.24-.22c-.05,0-.05-.14,0-.26a.82.82,0,0,0-.09-.43.52.52,0,0,1,0-.3.82.82,0,0,0,0-.14,1,1,0,0,1,.11-.14c.05-.11.22-.62.25-.75s.38-1,.42-1.08,0-.12.07-.2,0-.21,0-.28a.57.57,0,0,0,0-.26c0-.06-.06,0-.06,0a.58.58,0,0,1,0-.09s-.1,0-.12,0-.09,0-.11,0-.07,0-.11,0a.17.17,0,0,0-.14,0c-.08,0-.07.08-.11.08s-.08.06-.09.13,0,.15.12.37.1.32,0,.43-.1.17-.18.3-.2.34-.32.52h0a.57.57,0,0,1,0-.24c0-.1-.08-.52-.11-.72a8.09,8.09,0,0,1-.08-1,.56.56,0,0,1,.17-.48.54.54,0,0,0,.16-.38.22.22,0,0,0-.1-.22.19.19,0,0,1-.13-.09c-.05-.07-.34,0-.4,0a.14.14,0,0,0-.09.05l-.13.06a1,1,0,0,0-.09.33,1.59,1.59,0,0,0,0,.38,1.57,1.57,0,0,1,0,.26c0,.11,0,.58-.06.84s0,.62-.06.73a1.6,1.6,0,0,0,0,.5.18.18,0,0,1,0,.19c-.05,0,0,.14,0,.19s0,.08,0,.19,0,.12.09.17,0,.17,0,.27a.45.45,0,0,0,0,.11l-.17.15c-.09.07-.3.32-.39.37s-.22.14-.27.14-.12.06-.19.06-.14.11-.19.11a1.11,1.11,0,0,0-.23,0,1.34,1.34,0,0,0-.26.09c-.06,0,0,.16-.1.17s-.11.05-.14,0,0-.12,0-.19,0-.15.07-.11.05,0,.08,0,0-.1.06-.15a.45.45,0,0,0,0-.22c0-.05-.07-.08-.07-.12a1.64,1.64,0,0,0,0-.18,1.27,1.27,0,0,0,0-.34.74.74,0,0,0-.18-.28,2.12,2.12,0,0,1-.2-.24,1.73,1.73,0,0,0-.2-.15.11.11,0,0,0-.16,0s-.08.06-.13.08-.14.1-.2.13a2.62,2.62,0,0,1-.21.17c-.06,0-.13.16-.17.38s0,.37-.08.39,0,.11,0,.2,0,.15.09.17.06,0,.08.09,0,.21,0,.19l-.09-.09s0-.1,0-.12a.4.4,0,0,0-.17,0,1.21,1.21,0,0,1-.19,0s-.06-.08-.1-.08-.11-.07-.19-.14a3.2,3.2,0,0,1-.27-.22c0-.06-.25-.34-.36-.45a2.31,2.31,0,0,1-.39-.61,4.59,4.59,0,0,0-.22-.69,5.29,5.29,0,0,1-.19-.9c-.14-.53-.05-.54,0-.6a.46.46,0,0,1,.15-.23.94.94,0,0,0,.13-.24c0-.07,0-.19,0-.24a.34.34,0,0,0-.19-.11.44.44,0,0,1-.14,0c-.06,0-.13,0-.19,0s-.13.07-.17.07-.09.05-.11.09a1.63,1.63,0,0,0-.06.37c0,.15,0,.73,0,.86s0,1,0,1.27a3.17,3.17,0,0,0,.32,1c.06.08.34.61.41.77a6.25,6.25,0,0,0,.54.74s0,0,0,.14.1.21.2.37a1.91,1.91,0,0,1,.2.62c0,.1.07.66.1.84s.11.69.13,1a2.89,2.89,0,0,1,0,.73c0,.12,0,.6,0,.63a2.19,2.19,0,0,0,0,.27,1,1,0,0,1,0,.28c0,.06-.13.21-.21.32a2.92,2.92,0,0,0-.2.46,1.39,1.39,0,0,0-.1.37.69.69,0,0,1,0,.41h-.31a.37.37,0,0,1-.16.38.38.38,0,0,1-.53-.1,1.74,1.74,0,0,1-.14-.27h0v-.06c0-.29,0-1.05.08-1.21s.09-.46.11-.5.07-.07.07-.14a1.11,1.11,0,0,1,0-.28,3,3,0,0,0,.4-.64c.08-.22.26-.65.31-.81a2.71,2.71,0,0,1,.18-.44.34.34,0,0,0,0-.19,5,5,0,0,0,0-.69,3.16,3.16,0,0,0-.19-.7.89.89,0,0,1-.1-.31c0-.08-.12-.48-.15-.59a1.14,1.14,0,0,0-.22-.38l-.22-.2s-.08-.1-.1-.1-.07-.07-.07-.07a.25.25,0,0,0-.14,0,.84.84,0,0,1-.24.06s-.24.05-.27.11,0,.13-.07.13-.34.06-.41.18a1.38,1.38,0,0,0-.18.46,1.25,1.25,0,0,0,0,.47,1.11,1.11,0,0,1,.08.3.8.8,0,0,0,.12.53c.14.2.18.19.2.21a.4.4,0,0,0,.22.1.75.75,0,0,0,.42,0c.06,0,.14-.16.18-.17a1.31,1.31,0,0,0,.25-.06s0,.1,0,.21,0,.34,0,.39,0,.11,0,.22-.23.25-.28.33a2.13,2.13,0,0,0-.23.45.34.34,0,0,1-.07.17l-.19.15a2.35,2.35,0,0,0-.25.19c-.05,0-.14.09-.16.09s0,.05,0,.05-.11.06-.1.1-.07.06-.07.06-.06.06,0,.09-.09,0-.13,0-.14,0-.15-.12,0-.35,0-.42,0-.12,0-.13.08-.08.08-.17,0-.3,0-.31-.06,0-.06-.15a.93.93,0,0,0-.31-.7c-.25-.15-.75-.4-1,.07s-.24.57-.24.69a.85.85,0,0,0,.08.31s0,.07,0,.08-.07,0,0,.24.19.26.21.23.07.08.13.16a1.11,1.11,0,0,1,.15.34.18.18,0,0,1-.11.16.5.5,0,0,0-.13,0,2.65,2.65,0,0,1-.24-.33,4.19,4.19,0,0,0-.51-.62A.74.74,0,0,1,43,43a1.32,1.32,0,0,0-.13-.27l-.32-.35a2.16,2.16,0,0,0-.23-.22.52.52,0,0,1-.25-.13c-.12-.11,0-.31-.06-.37s0-.14,0-.21.07-.47.08-.56,0-.2,0-.21,0-.1,0-.15a.7.7,0,0,0,0-.28s0-.18,0-.29a2.1,2.1,0,0,1,.15-.45s.15-.42.18-.56.06-.51.1-.63l.17-.5c0-.08.19-.16.21-.2s.11-.06.16-.06.06,0,.07-.09a.15.15,0,0,1,.08-.15c.08-.06.52-.33.66-.45s.55-.53.78-.69.23-.2.29-.32.15-.26.29-.54a12.59,12.59,0,0,0,.53-1.21,2.58,2.58,0,0,1,.29-.72,1.1,1.1,0,0,0,.19-.42.71.71,0,0,1,.17-.3c.08-.08.12,0,.22-.21s-.07-.17-.08-.16a2,2,0,0,0-.15.15.22.22,0,0,1-.18.07s0-.09,0-.2a2.22,2.22,0,0,0,.13-.41c.05-.22-.12-.11-.13-.07s-.07.13-.15.32-.12.12-.15.1,0-.14,0-.23,0-.26,0-.41-.13-.11-.15-.08a2.24,2.24,0,0,0-.05.27c0,.14-.06.25-.08.19s0-.12-.06-.34-.13-.11-.15-.07a2.54,2.54,0,0,0,0,.42c0,.25,0,.45,0,.52s-.13.06-.17,0a.22.22,0,0,0-.14-.08.3.3,0,0,0-.26,0c-.06.06.06.1.13.13s.14.17.16.21l.21.3c.09.15-.08.38-.2.6a5.17,5.17,0,0,1-.52.86c-.14.18-.57.78-.64.87a5.54,5.54,0,0,1-.69.49,1.53,1.53,0,0,1-.69.34,2.62,2.62,0,0,0-.38.09c-.11,0-.18.07-.2,0s-.11-.08-.17-.08-.14.12-.15.19-.19.16-.24.11-.1,0-.16,0,0-.11,0-.25a.74.74,0,0,1,.11-.25s.08.07.12,0a1.35,1.35,0,0,1,.09-.28c.07-.16,0-.24,0-.24s0,0,0-.11,0-.15.05-.26a1.31,1.31,0,0,0-.18-.55,2.21,2.21,0,0,0-.4-.41.29.29,0,0,0-.36,0,4,4,0,0,0-.41.23.83.83,0,0,0-.33.46c-.06.18,0,.52-.08.52s-.09.07-.1.1a1.29,1.29,0,0,1,0,.24c0,.08,0,.21.08.18s.07,0,.08,0a2.57,2.57,0,0,1,.08.43c0,.14,0,.12,0,0s-.08-.11,0-.17-.12,0-.17,0-.13,0-.21-.05-.28-.16-.4-.24a.37.37,0,0,0-.21-.09.77.77,0,0,1-.25-.24c-.06-.1-.38-.5-.47-.61a1.07,1.07,0,0,1-.23-.41,2.45,2.45,0,0,0-.12-.42,12.87,12.87,0,0,1-.34-1.43c-.09-.52-.07-.56,0-.68a.7.7,0,0,1,.25-.32c.07-.05.25-.27.33-.32s-.06-.09-.12-.09-.15.09-.24.15,0-.06,0-.13a5.39,5.39,0,0,0,.27-.49c.14-.27.07-.32,0-.32s-.12.12-.22.29-.11.15-.11.11,0-.15,0-.35-.06-.16-.08-.15a.34.34,0,0,0-.08.2,2.18,2.18,0,0,1-.09.37c0,.13-.08.09-.08.09s0-.2,0-.28a2.27,2.27,0,0,1,0-.24c-.08-.07-.11,0-.14,0a2.09,2.09,0,0,0-.07.42c0,.15,0,.16-.07.18s-.06,0-.12-.12-.06-.23-.11-.25-.07.06-.06.12a.73.73,0,0,0,.09.32c.05,0,0,.13-.06.27a1.65,1.65,0,0,0,0,.54.43.43,0,0,1,0,.22c0,.07,0,.53,0,.88a5.4,5.4,0,0,0,.1,1.13,2.82,2.82,0,0,1,.1.58c0,.08.12.21.19.35s.3.61.43.88.59.76.58.79,0,.14,0,.15.12,0,.25.24,0,.37.09.74a1.49,1.49,0,0,1,0,.61,6.15,6.15,0,0,0,.06.9,2.21,2.21,0,0,1,.08.57c0,.11,0,.38-.06.48,0-.12,0-.24-.06-.3l-.13-.71c0-.21-.11-.54-.15-.73s-.08-.51-.12-.61a.64.64,0,0,1,0-.21,1.05,1.05,0,0,1,0-.13.3.3,0,0,0,0-.19c0-.05-.09-.07-.09-.11s0,0,0-.08-.1,0-.11-.07,0-.06-.1-.06-.1.06-.1,0-.13,0-.17,0a.37.37,0,0,0-.08.15s0,.06,0,.06-.06,0,0-.17,0-.16,0-.16-.12.1-.17.15a.12.12,0,0,0,0,.12s-.16,0-.49,0-1.86,0-2.23,0-2.28-.07-2.59-.07-.94-.05-1.15-.07a8.21,8.21,0,0,0-.83,0c-.13,0-.35,0-.42,0s-.1-.09-.11-.17a.06.06,0,0,0-.11,0,.19.19,0,0,0,0,.18s0,.06,0,.07,0,0-.06,0,0-.1-.06-.13-.13-.06-.16,0,0,.09-.08.05-.08,0-.13,0,0,.1-.07.08a.12.12,0,0,0-.13,0s0,.1-.08.11-.06.15-.06.2,0,.13,0,.17a1.77,1.77,0,0,0-.17.5c0,.18-.1.65-.12.87s-.05.55-.07.69-.05.62-.08.79,0,.08,0,.13l-.17.15a1.14,1.14,0,0,0-.24.15,2.43,2.43,0,0,0-.18.24v0s.09-.7.12-.8a2.68,2.68,0,0,0,0-.56.39.39,0,0,0,0-.13s-.06-.11-.09-.12-.1-.08-.16-.06a.2.2,0,0,1-.14,0s-.17,0-.18,0,0,0-.05,0-.08,0-.09,0,0,.05-.06,0a.13.13,0,0,0-.11.15.69.69,0,0,0,.14.43c.11.13.2.15.19.27a1.89,1.89,0,0,1-.06.53,3.34,3.34,0,0,1-.24.61,4.77,4.77,0,0,0-.24.55c0,.12-.18.39-.18.44s0,.11-.11.11l-.17,0-.05,0c-.05-.08-.09-.1-.13-.1s-.06,0-.09-.13-.15-.14-.21-.2-.28-.22-.32-.26a2.21,2.21,0,0,1-.19-.26c0-.09-.2-.18-.25-.26s-.28-.39-.3-.43a2.9,2.9,0,0,0-.21-.34,3.79,3.79,0,0,1-.18-.34c0-.06-.1-.1-.13-.2s0-.18.08-.26a1.51,1.51,0,0,0-.05-.52,1.32,1.32,0,0,1,0-.29.44.44,0,0,0-.08-.28c-.06,0-.15,0-.17.14a2.57,2.57,0,0,0,0,.4c0,.09-.12,0-.17-.1a.93.93,0,0,1-.15-.26c0-.08-.16-.3-.22-.44s-.13-.13-.16-.1,0,.08,0,.13.09.21.13.37,0,.16,0,.06-.1-.16-.18-.29-.14-.09-.17,0,0,.12.1.29.07.18,0,.1S23,39.12,23,39.1s-.07.07-.06.12l.12.25c0,.08,0,.1,0,.1s0,.08,0,.16a1.23,1.23,0,0,0,.22.24.44.44,0,0,1,.14.22c0,.08.16.22.19.32s0,.19,0,.2-.06.06-.07.19a.52.52,0,0,0,.17.33,3.67,3.67,0,0,1,.22.52,1,1,0,0,0-.37-.27.45.45,0,0,0-.34,0c-.09,0-.17,0-.2,0a1.15,1.15,0,0,1-.22.19,1.7,1.7,0,0,0-.25.31.38.38,0,0,0-.06.22.41.41,0,0,1,0,.22c0,.06-.25.25-.32.34s-.24.27-.09.38.32.18.37.23a1.51,1.51,0,0,0,.28.15c.06,0,.09,0,.09.06s0,.18,0,.18a.42.42,0,0,0-.18.07.08.08,0,0,1-.11,0,.47.47,0,0,0-.19-.07s-.06-.09-.12-.08-.14,0-.15,0-.06-.06-.08,0a1.06,1.06,0,0,1-.29,0,.18.18,0,0,0-.12,0s-.15-.07-.17,0-.15,0-.15,0a1,1,0,0,0-.2-.08h0c0-.11.1-.4.13-.53s.06-.71.06-.76a.22.22,0,0,1,.06-.19.93.93,0,0,0,.16-.36s.06-.12.18-.26.11-.2.08-.22a.1.1,0,0,0-.1,0l-.22.21c-.06.06,0,0,.09-.23s.05-.22,0-.24-.07,0-.1.11a2.28,2.28,0,0,1-.19.3s0-.14.08-.24.07-.18,0-.19-.09,0-.13.08a2.08,2.08,0,0,0-.13.3c0,.1,0-.13,0-.28s-.09-.08-.11,0a2.28,2.28,0,0,0-.06.35c0,.1-.08.17-.13.25s-.05,0-.11-.07a.23.23,0,0,0-.23-.1c-.05,0-.07.09,0,.13a.41.41,0,0,1,.16.23.77.77,0,0,0,.18.21c.09.08-.09.42-.17.6a3.25,3.25,0,0,0-.18.53.41.41,0,0,1,0,.1l-.21-.05c-.05,0-.14,0-.15-.11s-.21-.49-.28-.67a7.52,7.52,0,0,1-.35-.87,2.92,2.92,0,0,1-.06-.64c0-.06.09-.07.16-.19a1.82,1.82,0,0,0,.13-.4c0-.06,0-.16,0-.19a1.16,1.16,0,0,1-.15-.07.09.09,0,0,0-.11,0A1.38,1.38,0,0,1,19,40h-.08s-.13,0-.16,0-.13.13-.12.19a2.35,2.35,0,0,1,0,.27,1.33,1.33,0,0,0,0,.31s0,.12,0,.17a2.06,2.06,0,0,1,.05.38c0,.16,0,.37,0,.49s0,.15,0,.26a1.67,1.67,0,0,0-.38,0,.66.66,0,0,0-.52.27,2,2,0,0,0-.12.68c0,.21,0,.12-.17.34s.18.46.24.51S18,44,18,44s0,.16,0,.22-.11.05-.14.05-.09-.09-.09-.09l-.11,0a1.35,1.35,0,0,1-.25-.18.65.65,0,0,1-.15-.2,1.65,1.65,0,0,0-.13-.29c-.23-.23-.24-.36-.24-.44a1.89,1.89,0,0,0-.25-.52,1.68,1.68,0,0,1-.17-.42c0-.11,0-.13,0-.18a.71.71,0,0,0,.1-.3,1.62,1.62,0,0,1,.08-.27c0-.08,0-.1-.08-.09s-.14.17-.16.27-.17,0-.21,0-.06-.22-.1-.4-.06-.2-.11-.2,0,.06,0,.1,0,.27,0,.34-.05-.06-.1-.23-.09-.17-.14-.16,0,.07,0,.09a1.14,1.14,0,0,1,.07.27c0,.16,0,.16,0,.09a.9.9,0,0,1-.13-.26c0-.09-.06-.1-.11-.1s0,.09,0,.15a1.14,1.14,0,0,0,.15.34c.06.05,0,.11-.07.09l-.21-.12c-.08,0-.13-.11-.16-.08s0,.06,0,.11a1.09,1.09,0,0,0,.22.18.39.39,0,0,1,.15.1,1.89,1.89,0,0,0,.25.3c.06,0,.07.05.07.13s0,.32,0,.45a6.21,6.21,0,0,0,.29.83.55.55,0,0,1,.05.26,6,6,0,0,0,.17.8c0,.12.31,1,.36,1.19,0,0,0,.11,0,.18a1.65,1.65,0,0,1,.17.5l0,.22a.14.14,0,0,1,0,.11c0,.15,0,.31,0,.47v.05a1.14,1.14,0,0,1,0,.32.29.29,0,0,1,0,.09.54.54,0,0,1-.08.19.42.42,0,0,1-.49.17,2.06,2.06,0,0,1-1.44-1.5l-.71-.93-1.17,3-.76-.94a.2.2,0,0,1-.21,0h0a.11.11,0,0,1-.11,0,1.64,1.64,0,0,1-.37-.26.35.35,0,0,1,0-.08.49.49,0,0,1-.22-.23,1.18,1.18,0,0,1,0-.45h0v-.07h0v0s0-.06,0-.07a1.09,1.09,0,0,1,0-.35s.06-.4.07-.45a1.27,1.27,0,0,1,.12-.47c.08-.16.12-.26.18-.3s.06-.08.06-.21a.81.81,0,0,1,.07-.39,7.57,7.57,0,0,0,.36-.81,4.07,4.07,0,0,1,.13-.53c0-.13.16-.34.17-.39s.17-.51.22-.62.16-.62.2-.81.1-.54.12-.63a1.58,1.58,0,0,1,.15-.4,2.12,2.12,0,0,0,.25-.46.74.74,0,0,0-.09-.18s0-.14,0-.15-.09-.09-.12-.09L13,39.17s0,0,0-.1a1.72,1.72,0,0,1,.08-.44c.05-.15.05-.18,0-.21s-.09,0-.15.16-.13.29-.16.4-.1.35-.12.5,0,.49,0,.56-.15.39-.18.53a2.65,2.65,0,0,1-.17.5,3.8,3.8,0,0,0-.33.67,3.65,3.65,0,0,0-.15.51.7.7,0,0,1-.07.23,3.68,3.68,0,0,0-.37.48,3.27,3.27,0,0,0-.22.49c0,.06,0,0-.08.1a.93.93,0,0,1-.22.19,1.35,1.35,0,0,1-.22.14s-.05,0-.07.07l-.09.11-.1,0-.09,0s-.11,0-.11-.07,0-.2,0-.26.07-.19.07-.23,0-.06,0,0,.08,0,.09-.1a1.68,1.68,0,0,0,0-.29s-.08,0-.08-.09,0-.12,0-.16a.9.9,0,0,0,.19-.51.52.52,0,0,0-.2-.37.51.51,0,0,0-.3,0h0c0-.08,0-.16-.05-.23s-.12-.61-.16-.83-.09-.55-.13-.87S9.44,39,9.39,38.71s-.07-.48-.12-.67,0-.17,0-.24a.54.54,0,0,0,0-.28.27.27,0,0,0-.14-.19s-.08,0-.09-.06a.23.23,0,0,0-.14-.08s0,0-.06,0-.09,0-.12,0-.06,0-.11,0-.15,0-.17.07a.16.16,0,0,0,0,.15c0,.06,0,.08,0,.08a.12.12,0,0,1-.08,0s0-.16,0-.24a.07.07,0,0,0-.12,0s-.05.16-.07.19a.65.65,0,0,0,0,.11.06.06,0,0,1-.06.06l-.55.07c-.23,0-1,.12-1.31.17s-1,.14-1.38.2S4,38,3.7,38.07s-.82.11-1.11.17l-1,.16c-.26.06-.61.09-.75.11s-.15,0-.16-.06-.1-.09-.19-.16-.12,0-.12,0,.07.13.1.18,0,.07,0,.08,0,0,0,0a.22.22,0,0,0-.06-.13h0v3.26a1.28,1.28,0,0,1,.28-.4c.16-.15.15-.59.13-.69s0,0,.11.15a4.21,4.21,0,0,0,.47.72c.15.14.09.09,0,.2s.05.1.09.12a.23.23,0,0,1,.11.15c0,.09.09.13.15.13s.16.15.25.25.25.41.37.48.21.34.24.4l-.05,0a.89.89,0,0,0-.45,0,.84.84,0,0,0-.29.27,2.17,2.17,0,0,0-.19.41,1.79,1.79,0,0,0,0,.33.83.83,0,0,0,0,.35c.05.12.14.24.16.32a.21.21,0,0,1-.14.2l-.07,0s0-.07,0-.1-.18-.24-.39-.38a3.4,3.4,0,0,1-.44-.31c-.05,0-.08,0-.09-.09s0-.07-.11-.16L.35,43.9V70.7H241V41.92ZM3.48,45l-.29,0S3.1,45,3,45s-.1-.1.09-.44a1.28,1.28,0,0,0,0-.65,1.56,1.56,0,0,0-.2-.43,3,3,0,0,0,.27.35.55.55,0,0,1,.24.27c0,.09.06.39.08.53s0,.28.06.36ZM7,41.52a.25.25,0,0,1-.09.17c-.07.06-.3.34-.4.41a.1.1,0,0,1-.15,0,.39.39,0,0,0-.23,0c-.11,0-.24.13-.32.15s0-.13,0-.15,0-.1.06-.09.12-.09.17-.27,0-.26,0-.27-.06,0,0-.1a1,1,0,0,0,0-.46c-.06-.27-.26-.37-.51-.48a1.06,1.06,0,0,0-.67,0,1,1,0,0,0-.35.3.3.3,0,0,1-.23.08.44.44,0,0,0-.34,0c-.12.08,0,.33,0,.48s.36.37.41.4.1,0,.1.06a.71.71,0,0,1,0,.22c0,.08,0,.14.07.14s0,0,0,0l.07.16s0,.08,0,.1a.56.56,0,0,1-.28,0,1,1,0,0,0-.28,0l-.2,0a.25.25,0,0,1-.18-.1s-.14-.06-.14-.11S3.32,42,3.27,42s-.12-.17-.16-.22-.2-.17-.26-.16-.11-.11-.11-.14-.14,0-.15-.09-.21-.19-.26-.23a3.15,3.15,0,0,1-.26-.26,6.41,6.41,0,0,0-.64-.63c-.17-.14,0-.11.1-.14A6.51,6.51,0,0,0,2.24,40c.24-.07.77-.17,1.09-.22l1.29-.28A13.06,13.06,0,0,1,6,39.39c.3,0,1.36-.08,1.42-.09l.36-.11a.64.64,0,0,1,.39.06c.13.07-.1.27-.19.42a3.61,3.61,0,0,0-.24.53.47.47,0,0,1-.16.2s0,.11,0,.14-.16.28-.17.3l-.21.25s0,.15-.09.18S7,41.49,7,41.52Zm2,2.74s-.07.1-.13.14a.46.46,0,0,1-.18.07l-.59.31a.83.83,0,0,0-.44.35,3.18,3.18,0,0,0-.22.66c0,.15-.06.37-.06.43a1.26,1.26,0,0,1,0-.21c0-.1-.08-.62-.08-.62l-.14-.69a1,1,0,0,1,.06-.38c0-.12.05-.31.05-.33s-.05-.23-.05-.26a.25.25,0,0,1,0-.14c0-.05,0-.07.07-.11s.08-.23.11-.29a1.9,1.9,0,0,0,.21-.35,2,2,0,0,1,.19-.44.77.77,0,0,0,.16-.35s0-.14,0-.19A.11.11,0,0,1,8,41.77s0-.08,0-.08a.53.53,0,0,1,0-.13l.06-.12a.82.82,0,0,1,0-.11L8.35,41a.74.74,0,0,1,.15-.19c.05,0,0-.12,0-.19a.66.66,0,0,1,0-.14,2,2,0,0,1,.11-.32c0-.05.12.09.24.21s.07.1.07.29a4.58,4.58,0,0,1-.13.74,1.6,1.6,0,0,0,.16.74s0,0-.07.06-.24.23-.23.44a1.27,1.27,0,0,0,0,.37c0,.05,0,.07,0,.09s-.11.09,0,.26.12.21.17.2.08,0,.1.07l.06.42C9,44.16,9,44.25,9,44.26Zm10.39.07c-.11.08-.13-.06-.15-.1a.83.83,0,0,1,.05-.28.29.29,0,0,1,.16-.17s0,0,0,0l.21.15a1.13,1.13,0,0,1,.18.12A5,5,0,0,0,19.38,44.33ZM21.59,47a.5.5,0,0,1-.64.42,1.08,1.08,0,0,1-.78-.64h0c0-.05,0-.1,0-.12a1.76,1.76,0,0,1,.05-.33c0-.13.18-.64.18-.64a1.62,1.62,0,0,0,.1-.28c0-.07.06-.07.09-.1s0-.06,0-.14,0-.12.05-.19a3.78,3.78,0,0,1,.08-.39.16.16,0,0,1,.07.07c0,.06.05.28.11.28a.28.28,0,0,1,.21.1,2.06,2.06,0,0,0,.15.16.46.46,0,0,1,.14.28,2.15,2.15,0,0,0,.13.47.39.39,0,0,1,0,.18s0,.23,0,.34a2.81,2.81,0,0,0,.05.44v0Zm3.24-3.53a2.28,2.28,0,0,0-.47.12.08.08,0,0,1-.07.06.73.73,0,0,0-.16.11.15.15,0,0,1-.2,0s-.12-.12-.05-.34a1.43,1.43,0,0,0,.1-.29s0,0,0,0A.1.1,0,0,0,24.1,43a1.64,1.64,0,0,1,0-.22s0-.13,0-.15,0-.11,0-.14a1.39,1.39,0,0,0,0-.37,1.27,1.27,0,0,0,.2.32c.08,0,.13.31.19.41s.31.26.32.32.11.14.24.27Zm2.87-.59-.08.08a.37.37,0,0,0,0,.14s-.1,0-.16,0-.08,0-.12,0l0,0s0,0,0-.07a4.48,4.48,0,0,0,.2-.6v0c0,.13.07.13.1.13s0,0,0,0a.55.55,0,0,0,.05.18Q27.75,42.88,27.7,42.91Zm3.27.31c0,.05-.06.05-.14,0a1,1,0,0,0-.31.06.2.2,0,0,1-.19,0c-.07,0-.11,0-.25-.07a.4.4,0,0,0-.38.15s-.16,0-.22-.06-.22-.08-.3-.12-.13-.07-.15-.11v-.06a3.55,3.55,0,0,1,0-.36h.07s.11-.15.16-.27a.26.26,0,0,0,0-.22s0-.05.06-.13a2.36,2.36,0,0,0,.4-.49.66.66,0,0,0-.07-.65,1.58,1.58,0,0,0-.47-.39.72.72,0,0,0-.21,0,.38.38,0,0,0,0-.12c0-.15,0-.19.07-.25a.28.28,0,0,0,.09-.29c0-.11.15-.18.28-.25s.1.07.19.36a5.7,5.7,0,0,0,.51,1,1.48,1.48,0,0,1,.24.45c.07.18.43.94.61,1.25s.13.23.15.32a1.76,1.76,0,0,0,0,.19Zm4.21-1.49a.29.29,0,0,0-.11.11s-.11.09-.16.09-.1.07-.11.1a1.36,1.36,0,0,1-.33.22s-.06.08-.12.08-.12,0-.11.07-.12.06-.12.06l-.14,0a.94.94,0,0,1,0-.37c0-.08,0-.29.08-.28s.11-.07.13-.12a2.07,2.07,0,0,0,.09-.27c0-.13-.06-.19-.08-.17s0-.08,0-.23a1.2,1.2,0,0,0,0-.31h0c.1-.08,0-.15,0-.15l-.06,0a.84.84,0,0,0,0-.12l.06-.09c.07-.09.11-.15.08-.19s0-.06-.11,0-.05,0,0-.08S34.05,40,34,40a.89.89,0,0,0-.19.17l0,0a1,1,0,0,0-.62-.18.89.89,0,0,0-.65.48,1.26,1.26,0,0,0,0,.67c0,.06,0,.12,0,.12s-.07,0,0,.24a.38.38,0,0,0,.1.24l-.06.1s-.06.11-.1.13a.61.61,0,0,0-.14.14s0,0,0,0-.15-.07-.15-.11-.14,0-.2-.1l-.17-.14c0-.06-.17-.33-.25-.48a2.28,2.28,0,0,0-.42-.51.71.71,0,0,1-.19-.34,3.08,3.08,0,0,0-.27-.48c-.08-.15-.06-.15,0-.15h4.72c.25,0,1.1,0,1.2,0s0,0-.08.18-.29.52-.39.63l-.35.41s-.28.45-.3.5A1.13,1.13,0,0,1,35.18,41.73Zm2.61,1.7c-.08.19-.54,1-.66,1.23s-.35.88-.43,1a.3.3,0,0,0-.08.25,3.13,3.13,0,0,1,0,.53.28.28,0,0,0,0,.09.6.6,0,0,1-.75.25.64.64,0,0,1-.37-.46h0c0-.21,0-.52,0-.81-.05-.45-.08-.82-.09-.9a.88.88,0,0,1,0-.27,4,4,0,0,0,0-.48.78.78,0,0,1,.07-.25,1.4,1.4,0,0,0,.16-.29s0-.09.13-.12.07-.22.07-.28a.31.31,0,0,1,.09-.18s.31-.59.39-.75.33-.62.37-.7a2.92,2.92,0,0,1,.35-.48,6.94,6.94,0,0,0,.44-.67s.09-.13.09,0,.19.29.27.37.07.19.07.31a.55.55,0,0,0,.1.38,1.93,1.93,0,0,1,.4.77,2,2,0,0,0,.11.28c-.09,0-.18.23-.23.38a2.28,2.28,0,0,1-.24.53S37.87,43.25,37.79,43.43Zm5.4,2.82v.13s0,.06,0,.09a.7.7,0,0,1-.06.19h0a.24.24,0,0,1-.08.09h0a3.45,3.45,0,0,1-4.44.59l-.08-.05a.57.57,0,0,1-.32-.31.55.55,0,0,1-.09-.28s0-.05,0-.09a.57.57,0,0,1,.11-.33s0-.07,0-.07.11-.1.18-.18a4.17,4.17,0,0,0,.39-.51,6.29,6.29,0,0,1,.5-.59,6.7,6.7,0,0,1,.83-.63.65.65,0,0,1,.44-.07c0,.17,0,.28.18.32a4.14,4.14,0,0,0,.53.3,4.43,4.43,0,0,0,.7.31,2,2,0,0,1,.4.12l.05,0c0,.06.08.2.11.2s.15,0,.19.06a.56.56,0,0,0,.16.14.36.36,0,0,1,.2.24,1.59,1.59,0,0,1,.08.22ZM52.54,41a8.19,8.19,0,0,0,0,.95,1.66,1.66,0,0,1-.15.41c0,.08-.06.26-.1.37s-.17.52-.2.62a4,4,0,0,1-.13.42c0,.1,0,.11,0,.16a.25.25,0,0,1,0,.17.09.09,0,0,0,0,.13c.06,0,.06.08,0,.16s0,.08.07.07.19,0,.23,0-.06.34-.08.43-.06.17-.09.32-.1.44-.1.5a4,4,0,0,1-.13.43,4.3,4.3,0,0,0-.17-.55,3,3,0,0,0-.28-.48c-.07-.09-.1-.35-.14-.4a.59.59,0,0,1-.1-.29,3,3,0,0,0-.09-.41,2.62,2.62,0,0,1,0-.38c0-.09,0-.3,0-.39s.06-.2.08-.3.1-.76.1-.85a1.11,1.11,0,0,1,.09-.36,4,4,0,0,0,.19-.69.88.88,0,0,1,.14-.34,2.15,2.15,0,0,0,.18-.3.58.58,0,0,1,.13-.15s0-.19.09-.23a1.12,1.12,0,0,0,.2-.18l.16-.17a1,1,0,0,1,.06.33.56.56,0,0,0,.05.27s0,.07,0,.14a.57.57,0,0,0,0,.26C52.6,40.82,52.59,40.85,52.54,41Zm4.32,4.86c-.08.07,0,.26,0,.31a.35.35,0,0,1-.06.22s0,0,0,.07a.71.71,0,0,1-.37.48c-.34.17-.69-.11-.85-.39a.48.48,0,0,1-.06-.28h0a1.41,1.41,0,0,0-.09-.38c-.07-.12-.08-.12,0-.15s0-.14-.06-.23,0-.28-.07-.35,0-.06,0-.11a1.21,1.21,0,0,0,0-.34.88.88,0,0,1,.1-.37.49.49,0,0,0,0-.26s0-.3,0-.3v-.1s0,0,.06,0,.11.06.12.16.34.27.38.28a.38.38,0,0,1,.16.06,3.1,3.1,0,0,0,.39.23c.07,0,.11,0,0,.06s0,.1,0,.11a.35.35,0,0,1,.19,0,.37.37,0,0,0,.19,0s0,0,0,0a.28.28,0,0,1,0,.09,3.91,3.91,0,0,0,0,1S56.94,45.82,56.86,45.89Zm3.14.52a.17.17,0,0,0,0,.24l-.14.2a.51.51,0,0,1,0,.4.36.36,0,0,0,0,.09l0,0c0,.14-.09.29-.14.42a.8.8,0,0,1-.81.62c-.34,0-.54-.4-.63-.68a2.14,2.14,0,0,1-.15-.7v0l0,0v0a.87.87,0,0,0,0-.47.1.1,0,0,1,.05-.14s0-.11,0-.14.06-.15.12-.22a2,2,0,0,0,.12-.44h0c.09.07.09.13.18.24s.15-.06.18,0,.2,0,.22,0,.1,0,.1-.07a.1.1,0,0,1,.08,0c.05,0,.06-.12.06-.18a.17.17,0,0,0-.07-.15s-.06-.07,0-.08,0-.1,0-.13a1.07,1.07,0,0,0-.24-.17.56.56,0,0,0-.35-.09h0c0-.08,0-.15,0-.19s.15-.33.18-.41a2.41,2.41,0,0,0,.17-.43.4.4,0,0,1,.14-.24c.09-.08.22,0,.26.06s.1.35.13.43.12.2.12.27a1.19,1.19,0,0,0,.18.48.69.69,0,0,1,.09.43.16.16,0,0,0,0,.16c.06.06.05.32.05.43s.07.16.13.27S60.08,46.36,60,46.41Zm4.22-4.51s0,.08-.07.11l-.07.09s-.07.06-.07.09-.05.09-.09.08,0-.08-.08-.06-.11.06-.08,0,0-.14.05-.14.07,0,.07-.08.06-.2.07-.24.06-.19,0-.21,0,0,0-.19a.86.86,0,0,0-.24-.69,1,1,0,0,0-.94-.15,1.24,1.24,0,0,0-.31.34,1.59,1.59,0,0,0,0,.4c0,.16,0,.21,0,.21s-.08.08,0,.14a.8.8,0,0,1,0,.27c0,.06,0,.12.06.12s.06,0,.07,0a.43.43,0,0,0,0,.17s0,.06-.06.06-.16,0-.16,0,0-.1-.07-.11-.07-.1-.1-.12,0-.09,0-.13,0-.19-.06-.3a4.22,4.22,0,0,0-.19-.6c-.09-.25-.13-.21,0-.35l.16-.2.43-.48c.12-.13.39-.42.46-.47a1.13,1.13,0,0,1,.17-.12s.13,0,.16,0,0-.06.07,0,.09,0,.13,0,.27.3.34.4.37.47.46.6.24.37.29.44.12.05,0,.26a3.27,3.27,0,0,0-.27.74C64.25,41.73,64.23,41.87,64.22,41.9Zm5.19,4.18a1.23,1.23,0,0,0,0,.22h-.16v0c0-.26-.08-.82-.07-1s.07-.39.07-.5.1-.24.1-.31a1.43,1.43,0,0,1,0-.36s.06-.15.1-.27a.19.19,0,0,0,0,.08,4.61,4.61,0,0,1,0,.54,4.72,4.72,0,0,0,0,.64,5.49,5.49,0,0,1,0,.58C69.45,45.82,69.42,46.05,69.41,46.08ZM74.76,44c-.08,0-.18,0-.26,0a1.47,1.47,0,0,0-.54.16.25.25,0,0,0-.1.27,2,2,0,0,1-.07.48.72.72,0,0,0,0,.36,1.08,1.08,0,0,1-.05.47c0,.12-.15.18-.2.23s-.12-.12-.19-.24-.11-.07-.19-.1,0-.11,0-.14,0-.38-.05-.44,0-.49,0-.49a2.88,2.88,0,0,0,0-.32c0-.06,0-.37,0-.46a2,2,0,0,1,0-.29c0-.06.06-.32.09-.43a.32.32,0,0,1,.12-.18l.12-.14c.13,0,.15,0,.18-.09s0-.09.06-.16.07-.1.12-.14l.22-.16c.06-.05.15-.14.21-.18l.15-.13c0,.18.07.36.08.43a3,3,0,0,0,.18.63,1.59,1.59,0,0,1,.16.54,6.68,6.68,0,0,0,.31.67l.06.1A1.76,1.76,0,0,0,74.76,44Zm.91,2.28s0-.09,0-.11-.09,0-.12,0a2.38,2.38,0,0,0-.31-.27s.06-.15.08-.2.11-.19.15-.29a2,2,0,0,0,.06-.4c0,.13.06.28.08.35a3.11,3.11,0,0,1,.11.49c0,.09.07.31.08.45v0Zm3.87-5.5c0,.14,0,.28.07.43s-.06.11-.07.14,0,.12,0,.15-.14.48-.19.63Zm1.94,5.44a.33.33,0,0,1-.17,0c-.08,0-.18-.1-.26-.12s-.16-.11-.15-.19a3.13,3.13,0,0,1,.13-.33.83.83,0,0,0,0-.35A1.75,1.75,0,0,0,81,45a1.9,1.9,0,0,0-.23-.39.84.84,0,0,0-.3-.25,1,1,0,0,0-.46,0,1,1,0,0,0-.33.3,2.52,2.52,0,0,0-.15.44,1.27,1.27,0,0,0,0,.66c.22.32.2.4.13.43s-.11.06-.17.05h-.28c-.11,0-.15,0-.27-.05h0v-.08a4.54,4.54,0,0,0,0-.49c0-.06.08-.28.1-.36a2.06,2.06,0,0,1,.1-.57c0-.07.33-.55.37-.62s.21-.5.24-.55a1.9,1.9,0,0,0,.12-.36A1,1,0,0,1,80,42.9a.62.62,0,0,0,.07-.2c.13.18.34.44.7.93.61.66.61.95.64,1.17s.09.69.09.85S81.48,46.12,81.48,46.24Zm3.25.06.06,0Zm5.07.54c0-.21-.09-.53-.09-.56a.32.32,0,0,0,0-.18,3.62,3.62,0,0,0-.26-.37c-.06-.08-.16-.18-.2-.24s-.17-.2-.23-.29S88.8,45,88.77,45a1.74,1.74,0,0,0-.13-.31.93.93,0,0,1-.13-.27l-.15-.49s-.14-.45-.16-.5a2.17,2.17,0,0,1,0-.34c0-.15.06-.4.08-.51s.13-.31.23-.63c0,0,0-.06,0-.1l0,.13a.35.35,0,0,0,.07.29c0,.06.37.59.47.73s.57.57.58.61a1,1,0,0,0,.17.28,1,1,0,0,1,.2.5c0,.07,0,.48.06.59s0,.06,0,.08a1.35,1.35,0,0,0,0,.34,1.67,1.67,0,0,0,0,.19A3.58,3.58,0,0,1,89.8,46.84ZM94.25,44c0,.1,0,.25,0,.31a1.43,1.43,0,0,0,0,.26,2.35,2.35,0,0,0-.07.23,1.29,1.29,0,0,0,0,.24,1.21,1.21,0,0,1-.13.35,1.2,1.2,0,0,0-.06.49,2,2,0,0,1,0,.46h0a1.11,1.11,0,0,1-.27.85c-.18.19-.59.17-.65-.13a.41.41,0,0,1,0-.16h0c0-.06.08-.5.08-.61a1.62,1.62,0,0,0-.07-.38c-.1-.35,0-.41,0-.45s.17-.52.19-.6a2.07,2.07,0,0,1,.09-.32l.13-.15s.07-.15.11-.18.06-.11.09-.12l.39-.21a2.92,2.92,0,0,0,.34-.29l.07-.07A3.19,3.19,0,0,1,94.25,44Zm2.85.51,0-.07a.75.75,0,0,1,0-.12s0-.43,0-.49a6,6,0,0,1,.06-.85c.07-.39.08-.34.11-.3a1,1,0,0,0,.12.19c.09.09.2.32.33.48a3.52,3.52,0,0,1,.24.46,2.33,2.33,0,0,0,.24.32.43.43,0,0,1-.22.1c-.06,0-.29.11-.44.15ZM99,46.3a.19.19,0,0,1,0,.2c-.35.24-1,.25-1.18-.2,0,0,0,0,0,0a.14.14,0,0,1,0-.09.06.06,0,0,1,0,0c-.07-.22,0-.28,0-.49s0-.12-.08-.19a5,5,0,0,0,.65-.12c.45-.11.4.11.46.22a2.38,2.38,0,0,1,.21.62.36.36,0,0,0,0,.14Zm4.08-.25a1,1,0,0,0,0,.17.17.17,0,0,1,0,.15l0,0a2,2,0,0,1-.12.34.16.16,0,0,1-.27,0,.12.12,0,0,1-.12-.08.64.64,0,0,1-.47-.3.43.43,0,0,1,0-.11v0a.66.66,0,0,1,.06-.31v0a.18.18,0,0,1,0-.11.88.88,0,0,0,.05-.15.16.16,0,0,1,0-.08c0-.1.14-.22.16-.2s.15,0,.21.06a1,1,0,0,0,.31.1.2.2,0,0,1,.13,0l.06,0v0a.2.2,0,0,1,0,.11A1.93,1.93,0,0,1,103.06,46.05Zm3,.25s0,0,0,0,0,0,0,0Zm3.45-6.25-.08,0-.07-.05h0l0,0a.15.15,0,0,0,0-.1.36.36,0,0,0,0-.11,1,1,0,0,0,0,.14C109.53,40,109.52,40,109.49,40.05Zm2.94,6.53a1.85,1.85,0,0,0-.07.41s0,.15,0,.28a.35.35,0,0,1-.2.12.36.36,0,0,1-.37-.2.34.34,0,0,1-.09-.12,3.06,3.06,0,0,1,0-.35,4.9,4.9,0,0,0-.09-.66v0s0,0,0-.06l0-.09s.11-.3.13-.34a.71.71,0,0,0,.08-.2c.06-.27.1-.05.14,0s.12.27.16.36l.22.46a1.38,1.38,0,0,1,.09.24A1.06,1.06,0,0,1,112.43,46.58Zm1.65-3.07c0,.12-.14.18-.19.23s-.13-.11-.19-.24a.37.37,0,0,0-.19-.09s0,0,0,0a.58.58,0,0,0,0-.19.54.54,0,0,0-.09-.24.31.31,0,0,1,0-.19,1.16,1.16,0,0,0-.06-.34,1.5,1.5,0,0,1-.06-.29c0-.09,0-.16,0-.2a.75.75,0,0,0,0-.26c0-.13,0-.31,0-.28l.06.19c0,.09.08.3.09.38a1.2,1.2,0,0,0,.06.33c0,.08.14.31.17.39s.22.47.26.54a2.64,2.64,0,0,1,.14.24S114.09,43.5,114.08,43.51Zm.24-1.58a2.75,2.75,0,0,1-.09-.29c0-.06-.07-.34-.1-.48a1,1,0,0,1,0-.17s0,0,0,0h.14c.1,0,0-.12,0-.22s-.07-.22-.08-.29a.83.83,0,0,0-.07-.3.26.26,0,0,1,0-.15,1.35,1.35,0,0,0-.05-.29.88.88,0,0,0-.1-.24.21.21,0,0,1,0-.13c0-.06,0,0,.08.27a3.91,3.91,0,0,0,.18.72c0,.09.23.52.25.62s.1.53.11.64,0,.11,0,.2A2.65,2.65,0,0,0,114.32,41.93Zm2.37,0s.06.09,0,.13a.27.27,0,0,0,0,.2s0,0,0,.15a1.87,1.87,0,0,1-.11.44s-.11,0-.1,0a.43.43,0,0,0-.17-.25c-.07,0,0-.15-.11-.15s-.19-.24-.25-.31a3.8,3.8,0,0,1-.29-.34,2.6,2.6,0,0,1-.18-.54,1.94,1.94,0,0,0-.27-.54,4.84,4.84,0,0,1-.09-.49c0-.11-.18-.31-.19-.43a.61.61,0,0,0-.16-.32c-.07-.06.07-.09.24-.09a5.63,5.63,0,0,1,.61.06.05.05,0,0,1,0,0A2,2,0,0,0,116,40a1.14,1.14,0,0,1,.23.47c.07.22.25.68.32.82l.18.3a.56.56,0,0,0,0,.08A.22.22,0,0,0,116.69,41.92Zm1.71,4.36h-.1l0-.22s.05-.25.06-.35a.89.89,0,0,1,.09-.29v0a1.41,1.41,0,0,1,0,.29c0,.06,0,.31,0,.58Zm1.13-4.7a1.27,1.27,0,0,0-.27.53,1.67,1.67,0,0,1-.18.35.76.76,0,0,0,0,.56v0a.17.17,0,0,1-.11,0,1,1,0,0,1-.18,0,.12.12,0,0,0-.1.05l0,0a.36.36,0,0,0-.09-.09,2.26,2.26,0,0,1-.15-.18l-.09-.2,0,0c.14-.08.06-.17,0-.24a.14.14,0,0,1,0-.14.47.47,0,0,0,0-.24c0-.06,0-.08,0-.14a1.5,1.5,0,0,0,0-.57.75.75,0,0,0-.53-.49.86.86,0,0,0-.7.06,0,0,0,0,0,0,0,1.54,1.54,0,0,1-.13-.14,1.91,1.91,0,0,1-.24-.42,1.26,1.26,0,0,0-.18-.3c0-.08,0-.14-.1-.2s0-.11,0-.19l.51.14c.38.11,1.17.37,1.38.44l.28.11s0,0,0,.08a1.55,1.55,0,0,0,.32.66c.07,0,.17.24.23.33l.15.19Zm1.1,2h0s0-.14,0-.23,0,0,0-.07h0a1.39,1.39,0,0,1,0,.17Zm4.07-2.46c0,.09,0,.32,0,.55h-.06s0,0-.07,0h-.07s-.06-.06-.09-.06-.06.05-.1,0-.33-.06-.38-.06-.11.12-.13.12h-.06a1.68,1.68,0,0,0,0-.34c0-.06,0,0,0-.12s0-.17,0-.17,0,0,0-.09,0-.11-.06-.11,0,0,0,0c.09-.23.18-.5.23-.63a.51.51,0,0,1,.16-.25.75.75,0,0,0,.09-.09,3.92,3.92,0,0,0,.39.52c.26.26.28.37.29.45S124.71,41.07,124.7,41.15Zm.64,2.65c-.06,0,0-.25,0-.3s0-.16.08-.13h0c0,.21,0,.42,0,.53A.61.61,0,0,0,125.34,43.8Zm3.1-2.39.05-.11c0,.21,0,.41,0,.48s.11.37.13.51c0,0-.14-.06-.14-.11s-.07-.16-.12-.16,0,0-.08-.09C128.38,41.7,128.43,41.47,128.44,41.41Zm-.53-1.5a.73.73,0,0,0-.2.1c-.06,0-.16.08-.19.11s0,.13-.07.1-.07,0-.1,0-.07,0-.08-.07a.12.12,0,0,1,.15-.13s0,0,0,0,.35-.09.57-.13C128,39.86,127.93,39.91,127.91,39.91Zm.71,5.07-.29,0a.27.27,0,0,1-.16,0,1.28,1.28,0,0,1,0-.22,1,1,0,0,1,.09-.22,1.28,1.28,0,0,0,0-.65,1.86,1.86,0,0,1-.1-.25v0a.92.92,0,0,0,.17.21.55.55,0,0,1,.24.27c0,.09.06.39.08.53s0,.28.06.36Zm1-2.65a1.71,1.71,0,0,0-.21-.38.43.43,0,0,1-.12-.24c.06,0,.1,0,.1.06a.71.71,0,0,1,.05.22c0,.08,0,.14.07.14s.05,0,.05,0l.07.16S129.62,42.32,129.62,42.33Zm3.06-1.79s-.16.28-.17.3l-.21.25s0,.15-.09.18-.11.22-.11.25a.25.25,0,0,1-.09.17l-.22.23a1.17,1.17,0,0,0-.34-.37.34.34,0,0,0-.33-.09l-.05,0s0,0,0-.1a1,1,0,0,0,0-.46c-.06-.27-.26-.37-.51-.48a1.06,1.06,0,0,0-.67,0,1,1,0,0,0-.35.3.3.3,0,0,1-.23.08s0,0-.06,0-.07-.27-.1-.38a.13.13,0,0,0,0-.06c.11-.12.46-.51.75-.87.38-.07,1-.06,1.26-.09s1.36-.08,1.42-.09l.36-.11a.64.64,0,0,1,.39.06c.12.07-.1.27-.19.42a3.61,3.61,0,0,0-.24.53.47.47,0,0,1-.16.2S132.63,40.51,132.68,40.54Zm1.45,3.72s-.07.1-.13.14a.46.46,0,0,1-.18.07s-.5.27-.6.31a.85.85,0,0,0-.43.35,1.31,1.31,0,0,0-.08.21V42.89s0,0,0,0a2,2,0,0,1,.19-.44.77.77,0,0,0,.16-.35s0-.14,0-.19a.11.11,0,0,1,.06-.09s0-.08,0-.08a.53.53,0,0,1,0-.13l.06-.12a.82.82,0,0,1,0-.11l.16-.29a.74.74,0,0,1,.15-.19c.05,0,0-.12,0-.19a.66.66,0,0,1,0-.14,2,2,0,0,1,.11-.32c0-.05.12.09.24.21s.07.1.07.29a4.58,4.58,0,0,1-.13.74,1.72,1.72,0,0,0,.15.74s0,0-.06.06-.24.23-.23.44a1.27,1.27,0,0,0,.05.37c0,.05,0,.07,0,.09s-.11.09,0,.26.12.21.17.2.08,0,.1.07l.06.42C134.16,44.16,134.15,44.25,134.13,44.26Zm10.39.07c-.11.08-.13-.06-.15-.1a.83.83,0,0,1,0-.28.29.29,0,0,1,.16-.17s0,0,0,0l.21.15L145,44A5,5,0,0,0,144.52,44.33Zm2.21,2.7a.5.5,0,0,1-.64.42,1.08,1.08,0,0,1-.78-.64h0c0-.05,0-.1,0-.12a1.76,1.76,0,0,1,.05-.33c0-.13.18-.64.18-.64a1.62,1.62,0,0,0,.1-.28c0-.07.06-.07.09-.1s0-.06,0-.14,0-.12.05-.19a3,3,0,0,1,.07-.39s.07,0,.08.07,0,.28.11.28a.28.28,0,0,1,.21.1,2.06,2.06,0,0,0,.15.16.51.51,0,0,1,.14.28,2.15,2.15,0,0,0,.13.47.39.39,0,0,1,0,.18s0,.23,0,.34,0,.36,0,.44,0,0,0,0ZM150,43.5a2.28,2.28,0,0,0-.47.12.08.08,0,0,1-.07.06.73.73,0,0,0-.16.11.15.15,0,0,1-.2,0s-.12-.12,0-.34a1.43,1.43,0,0,0,.1-.29s0,0,0,0a.1.1,0,0,0,.08-.11,1.64,1.64,0,0,1,0-.22s0-.13,0-.15,0-.11,0-.14a1.39,1.39,0,0,0,0-.37,1.27,1.27,0,0,0,.2.32c.08,0,.13.31.19.41s.31.26.32.32.11.14.24.27Zm2.87-.59-.08.08a.37.37,0,0,0,0,.14s-.1,0-.16,0-.08,0-.12,0l0,0s0,0,0-.07a4.48,4.48,0,0,0,.2-.6v0c0,.13.07.13.1.13s0,0,0,0a.55.55,0,0,0,.05.18Q152.87,42.88,152.84,42.91Zm3.27.31c0,.05-.06.05-.14,0a1,1,0,0,0-.31.06.2.2,0,0,1-.19,0c-.07,0-.11,0-.25-.07a.4.4,0,0,0-.38.15s-.17,0-.22-.06-.22-.08-.3-.12-.13-.07-.15-.11v-.06a3.55,3.55,0,0,1,0-.36h.07s.11-.15.16-.27a.26.26,0,0,0,0-.22s0-.05.06-.13a2.36,2.36,0,0,0,.4-.49.66.66,0,0,0-.07-.65,1.58,1.58,0,0,0-.47-.39.72.72,0,0,0-.21,0c0-.05,0-.1,0-.12s0-.19.07-.25a.28.28,0,0,0,.09-.29c0-.11.15-.18.28-.25s.1.07.19.36a5.7,5.7,0,0,0,.51,1,1.48,1.48,0,0,1,.24.45c.07.18.43.94.61,1.25s.13.23.15.32a1.76,1.76,0,0,0,0,.19Zm4.21-1.49a.29.29,0,0,0-.11.11s-.11.09-.16.09-.1.07-.11.1a1.36,1.36,0,0,1-.33.22s-.06.08-.12.08-.12,0-.11.07-.12.06-.12.06l-.14,0a.94.94,0,0,1,0-.37c0-.08,0-.29.08-.28s.11-.07.13-.12a2.07,2.07,0,0,0,.09-.27c0-.13-.06-.19-.08-.17s0-.08,0-.23a1.2,1.2,0,0,0,0-.31h0c.1-.08,0-.15,0-.15l-.06,0a.84.84,0,0,0,0-.12l.06-.09c.07-.09.11-.15.08-.19s0-.06-.11,0,0,0,0-.08-.05-.1-.07-.1a.89.89,0,0,0-.19.17l0,0a1,1,0,0,0-.62-.18.89.89,0,0,0-.65.48,1.26,1.26,0,0,0,0,.67c0,.06,0,.12,0,.12s-.07,0,0,.24a.38.38,0,0,0,.1.24l-.06.1s-.06.11-.1.13a.61.61,0,0,0-.14.14s0,0,0,0-.15-.07-.15-.11-.14,0-.2-.1l-.17-.14c0-.06-.17-.33-.25-.48a2.28,2.28,0,0,0-.42-.51.63.63,0,0,1-.19-.34,3.08,3.08,0,0,0-.27-.48c-.08-.15-.06-.15,0-.15h4.72c.25,0,1.1,0,1.2,0s.05,0-.08.18-.29.52-.39.63l-.35.41s-.28.45-.3.5A1.13,1.13,0,0,1,160.32,41.73Zm2.61,1.7c-.08.19-.54,1-.66,1.23s-.35.88-.43,1a.3.3,0,0,0-.08.25,3.13,3.13,0,0,1,0,.53.28.28,0,0,0,0,.09.6.6,0,0,1-.75.25.64.64,0,0,1-.37-.46h0c0-.21,0-.52,0-.81-.05-.45-.08-.82-.09-.9a.88.88,0,0,1,0-.27,4,4,0,0,0,0-.48.78.78,0,0,1,.07-.25,1.4,1.4,0,0,0,.16-.29s0-.09.13-.12.07-.22.07-.28a.31.31,0,0,1,.09-.18s.31-.59.39-.75.33-.62.37-.7a2.92,2.92,0,0,1,.35-.48,6.94,6.94,0,0,0,.44-.67s.09-.13.09,0a.93.93,0,0,0,.27.37c.08.08.07.19.07.31a.55.55,0,0,0,.1.38,1.93,1.93,0,0,1,.4.77,2,2,0,0,0,.11.28c-.09,0-.18.23-.23.38a2.28,2.28,0,0,1-.24.53S163,43.25,162.93,43.43Zm5.4,2.82v.13a.32.32,0,0,1,0,.09.45.45,0,0,1-.05.19h0a.24.24,0,0,1-.08.09h0a3.45,3.45,0,0,1-4.44.59l-.08-.05a.57.57,0,0,1-.32-.31.55.55,0,0,1-.09-.28s0-.05,0-.09a.57.57,0,0,1,.11-.33s0-.07,0-.07.11-.1.18-.18a4.17,4.17,0,0,0,.39-.51,6.29,6.29,0,0,1,.5-.59,6,6,0,0,1,.83-.63.64.64,0,0,1,.44-.07c0,.17,0,.28.18.32a4.87,4.87,0,0,0,.52.3,5.09,5.09,0,0,0,.71.31,2,2,0,0,1,.4.12l.05,0c0,.06.08.2.11.2s.15,0,.19.06a.56.56,0,0,0,.16.14.36.36,0,0,1,.2.24l.08.22ZM177.68,41a8.19,8.19,0,0,0-.05.95,1.66,1.66,0,0,1-.15.41c0,.08-.06.26-.1.37s-.17.52-.2.62a4,4,0,0,1-.13.42c0,.1,0,.11,0,.16a.25.25,0,0,1,0,.17.09.09,0,0,0,0,.13c.06,0,.06.08.05.16s0,.08.07.07.19,0,.23,0-.06.34-.08.43-.06.17-.09.32-.1.44-.1.5a4,4,0,0,1-.13.43,4.3,4.3,0,0,0-.17-.55,3,3,0,0,0-.28-.48c-.07-.09-.1-.35-.14-.4a.59.59,0,0,1-.1-.29,3,3,0,0,0-.09-.41,2.62,2.62,0,0,1,0-.38c0-.09,0-.3,0-.39s.06-.2.08-.3.1-.76.1-.85a1.11,1.11,0,0,1,.09-.36,5.14,5.14,0,0,0,.19-.69.88.88,0,0,1,.14-.34,2.15,2.15,0,0,0,.18-.3.58.58,0,0,1,.13-.15s0-.19.09-.23a1.62,1.62,0,0,0,.2-.18l.16-.17a1,1,0,0,1,.06.33.56.56,0,0,0,0,.27s0,.07,0,.14a.57.57,0,0,0,0,.26C177.74,40.82,177.73,40.85,177.68,41ZM182,45.89c-.08.07-.05.26,0,.31a.35.35,0,0,1-.06.22s0,0,0,.07a.71.71,0,0,1-.37.48c-.34.17-.69-.11-.85-.39a.48.48,0,0,1-.06-.28h0a1.41,1.41,0,0,0-.09-.38c-.07-.12-.08-.12,0-.15s0-.14-.06-.23-.05-.28-.07-.35,0-.06,0-.11a1.21,1.21,0,0,0,0-.34.88.88,0,0,1,.1-.37.49.49,0,0,0,0-.26s0-.3,0-.3v-.1s0,0,.06,0,.11.06.12.16.34.27.38.28a.38.38,0,0,1,.16.06,3.1,3.1,0,0,0,.39.23c.07,0,.11,0,0,.06s0,.1,0,.11a.35.35,0,0,1,.19,0,.37.37,0,0,0,.19,0s0,0,0,0a.28.28,0,0,1,0,.09,3.91,3.91,0,0,0,0,1S182.08,45.82,182,45.89Zm3.14.52a.17.17,0,0,0,0,.24l-.14.2a.51.51,0,0,1,0,.4.36.36,0,0,0,0,.09l0,0c0,.14-.09.29-.14.42a.8.8,0,0,1-.81.62c-.34,0-.54-.4-.63-.68a2.14,2.14,0,0,1-.15-.7v0l0,0v0a.87.87,0,0,0,0-.47.1.1,0,0,1,0-.14s0-.11,0-.14.06-.15.12-.22a2,2,0,0,0,.12-.44h0c.09.07.09.13.18.24s.15-.06.18,0,.2,0,.22,0,.1,0,.1-.07a.1.1,0,0,1,.08,0c.05,0,.06-.12.06-.18a.17.17,0,0,0-.07-.15c-.05,0-.06-.07,0-.08s0-.1,0-.13a1.07,1.07,0,0,0-.24-.17.56.56,0,0,0-.35-.09h0c0-.08,0-.15,0-.19s.15-.33.18-.41a2.41,2.41,0,0,0,.17-.43.4.4,0,0,1,.14-.24c.09-.08.22,0,.26.06s.1.35.13.43.12.2.12.27a1.19,1.19,0,0,0,.18.48.69.69,0,0,1,.09.43.16.16,0,0,0,.05.16c.06.06,0,.32,0,.43s.07.16.13.27S185.22,46.36,185.14,46.41Zm4.22-4.51s0,.08-.07.11l-.08.09s-.06.06-.06.09-.05.09-.09.08,0-.08-.08-.06-.11.06-.08,0,0-.14,0-.14S189,42,189,42s.06-.2.07-.24.06-.19,0-.21,0,0,0-.19a.86.86,0,0,0-.24-.69,1,1,0,0,0-.94-.15,1.24,1.24,0,0,0-.31.34,1.59,1.59,0,0,0,0,.4c0,.16,0,.21,0,.21s-.08.08,0,.14a.8.8,0,0,1,0,.27c0,.06,0,.12.06.12s.06,0,.06,0a.69.69,0,0,0,0,.17s0,.06-.06.06-.16,0-.16,0,0-.1-.07-.11-.07-.1-.1-.12,0-.09,0-.13a2.21,2.21,0,0,1-.06-.3,4.22,4.22,0,0,0-.19-.6c-.09-.25-.13-.21,0-.35l.16-.2.43-.48c.12-.13.39-.42.46-.47a1.13,1.13,0,0,1,.17-.12s.13,0,.16,0,0-.06.07,0,.09,0,.13,0,.27.3.34.4.37.47.46.6l.29.44c.05.07.12.05,0,.26a3.27,3.27,0,0,0-.27.74C189.39,41.73,189.37,41.87,189.36,41.9Zm5.19,4.18a1.23,1.23,0,0,0,0,.22h-.16v0c0-.26-.08-.82-.07-1s.07-.39.07-.5.1-.24.1-.31a1.43,1.43,0,0,1,0-.36s.06-.15.1-.27V44a3.18,3.18,0,0,1,0,.54,3.51,3.51,0,0,0,0,.64c0,.11,0,.46,0,.58S194.56,46.05,194.55,46.08ZM199.9,44c-.08,0-.18,0-.26,0a1.47,1.47,0,0,0-.54.16.25.25,0,0,0-.1.27,2,2,0,0,1-.07.48.72.72,0,0,0,0,.36,1.08,1.08,0,0,1-.05.47c0,.12-.15.18-.2.23s-.12-.12-.19-.24-.11-.07-.19-.1,0-.11,0-.14,0-.38,0-.44,0-.49,0-.49a2.88,2.88,0,0,0,0-.32c0-.06,0-.37,0-.46a2,2,0,0,1,0-.29c0-.06.06-.32.09-.43a.32.32,0,0,1,.12-.18l.12-.14c.13,0,.15,0,.18-.09s0-.09.06-.16.07-.1.12-.14l.22-.16c.06-.05.15-.14.21-.18l.15-.13c0,.18.07.36.08.43a3,3,0,0,0,.18.63,1.59,1.59,0,0,1,.16.54,6.68,6.68,0,0,0,.31.67l.06.1A1.76,1.76,0,0,0,199.9,44Zm.91,2.28s0-.09,0-.11-.09,0-.12,0a2.38,2.38,0,0,0-.31-.27s.06-.15.08-.2.1-.19.15-.29a2,2,0,0,0,.06-.4c0,.13.06.28.08.35a3.11,3.11,0,0,1,.11.49c0,.09.07.31.08.45v0Zm3.87-5.5c0,.14,0,.28.07.43s-.06.11-.07.14,0,.12,0,.15-.14.48-.19.63Zm1.94,5.44a.33.33,0,0,1-.17,0c-.08,0-.18-.1-.26-.12S206,46.05,206,46a3.13,3.13,0,0,1,.13-.33.83.83,0,0,0,0-.35,1.75,1.75,0,0,0,0-.33,1.9,1.9,0,0,0-.23-.39.84.84,0,0,0-.3-.25,1,1,0,0,0-.46,0,1,1,0,0,0-.33.3,2.52,2.52,0,0,0-.15.44,1.27,1.27,0,0,0,0,.66c.22.32.2.4.13.43s-.11.06-.17.05h-.29c-.1,0-.14,0-.26-.05h-.05v-.08a4.54,4.54,0,0,0,0-.49c0-.06.08-.28.1-.36a2.06,2.06,0,0,1,.1-.57c0-.07.33-.55.37-.62s.21-.5.24-.55a3,3,0,0,0,.12-.36,1,1,0,0,1,.13-.22.62.62,0,0,0,.07-.2c.13.18.34.44.7.93.61.66.61.95.64,1.17s.09.69.09.85S206.62,46.12,206.62,46.24Zm3.25.06.06,0Zm5.07.54c0-.21-.09-.53-.09-.56a.32.32,0,0,0,0-.18,3.62,3.62,0,0,0-.26-.37c-.06-.08-.16-.18-.2-.24s-.17-.2-.23-.29-.19-.16-.22-.21a1.74,1.74,0,0,0-.13-.31.93.93,0,0,1-.13-.27l-.15-.49s-.14-.45-.16-.5a2.17,2.17,0,0,1,0-.34c0-.15.06-.4.08-.51s.13-.31.23-.63c0,0,0-.06.05-.1l-.05.13a.35.35,0,0,0,.07.29c0,.06.36.59.47.73s.57.57.58.61a1,1,0,0,0,.17.28,1.13,1.13,0,0,1,.2.5c0,.07,0,.48.06.59s0,.06,0,.08a2.31,2.31,0,0,0,0,.34,1.83,1.83,0,0,1,0,.19A3.58,3.58,0,0,1,214.94,46.84ZM219.39,44c0,.1,0,.25,0,.31a1.43,1.43,0,0,0,0,.26,2.35,2.35,0,0,0-.07.23,1.29,1.29,0,0,0,0,.24,1.21,1.21,0,0,1-.13.35,1.2,1.2,0,0,0-.06.49,2,2,0,0,1,0,.46h0a1.15,1.15,0,0,1-.27.85c-.18.19-.59.17-.65-.13a.41.41,0,0,1,0-.16h0c0-.06.08-.5.08-.61a1.62,1.62,0,0,0-.07-.38c-.1-.35,0-.41,0-.45s.17-.52.19-.6a1.35,1.35,0,0,1,.09-.32l.13-.15s.07-.15.11-.18.06-.11.09-.12l.39-.21a4.07,4.07,0,0,0,.34-.29.45.45,0,0,0,.07-.07A3.19,3.19,0,0,1,219.39,44Zm2.85.51,0-.07a.75.75,0,0,1,0-.12s0-.43,0-.49a6,6,0,0,1,.06-.85c.07-.39.08-.34.11-.3a1,1,0,0,0,.12.19c.09.09.2.32.33.48a2.38,2.38,0,0,1,.23.46s.1.14.25.32a.43.43,0,0,1-.22.1c-.06,0-.29.11-.44.15Zm1.88,1.83a.19.19,0,0,1-.05.2c-.35.24-1,.25-1.18-.2,0,0,0,0,0,0a.14.14,0,0,1,0-.09.06.06,0,0,1,0,0c-.07-.22,0-.28,0-.49s0-.12-.08-.19a5,5,0,0,0,.65-.12c.45-.11.4.11.46.22a2.38,2.38,0,0,1,.21.62.36.36,0,0,0,0,.14Zm4.08-.25,0,.17a.14.14,0,0,1,0,.15l0,0a2,2,0,0,1-.12.34.16.16,0,0,1-.27,0,.12.12,0,0,1-.12-.08.64.64,0,0,1-.47-.3.43.43,0,0,1,0-.11v0a.66.66,0,0,1,.06-.31v0a.18.18,0,0,1,0-.11.88.88,0,0,0,0-.15.16.16,0,0,1,.05-.08c.05-.1.14-.22.16-.2s.15,0,.21.06a1,1,0,0,0,.31.1.2.2,0,0,1,.13,0l.06,0v0a.2.2,0,0,1,0,.11A1.93,1.93,0,0,1,228.2,46.05Zm3,.25s0,0,0,0,0,0,0,0Zm4-1.36c0,.07,0,.42,0,.6s0,.17,0,.33c-.08-.25-.21-.58-.27-.71s-.09-.22,0-.22.07-.12.1-.25,0-.13.2-.19,0,0,0-.07C235.17,44.6,235.16,44.88,235.16,44.94Zm.35-2.23c0,.07,0,.24-.06.3s-.08.24-.09.29a2,2,0,0,1-.1.41s0,.11,0,.17c0-.12,0-.26,0-.4a2.68,2.68,0,0,0,0-.61,1.27,1.27,0,0,1,.09-.5l.09.05C235.6,42.54,235.52,42.63,235.51,42.71Zm1.75,4.68a.36.36,0,0,1-.37-.2.43.43,0,0,1-.15-.2.38.38,0,0,1-.13-.18.8.8,0,0,1,0-.46,1.66,1.66,0,0,1,.14-.37.78.78,0,0,0,0-.09s.11-.3.13-.34a.71.71,0,0,0,.08-.2c.06-.27.1-.05.14,0s.12.27.16.36l.22.46a1.38,1.38,0,0,1,.09.24s0,0,0,.06a1.14,1.14,0,0,1,.05.23v0C237.65,47.06,237.51,47.34,237.26,47.39Zm2.94-3.55a2.76,2.76,0,0,0,0,.56,1,1,0,0,1-.07.44c0,.09-.19.94-.24,1.19s-.15.76-.18,1a.38.38,0,0,1-.3-.15,2.11,2.11,0,0,0-.18-.27c0-.1,0-.23,0-.27s-.06-.45-.07-.54-.07-.36-.08-.42,0-.31-.08-.52,0-.31,0-.32a.29.29,0,0,0,.07-.1s0-.13,0-.21a1.44,1.44,0,0,0-.12-.3.59.59,0,0,0-.14-.21,2,2,0,0,1-.13-.19c0-.07,0-.1,0-.13a.58.58,0,0,0,0-.19.54.54,0,0,0-.09-.24.31.31,0,0,1,0-.19,1.16,1.16,0,0,0-.06-.34,1.5,1.5,0,0,1-.06-.29c0-.09-.05-.16,0-.2a.75.75,0,0,0,0-.26c0-.13,0-.31,0-.28l.06.19c0,.09.08.3.09.38a1.2,1.2,0,0,0,.06.33c0,.08.14.31.16.39l.27.54c.05.06.12.24.26.49s.15.35.14.4a.43.43,0,0,0,0,.16c0,.06,0,.16,0,.23a.4.4,0,0,1,0,.17c0,.05,0,.08,0,.12s0,0,0,0,0,.07-.05.07l-.06,0s0,0,0,.09.06,0,.06.06a.06.06,0,0,0,0,.08.1.1,0,0,0,.07,0l0,.05s.09,0,.13,0a.29.29,0,0,0,.13,0,.45.45,0,0,0,.09-.06.13.13,0,0,0,.07-.05s0-.09,0-.16a1.89,1.89,0,0,1,.06-.18c0-.09,0-.14,0-.22a1.74,1.74,0,0,0,0-.22c0-.07,0-.18-.05-.25a2.21,2.21,0,0,1-.06-.3.76.76,0,0,0-.06-.27,1.44,1.44,0,0,1,0-.24c0-.08-.08-.29-.1-.39s-.06-.38-.07-.46-.08-.31-.11-.39-.11-.34-.12-.4-.07-.34-.1-.48a1,1,0,0,1,0-.17s0,0,0,0h.14c.1,0,0-.12,0-.22s-.07-.22-.08-.29a.83.83,0,0,0-.07-.3.26.26,0,0,1,0-.15,1.35,1.35,0,0,0,0-.29.88.88,0,0,0-.1-.24.21.21,0,0,1,0-.13c0-.06.05,0,.08.27a3.91,3.91,0,0,0,.18.72c0,.09.23.52.25.62s.1.53.11.64.2.71.29,1,.14.33.1.41,0,.32,0,.33,0,0,0,0A1.57,1.57,0,0,1,240.2,43.84Z"/><rect class="cls-2" x="44.88" y="143.43" width="35.7" height="4.76"/><rect class="cls-2" x="108.37" y="152.61" width="50.75" height="0.5"/><rect class="cls-2" x="108.37" y="146.29" width="83.75" height="0.5"/><rect class="cls-2" x="108.37" y="139.97" width="83.75" height="0.5"/><line class="cls-9" x1="98.97" y1="138.5" x2="98.97" y2="158.5"/><text class="cls-10" transform="translate(89.97 147)"></text></g><g id="Layer_24" data-name="Layer 24"><rect class="cls-1" x="104.32" y="44.22" width="57.24" height="4.72"/><text class="cls-11" transform="translate(104.32 34.74)"><tspan class="cls-12">P</tspan><tspan x="7.27" y="0">AGE TITLE</tspan></text><path class="cls-13" d="M67.77,44.8c-.89-1.91-.83-13.69,4.92-15.58a3,3,0,0,0-1.36,3.7,10,10,0,0,1,7.78-5.85c3.23-.39-1.77.15-.8,3,0-1.19,8-6.06,14.54-2.67C94.63,40.31,85.28,41,85.28,41h0A8.77,8.77,0,0,0,88.49,41c-1.23,5.37-8.5,5.68-8.5,5.68a14,14,0,0,0,4.7.33C78,51.33,69,46.31,69,46.31s-.12-.05-.22-.17L83.83,35.63a3.29,3.29,0,0,0,1.38.59A3.36,3.36,0,1,0,83,34.79L72.2,42.42,71.9,42l-4.12,2.83m18.4-14.06a2.19,2.19,0,1,1-2.53,1.78,2.2,2.2,0,0,1,2.53-1.78ZM68.74,46.14l0-.07,0,.07Zm-4.64-.88,1.14-.74L66,45.66l-1.14.74-.74-1.14Zm-.59,2-.74-1.13,1.14-.75.74,1.14-1.14.74Zm-1.33.87L61.44,47l1.14-.74.74,1.14-1.14.74Zm6.31-1.87-5.24,3.47-.94-1.4L67.51,45l1,1.29Z"/></g></svg>