<?xml version="1.0" encoding="utf-8"?><svg xmlns="http://www.w3.org/2000/svg" viewBox="0 0 237 275"><defs><style>.cls-1,.cls-12,.cls-2,.cls-9{fill:#fff;}.cls-2,.cls-4{stroke:#81a0b4;}.cls-10,.cls-2,.cls-4,.cls-9{stroke-miterlimit:10;}.cls-3,.cls-5{fill:#81a0b4;}.cls-3{opacity:0.31;}.cls-10,.cls-4{fill:none;}.cls-4{stroke-width:0.5px;}.cls-6{fill:#c9292c;}.cls-7{opacity:0.44;}.cls-8{opacity:0.68;}.cls-9{stroke:#c9292c;stroke-width:0.8px;}.cls-10{stroke:#fff;stroke-width:0.57px;}.cls-11{opacity:0.51;}.cls-12{fill-rule:evenodd;}.cls-13{opacity:0.32;}</style></defs><title>c9 blocks</title><g id="logo_dark_grey" data-name="logo dark grey"><rect class="cls-1" y="0.19" width="238.26" height="247.12"/><rect class="cls-2" x="22.41" y="190.37" width="201.43" height="75.83"/><rect class="cls-3" x="107.69" y="190.37" width="116.15" height="75.83" transform="matrix(1, 0, 0, 1, 0.24, -0.18)"/><line class="cls-4" x1="141.75" y1="233.03" x2="186.78" y2="233.03"/><line class="cls-4" x1="141.75" y1="223.55" x2="187.37" y2="223.55"/><line class="cls-4" x1="152.53" y1="244.87" x2="177.74" y2="244.87"/><rect class="cls-5" x="138.5" y="211.72" width="52.14" height="4.74"/><path class="cls-1" d="M64.34,231l.16-.18,1.75-2.06c.69-.81,1.38-1.61,2.06-2.44s1.38-1.7,2-2.57,1.19-1.63,1.77-2.45a31,31,0,0,0,1.69-2.68,23.69,23.69,0,0,0,1.72-3.72,13.34,13.34,0,0,0,.67-3,12.27,12.27,0,0,0,0-2.64,10.51,10.51,0,0,0-.83-3.07,9.73,9.73,0,0,0-1.5-2.34,10.94,10.94,0,0,0-3.22-2.51,13.81,13.81,0,0,0-3.36-1.17,11.84,11.84,0,0,0-2.06-.26,14.25,14.25,0,0,0-4.17.36,12.73,12.73,0,0,0-3.32,1.27,11.12,11.12,0,0,0-2.1,1.52,10.1,10.1,0,0,0-1.81,2.26,10,10,0,0,0-1.37,4.87,12.34,12.34,0,0,0,.48,3.91,19.46,19.46,0,0,0,1.59,3.83q.64,1.2,1.38,2.34c.55.87,1.14,1.72,1.75,2.56s1.24,1.65,1.88,2.45,1.37,1.67,2.06,2.5c.51.61,1,1.2,1.54,1.8.19.21.37.43.55.64S64.1,230.69,64.34,231Zm8.84,22c0-.38,0-11.47,0-11.63-.34-.05-17.5,0-17.66,0,0,.32,0,11.43,0,11.61Zm2.94-11.64c-.05.29,0,11.46,0,11.63H93.5q-.75-5.83-1.51-11.63Zm-39.42,0L35.18,253h17.4V241.32Zm36.51-17.08H89.77c-.2-1.52-.39-3-.59-4.54s-.38-3-.59-4.56-.38-3-.59-4.52H78.59c0,.11,0,.21,0,.31a12.24,12.24,0,0,1-.17,1.92,18.61,18.61,0,0,1-1.55,4.93,29.82,29.82,0,0,1-2.11,3.78c-.44.68-.91,1.35-1.38,2A.81.81,0,0,0,73.21,224.24ZM50.1,210.65c-.18-.06-9.22-.06-9.42,0l-1.74,13.44a.2.2,0,0,0,0,.11v0l0,0H55.38l.07,0s0,0,0,0l0,0a.83.83,0,0,0-.08-.53q-.85-1.22-1.68-2.46a26.44,26.44,0,0,1-1.48-2.58,21.64,21.64,0,0,1-1.52-3.78,16,16,0,0,1-.59-3.37C50.12,211.21,50.11,210.93,50.1,210.65Zm26,16.55c-.05.24,0,11,0,11.15H91.58l0,0L90.16,227.2Zm-37.59,0c-.48,3.73-1,7.43-1.45,11.14H52.57c0-.33,0-11,0-11.14Zm17,11.16H73.16v0h0c0-.6,0-10.94,0-11.12H70.73c-.13,0-.18.07-.25.15-.45.55-.89,1.11-1.35,1.65-.7.84-1.42,1.67-2.13,2.5-.55.65-1.11,1.29-1.67,1.94l-.41.48q-.27.33-.57.66l-.18-.18-1.59-1.88L61,230.73l-.47-.55-2.37-2.86a.35.35,0,0,0-.3-.14H55.5Z"/><path class="cls-6" d="M64.34,231c-.24-.26-.46-.51-.68-.77s-.36-.43-.55-.64c-.51-.6-1-1.19-1.54-1.8-.69-.83-1.38-1.65-2.06-2.5s-1.27-1.62-1.88-2.45-1.2-1.69-1.75-2.56-1-1.54-1.38-2.34a19.46,19.46,0,0,1-1.59-3.83,12.34,12.34,0,0,1-.48-3.91,10,10,0,0,1,1.37-4.87A10.1,10.1,0,0,1,55.61,203a11.12,11.12,0,0,1,2.1-1.52A12.73,12.73,0,0,1,61,200.23a14.25,14.25,0,0,1,4.17-.36,11.84,11.84,0,0,1,2.06.26,13.81,13.81,0,0,1,3.36,1.17,10.94,10.94,0,0,1,3.22,2.51,9.73,9.73,0,0,1,1.5,2.34,10.51,10.51,0,0,1,.83,3.07,12.27,12.27,0,0,1,0,2.64,13.34,13.34,0,0,1-.67,3,23.69,23.69,0,0,1-1.72,3.72,31,31,0,0,1-1.69,2.68c-.58.82-1.16,1.65-1.77,2.45s-1.35,1.72-2,2.57-1.37,1.63-2.06,2.44l-1.75,2.06Zm7.31-19.51c0-.27-.06-.7-.13-1.13a7.41,7.41,0,0,0-2-4,7.06,7.06,0,0,0-1.6-1.22,6.56,6.56,0,0,0-2.51-.85,7.15,7.15,0,0,0-5,1.13,7.53,7.53,0,0,0-1.49,11.16,6.81,6.81,0,0,0,2.28,1.77,7.58,7.58,0,0,0,2.46.72,6.7,6.7,0,0,0,2.44-.19,7.37,7.37,0,0,0,4.82-3.93A7.78,7.78,0,0,0,71.65,211.44Z"/><path class="cls-5" d="M73.18,253H55.53c-.05-.18-.06-11.29,0-11.61.16,0,17.32-.07,17.66,0C73.21,241.49,73.23,252.58,73.18,253Z"/><path class="cls-5" d="M76.12,241.32H92q.77,5.81,1.51,11.63H76.12C76.08,252.78,76.07,241.61,76.12,241.32Z"/><path class="cls-5" d="M36.7,241.32H52.58V253H35.18Z"/><path class="cls-5" d="M73.21,224.24a.81.81,0,0,1,.15-.67c.47-.66.94-1.33,1.38-2a29.82,29.82,0,0,0,2.11-3.78,18.61,18.61,0,0,0,1.55-4.93,12.24,12.24,0,0,0,.17-1.92c0-.1,0-.2,0-.31H88c.21,1.5.39,3,.59,4.52s.39,3,.59,4.56.39,3,.59,4.54Z"/><path class="cls-5" d="M50.1,210.65c0,.28,0,.56,0,.84a16,16,0,0,0,.59,3.37,21.64,21.64,0,0,0,1.52,3.78,26.44,26.44,0,0,0,1.48,2.58q.83,1.25,1.68,2.46a.83.83,0,0,1,.08.53l0,0s0,0,0,0l-.07,0H39l0,0v0a.2.2,0,0,1,0-.11l1.74-13.44C40.88,210.59,49.92,210.59,50.1,210.65Z"/><path class="cls-5" d="M76.12,227.2h14l1.44,11.11,0,0H76.13C76.08,238.17,76.07,227.44,76.12,227.2Z"/><path class="cls-5" d="M38.53,227.2h14c0,.16.06,10.81,0,11.14H37.08C37.56,234.63,38.05,230.93,38.53,227.2Z"/><path class="cls-5" d="M55.5,238.36V227.2h2.4a.35.35,0,0,1,.3.14l2.37,2.86.47.55,1.54,1.77,1.59,1.88.18.18q.3-.33.57-.66l.41-.48c.56-.65,1.12-1.29,1.67-1.94.71-.83,1.43-1.66,2.13-2.5.46-.54.9-1.1,1.35-1.65.07-.08.12-.15.25-.15h2.44c0,.18.07,10.52,0,11.12h0v0H55.5Z"/><path class="cls-1" d="M71.65,211.44a7.78,7.78,0,0,1-.77,3.45,7.37,7.37,0,0,1-4.82,3.93,6.7,6.7,0,0,1-2.44.19,7.58,7.58,0,0,1-2.46-.72,6.81,6.81,0,0,1-2.28-1.77,7.51,7.51,0,0,1,1.49-11.16,7.15,7.15,0,0,1,5-1.13,6.56,6.56,0,0,1,2.51.85,7.06,7.06,0,0,1,1.6,1.22,7.41,7.41,0,0,1,2,4C71.59,210.74,71.62,211.17,71.65,211.44Zm-11.72.05a4.59,4.59,0,0,0,1.81,3.73,4.09,4.09,0,0,0,2.67.86,4.15,4.15,0,0,0,2.92-1.19,4.37,4.37,0,0,0,.87-1.13,4.46,4.46,0,0,0,.45-3.08,4.27,4.27,0,0,0-2.4-3.12,4.12,4.12,0,0,0-4.14.18,4.47,4.47,0,0,0-2.18,3.75Z"/><path class="cls-5" d="M59.93,211.49a4.47,4.47,0,0,1,2.18-3.75,4.12,4.12,0,0,1,4.14-.18,4.27,4.27,0,0,1,2.4,3.12,4.46,4.46,0,0,1-.45,3.08,4.37,4.37,0,0,1-.87,1.13,4.15,4.15,0,0,1-2.92,1.19,4.09,4.09,0,0,1-2.67-.86A4.59,4.59,0,0,1,59.93,211.49Z"/><rect class="cls-5" y="0.19" width="238.26" height="68.71"/><g class="cls-7"><rect class="cls-5" y="68.4" width="238.26" height="60.62"/></g><line class="cls-4" x1="18.82" y1="167.72" x2="74.35" y2="167.72"/><line class="cls-4" x1="18.82" y1="161.4" x2="115.99" y2="161.4"/><line class="cls-4" x1="18.82" y1="155.08" x2="115.99" y2="155.08"/><line class="cls-4" x1="18.82" y1="148.76" x2="115.99" y2="148.76"/><line class="cls-4" x1="45.01" y1="116.38" x2="82.93" y2="116.38"/><line class="cls-4" x1="45.01" y1="110.06" x2="111.38" y2="110.06"/><line class="cls-4" x1="45.01" y1="103.74" x2="111.38" y2="103.74"/><line class="cls-4" x1="45.01" y1="97.42" x2="111.38" y2="97.42"/><line class="cls-4" x1="125.6" y1="116.38" x2="163.51" y2="116.38"/><line class="cls-4" x1="125.6" y1="110.06" x2="191.95" y2="110.06"/><line class="cls-4" x1="125.6" y1="103.74" x2="191.95" y2="103.74"/><line class="cls-4" x1="125.6" y1="97.42" x2="191.95" y2="97.42"/><rect class="cls-5" x="70.94" y="78.72" width="94.79" height="7.11"/><g class="cls-8"><rect class="cls-5" x="162.64" y="136.12" width="50.27" height="37.69"/></g><polygon class="cls-1" points="164.13 173.29 176.13 157.71 185.45 164.22 198 146.31 212.51 173.65 164.13 173.29"/><path class="cls-5" d="M198,147l13.93,26.24-47-.35,11.31-14.7,8.73,6.09.61.43.43-.61L198,147m.09-1.43-12.69,18.1-9.31-6.5-12.68,16.46,49.77.37L198.05,145.6Z"/><path class="cls-9" d="M177.59,146.49v2.08a2.19,2.19,0,0,0,1.11,1.92l1.81,1a2.25,2.25,0,0,0,2.22,0l1.8-1a2.19,2.19,0,0,0,1.11-1.92v-2.08a2.21,2.21,0,0,0-1.11-1.92l-1.8-1a2.25,2.25,0,0,0-2.22,0l-1.81,1A2.21,2.21,0,0,0,177.59,146.49Z"/><polygon class="cls-1" points="217.37 156.74 219.12 154.99 217.37 153.23 217.62 152.98 219.63 154.99 217.62 156.99 217.37 156.74"/><path class="cls-5" d="M217.62,152.53a.2.2,0,0,0-.14.06l-.5.5a.19.19,0,0,0,0,.28l1.61,1.62L217,156.61a.16.16,0,0,0-.06.13.18.18,0,0,0,.06.14l.5.51a.22.22,0,0,0,.28,0l2.26-2.27a.16.16,0,0,0,.06-.13.18.18,0,0,0-.06-.14l-2.26-2.26a.2.2,0,0,0-.14-.06Z"/><polygon class="cls-1" points="155.93 154.99 157.93 152.98 158.18 153.23 156.43 154.99 158.18 156.74 157.93 156.99 155.93 154.99"/><path class="cls-5" d="M157.93,152.53a.2.2,0,0,0-.14.06l-2.26,2.26a.18.18,0,0,0-.06.14.16.16,0,0,0,.06.13l2.26,2.27a.22.22,0,0,0,.28,0l.51-.51a.22.22,0,0,0,0-.14.19.19,0,0,0,0-.13L157,155l1.62-1.62a.22.22,0,0,0,0-.28l-.51-.5a.2.2,0,0,0-.14-.06Z"/><path class="cls-5" d="M213.27,177.34v2.77H163.62v-2.77h49.65m.25-.25H163.37v3.27h50.15v-3.27Z"/><rect class="cls-5" x="180.19" y="177.08" width="16.72" height="3.19"/><rect class="cls-1" x="18.82" y="16.79" width="82.94" height="7.11"/><rect class="cls-1" x="18.82" y="35.73" width="104.83" height="4.74"/><line class="cls-10" x1="18.82" y1="52.29" x2="142.05" y2="52.29"/><g class="cls-11"><path class="cls-12" d="M178.31,45.56c-1.43-3.08-1.33-22.07,7.94-25.11,0,0-3.4,1.58-2.2,6,1.56-3,4.41-8.09,12.54-9.44,5.21-.63-2.85.24-1.29,4.83,0-1.93,12.9-9.78,23.45-4.31,2.86,20.82-12.21,22-12.21,22h0a14.36,14.36,0,0,0,5.18-.11C209.74,48,198,48.52,198,48.52s4.46,1.11,7.58.53c-10.73,7-25.37-1-25.37-1s-.18-.09-.34-.29L204.2,30.78a5.36,5.36,0,0,0,2.24.95,5.42,5.42,0,1,0-3.56-2.31l-17.42,12.3L185,41l-6.64,4.55M208,22.91a3.53,3.53,0,1,1-4.09,2.86A3.54,3.54,0,0,1,208,22.91ZM179.87,47.72l-.08-.12.09.11ZM172.4,46.3l1.83-1.2,1.2,1.84-1.84,1.19L172.4,46.3Zm-1,3.23-1.19-1.84,1.83-1.19,1.19,1.83-1.83,1.2Zm-2.14,1.39-1.2-1.83L170,47.9l1.19,1.83-1.83,1.19Zm10.17-3L171,53.5l-1.5-2.25,8.37-5.43,1.59,2.09Z"/></g></g><g id="Layer_23" data-name="Layer 23"><g class="cls-13"><path class="cls-1" d="M0,36.82V35.9c0,.23-.06.43-.06.43S0,36.61,0,36.82Z"/></g></g></svg>