<?xml version="1.0" encoding="UTF-8"?>
<svg width="240px" height="267px" viewBox="0 0 240 267" version="1.1" xmlns="http://www.w3.org/2000/svg" xmlns:xlink="http://www.w3.org/1999/xlink">
    <title>c9-editorial-2000</title>
    <g id="c9-editorial-2000" stroke="none" stroke-width="1" fill="none" fill-rule="evenodd">
        <rect id="bg" fill="#FFFFFF" x="-4" y="-7" width="251" height="283"></rect>
        <g id="image" transform="translate(114.000000, -3.000000)" fill-rule="nonzero">
            <g id="Group" opacity="0.68" fill="#81A0B4">
                <rect id="Rectangle" x="0.618823529" y="0.303157895" width="127.153529" height="95.2168421"></rect>
            </g>
            <polygon id="Path" fill="#FFFFFF" points="7 95.1177762 36.5163291 56.9370885 59.440678 72.8906364 90.3098388 29 126 96"></polygon>
            <path d="M89.8746233,24.7724235 L124.860559,93.9950756 L6.81756078,93.0717552 L35.2232268,54.2922969 L57.1490858,70.3580725 L58.6811332,71.4924376 L59.7611011,69.8832219 L89.8746233,24.7724235 M90.1006631,21 L58.2290536,68.7488568 L34.8464939,51.6014773 L3,95.0239184 L128,96 L90.0002009,21.0791418 L90.1006631,21 Z" id="Shape" fill="#81A0B4"></path>
            <path d="M40,28.176857 L40,32.823143 C39.9874602,34.5965164 40.9898493,36.2375025 42.6199616,37.1120223 L46.891958,39.3458136 C48.5169418,40.2180621 50.5066604,40.2180621 52.1316442,39.3458136 L56.3800384,37.1120223 C58.0101507,36.2375025 59.0125398,34.5965164 59,32.823143 L59,28.176857 C59.0025946,26.4059879 58.002895,24.7694049 56.3800384,23.8879777 L52.1316442,21.6541864 C50.5066604,20.7819379 48.5169418,20.7819379 46.891958,21.6541864 L42.6199616,23.8879777 C40.997105,24.7694049 39.9974054,26.4059879 40,28.176857 L40,28.176857 Z" id="Path" stroke="#C9292C" stroke-width="0.8" fill="#FFFFFF"></path>
        </g>
        <g id="image" transform="translate(60.000000, 129.000000)" fill-rule="nonzero">
            <g id="Group" opacity="0.68" fill="#81A0B4">
                <rect id="Rectangle" x="0.299742647" y="0.145263158" width="61.5899908" height="45.6247368"></rect>
            </g>
            <polygon id="Path" fill="#FFFFFF" points="3 45.5786394 17.38611 27.3430871 28.559322 34.962692 43.6047954 14 61 46"></polygon>
            <path d="M43.3948162,11.8107633 L60.4679526,45.0376363 L2.86296966,44.5944425 L16.7249347,25.9803025 L27.4247539,33.6918748 L28.172393,34.23637 L28.6994173,33.4639465 L43.3948162,11.8107633 M43.5051236,10 L27.9517782,32.9194513 L16.541089,24.6887091 L1,45.5314808 L62,46 L43.4560981,10.037988 L43.5051236,10 Z" id="Shape" fill="#81A0B4"></path>
            <path d="M19,13.3995639 L19,15.6004361 C18.9940601,16.4404552 19.468876,17.2177643 20.2410344,17.6320106 L22.2646117,18.6901222 C23.0343409,19.1032926 23.9768391,19.1032926 24.7465683,18.6901222 L26.7589656,17.6320106 C27.531124,17.2177643 28.0059399,16.4404552 28,15.6004361 L28,13.3995639 C28.001229,12.5607311 27.5276871,11.7855076 26.7589656,11.3679894 L24.7465683,10.3098778 C23.9768391,9.89670741 23.0343409,9.89670741 22.2646117,10.3098778 L20.2410344,11.3679894 C19.4723129,11.7855076 18.998771,12.5607311 19,13.3995639 L19,13.3995639 Z" id="Path" stroke="#C9292C" stroke-width="0.8" fill="#FFFFFF"></path>
        </g>
        <g id="heading" transform="translate(17.000000, 34.000000)" fill="#81A0B4" fill-rule="nonzero">
            <polygon id="Path" points="0 8.95554351 0 0.245543514 1.81 0.245543514 1.81 3.56554351 5.2 3.56554351 5.2 0.245543514 7 0.245543514 7 8.95554351 5.2 8.95554351 5.2 5.06554351 1.81 5.06554351 1.81 8.95554351"></polygon>
            <polygon id="Path" points="15.21 1.78554351 10.6 1.78554351 10.6 3.67554351 14.83 3.67554351 14.83 5.18554351 10.6 5.18554351 10.6 7.42554351 15.42 7.42554351 15.42 8.99554351 8.82 8.99554351 8.82 0.245543514 15.21 0.245543514"></polygon>
            <path d="M19.33,0.245543514 L21.39,0.245543514 L24.47,8.95554351 L22.47,8.95554351 L21.9,7.16554351 L18.69,7.16554351 L18.1,8.95554351 L16.2,8.95554351 L19.33,0.245543514 Z M19.21,5.67554351 L21.44,5.67554351 L20.34,2.25554351 L19.21,5.67554351 Z" id="Shape"></path>
            <path d="M30.68,0.425543514 C31.2835978,0.624748475 31.8063812,1.01420453 32.17,1.53554351 C32.4688183,1.95938691 32.6796384,2.43883264 32.79,2.94554351 C32.8953845,3.41832286 32.9490333,3.9011622 32.95,4.38554351 C32.9849556,5.41062664 32.7431523,6.42620036 32.25,7.32554351 C31.6692361,8.38333646 30.5352021,9.01637601 29.33,8.95554351 L25.58,8.95554351 L25.58,0.245543514 L29.33,0.245543514 C29.786404,0.238814703 30.2413032,0.299467925 30.68,0.425543514 L30.68,0.425543514 Z M27.34,1.75554351 L27.34,7.43554351 L29,7.43554351 C29.8182,7.46810856 30.5563507,6.94730225 30.8,6.16554351 C31.0000384,5.63558709 31.095136,5.07179442 31.08,4.50554351 C31.1119333,3.81404192 30.9673994,3.12578526 30.66,2.50554351 C30.2794518,1.98147212 29.6418214,1.70875067 29,1.79554351 L27.34,1.75554351 Z" id="Shape"></path>
            <polygon id="Path" points="36 8.95554351 34.19 8.95554351 34.19 0.245543514 36 0.245543514"></polygon>
            <polygon id="Path" points="37.65 0.245543514 39.56 0.245543514 43 6.31554351 43 0.245543514 44.69 0.245543514 44.69 8.95554351 42.87 8.95554351 39.33 2.77554351 39.33 8.95554351 37.63 8.95554351"></polygon>
            <path d="M52.28,2.95554351 C52.1713028,2.40270777 51.7972592,1.9388937 51.28,1.71554351 C50.9638645,1.58114973 50.6235073,1.51307828 50.28,1.51554351 C49.6111298,1.50263427 48.9733675,1.79755323 48.55,2.31554351 C48.0475614,3.00278995 47.8064748,3.84659311 47.87,4.69554351 C47.7892562,5.52056969 48.0534915,6.34223286 48.6,6.96554351 C49.0487118,7.39700142 49.6475088,7.63723735 50.27,7.63554351 C50.8192194,7.65614603 51.3556375,7.46661163 51.77,7.10554351 C52.1630732,6.74731766 52.4178929,6.26245229 52.49,5.73554351 L50.49,5.73554351 L50.49,4.27554351 L54.12,4.27554351 L54.12,8.95554351 L52.91,8.95554351 L52.73,7.86554351 C52.4445759,8.20640898 52.1070804,8.50003004 51.73,8.73554351 C51.1916584,9.04211334 50.5792276,9.19435604 49.96,9.17554351 C48.8835782,9.20914342 47.8461954,8.77081264 47.12,7.97554351 C46.3235185,7.06776782 45.9205972,5.88058903 46,4.67554351 C45.939459,3.43711858 46.3584925,2.22299594 47.17,1.28554351 C47.9590108,0.433463033 49.0793786,-0.0336610065 50.24,0.00554351399 C51.2021188,-0.0451463564 52.1502064,0.253128407 52.91,0.845543514 C53.5593797,1.3644143 53.9765294,2.11959911 54.07,2.94554351 L52.28,2.95554351 Z" id="Path"></path>
        </g>
        <rect id="Rectangle" fill="#81A0B4" fill-rule="nonzero" x="12" y="49" width="67.66" height="1"></rect>
        <rect id="Rectangle-Copy-2" fill="#81A0B4" fill-rule="nonzero" transform="translate(40.000000, 57.500000) scale(1, -1) translate(-40.000000, -57.500000) " x="12" y="57" width="56" height="1"></rect>
        <rect id="Rectangle-Copy-3" fill="#81A0B4" fill-rule="nonzero" transform="translate(43.000000, 65.500000) scale(1, -1) translate(-43.000000, -65.500000) " x="12" y="65" width="62" height="1"></rect>
        <g id="paragraph" transform="translate(137.250000, 130.850000)" fill="#81A0B4" fill-rule="nonzero">
            <rect id="Rectangle" x="0.75" y="19.15" width="44" height="1"></rect>
            <rect id="Rectangle" x="0.75" y="12.15" width="77" height="1"></rect>
            <rect id="Rectangle" x="0.75" y="6.15" width="77" height="1"></rect>
            <rect id="Rectangle" x="0.75" y="0.15" width="77" height="1"></rect>
        </g>
        <g id="paragraph-copy" transform="translate(137.250000, 160.850000)" fill="#81A0B4" fill-rule="nonzero">
            <rect id="Rectangle" x="0.75" y="13.15" width="44" height="1"></rect>
            <rect id="Rectangle" x="0.75" y="6.15" width="77" height="1"></rect>
            <rect id="Rectangle" x="0.75" y="0.15" width="77" height="1"></rect>
        </g>
        <rect id="Rectangle" fill="#81A0B4" fill-rule="nonzero" x="1" y="91" width="238.62" height="21"></rect>
        <rect id="Rectangle" fill="#C9292C" fill-rule="nonzero" x="181" y="98" width="33.53" height="7.14" rx="3.35"></rect>
        <rect id="Rectangle" fill="#FFFFFF" fill-rule="nonzero" x="23" y="99" width="141" height="2"></rect>
        <rect id="Rectangle-Copy" fill="#FFFFFF" fill-rule="nonzero" x="23" y="104" width="105" height="2"></rect>
        <rect id="Rectangle" fill="#81A0B4" fill-rule="nonzero" x="87" y="185" width="67.66" height="1"></rect>
        <rect id="Rectangle-Copy-2" fill="#81A0B4" fill-rule="nonzero" transform="translate(115.000000, 193.500000) scale(1, -1) translate(-115.000000, -193.500000) " x="87" y="193" width="56" height="1"></rect>
        <rect id="Rectangle-Copy-3" fill="#81A0B4" fill-rule="nonzero" transform="translate(118.000000, 201.500000) scale(1, -1) translate(-118.000000, -201.500000) " x="87" y="201" width="62" height="1"></rect>
        <g id="paragraph-copy" transform="translate(86.250000, 209.850000)" fill="#81A0B4" fill-rule="nonzero">
            <rect id="Rectangle" x="0.75" y="13.15" width="44" height="1"></rect>
            <rect id="Rectangle" x="0.75" y="6.15" width="77" height="1"></rect>
            <rect id="Rectangle" x="0.75" y="0.15" width="77" height="1"></rect>
        </g>
        <g id="paragraph-copy" transform="translate(86.250000, 229.850000)" fill="#81A0B4" fill-rule="nonzero">
            <rect id="Rectangle" x="0.75" y="7.15" width="44" height="1"></rect>
            <rect id="Rectangle" x="0.75" y="0.15" width="77" height="1"></rect>
        </g>
        <g id="vert-image" transform="translate(60.000000, 247.000000)" fill-rule="nonzero">
            <g id="Group" opacity="0.68" fill="#81A0B4">
                <g opacity="0.62" id="Path">
                    <polygon points="0.0360363653 0.488738462 0.0360363653 43.9864615 33.8974828 43.9864615 33.8974828 0.488738462"></polygon>
                </g>
            </g>
            <polygon id="Path" fill="#81A0B4" points="34 44 23.3713153 18 14.8734209 37.3678689 8.49789448 30.9147541 0 44"></polygon>
            <path d="M9.00040585,10.5261525 L9.00040585,13.4738475 C8.98831587,14.2064632 9.32610389,14.8886893 9.88226759,15.2549322 L12.1142362,16.7332324 C12.6636123,17.0889225 13.3363877,17.0889225 13.8857638,16.7332324 L16.1177324,15.2549322 C16.6738961,14.8886893 17.0116841,14.2064632 16.9995941,13.4738475 L16.9995941,10.5261525 C17.0133791,9.79304892 16.675137,9.10990572 16.1177324,8.74506782 L13.8857638,7.26676756 C13.3363877,6.91107748 12.6636123,6.91107748 12.1142362,7.26676756 L9.88226759,8.74506782 C9.32486302,9.10990572 8.9866209,9.79304892 9.00040585,10.5261525 L9.00040585,10.5261525 Z" id="Path" fill="#FFFFFF"></path>
            <path d="M13.0351184,7.49645378 C13.2754961,7.4976824 13.511712,7.5678155 13.721878,7.70035444 L15.9538466,9.1719853 C16.3789804,9.44869295 16.6410484,9.96290663 16.6406361,10.5195027 L16.6406361,13.4538992 C16.6438607,14.0136604 16.3814132,14.5320067 15.9538466,14.8102818 L13.721878,16.2819127 C13.2924443,16.5533807 12.7699884,16.5533807 12.3405547,16.2819127 L10.0773697,14.8014166 C9.64980316,14.5231414 9.38735566,14.0047952 9.39058024,13.4450339 L9.39058024,10.5106375 C9.39016797,9.95404138 9.65223595,9.43982771 10.0773697,9.16312005 L12.3093384,7.6914892 C12.5219446,7.55786271 12.7609235,7.48770652 13.003902,7.48758854 M13.003902,7.04432623 C12.6920897,7.0440841 12.3855534,7.1357203 12.1142362,7.31028361 L9.88226759,8.78191447 C9.32486302,9.1451064 8.9866209,9.82516758 9.00040585,10.5549637 L9.00040585,13.4893602 C8.98831587,14.2186706 9.32610389,14.8978188 9.88226759,15.2624094 L12.1142362,16.7340402 C12.3855534,16.9086036 12.6920897,17.0002398 13.003902,17 C13.3132086,17 13.6171555,16.9082564 13.8857638,16.7340402 L16.1177324,15.2624094 C16.6738961,14.8978188 17.0116841,14.2186706 16.9995941,13.4893602 L16.9995941,10.5106375 C17.0133791,9.78084135 16.675137,9.10078016 16.1177324,8.73758824 L13.8857638,7.26595738 C13.6171555,7.09174122 13.3132086,7 13.003902,7 L13.003902,7.04432623 Z" id="Shape" fill="#C9292C"></path>
        </g>
        <g id="vert-image-copy" transform="translate(100.000000, 247.000000)" fill-rule="nonzero">
            <g id="Group" opacity="0.68" fill="#81A0B4">
                <g opacity="0.62" id="Path">
                    <polygon points="0.0360363653 0.488738462 0.0360363653 43.9864615 33.8974828 43.9864615 33.8974828 0.488738462"></polygon>
                </g>
            </g>
            <polygon id="Path" fill="#81A0B4" points="34 44 23.3713153 18 14.8734209 37.3678689 8.49789448 30.9147541 0 44"></polygon>
            <path d="M9.00040585,10.5261525 L9.00040585,13.4738475 C8.98831587,14.2064632 9.32610389,14.8886893 9.88226759,15.2549322 L12.1142362,16.7332324 C12.6636123,17.0889225 13.3363877,17.0889225 13.8857638,16.7332324 L16.1177324,15.2549322 C16.6738961,14.8886893 17.0116841,14.2064632 16.9995941,13.4738475 L16.9995941,10.5261525 C17.0133791,9.79304892 16.675137,9.10990572 16.1177324,8.74506782 L13.8857638,7.26676756 C13.3363877,6.91107748 12.6636123,6.91107748 12.1142362,7.26676756 L9.88226759,8.74506782 C9.32486302,9.10990572 8.9866209,9.79304892 9.00040585,10.5261525 L9.00040585,10.5261525 Z" id="Path" fill="#FFFFFF"></path>
            <path d="M13.0351184,7.49645378 C13.2754961,7.4976824 13.511712,7.5678155 13.721878,7.70035444 L15.9538466,9.1719853 C16.3789804,9.44869295 16.6410484,9.96290663 16.6406361,10.5195027 L16.6406361,13.4538992 C16.6438607,14.0136604 16.3814132,14.5320067 15.9538466,14.8102818 L13.721878,16.2819127 C13.2924443,16.5533807 12.7699884,16.5533807 12.3405547,16.2819127 L10.0773697,14.8014166 C9.64980316,14.5231414 9.38735566,14.0047952 9.39058024,13.4450339 L9.39058024,10.5106375 C9.39016797,9.95404138 9.65223595,9.43982771 10.0773697,9.16312005 L12.3093384,7.6914892 C12.5219446,7.55786271 12.7609235,7.48770652 13.003902,7.48758854 M13.003902,7.04432623 C12.6920897,7.0440841 12.3855534,7.1357203 12.1142362,7.31028361 L9.88226759,8.78191447 C9.32486302,9.1451064 8.9866209,9.82516758 9.00040585,10.5549637 L9.00040585,13.4893602 C8.98831587,14.2186706 9.32610389,14.8978188 9.88226759,15.2624094 L12.1142362,16.7340402 C12.3855534,16.9086036 12.6920897,17.0002398 13.003902,17 C13.3132086,17 13.6171555,16.9082564 13.8857638,16.7340402 L16.1177324,15.2624094 C16.6738961,14.8978188 17.0116841,14.2186706 16.9995941,13.4893602 L16.9995941,10.5106375 C17.0133791,9.78084135 16.675137,9.10078016 16.1177324,8.73758824 L13.8857638,7.26595738 C13.6171555,7.09174122 13.3132086,7 13.003902,7 L13.003902,7.04432623 Z" id="Shape" fill="#C9292C"></path>
        </g>
        <g id="paragraph-copy" transform="translate(140.250000, 252.850000)" fill="#81A0B4" fill-rule="nonzero">
            <rect id="Rectangle" x="0.75" y="13.15" width="31" height="1"></rect>
            <rect id="Rectangle" x="0.75" y="6.15" width="54" height="1"></rect>
            <rect id="Rectangle" x="0.75" y="0.15" width="54" height="1"></rect>
        </g>
    </g>
</svg>