<?xml version="1.0" encoding="UTF-8"?>
<svg width="240px" height="267px" viewBox="0 0 240 267" version="1.1" xmlns="http://www.w3.org/2000/svg" xmlns:xlink="http://www.w3.org/1999/xlink">
    <title>c9-editorial-1600</title>
    <g id="c9-editorial-1600" stroke="none" stroke-width="1" fill="none" fill-rule="evenodd">
        <rect id="bg" fill="#FFFFFF" x="1" y="-2" width="239" height="270"></rect>
        <rect id="Rectangle" fill="#81A0B4" x="0" y="-4" width="246" height="105"></rect>
        <rect id="Rectangle" fill="#81A0B4" fill-rule="nonzero" x="41.25" y="180" width="80" height="1"></rect>
        <g id="share" transform="translate(138.000000, 25.000000)" fill="#81A0B4" fill-rule="nonzero">
            <path d="M0.98155153,3.52569496 C1.0031813,3.70535752 1.0684083,3.87700752 1.17155153,4.02569496 C1.40304988,4.24921567 1.72148533,4.359021 2.04155153,4.32569496 C2.24475493,4.33579963 2.44809445,4.3086877 2.64155153,4.24569496 C2.90113419,4.18490024 3.0838983,3.95229137 3.08155153,3.68569496 C3.08554102,3.5277283 3.00052983,3.38089079 2.86155153,3.30569496 C2.64646225,3.19830953 2.4176649,3.12092219 2.18155153,3.07569496 L1.65155153,2.96569496 C1.27565916,2.90160663 0.913667363,2.77304879 0.58155153,2.58569496 C0.244161138,2.34230326 0.0583703915,1.94038859 0.0915515302,1.52569496 C0.0840872867,1.10957639 0.259549431,0.711131101 0.57155153,0.435694957 C0.975046889,0.120965317 1.48123963,-0.0323184005 1.99155153,0.00569495716 C2.4713701,-0.0103518658 2.94286056,0.13391014 3.33155153,0.415694957 C3.70140088,0.69896875 3.91628488,1.13985145 3.91155153,1.60569496 L2.91155153,1.60569496 C2.91742371,1.33709009 2.76459332,1.09021023 2.52155153,0.975694957 C2.32999225,0.889818523 2.12136541,0.848777178 1.91155153,0.855694957 C1.68375543,0.842780432 1.45732491,0.898517175 1.26155153,1.01569496 C1.10691981,1.10725542 1.01481449,1.27611517 1.02155153,1.45569496 C1.01473484,1.62242122 1.10964245,1.77664609 1.26155153,1.84569496 C1.46814151,1.94154127 1.68681486,2.00882538 1.91155153,2.04569496 L2.77155153,2.25569496 C3.07340566,2.31079128 3.35988171,2.4301563 3.61155153,2.60569496 C3.91439809,2.84588286 4.07907341,3.22014494 4.05155153,3.60569496 C4.06263882,4.03692727 3.86997231,4.44819615 3.53155153,4.71569496 C3.11682883,5.04022196 2.5970089,5.20044044 2.07155153,5.16569496 C1.52980339,5.19428827 0.994253627,5.0392607 0.55155153,4.72569496 C0.184879293,4.43822879 -0.0200463669,3.99111826 0.00155153018,3.52569496 L0.98155153,3.52569496 Z" id="Path"></path>
            <polygon id="Path" points="4.77155153 5.03569496 4.77155153 0.145694957 5.77155153 0.145694957 5.77155153 2.00569496 7.67155153 2.00569496 7.67155153 0.145694957 8.67155153 0.145694957 8.67155153 5.03569496 7.67155153 5.03569496 7.67155153 2.85569496 5.77155153 2.85569496 5.77155153 5.03569496"></polygon>
            <path d="M11.0815515,0.145694957 L12.2415515,0.145694957 L13.9715515,5.03569496 L12.8615515,5.03569496 L12.5415515,4.03569496 L10.7415515,4.03569496 L10.4115515,5.03569496 L9.34155153,5.03569496 L11.0815515,0.145694957 Z M11.0215515,3.14569496 L12.2715515,3.14569496 L11.6515515,1.22569496 L11.0215515,3.14569496 Z" id="Shape"></path>
            <path d="M17.7315515,0.275694957 C17.9090189,0.347169438 18.0643145,0.464503899 18.1815515,0.615694957 C18.2890713,0.736060845 18.3737852,0.874991602 18.4315515,1.02569496 C18.4939409,1.18836107 18.5244948,1.36149956 18.5215515,1.53569496 C18.5199243,1.77709269 18.4580534,2.01426452 18.3415515,2.22569496 C18.2161369,2.45135757 18.0083067,2.61977172 17.7615515,2.69569496 C17.9617627,2.76640881 18.1313507,2.90419907 18.2415515,3.08569496 C18.3533146,3.32616076 18.4015178,3.59127837 18.3815515,3.85569496 L18.3815515,4.17569496 C18.3658363,4.32862562 18.3658363,4.48276429 18.3815515,4.63569496 C18.4016206,4.75202945 18.470861,4.8540679 18.5715515,4.91569496 L18.5715515,5.03569496 L17.4715515,5.03569496 C17.4715515,4.92569496 17.4215515,4.83569496 17.4115515,4.77569496 C17.3968108,4.63608297 17.3968108,4.49530694 17.4115515,4.35569496 L17.4115515,3.89569496 C17.4331472,3.67514702 17.3726155,3.4543846 17.2415515,3.27569496 C17.0779182,3.14590927 16.8685832,3.08816169 16.6615515,3.11569496 L15.6015515,3.11569496 L15.6015515,5.03569496 L14.6015515,5.03569496 L14.6015515,0.145694957 L16.9315515,0.145694957 C17.2040321,0.13816145 17.4754765,0.182271156 17.7315515,0.275694957 L17.7315515,0.275694957 Z M15.6115515,0.995694957 L15.6115515,2.30569496 L16.7115515,2.30569496 C16.8821558,2.31790716 17.0532745,2.29052817 17.2115515,2.22569496 C17.4125147,2.11983276 17.5277293,1.90132238 17.5015515,1.67569496 C17.5277542,1.44182678 17.4192934,1.2132844 17.2215515,1.08569496 C17.0714484,1.01648641 16.9065307,0.985564338 16.7415515,0.995694957 L15.6115515,0.995694957 Z" id="Shape"></path>
            <polygon id="Path" points="23.1215515 1.01569496 20.5315515 1.01569496 20.5315515 2.01569496 22.9015515 2.01569496 22.9015515 2.86569496 20.5315515 2.86569496 20.5315515 4.12569496 23.2315515 4.12569496 23.2315515 5.00569496 19.5315515 5.00569496 19.5315515 0.115694957 23.1215515 0.115694957"></polygon>
            <polygon id="Path" points="26.6015515 0.145694957 27.2515515 2.94569496 27.3915515 3.72569496 27.5315515 2.96569496 28.0815515 0.145694957 29.1615515 0.145694957 29.7415515 2.94569496 29.8915515 3.72569496 30.0415515 2.97569496 30.7015515 0.145694957 31.7015515 0.145694957 30.3215515 5.03569496 29.3215515 5.03569496 28.7315515 2.17569496 28.5615515 1.22569496 28.3915515 2.17569496 27.8015515 5.03569496 26.8515515 5.03569496 25.4615515 0.145694957"></polygon>
            <polygon id="Path" points="33.2715515 5.03569496 32.2715515 5.03569496 32.2715515 0.145694957 33.2715515 0.145694957"></polygon>
            <polygon id="Path" points="37.7715515 0.145694957 37.7715515 1.01569496 36.3115515 1.01569496 36.3115515 5.01569496 35.3115515 5.01569496 35.3115515 1.01569496 33.8415515 1.01569496 33.8415515 0.145694957"></polygon>
            <polygon id="Path" points="38.3615515 5.03569496 38.3615515 0.145694957 39.3615515 0.145694957 39.3615515 2.00569496 41.2615515 2.00569496 41.2615515 0.145694957 42.2615515 0.145694957 42.2615515 5.03569496 41.2615515 5.03569496 41.2615515 2.85569496 39.3615515 2.85569496 39.3615515 5.03569496"></polygon>
            <polygon id="Path" points="45.1715515 0.155694957 48.6515515 0.155694957 48.6515515 1.01569496 46.1815515 1.01569496 46.1815515 2.13569496 48.3515515 2.13569496 48.3515515 2.98569496 46.1815515 2.98569496 46.1815515 4.98569496 45.1815515 4.98569496"></polygon>
            <path d="M52.4515515,0.275694957 C52.6304495,0.349585781 52.7884242,0.46634967 52.9115515,0.615694957 C53.0125468,0.738937496 53.0935358,0.877293706 53.1515515,1.02569496 C53.2139409,1.18836107 53.2444948,1.36149956 53.2415515,1.53569496 C53.2387236,1.77571069 53.1805476,2.0118366 53.0715515,2.22569496 C52.9461369,2.45135757 52.7383067,2.61977172 52.4915515,2.69569496 C52.6887421,2.77170877 52.8567813,2.90824062 52.9715515,3.08569496 C53.0785502,3.32764915 53.1265344,3.59156232 53.1115515,3.85569496 L53.1115515,4.17569496 C53.0958363,4.32862562 53.0958363,4.48276429 53.1115515,4.63569496 C53.1238107,4.75227184 53.1905856,4.85614387 53.2915515,4.91569496 L53.2915515,5.03569496 L52.2015515,5.03569496 C52.1703666,4.95133526 52.1469363,4.86430853 52.1315515,4.77569496 C52.1168108,4.63608297 52.1168108,4.49530694 52.1315515,4.35569496 L52.1315515,3.89569496 C52.1550898,3.67646944 52.0982342,3.45615378 51.9715515,3.27569496 C51.8059314,3.14987301 51.5982568,3.09258346 51.3915515,3.11569496 L50.3915515,3.11569496 L50.3915515,5.03569496 L49.3915515,5.03569496 L49.3915515,0.145694957 L51.7315515,0.145694957 C51.9772346,0.147376173 52.2207935,0.191352072 52.4515515,0.275694957 L52.4515515,0.275694957 Z M50.3415515,0.995694957 L50.3415515,2.30569496 L51.4415515,2.30569496 C51.6089149,2.3181951 51.7768545,2.29077639 51.9315515,2.22569496 C52.1325147,2.11983276 52.2477293,1.90132238 52.2215515,1.67569496 C52.2527976,1.44100998 52.1431154,1.20989385 51.9415515,1.08569496 C51.7944776,1.01809905 51.6331932,0.987214801 51.4715515,0.995694957 L50.3415515,0.995694957 Z" id="Shape"></path>
            <polygon id="Path" points="55.1615515 5.03569496 54.1615515 5.03569496 54.1615515 0.145694957 55.1615515 0.145694957"></polygon>
            <polygon id="Path" points="59.7315515 1.01569496 57.1415515 1.01569496 57.1415515 2.01569496 59.5215515 2.01569496 59.5215515 2.86569496 57.1415515 2.86569496 57.1415515 4.12569496 59.8515515 4.12569496 59.8515515 5.00569496 56.1415515 5.00569496 56.1415515 0.115694957 59.7315515 0.115694957"></polygon>
            <polygon id="Path" points="60.6015515 0.145694957 61.6715515 0.145694957 63.6115515 3.55569496 63.6115515 0.145694957 64.6115515 0.145694957 64.6115515 5.03569496 63.6115515 5.03569496 61.6115515 1.56569496 61.6115515 5.03569496 60.6015515 5.03569496"></polygon>
            <path d="M68.4215515,0.255694957 C68.7593218,0.364592543 69.0513014,0.582697796 69.2515515,0.875694957 C69.4222311,1.11162552 69.5414702,1.38076517 69.6015515,1.66569496 C69.6600507,1.93176256 69.6902188,2.20327553 69.6915515,2.47569496 C69.7098307,3.05051385 69.575251,3.6198892 69.3015515,4.12569496 C68.9737324,4.71753582 68.3372095,5.07072842 67.6615515,5.03569496 L65.6015515,5.03569496 L65.6015515,0.145694957 L67.7115515,0.145694957 C67.9524089,0.146376121 68.1917797,0.183461727 68.4215515,0.255694957 Z M66.5415515,0.995694957 L66.5415515,4.18569496 L67.4915515,4.18569496 C67.9479215,4.20519859 68.3595,3.91297782 68.4915515,3.47569496 C68.5979808,3.17747061 68.6488216,2.8622579 68.6415515,2.54569496 C68.6615853,2.14920881 68.582539,1.75397685 68.4115515,1.39569496 C68.1969282,1.10370156 67.8411291,0.95066973 67.4815515,0.995694957 L66.5415515,0.995694957 Z" id="Shape"></path>
            <path d="M71.1915515,3.52569496 C71.2083095,3.706522 71.2739926,3.87937228 71.3815515,4.02569496 C71.6130499,4.24921567 71.9314853,4.359021 72.2515515,4.32569496 C72.4547549,4.33579963 72.6580945,4.3086877 72.8515515,4.24569496 C73.1111342,4.18490024 73.2938983,3.95229137 73.2915515,3.68569496 C73.295541,3.5277283 73.2105298,3.38089079 73.0715515,3.30569496 C72.8564623,3.19830953 72.6276649,3.12092219 72.3915515,3.07569496 L71.8615515,2.96569496 C71.4856592,2.90160663 71.1236674,2.77304879 70.7915515,2.58569496 C70.4541611,2.34230326 70.2683704,1.94038859 70.3015515,1.52569496 C70.2940873,1.10957639 70.4695494,0.711131101 70.7815515,0.435694957 C71.1850469,0.120965317 71.6912396,-0.0323184005 72.2015515,0.00569495716 C72.6813701,-0.0103518658 73.1528606,0.13391014 73.5415515,0.415694957 C73.9114009,0.69896875 74.1262849,1.13985145 74.1215515,1.60569496 L73.1215515,1.60569496 C73.1274237,1.33709009 72.9745933,1.09021023 72.7315515,0.975694957 C72.5399922,0.889818523 72.3313654,0.848777178 72.1215515,0.855694957 C71.8937554,0.842780432 71.6673249,0.898517175 71.4715515,1.01569496 C71.3169198,1.10725542 71.2248145,1.27611517 71.2315515,1.45569496 C71.2247348,1.62242122 71.3196425,1.77664609 71.4715515,1.84569496 C71.6781415,1.94154127 71.8968149,2.00882538 72.1215515,2.04569496 L72.9815515,2.25569496 C73.2834057,2.31079128 73.5698817,2.4301563 73.8215515,2.60569496 C74.1243981,2.84588286 74.2890734,3.22014494 74.2615515,3.60569496 C74.2726388,4.03692727 74.0799723,4.44819615 73.7415515,4.71569496 C73.3268288,5.04022196 72.8070089,5.20044044 72.2815515,5.16569496 C71.7398034,5.19428827 71.2042536,5.0392607 70.7615515,4.72569496 C70.3948793,4.43822879 70.1899536,3.99111826 70.2115515,3.52569496 L71.1915515,3.52569496 Z" id="Path"></path>
        </g>
        <g id="wide-image" transform="translate(112.670000, 39.000000)" fill-rule="nonzero">
            <g id="image" transform="translate(0.330000, 0.000000)">
                <polygon id="Path" fill="#FFFFFF" points="126.132218 61.88 93.5809205 14.21 66.8508787 45.22 48.3079498 39.41 17.45841 61.88"></polygon>
                <g id="sun" transform="translate(0.330000, 0.000000)">
                    <path d="M1.37642199,6.36 L1.37642199,11.26 C1.37737902,12.4523649 2.0378265,13.5538177 3.10933054,14.15 L7.51937238,16.6 C8.59052696,17.2007899 9.91399187,17.2007899 10.9851464,16.6 L15.3848117,14.15 C16.4618812,13.5578874 17.1271543,12.4549911 17.1280758,11.26 L17.1280758,6.36 C17.1287171,5.16199433 16.4635247,4.05541591 15.3848117,3.46 L10.9747699,1 C9.9036153,0.399210139 8.58015039,0.399210139 7.50899582,1 L3.09895397,3.45 C2.02815269,4.05529576 1.3720906,5.16364355 1.37642199,6.36 L1.37642199,6.36 Z" id="Path" fill="#FFFFFF"></path>
                    <path d="M9.17007048,17.9999857 C8.46221659,18.00185 7.76637937,17.8210878 7.15278262,17.475927 L2.68743059,14.9584595 C1.44240744,14.2481877 0.674918983,12.9463828 0.67007048,11.5367588 L0.67007048,6.50182385 C0.661522295,5.08063559 1.43108048,3.76356055 2.68743059,3.04929702 L7.15278262,0.531829542 C8.39991255,-0.177276514 9.94022959,-0.177276514 11.1873595,0.531829542 L15.6422048,3.04929702 C16.8944167,3.75389521 17.667342,5.05812915 17.67,6.47099771 L17.67,11.5059327 C17.6651849,12.9182311 16.8928386,14.2214881 15.6422048,14.9276334 L11.1873595,17.4348255 C10.5772705,17.7930238 9.88155214,17.9879301 9.17007048,17.9999857 L9.17007048,17.9999857 Z M9.17007107,1.0558681 C8.6448211,1.05484462 8.12914787,1.19335485 7.67811816,1.45661351 L3.21276612,3.96380561 C2.29242738,4.49314188 1.72545277,5.45764409 1.72081321,6.50182385 L1.72081321,11.5367588 C1.72704487,12.5778226 2.29408881,13.5385375 3.21276612,14.0645017 L7.67811816,16.5819691 C8.60075739,17.1053854 9.73938475,17.1053854 10.662024,16.5819691 L15.1168693,14.0645017 C16.0411448,13.5426445 16.6130369,12.5804913 16.6193289,11.5367588 L16.6193289,6.50182385 C16.6146237,5.45498311 16.0428062,4.48904471 15.1168693,3.96380561 L10.662024,1.45661351 C10.210377,1.19477361 9.69511078,1.05637272 9.17007107,1.0558681 L9.17007107,1.0558681 Z" id="Shape" fill="#C9292C"></path>
                </g>
            </g>
        </g>
        <g id="Group" transform="translate(20.000000, 81.000000)" fill="#FFFFFF" fill-rule="nonzero" font-family="Helvetica-Bold, Helvetica" font-size="12.25" font-weight="bold">
            <text id="P">
                <tspan x="0" y="11">P</tspan>
            </text>
            <text id="AGE-TITLE">
                <tspan x="7.27" y="11">AGE TITLE</tspan>
            </text>
        </g>
        <g id="paragraph" transform="translate(76.250000, 59.850000)" fill="#81A0B4" fill-rule="nonzero">
            <rect id="Rectangle" x="0.75" y="19.15" width="44" height="1"></rect>
            <rect id="Rectangle" x="0.75" y="12.15" width="77" height="1"></rect>
            <rect id="Rectangle" x="0.75" y="6.15" width="77" height="1"></rect>
            <rect id="Rectangle" x="0.75" y="0.15" width="77" height="1"></rect>
        </g>
        <g id="paragraph-copy" transform="translate(40.250000, 131.850000)" fill="#81A0B4" fill-rule="nonzero">
            <rect id="Rectangle" x="0.75" y="19.15" width="48" height="1"></rect>
            <rect id="Rectangle" x="0.75" y="12.15" width="84" height="1"></rect>
            <rect id="Rectangle" x="0.75" y="6.15" width="84" height="1"></rect>
            <rect id="Rectangle" x="0.75" y="0.15" width="84" height="1"></rect>
        </g>
        <g id="paragraph-copy-3" transform="translate(130.000000, 191.000000)" fill="#81A0B4" fill-rule="nonzero">
            <rect id="Rectangle" x="0.75" y="13.15" width="22" height="1"></rect>
            <rect id="Rectangle" x="0.75" y="6.15" width="38" height="1"></rect>
            <rect id="Rectangle" x="0.75" y="0.15" width="38" height="1"></rect>
        </g>
        <g id="paragraph-copy-4" transform="translate(41.250000, 162.162500)" fill="#81A0B4" fill-rule="nonzero">
            <rect id="Rectangle" x="0.75" y="7.8375" width="48" height="1"></rect>
            <rect id="Rectangle" x="0.75" y="0.8375" width="83" height="1"></rect>
        </g>
        <g id="paragraph-copy" transform="translate(129.000000, 213.000000)" fill="#81A0B4" fill-rule="nonzero">
            <rect id="Rectangle" x="0.75" y="7.15" width="21" height="1"></rect>
            <rect id="Rectangle" x="1.75" y="0.15" width="36" height="1"></rect>
        </g>
        <g id="image" transform="translate(58.000000, 190.000000)" fill-rule="nonzero">
            <g id="Group" opacity="0.68" fill="#81A0B4">
                <rect id="Rectangle" x="0.840784314" y="0.157894737" width="66.0409804" height="49.5921053"></rect>
            </g>
            <polygon id="Path" fill="#FFFFFF" points="4 49.5391368 19.3782555 29.5940015 31.3220339 37.9279444 47.4051261 15 66 50"></polygon>
            <path d="M47.1748041,12.9616602 L65.3674905,48.9574393 L3.98513161,48.4773127 L18.756078,28.3119944 L30.1575246,36.6661977 L30.9541893,37.2560675 L31.5157726,36.4192754 L47.1748041,12.9616602 M47.2923448,11 L30.7191079,35.8294056 L18.5601768,26.9127682 L2,49.4924376 L67,50 L47.2401045,11.0411537 L47.2923448,11 Z" id="Shape" fill="#81A0B4"></path>
            <path d="M21,14.7772932 L21,17.2227068 C20.9934001,18.1560613 21.5209733,19.0197381 22.3789272,19.4800117 L24.6273463,20.6556914 C25.482601,21.1147695 26.5298213,21.1147695 27.3850759,20.6556914 L29.6210728,19.4800117 C30.4790267,19.0197381 31.0065999,18.1560613 31,17.2227068 L31,14.7772932 C31.0013656,13.8452568 30.4752079,12.9838973 29.6210728,12.5199883 L27.3850759,11.3443086 C26.5298213,10.8852305 25.482601,10.8852305 24.6273463,11.3443086 L22.3789272,12.5199883 C21.5247921,12.9838973 20.9986344,13.8452568 21,14.7772932 L21,14.7772932 Z" id="Path" stroke="#C9292C" stroke-width="0.8" fill="#FFFFFF"></path>
        </g>
        <rect id="Rectangle" fill="#81A0B4" fill-rule="nonzero" x="41.25" y="121" width="84" height="4.76"></rect>
        <polygon id="Path" fill-opacity="0.5" fill="#81A0B4" fill-rule="nonzero" points="207.250955 49.67 178.727273 82.1472394 158.921314 75.6876211 126 100.67 242 100.67"></polygon>
        <g id="social-icons" transform="translate(154.369982, 82.450000)" fill-rule="nonzero">
            <path d="M9.20828077e-06,5.42 C0.0055416215,2.43475019 2.42809129,0.0181692403 5.41334564,0.0200092368 C8.3986,0.0218513359 10.8181671,2.44141848 10.8200092,5.42667284 C10.8218492,8.41192719 8.40526829,10.8344769 5.42001848,10.8400093 C3.98173098,10.842661 2.60158612,10.2724815 1.58456154,9.25545695 C0.567536951,8.23843236 -0.00264255736,6.8582875 9.20828077e-06,5.42 L9.20828077e-06,5.42 Z M6.09001848,7.42 L6.09001848,7.42 L8.79001848,4.74 L6.09001848,2.03 L6.09001848,3.37 L6.09001848,3.37 C5.90923744,3.37674636 5.72896477,3.39343828 5.55001848,3.42 C5.30153345,3.45167363 5.05693171,3.50863568 4.82001848,3.59 C4.16656073,3.81613845 3.58149263,4.20503666 3.12001848,4.72 C2.8447048,5.01540616 2.61850415,5.35301908 2.45001848,5.72 C2.30174526,6.03855864 2.19423064,6.37454182 2.13001848,6.72 C2.11499733,6.91971796 2.11499733,7.12028204 2.13001848,7.32 L2.13001848,7.37 L2.13001848,7.37 C2.26024732,7.18340092 2.4075483,7.00931794 2.57001848,6.85 C2.93017616,6.51781759 3.36098127,6.27164324 3.83001848,6.13 C4.1901664,6.02003825 4.56357706,5.95948517 4.94001848,5.95 C5.27445675,5.94122112 5.60902921,5.96129547 5.94001848,6.01 L6.15001848,6.01 L6.09001848,7.42 Z" id="Shape" fill="#3B5999"></path>
            <path d="M6.09001848,7.44 L6.09001848,6.1 L5.88001848,6.1 C5.54902921,6.05129547 5.21445675,6.03122112 4.88001848,6.04 C4.50357706,6.04948517 4.1301664,6.11003825 3.77001848,6.22 C3.30098127,6.36164324 2.87017616,6.60781759 2.51001848,6.94 C2.3475483,7.09931794 2.20024732,7.27340092 2.07001848,7.46 L2.07001848,7.46 L2.07001848,7.41 C2.05499733,7.21028204 2.05499733,7.00971796 2.07001848,6.81 C2.13423064,6.46454182 2.24174526,6.12855864 2.39001848,5.81 C2.55850415,5.44301908 2.7847048,5.10540616 3.06001848,4.81 C3.52149263,4.29503666 4.10656073,3.90613845 4.76001848,3.68 C4.99693171,3.59863568 5.24153345,3.54167363 5.49001848,3.51 C5.66896477,3.48343828 5.84923744,3.46674636 6.03001848,3.46 L6.03001848,3.46 L6.03001848,2.12 L8.73001848,4.83 L6.03001848,7.51 L6.09001848,7.44 Z" id="Path" fill="#FFFFFF"></path>
            <path d="M12.2700092,5.42 C12.2755389,2.43344747 14.7001175,0.0163255105 17.6866728,0.0199999106 C20.6732282,0.0236826971 23.091845,2.44677011 23.0900093,5.43332717 C23.0881715,8.41988424 20.6665761,10.84 17.6800185,10.84 C16.243463,10.84 14.8658907,10.2686494 13.8510309,9.25191379 C12.8361712,8.23517814 12.2673631,6.85655305 12.2700092,5.42 L12.2700092,5.42 Z M18.3500185,7.42 L18.3500185,7.42 L21.0500185,4.74 L18.3400185,2.03 L18.3400185,3.37 L18.3400185,3.37 C18.1592374,3.37674636 17.9789648,3.39343828 17.8000185,3.42 C17.5515334,3.45167363 17.3069317,3.50863568 17.0700185,3.59 C16.4165607,3.81613845 15.8314926,4.20503666 15.3700185,4.72 C15.0947048,5.01540616 14.8685041,5.35301908 14.7000185,5.72 C14.5517453,6.03855864 14.4442306,6.37454182 14.3800185,6.72 C14.3649973,6.91971796 14.3649973,7.12028204 14.3800185,7.32 L14.3800185,7.37 L14.3800185,7.37 C14.5102473,7.18340092 14.6575483,7.00931794 14.8200185,6.85 C15.1764542,6.5179892 15.6039826,6.27173286 16.0700185,6.13 C16.4337383,6.02068807 16.8103634,5.96015904 17.1900185,5.95 C17.5244568,5.94122112 17.8590292,5.96129547 18.1900185,6.01 L18.3900185,6.01 L18.3500185,7.42 Z" id="Shape" fill="#2BAAE1"></path>
            <path d="M18.3500185,7.44 L18.3500185,6.1 L18.1500185,6.1 C17.8190292,6.05129547 17.4844568,6.03122112 17.1500185,6.04 C16.7703634,6.05015904 16.3937383,6.11068807 16.0300185,6.22 C15.5639826,6.36173286 15.1364542,6.6079892 14.7800185,6.94 C14.6175483,7.09931794 14.4702473,7.27340092 14.3400185,7.46 L14.3400185,7.46 L14.3400185,7.41 C14.3249973,7.21028204 14.3249973,7.00971796 14.3400185,6.81 C14.4042306,6.46454182 14.5117453,6.12855864 14.6600185,5.81 C14.8285041,5.44301908 15.0547048,5.10540616 15.3300185,4.81 C15.7914926,4.29503666 16.3765607,3.90613845 17.0300185,3.68 C17.2669317,3.59863568 17.5115334,3.54167363 17.7600185,3.51 C17.9389648,3.48343828 18.1192374,3.46674636 18.3000185,3.46 L18.3000185,3.46 L18.3000185,2.12 L21.0100185,4.83 L18.3100185,7.51 L18.3500185,7.44 Z" id="Path" fill="#FFFFFF"></path>
            <path d="M24.5400092,5.42 C24.5455389,2.43344747 26.9701175,0.0163255105 29.9566728,0.0199999106 C32.9432282,0.0236826971 35.361845,2.44677011 35.3600093,5.43332717 C35.3581715,8.41988424 32.9365761,10.84 29.9500185,10.84 C28.513463,10.84 27.1358907,10.2686494 26.1210309,9.25191379 C25.1061712,8.23517814 24.5373631,6.85655305 24.5400092,5.42 L24.5400092,5.42 Z M30.6200185,7.42 L30.6200185,7.42 L33.3200185,4.74 L30.6300185,2.06 L30.6300185,3.4 L30.6300185,3.4 C30.4492374,3.40674636 30.2689648,3.42343828 30.0900185,3.45 C29.8415334,3.48167363 29.5969317,3.53863568 29.3600185,3.62 C28.6963349,3.84278959 28.1007533,4.23181108 27.6300185,4.75 C27.3610595,5.04830638 27.138564,5.38542078 26.9700185,5.75 C26.8175933,6.06692032 26.7098989,6.40346535 26.6500185,6.75 C26.6349973,6.94971796 26.6349973,7.15028204 26.6500185,7.35 L26.6500185,7.4 L26.6500185,7.4 C26.7802473,7.21340092 26.9275483,7.03931794 27.0900185,6.88 C27.4464542,6.5479892 27.8739826,6.30173286 28.3400185,6.16 C28.7037383,6.05068807 29.0803634,5.99015904 29.4600185,5.98 C29.7944708,5.97035068 30.1291193,5.99042958 30.4600185,6.04 L30.6700185,6.04 L30.6200185,7.42 Z" id="Shape" fill="#F15922"></path>
            <path d="M30.6300185,7.44 L30.6300185,6.1 L30.4200185,6.1 C30.0891193,6.05042958 29.7544708,6.03035068 29.4200185,6.04 C29.0403634,6.05015904 28.6637383,6.11068807 28.3000185,6.22 C27.8339826,6.36173286 27.4064542,6.6079892 27.0500185,6.94 C26.8875483,7.09931794 26.7402473,7.27340092 26.6100185,7.46 L26.6100185,7.46 L26.6100185,7.41 C26.5949973,7.21028204 26.5949973,7.00971796 26.6100185,6.81 C26.6698989,6.46346535 26.7775933,6.12692032 26.9300185,5.81 C27.098564,5.44542078 27.3210595,5.10830638 27.5900185,4.81 C28.0551577,4.29463565 28.6435428,3.90581976 29.3000185,3.68 C29.5369317,3.59863568 29.7815334,3.54167363 30.0300185,3.51 C30.2089648,3.48343828 30.3892374,3.46674636 30.5700185,3.46 L30.5700185,3.46 L30.5700185,2.12 L33.2800185,4.83 L30.6300185,7.45 L30.6300185,7.44 Z" id="Path" fill="#FFFFFF"></path>
            <path d="M36.8000185,5.42 C36.8000185,2.42661666 39.2266351,-1.56319402e-13 42.2200185,-1.56319402e-13 C45.2134018,-1.56319402e-13 47.6400185,2.42661666 47.6400185,5.42 C47.6400185,8.41338334 45.2134018,10.84 42.2200185,10.84 C39.2266351,10.84 36.8000185,8.41338334 36.8000185,5.42 L36.8000185,5.42 Z M42.8900185,7.42 L42.8900185,7.42 L45.5800185,4.74 L42.8800185,2.03 L42.8800185,3.37 L42.8800185,3.37 C42.7025893,3.37724326 42.5256719,3.39393358 42.3500185,3.42 C42.1015334,3.45167363 41.8569317,3.50863568 41.6200185,3.59 C40.961551,3.81175897 40.372203,4.20121114 39.9100185,4.72 C39.6410595,5.01830638 39.418564,5.35542078 39.2500185,5.72 C39.0975933,6.03692032 38.9898989,6.37346535 38.9300185,6.72 C38.9052323,6.91923206 38.9052323,7.12076794 38.9300185,7.32 L38.9300185,7.37 L38.9300185,7.37 C39.0572031,7.18107905 39.2047546,7.00670002 39.3700185,6.85 C39.7264542,6.5179892 40.1539826,6.27173286 40.6200185,6.13 C40.9837383,6.02068807 41.3603634,5.96015904 41.7400185,5.95 C42.0744708,5.94035068 42.4091193,5.96042958 42.7400185,6.01 L42.9500185,6.01 L42.8900185,7.42 Z" id="Shape" fill="#231F20"></path>
            <path d="M42.8900185,7.44 L42.8900185,6.1 L42.6800185,6.1 C42.3491193,6.05042958 42.0144708,6.03035068 41.6800185,6.04 C41.3003634,6.05015904 40.9237383,6.11068807 40.5600185,6.22 C40.0939826,6.36173286 39.6664542,6.6079892 39.3100185,6.94 C39.1447546,7.09670002 38.9972031,7.27107905 38.8700185,7.46 L38.8700185,7.46 L38.8700185,7.41 C38.8452323,7.21076794 38.8452323,7.00923206 38.8700185,6.81 C38.9298989,6.46346535 39.0375933,6.12692032 39.1900185,5.81 C39.358564,5.44542078 39.5810595,5.10830638 39.8500185,4.81 C40.312203,4.29121114 40.901551,3.90175897 41.5600185,3.68 C41.7969317,3.59863568 42.0415334,3.54167363 42.2900185,3.51 C42.4656719,3.48393358 42.6425893,3.46724326 42.8200185,3.46 L42.8200185,3.46 L42.8200185,2.12 L45.5200185,4.83 L42.8300185,7.51 L42.8900185,7.44 Z" id="Path" fill="#FFFFFF"></path>
        </g>
        <g id="heading" transform="translate(41.000000, 107.000000)" fill="#81A0B4" fill-rule="nonzero">
            <polygon id="Path" points="0 8.95554351 0 0.245543514 1.81 0.245543514 1.81 3.56554351 5.2 3.56554351 5.2 0.245543514 7 0.245543514 7 8.95554351 5.2 8.95554351 5.2 5.06554351 1.81 5.06554351 1.81 8.95554351"></polygon>
            <polygon id="Path" points="15.21 1.78554351 10.6 1.78554351 10.6 3.67554351 14.83 3.67554351 14.83 5.18554351 10.6 5.18554351 10.6 7.42554351 15.42 7.42554351 15.42 8.99554351 8.82 8.99554351 8.82 0.245543514 15.21 0.245543514"></polygon>
            <path d="M19.33,0.245543514 L21.39,0.245543514 L24.47,8.95554351 L22.47,8.95554351 L21.9,7.16554351 L18.69,7.16554351 L18.1,8.95554351 L16.2,8.95554351 L19.33,0.245543514 Z M19.21,5.67554351 L21.44,5.67554351 L20.34,2.25554351 L19.21,5.67554351 Z" id="Shape"></path>
            <path d="M30.68,0.425543514 C31.2835978,0.624748475 31.8063812,1.01420453 32.17,1.53554351 C32.4688183,1.95938691 32.6796384,2.43883264 32.79,2.94554351 C32.8953845,3.41832286 32.9490333,3.9011622 32.95,4.38554351 C32.9849556,5.41062664 32.7431523,6.42620036 32.25,7.32554351 C31.6692361,8.38333646 30.5352021,9.01637601 29.33,8.95554351 L25.58,8.95554351 L25.58,0.245543514 L29.33,0.245543514 C29.786404,0.238814703 30.2413032,0.299467925 30.68,0.425543514 L30.68,0.425543514 Z M27.34,1.75554351 L27.34,7.43554351 L29,7.43554351 C29.8182,7.46810856 30.5563507,6.94730225 30.8,6.16554351 C31.0000384,5.63558709 31.095136,5.07179442 31.08,4.50554351 C31.1119333,3.81404192 30.9673994,3.12578526 30.66,2.50554351 C30.2794518,1.98147212 29.6418214,1.70875067 29,1.79554351 L27.34,1.75554351 Z" id="Shape"></path>
            <polygon id="Path" points="36 8.95554351 34.19 8.95554351 34.19 0.245543514 36 0.245543514"></polygon>
            <polygon id="Path" points="37.65 0.245543514 39.56 0.245543514 43 6.31554351 43 0.245543514 44.69 0.245543514 44.69 8.95554351 42.87 8.95554351 39.33 2.77554351 39.33 8.95554351 37.63 8.95554351"></polygon>
            <path d="M52.28,2.95554351 C52.1713028,2.40270777 51.7972592,1.9388937 51.28,1.71554351 C50.9638645,1.58114973 50.6235073,1.51307828 50.28,1.51554351 C49.6111298,1.50263427 48.9733675,1.79755323 48.55,2.31554351 C48.0475614,3.00278995 47.8064748,3.84659311 47.87,4.69554351 C47.7892562,5.52056969 48.0534915,6.34223286 48.6,6.96554351 C49.0487118,7.39700142 49.6475088,7.63723735 50.27,7.63554351 C50.8192194,7.65614603 51.3556375,7.46661163 51.77,7.10554351 C52.1630732,6.74731766 52.4178929,6.26245229 52.49,5.73554351 L50.49,5.73554351 L50.49,4.27554351 L54.12,4.27554351 L54.12,8.95554351 L52.91,8.95554351 L52.73,7.86554351 C52.4445759,8.20640898 52.1070804,8.50003004 51.73,8.73554351 C51.1916584,9.04211334 50.5792276,9.19435604 49.96,9.17554351 C48.8835782,9.20914342 47.8461954,8.77081264 47.12,7.97554351 C46.3235185,7.06776782 45.9205972,5.88058903 46,4.67554351 C45.939459,3.43711858 46.3584925,2.22299594 47.17,1.28554351 C47.9590108,0.433463033 49.0793786,-0.0336610065 50.24,0.00554351399 C51.2021188,-0.0451463564 52.1502064,0.253128407 52.91,0.845543514 C53.5593797,1.3644143 53.9765294,2.11959911 54.07,2.94554351 L52.28,2.95554351 Z" id="Path"></path>
        </g>
        <g id="vert-image" transform="translate(143.000000, 105.000000)" fill-rule="nonzero">
            <g id="Group" opacity="0.68" fill="#81A0B4">
                <g opacity="0.62" id="Path">
                    <polygon points="0.0561743341 0.755323077 0.0561743341 67.9790769 52.8401937 67.9790769 52.8401937 0.755323077"></polygon>
                </g>
            </g>
            <polygon id="Path" fill="#81A0B4" points="53 68 36.4317563 28 23.1850384 57.7967213 13.2467179 47.8688525 0 68"></polygon>
            <path d="M14.0006595,16.2892287 L14.0006595,20.7107713 C13.9810133,21.8096948 14.5299188,22.8330339 15.4336848,23.3823983 L19.0606339,25.5998487 C19.9533699,26.1333838 21.0466301,26.1333838 21.9393661,25.5998487 L25.5663152,23.3823983 C26.4700812,22.8330339 27.0189867,21.8096948 26.9993405,20.7107713 L26.9993405,16.2892287 C27.021741,15.1895734 26.4720976,14.1648586 25.5663152,13.6176017 L21.9393661,11.4001513 C21.0466301,10.8666162 19.9533699,10.8666162 19.0606339,11.4001513 L15.4336848,13.6176017 C14.5279024,14.1648586 13.978259,15.1895734 14.0006595,16.2892287 L14.0006595,16.2892287 Z" id="Path" fill="#FFFFFF"></path>
            <path d="M20.5570674,11.7446807 C20.9476811,11.7465236 21.331532,11.8517233 21.6730517,12.0505317 L25.3000007,14.2579781 C25.9908431,14.6730396 26.4167036,15.4443602 26.4160337,16.2792543 L26.4160337,20.6808492 C26.4212736,21.5204912 25.9947964,22.2980105 25.3000007,22.7154233 L21.6730517,24.9228697 C20.975222,25.3300717 20.1262311,25.3300717 19.4284014,24.9228697 L15.7507258,22.7021254 C15.0559301,22.2847127 14.6294529,21.5071933 14.6346929,20.6675514 L14.6346929,16.2659564 C14.6340229,15.4310623 15.0598834,14.6597417 15.7507258,14.2446802 L19.3776749,12.0372338 C19.72316,11.8367941 20.1115006,11.7315598 20.5063408,11.7313828 M20.5063408,11.0664893 C19.9996458,11.0661261 19.5015243,11.2035805 19.0606339,11.4654254 L15.4336848,13.6728718 C14.5279024,14.2176597 13.978259,15.2377516 14.0006595,16.3324458 L14.0006595,20.7340407 C13.9810133,21.8280065 14.5299188,22.8467288 15.4336848,23.3936147 L19.0606339,25.6010611 C19.5015243,25.862906 19.9996458,26.0003603 20.5063408,26 C21.0089639,26 21.5028777,25.8623853 21.9393661,25.6010611 L25.5663152,23.3936147 C26.4700812,22.8467288 27.0189867,21.8280065 26.9993405,20.7340407 L26.9993405,16.2659564 C27.021741,15.1712622 26.4720976,14.1511704 25.5663152,13.6063825 L21.9393661,11.3989361 C21.5028777,11.1376118 21.0089639,11 20.5063408,11 L20.5063408,11.0664893 Z" id="Shape" fill="#C9292C"></path>
        </g>
        <g id="paragraph-copy-3" transform="translate(60.000000, 246.000000)" fill="#81A0B4" fill-rule="nonzero">
            <rect id="Rectangle" x="0" y="19" width="16" height="1"></rect>
            <rect id="Rectangle" x="0" y="12" width="28" height="1"></rect>
            <rect id="Rectangle" x="0" y="6" width="28" height="1"></rect>
            <rect id="Rectangle" x="0" y="0" width="28" height="1"></rect>
        </g>
        <g id="paragraph-copy" transform="translate(97.000000, 246.000000)" fill="#81A0B4" fill-rule="nonzero">
            <rect id="Rectangle" x="0" y="13" width="15" height="1"></rect>
            <rect id="Rectangle" x="0" y="6" width="27" height="1"></rect>
            <rect id="Rectangle" x="0" y="0" width="27" height="1"></rect>
        </g>
        <g id="img-vert" transform="translate(130.000000, 226.000000)" fill-rule="nonzero">
            <g id="Group" opacity="0.62" fill="#81A0B4">
                <path d="M0,0.722647059 L0,26.5076471 L37,26.5076471 L37,0.722647059 L0,0.722647059 Z M17.2404255,11.1176471 C17.2415742,11.5354213 17.0227837,11.9224085 16.6657447,12.1341176 L15.2014894,12.9997059 C14.8477071,13.2135987 14.4059099,13.2135987 14.0521277,12.9997059 L12.5957447,12.15 C12.234483,11.9415058 12.0120403,11.5533756 12.013187,11.1335294 L12.013187,9.40235294 C12.0120403,8.98250676 12.234483,8.59437659 12.5957447,8.38588235 L14.06,7.52029412 C14.4156137,7.31318515 14.853748,7.31318515 15.2093617,7.52029412 L16.673617,8.38588235 C17.030656,8.59759148 17.2494465,8.98457869 17.2483024,9.40235294 L17.2404255,11.1176471 Z" id="Shape"></path>
            </g>
            <g id="Group" opacity="0.62" transform="translate(0.000000, 9.000000)" fill="#81A0B4">
                <polygon id="Path" points="37 17.4913043 25.9157447 0.532173913 16.8153191 11.5669565 10.5017021 9.50086957 0 17.4913043"></polygon>
            </g>
            <path d="M12,9.45006627 L12,11.5499337 C12.0068938,12.0625967 12.3171369,12.5314182 12.8101847,12.7742381 L14.746526,13.8056217 C15.2264336,14.0647928 15.8221729,14.0647928 16.3020805,13.8056217 L18.2384218,12.7742381 C18.7115029,12.518812 19.0013294,12.0528875 19,11.5499337 L19,9.45006627 C19.0013294,8.94711254 18.7115029,8.48118795 18.2384218,8.22576192 L16.3020805,7.19437826 C15.8221729,6.93520725 15.2264336,6.93520725 14.746526,7.19437826 L12.8101847,8.22576192 C12.3171369,8.4685818 12.0068938,8.93740332 12,9.45006627 L12,9.45006627 Z" id="Path" fill="#FFFFFF"></path>
            <path d="M15.524078,7.37146083 C15.7243571,7.36996773 15.9213279,7.41865053 16.0940314,7.51232905 L18.0045794,8.54289128 C18.3505887,8.73259987 18.5637889,9.0757845 18.5665053,9.44741354 L18.5665053,11.5456086 C18.5653901,11.9176355 18.3517687,12.2614982 18.0045794,12.4501309 L16.0940314,13.4806931 C15.9219729,13.5766258 15.7250545,13.6278573 15.524078,13.6289754 C15.322931,13.6289754 15.1256912,13.57767 14.9541246,13.4806931 L13.0355491,12.4501309 C12.6883598,12.2614982 12.4747384,11.9176355 12.4736232,11.5456086 L12.4736232,9.44741354 C12.4763396,9.0757845 12.6895398,8.73259987 13.0355491,8.54289128 L14.9541246,7.51232905 C15.1263467,7.41759237 15.3236438,7.36882894 15.524078,7.37146083 M15.524078,7.00075498 C15.2419499,6.99203608 14.9631283,7.05899036 14.7213268,7.19352202 L12.8027513,8.22408426 C12.3142272,8.46671075 12.0068306,8.93515889 12,9.44741354 L12,11.5456086 C12.0068306,12.0578632 12.3142272,12.5263114 12.8027513,12.7689379 L14.7213268,13.7995001 C14.9626346,13.9358473 15.24126,14.0053278 15.524078,13.9996813 C15.8067866,14.0045021 16.085166,13.9350829 16.3268293,13.7995001 L18.2454048,12.7689379 C18.7141453,12.5137153 19.0013127,12.0481618 19,11.5456086 L19,9.44741354 C19.0013127,8.94486038 18.7141453,8.47930686 18.2454048,8.22408426 L16.3268293,7.19352202 C16.0844989,7.0601552 15.8060537,6.99329133 15.524078,7.00075498 L15.524078,7.00075498 Z" id="Shape" fill="#C9292C"></path>
        </g>
        <rect id="Rectangle" fill="#81A0B4" fill-rule="nonzero" x="129.75" y="258.15" width="22" height="1"></rect>
    </g>
</svg>