<?xml version="1.0" encoding="UTF-8"?>
<svg width="240px" height="267px" viewBox="0 0 240 267" version="1.1" xmlns="http://www.w3.org/2000/svg" xmlns:xlink="http://www.w3.org/1999/xlink">
    <title>c9-editorial-1200</title>
    <g id="c9-editorial-1200" stroke="none" stroke-width="1" fill="none" fill-rule="evenodd">
        <rect id="bg" fill="#FFFFFF" x="1" y="-2" width="239" height="270"></rect>
        <rect id="Rectangle" fill="#81A0B4" fill-rule="nonzero" x="80" y="175" width="67.66" height="1"></rect>
        <g id="share" transform="translate(138.000000, 244.000000)" fill="#81A0B4" fill-rule="nonzero">
            <path d="M0.98155153,3.52569496 C1.0031813,3.70535752 1.0684083,3.87700752 1.17155153,4.02569496 C1.40304988,4.24921567 1.72148533,4.359021 2.04155153,4.32569496 C2.24475493,4.33579963 2.44809445,4.3086877 2.64155153,4.24569496 C2.90113419,4.18490024 3.0838983,3.95229137 3.08155153,3.68569496 C3.08554102,3.5277283 3.00052983,3.38089079 2.86155153,3.30569496 C2.64646225,3.19830953 2.4176649,3.12092219 2.18155153,3.07569496 L1.65155153,2.96569496 C1.27565916,2.90160663 0.913667363,2.77304879 0.58155153,2.58569496 C0.244161138,2.34230326 0.0583703915,1.94038859 0.0915515302,1.52569496 C0.0840872867,1.10957639 0.259549431,0.711131101 0.57155153,0.435694957 C0.975046889,0.120965317 1.48123963,-0.0323184005 1.99155153,0.00569495716 C2.4713701,-0.0103518658 2.94286056,0.13391014 3.33155153,0.415694957 C3.70140088,0.69896875 3.91628488,1.13985145 3.91155153,1.60569496 L2.91155153,1.60569496 C2.91742371,1.33709009 2.76459332,1.09021023 2.52155153,0.975694957 C2.32999225,0.889818523 2.12136541,0.848777178 1.91155153,0.855694957 C1.68375543,0.842780432 1.45732491,0.898517175 1.26155153,1.01569496 C1.10691981,1.10725542 1.01481449,1.27611517 1.02155153,1.45569496 C1.01473484,1.62242122 1.10964245,1.77664609 1.26155153,1.84569496 C1.46814151,1.94154127 1.68681486,2.00882538 1.91155153,2.04569496 L2.77155153,2.25569496 C3.07340566,2.31079128 3.35988171,2.4301563 3.61155153,2.60569496 C3.91439809,2.84588286 4.07907341,3.22014494 4.05155153,3.60569496 C4.06263882,4.03692727 3.86997231,4.44819615 3.53155153,4.71569496 C3.11682883,5.04022196 2.5970089,5.20044044 2.07155153,5.16569496 C1.52980339,5.19428827 0.994253627,5.0392607 0.55155153,4.72569496 C0.184879293,4.43822879 -0.0200463669,3.99111826 0.00155153018,3.52569496 L0.98155153,3.52569496 Z" id="Path"></path>
            <polygon id="Path" points="4.77155153 5.03569496 4.77155153 0.145694957 5.77155153 0.145694957 5.77155153 2.00569496 7.67155153 2.00569496 7.67155153 0.145694957 8.67155153 0.145694957 8.67155153 5.03569496 7.67155153 5.03569496 7.67155153 2.85569496 5.77155153 2.85569496 5.77155153 5.03569496"></polygon>
            <path d="M11.0815515,0.145694957 L12.2415515,0.145694957 L13.9715515,5.03569496 L12.8615515,5.03569496 L12.5415515,4.03569496 L10.7415515,4.03569496 L10.4115515,5.03569496 L9.34155153,5.03569496 L11.0815515,0.145694957 Z M11.0215515,3.14569496 L12.2715515,3.14569496 L11.6515515,1.22569496 L11.0215515,3.14569496 Z" id="Shape"></path>
            <path d="M17.7315515,0.275694957 C17.9090189,0.347169438 18.0643145,0.464503899 18.1815515,0.615694957 C18.2890713,0.736060845 18.3737852,0.874991602 18.4315515,1.02569496 C18.4939409,1.18836107 18.5244948,1.36149956 18.5215515,1.53569496 C18.5199243,1.77709269 18.4580534,2.01426452 18.3415515,2.22569496 C18.2161369,2.45135757 18.0083067,2.61977172 17.7615515,2.69569496 C17.9617627,2.76640881 18.1313507,2.90419907 18.2415515,3.08569496 C18.3533146,3.32616076 18.4015178,3.59127837 18.3815515,3.85569496 L18.3815515,4.17569496 C18.3658363,4.32862562 18.3658363,4.48276429 18.3815515,4.63569496 C18.4016206,4.75202945 18.470861,4.8540679 18.5715515,4.91569496 L18.5715515,5.03569496 L17.4715515,5.03569496 C17.4715515,4.92569496 17.4215515,4.83569496 17.4115515,4.77569496 C17.3968108,4.63608297 17.3968108,4.49530694 17.4115515,4.35569496 L17.4115515,3.89569496 C17.4331472,3.67514702 17.3726155,3.4543846 17.2415515,3.27569496 C17.0779182,3.14590927 16.8685832,3.08816169 16.6615515,3.11569496 L15.6015515,3.11569496 L15.6015515,5.03569496 L14.6015515,5.03569496 L14.6015515,0.145694957 L16.9315515,0.145694957 C17.2040321,0.13816145 17.4754765,0.182271156 17.7315515,0.275694957 L17.7315515,0.275694957 Z M15.6115515,0.995694957 L15.6115515,2.30569496 L16.7115515,2.30569496 C16.8821558,2.31790716 17.0532745,2.29052817 17.2115515,2.22569496 C17.4125147,2.11983276 17.5277293,1.90132238 17.5015515,1.67569496 C17.5277542,1.44182678 17.4192934,1.2132844 17.2215515,1.08569496 C17.0714484,1.01648641 16.9065307,0.985564338 16.7415515,0.995694957 L15.6115515,0.995694957 Z" id="Shape"></path>
            <polygon id="Path" points="23.1215515 1.01569496 20.5315515 1.01569496 20.5315515 2.01569496 22.9015515 2.01569496 22.9015515 2.86569496 20.5315515 2.86569496 20.5315515 4.12569496 23.2315515 4.12569496 23.2315515 5.00569496 19.5315515 5.00569496 19.5315515 0.115694957 23.1215515 0.115694957"></polygon>
            <polygon id="Path" points="26.6015515 0.145694957 27.2515515 2.94569496 27.3915515 3.72569496 27.5315515 2.96569496 28.0815515 0.145694957 29.1615515 0.145694957 29.7415515 2.94569496 29.8915515 3.72569496 30.0415515 2.97569496 30.7015515 0.145694957 31.7015515 0.145694957 30.3215515 5.03569496 29.3215515 5.03569496 28.7315515 2.17569496 28.5615515 1.22569496 28.3915515 2.17569496 27.8015515 5.03569496 26.8515515 5.03569496 25.4615515 0.145694957"></polygon>
            <polygon id="Path" points="33.2715515 5.03569496 32.2715515 5.03569496 32.2715515 0.145694957 33.2715515 0.145694957"></polygon>
            <polygon id="Path" points="37.7715515 0.145694957 37.7715515 1.01569496 36.3115515 1.01569496 36.3115515 5.01569496 35.3115515 5.01569496 35.3115515 1.01569496 33.8415515 1.01569496 33.8415515 0.145694957"></polygon>
            <polygon id="Path" points="38.3615515 5.03569496 38.3615515 0.145694957 39.3615515 0.145694957 39.3615515 2.00569496 41.2615515 2.00569496 41.2615515 0.145694957 42.2615515 0.145694957 42.2615515 5.03569496 41.2615515 5.03569496 41.2615515 2.85569496 39.3615515 2.85569496 39.3615515 5.03569496"></polygon>
            <polygon id="Path" points="45.1715515 0.155694957 48.6515515 0.155694957 48.6515515 1.01569496 46.1815515 1.01569496 46.1815515 2.13569496 48.3515515 2.13569496 48.3515515 2.98569496 46.1815515 2.98569496 46.1815515 4.98569496 45.1815515 4.98569496"></polygon>
            <path d="M52.4515515,0.275694957 C52.6304495,0.349585781 52.7884242,0.46634967 52.9115515,0.615694957 C53.0125468,0.738937496 53.0935358,0.877293706 53.1515515,1.02569496 C53.2139409,1.18836107 53.2444948,1.36149956 53.2415515,1.53569496 C53.2387236,1.77571069 53.1805476,2.0118366 53.0715515,2.22569496 C52.9461369,2.45135757 52.7383067,2.61977172 52.4915515,2.69569496 C52.6887421,2.77170877 52.8567813,2.90824062 52.9715515,3.08569496 C53.0785502,3.32764915 53.1265344,3.59156232 53.1115515,3.85569496 L53.1115515,4.17569496 C53.0958363,4.32862562 53.0958363,4.48276429 53.1115515,4.63569496 C53.1238107,4.75227184 53.1905856,4.85614387 53.2915515,4.91569496 L53.2915515,5.03569496 L52.2015515,5.03569496 C52.1703666,4.95133526 52.1469363,4.86430853 52.1315515,4.77569496 C52.1168108,4.63608297 52.1168108,4.49530694 52.1315515,4.35569496 L52.1315515,3.89569496 C52.1550898,3.67646944 52.0982342,3.45615378 51.9715515,3.27569496 C51.8059314,3.14987301 51.5982568,3.09258346 51.3915515,3.11569496 L50.3915515,3.11569496 L50.3915515,5.03569496 L49.3915515,5.03569496 L49.3915515,0.145694957 L51.7315515,0.145694957 C51.9772346,0.147376173 52.2207935,0.191352072 52.4515515,0.275694957 L52.4515515,0.275694957 Z M50.3415515,0.995694957 L50.3415515,2.30569496 L51.4415515,2.30569496 C51.6089149,2.3181951 51.7768545,2.29077639 51.9315515,2.22569496 C52.1325147,2.11983276 52.2477293,1.90132238 52.2215515,1.67569496 C52.2527976,1.44100998 52.1431154,1.20989385 51.9415515,1.08569496 C51.7944776,1.01809905 51.6331932,0.987214801 51.4715515,0.995694957 L50.3415515,0.995694957 Z" id="Shape"></path>
            <polygon id="Path" points="55.1615515 5.03569496 54.1615515 5.03569496 54.1615515 0.145694957 55.1615515 0.145694957"></polygon>
            <polygon id="Path" points="59.7315515 1.01569496 57.1415515 1.01569496 57.1415515 2.01569496 59.5215515 2.01569496 59.5215515 2.86569496 57.1415515 2.86569496 57.1415515 4.12569496 59.8515515 4.12569496 59.8515515 5.00569496 56.1415515 5.00569496 56.1415515 0.115694957 59.7315515 0.115694957"></polygon>
            <polygon id="Path" points="60.6015515 0.145694957 61.6715515 0.145694957 63.6115515 3.55569496 63.6115515 0.145694957 64.6115515 0.145694957 64.6115515 5.03569496 63.6115515 5.03569496 61.6115515 1.56569496 61.6115515 5.03569496 60.6015515 5.03569496"></polygon>
            <path d="M68.4215515,0.255694957 C68.7593218,0.364592543 69.0513014,0.582697796 69.2515515,0.875694957 C69.4222311,1.11162552 69.5414702,1.38076517 69.6015515,1.66569496 C69.6600507,1.93176256 69.6902188,2.20327553 69.6915515,2.47569496 C69.7098307,3.05051385 69.575251,3.6198892 69.3015515,4.12569496 C68.9737324,4.71753582 68.3372095,5.07072842 67.6615515,5.03569496 L65.6015515,5.03569496 L65.6015515,0.145694957 L67.7115515,0.145694957 C67.9524089,0.146376121 68.1917797,0.183461727 68.4215515,0.255694957 Z M66.5415515,0.995694957 L66.5415515,4.18569496 L67.4915515,4.18569496 C67.9479215,4.20519859 68.3595,3.91297782 68.4915515,3.47569496 C68.5979808,3.17747061 68.6488216,2.8622579 68.6415515,2.54569496 C68.6615853,2.14920881 68.582539,1.75397685 68.4115515,1.39569496 C68.1969282,1.10370156 67.8411291,0.95066973 67.4815515,0.995694957 L66.5415515,0.995694957 Z" id="Shape"></path>
            <path d="M71.1915515,3.52569496 C71.2083095,3.706522 71.2739926,3.87937228 71.3815515,4.02569496 C71.6130499,4.24921567 71.9314853,4.359021 72.2515515,4.32569496 C72.4547549,4.33579963 72.6580945,4.3086877 72.8515515,4.24569496 C73.1111342,4.18490024 73.2938983,3.95229137 73.2915515,3.68569496 C73.295541,3.5277283 73.2105298,3.38089079 73.0715515,3.30569496 C72.8564623,3.19830953 72.6276649,3.12092219 72.3915515,3.07569496 L71.8615515,2.96569496 C71.4856592,2.90160663 71.1236674,2.77304879 70.7915515,2.58569496 C70.4541611,2.34230326 70.2683704,1.94038859 70.3015515,1.52569496 C70.2940873,1.10957639 70.4695494,0.711131101 70.7815515,0.435694957 C71.1850469,0.120965317 71.6912396,-0.0323184005 72.2015515,0.00569495716 C72.6813701,-0.0103518658 73.1528606,0.13391014 73.5415515,0.415694957 C73.9114009,0.69896875 74.1262849,1.13985145 74.1215515,1.60569496 L73.1215515,1.60569496 C73.1274237,1.33709009 72.9745933,1.09021023 72.7315515,0.975694957 C72.5399922,0.889818523 72.3313654,0.848777178 72.1215515,0.855694957 C71.8937554,0.842780432 71.6673249,0.898517175 71.4715515,1.01569496 C71.3169198,1.10725542 71.2248145,1.27611517 71.2315515,1.45569496 C71.2247348,1.62242122 71.3196425,1.77664609 71.4715515,1.84569496 C71.6781415,1.94154127 71.8968149,2.00882538 72.1215515,2.04569496 L72.9815515,2.25569496 C73.2834057,2.31079128 73.5698817,2.4301563 73.8215515,2.60569496 C74.1243981,2.84588286 74.2890734,3.22014494 74.2615515,3.60569496 C74.2726388,4.03692727 74.0799723,4.44819615 73.7415515,4.71569496 C73.3268288,5.04022196 72.8070089,5.20044044 72.2815515,5.16569496 C71.7398034,5.19428827 71.2042536,5.0392607 70.7615515,4.72569496 C70.3948793,4.43822879 70.1899536,3.99111826 70.2115515,3.52569496 L71.1915515,3.52569496 Z" id="Path"></path>
        </g>
        <g id="wide-image" transform="translate(-7.330000, 0.000000)" fill-rule="nonzero">
            <g id="image" transform="translate(0.330000, 0.000000)">
                <rect id="Rectangle" fill="#81A0B4" x="-5.30855694e-13" y="5.32907052e-14" width="247.60569" height="50.88"></rect>
                <path d="M175.706422,12.36 L175.706422,17.26 C175.707379,18.4523649 176.367827,19.5538177 177.439331,20.15 L181.849372,22.6 C182.920527,23.2007899 184.243992,23.2007899 185.315146,22.6 L189.714812,20.15 C190.791881,19.5578874 191.457154,18.4549911 191.458076,17.26 L191.458076,12.36 C191.458717,11.1619943 190.793525,10.0554159 189.714812,9.46 L185.30477,7 C184.233615,6.39921014 182.91015,6.39921014 181.838996,7 L177.428954,9.45 C176.358153,10.0552958 175.702091,11.1636436 175.706422,12.36 L175.706422,12.36 Z" id="Path" fill="#FFFFFF"></path>
                <polygon id="Path" fill="#FFFFFF" points="246.132218 50.88 213.580921 3.21 186.850879 34.22 168.30795 28.41 137.45841 50.88"></polygon>
            </g>
            <path d="M183.83007,23.9999857 C183.122217,24.00185 182.426379,23.8210878 181.812783,23.475927 L177.347431,20.9584595 C176.102407,20.2481877 175.334919,18.9463828 175.33007,17.5367588 L175.33007,12.5018238 C175.321522,11.0806356 176.09108,9.76356055 177.347431,9.04929702 L181.812783,6.53182954 C183.059913,5.82272349 184.60023,5.82272349 185.84736,6.53182954 L190.302205,9.04929702 C191.554417,9.75389521 192.327342,11.0581292 192.33,12.4709977 L192.33,17.5059327 C192.325185,18.9182311 191.552839,20.2214881 190.302205,20.9276334 L185.84736,23.4348255 C185.23727,23.7930238 184.541552,23.9879301 183.83007,23.9999857 L183.83007,23.9999857 Z M183.830071,7.0558681 C183.304821,7.05484462 182.789148,7.19335485 182.338118,7.45661351 L177.872766,9.96380561 C176.952427,10.4931419 176.385453,11.4576441 176.380813,12.5018238 L176.380813,17.5367588 C176.387045,18.5778226 176.954089,19.5385375 177.872766,20.0645017 L182.338118,22.5819691 C183.260757,23.1053854 184.399385,23.1053854 185.322024,22.5819691 L189.776869,20.0645017 C190.701145,19.5426445 191.273037,18.5804913 191.279329,17.5367588 L191.279329,12.5018238 C191.274624,11.4549831 190.702806,10.4890447 189.776869,9.96380561 L185.322024,7.45661351 C184.870377,7.19477361 184.355111,7.05637272 183.830071,7.0558681 L183.830071,7.0558681 Z" id="Shape" fill="#C9292C"></path>
        </g>
        <g id="Group" transform="translate(20.000000, 19.000000)" fill="#FFFFFF" fill-rule="nonzero" font-family="Helvetica-Bold, Helvetica" font-size="12.25" font-weight="bold">
            <text id="P">
                <tspan x="0" y="11">P</tspan>
            </text>
            <text id="AGE-TITLE">
                <tspan x="7.27" y="11">AGE TITLE</tspan>
            </text>
        </g>
        <rect id="btn" fill="#C9292C" fill-rule="nonzero" x="21" y="36" width="33.53" height="7.14" rx="3.35"></rect>
        <g id="paragraph" transform="translate(76.250000, 59.850000)" fill="#81A0B4" fill-rule="nonzero">
            <rect id="Rectangle" x="0.75" y="19.15" width="44" height="1"></rect>
            <rect id="Rectangle" x="0.75" y="12.15" width="77" height="1"></rect>
            <rect id="Rectangle" x="0.75" y="6.15" width="77" height="1"></rect>
            <rect id="Rectangle" x="0.75" y="0.15" width="77" height="1"></rect>
        </g>
        <g id="paragraph-copy" transform="translate(76.250000, 88.850000)" fill="#81A0B4" fill-rule="nonzero">
            <rect id="Rectangle" x="0.75" y="19.15" width="44" height="1"></rect>
            <rect id="Rectangle" x="0.75" y="12.15" width="77" height="1"></rect>
            <rect id="Rectangle" x="0.75" y="6.15" width="77" height="1"></rect>
            <rect id="Rectangle" x="0.75" y="0.15" width="77" height="1"></rect>
        </g>
        <g id="paragraph-copy-3" transform="translate(48.250000, 196.850000)" fill="#81A0B4" fill-rule="nonzero">
            <rect id="Rectangle" x="0.75" y="19.15" width="41" height="1"></rect>
            <rect id="Rectangle" x="0.75" y="12.15" width="71" height="1"></rect>
            <rect id="Rectangle" x="0.75" y="6.15" width="71" height="1"></rect>
            <rect id="Rectangle" x="0.75" y="0.15" width="71" height="1"></rect>
        </g>
        <g id="paragraph-copy-4" transform="translate(48.250000, 254.850000)" fill="#81A0B4" fill-rule="nonzero">
            <rect id="Rectangle" x="0.75" y="7.15" width="41" height="1"></rect>
            <rect id="Rectangle" x="0.75" y="0.15" width="71" height="1"></rect>
        </g>
        <g id="paragraph-copy" transform="translate(48.250000, 224.850000)" fill="#81A0B4" fill-rule="nonzero">
            <rect id="Rectangle" x="0.75" y="19.15" width="44" height="1"></rect>
            <rect id="Rectangle" x="0.75" y="12.15" width="77" height="1"></rect>
            <rect id="Rectangle" x="0.75" y="6.15" width="77" height="1"></rect>
            <rect id="Rectangle" x="0.75" y="0.15" width="77" height="1"></rect>
        </g>
        <g id="audio-embed" transform="translate(77.000000, 117.000000)" fill-rule="nonzero">
            <g id="Group" opacity="0.66" fill="#81A0B4">
                <path d="M71.7141176,2.18181818 L71.7141176,19.9854545 L2.42,19.9854545 L2.42,2.18181818 L71.7141176,2.18181818 M73.9494118,0 L0.184705882,0 L0.184705882,22.2327273 L73.9494118,22.2327273 L73.9494118,0 Z" id="Shape"></path>
            </g>
            <g>
                <rect id="Rectangle" fill="#81A0B4" x="0" y="17.8056522" width="74" height="31.0434783"></rect>
                <rect id="Rectangle" fill="#FFFFFF" x="1.12121212" y="1.06434783" width="18.0515152" height="17.85"></rect>
                <path d="M18.0515152,2.2173913 L18.0515152,17.7391304 L2.35454545,17.7391304 L2.35454545,2.2173913 L18.1636364,2.2173913 M20.4060606,0 L0.224242424,0 L0.224242424,19.9565217 L20.5181818,19.9565217 L20.5181818,0 L20.4060606,0 Z" id="Shape" fill="#81A0B4"></path>
                <path d="M10.1581818,5.63217391 C12.6350952,5.63217391 14.6430303,7.61769372 14.6430303,10.0669565 C14.6430303,12.5162193 12.6350952,14.5017391 10.1581818,14.5017391 C7.68126839,14.5017391 5.67333333,12.5162193 5.67333333,10.0669565 C5.67333333,7.61769372 7.68126839,5.63217391 10.1581818,5.63217391 M10.1581818,3.41478261 C6.44281168,3.41478261 3.43090909,6.39306232 3.43090909,10.0669565 C3.43090909,13.7408507 6.44281168,16.7191304 10.1581818,16.7191304 C13.873552,16.7191304 16.8854545,13.7408507 16.8854545,10.0669565 C16.8854545,6.39306232 13.873552,3.41478261 10.1581818,3.41478261 L10.1581818,3.41478261 Z" id="Shape" fill="#81A0B4"></path>
                <polygon id="Path" fill="#81A0B4" points="11.8175758 9.97826087 8.49878788 12.1956522 8.49878788 7.76086957"></polygon>
                <rect id="Rectangle" fill="#FFFFFF" x="29.3309091" y="12.4617391" width="28.0975758" height="1.55217391"></rect>
                <rect id="Rectangle" fill="#FFFFFF" x="3.72242424" y="25.6773913" width="51.5309091" height="1.53"></rect>
                <rect id="Rectangle" fill="#FFFFFF" x="61.509697" y="25.6773913" width="7.80363636" height="1.53"></rect>
                <rect id="Rectangle" fill="#FFFFFF" x="3.72242424" y="34.9682609" width="51.5309091" height="1.53"></rect>
                <rect id="Rectangle" fill="#FFFFFF" x="61.509697" y="34.9682609" width="7.80363636" height="1.53"></rect>
                <rect id="Rectangle" fill="#FFFFFF" x="3.72242424" y="42.6626087" width="51.5309091" height="1.53"></rect>
                <rect id="Rectangle" fill="#FFFFFF" x="61.509697" y="42.6626087" width="7.80363636" height="1.53"></rect>
                <path d="M71.3315152,13.6147826 C71.5926818,13.6161065 71.8426639,13.7197675 72.0266667,13.9030435 C72.222246,14.0872831 72.3284102,14.3456931 72.3181818,14.6126087 C72.3220202,14.8718772 72.2163742,15.1209899 72.0266667,15.3 C71.844865,15.4870155 71.5938523,15.5927105 71.3315152,15.5927105 C71.069178,15.5927105 70.8181653,15.4870155 70.6363636,15.3 C70.4466561,15.1209899 70.3410101,14.8718772 70.3448485,14.6126087 L70.3448485,14.5017391 L69.2236364,13.9473913 C69.0456815,14.1234045 68.8025318,14.2195786 68.5509091,14.2134783 C68.0059881,14.2134783 67.5642424,13.7766639 67.5642424,13.2378261 C67.554014,12.9709105 67.6601782,12.7125005 67.8557576,12.5282609 C68.0424004,12.3488958 68.2907131,12.2459271 68.5509091,12.24 C68.8025318,12.2338996 69.0456815,12.3300738 69.2236364,12.506087 L70.3448485,11.9517391 L70.3448485,11.9517391 C70.2658957,11.6445266 70.3503846,11.3186983 70.5690909,11.0869565 C70.9629121,10.731739 71.5655728,10.731739 71.9593939,11.0869565 C72.1549733,11.2711961 72.2611375,11.5296061 72.2509091,11.7965217 C72.2547475,12.0557902 72.1491015,12.3049029 71.9593939,12.483913 C71.7817341,12.6762884 71.527527,12.7817013 71.2642424,12.7721739 C71.0130889,12.7757323 70.7709031,12.6799395 70.5915152,12.506087 L69.470303,13.0604348 C69.470303,13.0604348 69.470303,13.0604348 69.470303,13.0604348 L70.5915152,13.6147826 C70.8278504,13.5149462 71.0951799,13.5149462 71.3315152,13.6147826 Z" id="Path" fill="#FFFFFF"></path>
                <polygon id="Path" fill="#FFFFFF" points="24.4648485 13.1047826 27.7836364 15.3221739 27.7836364 10.8873913"></polygon>
                <rect id="Rectangle" fill="#FFFFFF" x="22.4242424" y="10.9095652" width="1.34545455" height="4.63434783"></rect>
                <polygon id="Path" fill="#FFFFFF" points="62.3169697 13.1047826 59.0206061 15.3221739 59.0206061 10.8873913"></polygon>
                <rect id="Rectangle" fill="#FFFFFF" x="63.0345455" y="10.9095652" width="1.34545455" height="4.63434783"></rect>
            </g>
        </g>
        <g id="image" transform="translate(144.000000, 184.000000)" fill-rule="nonzero">
            <g id="Group" opacity="0.68" fill="#81A0B4">
                <rect id="Rectangle" x="0.790588235" y="0.148421053" width="62.0982353" height="46.6165789"></rect>
            </g>
            <polygon id="Path" fill="#FFFFFF" points="3 46.5523043 17.6341463 27.17703 29 35.2728603 44.304878 13 62 47"></polygon>
            <path d="M44.3948162,12.8107633 L61.4679526,46.0376363 L3.86296966,45.5944425 L17.7249347,26.9803025 L28.4247539,34.6918748 L29.172393,35.23637 L29.6994173,34.4639465 L44.3948162,12.8107633 M44.5051236,11 L28.9517782,33.9194513 L17.541089,25.6887091 L2,46.5314808 L63,47 L44.4560981,11.037988 L44.5051236,11 Z" id="Shape" fill="#81A0B4"></path>
            <path d="M19,13.7772932 L19,16.2227068 C18.9934001,17.1560613 19.5209733,18.0197381 20.3789272,18.4800117 L22.6273463,19.6556914 C23.482601,20.1147695 24.5298213,20.1147695 25.3850759,19.6556914 L27.6210728,18.4800117 C28.4790267,18.0197381 29.0065999,17.1560613 29,16.2227068 L29,13.7772932 C29.0013656,12.8452568 28.4752079,11.9838973 27.6210728,11.5199883 L25.3850759,10.3443086 C24.5298213,9.88523046 23.482601,9.88523046 22.6273463,10.3443086 L20.3789272,11.5199883 C19.5247921,11.9838973 18.9986344,12.8452568 19,13.7772932 L19,13.7772932 Z" id="Path" stroke="#C9292C" stroke-width="0.8" fill="#FFFFFF"></path>
        </g>
        <g id="social-icons" transform="translate(154.369982, 254.450000)" fill-rule="nonzero">
            <path d="M9.20828077e-06,5.42 C0.0055416215,2.43475019 2.42809129,0.0181692403 5.41334564,0.0200092368 C8.3986,0.0218513359 10.8181671,2.44141848 10.8200092,5.42667284 C10.8218492,8.41192719 8.40526829,10.8344769 5.42001848,10.8400093 C3.98173098,10.842661 2.60158612,10.2724815 1.58456154,9.25545695 C0.567536951,8.23843236 -0.00264255736,6.8582875 9.20828077e-06,5.42 L9.20828077e-06,5.42 Z M6.09001848,7.42 L6.09001848,7.42 L8.79001848,4.74 L6.09001848,2.03 L6.09001848,3.37 L6.09001848,3.37 C5.90923744,3.37674636 5.72896477,3.39343828 5.55001848,3.42 C5.30153345,3.45167363 5.05693171,3.50863568 4.82001848,3.59 C4.16656073,3.81613845 3.58149263,4.20503666 3.12001848,4.72 C2.8447048,5.01540616 2.61850415,5.35301908 2.45001848,5.72 C2.30174526,6.03855864 2.19423064,6.37454182 2.13001848,6.72 C2.11499733,6.91971796 2.11499733,7.12028204 2.13001848,7.32 L2.13001848,7.37 L2.13001848,7.37 C2.26024732,7.18340092 2.4075483,7.00931794 2.57001848,6.85 C2.93017616,6.51781759 3.36098127,6.27164324 3.83001848,6.13 C4.1901664,6.02003825 4.56357706,5.95948517 4.94001848,5.95 C5.27445675,5.94122112 5.60902921,5.96129547 5.94001848,6.01 L6.15001848,6.01 L6.09001848,7.42 Z" id="Shape" fill="#3B5999"></path>
            <path d="M6.09001848,7.44 L6.09001848,6.1 L5.88001848,6.1 C5.54902921,6.05129547 5.21445675,6.03122112 4.88001848,6.04 C4.50357706,6.04948517 4.1301664,6.11003825 3.77001848,6.22 C3.30098127,6.36164324 2.87017616,6.60781759 2.51001848,6.94 C2.3475483,7.09931794 2.20024732,7.27340092 2.07001848,7.46 L2.07001848,7.46 L2.07001848,7.41 C2.05499733,7.21028204 2.05499733,7.00971796 2.07001848,6.81 C2.13423064,6.46454182 2.24174526,6.12855864 2.39001848,5.81 C2.55850415,5.44301908 2.7847048,5.10540616 3.06001848,4.81 C3.52149263,4.29503666 4.10656073,3.90613845 4.76001848,3.68 C4.99693171,3.59863568 5.24153345,3.54167363 5.49001848,3.51 C5.66896477,3.48343828 5.84923744,3.46674636 6.03001848,3.46 L6.03001848,3.46 L6.03001848,2.12 L8.73001848,4.83 L6.03001848,7.51 L6.09001848,7.44 Z" id="Path" fill="#FFFFFF"></path>
            <path d="M12.2700092,5.42 C12.2755389,2.43344747 14.7001175,0.0163255105 17.6866728,0.0199999106 C20.6732282,0.0236826971 23.091845,2.44677011 23.0900093,5.43332717 C23.0881715,8.41988424 20.6665761,10.84 17.6800185,10.84 C16.243463,10.84 14.8658907,10.2686494 13.8510309,9.25191379 C12.8361712,8.23517814 12.2673631,6.85655305 12.2700092,5.42 L12.2700092,5.42 Z M18.3500185,7.42 L18.3500185,7.42 L21.0500185,4.74 L18.3400185,2.03 L18.3400185,3.37 L18.3400185,3.37 C18.1592374,3.37674636 17.9789648,3.39343828 17.8000185,3.42 C17.5515334,3.45167363 17.3069317,3.50863568 17.0700185,3.59 C16.4165607,3.81613845 15.8314926,4.20503666 15.3700185,4.72 C15.0947048,5.01540616 14.8685041,5.35301908 14.7000185,5.72 C14.5517453,6.03855864 14.4442306,6.37454182 14.3800185,6.72 C14.3649973,6.91971796 14.3649973,7.12028204 14.3800185,7.32 L14.3800185,7.37 L14.3800185,7.37 C14.5102473,7.18340092 14.6575483,7.00931794 14.8200185,6.85 C15.1764542,6.5179892 15.6039826,6.27173286 16.0700185,6.13 C16.4337383,6.02068807 16.8103634,5.96015904 17.1900185,5.95 C17.5244568,5.94122112 17.8590292,5.96129547 18.1900185,6.01 L18.3900185,6.01 L18.3500185,7.42 Z" id="Shape" fill="#2BAAE1"></path>
            <path d="M18.3500185,7.44 L18.3500185,6.1 L18.1500185,6.1 C17.8190292,6.05129547 17.4844568,6.03122112 17.1500185,6.04 C16.7703634,6.05015904 16.3937383,6.11068807 16.0300185,6.22 C15.5639826,6.36173286 15.1364542,6.6079892 14.7800185,6.94 C14.6175483,7.09931794 14.4702473,7.27340092 14.3400185,7.46 L14.3400185,7.46 L14.3400185,7.41 C14.3249973,7.21028204 14.3249973,7.00971796 14.3400185,6.81 C14.4042306,6.46454182 14.5117453,6.12855864 14.6600185,5.81 C14.8285041,5.44301908 15.0547048,5.10540616 15.3300185,4.81 C15.7914926,4.29503666 16.3765607,3.90613845 17.0300185,3.68 C17.2669317,3.59863568 17.5115334,3.54167363 17.7600185,3.51 C17.9389648,3.48343828 18.1192374,3.46674636 18.3000185,3.46 L18.3000185,3.46 L18.3000185,2.12 L21.0100185,4.83 L18.3100185,7.51 L18.3500185,7.44 Z" id="Path" fill="#FFFFFF"></path>
            <path d="M24.5400092,5.42 C24.5455389,2.43344747 26.9701175,0.0163255105 29.9566728,0.0199999106 C32.9432282,0.0236826971 35.361845,2.44677011 35.3600093,5.43332717 C35.3581715,8.41988424 32.9365761,10.84 29.9500185,10.84 C28.513463,10.84 27.1358907,10.2686494 26.1210309,9.25191379 C25.1061712,8.23517814 24.5373631,6.85655305 24.5400092,5.42 L24.5400092,5.42 Z M30.6200185,7.42 L30.6200185,7.42 L33.3200185,4.74 L30.6300185,2.06 L30.6300185,3.4 L30.6300185,3.4 C30.4492374,3.40674636 30.2689648,3.42343828 30.0900185,3.45 C29.8415334,3.48167363 29.5969317,3.53863568 29.3600185,3.62 C28.6963349,3.84278959 28.1007533,4.23181108 27.6300185,4.75 C27.3610595,5.04830638 27.138564,5.38542078 26.9700185,5.75 C26.8175933,6.06692032 26.7098989,6.40346535 26.6500185,6.75 C26.6349973,6.94971796 26.6349973,7.15028204 26.6500185,7.35 L26.6500185,7.4 L26.6500185,7.4 C26.7802473,7.21340092 26.9275483,7.03931794 27.0900185,6.88 C27.4464542,6.5479892 27.8739826,6.30173286 28.3400185,6.16 C28.7037383,6.05068807 29.0803634,5.99015904 29.4600185,5.98 C29.7944708,5.97035068 30.1291193,5.99042958 30.4600185,6.04 L30.6700185,6.04 L30.6200185,7.42 Z" id="Shape" fill="#F15922"></path>
            <path d="M30.6300185,7.44 L30.6300185,6.1 L30.4200185,6.1 C30.0891193,6.05042958 29.7544708,6.03035068 29.4200185,6.04 C29.0403634,6.05015904 28.6637383,6.11068807 28.3000185,6.22 C27.8339826,6.36173286 27.4064542,6.6079892 27.0500185,6.94 C26.8875483,7.09931794 26.7402473,7.27340092 26.6100185,7.46 L26.6100185,7.46 L26.6100185,7.41 C26.5949973,7.21028204 26.5949973,7.00971796 26.6100185,6.81 C26.6698989,6.46346535 26.7775933,6.12692032 26.9300185,5.81 C27.098564,5.44542078 27.3210595,5.10830638 27.5900185,4.81 C28.0551577,4.29463565 28.6435428,3.90581976 29.3000185,3.68 C29.5369317,3.59863568 29.7815334,3.54167363 30.0300185,3.51 C30.2089648,3.48343828 30.3892374,3.46674636 30.5700185,3.46 L30.5700185,3.46 L30.5700185,2.12 L33.2800185,4.83 L30.6300185,7.45 L30.6300185,7.44 Z" id="Path" fill="#FFFFFF"></path>
            <path d="M36.8000185,5.42 C36.8000185,2.42661666 39.2266351,-1.56319402e-13 42.2200185,-1.56319402e-13 C45.2134018,-1.56319402e-13 47.6400185,2.42661666 47.6400185,5.42 C47.6400185,8.41338334 45.2134018,10.84 42.2200185,10.84 C39.2266351,10.84 36.8000185,8.41338334 36.8000185,5.42 L36.8000185,5.42 Z M42.8900185,7.42 L42.8900185,7.42 L45.5800185,4.74 L42.8800185,2.03 L42.8800185,3.37 L42.8800185,3.37 C42.7025893,3.37724326 42.5256719,3.39393358 42.3500185,3.42 C42.1015334,3.45167363 41.8569317,3.50863568 41.6200185,3.59 C40.961551,3.81175897 40.372203,4.20121114 39.9100185,4.72 C39.6410595,5.01830638 39.418564,5.35542078 39.2500185,5.72 C39.0975933,6.03692032 38.9898989,6.37346535 38.9300185,6.72 C38.9052323,6.91923206 38.9052323,7.12076794 38.9300185,7.32 L38.9300185,7.37 L38.9300185,7.37 C39.0572031,7.18107905 39.2047546,7.00670002 39.3700185,6.85 C39.7264542,6.5179892 40.1539826,6.27173286 40.6200185,6.13 C40.9837383,6.02068807 41.3603634,5.96015904 41.7400185,5.95 C42.0744708,5.94035068 42.4091193,5.96042958 42.7400185,6.01 L42.9500185,6.01 L42.8900185,7.42 Z" id="Shape" fill="#231F20"></path>
            <path d="M42.8900185,7.44 L42.8900185,6.1 L42.6800185,6.1 C42.3491193,6.05042958 42.0144708,6.03035068 41.6800185,6.04 C41.3003634,6.05015904 40.9237383,6.11068807 40.5600185,6.22 C40.0939826,6.36173286 39.6664542,6.6079892 39.3100185,6.94 C39.1447546,7.09670002 38.9972031,7.27107905 38.8700185,7.46 L38.8700185,7.46 L38.8700185,7.41 C38.8452323,7.21076794 38.8452323,7.00923206 38.8700185,6.81 C38.9298989,6.46346535 39.0375933,6.12692032 39.1900185,5.81 C39.358564,5.44542078 39.5810595,5.10830638 39.8500185,4.81 C40.312203,4.29121114 40.901551,3.90175897 41.5600185,3.68 C41.7969317,3.59863568 42.0415334,3.54167363 42.2900185,3.51 C42.4656719,3.48393358 42.6425893,3.46724326 42.8200185,3.46 L42.8200185,3.46 L42.8200185,2.12 L45.5200185,4.83 L42.8300185,7.51 L42.8900185,7.44 Z" id="Path" fill="#FFFFFF"></path>
        </g>
        <rect id="Rectangle" fill="#81A0B4" fill-rule="nonzero" x="49" y="185" width="65" height="4.76"></rect>
        <polygon id="Path" fill-opacity="0.5" fill="#81A0B4" fill-rule="nonzero" points="242 50.67 207.250955 -2.33 178.727273 32.1472394 158.921314 25.6876211 126 50.67"></polygon>
    </g>
</svg>