<?xml version="1.0" encoding="UTF-8"?>
<svg width="240px" height="267px" viewBox="0 0 240 267" version="1.1" xmlns="http://www.w3.org/2000/svg" xmlns:xlink="http://www.w3.org/1999/xlink">
    <title>c9-pricing</title>
    <defs>
        <path d="M3.47529785,11.33 L3.47529785,8.15983398 L5.34749023,8.15983398 C6.32445964,8.15983398 7.07612793,7.94450195 7.60249512,7.51383789 C8.1288623,7.08317383 8.3920459,6.34745605 8.3920459,5.30668457 C8.3920459,4.35364095 8.1288623,3.64982422 7.60249512,3.19523437 C7.07612793,2.74064453 6.37031738,2.51334961 5.48506348,2.51334961 L5.48506348,2.51334961 L1.64497559,2.51334961 L1.64497559,11.33 L3.47529785,11.33 Z M5.19197266,6.64054687 L3.47529785,6.64054687 L3.47529785,4.04459961 L5.19197266,4.04459961 C5.62662435,4.04459961 5.96457601,4.14229655 6.20582764,4.33769043 C6.44707926,4.53308431 6.56770508,4.86006999 6.56770508,5.31864746 C6.56770508,5.77722493 6.44707926,6.11218587 6.20582764,6.32353027 C5.96457601,6.53487467 5.62662435,6.64054687 5.19197266,6.64054687 L5.19197266,6.64054687 Z M11.334917,11.33 L11.334917,8.21366699 C11.334917,7.69128743 11.4007129,7.3044873 11.5323047,7.0532666 C11.7675749,6.60665202 12.2281462,6.38334473 12.9140186,6.38334473 C12.9658577,6.38334473 13.0336475,6.38533854 13.1173877,6.38932617 C13.2011279,6.3933138 13.2968311,6.40128906 13.4044971,6.41325195 L13.4044971,6.41325195 L13.4044971,4.66666992 C13.3287321,4.66268229 13.2798836,4.65969157 13.2579517,4.65769775 C13.2360197,4.65570394 13.2091032,4.65470703 13.1772021,4.65470703 C12.6667855,4.65470703 12.2520719,4.78829264 11.9330615,5.05546387 C11.7376676,5.21496908 11.5083789,5.51204753 11.2451953,5.94669922 L11.2451953,5.94669922 L11.2451953,4.81022461 L9.61824219,4.81022461 L9.61824219,11.33 L11.334917,11.33 Z M16.1559619,4.03263672 L16.1559619,2.4595166 L14.4273242,2.4595166 L14.4273242,4.03263672 L16.1559619,4.03263672 Z M16.1559619,11.33 L16.1559619,4.81022461 L14.4273242,4.81022461 L14.4273242,11.33 L16.1559619,11.33 Z M20.4925098,11.5572949 C21.5412565,11.5572949 22.3328011,11.1844515 22.8671436,10.4387646 C23.2021045,9.97619954 23.3895231,9.48572103 23.4293994,8.9673291 L23.4293994,8.9673291 L21.6887988,8.9673291 C21.6529102,9.3102653 21.5512256,9.58939941 21.3837451,9.80473145 C21.2162646,10.0200635 20.9331429,10.1277295 20.5343799,10.1277295 C19.972124,10.1277295 19.5893115,9.85657064 19.3859424,9.31425293 C19.2742887,9.02315592 19.2184619,8.63834961 19.2184619,8.15983398 C19.2184619,7.65739258 19.2742887,7.25464193 19.3859424,6.95158203 C19.5972868,6.38135091 19.9900684,6.09623535 20.5642871,6.09623535 C20.9670378,6.09623535 21.2641162,6.22782715 21.4555225,6.49101074 C21.5871143,6.68640462 21.6688607,6.90572428 21.7007617,7.14896973 L21.7007617,7.14896973 L23.4473438,7.14896973 C23.3516406,6.21985189 23.0435962,5.57186198 22.5232104,5.205 C22.0028247,4.83813802 21.3338997,4.65470703 20.5164355,4.65470703 C19.5554167,4.65470703 18.8017546,4.96574219 18.2554492,5.5878125 C17.7091439,6.20988281 17.4359912,7.08118001 17.4359912,8.2017041 C17.4359912,9.19462402 17.6832243,10.0021191 18.1776904,10.6241895 C18.6721566,11.2462598 19.443763,11.5572949 20.4925098,11.5572949 Z M26.3722705,4.03263672 L26.3722705,2.4595166 L24.6436328,2.4595166 L24.6436328,4.03263672 L26.3722705,4.03263672 Z M26.3722705,11.33 L26.3722705,4.81022461 L24.6436328,4.81022461 L24.6436328,11.33 L26.3722705,11.33 Z M29.7338428,11.33 L29.7338428,7.80094727 C29.7338428,7.39819661 29.7896696,7.06722331 29.9013232,6.80802734 C30.1166553,6.31754883 30.5134245,6.07230957 31.0916309,6.07230957 C31.5621712,6.07230957 31.8811816,6.23979004 32.0486621,6.57475098 C32.1403776,6.75818197 32.1862354,7.02136556 32.1862354,7.36430176 L32.1862354,7.36430176 L32.1862354,11.33 L33.9328174,11.33 L33.9328174,6.93961914 C33.9328174,6.12215495 33.7184823,5.53697021 33.289812,5.18406494 C32.8611418,4.83115967 32.3098519,4.65470703 31.6359424,4.65470703 C31.0976123,4.65470703 30.6529915,4.78629883 30.3020801,5.04948242 C30.1066862,5.19702474 29.8993294,5.43827637 29.6800098,5.7732373 L29.6800098,5.7732373 L29.6800098,4.8221875 L28.0351123,4.8221875 L28.0351123,11.33 L29.7338428,11.33 Z M38.1736621,13.9977246 C39.5533822,13.9977246 40.4864876,13.6308626 40.9729785,12.8971387 C41.2561003,12.4704622 41.3976611,11.836429 41.3976611,10.9950391 L41.3976611,10.9950391 L41.3976611,4.81022461 L39.7408008,4.81022461 L39.7408008,5.74931152 C39.4855924,5.29073405 39.1506315,4.97571126 38.735918,4.80424316 C38.4926725,4.70455241 38.207557,4.65470703 37.8805713,4.65470703 C36.9953174,4.65470703 36.3114388,4.98468343 35.8289355,5.64463623 C35.3464323,6.30458903 35.1051807,7.1190625 35.1051807,8.08805664 C35.1051807,9.09293945 35.3554045,9.88946859 35.8558521,10.477644 C36.3562996,11.0658195 37.0252246,11.3599072 37.862627,11.3599072 C38.4049447,11.3599072 38.8455778,11.2303092 39.1845264,10.9711133 C39.371945,10.8315462 39.5474007,10.6221956 39.7108936,10.3430615 L39.7108936,10.3430615 L39.7108936,10.7617627 C39.7108936,11.383833 39.6431038,11.82646 39.5075244,12.0896436 C39.3001676,12.5003695 38.8894417,12.7057324 38.2753467,12.7057324 C37.840695,12.7057324 37.5316536,12.6279736 37.3482227,12.4724561 C37.2405566,12.3847282 37.1627979,12.2411735 37.1149463,12.041792 L37.1149463,12.041792 L35.2606982,12.041792 C35.3165251,12.6917757 35.6076221,13.1802604 36.1339893,13.5072461 C36.6603564,13.8342318 37.3402474,13.9977246 38.1736621,13.9977246 Z M38.3052539,9.9303418 C37.7071094,9.9303418 37.2923958,9.65519531 37.0611133,9.10490234 C36.9335091,8.80981771 36.869707,8.47286296 36.869707,8.09403809 C36.869707,7.65539876 36.9295215,7.28654297 37.0491504,6.9874707 C37.2764453,6.42521484 37.689165,6.14408691 38.2873096,6.14408691 C38.7259489,6.14408691 39.0758634,6.30558594 39.3370532,6.62858398 C39.598243,6.95158203 39.7288379,7.4221224 39.7288379,8.04020508 C39.7288379,8.69816406 39.5912646,9.1776766 39.3161182,9.47874268 C39.0409717,9.77980876 38.7040169,9.9303418 38.3052539,9.9303418 Z M48.3720264,11.33 L48.3720264,7.87272461 L50.274126,7.87272461 C50.8164437,7.87272461 51.1862964,7.96643392 51.3836841,8.15385254 C51.5810718,8.34127116 51.6837533,8.7161084 51.6917285,9.27836426 L51.6917285,9.27836426 L51.7036914,10.0978223 C51.707679,10.3570182 51.7335986,10.6102327 51.7814502,10.8574658 C51.805376,10.9770947 51.8452523,11.1346061 51.9010791,11.33 L51.9010791,11.33 L53.9287891,11.33 L53.9287891,11.1086865 C53.7533333,11.0010205 53.6416797,10.83354 53.5938281,10.6062451 C53.5619271,10.4626904 53.5459766,10.1895378 53.5459766,9.78678711 L53.5459766,9.78678711 L53.5459766,9.19462402 C53.5459766,8.57654134 53.4612394,8.11696696 53.2917651,7.81590088 C53.1222909,7.5148348 52.8341846,7.28255534 52.4274463,7.1190625 C52.9139372,6.95158203 53.2628548,6.66546956 53.4741992,6.2607251 C53.6855436,5.85598063 53.7912158,5.44425781 53.7912158,5.02555664 C53.7912158,4.67863281 53.735389,4.36959147 53.6237354,4.09843262 C53.5120817,3.82727376 53.3605518,3.58004069 53.1691455,3.3567334 C52.937863,3.08557454 52.6557381,2.88021159 52.322771,2.74064453 C51.9898039,2.60107747 51.514279,2.5253125 50.8961963,2.51334961 L50.8961963,2.51334961 L46.5716113,2.51334961 L46.5716113,11.33 L48.3720264,11.33 Z M50.4595508,6.41325195 L48.3720264,6.41325195 L48.3720264,4.04459961 L50.5133838,4.04459961 C50.9121468,4.04459961 51.2112191,4.0964388 51.4106006,4.20011719 C51.7654997,4.38354818 51.9429492,4.7424349 51.9429492,5.27677734 C51.9429492,5.77124349 51.7595182,6.1022168 51.3926563,6.26969727 C51.1852995,6.36540039 50.8742643,6.41325195 50.4595508,6.41325195 L50.4595508,6.41325195 Z M56.8357715,11.5333691 C57.2983366,11.5333691 57.7130501,11.4276969 58.0799121,11.2163525 C58.3869596,11.0369092 58.6581185,10.8195833 58.8933887,10.564375 C58.9053516,10.7119173 58.9213021,10.8435091 58.9412402,10.9591504 C58.9611784,11.0747917 58.9970671,11.1984082 59.0489063,11.33 L59.0489063,11.33 L60.9031543,11.33 L60.9031543,11.0787793 C60.7915007,11.0269401 60.7077604,10.9611442 60.6519336,10.8813916 C60.5961068,10.801639 60.5622119,10.650109 60.550249,10.4268018 C60.5422738,10.1317171 60.5382861,9.88049642 60.5382861,9.67313965 L60.5382861,9.67313965 L60.5382861,6.68241699 C60.5382861,5.89685384 60.2611458,5.36251139 59.7068652,5.07938965 C59.1525846,4.7962679 58.5185514,4.65470703 57.8047656,4.65470703 C56.7081673,4.65470703 55.9345671,4.94181641 55.4839648,5.51603516 C55.2008431,5.88289714 55.0413379,6.35144368 55.0054492,6.9216748 L55.0054492,6.9216748 L56.6503467,6.9216748 C56.690223,6.6704541 56.7699756,6.47107259 56.8896045,6.32353027 C57.057085,6.12414876 57.3422005,6.02445801 57.7449512,6.02445801 C58.1038379,6.02445801 58.3759937,6.07530029 58.5614185,6.17698486 C58.7468433,6.27866943 58.8395557,6.46309733 58.8395557,6.73026855 C58.8395557,6.94958822 58.7179329,7.11108724 58.4746875,7.21476562 C58.3391081,7.27458008 58.113807,7.32442546 57.7987842,7.36430176 L57.7987842,7.36430176 L57.218584,7.4360791 C56.560625,7.51981934 56.0621712,7.65938639 55.7232227,7.85478027 C55.10514,8.21366699 54.7960986,8.79386719 54.7960986,9.59538086 C54.7960986,10.2134635 54.9885018,10.6909823 55.3733081,11.027937 C55.7581144,11.3648918 56.2456022,11.5333691 56.8357715,11.5333691 Z M57.3382129,10.29521 C57.1069303,10.29521 56.9105396,10.230411 56.7490405,10.100813 C56.5875415,9.97121501 56.506792,9.76086751 56.506792,9.46977051 C56.506792,9.14278483 56.6383838,8.9015332 56.9015674,8.74601562 C57.057085,8.65430013 57.3142871,8.57654134 57.6731738,8.51273926 L57.6731738,8.51273926 L58.0559863,8.44096191 C58.2473926,8.40507324 58.3979256,8.36619385 58.5075854,8.32432373 C58.6172453,8.28245361 58.7259082,8.2276237 58.8335742,8.15983398 L58.8335742,8.15983398 L58.8335742,8.79386719 C58.8216113,9.36409831 58.6611092,9.75687988 58.3520679,9.97221191 C58.0430265,10.1875439 57.7050749,10.29521 57.3382129,10.29521 Z M64.0154832,11.4232109 L64.2288379,11.4197217 L65.036333,11.3898145 L65.036333,10.1157666 C64.9805062,10.1197542 64.9236825,10.122745 64.8658618,10.1247388 C64.8080412,10.1267326 64.7532113,10.1277295 64.7013721,10.1277295 C64.3544482,10.1277295 64.1470915,10.0948315 64.0793018,10.0290356 C64.011512,9.96323975 63.9776172,9.79675618 63.9776172,9.52958496 L63.9776172,9.52958496 L63.9776172,6.08427246 L65.036333,6.08427246 L65.036333,4.87003906 L63.9776172,4.87003906 L63.9776172,3.05167969 L62.2908496,3.05167969 L62.2908496,4.87003906 L61.3816699,4.87003906 L61.3816699,6.08427246 L62.2908496,6.08427246 L62.2908496,10.0978223 C62.2908496,10.5045605 62.3865527,10.8056266 62.577959,11.0010205 C62.8730436,11.308068 63.4233366,11.4476351 64.2288379,11.4197217 L64.0154832,11.4232109 Z M68.7627734,11.545332 C69.7676563,11.545332 70.5492318,11.2283154 71.1075,10.5942822 C71.4663867,10.1955192 71.667762,9.80273763 71.711626,9.4159375 L71.711626,9.4159375 L69.9710254,9.4159375 C69.8793099,9.60734375 69.7736377,9.75687988 69.6540088,9.8645459 C69.4346891,10.0639274 69.1495736,10.1636182 68.7986621,10.1636182 C68.4676888,10.1636182 68.1845671,10.0818717 67.9492969,9.91837891 C67.5624967,9.65519531 67.3571338,9.19661784 67.333208,8.54264648 L67.333208,8.54264648 L71.7953662,8.54264648 C71.8033415,7.98039062 71.7853971,7.54972656 71.7415332,7.2506543 C71.6657682,6.74023763 71.5002816,6.29162923 71.2450732,5.9048291 C70.9619515,5.46618978 70.6030648,5.14518555 70.1684131,4.94181641 C69.7337614,4.73844727 69.2452767,4.6367627 68.702959,4.6367627 C67.7897917,4.6367627 67.0470955,4.93782878 66.4748706,5.53996094 C65.9026457,6.1420931 65.6165332,7.00740885 65.6165332,8.1359082 C65.6165332,9.34017253 65.9335498,10.2094759 66.567583,10.7438184 C67.2016162,11.2781608 67.9333464,11.545332 68.7627734,11.545332 Z M70.0248584,7.41813477 L67.3750781,7.41813477 C67.4309049,6.99544596 67.5674813,6.66048503 67.7848071,6.41325195 C68.002133,6.16601888 68.3081836,6.04240234 68.702959,6.04240234 C69.0658333,6.04240234 69.3698901,6.15904053 69.6151294,6.39231689 C69.8603687,6.62559326 69.996945,6.96753255 70.0248584,7.41813477 L70.0248584,7.41813477 Z M75.5457324,11.5513135 C76.5506152,11.5513135 77.2933114,11.3469474 77.7738208,10.9382153 C78.2543302,10.5294832 78.494585,10.0021191 78.494585,9.35612305 C78.494585,8.86564453 78.3271045,8.45691243 77.9921436,8.12992676 C77.653195,7.80692871 77.1447721,7.56567708 76.466875,7.40617187 C75.4500293,7.18286458 74.8578662,7.02535319 74.6903857,6.9336377 C74.5229053,6.84590983 74.439165,6.70434896 74.439165,6.50895508 C74.439165,6.3534375 74.5179207,6.21785807 74.6754321,6.1022168 C74.8329435,5.98657552 75.097124,5.92875488 75.4679736,5.92875488 C75.9185758,5.92875488 76.2375863,6.04439616 76.4250049,6.27567871 C76.5246956,6.40328288 76.5865039,6.57674479 76.6104297,6.79606445 L76.6104297,6.79606445 L78.3151416,6.79606445 C78.2393766,5.99853841 77.9452889,5.43727946 77.4328784,5.1122876 C76.9204679,4.78729574 76.2575244,4.6247998 75.4440479,4.6247998 C74.5867074,4.6247998 73.92177,4.84112874 73.4492358,5.27378662 C72.9767017,5.7064445 72.7404346,6.22383952 72.7404346,6.82597168 C72.7404346,7.33638835 72.8919645,7.72717611 73.1950244,7.99833496 C73.4980843,8.27348145 74.0184701,8.50277018 74.7561816,8.68620117 C75.7810026,8.92944661 76.3731657,9.10091471 76.5326709,9.20060547 C76.6921761,9.30029622 76.7719287,9.44584473 76.7719287,9.63725098 C76.7719287,9.83663249 76.6732349,9.98616862 76.4758472,10.0858594 C76.2784595,10.1855501 76.0122852,10.2353955 75.6773242,10.2353955 C75.1070931,10.2353955 74.7163053,10.121748 74.5049609,9.89445312 C74.385332,9.76684896 74.3075732,9.55151693 74.2716846,9.24845703 L74.2716846,9.24845703 L72.5430469,9.24845703 C72.5430469,9.91837891 72.7872892,10.4696688 73.2757739,10.9023267 C73.7642586,11.3349845 74.5209115,11.5513135 75.5457324,11.5513135 Z" id="path-1"></path>
    </defs>
    <g id="c9-pricing" stroke="none" stroke-width="1" fill="none" fill-rule="evenodd">
        <rect id="bg" fill="#FFFFFF" x="-4" y="-7" width="251" height="283"></rect>
        <rect id="Rectangle-Copy" fill="#EBE9E9" x="0" y="93" width="240" height="95"></rect>
        <rect id="header-bg" fill="#576C78" fill-rule="nonzero" x="-63" y="-1" width="311.503933" height="94"></rect>
        <polygon id="Path" fill="#81A0B4" fill-rule="nonzero" points="121 92.1177762 150.516329 53.9370885 173.440678 69.8906364 204.309839 26 240 93"></polygon>
        <g id="paragraph" transform="translate(165.250000, 120.850000)" fill="#81A0B4" fill-rule="nonzero">
            <rect id="Rectangle" x="-0.25" y="19.15" width="14" height="1"></rect>
            <rect id="Rectangle" x="-0.25" y="12.15" width="24" height="1"></rect>
            <rect id="Rectangle" x="-0.25" y="6.15" width="24" height="1"></rect>
            <rect id="Rectangle" x="-0.25" y="0.15" width="24" height="1"></rect>
        </g>
        <g id="paragraph-copy-2" transform="translate(79.250000, 120.850000)" fill="#81A0B4" fill-rule="nonzero">
            <rect id="Rectangle" x="-0.25" y="19.15" width="14" height="1"></rect>
            <rect id="Rectangle" x="-0.25" y="12.15" width="24" height="1"></rect>
            <rect id="Rectangle" x="-0.25" y="6.15" width="24" height="1"></rect>
            <rect id="Rectangle" x="-0.25" y="0.15" width="24" height="1"></rect>
        </g>
        <g id="paragraph-copy" transform="translate(165.250000, 150.850000)" fill="#81A0B4" fill-rule="nonzero">
            <rect id="Rectangle" x="-0.25" y="13.15" width="14" height="1"></rect>
            <rect id="Rectangle" x="-0.25" y="6.15" width="24" height="1"></rect>
            <rect id="Rectangle" x="-0.25" y="0.15" width="24" height="1"></rect>
        </g>
        <g id="paragraph-copy-3" transform="translate(79.250000, 150.850000)" fill="#81A0B4" fill-rule="nonzero">
            <rect id="Rectangle" x="-0.25" y="13.15" width="14" height="1"></rect>
            <rect id="Rectangle" x="-0.25" y="6.15" width="24" height="1"></rect>
            <rect id="Rectangle" x="-0.25" y="0.15" width="24" height="1"></rect>
        </g>
        <g id="Group" transform="translate(83.000000, 21.000000)" fill-rule="nonzero">
            <g id="PricingRates">
                <use fill="#000000" xlink:href="#path-1"></use>
                <use fill="#FFFFFF" xlink:href="#path-1"></use>
            </g>
        </g>
        <path d="M12.0500148,19.5105882 L12.0500148,25.6596078 C12.0512188,27.1559089 12.8821043,28.5381242 14.2301255,29.2862745 L19.7782427,32.3607843 C21.1258242,33.1147167 22.7908285,33.1147167 24.13841,32.3607843 L29.6734728,29.2862745 C31.0284958,28.5432313 31.8654521,27.1592046 31.8666115,25.6596078 L31.8666115,19.5105882 C31.8674183,18.0072086 31.0305634,16.6185611 29.6734728,15.8713725 L24.1253556,12.7843137 C22.7777741,12.0303814 21.1127699,12.0303814 19.7651883,12.7843137 L14.2170711,15.8588235 C12.869934,16.6184104 12.0445656,18.0092782 12.0500148,19.5105882 L12.0500148,19.5105882 Z" id="Path" fill="#FFFFFF" fill-rule="nonzero"></path>
        <path d="M21.5000871,33.9999818 C20.6256793,34.0023639 19.7661157,33.77139 19.0081432,33.3303511 L13.4921201,30.1135871 C11.9541504,29.2060176 11.0060764,27.5426003 11.0000871,25.741414 L11.0000871,19.307886 C10.9895275,17.4919233 11.9401582,15.808994 13.4921201,14.896324 L19.0081432,11.67956 C20.5487155,10.77348 22.4514601,10.77348 23.9920323,11.67956 L29.4950766,14.896324 C31.0419265,15.7966439 31.9967166,17.463165 32,19.2684971 L32,25.7020251 C31.994052,27.5066287 31.039977,29.1719014 29.4950766,30.0741982 L23.9920323,33.2778325 C23.2383929,33.7355304 22.3789762,33.9845773 21.5000871,33.9999818 L21.5000871,33.9999818 Z M21.5000878,12.3491648 C20.8512496,12.347857 20.2142415,12.5248423 19.6570871,12.8612284 L14.141064,16.0648627 C13.004175,16.7412368 12.3037946,17.9736563 12.2980634,19.307886 L12.2980634,25.741414 C12.3057613,27.0716623 13.0062274,28.2992423 14.141064,28.9713077 L19.6570871,32.1880717 C20.796818,32.8568814 22.2033576,32.8568814 23.3430885,32.1880717 L28.8461327,28.9713077 C29.9878847,28.3044901 30.6943397,27.0750723 30.7021122,25.741414 L30.7021122,19.307886 C30.6962999,17.9702562 29.989937,16.7360016 28.8461327,16.0648627 L23.3430885,12.8612284 C22.7851715,12.5266552 22.1486663,12.3498096 21.5000878,12.3491648 L21.5000878,12.3491648 Z" id="Shape" fill="#C9292C" fill-rule="nonzero"></path>
        <rect id="Rectangle" fill="#FFFFFF" fill-rule="nonzero" x="95" y="40" width="57.71" height="4.76"></rect>
        <rect id="Rectangle-Copy-4" fill="#FFFFFF" fill-rule="nonzero" x="152" y="86" width="15" height="3"></rect>
        <rect id="Rectangle-Copy-5" fill="#FFFFFF" fill-rule="nonzero" x="72" y="86" width="15" height="3"></rect>
        <rect id="Rectangle" fill="#EBE9E9" x="98" y="83" width="44" height="10"></rect>
        <rect id="Rectangle-Copy-6" fill="#1D1D1D" fill-rule="nonzero" x="114" y="86" width="15" height="3"></rect>
        <g id="heading" transform="translate(166.000000, 109.000000)" fill="#81A0B4" fill-rule="nonzero">
            <polygon id="Path" points="0 6 0 0 1.29285714 0 1.29285714 2.28702641 3.71428571 2.28702641 3.71428571 0 5 0 5 6 3.71428571 6 3.71428571 3.32032147 1.29285714 3.32032147 1.29285714 6"></polygon>
            <polygon id="Path" points="10.8409091 1.056 7.34848485 1.056 7.34848485 2.352 10.5530303 2.352 10.5530303 3.38742857 7.34848485 3.38742857 7.34848485 4.92342857 11 4.92342857 11 6 6 6 6 0 10.8409091 0"></polygon>
            <path d="M13.2708585,0 L14.7654172,0 L17,6 L15.5489722,6 L15.1354293,4.76693456 L12.8065296,4.76693456 L12.3784764,6 L11,6 L13.2708585,0 Z M13.1837969,3.74052813 L14.8016929,3.74052813 L14.0036276,1.38461538 L13.1837969,3.74052813 Z" id="Shape"></path>
            <path d="M21.458416,0.124278139 C21.8677283,0.261431854 22.2222385,0.5295745 22.468816,0.888519264 C22.6714509,1.18033778 22.8144124,1.51043881 22.8892509,1.85931205 C22.9607143,2.18482323 22.9970947,2.51726078 22.9977502,2.85075999 C23.0214543,3.55653538 22.8574825,4.25576349 22.5230657,4.87496622 C22.1292376,5.60326249 21.3602255,6.03911372 20.542953,5.99723021 L18,5.99723021 L18,0.000347145594 L20.542953,0.000347145594 C20.85245,-0.00428567807 21.1609266,0.0374744004 21.458416,0.124278139 L21.458416,0.124278139 Z M19.1934926,1.03999048 L19.1934926,4.95070182 L20.3191731,4.95070182 C20.8740115,4.97312303 21.3745668,4.61454502 21.5397905,4.07629982 C21.6754407,3.7114219 21.7399284,3.32324752 21.7296643,2.93338065 C21.7513189,2.45727799 21.6533075,1.98340948 21.4448536,1.55636962 C21.186796,1.19554357 20.7544055,1.00777335 20.3191731,1.0675307 L19.1934926,1.03999048 Z" id="Shape"></path>
            <polygon id="Path" points="25 6 24 6 24 0 25 0"></polygon>
            <polygon id="Path" points="27.0141643 0 28.3668555 0 30.8031161 4.18140069 30.8031161 0 32 0 32 6 30.7110482 6 28.203966 1.74282434 28.203966 6 27 6"></polygon>
            <path d="M36.642042,1.93228708 C36.5618213,1.57085191 36.2857694,1.26761769 35.9040214,1.12159491 C35.6707069,1.0337304 35.4195162,0.989226381 35.1660007,0.99083811 C34.6723607,0.982398255 34.201679,1.17521155 33.889225,1.51386532 C33.5184149,1.96317605 33.340488,2.51484105 33.387371,3.06987125 C33.3277804,3.60926017 33.5227915,4.14645041 33.926126,4.55396094 C34.2572846,4.83604123 34.6992091,4.99310363 35.1586205,4.99199623 C35.5639558,5.00546582 35.9598434,4.88155126 36.2656515,4.64549071 C36.5557476,4.41128837 36.7438099,4.09429115 36.7970263,3.74980662 L35.3209851,3.74980662 L35.3209851,2.79528197 L38,2.79528197 L38,5.85499112 L37.106995,5.85499112 L36.9741513,5.14236655 C36.7635024,5.36521894 36.5144238,5.5571837 36.2361307,5.71115864 C35.8388235,5.91158908 35.3868368,6.01112292 34.9298341,5.9988236 C34.1354126,6.02079068 33.3698027,5.73421702 32.8338555,5.21428279 C32.2460357,4.62079356 31.9486714,3.84463506 32.0072724,3.05679557 C31.9625918,2.24713316 32.2718472,1.45335919 32.8707565,0.840467789 C33.4530627,0.283391199 34.2799173,-0.0220070277 35.1364799,0.00362426079 C35.8465434,-0.0295159658 36.5462517,0.165491304 37.106995,0.552802826 C37.5862507,0.892032245 37.8941158,1.38576 37.963099,1.92574924 L36.642042,1.93228708 Z" id="Path"></path>
        </g>
        <g id="heading-copy" transform="translate(79.000000, 109.000000)" fill="#81A0B4" fill-rule="nonzero">
            <polygon id="Path" points="0 6 0 0 1.29285714 0 1.29285714 2.28702641 3.71428571 2.28702641 3.71428571 0 5 0 5 6 3.71428571 6 3.71428571 3.32032147 1.29285714 3.32032147 1.29285714 6"></polygon>
            <polygon id="Path" points="10.8409091 1.056 7.34848485 1.056 7.34848485 2.352 10.5530303 2.352 10.5530303 3.38742857 7.34848485 3.38742857 7.34848485 4.92342857 11 4.92342857 11 6 6 6 6 0 10.8409091 0"></polygon>
            <path d="M13.2708585,0 L14.7654172,0 L17,6 L15.5489722,6 L15.1354293,4.76693456 L12.8065296,4.76693456 L12.3784764,6 L11,6 L13.2708585,0 Z M13.1837969,3.74052813 L14.8016929,3.74052813 L14.0036276,1.38461538 L13.1837969,3.74052813 Z" id="Shape"></path>
            <path d="M21.458416,0.124278139 C21.8677283,0.261431854 22.2222385,0.5295745 22.468816,0.888519264 C22.6714509,1.18033778 22.8144124,1.51043881 22.8892509,1.85931205 C22.9607143,2.18482323 22.9970947,2.51726078 22.9977502,2.85075999 C23.0214543,3.55653538 22.8574825,4.25576349 22.5230657,4.87496622 C22.1292376,5.60326249 21.3602255,6.03911372 20.542953,5.99723021 L18,5.99723021 L18,0.000347145594 L20.542953,0.000347145594 C20.85245,-0.00428567807 21.1609266,0.0374744004 21.458416,0.124278139 L21.458416,0.124278139 Z M19.1934926,1.03999048 L19.1934926,4.95070182 L20.3191731,4.95070182 C20.8740115,4.97312303 21.3745668,4.61454502 21.5397905,4.07629982 C21.6754407,3.7114219 21.7399284,3.32324752 21.7296643,2.93338065 C21.7513189,2.45727799 21.6533075,1.98340948 21.4448536,1.55636962 C21.186796,1.19554357 20.7544055,1.00777335 20.3191731,1.0675307 L19.1934926,1.03999048 Z" id="Shape"></path>
            <polygon id="Path" points="25 6 24 6 24 0 25 0"></polygon>
            <polygon id="Path" points="27.0141643 0 28.3668555 0 30.8031161 4.18140069 30.8031161 0 32 0 32 6 30.7110482 6 28.203966 1.74282434 28.203966 6 27 6"></polygon>
            <path d="M36.642042,1.93228708 C36.5618213,1.57085191 36.2857694,1.26761769 35.9040214,1.12159491 C35.6707069,1.0337304 35.4195162,0.989226381 35.1660007,0.99083811 C34.6723607,0.982398255 34.201679,1.17521155 33.889225,1.51386532 C33.5184149,1.96317605 33.340488,2.51484105 33.387371,3.06987125 C33.3277804,3.60926017 33.5227915,4.14645041 33.926126,4.55396094 C34.2572846,4.83604123 34.6992091,4.99310363 35.1586205,4.99199623 C35.5639558,5.00546582 35.9598434,4.88155126 36.2656515,4.64549071 C36.5557476,4.41128837 36.7438099,4.09429115 36.7970263,3.74980662 L35.3209851,3.74980662 L35.3209851,2.79528197 L38,2.79528197 L38,5.85499112 L37.106995,5.85499112 L36.9741513,5.14236655 C36.7635024,5.36521894 36.5144238,5.5571837 36.2361307,5.71115864 C35.8388235,5.91158908 35.3868368,6.01112292 34.9298341,5.9988236 C34.1354126,6.02079068 33.3698027,5.73421702 32.8338555,5.21428279 C32.2460357,4.62079356 31.9486714,3.84463506 32.0072724,3.05679557 C31.9625918,2.24713316 32.2718472,1.45335919 32.8707565,0.840467789 C33.4530627,0.283391199 34.2799173,-0.0220070277 35.1364799,0.00362426079 C35.8465434,-0.0295159658 36.5462517,0.165491304 37.106995,0.552802826 C37.5862507,0.892032245 37.8941158,1.38576 37.963099,1.92574924 L36.642042,1.93228708 Z" id="Path"></path>
        </g>
        <path d="M59.6965332,115.417603 L59.6965332,114.215332 C60.3146159,114.16748 60.8489583,114.003988 61.2995605,113.724854 C62.0372721,113.270264 62.4061279,112.540527 62.4061279,111.535645 C62.4061279,110.774007 62.1369629,110.183838 61.5986328,109.765137 C61.2716471,109.513916 60.6336263,109.224813 59.6845703,108.897827 L59.6845703,108.897827 L59.6845703,106.618896 C60.0833333,106.64681 60.3584798,106.802327 60.5100098,107.085449 C60.5977376,107.248942 60.6575521,107.508138 60.6894531,107.863037 L60.6894531,107.863037 L62.2625732,107.863037 C62.2386475,106.906006 61.8897298,106.214152 61.2158203,105.787476 C60.8449707,105.520304 60.334554,105.360799 59.6845703,105.30896 L59.6845703,105.30896 L59.6845703,104.501465 L59.116333,104.501465 L59.116333,105.296997 C58.7095947,105.328898 58.4005534,105.378743 58.189209,105.446533 C57.8422852,105.554199 57.5272624,105.749593 57.2441406,106.032715 C57.024821,106.252035 56.8543498,106.513224 56.7327271,106.816284 C56.6111043,107.119344 56.550293,107.456299 56.550293,107.827148 C56.550293,108.389404 56.7068075,108.869914 57.0198364,109.268677 C57.3328654,109.66744 57.8701986,109.978475 58.6318359,110.201782 L58.6318359,110.201782 L59.116333,110.345337 L59.116333,112.899414 C58.6617432,112.819661 58.3566895,112.6462 58.2011719,112.379028 C58.1014811,112.20756 58.0237223,111.870605 57.9678955,111.368164 L57.9678955,111.368164 L56.3529053,111.368164 C56.3409424,112.472738 56.6759033,113.254313 57.3577881,113.712891 C57.7445882,113.968099 58.3307699,114.139567 59.116333,114.227295 L59.116333,114.227295 L59.116333,115.417603 L59.6965332,115.417603 Z M59.116333,108.730347 C58.825236,108.638631 58.609904,108.53894 58.4703369,108.431274 C58.2191162,108.235881 58.0935059,107.970703 58.0935059,107.635742 C58.0935059,107.328695 58.1772461,107.086446 58.3447266,106.908997 C58.512207,106.731547 58.7694092,106.638835 59.116333,106.630859 L59.116333,106.630859 L59.116333,108.730347 Z M59.6845703,112.88147 L59.6845703,110.542725 C60.0195312,110.666341 60.2567952,110.78597 60.3963623,110.901611 C60.6316325,111.100993 60.7492676,111.372152 60.7492676,111.715088 C60.7492676,112.16569 60.6236572,112.482707 60.3724365,112.666138 C60.2288818,112.769816 59.9995931,112.841593 59.6845703,112.88147 L59.6845703,112.88147 Z M65.9949951,114.251221 C67.3587646,114.251221 68.2958577,113.583293 68.8062744,112.247437 C69.0734456,111.545614 69.2070312,110.670329 69.2070312,109.621582 C69.2070312,108.540934 69.0674642,107.669637 68.7883301,107.00769 C68.2978516,105.839315 67.3926595,105.255127 66.0727539,105.255127 C65.2154134,105.255127 64.518575,105.543233 63.9822388,106.119446 C63.4459025,106.695658 63.1777344,107.448324 63.1777344,108.377441 C63.1777344,109.274658 63.4449056,109.961528 63.979248,110.438049 C64.5135905,110.914571 65.1256917,111.152832 65.8155518,111.152832 C66.2821045,111.152832 66.6748861,111.057129 66.9938965,110.865723 C67.1693522,110.762044 67.3348389,110.612508 67.4903564,110.417114 C67.4584554,111.075073 67.3806966,111.575521 67.2570801,111.918457 C67.0297852,112.540527 66.6350098,112.851562 66.0727539,112.851562 C65.7816569,112.851562 65.5483805,112.77181 65.3729248,112.612305 C65.1974691,112.452799 65.0898031,112.245443 65.0499268,111.990234 L65.0499268,111.990234 L63.3511963,111.990234 C63.4269613,112.727946 63.7240397,113.289205 64.2424316,113.674011 C64.7608236,114.058818 65.3450114,114.251221 65.9949951,114.251221 Z M66.1864014,109.765137 C65.7517497,109.765137 65.4297485,109.636536 65.2203979,109.379333 C65.0110474,109.122131 64.9063721,108.736328 64.9063721,108.221924 C64.9063721,107.611816 65.0698649,107.179159 65.3968506,106.92395 C65.6042074,106.760457 65.8534342,106.678711 66.1445312,106.678711 C66.5432943,106.678711 66.8573201,106.822266 67.0866089,107.109375 C67.3158976,107.396484 67.430542,107.785278 67.430542,108.275757 C67.430542,108.885864 67.2371419,109.314535 66.8503418,109.561768 C66.642985,109.697347 66.4216715,109.765137 66.1864014,109.765137 Z M72.8676758,114.227295 C73.8924967,114.227295 74.6621094,113.912272 75.1765137,113.282227 C75.690918,112.652181 75.9481201,111.936401 75.9481201,111.134888 C75.9481201,110.213745 75.6809489,109.511922 75.1466064,109.029419 C74.612264,108.546916 73.9862061,108.305664 73.2684326,108.305664 C72.9135335,108.305664 72.6124674,108.351522 72.3652344,108.443237 C72.2176921,108.499064 72.0123291,108.612712 71.7491455,108.78418 L71.7491455,108.78418 L72.0601807,106.888062 L75.6071777,106.888062 L75.6071777,105.440552 L70.8280029,105.440552 L70.2178955,110.231689 L71.7491455,110.303467 C71.8847249,110.044271 72.0861003,109.866821 72.3532715,109.771118 C72.5048014,109.719279 72.6842448,109.693359 72.8916016,109.693359 C73.3302409,109.693359 73.6532389,109.845886 73.8605957,110.15094 C74.0679525,110.455994 74.1716309,110.829834 74.1716309,111.272461 C74.1716309,111.723063 74.0609741,112.096903 73.8396606,112.393982 C73.6183472,112.69106 73.296346,112.8396 72.8736572,112.8396 C72.5067952,112.8396 72.2276611,112.738912 72.0362549,112.537537 C71.8448486,112.336161 71.7152507,112.050049 71.6474609,111.679199 L71.6474609,111.679199 L69.9487305,111.679199 C70.0085449,112.492676 70.3036296,113.120728 70.8339844,113.563354 C71.3643392,114.005981 72.0422363,114.227295 72.8676758,114.227295 Z" id="$95" fill="#000000" fill-rule="nonzero"></path>
        <rect id="Rectangle" fill="#81A0B4" fill-rule="nonzero" x="49" y="118" width="27" height="2"></rect>
        <rect id="Rectangle-Copy-2" fill="#81A0B4" fill-rule="nonzero" x="136" y="118" width="27" height="2"></rect>
        <path d="M139.696533,116.417603 L139.696533,115.215332 C140.314616,115.16748 140.848958,115.003988 141.299561,114.724854 C142.037272,114.270264 142.406128,113.540527 142.406128,112.535645 C142.406128,111.774007 142.136963,111.183838 141.598633,110.765137 C141.271647,110.513916 140.633626,110.224813 139.68457,109.897827 L139.68457,109.897827 L139.68457,107.618896 C140.083333,107.64681 140.35848,107.802327 140.51001,108.085449 C140.597738,108.248942 140.657552,108.508138 140.689453,108.863037 L140.689453,108.863037 L142.262573,108.863037 C142.238647,107.906006 141.88973,107.214152 141.21582,106.787476 C140.844971,106.520304 140.334554,106.360799 139.68457,106.30896 L139.68457,106.30896 L139.68457,105.501465 L139.116333,105.501465 L139.116333,106.296997 C138.709595,106.328898 138.400553,106.378743 138.189209,106.446533 C137.842285,106.554199 137.527262,106.749593 137.244141,107.032715 C137.024821,107.252035 136.85435,107.513224 136.732727,107.816284 C136.611104,108.119344 136.550293,108.456299 136.550293,108.827148 C136.550293,109.389404 136.706807,109.869914 137.019836,110.268677 C137.332865,110.66744 137.870199,110.978475 138.631836,111.201782 L138.631836,111.201782 L139.116333,111.345337 L139.116333,113.899414 C138.661743,113.819661 138.356689,113.6462 138.201172,113.379028 C138.101481,113.20756 138.023722,112.870605 137.967896,112.368164 L137.967896,112.368164 L136.352905,112.368164 C136.340942,113.472738 136.675903,114.254313 137.357788,114.712891 C137.744588,114.968099 138.33077,115.139567 139.116333,115.227295 L139.116333,115.227295 L139.116333,116.417603 L139.696533,116.417603 Z M139.116333,109.730347 C138.825236,109.638631 138.609904,109.53894 138.470337,109.431274 C138.219116,109.235881 138.093506,108.970703 138.093506,108.635742 C138.093506,108.328695 138.177246,108.086446 138.344727,107.908997 C138.512207,107.731547 138.769409,107.638835 139.116333,107.630859 L139.116333,107.630859 L139.116333,109.730347 Z M139.68457,113.88147 L139.68457,111.542725 C140.019531,111.666341 140.256795,111.78597 140.396362,111.901611 C140.631632,112.100993 140.749268,112.372152 140.749268,112.715088 C140.749268,113.16569 140.623657,113.482707 140.372437,113.666138 C140.228882,113.769816 139.999593,113.841593 139.68457,113.88147 L139.68457,113.88147 Z M147.448486,115 L147.448486,106.326904 L146.030884,106.326904 C146.030884,106.402669 146.008952,106.518311 145.965088,106.673828 C145.889323,106.933024 145.777669,107.140381 145.630127,107.295898 C145.414795,107.523193 145.135661,107.674723 144.792725,107.750488 C144.577393,107.79834 144.200562,107.834229 143.662231,107.858154 L143.662231,107.858154 L143.662231,109.018555 L145.701904,109.018555 L145.701904,115 L147.448486,115 Z M152.867676,115.227295 C153.892497,115.227295 154.662109,114.912272 155.176514,114.282227 C155.690918,113.652181 155.94812,112.936401 155.94812,112.134888 C155.94812,111.213745 155.680949,110.511922 155.146606,110.029419 C154.612264,109.546916 153.986206,109.305664 153.268433,109.305664 C152.913534,109.305664 152.612467,109.351522 152.365234,109.443237 C152.217692,109.499064 152.012329,109.612712 151.749146,109.78418 L151.749146,109.78418 L152.060181,107.888062 L155.607178,107.888062 L155.607178,106.440552 L150.828003,106.440552 L150.217896,111.231689 L151.749146,111.303467 C151.884725,111.044271 152.0861,110.866821 152.353271,110.771118 C152.504801,110.719279 152.684245,110.693359 152.891602,110.693359 C153.330241,110.693359 153.653239,110.845886 153.860596,111.15094 C154.067952,111.455994 154.171631,111.829834 154.171631,112.272461 C154.171631,112.723063 154.060974,113.096903 153.839661,113.393982 C153.618347,113.69106 153.296346,113.8396 152.873657,113.8396 C152.506795,113.8396 152.227661,113.738912 152.036255,113.537537 C151.844849,113.336161 151.715251,113.050049 151.647461,112.679199 L151.647461,112.679199 L149.94873,112.679199 C150.008545,113.492676 150.30363,114.120728 150.833984,114.563354 C151.364339,115.005981 152.042236,115.227295 152.867676,115.227295 Z M159.812134,115.215332 C160.916707,115.215332 161.691305,114.828532 162.135925,114.054932 C162.580546,113.281331 162.802856,112.178752 162.802856,110.747192 C162.802856,109.315633 162.580546,108.21106 162.135925,107.433472 C161.691305,106.655884 160.916707,106.26709 159.812134,106.26709 C158.70756,106.26709 157.932963,106.655884 157.488342,107.433472 C157.043722,108.21106 156.821411,109.315633 156.821411,110.747192 C156.821411,112.178752 157.043722,113.281331 157.488342,114.054932 C157.932963,114.828532 158.70756,115.215332 159.812134,115.215332 Z M159.812134,113.827637 C159.305705,113.827637 158.970744,113.563456 158.807251,113.035095 C158.643758,112.506734 158.562012,111.7441 158.562012,110.747192 C158.562012,109.702433 158.643758,108.928833 158.807251,108.426392 C158.970744,107.92395 159.305705,107.672729 159.812134,107.672729 C160.318563,107.672729 160.650533,107.92395 160.808044,108.426392 C160.965556,108.928833 161.044312,109.702433 161.044312,110.747192 C161.044312,111.7441 160.965556,112.506734 160.808044,113.035095 C160.650533,113.563456 160.318563,113.827637 159.812134,113.827637 Z" id="$150" fill="#000000" fill-rule="nonzero"></path>
        <g id="cta" transform="translate(-8.500000, 178.000000)" fill-rule="nonzero">
            <rect id="Rectangle" fill="#81A0B4" x="0.5" y="0" width="256" height="21"></rect>
            <rect id="Rectangle" fill="#C9292C" x="193.5" y="7" width="36" height="7" rx="3.35"></rect>
            <rect id="Rectangle" fill="#FFFFFF" x="24.5" y="8" width="151" height="2"></rect>
            <rect id="Rectangle-Copy" fill="#FFFFFF" x="24.5" y="13" width="112" height="2"></rect>
        </g>
        <rect id="Rectangle" stroke="#979797" fill="#576C78" x="-22.5" y="199" width="284" height="196"></rect>
        <path d="M209.050015,215.510588 L209.050015,221.659608 C209.051219,223.155909 209.882104,224.538124 211.230126,225.286275 L216.778243,228.360784 C218.125824,229.114717 219.790828,229.114717 221.13841,228.360784 L226.673473,225.286275 C228.028496,224.543231 228.865452,223.159205 228.866611,221.659608 L228.866611,215.510588 C228.867418,214.007209 228.030563,212.618561 226.673473,211.871373 L221.125356,208.784314 C219.777774,208.030381 218.11277,208.030381 216.765188,208.784314 L211.217071,211.858824 C209.869934,212.61841 209.044566,214.009278 209.050015,215.510588 L209.050015,215.510588 Z" id="Path" fill="#FFFFFF" fill-rule="nonzero"></path>
        <path d="M218.500087,229.999982 C217.625679,230.002364 216.766116,229.77139 216.008143,229.330351 L210.49212,226.113587 C208.95415,225.206018 208.006076,223.5426 208.000087,221.741414 L208.000087,215.307886 C207.989528,213.491923 208.940158,211.808994 210.49212,210.896324 L216.008143,207.67956 C217.548716,206.77348 219.45146,206.77348 220.992032,207.67956 L226.495077,210.896324 C228.041926,211.796644 228.996717,213.463165 229,215.268497 L229,221.702025 C228.994052,223.506629 228.039977,225.171901 226.495077,226.074198 L220.992032,229.277833 C220.238393,229.73553 219.378976,229.984577 218.500087,229.999982 L218.500087,229.999982 Z M218.500088,208.349165 C217.85125,208.347857 217.214241,208.524842 216.657087,208.861228 L211.141064,212.064863 C210.004175,212.741237 209.303795,213.973656 209.298063,215.307886 L209.298063,221.741414 C209.305761,223.071662 210.006227,224.299242 211.141064,224.971308 L216.657087,228.188072 C217.796818,228.856881 219.203358,228.856881 220.343088,228.188072 L225.846133,224.971308 C226.987885,224.30449 227.69434,223.075072 227.702112,221.741414 L227.702112,215.307886 C227.6963,213.970256 226.989937,212.736002 225.846133,212.064863 L220.343088,208.861228 C219.785172,208.526655 219.148666,208.34981 218.500088,208.349165 L218.500088,208.349165 Z" id="Shape" fill="#C9292C" fill-rule="nonzero"></path>
        <path d="M80.1466098,221.240234 C81.3809848,221.240234 82.3243441,220.904297 82.9766879,220.232422 C83.8477816,219.408203 84.2833285,218.220703 84.2833285,216.669922 C84.2833285,215.087891 83.8477816,213.900391 82.9766879,213.107422 C82.3243441,212.435547 81.3809848,212.099609 80.1466098,212.099609 C78.9122348,212.099609 77.9688754,212.435547 77.3165316,213.107422 C76.4415316,213.900391 76.0040316,215.087891 76.0040316,216.669922 C76.0040316,218.220703 76.4415316,219.408203 77.3165316,220.232422 C77.9688754,220.904297 78.9122348,221.240234 80.1466098,221.240234 Z M80.1466098,219.710938 C79.431766,219.710938 78.8614535,219.447266 78.4356723,218.919922 C78.009891,218.392578 77.7970004,217.642578 77.7970004,216.669922 C77.7970004,215.697266 78.009891,214.947266 78.4356723,214.419922 C78.8614535,213.892578 79.431766,213.628906 80.1466098,213.628906 C80.8614535,213.628906 81.4288363,213.893555 81.8487582,214.422852 C82.2686801,214.952148 82.478641,215.701172 82.478641,216.669922 C82.478641,217.642578 82.2686801,218.392578 81.8487582,218.919922 C81.4288363,219.447266 80.8614535,219.710938 80.1466098,219.710938 Z M87.6189691,221 L87.6189691,215.849609 L88.7146722,215.849609 L88.7146722,214.671875 L87.6189691,214.671875 L87.6189691,214.671875 L87.6189691,214.132812 C87.6189691,214.007812 87.6609613,213.893555 87.7449456,213.790039 C87.82893,213.686523 87.9812738,213.637695 88.2019769,213.643555 C88.42268,213.649414 88.5799066,213.658203 88.6736566,213.669922 L88.6736566,213.669922 L88.6736566,212.310547 C88.5252191,212.298828 88.4080316,212.290039 88.3220941,212.28418 C88.2361566,212.27832 88.1404534,212.275391 88.0349847,212.275391 C87.1092034,212.275391 86.5252191,212.466797 86.2830316,212.849609 C86.0525628,213.107422 85.9373284,213.578125 85.9373284,214.261719 L85.9373284,214.261719 L85.9373284,214.671875 L85.0232659,214.671875 L85.0232659,215.849609 L85.9549066,215.849609 L85.9549066,221 L87.6189691,221 Z M91.7690628,221 L91.7690628,215.849609 L92.8647659,215.849609 L92.8647659,214.671875 L91.7690628,214.671875 L91.7690628,214.671875 L91.7690628,214.132812 C91.7690628,214.007812 91.811055,213.893555 91.8950393,213.790039 C91.9790237,213.686523 92.1313675,213.637695 92.3520706,213.643555 C92.5727737,213.649414 92.7300003,213.658203 92.8237503,213.669922 L92.8237503,213.669922 L92.8237503,212.310547 C92.6753128,212.298828 92.5581253,212.290039 92.4721878,212.28418 C92.3862503,212.27832 92.2905471,212.275391 92.1850784,212.275391 C91.2592971,212.275391 90.6753128,212.466797 90.4331253,212.849609 C90.2026565,213.107422 90.0874221,213.578125 90.0874221,214.261719 L90.0874221,214.261719 L90.0874221,214.671875 L89.1733596,214.671875 L89.1733596,215.849609 L90.1050003,215.849609 L90.1050003,221 L91.7690628,221 Z M96.5578283,221.210938 C97.5422033,221.210938 98.3078283,220.900391 98.8547033,220.279297 C99.2062658,219.888672 99.4035315,219.503906 99.4465002,219.125 L99.4465002,219.125 L97.7414221,219.125 C97.6515783,219.3125 97.5480627,219.458984 97.4308752,219.564453 C97.2160315,219.759766 96.9367346,219.857422 96.5929846,219.857422 C96.2687658,219.857422 95.9914221,219.777344 95.7609533,219.617188 C95.3820471,219.359375 95.1808752,218.910156 95.1574377,218.269531 L95.1574377,218.269531 L99.5285315,218.269531 C99.536344,217.71875 99.5187658,217.296875 99.4757971,217.003906 C99.4015783,216.503906 99.239469,216.064453 98.989469,215.685547 C98.7121252,215.255859 98.3605627,214.941406 97.9347815,214.742188 C97.5090002,214.542969 97.0304846,214.443359 96.4992346,214.443359 C95.6047033,214.443359 94.8771643,214.738281 94.3166174,215.328125 C93.7560705,215.917969 93.4757971,216.765625 93.4757971,217.871094 C93.4757971,219.050781 93.786344,219.902344 94.4074377,220.425781 C95.0285315,220.949219 95.7453283,221.210938 96.5578283,221.210938 Z M97.7941565,217.167969 L95.1984533,217.167969 C95.2531408,216.753906 95.3869299,216.425781 95.5998205,216.183594 C95.8127112,215.941406 96.1125158,215.820312 96.4992346,215.820312 C96.8547033,215.820312 97.1525549,215.93457 97.3927893,216.163086 C97.6330237,216.391602 97.7668127,216.726562 97.7941565,217.167969 L97.7941565,217.167969 Z M102.471594,221 L102.471594,217.947266 C102.471594,217.435547 102.536047,217.056641 102.664953,216.810547 C102.895422,216.373047 103.346594,216.154297 104.018469,216.154297 C104.06925,216.154297 104.135656,216.15625 104.217688,216.160156 C104.299719,216.164062 104.393469,216.171875 104.498938,216.183594 L104.498938,216.183594 L104.498938,214.472656 C104.424719,214.46875 104.376867,214.46582 104.355383,214.463867 C104.333899,214.461914 104.307531,214.460938 104.276281,214.460938 C103.776281,214.460938 103.370031,214.591797 103.057531,214.853516 C102.866125,215.009766 102.641516,215.300781 102.383703,215.726562 L102.383703,215.726562 L102.383703,214.613281 L100.789953,214.613281 L100.789953,221 L102.471594,221 Z M111.029594,221 L111.029594,217.144531 L114.404594,217.144531 L114.404594,221 L116.197563,221 L116.197563,212.363281 L114.404594,212.363281 L114.404594,215.65625 L111.029594,215.65625 L111.029594,212.363281 L109.242484,212.363281 L109.242484,221 L111.029594,221 Z M120.517578,221.210938 C121.501953,221.210938 122.267578,220.900391 122.814453,220.279297 C123.166016,219.888672 123.363281,219.503906 123.40625,219.125 L123.40625,219.125 L121.701172,219.125 C121.611328,219.3125 121.507813,219.458984 121.390625,219.564453 C121.175781,219.759766 120.896484,219.857422 120.552734,219.857422 C120.228516,219.857422 119.951172,219.777344 119.720703,219.617188 C119.341797,219.359375 119.140625,218.910156 119.117188,218.269531 L119.117188,218.269531 L123.488281,218.269531 C123.496094,217.71875 123.478516,217.296875 123.435547,217.003906 C123.361328,216.503906 123.199219,216.064453 122.949219,215.685547 C122.671875,215.255859 122.320313,214.941406 121.894531,214.742188 C121.46875,214.542969 120.990234,214.443359 120.458984,214.443359 C119.564453,214.443359 118.836914,214.738281 118.276367,215.328125 C117.71582,215.917969 117.435547,216.765625 117.435547,217.871094 C117.435547,219.050781 117.746094,219.902344 118.367188,220.425781 C118.988281,220.949219 119.705078,221.210938 120.517578,221.210938 Z M121.753906,217.167969 L119.158203,217.167969 C119.212891,216.753906 119.34668,216.425781 119.55957,216.183594 C119.772461,215.941406 120.072266,215.820312 120.458984,215.820312 C120.814453,215.820312 121.112305,215.93457 121.352539,216.163086 C121.592773,216.391602 121.726563,216.726562 121.753906,217.167969 L121.753906,217.167969 Z M126.331734,221.199219 C126.784859,221.199219 127.191109,221.095703 127.550484,220.888672 C127.851266,220.712891 128.116891,220.5 128.347359,220.25 C128.359078,220.394531 128.374703,220.523438 128.394234,220.636719 C128.413766,220.75 128.448922,220.871094 128.499703,221 L128.499703,221 L130.316109,221 L130.316109,220.753906 C130.206734,220.703125 130.124703,220.638672 130.070016,220.560547 C130.015328,220.482422 129.982125,220.333984 129.970406,220.115234 C129.962594,219.826172 129.958687,219.580078 129.958687,219.376953 L129.958687,219.376953 L129.958687,216.447266 C129.958687,215.677734 129.687203,215.154297 129.144234,214.876953 C128.601266,214.599609 127.980172,214.460938 127.280953,214.460938 C126.206734,214.460938 125.448922,214.742188 125.007516,215.304688 C124.730172,215.664062 124.573922,216.123047 124.538766,216.681641 L124.538766,216.681641 L126.150094,216.681641 C126.189156,216.435547 126.267281,216.240234 126.384469,216.095703 C126.548531,215.900391 126.827828,215.802734 127.222359,215.802734 C127.573922,215.802734 127.840523,215.852539 128.022164,215.952148 C128.203805,216.051758 128.294625,216.232422 128.294625,216.494141 C128.294625,216.708984 128.175484,216.867188 127.937203,216.96875 C127.804391,217.027344 127.583687,217.076172 127.275094,217.115234 L127.275094,217.115234 L126.706734,217.185547 C126.062203,217.267578 125.573922,217.404297 125.241891,217.595703 C124.636422,217.947266 124.333687,218.515625 124.333687,219.300781 C124.333687,219.90625 124.522164,220.374023 124.899117,220.704102 C125.27607,221.03418 125.753609,221.199219 126.331734,221.199219 Z M126.823922,219.986328 C126.597359,219.986328 126.404977,219.922852 126.246773,219.795898 C126.08857,219.668945 126.009469,219.462891 126.009469,219.177734 C126.009469,218.857422 126.138375,218.621094 126.396187,218.46875 C126.548531,218.378906 126.800484,218.302734 127.152047,218.240234 L127.152047,218.240234 L127.527047,218.169922 C127.714547,218.134766 127.862008,218.09668 127.96943,218.055664 C128.076852,218.014648 128.183297,217.960938 128.288766,217.894531 L128.288766,217.894531 L128.288766,218.515625 C128.277047,219.074219 128.11982,219.458984 127.817086,219.669922 C127.514352,219.880859 127.183297,219.986328 126.823922,219.986328 Z M133.833391,221.199219 C134.286516,221.199219 134.665422,221.113281 134.970109,220.941406 C135.274797,220.769531 135.546281,220.494141 135.784562,220.115234 L135.784562,220.115234 L135.784562,221 L137.407609,221 L137.407609,212.375 L135.71425,212.375 L135.71425,215.421875 C135.52675,215.121094 135.282609,214.885742 134.981828,214.71582 C134.681047,214.545898 134.337297,214.460938 133.950578,214.460938 C133.110734,214.460938 132.439836,214.773438 131.937883,215.398438 C131.43593,216.023438 131.184953,216.880859 131.184953,217.970703 C131.184953,218.916016 131.439836,219.69043 131.949601,220.293945 C132.459367,220.897461 133.087297,221.199219 133.833391,221.199219 Z M134.313859,219.792969 C133.841203,219.792969 133.488664,219.616211 133.256242,219.262695 C133.02382,218.90918 132.907609,218.4375 132.907609,217.847656 C132.907609,217.300781 133.021867,216.842773 133.250383,216.473633 C133.478898,216.104492 133.837297,215.919922 134.325578,215.919922 C134.645891,215.919922 134.927141,216.021484 135.169328,216.224609 C135.563859,216.560547 135.761125,217.119141 135.761125,217.900391 C135.761125,218.458984 135.638078,218.914062 135.391984,219.265625 C135.145891,219.617188 134.786516,219.792969 134.313859,219.792969 Z M140.784265,221 L140.784265,212.363281 L139.114344,212.363281 L139.114344,221 L140.784265,221 Z M144.283969,213.851562 L144.283969,212.310547 L142.590609,212.310547 L142.590609,213.851562 L144.283969,213.851562 Z M144.283969,221 L144.283969,214.613281 L142.590609,214.613281 L142.590609,221 L144.283969,221 Z M147.730937,221 L147.730937,217.542969 C147.730937,217.148438 147.785625,216.824219 147.895,216.570312 C148.105937,216.089844 148.494609,215.849609 149.061015,215.849609 C149.521953,215.849609 149.834453,216.013672 149.998515,216.341797 C150.088359,216.521484 150.133281,216.779297 150.133281,217.115234 L150.133281,217.115234 L150.133281,221 L151.844218,221 L151.844218,216.699219 C151.844218,215.898438 151.634258,215.325195 151.214336,214.979492 C150.794414,214.633789 150.254375,214.460938 149.594218,214.460938 C149.066875,214.460938 148.631328,214.589844 148.287578,214.847656 C148.096172,214.992188 147.893047,215.228516 147.678203,215.556641 L147.678203,215.556641 L147.678203,214.625 L146.066875,214.625 L146.066875,221 L147.730937,221 Z M156.117359,221.210938 C157.101734,221.210938 157.867359,220.900391 158.414234,220.279297 C158.765797,219.888672 158.963062,219.503906 159.006031,219.125 L159.006031,219.125 L157.300953,219.125 C157.211109,219.3125 157.107593,219.458984 156.990406,219.564453 C156.775562,219.759766 156.496265,219.857422 156.152515,219.857422 C155.828297,219.857422 155.550953,219.777344 155.320484,219.617188 C154.941578,219.359375 154.740406,218.910156 154.716968,218.269531 L154.716968,218.269531 L159.088062,218.269531 C159.095875,217.71875 159.078297,217.296875 159.035328,217.003906 C158.961109,216.503906 158.799,216.064453 158.549,215.685547 C158.271656,215.255859 157.920093,214.941406 157.494312,214.742188 C157.068531,214.542969 156.590015,214.443359 156.058765,214.443359 C155.164234,214.443359 154.436695,214.738281 153.876148,215.328125 C153.315601,215.917969 153.035328,216.765625 153.035328,217.871094 C153.035328,219.050781 153.345875,219.902344 153.966968,220.425781 C154.588062,220.949219 155.304859,221.210938 156.117359,221.210938 Z M157.353687,217.167969 L154.757984,217.167969 C154.812672,216.753906 154.946461,216.425781 155.159351,216.183594 C155.372242,215.941406 155.672047,215.820312 156.058765,215.820312 C156.414234,215.820312 156.712086,215.93457 156.95232,216.163086 C157.192554,216.391602 157.326343,216.726562 157.353687,217.167969 L157.353687,217.167969 Z" id="OfferHeadline" fill="#FFFFFF" fill-rule="nonzero"></path>
        <rect id="Rectangle-Copy-2" fill="#FFFFFF" x="110.5" y="227" width="15" height="2"></rect>
        <polygon id="Path" fill-opacity="0.6" fill="#81A0B4" fill-rule="nonzero" points="4 267.407462 23.8429103 241.763716 39.2542373 252.478786 60.0066143 223 84 268"></polygon>
        <line x1="75" y1="236.5" x2="160.772487" y2="236.5" id="Line-Copy-3" stroke="#FFFFFF" stroke-linecap="square"></line>
        <line x1="75" y1="242.25" x2="160.772487" y2="242.25" id="Line-Copy" stroke="#FFFFFF" stroke-linecap="square"></line>
        <line x1="91" y1="247.5" x2="144.775" y2="247.5" id="Line-Copy-2" stroke="#FFFFFF" stroke-linecap="square"></line>
    </g>
</svg>