<?xml version="1.0" encoding="utf-8"?><svg xmlns="http://www.w3.org/2000/svg" viewBox="0 0 100 115.97"><defs><style>.cls-1,.cls-7{fill:#81a0b4;}.cls-1,.cls-10,.cls-8{stroke:#81a0b4;}.cls-1,.cls-10,.cls-12,.cls-2,.cls-8{stroke-miterlimit:10;}.cls-12,.cls-2,.cls-3{fill:#fff;}.cls-12,.cls-2{stroke:#c9292c;}.cls-2{stroke-width:0.75px;}.cls-4{font-size:5px;fill:#f1f2f2;font-family:Helvetica-Bold, Helvetica;font-weight:700;}.cls-5{letter-spacing:-0.07em;}.cls-6{opacity:0.62;}.cls-10,.cls-8{fill:none;}.cls-12,.cls-8{stroke-width:0.5px;}.cls-9{fill:#c9292c;}.cls-11{opacity:0.44;}</style></defs><title>LandingPages_</title><g id="Layer_1" data-name="Layer 1"><rect class="cls-1" width="100" height="30"/><path class="cls-2" d="M71.89,6.56v2a1.38,1.38,0,0,0,.69,1.19l1.74,1a1.36,1.36,0,0,0,1.38,0l1.74-1a1.36,1.36,0,0,0,.69-1.19v-2a1.36,1.36,0,0,0-.69-1.19l-1.74-1a1.36,1.36,0,0,0-1.38,0l-1.74,1A1.38,1.38,0,0,0,71.89,6.56Z"/><polygon class="cls-3" points="100 30.6 86.82 10.57 76 23.6 68.49 21.16 56 30.6 100 30.6"/></g><g id="logo_dark_grey" data-name="logo dark grey"><text class="cls-4" transform="translate(29.21 15.92)">CONSIDER<tspan class="cls-5" x="26.39" y="0">A</tspan><tspan x="29.63" y="0">TION</tspan></text><g class="cls-6"><path class="cls-7" d="M8.78,91.68v19H36.64v-19Zm13,7.67a.86.86,0,0,1-.43.75l-1.1.64a.9.9,0,0,1-.87,0l-1.1-.64a.87.87,0,0,1-.44-.75V98.08a.88.88,0,0,1,.44-.76l1.1-.63a.85.85,0,0,1,.87,0l1.1.63a.87.87,0,0,1,.43.76Z"/></g><g class="cls-6"><polygon class="cls-7" points="36.64 110.66 28.3 97.98 21.44 106.23 16.69 104.68 8.78 110.66 36.64 110.66"/></g><line class="cls-8" x1="40.93" y1="103.19" x2="91.61" y2="102.93"/><line class="cls-8" x1="40.93" y1="99.68" x2="91.57" y2="99.42"/><rect class="cls-7" x="40.93" y="93.89" width="26.8" height="2.79"/><rect class="cls-9" x="41.5" y="19.3" width="14.66" height="3.12" rx="1.47"/><rect class="cls-7" x="32.8" y="33.68" width="34.4" height="3.29"/><circle class="cls-7" cx="12" cy="45.83" r="4.15"/><line class="cls-10" x1="6.5" y1="52.68" x2="17.5" y2="52.68"/><line class="cls-8" x1="7" y1="54.68" x2="17" y2="54.68"/><line class="cls-8" x1="8" y1="56.68" x2="16" y2="56.68"/><circle class="cls-7" cx="31" cy="45.83" r="4.15"/><line class="cls-10" x1="25.5" y1="52.68" x2="36.5" y2="52.68"/><line class="cls-8" x1="26" y1="54.68" x2="36" y2="54.68"/><line class="cls-8" x1="27" y1="56.68" x2="35" y2="56.68"/><circle class="cls-7" cx="50" cy="45.83" r="4.15"/><line class="cls-10" x1="44.5" y1="52.68" x2="55.5" y2="52.68"/><line class="cls-8" x1="45" y1="54.68" x2="55" y2="54.68"/><line class="cls-8" x1="46" y1="56.68" x2="54" y2="56.68"/><circle class="cls-7" cx="69" cy="45.83" r="4.15"/><line class="cls-10" x1="63.5" y1="52.68" x2="74.5" y2="52.68"/><line class="cls-8" x1="64" y1="54.68" x2="74" y2="54.68"/><line class="cls-8" x1="65" y1="56.68" x2="73" y2="56.68"/><circle class="cls-7" cx="88" cy="45.83" r="4.15"/><line class="cls-10" x1="82.5" y1="52.68" x2="93.5" y2="52.68"/><line class="cls-8" x1="83" y1="54.68" x2="93" y2="54.68"/><line class="cls-8" x1="84" y1="56.68" x2="92" y2="56.68"/><g class="cls-11"><rect class="cls-7" x="8" y="63.04" width="84" height="25"/></g><line class="cls-8" x1="16" y1="83.04" x2="41.14" y2="83.04"/><line class="cls-8" x1="16" y1="78.37" x2="60" y2="78.37"/><line class="cls-8" x1="16" y1="74.04" x2="60" y2="74.04"/><path class="cls-7" d="M87,68V82H77V68H87m1-1H76V83H88V67Z"/><line class="cls-10" x1="77" y1="68.04" x2="87" y2="82.04"/><line class="cls-10" x1="87" y1="68.04" x2="77" y2="82.04"/><line class="cls-8" x1="76" y1="85.04" x2="89" y2="85.04"/><rect class="cls-7" x="15.76" y="67.04" width="24.24" height="2"/><rect class="cls-9" x="40.93" y="106.55" width="14.66" height="3.12" rx="1.47"/></g><g id="Layer_23" data-name="Layer 23"><path class="cls-12" d="M18.09,98.23v1.26a.84.84,0,0,0,.43.74l1.09.63a.83.83,0,0,0,.86,0l1.09-.63a.84.84,0,0,0,.43-.74V98.23a.86.86,0,0,0-.43-.75l-1.09-.63a.88.88,0,0,0-.86,0l-1.09.63A.86.86,0,0,0,18.09,98.23Z"/></g></svg>