<?xml version="1.0" encoding="utf-8"?><svg xmlns="http://www.w3.org/2000/svg" viewBox="0 0 237 275"><defs><style>.cls-1,.cls-8{fill:#81a0b4;}.cls-2{opacity:0.65;}.cls-3,.cls-6{fill:#fff;}.cls-3{opacity:0.5;}.cls-4{fill:#c9292c;}.cls-5{opacity:0.32;}.cls-7{opacity:0.44;}.cls-8{opacity:0.31;}</style></defs><title>c9 blocks</title><g id="logo_dark_grey" data-name="logo dark grey"><rect class="cls-1" x="21.05" y="116.02" width="79.85" height="0.5"/><rect class="cls-1" x="21.15" y="106.52" width="79.85" height="0.5"/><g class="cls-2"><rect class="cls-1" x="0.07" y="123.38" width="120.92" height="92"/></g><rect class="cls-1" x="21.05" y="129.7" width="36" height="8"/><rect class="cls-3" x="21.06" y="144.15" width="78.95" height="8"/><rect class="cls-3" x="21.06" y="158.59" width="78.95" height="8"/><rect class="cls-3" x="21.06" y="173.03" width="78.95" height="8"/><rect class="cls-3" x="21.06" y="187.48" width="78.95" height="8"/><rect class="cls-4" x="21.05" y="201.92" width="33.53" height="7.14" rx="3.35"/></g><g id="Layer_23" data-name="Layer 23"><g class="cls-5"><path class="cls-6" d="M0,36.82V35.9c0,.23-.06.43-.06.43S0,36.61,0,36.82Z"/></g><g class="cls-7"><rect class="cls-1" y="55" width="237" height="24"/></g><rect class="cls-6" x="-0.5" y="215.5" width="238" height="39"/><path class="cls-1" d="M238,255H-1V215H238ZM0,254H237V216H0Z"/><rect class="cls-8" x="120.81" y="216" width="116.15" height="39.27" transform="translate(0.25 -0.19) rotate(0.06)"/><rect class="cls-1" x="155.11" y="246.04" width="45.02" height="0.5"/><rect class="cls-1" x="155.11" y="236.56" width="45.62" height="0.5"/><rect class="cls-1" x="151.85" y="224.99" width="52.14" height="4.74"/><path class="cls-6" d="M60.26,235.35l.1-.1.94-1.1,1.11-1.32c.37-.46.74-.92,1.1-1.39s.64-.88,1-1.32a16.66,16.66,0,0,0,.9-1.45,11.35,11.35,0,0,0,.93-2,6.94,6.94,0,0,0,.36-1.61,6.83,6.83,0,0,0,0-1.43A5.76,5.76,0,0,0,66.2,222a5.08,5.08,0,0,0-.81-1.27,5.83,5.83,0,0,0-1.73-1.35,7.41,7.41,0,0,0-1.82-.63,5.93,5.93,0,0,0-1.11-.15,7.74,7.74,0,0,0-2.25.2,7.18,7.18,0,0,0-1.79.68,6.52,6.52,0,0,0-1.13.82,5.71,5.71,0,0,0-1,1.22,5.43,5.43,0,0,0-.74,2.63,6.83,6.83,0,0,0,.26,2.11,10.4,10.4,0,0,0,.86,2.07c.23.43.48.85.74,1.26s.62.93.95,1.38.67.89,1,1.32l1.11,1.35.84,1c.09.12.19.23.29.35ZM65,247.22c0-.2,0-6.18,0-6.27-.18,0-9.44,0-9.53,0,0,.18,0,6.17,0,6.26ZM66.62,241c0,.15,0,6.18,0,6.27H76L75.18,241Zm-21.27,0-.81,6.27h9.38V241Zm19.7-9.22H74c-.11-.82-.22-1.63-.32-2.45s-.21-1.64-.32-2.46-.21-1.62-.32-2.43H68c0,.06,0,.11,0,.16a6,6,0,0,1-.09,1,10,10,0,0,1-.83,2.66,17.7,17.7,0,0,1-1.14,2q-.36.54-.75,1.08A.46.46,0,0,0,65.05,231.73ZM52.58,224.4c-.09,0-5,0-5.08,0-.31,2.42-.62,4.83-.94,7.25v.06h0v0h8.91a.49.49,0,0,0,0-.29c-.31-.44-.61-.88-.91-1.33s-.55-.91-.8-1.39a11.56,11.56,0,0,1-.81-2,8,8,0,0,1-.32-1.81Zm14,8.93c0,.13,0,5.92,0,6H75v0l-.78-6Zm-20.28,0-.78,6h8.36c0-.18,0-5.92,0-6Zm9.16,6H65c0-.33,0-5.9,0-6H63.71a.17.17,0,0,0-.13.08c-.24.3-.48.6-.73.89l-1.15,1.35-.9,1-.22.27-.31.35-.09-.1c-.29-.34-.58-.67-.86-1l-.83-1-.26-.29c-.42-.52-.85-1-1.27-1.54a.2.2,0,0,0-.17-.08H55.5Z"/><path class="cls-4" d="M60.26,235.35l-.36-.41c-.1-.12-.2-.23-.29-.35l-.84-1-1.11-1.35c-.34-.43-.69-.87-1-1.32s-.65-.91-.95-1.38-.51-.83-.74-1.26a10.4,10.4,0,0,1-.86-2.07,6.83,6.83,0,0,1-.26-2.11,5.43,5.43,0,0,1,.74-2.63,5.71,5.71,0,0,1,1-1.22,6.52,6.52,0,0,1,1.13-.82,7.18,7.18,0,0,1,1.79-.68,7.74,7.74,0,0,1,2.25-.2,5.93,5.93,0,0,1,1.11.15,7.41,7.41,0,0,1,1.82.63,5.83,5.83,0,0,1,1.73,1.35A5.08,5.08,0,0,1,66.2,222a5.76,5.76,0,0,1,.45,1.65,6.83,6.83,0,0,1,0,1.43,6.94,6.94,0,0,1-.36,1.61,11.35,11.35,0,0,1-.93,2,16.66,16.66,0,0,1-.9,1.45c-.32.44-.63.89-1,1.32s-.73.93-1.1,1.39l-1.11,1.32-.94,1.1Zm3.95-10.52c0-.15,0-.38-.07-.61a4.07,4.07,0,0,0-1.1-2.17,4,4,0,0,0-.87-.65,3.43,3.43,0,0,0-1.36-.46,3.81,3.81,0,0,0-2.68.61,4,4,0,0,0-.81,6,3.7,3.7,0,0,0,1.23,1,4.08,4.08,0,0,0,1.33.39,3.69,3.69,0,0,0,1.32-.1,4.05,4.05,0,0,0,1.42-.68,4.12,4.12,0,0,0,1.18-1.44A4.27,4.27,0,0,0,64.21,224.83Z"/><path class="cls-1" d="M65,247.22H55.51c0-.09,0-6.08,0-6.26.09,0,9.35,0,9.53,0C65.05,241,65.06,247,65,247.22Z"/><path class="cls-1" d="M66.62,241h8.56l.82,6.27H66.62C66.6,247.13,66.59,241.1,66.62,241Z"/><path class="cls-1" d="M45.35,241h8.57v6.27H44.54Z"/><path class="cls-1" d="M65.05,231.73a.46.46,0,0,1,.08-.36q.39-.54.75-1.08a17.7,17.7,0,0,0,1.14-2,10,10,0,0,0,.83-2.66,6,6,0,0,0,.09-1c0-.05,0-.1,0-.16H73c.11.81.21,1.62.32,2.43s.21,1.64.32,2.46.21,1.63.32,2.45Z"/><path class="cls-1" d="M52.58,224.4l0,.46a8,8,0,0,0,.32,1.81,11.56,11.56,0,0,0,.81,2c.25.48.51.94.8,1.39s.6.89.91,1.33a.49.49,0,0,1,0,.29H46.58v0h0v-.06c.32-2.42.63-4.83.94-7.25C47.61,224.37,52.49,224.37,52.58,224.4Z"/><path class="cls-1" d="M66.62,233.33h7.57l.78,6v0H66.63C66.6,239.25,66.59,233.46,66.62,233.33Z"/><path class="cls-1" d="M46.34,233.33h7.57c0,.09,0,5.83,0,6H45.56Z"/><path class="cls-1" d="M55.5,239.35v-6h1.29a.2.2,0,0,1,.17.08c.42.51.85,1,1.27,1.54l.26.29.83,1c.28.34.57.67.86,1l.09.1.31-.35.22-.27.9-1,1.15-1.35c.25-.29.49-.59.73-.89a.17.17,0,0,1,.13-.08H65c0,.1,0,5.67,0,6H55.5Z"/><path class="cls-6" d="M64.21,224.83a4.27,4.27,0,0,1-.41,1.86,4.12,4.12,0,0,1-1.18,1.44,4.05,4.05,0,0,1-1.42.68,3.69,3.69,0,0,1-1.32.1,4.08,4.08,0,0,1-1.33-.39,3.7,3.7,0,0,1-1.23-1,4.06,4.06,0,0,1-1-2.62,4,4,0,0,1,1.8-3.4,3.81,3.81,0,0,1,2.68-.61,3.43,3.43,0,0,1,1.36.46,4,4,0,0,1,.87.65,4.07,4.07,0,0,1,1.1,2.17C64.18,224.45,64.19,224.68,64.21,224.83Zm-6.32,0a2.47,2.47,0,0,0,1,2,2.36,2.36,0,0,0,3-.18,2.32,2.32,0,0,0,.47-.61,2.4,2.4,0,0,0,.24-1.66,2.31,2.31,0,0,0-1.29-1.69,2.27,2.27,0,0,0-2.24.1,2.25,2.25,0,0,0-.81.81A2.39,2.39,0,0,0,57.89,224.86Z"/><path class="cls-1" d="M57.89,224.86a2.39,2.39,0,0,1,.36-1.22,2.25,2.25,0,0,1,.81-.81,2.27,2.27,0,0,1,2.24-.1,2.31,2.31,0,0,1,1.29,1.69,2.4,2.4,0,0,1-.24,1.66,2.32,2.32,0,0,1-.47.61,2.36,2.36,0,0,1-3,.18A2.47,2.47,0,0,1,57.89,224.86Z"/><rect class="cls-4" x="144.43" y="66.55" width="33.53" height="7.14" rx="3.35"/><rect class="cls-1" x="144.43" y="140.07" width="30.35" height="0.5"/><rect class="cls-1" x="144.43" y="133.75" width="66.35" height="0.5"/><rect class="cls-1" x="144.43" y="121.3" width="50" height="7.11"/><rect class="cls-1" x="144.43" y="108.82" width="30.35" height="0.5"/><rect class="cls-1" x="144.43" y="102.5" width="66.35" height="0.5"/><rect class="cls-1" x="144.43" y="90.05" width="50" height="7.11"/><rect class="cls-1" x="144.43" y="202.57" width="30.35" height="0.5"/><rect class="cls-1" x="144.43" y="196.25" width="66.35" height="0.5"/><rect class="cls-1" x="144.43" y="183.81" width="50" height="7.11"/><rect class="cls-1" x="144.43" y="171.32" width="30.35" height="0.5"/><rect class="cls-1" x="144.43" y="165" width="66.35" height="0.5"/><rect class="cls-1" x="144.43" y="152.56" width="50" height="7.11"/><polygon class="cls-1" points="236.62 277.01 0 277.01 0.38 255.01 237 255.01 236.62 277.01"/><polygon class="cls-1" points="238.62 55.96 -2 55.96 -1.62 0.25 239 0.25 238.62 55.96"/><path class="cls-6" d="M27.92,17.52a1.74,1.74,0,0,0-1-1.26,2.53,2.53,0,0,0-1-.2,2.19,2.19,0,0,0-1.75.81,3.61,3.61,0,0,0-.68,2.41,3,3,0,0,0,.74,2.3,2.43,2.43,0,0,0,1.69.67,2.14,2.14,0,0,0,1.51-.53,2.25,2.25,0,0,0,.73-1.39h-2V18.86h3.68v4.73H28.54l-.19-1.1a4.11,4.11,0,0,1-1,.88,3.32,3.32,0,0,1-1.79.44,3.71,3.71,0,0,1-2.87-1.21,4.61,4.61,0,0,1-1.17-3.34,4.93,4.93,0,0,1,1.18-3.43,4,4,0,0,1,3.12-1.29,4.12,4.12,0,0,1,2.7.85,3.18,3.18,0,0,1,1.17,2.13Z"/><path class="cls-6" d="M38,16.33H33.37V18.2h4.28v1.53H33.37V22h4.88v1.59H31.57V14.77H38Z"/><path class="cls-6" d="M46.09,14.77v1.56H43.45v7.26H41.6V16.33H39V14.77Z"/><path class="cls-6" d="M52.25,23.59H50.42V14.77h1.83Z"/><path class="cls-6" d="M54,14.77h1.93l3.5,6.15V14.77h1.71v8.82H59.25l-3.59-6.26v6.26H54Z"/><path class="cls-6" d="M72.63,14.77v1.56H70v7.26H68.14V16.33H65.49V14.77Z"/><path class="cls-6" d="M80.28,22.8a4.56,4.56,0,0,1-5.77,0,4.72,4.72,0,0,1-1.34-3.63,4.64,4.64,0,0,1,1.34-3.64,4.56,4.56,0,0,1,5.77,0,4.68,4.68,0,0,1,1.34,3.64A4.75,4.75,0,0,1,80.28,22.8Zm-1.15-1.34a3.59,3.59,0,0,0,.65-2.29,3.62,3.62,0,0,0-.65-2.3,2.27,2.27,0,0,0-3.48,0,3.54,3.54,0,0,0-.65,2.3,3.53,3.53,0,0,0,.65,2.29,2.27,2.27,0,0,0,3.48,0Z"/><path class="cls-6" d="M83,14.77H84.9v5.41a3.13,3.13,0,0,0,.21,1.33,1.79,1.79,0,0,0,2.9,0,3,3,0,0,0,.22-1.33V14.77H90.1v5.42a4.54,4.54,0,0,1-.44,2.19,4.08,4.08,0,0,1-6.2,0A4.54,4.54,0,0,1,83,20.19Z"/><path class="cls-6" d="M92.71,15.69a4.11,4.11,0,0,1,5.93.37,3.2,3.2,0,0,1,.61,1.65H97.4a2.39,2.39,0,0,0-.45-1,2,2,0,0,0-3,.24,3.93,3.93,0,0,0-.57,2.29A3.46,3.46,0,0,0,94,21.5a1.89,1.89,0,0,0,1.53.74,1.72,1.72,0,0,0,1.44-.63,2.84,2.84,0,0,0,.46-1h1.83A4,4,0,0,1,98,22.93a3.54,3.54,0,0,1-2.5.9,3.77,3.77,0,0,1-3-1.22,5,5,0,0,1-1.07-3.36A4.9,4.9,0,0,1,92.71,15.69Z"/><path class="cls-6" d="M100.7,23.59V14.77h1.84v3.36H106V14.77h1.83v8.82H106V19.65h-3.42v3.94Z"/><path class="cls-1" d="M22,100.59V91.77h1.84v3.36h3.42V91.77h1.83v8.82H27.23V96.65H23.81v3.94Z"/><path class="cls-1" d="M37.35,93.33H32.69V95.2H37v1.53H32.69V99h4.88v1.59H30.89V91.77h6.46Z"/><path class="cls-1" d="M41.53,91.77h2.08l3.12,8.82h-2l-.58-1.82H40.9l-.59,1.82H38.38Zm-.13,5.48h2.26l-1.11-3.46Z"/><path class="cls-1" d="M53,92a2.89,2.89,0,0,1,1.5,1.12,3.85,3.85,0,0,1,.63,1.42A7,7,0,0,1,55.32,96a5.84,5.84,0,0,1-.71,3,3.18,3.18,0,0,1-3,1.65h-3.8V91.77h3.8A4.76,4.76,0,0,1,53,92ZM49.64,93.3v5.76h1.7a1.83,1.83,0,0,0,1.82-1.29,4.48,4.48,0,0,0,.28-1.68A4.16,4.16,0,0,0,53,94a1.78,1.78,0,0,0-1.68-.72Z"/><path class="cls-1" d="M58.38,100.59H56.55V91.77h1.83Z"/><path class="cls-1" d="M60.07,91.77H62l3.5,6.15V91.77h1.72v8.82H65.38l-3.59-6.26v6.26H60.07Z"/><path class="cls-1" d="M74.88,94.52a1.74,1.74,0,0,0-1-1.26,2.53,2.53,0,0,0-1-.2,2.19,2.19,0,0,0-1.75.81,3.67,3.67,0,0,0-.68,2.41,3,3,0,0,0,.74,2.3,2.43,2.43,0,0,0,1.69.67,2.19,2.19,0,0,0,1.52-.53,2.29,2.29,0,0,0,.72-1.39H73V95.86h3.68v4.73H75.5l-.19-1.1a4.31,4.31,0,0,1-1,.88,3.38,3.38,0,0,1-1.8.44,3.72,3.72,0,0,1-2.87-1.21,4.61,4.61,0,0,1-1.17-3.34,4.93,4.93,0,0,1,1.18-3.43,4,4,0,0,1,3.12-1.29,4.12,4.12,0,0,1,2.7.85,3.18,3.18,0,0,1,1.17,2.13Z"/><rect class="cls-6" x="144.43" y="18.9" width="68.65" height="4.74"/><rect class="cls-6" x="136" y="262.01" width="50" height="8"/><rect class="cls-6" x="21.16" y="265.76" width="25.21" height="0.5"/><rect class="cls-4" x="144.43" y="31.74" width="33.53" height="7.14" rx="3.35"/><rect class="cls-6" x="21.05" y="61.65" width="187.95" height="0.5"/><rect class="cls-6" x="21.05" y="70.65" width="99.95" height="0.5"/></g></svg>