<?xml version="1.0" encoding="utf-8"?><svg xmlns="http://www.w3.org/2000/svg" viewBox="0 0 237 275"><defs><style>.cls-1{opacity:0.65;}.cls-2,.cls-4{fill:#81a0b4;}.cls-3,.cls-6{fill:#fff;}.cls-4{opacity:0.31;}.cls-5{fill:#c9292c;}.cls-6{opacity:0.5;}</style></defs><title>c9 blocks</title><g id="logo_dark_grey" data-name="logo dark grey"><g class="cls-1"><rect class="cls-2" x="21.08" y="68.77" width="87" height="70.23"/></g><rect class="cls-2" x="140.43" y="122.49" width="30.35" height="0.5"/><rect class="cls-2" x="140.43" y="116.17" width="66.35" height="0.5"/><rect class="cls-2" x="140.43" y="103.72" width="50" height="7.11"/><rect class="cls-3" x="17.77" y="161.39" width="201.43" height="75.83"/><path class="cls-2" d="M219.69,237.72H17.27V160.89H219.69Zm-201.42-1H218.69V161.89H18.27Z"/><rect class="cls-4" x="103.04" y="161.39" width="116.15" height="75.83" transform="translate(0.21 -0.17) rotate(0.06)"/><rect class="cls-2" x="137.11" y="203.8" width="45.02" height="0.5"/><rect class="cls-2" x="137.11" y="194.32" width="45.62" height="0.5"/><rect class="cls-2" x="147.88" y="215.64" width="25.21" height="0.5"/><rect class="cls-2" x="133.85" y="182.74" width="52.14" height="4.74"/><path class="cls-3" d="M59.69,202l.17-.18,1.75-2.06c.68-.81,1.38-1.61,2-2.44s1.38-1.7,2-2.57,1.19-1.63,1.78-2.45a30.86,30.86,0,0,0,1.68-2.68,22,22,0,0,0,1.72-3.72,12.7,12.7,0,0,0,.67-3,12.26,12.26,0,0,0,0-2.64,10.52,10.52,0,0,0-.84-3.07,9.15,9.15,0,0,0-1.5-2.34A11,11,0,0,0,66,172.32a13.81,13.81,0,0,0-3.36-1.17,12,12,0,0,0-2.07-.26,14.31,14.31,0,0,0-4.17.36,12.8,12.8,0,0,0-3.31,1.27A11.65,11.65,0,0,0,51,174a10.39,10.39,0,0,0-1.81,2.26,10,10,0,0,0-1.37,4.87,12.75,12.75,0,0,0,.49,3.92,19,19,0,0,0,1.59,3.82c.43.8.88,1.58,1.37,2.34S52.38,193,53,193.81s1.25,1.65,1.89,2.45,1.36,1.67,2.06,2.5c.5.61,1,1.2,1.54,1.8l.54.64C59.23,201.46,59.46,201.71,59.69,202Zm8.84,22c0-.38,0-11.46,0-11.63-.33,0-17.49,0-17.66,0,0,.32,0,11.43,0,11.61Zm2.94-11.64c0,.29,0,11.46,0,11.63H88.86q-.77-5.83-1.51-11.63Zm-39.42,0L30.54,224H47.93V212.34Zm36.52-17.08H85.13c-.2-1.52-.4-3-.59-4.54s-.39-3-.59-4.56-.38-3-.6-4.52H73.94c0,.11,0,.21,0,.31a15.22,15.22,0,0,1-.17,1.92,19,19,0,0,1-1.55,4.93,30.44,30.44,0,0,1-2.12,3.78q-.66,1-1.38,2A.84.84,0,0,0,68.57,195.26ZM45.45,181.67c-.18-.06-9.21-.06-9.42,0l-1.74,13.44a.4.4,0,0,0,0,.11s0,0,0,0l0,0H50.81s0,0,0,0l0,0a.91.91,0,0,0-.09-.53c-.57-.81-1.13-1.63-1.67-2.46a26.53,26.53,0,0,1-1.49-2.58,22.41,22.41,0,0,1-1.51-3.78,15.39,15.39,0,0,1-.6-3.36C45.48,182.23,45.46,182,45.45,181.67Zm26,16.55c0,.24,0,11,0,11.15H86.94s0,0,0,0l-1.44-11.11Zm-37.59,0c-.48,3.73-1,7.43-1.44,11.14H47.93c0-.33,0-11,0-11.14Zm17,11.16H68.51l0,0h0c0-.6,0-10.94,0-11.12H66.08a.29.29,0,0,0-.24.15c-.45.55-.9,1.11-1.36,1.65-.7.84-1.41,1.67-2.12,2.5l-1.68,1.94-.4.48-.58.66-.17-.18-1.6-1.88-1.53-1.77-.48-.55c-.79-.95-1.58-1.9-2.36-2.86a.36.36,0,0,0-.3-.14h-2.4Z"/><path class="cls-5" d="M59.69,202c-.23-.26-.46-.51-.68-.77l-.54-.64c-.52-.6-1-1.19-1.54-1.8-.7-.83-1.39-1.65-2.06-2.5s-1.28-1.62-1.89-2.45-1.19-1.69-1.75-2.56-.94-1.54-1.37-2.34a19,19,0,0,1-1.59-3.82,12.75,12.75,0,0,1-.49-3.92,10,10,0,0,1,1.37-4.87A10.39,10.39,0,0,1,51,174a11.65,11.65,0,0,1,2.11-1.52,12.8,12.8,0,0,1,3.31-1.27,14.31,14.31,0,0,1,4.17-.36,12,12,0,0,1,2.07.26A13.81,13.81,0,0,1,66,172.32a11,11,0,0,1,3.21,2.51,9.15,9.15,0,0,1,1.5,2.34,10.52,10.52,0,0,1,.84,3.07,12.26,12.26,0,0,1,0,2.64,12.7,12.7,0,0,1-.67,3,22,22,0,0,1-1.72,3.72,30.86,30.86,0,0,1-1.68,2.68c-.59.82-1.17,1.65-1.78,2.45s-1.35,1.73-2,2.57-1.37,1.63-2,2.44l-1.75,2.06ZM67,182.46c0-.27-.06-.7-.13-1.13a7.39,7.39,0,0,0-2-4,7.29,7.29,0,0,0-1.6-1.22,6.65,6.65,0,0,0-2.52-.84,7.12,7.12,0,0,0-5,1.12,7.32,7.32,0,0,0-2.3,2.46,7.23,7.23,0,0,0-1,3.85,7.37,7.37,0,0,0,1.82,4.85,6.82,6.82,0,0,0,2.29,1.77A7.5,7.5,0,0,0,59,190a6.71,6.71,0,0,0,2.44-.19,7.37,7.37,0,0,0,4.82-3.93A7.92,7.92,0,0,0,67,182.46Z"/><path class="cls-2" d="M68.53,224H50.88c0-.18-.06-11.29,0-11.61.17-.05,17.33-.07,17.66,0C68.56,212.52,68.58,223.6,68.53,224Z"/><path class="cls-2" d="M71.47,212.34H87.35q.75,5.81,1.51,11.63H71.48C71.43,223.8,71.42,212.63,71.47,212.34Z"/><path class="cls-2" d="M32.05,212.34H47.93V224H30.54Z"/><path class="cls-2" d="M68.57,195.26a.84.84,0,0,1,.14-.67q.72-1,1.38-2a30.44,30.44,0,0,0,2.12-3.78,19,19,0,0,0,1.55-4.93,15.22,15.22,0,0,0,.17-1.92c0-.1,0-.2,0-.31h9.41c.22,1.5.4,3,.6,4.52s.39,3,.59,4.56.39,3,.59,4.54Z"/><path class="cls-2" d="M45.45,181.67c0,.28,0,.56,0,.85a15.39,15.39,0,0,0,.6,3.36,22.41,22.41,0,0,0,1.51,3.78,26.53,26.53,0,0,0,1.49,2.58c.54.83,1.1,1.65,1.67,2.46a.91.91,0,0,1,.09.53l0,0s0,0,0,0H34.32l0,0s0,0,0,0a.4.4,0,0,1,0-.11L36,181.67C36.24,181.61,45.27,181.61,45.45,181.67Z"/><path class="cls-2" d="M71.47,198.22h14L87,209.33s0,0,0,0H71.48C71.43,209.19,71.42,198.46,71.47,198.22Z"/><path class="cls-2" d="M33.88,198.22h14c.05.16.07,10.81,0,11.14H32.44C32.91,205.65,33.4,202,33.88,198.22Z"/><path class="cls-2" d="M50.86,209.38V198.22h2.4a.36.36,0,0,1,.3.14c.78,1,1.57,1.91,2.36,2.86l.48.55,1.53,1.77,1.6,1.88.17.18.58-.66.4-.48,1.68-1.94c.71-.83,1.42-1.66,2.12-2.5.46-.54.91-1.1,1.36-1.65a.29.29,0,0,1,.24-.15h2.44c0,.18.07,10.52,0,11.12h0l0,0H50.86Z"/><path class="cls-3" d="M67,182.46a7.92,7.92,0,0,1-.76,3.45,7.37,7.37,0,0,1-4.82,3.93A6.71,6.71,0,0,1,59,190a7.5,7.5,0,0,1-2.46-.72,6.82,6.82,0,0,1-2.29-1.77,7.37,7.37,0,0,1-1.82-4.85,7.23,7.23,0,0,1,1-3.85,7.32,7.32,0,0,1,2.3-2.46,7.12,7.12,0,0,1,5-1.12,6.65,6.65,0,0,1,2.52.84,7.29,7.29,0,0,1,1.6,1.22,7.39,7.39,0,0,1,2,4C66.94,181.76,67,182.19,67,182.46Zm-11.71,0a4.57,4.57,0,0,0,1.8,3.73,4.09,4.09,0,0,0,2.67.86,4.19,4.19,0,0,0,2.93-1.19,4.6,4.6,0,0,0,.87-1.13A4.4,4.4,0,0,0,64,181.7a4.26,4.26,0,0,0-2.39-3.12,4.12,4.12,0,0,0-4.14.18,4.2,4.2,0,0,0-1.52,1.5A4.31,4.31,0,0,0,55.29,182.51Z"/><path class="cls-2" d="M55.29,182.51a4.31,4.31,0,0,1,.66-2.25,4.2,4.2,0,0,1,1.52-1.5,4.12,4.12,0,0,1,4.14-.18A4.26,4.26,0,0,1,64,181.7a4.4,4.4,0,0,1-.44,3.08,4.6,4.6,0,0,1-.87,1.13,4.19,4.19,0,0,1-2.93,1.19,4.09,4.09,0,0,1-2.67-.86A4.57,4.57,0,0,1,55.29,182.51Z"/><rect class="cls-5" x="140.43" y="129.5" width="33.53" height="7.14" rx="3.35"/><rect class="cls-2" x="30.58" y="77.08" width="36" height="8"/><rect class="cls-6" x="30.58" y="92.49" width="68" height="8"/><rect class="cls-6" x="30.58" y="107.89" width="68" height="8"/><rect class="cls-5" x="30.58" y="123.3" width="33.53" height="7.14" rx="3.35"/><rect class="cls-2" x="140.43" y="87.73" width="30.35" height="0.5"/><rect class="cls-2" x="140.43" y="81.41" width="66.35" height="0.5"/><rect class="cls-2" x="140.43" y="68.97" width="50" height="7.11"/></g><g id="Layer_23" data-name="Layer 23"><polygon class="cls-2" points="236.62 275.76 0 275.76 0.38 253.76 237 253.76 236.62 275.76"/><polygon class="cls-2" points="238.62 54.71 -2 54.71 -1.62 -1 239 -1 238.62 54.71"/><path class="cls-3" d="M27.92,16.27a1.74,1.74,0,0,0-1-1.26,2.53,2.53,0,0,0-1-.2,2.19,2.19,0,0,0-1.75.81A3.61,3.61,0,0,0,23.45,18a3,3,0,0,0,.74,2.3,2.43,2.43,0,0,0,1.69.67,2.14,2.14,0,0,0,1.51-.53,2.25,2.25,0,0,0,.73-1.39h-2V17.61h3.68v4.73H28.54l-.19-1.1a3.9,3.9,0,0,1-1,.88,3.33,3.33,0,0,1-1.79.45,3.72,3.72,0,0,1-2.87-1.22A4.6,4.6,0,0,1,21.56,18a4.91,4.91,0,0,1,1.18-3.43,4,4,0,0,1,3.12-1.3,4.07,4.07,0,0,1,2.7.86,3.16,3.16,0,0,1,1.17,2.12Z"/><path class="cls-3" d="M38,15.08H33.37V17h4.28v1.53H33.37v2.26h4.88v1.59H31.57V13.52H38Z"/><path class="cls-3" d="M46.09,13.52v1.56H43.45v7.26H41.6V15.08H39V13.52Z"/><path class="cls-3" d="M52.25,22.34H50.42V13.52h1.83Z"/><path class="cls-3" d="M54,13.52h1.93l3.5,6.15V13.52h1.71v8.82H59.25l-3.59-6.26v6.26H54Z"/><path class="cls-3" d="M72.63,13.52v1.56H70v7.26H68.14V15.08H65.49V13.52Z"/><path class="cls-3" d="M80.28,21.56a4.59,4.59,0,0,1-5.77,0,4.76,4.76,0,0,1-1.34-3.64,4.64,4.64,0,0,1,1.34-3.64,4.56,4.56,0,0,1,5.77,0,4.68,4.68,0,0,1,1.34,3.64A4.79,4.79,0,0,1,80.28,21.56Zm-1.15-1.34a3.62,3.62,0,0,0,.65-2.3,3.64,3.64,0,0,0-.65-2.3,2.27,2.27,0,0,0-3.48,0,3.56,3.56,0,0,0-.65,2.3,3.56,3.56,0,0,0,.65,2.3,2.29,2.29,0,0,0,3.48,0Z"/><path class="cls-3" d="M83,13.52H84.9v5.42a3.11,3.11,0,0,0,.21,1.32,1.79,1.79,0,0,0,2.9,0,2.94,2.94,0,0,0,.22-1.32V13.52H90.1v5.42a4.54,4.54,0,0,1-.44,2.19,4.06,4.06,0,0,1-6.2,0A4.54,4.54,0,0,1,83,18.94Z"/><path class="cls-3" d="M92.71,14.44a4.11,4.11,0,0,1,5.93.37,3.2,3.2,0,0,1,.61,1.65H97.4a2.53,2.53,0,0,0-.45-1,2,2,0,0,0-3,.24A3.93,3.93,0,0,0,93.37,18a3.46,3.46,0,0,0,.6,2.22A1.87,1.87,0,0,0,95.5,21a1.72,1.72,0,0,0,1.44-.63,2.86,2.86,0,0,0,.46-1h1.83A4,4,0,0,1,98,21.68a3.54,3.54,0,0,1-2.5.9,3.73,3.73,0,0,1-3-1.22A4.93,4.93,0,0,1,91.49,18,4.91,4.91,0,0,1,92.71,14.44Z"/><path class="cls-3" d="M100.7,22.34V13.52h1.84v3.36H106V13.52h1.83v8.82H106V18.4h-3.42v3.94Z"/><rect class="cls-3" x="116.82" y="17.65" width="104.83" height="4.74"/><rect class="cls-3" x="136" y="260.76" width="50" height="8"/><rect class="cls-3" x="21.16" y="264.51" width="25.21" height="0.5"/></g></svg>