<?xml version="1.0" encoding="utf-8"?><svg xmlns="http://www.w3.org/2000/svg" viewBox="0 0 237 275"><defs><style>.cls-1{fill:#81a0b4;}.cls-2{fill:#3b5999;}.cls-3{fill:#fff;}.cls-4{fill:#2baae1;}.cls-5{fill:#f15922;}.cls-6{fill:#231f20;}.cls-7{opacity:0.24;}.cls-8{opacity:0.62;}.cls-9{fill:#c9292c;}.cls-10{fill:#f1f2f2;}.cls-11{opacity:0.68;}</style></defs><title>c9 blocks</title><g id="Layer_1" data-name="Layer 1"><rect class="cls-1" x="136.4" y="164.17" width="35.7" height="4.76"/><rect class="cls-1" x="136.4" y="176.54" width="85.93" height="0.25"/><rect class="cls-1" x="136.4" y="192.63" width="85.93" height="0.25"/><rect class="cls-1" x="136.4" y="208.72" width="85.93" height="0.25"/><polygon class="cls-1" points="142.4 184.31 140.61 184.31 140.61 182.53 139.82 182.53 139.82 184.31 138.03 184.31 138.03 185.1 139.82 185.1 139.82 186.89 140.61 186.89 140.61 185.1 142.4 185.1 142.4 184.31"/><path class="cls-1" d="M140.22,181.89a2.82,2.82,0,1,1-2.82,2.82,2.82,2.82,0,0,1,2.82-2.82m0-1a3.82,3.82,0,1,0,3.81,3.82,3.82,3.82,0,0,0-3.81-3.82Z"/><polygon class="cls-1" points="142.4 200.4 140.61 200.4 140.61 198.62 139.82 198.62 139.82 200.4 138.03 200.4 138.03 201.19 139.82 201.19 139.82 202.98 140.61 202.98 140.61 201.19 142.4 201.19 142.4 200.4"/><path class="cls-1" d="M140.22,198a2.82,2.82,0,1,1-2.82,2.82,2.82,2.82,0,0,1,2.82-2.82m0-1A3.82,3.82,0,1,0,144,200.8a3.82,3.82,0,0,0-3.81-3.82Z"/><path class="cls-2" d="M107,246.61a2.62,2.62,0,1,1,2.62,2.63A2.61,2.61,0,0,1,107,246.61Zm2.94,1h0l1.3-1.3L109.91,245v.65h0l-.26,0a2.09,2.09,0,0,0-1.18.63,2,2,0,0,0-.32.49,1.78,1.78,0,0,0-.16.51,2.64,2.64,0,0,0,0,.29v0a1.64,1.64,0,0,1,.21-.25,1.6,1.6,0,0,1,.61-.34,1.7,1.7,0,0,1,.54-.09,2,2,0,0,1,.49,0l.1,0Z"/><path class="cls-3" d="M109.91,247.6V247l-.1,0a2,2,0,0,0-.49,0,1.7,1.7,0,0,0-.54.09,1.6,1.6,0,0,0-.61.34,1.64,1.64,0,0,0-.21.25v0a2.64,2.64,0,0,1,0-.29,1.78,1.78,0,0,1,.16-.51,2,2,0,0,1,.32-.49,2.09,2.09,0,0,1,1.18-.63l.26,0h0V245l1.31,1.31-1.3,1.3Z"/><path class="cls-4" d="M112.91,246.61a2.62,2.62,0,1,1,2.62,2.63A2.61,2.61,0,0,1,112.91,246.61Zm3,1h0l1.3-1.3-1.3-1.31v.65h0l-.26,0a2.25,2.25,0,0,0-.35.09,2,2,0,0,0-.83.54,2.3,2.3,0,0,0-.32.49,1.77,1.77,0,0,0-.15.51,1.36,1.36,0,0,0,0,.29v0a1.71,1.71,0,0,1,.22-.25,1.49,1.49,0,0,1,.6-.34,1.7,1.7,0,0,1,.54-.09,2,2,0,0,1,.49,0l.11,0Z"/><path class="cls-3" d="M115.86,247.6V247l-.11,0a2,2,0,0,0-.49,0,1.7,1.7,0,0,0-.54.09,1.49,1.49,0,0,0-.6.34,1.71,1.71,0,0,0-.22.25v0a1.36,1.36,0,0,1,0-.29,1.77,1.77,0,0,1,.15-.51,2.3,2.3,0,0,1,.32-.49,2,2,0,0,1,.83-.54,2.25,2.25,0,0,1,.35-.09l.26,0h0V245l1.3,1.31-1.3,1.3Z"/><path class="cls-5" d="M118.85,246.61a2.62,2.62,0,1,1,2.62,2.63A2.61,2.61,0,0,1,118.85,246.61Zm3,1h0l1.31-1.3L121.8,245v.65h0l-.25,0-.36.09a1.9,1.9,0,0,0-.82.54,2,2,0,0,0-.33.49,2.15,2.15,0,0,0-.15.51,1.36,1.36,0,0,0,0,.29v0a1.64,1.64,0,0,1,.21-.25,1.56,1.56,0,0,1,.6-.34,1.71,1.71,0,0,1,.55-.09,2.05,2.05,0,0,1,.49,0l.1,0Z"/><path class="cls-3" d="M121.8,247.6V247l-.1,0a2.05,2.05,0,0,0-.49,0,1.71,1.71,0,0,0-.55.09,1.56,1.56,0,0,0-.6.34,1.64,1.64,0,0,0-.21.25v0a1.36,1.36,0,0,1,0-.29,2.15,2.15,0,0,1,.15-.51,2,2,0,0,1,.33-.49,1.9,1.9,0,0,1,.82-.54l.36-.09.25,0h0V245l1.31,1.31-1.31,1.3Z"/><path class="cls-6" d="M124.79,246.61a2.62,2.62,0,1,1,2.63,2.63A2.61,2.61,0,0,1,124.79,246.61Zm2.95,1h0l1.31-1.3L127.74,245v.65h0l-.26,0-.36.09a1.93,1.93,0,0,0-1.14,1,1.78,1.78,0,0,0-.16.51.93.93,0,0,0,0,.29v0a1.64,1.64,0,0,1,.21-.25,1.53,1.53,0,0,1,.61-.34,1.61,1.61,0,0,1,.54-.09,2,2,0,0,1,.49,0l.1,0Z"/><path class="cls-3" d="M127.74,247.6V247l-.1,0a2,2,0,0,0-.49,0,1.61,1.61,0,0,0-.54.09,1.53,1.53,0,0,0-.61.34,1.64,1.64,0,0,0-.21.25v0a.93.93,0,0,1,0-.29,1.78,1.78,0,0,1,.16-.51,1.93,1.93,0,0,1,1.14-1l.36-.09.26,0h0V245l1.31,1.31-1.31,1.3Z"/></g><g id="logo_dark_grey" data-name="logo dark grey"><g class="cls-7"><rect class="cls-1" x="-1.98" y="158.23" width="238.62" height="65.77"/></g><g class="cls-8"><rect class="cls-1" width="238.62" height="51"/></g><path class="cls-3" d="M169.32,12.48v4.9a3.34,3.34,0,0,0,1.68,2.9l4.24,2.45a3.32,3.32,0,0,0,3.34,0l4.25-2.45a3.36,3.36,0,0,0,1.67-2.9v-4.9a3.34,3.34,0,0,0-1.67-2.89l-4.25-2.45a3.32,3.32,0,0,0-3.34,0L171,9.59A3.33,3.33,0,0,0,169.32,12.48Z"/><path class="cls-9" d="M176.91,23.68a3.87,3.87,0,0,1-1.92-.52l-4.24-2.45a3.85,3.85,0,0,1-1.93-3.33v-4.9a3.86,3.86,0,0,1,1.93-3.33L175,6.7a3.87,3.87,0,0,1,3.84,0l4.25,2.45A3.87,3.87,0,0,1,185,12.48v4.9a3.86,3.86,0,0,1-1.92,3.33l-4.25,2.45A3.84,3.84,0,0,1,176.91,23.68Zm0-16.49a2.88,2.88,0,0,0-1.42.38L171.25,10a2.86,2.86,0,0,0-1.43,2.46v4.9a2.86,2.86,0,0,0,1.43,2.47l4.24,2.45a2.88,2.88,0,0,0,2.84,0l4.25-2.45A2.85,2.85,0,0,0,184,17.38v-4.9A2.85,2.85,0,0,0,182.58,10l-4.25-2.45A2.85,2.85,0,0,0,176.91,7.19Z"/><polygon class="cls-1" points="237.51 51 206.14 3.33 180.39 34.34 162.51 28.53 132.79 51 237.51 51"/><rect class="cls-3" x="19.12" y="32.7" width="57.71" height="4.76"/><path class="cls-10" d="M23.79,21.94a3.14,3.14,0,0,1-2.09.61H20v3H18.23V17.21h3.58a2.89,2.89,0,0,1,2,.64,2.53,2.53,0,0,1,.74,2A2.58,2.58,0,0,1,23.79,21.94Zm-1.33-3a1.43,1.43,0,0,0-.93-.27H20v2.45h1.57a1.33,1.33,0,0,0,.93-.3,1.22,1.22,0,0,0,.33-.95A1.17,1.17,0,0,0,22.46,18.93Z"/><path class="cls-10" d="M27.46,17.21h2l3,8.35h-1.9l-.55-1.72H26.87l-.57,1.72H24.48Zm-.12,5.19h2.14l-1.05-3.28Z"/><path class="cls-10" d="M39.06,19.81a1.6,1.6,0,0,0-1-1.19,2.24,2.24,0,0,0-1-.19,2.06,2.06,0,0,0-1.66.76,3.48,3.48,0,0,0-.65,2.29,2.81,2.81,0,0,0,.7,2.17,2.3,2.3,0,0,0,1.6.64,2.12,2.12,0,0,0,1.44-.5,2.23,2.23,0,0,0,.69-1.32H37.33v-1.4h3.48v4.49H39.65l-.18-1a3.72,3.72,0,0,1-.9.84,3.22,3.22,0,0,1-1.7.42,3.52,3.52,0,0,1-2.72-1.15,4.36,4.36,0,0,1-1.1-3.16,4.66,4.66,0,0,1,1.11-3.25,4.3,4.3,0,0,1,5.51-.41,3,3,0,0,1,1.11,2Z"/><path class="cls-10" d="M48.64,18.68H44.23v1.78h4.05v1.45H44.23v2.14h4.62v1.51H42.52V17.21h6.12Z"/><path class="cls-10" d="M59.5,17.21v1.47H57v6.88H55.24V18.68H52.73V17.21Z"/><path class="cls-10" d="M62.11,25.56H60.38V17.21h1.73Z"/><path class="cls-10" d="M69.8,17.21v1.47H67.31v6.88H65.55V18.68H63V17.21Z"/><path class="cls-10" d="M70.82,17.21h1.75v6.84h4.17v1.51H70.82Z"/><path class="cls-10" d="M84.08,18.68H79.67v1.78h4v1.45h-4v2.14h4.62v1.51H78V17.21h6.12Z"/><rect class="cls-1" x="16.57" y="58.13" width="77.69" height="47.88"/><path class="cls-3" d="M60.05,80.48l.1-.06,2.78-1.85a.4.4,0,0,1,.59.09.54.54,0,0,1,.06.25c0,.72,0,5.25,0,6.45a.38.38,0,0,1-.42.41.52.52,0,0,1-.23-.1L60.16,83.8,60,83.71a.41.41,0,0,0,0,.11c0,.51,0,1,0,1.52a1.48,1.48,0,0,1-1.52,1.5l-9.76-.07a1.47,1.47,0,0,1-1.45-1.16,1.63,1.63,0,0,1,0-.31q0-3.28,0-6.56a1.45,1.45,0,0,1,1.35-1.43H49l9.55.07a1.48,1.48,0,0,1,1.26.61,1.55,1.55,0,0,1,.28.93c0,.48,0,1,0,1.45ZM52,82c0,.44,0,.89,0,1.33a.54.54,0,0,0,.83.48c.76-.43,1.51-.87,2.26-1.31a.52.52,0,0,0,0-.92l-2.22-1.34a.54.54,0,0,0-.85.47C52,81.18,52,81.61,52,82Z"/><rect class="cls-9" x="168.72" y="91.27" width="32.85" height="7" rx="3.28"/><rect class="cls-1" x="151.32" y="83.36" width="67.66" height="0.5"/><path class="cls-1" d="M158,76.28V67.57h1.81v3.32h3.39V67.57H165v8.71h-1.8V72.39h-3.39v3.89Z"/><path class="cls-1" d="M173.21,69.11H168.6V71h4.23v1.51H168.6v2.24h4.82v1.57h-6.6V67.57h6.39Z"/><path class="cls-1" d="M177.33,67.57h2.06l3.08,8.71h-2l-.57-1.79h-3.21l-.59,1.79h-1.9ZM177.21,73h2.23l-1.1-3.42Z"/><path class="cls-1" d="M188.68,67.75a2.94,2.94,0,0,1,1.49,1.11,3.88,3.88,0,0,1,.62,1.41,6.68,6.68,0,0,1,.16,1.44,5.71,5.71,0,0,1-.7,2.94,3.15,3.15,0,0,1-2.92,1.63h-3.75V67.57h3.75A4.64,4.64,0,0,1,188.68,67.75Zm-3.34,1.33v5.68H187a1.81,1.81,0,0,0,1.8-1.27,4.37,4.37,0,0,0,.28-1.66,4.08,4.08,0,0,0-.42-2,1.76,1.76,0,0,0-1.66-.71Z"/><path class="cls-1" d="M194,76.28h-1.81V67.57H194Z"/><path class="cls-1" d="M195.65,67.57h1.91L201,73.64V67.57h1.69v8.71h-1.82l-3.54-6.18v6.18h-1.7Z"/><path class="cls-1" d="M210.28,70.28a1.71,1.71,0,0,0-1-1.24,2.51,2.51,0,0,0-1-.2,2.18,2.18,0,0,0-1.73.8,3.58,3.58,0,0,0-.68,2.38,3,3,0,0,0,.73,2.27,2.4,2.4,0,0,0,1.67.67,2.16,2.16,0,0,0,1.5-.53,2.27,2.27,0,0,0,.72-1.37h-2V71.6h3.63v4.68h-1.21l-.18-1.09a4.22,4.22,0,0,1-1,.87,3.37,3.37,0,0,1-1.77.44,3.69,3.69,0,0,1-2.84-1.2A4.55,4.55,0,0,1,204,72a4.82,4.82,0,0,1,1.17-3.39,4,4,0,0,1,3.07-1.28,4,4,0,0,1,2.67.84,3.14,3.14,0,0,1,1.16,2.1Z"/><rect class="cls-1" x="17.25" y="138.81" width="55.53" height="0.5"/><rect class="cls-1" x="17.25" y="132.49" width="97.18" height="0.5"/><rect class="cls-1" x="17.25" y="126.17" width="97.18" height="0.5"/><rect class="cls-1" x="17.25" y="119.85" width="97.18" height="0.5"/><g class="cls-11"><rect class="cls-1" x="159.93" y="107" width="48.6" height="36.37"/></g><polygon class="cls-3" points="208.75 143.59 194.16 116.15 181.89 133.62 172.89 127.35 160.64 143.24 208.75 143.59"/><path class="cls-1" d="M194.07,117.58l13.42,25.25-45.34-.33,10.9-14.13,8.41,5.86.62.43.42-.61,11.57-16.47m.09-1.43-12.27,17.47-9-6.27-12.25,15.89,48.11.35-14.59-27.44Z"/><path class="cls-3" d="M174.38,117v2a2.15,2.15,0,0,0,1.08,1.86l1.74,1a2.1,2.1,0,0,0,2.14,0l1.75-1a2.14,2.14,0,0,0,1.07-1.86v-2a2.14,2.14,0,0,0-1.07-1.86l-1.75-1a2.15,2.15,0,0,0-2.14,0l-1.74,1A2.15,2.15,0,0,0,174.38,117Z"/><path class="cls-9" d="M178.27,122.57a2.49,2.49,0,0,1-1.27-.34l-1.75-1A2.55,2.55,0,0,1,174,119v-2a2.55,2.55,0,0,1,1.27-2.2l1.75-1a2.56,2.56,0,0,1,2.54,0l1.75,1a2.54,2.54,0,0,1,1.27,2.2v2a2.52,2.52,0,0,1-1.27,2.2l-1.75,1A2.49,2.49,0,0,1,178.27,122.57Zm0-8.31a1.8,1.8,0,0,0-.87.23l-1.74,1a1.75,1.75,0,0,0-.88,1.51v2a1.76,1.76,0,0,0,.87,1.51l1.75,1a1.74,1.74,0,0,0,1.74,0l1.75-1a1.74,1.74,0,0,0,.87-1.51v-2a1.74,1.74,0,0,0-.87-1.51l-1.75-1A1.77,1.77,0,0,0,178.27,114.26Z"/><path class="cls-1" d="M156,123.65l-1.57,1.56,1.57,1.56a.19.19,0,0,1,.05.14.17.17,0,0,1-.05.13l-.49.49a.17.17,0,0,1-.13,0,.19.19,0,0,1-.14,0l-2.18-2.19a.16.16,0,0,1-.06-.13.18.18,0,0,1,.06-.13l2.18-2.18a.2.2,0,0,1,.14-.06.18.18,0,0,1,.13.06l.49.48a.19.19,0,0,1,.05.14A.17.17,0,0,1,156,123.65Z"/><path class="cls-1" d="M212.94,123.52a.2.2,0,0,1,.06-.14l.49-.48a.16.16,0,0,1,.13-.06.18.18,0,0,1,.13.06l2.19,2.18a.17.17,0,0,1,.05.13.15.15,0,0,1-.05.13l-2.19,2.19a.17.17,0,0,1-.13,0,.15.15,0,0,1-.13,0L213,127a.18.18,0,0,1-.06-.13.2.2,0,0,1,.06-.14l1.56-1.56L213,123.65A.18.18,0,0,1,212.94,123.52Z"/><path class="cls-1" d="M208.87,146.8v2.65h-48V146.8h48m.25-.25H160.64v3.15h48.48v-3.15Z"/><rect class="cls-1" x="176.89" y="146.54" width="16.16" height="3.08"/><path class="cls-1" d="M38.94,185.31l-1.62,1.62,1.62,1.62a.22.22,0,0,1,0,.28l-.51.5a.18.18,0,0,1-.14.06.16.16,0,0,1-.13-.06l-2.27-2.26a.17.17,0,0,1,0-.14.17.17,0,0,1,0-.13l2.27-2.26a.16.16,0,0,1,.13-.06.18.18,0,0,1,.14.06l.51.5a.19.19,0,0,1,.05.14A.15.15,0,0,1,38.94,185.31Z"/><path class="cls-1" d="M88.84,185.18a.19.19,0,0,1,0-.14l.51-.5a.18.18,0,0,1,.14-.06.16.16,0,0,1,.13.06l2.27,2.26a.17.17,0,0,1,0,.13.17.17,0,0,1,0,.14l-2.27,2.26a.16.16,0,0,1-.13.06.18.18,0,0,1-.14-.06l-.51-.5a.22.22,0,0,1,0-.28l1.62-1.62-1.62-1.62A.15.15,0,0,1,88.84,185.18Z"/><path class="cls-1" d="M82.69,216.68v2.77H43.19v-2.77h39.5m.25-.25h-40v3.27h40v-3.27Z"/><rect class="cls-1" x="56.35" y="216.42" width="13.33" height="3.19"/><path class="cls-1" d="M84.11,238.92a.92.92,0,0,0,.19.5,1.09,1.09,0,0,0,.87.3,2,2,0,0,0,.6-.08.56.56,0,0,0,.43-.57.42.42,0,0,0-.21-.37,2.29,2.29,0,0,0-.68-.23l-.53-.12a3.26,3.26,0,0,1-1.07-.37,1.2,1.2,0,0,1-.5-1.06,1.41,1.41,0,0,1,.49-1.09,2,2,0,0,1,1.42-.44,2.17,2.17,0,0,1,1.33.41A1.44,1.44,0,0,1,87,237h-1a.7.7,0,0,0-.39-.62,1.28,1.28,0,0,0-.61-.13,1.22,1.22,0,0,0-.65.16.52.52,0,0,0-.24.45.43.43,0,0,0,.24.39,3,3,0,0,0,.65.2l.86.2a2.2,2.2,0,0,1,.84.36,1.2,1.2,0,0,1,.44,1,1.4,1.4,0,0,1-.52,1.11,2.19,2.19,0,0,1-1.46.44,2.39,2.39,0,0,1-1.52-.43,1.44,1.44,0,0,1-.56-1.2Z"/><path class="cls-1" d="M87.9,240.43v-4.89h1v1.86h1.9v-1.86h1v4.89h-1v-2.19h-1.9v2.19Z"/><path class="cls-1" d="M94.21,235.54h1.16l1.73,4.89H96l-.32-1h-1.8l-.33,1H92.47Zm-.07,3H95.4l-.62-1.93Z"/><path class="cls-1" d="M100.85,235.66a1.2,1.2,0,0,1,.46.34,1.4,1.4,0,0,1,.34.93,1.41,1.41,0,0,1-.18.68,1,1,0,0,1-.58.48.87.87,0,0,1,.48.39,1.63,1.63,0,0,1,.14.76v.33a2.13,2.13,0,0,0,0,.45.41.41,0,0,0,.19.28v.13H100.6l-.07-.27a2.72,2.72,0,0,1,0-.42v-.45a.9.9,0,0,0-.16-.63.84.84,0,0,0-.58-.15h-1v1.92h-1v-4.89h2.34A1.93,1.93,0,0,1,100.85,235.66Zm-2.11.73v1.31h1.1a1.21,1.21,0,0,0,.49-.08.54.54,0,0,0,.29-.55.61.61,0,0,0-.28-.6,1,1,0,0,0-.47-.08Z"/><path class="cls-1" d="M106.24,236.4h-2.58v1H106v.85h-2.37v1.26h2.7v.88h-3.7v-4.89h3.58Z"/><path class="cls-1" d="M109.71,235.54l.65,2.8.14.78.14-.77.55-2.81h1.08l.58,2.8.15.78.15-.75.65-2.83h1l-1.37,4.89h-1l-.59-2.86-.17-.95-.18.95-.59,2.86H110l-1.38-4.89Z"/><path class="cls-1" d="M116.39,240.43h-1v-4.89h1Z"/><path class="cls-1" d="M120.9,235.54v.86h-1.46v4h-1v-4h-1.47v-.86Z"/><path class="cls-1" d="M121.49,240.43v-4.89h1v1.86h1.9v-1.86h1v4.89h-1v-2.19h-1.9v2.19Z"/><path class="cls-1" d="M128.29,235.54h3.49v.86h-2.47v1.13h2.16v.85h-2.16v2.05h-1Z"/><path class="cls-1" d="M135.58,235.66a1.28,1.28,0,0,1,.46.34,1.58,1.58,0,0,1,.24.42,1.36,1.36,0,0,1,.09.51,1.52,1.52,0,0,1-.17.68,1,1,0,0,1-.58.48.88.88,0,0,1,.47.39,1.5,1.5,0,0,1,.15.76v.33a2.39,2.39,0,0,0,0,.45.41.41,0,0,0,.19.28v.13h-1.13a2.32,2.32,0,0,1-.06-.27,2.68,2.68,0,0,1,0-.42v-.45a1,1,0,0,0-.16-.63.87.87,0,0,0-.59-.15h-1v1.92h-1v-4.89h2.34A2,2,0,0,1,135.58,235.66Zm-2.12.73v1.31h1.11a1.24,1.24,0,0,0,.49-.08.56.56,0,0,0,.29-.55.63.63,0,0,0-.28-.6,1,1,0,0,0-.48-.08Z"/><path class="cls-1" d="M138.28,240.43h-1v-4.89h1Z"/><path class="cls-1" d="M142.85,236.4h-2.58v1h2.37v.85h-2.37v1.26H143v.88h-3.7v-4.89h3.58Z"/><path class="cls-1" d="M143.75,235.54h1.08l1.94,3.41v-3.41h.95v4.89h-1l-2-3.47v3.47h-1Z"/><path class="cls-1" d="M151.54,235.64a1.62,1.62,0,0,1,.84.62,2.42,2.42,0,0,1,.35.79,3.94,3.94,0,0,1,.09.81,3.25,3.25,0,0,1-.39,1.65,1.78,1.78,0,0,1-1.64.92h-2.11v-4.89h2.11A2.62,2.62,0,0,1,151.54,235.64Zm-1.87.75v3.19h.94a1,1,0,0,0,1-.72,2.38,2.38,0,0,0,.16-.93,2.31,2.31,0,0,0-.23-1.14,1,1,0,0,0-.94-.4Z"/><path class="cls-1" d="M154.32,238.92a.92.92,0,0,0,.19.5,1.09,1.09,0,0,0,.87.3,2,2,0,0,0,.6-.08.56.56,0,0,0,.43-.57.42.42,0,0,0-.21-.37,2.29,2.29,0,0,0-.68-.23l-.53-.12a3.26,3.26,0,0,1-1.07-.37,1.2,1.2,0,0,1-.5-1.06,1.41,1.41,0,0,1,.49-1.09,2,2,0,0,1,1.42-.44,2.17,2.17,0,0,1,1.33.41,1.44,1.44,0,0,1,.58,1.19h-1a.7.7,0,0,0-.39-.62,1.28,1.28,0,0,0-.61-.13,1.22,1.22,0,0,0-.65.16.52.52,0,0,0-.24.45.43.43,0,0,0,.24.39,3,3,0,0,0,.65.2l.86.2a2.2,2.2,0,0,1,.84.36,1.2,1.2,0,0,1,.44,1,1.4,1.4,0,0,1-.52,1.11,2.19,2.19,0,0,1-1.46.44,2.39,2.39,0,0,1-1.52-.43,1.44,1.44,0,0,1-.56-1.2Z"/></g><g id="Layer_23" data-name="Layer 23"><polygon class="cls-1" points="241.29 275.46 -1.33 275.46 -0.95 256.55 241.29 256.55 241.29 275.46"/><rect class="cls-3" x="140.67" y="262.01" width="50" height="8"/><rect class="cls-3" x="25.83" y="265.76" width="25.21" height="0.5"/><g class="cls-11"><g class="cls-8"><path class="cls-1" d="M43.73,161.57V212.3H84.1V161.57Z"/></g></g><polygon class="cls-1" points="84.1 212.25 71.48 181.75 61.39 204.47 53.82 196.9 43.73 212.25 84.1 212.25"/><path class="cls-3" d="M53.66,173.4v3.31a2.26,2.26,0,0,0,1.13,2l2.86,1.66a2.3,2.3,0,0,0,2.27,0l2.86-1.66a2.26,2.26,0,0,0,1.13-2V173.4a2.25,2.25,0,0,0-1.13-2l-2.86-1.66a2.3,2.3,0,0,0-2.27,0l-2.86,1.66A2.25,2.25,0,0,0,53.66,173.4Z"/><path class="cls-9" d="M58.79,170a1.83,1.83,0,0,1,.88.23l2.86,1.66a1.75,1.75,0,0,1,.88,1.52v3.31a1.75,1.75,0,0,1-.88,1.53l-2.86,1.66a1.82,1.82,0,0,1-1.77,0L55,178.24a1.75,1.75,0,0,1-.88-1.53V173.4a1.75,1.75,0,0,1,.88-1.52l2.86-1.66a1.84,1.84,0,0,1,.89-.23m0-.5a2.31,2.31,0,0,0-1.14.3l-2.86,1.66a2.25,2.25,0,0,0-1.13,2v3.31a2.26,2.26,0,0,0,1.13,2l2.86,1.66a2.31,2.31,0,0,0,1.14.3,2.28,2.28,0,0,0,1.13-.3l2.86-1.66a2.26,2.26,0,0,0,1.13-2V173.4a2.25,2.25,0,0,0-1.13-2l-2.86-1.66a2.28,2.28,0,0,0-1.13-.3Z"/></g></svg>