<?xml version="1.0" encoding="utf-8"?><svg xmlns="http://www.w3.org/2000/svg" viewBox="0 0 237 275"><defs><style>.cls-1{fill:#81a0b4;}.cls-2{fill:#3b5999;}.cls-12,.cls-3,.cls-8{fill:#fff;}.cls-4{fill:#2baae1;}.cls-5{fill:#f15922;}.cls-6{fill:#231f20;}.cls-7{fill:#f1f2f2;}.cls-8{opacity:0.5;}.cls-9{fill:#c9292c;}.cls-10{opacity:0.68;}.cls-11{opacity:0.24;}.cls-12{font-size:4.32px;font-family:Muli-Bold, Muli;font-weight:700;}.cls-13{letter-spacing:-0.01em;}.cls-14{letter-spacing:0em;}.cls-15{letter-spacing:0em;}</style></defs><title>c9 blocks</title><g id="Layer_1" data-name="Layer 1"><polygon class="cls-1" points="237.46 105 -0.3 105 0.08 -0.98 237.84 -0.98 237.46 105"/></g><g id="logo_dark_grey" data-name="logo dark grey"><path class="cls-2" d="M94.37,231.87a5.41,5.41,0,1,1,5.42,5.42A5.41,5.41,0,0,1,94.37,231.87Zm6.09,2h0l2.7-2.68-2.7-2.71v1.34h0a4.93,4.93,0,0,0-.54.05,3.68,3.68,0,0,0-.73.17,4.07,4.07,0,0,0-1.7,1.13,3.78,3.78,0,0,0-.67,1,4.18,4.18,0,0,0-.32,1,4,4,0,0,0,0,.6v.05l0,0a3.67,3.67,0,0,1,.44-.52,3.24,3.24,0,0,1,1.26-.72,4.16,4.16,0,0,1,1.11-.18,5.82,5.82,0,0,1,1,.06l.21,0Z"/><path class="cls-3" d="M100.46,233.89v-1.34l-.21,0a5.82,5.82,0,0,0-1-.06,4.16,4.16,0,0,0-1.11.18,3.24,3.24,0,0,0-1.26.72,3.67,3.67,0,0,0-.44.52l0,0v-.05a4,4,0,0,1,0-.6,4.18,4.18,0,0,1,.32-1,3.78,3.78,0,0,1,.67-1,4.07,4.07,0,0,1,1.7-1.13,3.68,3.68,0,0,1,.73-.17,4.93,4.93,0,0,1,.54-.05h0v-1.34l2.7,2.71-2.7,2.68Z"/><path class="cls-4" d="M106.64,231.87a5.41,5.41,0,1,1,5.41,5.42A5.41,5.41,0,0,1,106.64,231.87Zm6.08,2h0l2.7-2.68-2.71-2.71v1.34h0a4.93,4.93,0,0,0-.54.05,3.68,3.68,0,0,0-.73.17,4.07,4.07,0,0,0-1.7,1.13,3.78,3.78,0,0,0-.67,1,4.18,4.18,0,0,0-.32,1,4,4,0,0,0,0,.6v.05l0,0a3.67,3.67,0,0,1,.44-.52,3.2,3.2,0,0,1,1.25-.72,4.29,4.29,0,0,1,1.12-.18,5.82,5.82,0,0,1,1,.06l.2,0Z"/><path class="cls-3" d="M112.72,233.89v-1.34l-.2,0a5.82,5.82,0,0,0-1-.06,4.29,4.29,0,0,0-1.12.18,3.2,3.2,0,0,0-1.25.72,3.67,3.67,0,0,0-.44.52l0,0v-.05a4,4,0,0,1,0-.6,4.18,4.18,0,0,1,.32-1,3.78,3.78,0,0,1,.67-1,4.07,4.07,0,0,1,1.7-1.13,3.68,3.68,0,0,1,.73-.17,4.93,4.93,0,0,1,.54-.05h0v-1.34l2.71,2.71-2.7,2.68Z"/><path class="cls-5" d="M118.91,231.87a5.41,5.41,0,1,1,5.41,5.42A5.41,5.41,0,0,1,118.91,231.87Zm6.08,2h0l2.7-2.68L125,228.51v1.34h0a4.93,4.93,0,0,0-.54.05,3.68,3.68,0,0,0-.73.17A4.1,4.1,0,0,0,122,231.2a4,4,0,0,0-.66,1,3.8,3.8,0,0,0-.32,1,4,4,0,0,0,0,.6v.05l0,0a3.67,3.67,0,0,1,.44-.52,3.2,3.2,0,0,1,1.25-.72,4.29,4.29,0,0,1,1.12-.18,5.65,5.65,0,0,1,1,.06l.21,0Z"/><path class="cls-3" d="M125,233.89v-1.34l-.21,0a5.65,5.65,0,0,0-1-.06,4.29,4.29,0,0,0-1.12.18,3.2,3.2,0,0,0-1.25.72,3.67,3.67,0,0,0-.44.52l0,0v-.05a4,4,0,0,1,0-.6,3.8,3.8,0,0,1,.32-1,4,4,0,0,1,.66-1,4.1,4.1,0,0,1,1.71-1.13,3.68,3.68,0,0,1,.73-.17,4.93,4.93,0,0,1,.54-.05h0v-1.34l2.71,2.71L125,233.9Z"/><path class="cls-6" d="M131.17,231.87a5.42,5.42,0,1,1,5.42,5.42A5.42,5.42,0,0,1,131.17,231.87Zm6.09,2h0l2.69-2.68-2.7-2.71v1.34h0a5,5,0,0,0-.53.05,3.68,3.68,0,0,0-.73.17,4,4,0,0,0-1.71,1.13,4,4,0,0,0-.66,1,3.8,3.8,0,0,0-.32,1,2.43,2.43,0,0,0,0,.6v.05l0,0a3.11,3.11,0,0,1,.44-.52,3.2,3.2,0,0,1,1.25-.72,4.29,4.29,0,0,1,1.12-.18,5.65,5.65,0,0,1,1,.06l.21,0Z"/><path class="cls-3" d="M137.26,233.89v-1.34l-.21,0a5.65,5.65,0,0,0-1-.06,4.29,4.29,0,0,0-1.12.18,3.2,3.2,0,0,0-1.25.72,3.11,3.11,0,0,0-.44.52l0,0v-.05a2.43,2.43,0,0,1,0-.6,3.8,3.8,0,0,1,.32-1,4,4,0,0,1,.66-1,4,4,0,0,1,1.71-1.13,3.68,3.68,0,0,1,.73-.17,5,5,0,0,1,.53-.05h0v-1.34l2.7,2.71-2.69,2.68Z"/><path class="cls-1" d="M82.38,216.16a1.11,1.11,0,0,0,.19.5,1.09,1.09,0,0,0,.87.3,1.67,1.67,0,0,0,.6-.08.57.57,0,0,0,.44-.56.42.42,0,0,0-.22-.38,2.63,2.63,0,0,0-.68-.23l-.53-.11a3.31,3.31,0,0,1-1.07-.38,1.19,1.19,0,0,1-.49-1.06,1.42,1.42,0,0,1,.48-1.09,2.06,2.06,0,0,1,1.42-.43,2.16,2.16,0,0,1,1.34.41,1.48,1.48,0,0,1,.58,1.19h-1a.68.68,0,0,0-.39-.63,1.38,1.38,0,0,0-.61-.12,1.14,1.14,0,0,0-.65.16.49.49,0,0,0-.24.44.41.41,0,0,0,.24.39,2.51,2.51,0,0,0,.65.2l.86.21a2.14,2.14,0,0,1,.84.35,1.17,1.17,0,0,1,.44,1,1.37,1.37,0,0,1-.52,1.11,2.14,2.14,0,0,1-1.46.45,2.41,2.41,0,0,1-1.52-.44,1.44,1.44,0,0,1-.55-1.2Z"/><path class="cls-1" d="M86.17,217.67v-4.89h1v1.86h1.9v-1.86h1v4.89h-1v-2.18h-1.9v2.18Z"/><path class="cls-1" d="M92.48,212.78h1.16l1.73,4.89H94.26l-.32-1h-1.8l-.33,1H90.74Zm-.06,3h1.25l-.62-1.92Z"/><path class="cls-1" d="M99.13,212.91a1.08,1.08,0,0,1,.45.34,1.33,1.33,0,0,1,.25.41,1.36,1.36,0,0,1,.09.51,1.45,1.45,0,0,1-.18.69,1,1,0,0,1-.58.47.92.92,0,0,1,.48.39,1.55,1.55,0,0,1,.14.77v.32a2.25,2.25,0,0,0,0,.46.41.41,0,0,0,.19.28v.12H98.87c0-.11-.05-.2-.06-.26a2,2,0,0,1,0-.42v-.46a.9.9,0,0,0-.17-.62.77.77,0,0,0-.58-.16H97v1.92H96v-4.89h2.33A2.16,2.16,0,0,1,99.13,212.91Zm-2.12.72v1.31h1.1a1.11,1.11,0,0,0,.5-.08.55.55,0,0,0,.29-.55.62.62,0,0,0-.28-.59,1,1,0,0,0-.48-.09Z"/><path class="cls-1" d="M104.52,213.65h-2.59v1h2.37v.85h-2.37v1.26h2.7v.88h-3.7v-4.89h3.59Z"/><path class="cls-1" d="M108,212.78l.65,2.8.14.78.14-.76.55-2.82h1.08l.58,2.8.15.78.15-.75.66-2.83h1l-1.38,4.89h-1l-.59-2.86-.17-.95-.17.95-.59,2.86h-.95l-1.39-4.89Z"/><path class="cls-1" d="M114.67,217.67h-1v-4.89h1Z"/><path class="cls-1" d="M119.17,212.78v.87h-1.46v4h-1v-4h-1.47v-.87Z"/><path class="cls-1" d="M119.76,217.67v-4.89h1v1.86h1.9v-1.86h1v4.89h-1v-2.18h-1.9v2.18Z"/><path class="cls-1" d="M126.57,212.79h3.48v.86h-2.47v1.12h2.17v.85h-2.17v2h-1Z"/><path class="cls-1" d="M133.85,212.91a1.18,1.18,0,0,1,.46.34,1.52,1.52,0,0,1,.24.41,1.36,1.36,0,0,1,.09.51,1.56,1.56,0,0,1-.17.69,1,1,0,0,1-.58.47,1,1,0,0,1,.48.39,1.67,1.67,0,0,1,.14.77v.32a2.25,2.25,0,0,0,0,.46.37.37,0,0,0,.18.28v.12H133.6a1.48,1.48,0,0,1-.07-.26,2,2,0,0,1,0-.42v-.46a.91.91,0,0,0-.16-.62.81.81,0,0,0-.58-.16h-1v1.92h-1v-4.89h2.34A2.14,2.14,0,0,1,133.85,212.91Zm-2.11.72v1.31h1.1a1.06,1.06,0,0,0,.49-.08.55.55,0,0,0,.29-.55.6.6,0,0,0-.28-.59,1,1,0,0,0-.47-.09Z"/><path class="cls-1" d="M136.56,217.67h-1v-4.89h1Z"/><path class="cls-1" d="M141.13,213.65h-2.59v1h2.38v.85h-2.38v1.26h2.71v.88h-3.71v-4.89h3.59Z"/><path class="cls-1" d="M142,212.78h1.07l1.94,3.41v-3.41h1v4.89h-1l-2-3.47v3.47H142Z"/><path class="cls-1" d="M149.82,212.89a1.6,1.6,0,0,1,.83.62,2.08,2.08,0,0,1,.35.79,3.86,3.86,0,0,1,.09.81,3.25,3.25,0,0,1-.39,1.65,1.77,1.77,0,0,1-1.64.91H147v-4.89h2.11A2.39,2.39,0,0,1,149.82,212.89Zm-1.88.74v3.19h.95a1,1,0,0,0,1-.71,2.59,2.59,0,0,0,.15-.93,2.39,2.39,0,0,0-.23-1.15,1,1,0,0,0-.93-.4Z"/><path class="cls-1" d="M152.59,216.16a1,1,0,0,0,.19.5,1.09,1.09,0,0,0,.87.3,1.67,1.67,0,0,0,.6-.08.57.57,0,0,0,.44-.56.42.42,0,0,0-.22-.38,2.63,2.63,0,0,0-.68-.23l-.53-.11a3.31,3.31,0,0,1-1.07-.38,1.19,1.19,0,0,1-.49-1.06,1.42,1.42,0,0,1,.48-1.09,2.06,2.06,0,0,1,1.42-.43,2.16,2.16,0,0,1,1.34.41,1.48,1.48,0,0,1,.58,1.19h-1a.68.68,0,0,0-.39-.63,1.38,1.38,0,0,0-.61-.12,1.14,1.14,0,0,0-.65.16.49.49,0,0,0-.24.44.41.41,0,0,0,.24.39,2.51,2.51,0,0,0,.65.2l.86.21a2.14,2.14,0,0,1,.84.35,1.17,1.17,0,0,1,.44,1,1.37,1.37,0,0,1-.52,1.11,2.14,2.14,0,0,1-1.46.45,2.41,2.41,0,0,1-1.52-.44,1.44,1.44,0,0,1-.55-1.2Z"/><path class="cls-7" d="M90.14,19.1a3.4,3.4,0,0,1-2.22.65H86.07v3.19H84.23V14.07H88a3.1,3.1,0,0,1,2.1.68,2.7,2.7,0,0,1,.78,2.13A2.74,2.74,0,0,1,90.14,19.1Zm-1.41-3.2a1.56,1.56,0,0,0-1-.29H86.07v2.61h1.67a1.41,1.41,0,0,0,1-.32,1.31,1.31,0,0,0,.35-1A1.25,1.25,0,0,0,88.73,15.9Z"/><path class="cls-7" d="M94,14.07h2.1l3.14,8.87h-2l-.59-1.82H93.41l-.6,1.82H90.87Zm-.12,5.52h2.27L95.07,16.1Z"/><path class="cls-7" d="M106.38,16.84a1.76,1.76,0,0,0-1-1.27,2.44,2.44,0,0,0-1-.2,2.2,2.2,0,0,0-1.76.81,3.67,3.67,0,0,0-.69,2.43,3,3,0,0,0,.74,2.31,2.48,2.48,0,0,0,1.7.68,2.24,2.24,0,0,0,1.53-.53,2.37,2.37,0,0,0,.74-1.41h-2.06V18.18h3.7v4.76H107l-.19-1.1a3.9,3.9,0,0,1-1,.88,3.39,3.39,0,0,1-1.8.45,3.75,3.75,0,0,1-2.9-1.22A4.68,4.68,0,0,1,100,18.59a4.92,4.92,0,0,1,1.19-3.45A4.55,4.55,0,0,1,107,14.7a3.15,3.15,0,0,1,1.18,2.14Z"/><path class="cls-7" d="M116.57,15.64h-4.7v1.88h4.31v1.55h-4.31v2.28h4.91v1.59h-6.72V14.07h6.51Z"/><path class="cls-7" d="M128.1,14.07v1.57h-2.65v7.3h-1.87v-7.3h-2.67V14.07Z"/><path class="cls-7" d="M130.88,22.94H129V14.07h1.84Z"/><path class="cls-7" d="M139.06,14.07v1.57h-2.65v7.3h-1.87v-7.3h-2.67V14.07Z"/><path class="cls-7" d="M140.15,14.07H142v7.28h4.44v1.59h-6.29Z"/><path class="cls-7" d="M154.25,15.64h-4.7v1.88h4.31v1.55h-4.31v2.28h4.91v1.59h-6.72V14.07h6.51Z"/><rect class="cls-8" x="61.15" y="68.91" width="120.03" height="8"/><rect class="cls-8" x="61.15" y="33.08" width="55.18" height="8"/><rect class="cls-8" x="126" y="33.08" width="55.18" height="8"/><rect class="cls-8" x="61.15" y="50.99" width="55.18" height="8"/><rect class="cls-8" x="126" y="50.99" width="55.18" height="8"/><rect class="cls-9" x="104.4" y="86.82" width="33.53" height="7.14" rx="3.35"/></g><g id="Layer_23" data-name="Layer 23"><g class="cls-10"><path class="cls-1" d="M117.83,117.16v69.1H219.17v-69.1Zm47.22,27.9a3.17,3.17,0,0,1-1.58,2.74l-4,2.31a3.18,3.18,0,0,1-3.16,0l-4-2.31a3.17,3.17,0,0,1-1.58-2.74v-4.63a3.14,3.14,0,0,1,1.58-2.73l4-2.32a3.18,3.18,0,0,1,3.16,0l4,2.32a3.14,3.14,0,0,1,1.58,2.73Z"/></g><polygon class="cls-1" points="219.17 186.2 188.81 140.07 163.89 170.08 146.59 164.46 117.83 186.2 219.17 186.2"/><rect class="cls-1" x="17.83" y="133.81" width="35.7" height="4.76"/><rect class="cls-1" x="17.83" y="169.36" width="47.86" height="0.5"/><rect class="cls-1" x="17.83" y="163.04" width="83.75" height="0.5"/><rect class="cls-1" x="17.83" y="156.72" width="83.75" height="0.5"/><rect class="cls-1" x="17.83" y="150.4" width="83.75" height="0.5"/><path class="cls-3" d="M150.19,139.61v5.61a3.83,3.83,0,0,0,1.92,3.32l4.86,2.8a3.8,3.8,0,0,0,3.83,0l4.86-2.8a3.86,3.86,0,0,0,1.92-3.32v-5.61a3.84,3.84,0,0,0-1.92-3.32l-4.86-2.81a3.85,3.85,0,0,0-3.83,0l-4.86,2.81A3.82,3.82,0,0,0,150.19,139.61Z"/><path class="cls-9" d="M158.88,133.72a3.06,3.06,0,0,1,1.54.41l4.86,2.81a3.1,3.1,0,0,1,1.55,2.67v5.61a3.1,3.1,0,0,1-1.55,2.67l-4.86,2.81a3.1,3.1,0,0,1-3.08,0l-4.86-2.81a3.09,3.09,0,0,1-1.54-2.67v-5.61a3.09,3.09,0,0,1,1.54-2.67l4.86-2.81a3.09,3.09,0,0,1,1.54-.41m0-.75a3.82,3.82,0,0,0-1.91.51l-4.86,2.81a3.82,3.82,0,0,0-1.92,3.32v5.61a3.83,3.83,0,0,0,1.92,3.32l4.86,2.8a3.79,3.79,0,0,0,3.83,0l4.86-2.8a3.86,3.86,0,0,0,1.92-3.32v-5.61a3.84,3.84,0,0,0-1.92-3.32l-4.86-2.81a3.86,3.86,0,0,0-1.92-.51Z"/><polygon class="cls-1" points="242.29 275.37 -0.33 275.37 0.05 256.45 242.29 256.45 242.29 275.37"/><rect class="cls-3" x="26.83" y="265.76" width="25.21" height="0.5"/><rect class="cls-3" x="145.84" y="261.91" width="50" height="8"/><g class="cls-11"><rect class="cls-3" x="196.17" y="261.91" width="23" height="8"/></g><text class="cls-12" transform="translate(198.63 267.17)">S<tspan class="cls-13" x="2.78" y="0">E</tspan><tspan class="cls-14" x="5.3" y="0">A</tspan><tspan class="cls-15" x="8.54" y="0">R</tspan><tspan x="11.56" y="0">CH</tspan></text></g></svg>