<?xml version="1.0" encoding="utf-8"?><svg xmlns="http://www.w3.org/2000/svg" viewBox="0 0 100 115.97"><defs><style>.cls-1{opacity:0.62;}.cls-10,.cls-13,.cls-2{fill:#81a0b4;}.cls-3,.cls-5,.cls-9{fill:#fff;}.cls-12,.cls-4{fill:none;stroke-miterlimit:10;stroke-width:0.5px;}.cls-4{stroke:#fff;}.cls-5{font-size:1.38px;font-family:FontAwesome;}.cls-6{opacity:0.66;}.cls-7{font-size:4.87px;fill:#f1f2f2;}.cls-10,.cls-13,.cls-7{font-family:Helvetica-Bold, Helvetica;font-weight:700;}.cls-8{opacity:0.51;}.cls-9{fill-rule:evenodd;}.cls-10{font-size:2.53px;}.cls-11{fill:#c9292c;}.cls-12{stroke:#81a0b4;}.cls-13{font-size:5.19px;}</style></defs><title>LandingPages_</title><g id="Layer_1" data-name="Layer 1"><g class="cls-1"><path class="cls-2" d="M-.37,25.5V52h101.9V25.5Zm76.76,7.88a1.23,1.23,0,0,1-.56,1l-1.42.87a1,1,0,0,1-1.1,0l-1.4-.91a1.25,1.25,0,0,1-.55-1l0-1.78a1.24,1.24,0,0,1,.57-1l1.41-.88a1,1,0,0,1,1.11,0l1.4.9a1.23,1.23,0,0,1,.54,1.06Z"/></g><polygon class="cls-2" points="99.62 52.03 86.44 32 75.62 45.03 68.11 42.59 55.62 52.03 99.62 52.03"/><polygon class="cls-2" points="100.37 25.44 0 25.44 0.16 0 100.53 0 100.37 25.44"/><rect class="cls-2" x="20.42" y="103.25" width="18.67" height="7.78"/><path class="cls-3" d="M38.2,104a.75.75,0,0,1,0,.78.75.75,0,0,1-.28.28.75.75,0,0,1-.78,0,.75.75,0,0,1-.28-.28.75.75,0,0,1,0-.78.78.78,0,0,1,.28-.29.81.81,0,0,1,.78,0A.78.78,0,0,1,38.2,104Zm-.1.24a.07.07,0,0,0,0-.07,1.17,1.17,0,0,0-.3-.12,2,2,0,0,0-.34,0,1.4,1.4,0,0,0-.37,0l0,0a.07.07,0,0,0,0,.1s0,0,.06,0h0a1.42,1.42,0,0,1,.31,0,1.63,1.63,0,0,1,.31,0,.88.88,0,0,1,.26.1h0l0,0A.08.08,0,0,0,38.1,104.27Zm-.11.25a.06.06,0,0,0,0-.06,1,1,0,0,0-.56-.15,1.12,1.12,0,0,0-.31,0,.06.06,0,0,0-.05.06.05.05,0,0,0,0,0s0,0,0,0h0a1.15,1.15,0,0,1,.26,0,.88.88,0,0,1,.49.13h0a.05.05,0,0,0,0,0S38,104.54,38,104.52Zm-.1.22a.07.07,0,0,0,0-.06.94.94,0,0,0-.45-.11l-.29,0a.05.05,0,0,0,0,.05s0,0,0,0h.07l.25,0a.74.74,0,0,1,.4.1h.07A0,0,0,0,0,37.89,104.74Z"/><circle class="cls-4" cx="22.95" cy="105.78" r="1.65"/><path class="cls-3" d="M23.36,105.78l-.83.55v-1.1Z"/><rect class="cls-3" x="21.92" y="84.53" width="15.67" height="15.67"/><path class="cls-2" d="M36.09,86V98.7H23.42V86H36.09m3-3H20.42V101.7H39.09V83Z"/><path class="cls-2" d="M33.64,87.39v0c0,2,0,4,0,5.93,0,.37,0,.73,0,1.1v.41a1,1,0,0,1-.1.41,1.55,1.55,0,0,1-.43.55,2.11,2.11,0,0,1-.92.43,2.27,2.27,0,0,1-.45,0,2,2,0,0,1-1.35-.52,1.47,1.47,0,0,1-.44-.71,1.32,1.32,0,0,1,.17-1.14,1.72,1.72,0,0,1,.79-.67,2.22,2.22,0,0,1,.77-.18,2.53,2.53,0,0,1,.47,0,2.09,2.09,0,0,1,.43.11l.07,0a.09.09,0,0,0,.09,0,.13.13,0,0,0,0-.09c0-.57,0-1.13,0-1.7V89.6s-4.39.68-4.68.74v1c0,1.23,0,2.47,0,3.7,0,.22,0,.45,0,.68s0,.22,0,.34l0,.1a1.6,1.6,0,0,1-.13.3,1.63,1.63,0,0,1-.23.29,1.93,1.93,0,0,1-.8.48,1.79,1.79,0,0,1-.46.09h-.25a2.26,2.26,0,0,1-.58-.09,1.74,1.74,0,0,1-.48-.22A1.59,1.59,0,0,1,24.33,96a1.51,1.51,0,0,1,0-.3,1.47,1.47,0,0,1,.43-1,1.89,1.89,0,0,1,.84-.5,2.25,2.25,0,0,1,.69-.08l.26,0,.39.09a.11.11,0,0,0,.15,0v0s0,0,0,0V91.26c0-.81,0-1.62,0-2.42v-.32c0-.07,0-.08.09-.09l.39-.07.73-.11.67-.11.56-.09.53-.09.52-.08.58-.09.57-.09.53-.09.64-.1.57-.09.13,0Z"/><rect class="cls-3" x="42.14" y="84.53" width="15.67" height="15.67"/><path class="cls-2" d="M56.31,86V98.7H43.64V86H56.31m3-3H40.64V101.7H59.31V83Z"/><path class="cls-2" d="M53.86,87.39v0c0,2,0,4,0,5.93v1.1c0,.13,0,.27,0,.41a1,1,0,0,1-.1.41,1.52,1.52,0,0,1-.42.55,2.15,2.15,0,0,1-.93.43,2.27,2.27,0,0,1-.45,0,2,2,0,0,1-1.35-.52,1.55,1.55,0,0,1-.44-.71,1.36,1.36,0,0,1,.17-1.14,1.72,1.72,0,0,1,.79-.67,2.22,2.22,0,0,1,.77-.18,2.48,2.48,0,0,1,.47,0,2.36,2.36,0,0,1,.44.11l.06,0a.08.08,0,0,0,.09,0,.1.1,0,0,0,0-.09v-1.7c0-.53,0-1,0-1.58V89.6s-4.39.68-4.68.74v1c0,1.23,0,2.47,0,3.7,0,.22,0,.45,0,.68s0,.22,0,.34a.36.36,0,0,1,0,.1,1.64,1.64,0,0,1-.14.3,1.28,1.28,0,0,1-.23.29,1.89,1.89,0,0,1-.79.48,1.86,1.86,0,0,1-.47.09h-.25a2.26,2.26,0,0,1-.58-.09,1.74,1.74,0,0,1-.48-.22A1.59,1.59,0,0,1,44.55,96a1.51,1.51,0,0,1,0-.3,1.47,1.47,0,0,1,.43-1,2,2,0,0,1,.84-.5,2.25,2.25,0,0,1,.69-.08l.27,0a2.62,2.62,0,0,1,.38.09.11.11,0,0,0,.15,0,0,0,0,0,1,0,0h0V88.52c0-.07,0-.08.08-.09l.39-.07.73-.11.67-.11.56-.09.53-.09.53-.08.58-.09.56-.09.53-.09.64-.1.57-.09.13,0Z"/><rect class="cls-3" x="62.36" y="84.53" width="15.67" height="15.67"/><path class="cls-2" d="M76.53,86V98.7H63.86V86H76.53m3-3H60.86V101.7H79.53V83Z"/><path class="cls-2" d="M74.09,87.39v0c0,2,0,4,0,5.93v1.1c0,.13,0,.27,0,.41a1,1,0,0,1-.09.41,1.55,1.55,0,0,1-.43.55,2.09,2.09,0,0,1-.93.43,2.27,2.27,0,0,1-.45,0,2,2,0,0,1-1.35-.52,1.55,1.55,0,0,1-.44-.71,1.39,1.39,0,0,1,.17-1.14,1.72,1.72,0,0,1,.79-.67,2.28,2.28,0,0,1,.77-.18,2.48,2.48,0,0,1,.47,0,2.18,2.18,0,0,1,.44.11l.07,0a.07.07,0,0,0,.08,0,.1.1,0,0,0,0-.09V89.84c0-.07,0-.14,0-.22v0s-4.4.68-4.69.74v1c0,1.23,0,2.47,0,3.7,0,.22,0,.45,0,.68s0,.22,0,.34a.36.36,0,0,1,0,.1,1.17,1.17,0,0,1-.14.3,1.28,1.28,0,0,1-.23.29,1.89,1.89,0,0,1-.79.48,1.87,1.87,0,0,1-.46.09h-.26a2.33,2.33,0,0,1-.58-.09A1.78,1.78,0,0,1,64.77,96a1.41,1.41,0,0,1,.41-1.26,2,2,0,0,1,.84-.5,2.33,2.33,0,0,1,.69-.08l.27,0a2.34,2.34,0,0,1,.38.09.11.11,0,0,0,.15,0s0,0,0,0h0v-5.3c0-.1,0-.2,0-.3v0c0-.07,0-.08.08-.09l.39-.07.73-.11.68-.11.55-.09.53-.09.53-.08.58-.09.56-.09.53-.09.64-.1.58-.09.12,0Z"/><text class="cls-5" transform="translate(36.94 107.92)"></text><rect class="cls-3" x="27.42" y="107.14" width="7" height="0.39"/><path class="cls-3" d="M26.21,107.3l.82.55v-1.1Z"/><line class="cls-4" x1="25.86" y1="106.75" x2="25.86" y2="107.92"/><path class="cls-3" d="M35.63,107.3l-.82.55v-1.1Z"/><line class="cls-4" x1="35.97" y1="106.75" x2="35.97" y2="107.92"/><rect class="cls-2" x="40.64" y="103.25" width="18.67" height="7.78"/><path class="cls-3" d="M58.63,104a.78.78,0,0,1-.28,1.06.75.75,0,0,1-.78,0,.78.78,0,0,1-.29-.28.81.81,0,0,1,0-.78.81.81,0,0,1,.29-.29.81.81,0,0,1,.78,0A.78.78,0,0,1,58.63,104Zm-.1.24a.08.08,0,0,0,0-.07,1.34,1.34,0,0,0-.3-.12,2,2,0,0,0-.35,0,1.4,1.4,0,0,0-.37,0l0,0a.07.07,0,0,0,0,0,.08.08,0,0,0,0,0s0,0,.05,0h0a1.48,1.48,0,0,1,.31,0,1.66,1.66,0,0,1,.32,0,.82.82,0,0,1,.25.1h0l.06,0A.08.08,0,0,0,58.53,104.27Zm-.11.25a.05.05,0,0,0,0-.06,1,1,0,0,0-.55-.15,1.06,1.06,0,0,0-.31,0,.06.06,0,0,0-.05.06.05.05,0,0,0,0,0,0,0,0,0,0,0,0h0a1.07,1.07,0,0,1,.25,0,.91.91,0,0,1,.5.13h0l0,0A.05.05,0,0,0,58.42,104.52Zm-.1.22a.07.07,0,0,0,0-.06.94.94,0,0,0-.45-.11l-.29,0s0,0,0,.05a.05.05,0,0,0,0,0h.07l.25,0a.77.77,0,0,1,.4.1h.07A0,0,0,0,0,58.32,104.74Z"/><circle class="cls-4" cx="43.17" cy="105.78" r="1.65"/><path class="cls-3" d="M43.58,105.78l-.82.55v-1.1Z"/><text class="cls-5" transform="translate(57.55 107.92)"></text><rect class="cls-3" x="48.03" y="107.14" width="7" height="0.39"/><path class="cls-3" d="M46.82,107.3l.82.55v-1.1Z"/><line class="cls-4" x1="46.47" y1="106.75" x2="46.47" y2="107.92"/><path class="cls-3" d="M56.24,107.3l-.82.55v-1.1Z"/><line class="cls-4" x1="56.59" y1="106.75" x2="56.59" y2="107.92"/><rect class="cls-2" x="60.86" y="103.25" width="18.67" height="7.78"/><path class="cls-3" d="M78.85,104a.75.75,0,0,1,0,.78.75.75,0,0,1-.28.28.75.75,0,0,1-.78,0,.75.75,0,0,1-.28-.28.75.75,0,0,1,0-.78.78.78,0,0,1,.28-.29.81.81,0,0,1,.78,0A.78.78,0,0,1,78.85,104Zm-.1.24a.07.07,0,0,0,0-.07,1.34,1.34,0,0,0-.3-.12,2,2,0,0,0-.35,0,1.32,1.32,0,0,0-.36,0l0,0a.07.07,0,0,0,0,.1.06.06,0,0,0,0,0h0a1.51,1.51,0,0,1,.32,0,1.63,1.63,0,0,1,.31,0,.88.88,0,0,1,.26.1h0l0,0A.08.08,0,0,0,78.75,104.27Zm-.11.25a.05.05,0,0,0,0-.06,1,1,0,0,0-.55-.15,1.12,1.12,0,0,0-.31,0,.06.06,0,0,0,0,.06.05.05,0,0,0,0,0,0,0,0,0,0,0,0h0a1.09,1.09,0,0,1,.26,0,.9.9,0,0,1,.49.13h0l0,0A.05.05,0,0,0,78.64,104.52Zm-.1.22a.07.07,0,0,0,0-.06.94.94,0,0,0-.45-.11l-.29,0a.05.05,0,0,0,0,.05s0,0,0,0h.07l.25,0a.74.74,0,0,1,.4.1h.07A0,0,0,0,0,78.54,104.74Z"/><circle class="cls-4" cx="63.39" cy="105.78" r="1.65"/><path class="cls-3" d="M63.8,105.78l-.82.55v-1.1Z"/><text class="cls-5" transform="translate(77.77 107.92)"></text><rect class="cls-3" x="68.25" y="107.14" width="7" height="0.39"/><path class="cls-3" d="M67,107.3l.82.55v-1.1Z"/><line class="cls-4" x1="66.7" y1="106.75" x2="66.7" y2="107.92"/><path class="cls-3" d="M76.47,107.3l-.83.55v-1.1Z"/><line class="cls-4" x1="76.81" y1="106.75" x2="76.81" y2="107.92"/><path class="cls-3" d="M95,4.3l0,0,1.19-.8a.17.17,0,0,1,.25,0,.2.2,0,0,1,0,.11c0,.31,0,2.25,0,2.77a.16.16,0,0,1-.18.17.15.15,0,0,1-.09,0l-1.17-.81-.06,0s0,0,0,0v.66a.63.63,0,0,1-.32.56.64.64,0,0,1-.33.08L90.16,7a.63.63,0,0,1-.62-.5.57.57,0,0,1,0-.13c0-.94,0-1.88,0-2.81a.63.63,0,0,1,.58-.62h.14l4.09,0a.63.63,0,0,1,.66.66V4.3ZM91.56,5c0,.19,0,.38,0,.57a.24.24,0,0,0,.36.21l1-.56a.23.23,0,0,0,0-.4l-1-.57a.23.23,0,0,0-.36.2Z"/><path class="cls-2" d="M91.56,5V4.42a.23.23,0,0,1,.36-.2l1,.57a.23.23,0,0,1,0,.4l-1,.56a.24.24,0,0,1-.36-.21C91.55,5.35,91.56,5.16,91.56,5Z"/><g class="cls-6"><path class="cls-2" d="M38.53,29v8.16h-31V29h31m1-1h-33V38.19h33V28Z"/></g><rect class="cls-2" x="6.53" y="36.03" width="33" height="14"/><rect class="cls-3" x="7.03" y="28.48" width="8.05" height="8.05"/><path class="cls-2" d="M14.58,29V36h-7V29h7.05m1-1h-9V37h9.05V28Z"/><path class="cls-2" d="M11.06,30.54a2,2,0,1,1-2,2,2,2,0,0,1,2-2m0-1a3,3,0,1,0,3,3,3,3,0,0,0-3-3Z"/><path class="cls-2" d="M11.8,32.5l-1.48,1v-2Z"/><rect class="cls-3" x="19.61" y="33.62" width="12.53" height="0.7"/><rect class="cls-3" x="8.19" y="39.58" width="22.98" height="0.69"/><rect class="cls-3" x="33.96" y="39.58" width="3.48" height="0.69"/><rect class="cls-3" x="8.19" y="43.77" width="22.98" height="0.69"/><rect class="cls-3" x="33.96" y="43.77" width="3.48" height="0.69"/><rect class="cls-3" x="8.19" y="47.24" width="22.98" height="0.69"/><rect class="cls-3" x="33.96" y="47.24" width="3.48" height="0.69"/><path class="cls-3" d="M38.34,34.14a.44.44,0,0,1,.31.13.42.42,0,0,1,.13.32.42.42,0,0,1-.13.31.43.43,0,0,1-.62,0,.42.42,0,0,1-.13-.31v-.05l-.5-.25a.41.41,0,0,1-.3.12.44.44,0,0,1-.44-.44.42.42,0,0,1,.13-.32.46.46,0,0,1,.31-.13.41.41,0,0,1,.3.12l.5-.25v0A.42.42,0,0,1,38,33a.46.46,0,0,1,.62,0,.42.42,0,0,1,.13.32.42.42,0,0,1-.13.31.4.4,0,0,1-.31.13.42.42,0,0,1-.3-.12l-.5.25a.43.43,0,0,0,0,0s0,0,0,0l.5.25A.42.42,0,0,1,38.34,34.14Z"/><path class="cls-3" d="M17.44,33.91l1.48,1v-2Z"/><rect class="cls-3" x="16.53" y="32.92" width="0.6" height="2.09"/><path class="cls-3" d="M34.32,33.91l-1.47,1v-2Z"/><rect class="cls-3" x="34.64" y="32.92" width="0.6" height="2.09"/><path class="cls-2" d="M42.51,66.12l-.89.89,0,0-.06,0-.19-.2a.07.07,0,0,1,0-.06s0,0,0,0l.63-.63-.63-.64a.06.06,0,0,1,0-.1l.19-.2a.07.07,0,0,1,.06,0s0,0,0,0l.89.88a.14.14,0,0,1,0,.06A.08.08,0,0,1,42.51,66.12Z"/><path class="cls-2" d="M4.51,65.43l-.64.64.64.63s0,0,0,0a.11.11,0,0,1,0,.06l-.2.2,0,0L4.2,67l-.88-.89a.05.05,0,0,1,0-.05.09.09,0,0,1,0-.06l.88-.88s0,0,.06,0a.06.06,0,0,1,0,0l.2.2a.07.07,0,0,1,0,.1Z"/><rect class="cls-2" x="6.26" y="56.03" width="33.3" height="20.52"/><path class="cls-3" d="M24.9,65.61l0,0,1.19-.79a.17.17,0,0,1,.25,0,.2.2,0,0,1,0,.11c0,.31,0,2.25,0,2.76a.16.16,0,0,1-.17.18.31.31,0,0,1-.1,0L25,67l-.06,0V67c0,.22,0,.43,0,.65a.61.61,0,0,1-.32.56.63.63,0,0,1-.33.09l-4.18,0a.61.61,0,0,1-.62-.49.68.68,0,0,1,0-.14c0-.93,0-1.87,0-2.81a.62.62,0,0,1,.58-.61h.14l4.09,0a.63.63,0,0,1,.66.65v.68Zm-3.46.67v.57a.23.23,0,0,0,.35.2c.33-.18.65-.37,1-.56a.22.22,0,0,0,0-.39l-1-.58a.24.24,0,0,0-.37.21C21.45,65.91,21.44,66.09,21.44,66.28Z"/></g><g id="logo_dark_grey" data-name="logo dark grey"><rect class="cls-3" x="7.29" y="16.03" width="24.24" height="2"/><text class="cls-7" transform="translate(6.53 13.03)">VIDEO COLLECTION</text><g class="cls-8"><path class="cls-9" d="M49.13,37.07c-.37-.78-.34-5.62,2-6.4a1.24,1.24,0,0,0-.56,1.52,4.09,4.09,0,0,1,3.2-2.4c1.33-.16-.73.06-.33,1.23,0-.5,3.29-2.5,6-1.1.73,5.31-3.11,5.6-3.11,5.6h0a3.73,3.73,0,0,0,1.31,0c-.5,2.2-3.49,2.33-3.49,2.33a5.64,5.64,0,0,0,1.93.13c-2.73,1.8-6.46-.27-6.46-.27s0,0-.09-.07l6.2-4.31a1.53,1.53,0,0,0,.57.24,1.38,1.38,0,1,0-.91-.59L51,36.1l-.12-.19-1.69,1.17M56.7,31.3a.9.9,0,1,1-1.05.73.9.9,0,0,1,1.05-.73Zm-7.17,6.32,0,0,0,0Zm-1.91-.36.47-.3.3.46-.46.31-.31-.47Zm-.24.82-.3-.46.46-.31.31.47-.47.3Zm-.55.36-.3-.47.47-.3.3.47-.47.3Zm2.6-.77L47.27,39.1l-.38-.58L49,37.14l.41.53Z"/></g><text class="cls-10" transform="translate(49.3 43.03)">LOGO</text><rect class="cls-11" x="63.37" y="71.52" width="14.08" height="3" rx="1.41"/><line class="cls-12" x1="55.91" y1="66.52" x2="84.91" y2="66.52"/><text class="cls-13" transform="translate(51.53 62.52)">MUSIC VIDEOS</text></g><g id="Layer_23" data-name="Layer 23"><path class="cls-3" d="M73.74,35a1,1,0,0,1-.49-.13l-1.69-1a1,1,0,0,1-.48-.83v-2a1,1,0,0,1,.48-.83l1.69-1a1,1,0,0,1,1,0l1.69,1a1,1,0,0,1,.48.83v2a1,1,0,0,1-.48.83l-1.69,1A.94.94,0,0,1,73.74,35Z"/><path class="cls-11" d="M73.74,29.53a.51.51,0,0,1,.29.08l1.69,1a.58.58,0,0,1,.3.51v2a.58.58,0,0,1-.3.51l-1.69,1a.6.6,0,0,1-.29.08.61.61,0,0,1-.3-.08l-1.69-1a.61.61,0,0,1-.3-.51v-2a.61.61,0,0,1,.3-.51l1.69-1a.52.52,0,0,1,.3-.08m0-.75a1.29,1.29,0,0,0-.67.18l-1.7,1a1.35,1.35,0,0,0-.67,1.16v2a1.35,1.35,0,0,0,.67,1.16l1.7,1a1.32,1.32,0,0,0,1.33,0l1.7-1a1.35,1.35,0,0,0,.67-1.16v-2a1.35,1.35,0,0,0-.67-1.16l-1.7-1a1.28,1.28,0,0,0-.66-.18Z"/></g></svg>