<?xml version="1.0" encoding="utf-8"?><svg xmlns="http://www.w3.org/2000/svg" viewBox="0 0 100 115.97"><defs><style>.cls-1{opacity:0.61;}.cls-12,.cls-15,.cls-2{fill:#81a0b4;}.cls-3{fill:#fff;}.cls-4{opacity:0.62;}.cls-14,.cls-5,.cls-6{fill:none;stroke:#81a0b4;stroke-miterlimit:10;}.cls-6{stroke-width:0.5px;}.cls-7{fill:#c9292c;}.cls-8{font-size:4.87px;}.cls-13,.cls-16,.cls-8{fill:#f1f2f2;}.cls-12,.cls-15,.cls-8{font-family:Helvetica-Bold, Helvetica;font-weight:700;}.cls-9{letter-spacing:-0.05em;}.cls-10{letter-spacing:0em;}.cls-11{letter-spacing:-0.02em;}.cls-12,.cls-16{font-size:6.41px;}.cls-13{letter-spacing:0em;}.cls-14{stroke-width:0.2px;}.cls-15{font-size:3px;}.cls-17{opacity:0.44;}</style></defs><title>LandingPages_</title><g id="Layer_1" data-name="Layer 1"><g class="cls-1"><polygon class="cls-2" points="99.44 60.62 84.26 37.97 71.35 53.25 62.38 50.39 48.6 60.62 -6.92 60.62 -6.92 93.03 104.08 93.03 104.08 60.62 99.44 60.62"/></g><polygon class="cls-2" points="99.84 25.44 0 25.44 0.16 0 100 0 99.84 25.44"/><path class="cls-3" d="M95.09,4.3l0,0,1.19-.8a.17.17,0,0,1,.25,0,.2.2,0,0,1,0,.11c0,.31,0,2.25,0,2.77a.16.16,0,0,1-.18.17.21.21,0,0,1-.1,0l-1.17-.81,0,0s0,0,0,0v.66a.63.63,0,0,1-.65.64L90.24,7a.62.62,0,0,1-.62-.5.57.57,0,0,1,0-.13c0-.94,0-1.88,0-2.81a.63.63,0,0,1,.58-.62h.14l4.09,0a.63.63,0,0,1,.54.26.7.7,0,0,1,.12.4c0,.21,0,.41,0,.62ZM91.64,5c0,.19,0,.38,0,.57a.24.24,0,0,0,.36.21l1-.56a.23.23,0,0,0,0-.4l-1-.57a.23.23,0,0,0-.36.2Z"/><path class="cls-2" d="M91.64,5V4.42a.23.23,0,0,1,.36-.2l1,.57a.23.23,0,0,1,0,.4l-1,.56a.24.24,0,0,1-.36-.21C91.63,5.35,91.64,5.16,91.64,5Z"/><g class="cls-4"><path class="cls-2" d="M-6.92,33V93h111V33ZM74.2,43.31a1,1,0,0,1-.55.88l-1.4.74a1.13,1.13,0,0,1-1.1,0l-1.4-.74a1,1,0,0,1-.55-.88V41.82a1,1,0,0,1,.55-.88l1.4-.74a1.13,1.13,0,0,1,1.1,0l1.4.74a1,1,0,0,1,.55.88Z"/></g><path class="cls-2" d="M86,96v16H64V96H86m1-1H63v18H87V95Z"/><line class="cls-5" x1="64" y1="96.03" x2="86" y2="112.03"/><line class="cls-5" x1="86" y1="96.03" x2="64" y2="112.03"/><line class="cls-5" y1="95.03" y2="118.05"/><rect class="cls-3" x="6" y="43.03" width="88" height="46"/><g class="cls-4"><polygon class="cls-2" points="90.16 69.35 80.34 54.44 72.28 64.14 66.69 62.32 57.39 69.35 90.16 69.35"/></g><g class="cls-4"><path class="cls-2" d="M57.39,47V69.37l33.38-.1V47Zm15.27,9a1,1,0,0,1-.51.88l-1.3.75a1,1,0,0,1-1,0l-1.3-.75a1,1,0,0,1-.51-.88v-1.5a1,1,0,0,1,.51-.88l1.3-.75a1,1,0,0,1,1,0l1.3.75a1,1,0,0,1,.51.88Z"/></g><path class="cls-2" d="M93.06,57.24l-.82.82a.06.06,0,0,1,0,0s0,0,0,0L92,57.88s0,0,0-.05a.08.08,0,0,1,0,0l.59-.59L92,56.6a.08.08,0,0,1,0-.05s0,0,0,0l.19-.18,0,0,0,0,.82.82s0,0,0,0A.08.08,0,0,1,93.06,57.24Z"/><path class="cls-2" d="M56.2,56.6l-.58.59.58.59a.05.05,0,0,1,0,0s0,0,0,.05l-.18.18s0,0-.05,0a.06.06,0,0,1,0,0l-.82-.82a.08.08,0,0,1,0-.05s0,0,0,0l.82-.82,0,0,.05,0,.18.18s0,0,0,0A.05.05,0,0,1,56.2,56.6Z"/><g class="cls-4"><path class="cls-2" d="M9.08,72.39V86h20V72.39ZM18.4,77.9a.63.63,0,0,1-.31.54l-.79.45a.6.6,0,0,1-.63,0l-.79-.45a.63.63,0,0,1-.31-.54V77a.62.62,0,0,1,.31-.54l.79-.46a.64.64,0,0,1,.63,0l.79.46a.62.62,0,0,1,.31.54Z"/></g><g class="cls-4"><polygon class="cls-2" points="29.08 86.02 23.09 76.92 18.17 82.84 14.76 81.73 9.08 86.02 29.08 86.02"/></g><line class="cls-6" x1="9.08" y1="57.01" x2="29.08" y2="57.01"/><line class="cls-6" x1="9.08" y1="53.02" x2="29.08" y2="53.02"/><line class="cls-6" x1="9.08" y1="64.98" x2="29.08" y2="64.98"/><line class="cls-6" x1="9.08" y1="60.99" x2="29.08" y2="60.99"/><line class="cls-6" x1="9.08" y1="68.97" x2="29.08" y2="68.97"/><line class="cls-6" x1="33.08" y1="57.34" x2="53.08" y2="57.34"/><line class="cls-6" x1="33.08" y1="53.18" x2="53.08" y2="53.18"/><line class="cls-6" x1="33.08" y1="65.65" x2="53.08" y2="65.65"/><line class="cls-6" x1="33.08" y1="61.5" x2="53.08" y2="61.5"/><line class="cls-6" x1="33.08" y1="73.96" x2="53.08" y2="73.96"/><line class="cls-6" x1="33.08" y1="69.81" x2="53.08" y2="69.81"/><line class="cls-6" x1="33.08" y1="82.27" x2="53.08" y2="82.27"/><line class="cls-6" x1="33.08" y1="78.12" x2="53.08" y2="78.12"/><line class="cls-6" x1="57.39" y1="77.51" x2="71.39" y2="77.51"/><line class="cls-6" x1="57.39" y1="74.99" x2="71.39" y2="74.99"/><line class="cls-6" x1="75.08" y1="81.03" x2="89.08" y2="81.03"/><line class="cls-6" x1="75.08" y1="85.03" x2="89.08" y2="85.03"/><path class="cls-3" d="M70.47,57.47a.76.76,0,0,1-.39-.1l-1.49-.86a.79.79,0,0,1-.39-.69V54.11a.82.82,0,0,1,.39-.69l1.49-.85a.77.77,0,0,1,.39-.11.8.8,0,0,1,.4.11l1.48.85a.79.79,0,0,1,.4.69v1.71a.78.78,0,0,1-.4.69l-1.48.86A.79.79,0,0,1,70.47,57.47Z"/><path class="cls-7" d="M70.47,52.84a.46.46,0,0,1,.21,0l1.49.86a.41.41,0,0,1,.21.36v1.71a.44.44,0,0,1-.21.37L70.68,57a.37.37,0,0,1-.21.06.42.42,0,0,1-.21-.06l-1.48-.85a.44.44,0,0,1-.21-.37V54.11a.41.41,0,0,1,.21-.36l1.48-.86a.54.54,0,0,1,.21,0m0-.75a1.19,1.19,0,0,0-.58.15l-1.48.86a1.15,1.15,0,0,0-.59,1v1.71a1.17,1.17,0,0,0,.59,1l1.48.85a1.15,1.15,0,0,0,1.17,0l1.48-.85a1.19,1.19,0,0,0,.59-1V54.11a1.17,1.17,0,0,0-.59-1l-1.48-.86a1.2,1.2,0,0,0-.59-.15Z"/><path class="cls-3" d="M17.25,79.1A.6.6,0,0,1,17,79l-1-.59a.54.54,0,0,1-.27-.48V76.77a.56.56,0,0,1,.27-.48l1-.59a.58.58,0,0,1,.28-.07.53.53,0,0,1,.28.07l1,.59a.57.57,0,0,1,.28.48V78a.55.55,0,0,1-.28.48l-1,.59A.54.54,0,0,1,17.25,79.1Z"/><path class="cls-7" d="M17.25,75.88a.29.29,0,0,1,.16,0l1,.59a.31.31,0,0,1,.15.26V78a.33.33,0,0,1-.15.27l-1,.59a.32.32,0,0,1-.31,0l-1-.59a.31.31,0,0,1-.15-.27V76.77a.29.29,0,0,1,.15-.26l1-.59a.28.28,0,0,1,.15,0m0-.5a.8.8,0,0,0-.4.11l-1,.59a.79.79,0,0,0-.4.69V78a.8.8,0,0,0,.4.7l1,.59a.8.8,0,0,0,.4.11.87.87,0,0,0,.41-.11l1-.59a.8.8,0,0,0,.4-.7V76.77a.79.79,0,0,0-.4-.69l-1-.59a.87.87,0,0,0-.41-.11Z"/></g><g id="logo_dark_grey" data-name="logo dark grey"><rect class="cls-7" x="77" y="28.03" width="14.08" height="3" rx="1.41"/><rect class="cls-3" x="7.37" y="16.03" width="24.24" height="2"/><rect class="cls-2" x="7" y="28.53" width="40.08" height="2"/><text class="cls-8" transform="translate(6.61 13.03)">NEW <tspan class="cls-9" x="12.72" y="0">F</tspan><tspan class="cls-10" x="15.43" y="0">AL</tspan><tspan class="cls-11" x="21.92" y="0">L</tspan><tspan x="24.81" y="0" xml:space="preserve"> MENU</tspan></text><text class="cls-12" transform="translate(35.23 40.35)">BRUNCH<tspan class="cls-13" x="27.76" y="0"> </tspan></text><line class="cls-6" x1="14" y1="104.02" x2="36" y2="104.02"/><line class="cls-6" x1="13" y1="102.54" x2="37" y2="102.54"/><line class="cls-14" x1="15" y1="95.54" x2="35" y2="95.54"/><line class="cls-14" x1="15" y1="107.54" x2="35" y2="107.54"/><line class="cls-6" x1="16" y1="105.51" x2="34" y2="105.51"/><text class="cls-15" transform="translate(17.19 100.54)">HEADING<tspan class="cls-16" x="13.83" y="0"> </tspan></text><rect class="cls-7" x="17.96" y="109.54" width="14.08" height="3" rx="1.41"/><rect class="cls-2" x="8.87" y="47.03" width="16.21" height="2"/><rect class="cls-2" x="33.08" y="47.03" width="16.21" height="2"/><rect class="cls-2" x="57.39" y="70.47" width="16.21" height="2"/><g class="cls-17"><rect class="cls-2" x="57.08" y="80.03" width="16.21" height="2"/></g><rect class="cls-2" x="57.08" y="84.03" width="12" height="2"/></g></svg>