<?xml version="1.0" encoding="utf-8"?><svg xmlns="http://www.w3.org/2000/svg" viewBox="0 0 237 275"><defs><style>.cls-1{fill:#81a0b4;}.cls-2,.cls-8{fill:#fff;}.cls-3{fill:#c9292c;}.cls-4{fill:#f1f2f2;}.cls-5{opacity:0.62;}.cls-6{opacity:0.65;}.cls-7{opacity:0.24;}.cls-8{font-size:4.32px;font-family:Muli-Bold, Muli;font-weight:700;}.cls-9{letter-spacing:-0.01em;}.cls-10{letter-spacing:0em;}.cls-11{letter-spacing:0em;}.cls-12{opacity:0.32;}</style></defs><title>c9 blocks</title><g id="Layer_1" data-name="Layer 1"><rect class="cls-1" x="16" y="198.07" width="24.64" height="3.29"/><rect class="cls-1" x="24.21" y="209.21" width="46" height="1.64"/><path class="cls-1" d="M217.56,209.65l-1.82,1.82a.14.14,0,0,1-.11,0,.15.15,0,0,1-.11,0l-.4-.41a.15.15,0,0,1,0-.22l1.3-1.3-1.3-1.3a.14.14,0,0,1-.05-.11.16.16,0,0,1,.05-.11l.4-.4a.16.16,0,0,1,.11-.05.14.14,0,0,1,.11.05l1.82,1.81a.16.16,0,0,1,.05.11A.14.14,0,0,1,217.56,209.65Z"/><rect class="cls-1" x="16" y="204.16" width="204" height="0.25"/><rect class="cls-1" x="16" y="215.66" width="204" height="0.25"/><rect class="cls-1" x="24.21" y="220.67" width="46" height="1.64" transform="translate(-0.59 0.13) rotate(-0.15)"/><path class="cls-1" d="M217.56,221.15,215.74,223a.14.14,0,0,1-.11,0,.15.15,0,0,1-.11,0l-.4-.41a.15.15,0,0,1,0-.22l1.3-1.3-1.3-1.3a.14.14,0,0,1-.05-.11.16.16,0,0,1,.05-.11l.4-.4a.16.16,0,0,1,.11-.05.14.14,0,0,1,.11.05l1.82,1.81a.16.16,0,0,1,.05.11A.14.14,0,0,1,217.56,221.15Z"/><rect class="cls-1" x="16" y="215.66" width="204" height="0.25"/><rect class="cls-1" x="16" y="227.16" width="204" height="0.25"/><rect class="cls-1" x="16" y="227.16" width="204" height="0.25"/><rect class="cls-1" x="24.21" y="232.21" width="46" height="1.64"/><path class="cls-1" d="M218.26,232l-1.81,1.81a.15.15,0,0,1-.22,0l-.41-.4a.17.17,0,0,1,0-.22l1.3-1.3-1.3-1.3a.17.17,0,0,1,0-.22l.41-.41a.17.17,0,0,1,.22,0l1.81,1.82a.15.15,0,0,1,0,.22Z"/><rect class="cls-1" x="16" y="227.16" width="204" height="0.25"/><rect class="cls-1" x="24.21" y="236.89" width="187.57" height="0.5"/><path class="cls-1" d="M18,208.45V208a3.18,3.18,0,0,0,.45,0,.66.66,0,0,0,.34-.18.73.73,0,0,0,.13-.25.58.58,0,0,0,0-.14h.57v3.49h-.7v-2.41Z"/><path class="cls-1" d="M20.69,210.14h.73v.72h-.73Z"/><path class="cls-1" d="M18,221.67a2,2,0,0,1,.69-.74,6.06,6.06,0,0,0,.62-.48.74.74,0,0,0,.21-.5.57.57,0,0,0-.12-.37.43.43,0,0,0-.35-.15.44.44,0,0,0-.43.23,1.31,1.31,0,0,0-.08.43h-.66a1.67,1.67,0,0,1,.16-.72,1,1,0,0,1,1-.52,1.2,1.2,0,0,1,.88.31,1,1,0,0,1,.33.81,1.06,1.06,0,0,1-.23.69,2.31,2.31,0,0,1-.5.44l-.27.2c-.18.12-.29.21-.36.26a1.46,1.46,0,0,0-.16.19h1.53v.61H17.8A1.59,1.59,0,0,1,18,221.67Z"/><path class="cls-1" d="M20.69,221.64h.73v.72h-.73Z"/><path class="cls-1" d="M18.45,232.79a.83.83,0,0,0,.06.34.48.48,0,0,0,.46.26.5.5,0,0,0,.5-.54.45.45,0,0,0-.28-.46,1.44,1.44,0,0,0-.5-.07v-.49a1.26,1.26,0,0,0,.47-.06.41.41,0,0,0,.23-.41.48.48,0,0,0-.12-.33.45.45,0,0,0-.33-.12.43.43,0,0,0-.36.15.67.67,0,0,0-.1.42h-.64a1.64,1.64,0,0,1,.08-.5,1.33,1.33,0,0,1,.27-.38.92.92,0,0,1,.32-.18,1.18,1.18,0,0,1,.45-.07,1.21,1.21,0,0,1,.81.26.87.87,0,0,1,.31.69.73.73,0,0,1-.19.52.51.51,0,0,1-.24.18c.07,0,.16.06.27.17a.83.83,0,0,1,.26.66,1.16,1.16,0,0,1-.3.78,1.19,1.19,0,0,1-.91.33,1.1,1.1,0,0,1-1-.48,1.57,1.57,0,0,1-.17-.67Z"/><path class="cls-1" d="M20.69,233.14h.73v.72h-.73Z"/><rect class="cls-1" x="-0.33" width="238.62" height="50.88"/><path class="cls-2" d="M169,12.36v4.9a3.34,3.34,0,0,0,1.67,2.89l4.25,2.45a3.32,3.32,0,0,0,3.34,0l4.24-2.45a3.33,3.33,0,0,0,1.68-2.89v-4.9a3.34,3.34,0,0,0-1.68-2.9L178.25,7a3.32,3.32,0,0,0-3.34,0l-4.25,2.45A3.36,3.36,0,0,0,169,12.36Z"/><path class="cls-3" d="M176.58,23.55a3.83,3.83,0,0,1-1.92-.51l-4.25-2.45a3.87,3.87,0,0,1-1.92-3.33v-4.9A3.86,3.86,0,0,1,170.41,9l4.25-2.45a3.82,3.82,0,0,1,3.84,0L182.74,9a3.85,3.85,0,0,1,1.93,3.33v4.9a3.86,3.86,0,0,1-1.93,3.33L178.5,23A3.86,3.86,0,0,1,176.58,23.55Zm0-16.49a2.76,2.76,0,0,0-1.42.39l-4.25,2.44a2.88,2.88,0,0,0-1.42,2.47v4.9a2.87,2.87,0,0,0,1.42,2.46l4.25,2.45a2.83,2.83,0,0,0,2.84,0l4.24-2.45a2.86,2.86,0,0,0,1.43-2.46v-4.9a2.87,2.87,0,0,0-1.43-2.47L178,7.45A2.79,2.79,0,0,0,176.58,7.06Z"/><polygon class="cls-2" points="236.87 51.88 205.5 4.21 179.74 35.22 161.87 29.41 132.14 51.88 236.87 51.88"/></g><g id="logo_dark_grey" data-name="logo dark grey"><rect class="cls-2" x="16.79" y="28.57" width="57.71" height="4.76"/><path class="cls-4" d="M21.46,17.82a3.21,3.21,0,0,1-2.09.61H17.63v3H15.9V13.08h3.58a2.9,2.9,0,0,1,2,.65,2.52,2.52,0,0,1,.74,2A2.6,2.6,0,0,1,21.46,17.82Zm-1.33-3a1.38,1.38,0,0,0-.93-.28H17.63V17H19.2a1.33,1.33,0,0,0,.93-.3,1.23,1.23,0,0,0,.33-1A1.14,1.14,0,0,0,20.13,14.81Z"/><path class="cls-4" d="M25.13,13.08h2l2.95,8.35H28.16l-.55-1.72H24.54L24,21.43H22.15ZM25,18.28h2.14L26.09,15Z"/><path class="cls-4" d="M36.73,15.69a1.65,1.65,0,0,0-1-1.2,2.49,2.49,0,0,0-1-.18,2.06,2.06,0,0,0-1.65.76,3.37,3.37,0,0,0-.65,2.28,2.84,2.84,0,0,0,.7,2.18,2.34,2.34,0,0,0,1.6.64,2.08,2.08,0,0,0,1.44-.51,2.18,2.18,0,0,0,.69-1.32H35V17h3.47v4.48H37.32l-.18-1a4.07,4.07,0,0,1-.9.83,3.22,3.22,0,0,1-1.7.43,3.54,3.54,0,0,1-2.72-1.15,4.38,4.38,0,0,1-1.11-3.16,4.65,4.65,0,0,1,1.12-3.25,3.78,3.78,0,0,1,3-1.22,3.92,3.92,0,0,1,2.56.8,3,3,0,0,1,1.11,2Z"/><path class="cls-4" d="M46.31,14.56H41.89v1.77H46v1.45H41.89v2.15h4.63v1.5H40.19V13.08h6.12Z"/><path class="cls-4" d="M57.16,13.08v1.48H54.67v6.87H52.91V14.56H50.4V13.08Z"/><path class="cls-4" d="M59.78,21.43H58V13.08h1.74Z"/><path class="cls-4" d="M67.47,13.08v1.48H65v6.87H63.22V14.56H60.71V13.08Z"/><path class="cls-4" d="M68.49,13.08h1.75v6.85h4.17v1.5H68.49Z"/><path class="cls-4" d="M81.75,14.56H77.33v1.77h4.06v1.45H77.33v2.15H82v1.5H75.63V13.08h6.12Z"/><rect class="cls-1" x="15.74" y="122.69" width="93" height="0.5"/><rect class="cls-1" x="15.74" y="126.7" width="93" height="0.5"/><rect class="cls-3" x="15.74" y="130.25" width="16.26" height="0.5"/><g class="cls-5"><path class="cls-1" d="M15.74,77.69v32.47h93.5V77.69Z"/></g><g class="cls-5"><polygon class="cls-1" points="87.24 110.13 73.16 88.46 61.6 102.56 53.58 99.92 40.24 110.13 87.24 110.13"/></g><path class="cls-2" d="M47.65,88.11V91a1.9,1.9,0,0,0,1,1.64L51,94a1.93,1.93,0,0,0,1.92,0l2.39-1.4A1.91,1.91,0,0,0,56.24,91V88.11a1.93,1.93,0,0,0-.94-1.65l-2.39-1.39a1.89,1.89,0,0,0-1.92,0L48.6,86.46A1.91,1.91,0,0,0,47.65,88.11Z"/><path class="cls-3" d="M52,85.31a1.38,1.38,0,0,1,.71.19L55,86.9a1.4,1.4,0,0,1,.7,1.21V91a1.42,1.42,0,0,1-.7,1.21l-2.38,1.39a1.39,1.39,0,0,1-.71.2,1.36,1.36,0,0,1-.71-.2l-2.39-1.39a1.42,1.42,0,0,1-.7-1.21V88.11a1.4,1.4,0,0,1,.7-1.21l2.39-1.4a1.35,1.35,0,0,1,.71-.19m0-.5a1.8,1.8,0,0,0-1,.26L48.6,86.46a1.91,1.91,0,0,0-1,1.65V91a1.9,1.9,0,0,0,1,1.64L51,94a1.89,1.89,0,0,0,1,.26,2,2,0,0,0,1-.26l2.39-1.4A1.91,1.91,0,0,0,56.24,91V88.11a1.93,1.93,0,0,0-.94-1.65l-2.39-1.39a1.85,1.85,0,0,0-1-.26Z"/><rect class="cls-1" x="15.74" y="114.17" width="38.08" height="4.76"/><rect class="cls-1" x="126.74" y="122.69" width="93" height="0.5"/><rect class="cls-1" x="126.74" y="126.7" width="93" height="0.5"/><rect class="cls-3" x="126.74" y="130.25" width="16.26" height="0.5"/><g class="cls-5"><path class="cls-1" d="M126.74,77.69v32.47h93.5V77.69Z"/></g><g class="cls-5"><polygon class="cls-1" points="198.24 110.13 184.16 88.46 172.6 102.56 164.58 99.92 151.24 110.13 198.24 110.13"/></g><path class="cls-2" d="M158.65,88.11V91a1.9,1.9,0,0,0,.95,1.64L162,94a1.93,1.93,0,0,0,1.92,0l2.39-1.4a1.91,1.91,0,0,0,.94-1.64V88.11a1.93,1.93,0,0,0-.94-1.65l-2.39-1.39a1.89,1.89,0,0,0-1.92,0l-2.39,1.39A1.91,1.91,0,0,0,158.65,88.11Z"/><path class="cls-3" d="M163,85.31a1.38,1.38,0,0,1,.71.19L166,86.9a1.4,1.4,0,0,1,.7,1.21V91a1.42,1.42,0,0,1-.7,1.21l-2.38,1.39a1.39,1.39,0,0,1-.71.2,1.36,1.36,0,0,1-.71-.2l-2.39-1.39a1.42,1.42,0,0,1-.7-1.21V88.11a1.4,1.4,0,0,1,.7-1.21l2.39-1.4a1.35,1.35,0,0,1,.71-.19m0-.5a1.8,1.8,0,0,0-1,.26l-2.39,1.39a1.91,1.91,0,0,0-.95,1.65V91a1.9,1.9,0,0,0,.95,1.64L162,94a1.89,1.89,0,0,0,1,.26,2,2,0,0,0,1-.26l2.39-1.4a1.91,1.91,0,0,0,.94-1.64V88.11a1.93,1.93,0,0,0-.94-1.65l-2.39-1.39a1.85,1.85,0,0,0-1-.26Z"/><rect class="cls-1" x="126.74" y="114.17" width="38.08" height="4.76"/><rect class="cls-1" x="15.74" y="182.69" width="93" height="0.5"/><rect class="cls-1" x="15.74" y="186.7" width="93" height="0.5"/><rect class="cls-3" x="15.74" y="190.25" width="16.26" height="0.5"/><g class="cls-5"><path class="cls-1" d="M15.74,137.69v32.47h93.5V137.69Z"/></g><g class="cls-5"><polygon class="cls-1" points="87.24 170.13 73.16 148.46 61.6 162.56 53.58 159.92 40.24 170.13 87.24 170.13"/></g><path class="cls-2" d="M47.65,148.11V151a1.9,1.9,0,0,0,1,1.64L51,154a1.93,1.93,0,0,0,1.92,0l2.39-1.4a1.91,1.91,0,0,0,.94-1.64v-2.84a1.93,1.93,0,0,0-.94-1.65l-2.39-1.39a1.89,1.89,0,0,0-1.92,0l-2.39,1.39A1.91,1.91,0,0,0,47.65,148.11Z"/><path class="cls-3" d="M52,145.31a1.38,1.38,0,0,1,.71.19L55,146.9a1.4,1.4,0,0,1,.7,1.21V151a1.42,1.42,0,0,1-.7,1.21l-2.38,1.39a1.39,1.39,0,0,1-.71.2,1.36,1.36,0,0,1-.71-.2l-2.39-1.39a1.42,1.42,0,0,1-.7-1.21v-2.84a1.4,1.4,0,0,1,.7-1.21l2.39-1.4a1.35,1.35,0,0,1,.71-.19m0-.5a1.8,1.8,0,0,0-1,.26l-2.39,1.39a1.91,1.91,0,0,0-1,1.65V151a1.9,1.9,0,0,0,1,1.64L51,154a1.89,1.89,0,0,0,1,.26,2,2,0,0,0,1-.26l2.39-1.4a1.91,1.91,0,0,0,.94-1.64v-2.84a1.93,1.93,0,0,0-.94-1.65l-2.39-1.39a1.85,1.85,0,0,0-1-.26Z"/><rect class="cls-1" x="15.74" y="174.17" width="38.08" height="4.76"/><rect class="cls-1" x="126.74" y="182.69" width="93" height="0.5"/><rect class="cls-1" x="126.74" y="186.7" width="93" height="0.5"/><rect class="cls-3" x="126.74" y="190.25" width="16.26" height="0.5"/><g class="cls-5"><path class="cls-1" d="M126.74,137.69v32.47h93.5V137.69Z"/></g><g class="cls-5"><polygon class="cls-1" points="198.24 170.13 184.16 148.46 172.6 162.56 164.58 159.92 151.24 170.13 198.24 170.13"/></g><path class="cls-2" d="M158.65,148.11V151a1.9,1.9,0,0,0,.95,1.64L162,154a1.93,1.93,0,0,0,1.92,0l2.39-1.4a1.91,1.91,0,0,0,.94-1.64v-2.84a1.93,1.93,0,0,0-.94-1.65l-2.39-1.39a1.89,1.89,0,0,0-1.92,0l-2.39,1.39A1.91,1.91,0,0,0,158.65,148.11Z"/><path class="cls-3" d="M163,145.31a1.38,1.38,0,0,1,.71.19l2.38,1.4a1.4,1.4,0,0,1,.7,1.21V151a1.42,1.42,0,0,1-.7,1.21l-2.38,1.39a1.39,1.39,0,0,1-.71.2,1.36,1.36,0,0,1-.71-.2l-2.39-1.39a1.42,1.42,0,0,1-.7-1.21v-2.84a1.4,1.4,0,0,1,.7-1.21l2.39-1.4a1.35,1.35,0,0,1,.71-.19m0-.5a1.8,1.8,0,0,0-1,.26l-2.39,1.39a1.91,1.91,0,0,0-.95,1.65V151a1.9,1.9,0,0,0,.95,1.64L162,154a1.89,1.89,0,0,0,1,.26,2,2,0,0,0,1-.26l2.39-1.4a1.91,1.91,0,0,0,.94-1.64v-2.84a1.93,1.93,0,0,0-.94-1.65l-2.39-1.39a1.85,1.85,0,0,0-1-.26Z"/><rect class="cls-1" x="126.74" y="174.17" width="38.08" height="4.76"/></g><g id="Layer_23" data-name="Layer 23"><g class="cls-6"><rect class="cls-1" y="50.47" width="237.41" height="24"/></g><rect class="cls-3" x="187.93" y="58.68" width="33.48" height="7.13" rx="3.35"/><g class="cls-7"><polygon class="cls-1" points="242.61 275 -4.22 275 -3.83 196.15 243 196.15 242.61 275"/></g><polygon class="cls-1" points="237.08 275.33 -5.55 275.33 -5.17 260.41 237.08 260.41 237.08 275.33"/><rect class="cls-2" x="17.45" y="265.14" width="50" height="5.46"/><rect class="cls-2" x="147.1" y="264.87" width="50" height="6"/><g class="cls-7"><rect class="cls-2" x="197.43" y="264.87" width="23" height="6"/></g><text class="cls-8" transform="translate(199.88 269.13)">S<tspan class="cls-9" x="2.78" y="0">E</tspan><tspan class="cls-10" x="5.3" y="0">A</tspan><tspan class="cls-11" x="8.54" y="0">R</tspan><tspan x="11.56" y="0">CH</tspan></text><rect class="cls-2" x="55" y="59.77" width="127" height="6"/><rect class="cls-2" x="17" y="59.77" width="33" height="6"/><g class="cls-12"><polygon class="cls-1" points="237.37 260.96 -5.26 260.96 -4.88 246.04 237.37 246.04 237.37 260.96"/></g><rect class="cls-2" x="17.74" y="250.07" width="50" height="5.46"/><rect class="cls-3" x="188.22" y="249.93" width="33.48" height="7.13" rx="3.35"/></g></svg>