<?xml version="1.0" encoding="utf-8"?><svg xmlns="http://www.w3.org/2000/svg" viewBox="0 0 237 275"><defs><style>.cls-1{fill:#81a0b4;}.cls-2{fill:#3b5999;}.cls-11,.cls-12,.cls-3{fill:#fff;}.cls-4{fill:#2baae1;}.cls-5{fill:#f15922;}.cls-6{fill:#231f20;}.cls-7{fill:#c9292c;}.cls-8{opacity:0.62;}.cls-9{opacity:0.32;}.cls-10{opacity:0.91;}.cls-11{opacity:0.55;}.cls-12{opacity:0.47;}</style></defs><title>c9 blocks</title><g id="Layer_1" data-name="Layer 1"><rect class="cls-1" x="16" y="206.07" width="24.64" height="3.29"/><rect class="cls-1" x="24.21" y="217.21" width="46" height="1.64"/><path class="cls-1" d="M217.56,217.65l-1.82,1.82a.14.14,0,0,1-.11,0,.15.15,0,0,1-.11,0l-.4-.41a.15.15,0,0,1,0-.22l1.3-1.3-1.3-1.3a.14.14,0,0,1-.05-.11.16.16,0,0,1,.05-.11l.4-.4a.16.16,0,0,1,.11-.05.14.14,0,0,1,.11.05l1.82,1.81a.16.16,0,0,1,.05.11A.14.14,0,0,1,217.56,217.65Z"/><rect class="cls-1" x="16" y="212.16" width="204" height="0.25"/><rect class="cls-1" x="16" y="223.66" width="204" height="0.25"/><rect class="cls-1" x="24.21" y="228.67" width="46" height="1.64" transform="translate(-0.61 0.13) rotate(-0.15)"/><path class="cls-1" d="M217.56,229.15,215.74,231a.14.14,0,0,1-.11,0,.15.15,0,0,1-.11,0l-.4-.41a.15.15,0,0,1,0-.22l1.3-1.3-1.3-1.3a.14.14,0,0,1-.05-.11.16.16,0,0,1,.05-.11l.4-.4a.16.16,0,0,1,.11-.05.14.14,0,0,1,.11.05l1.82,1.81a.16.16,0,0,1,.05.11A.14.14,0,0,1,217.56,229.15Z"/><rect class="cls-1" x="16" y="223.66" width="204" height="0.25"/><rect class="cls-1" x="16" y="235.16" width="204" height="0.25"/><rect class="cls-1" x="16" y="235.16" width="204" height="0.25"/><rect class="cls-1" x="24.21" y="240.21" width="46" height="1.64"/><path class="cls-1" d="M218.26,240l-1.81,1.81a.15.15,0,0,1-.22,0l-.41-.4a.17.17,0,0,1,0-.22l1.3-1.3-1.3-1.3a.17.17,0,0,1,0-.22l.41-.41a.17.17,0,0,1,.22,0l1.81,1.82a.15.15,0,0,1,0,.22Z"/><rect class="cls-1" x="16" y="235.16" width="204" height="0.25"/><rect class="cls-1" x="24.21" y="244.89" width="187.57" height="0.5"/><path class="cls-1" d="M18,216.45V216a3.18,3.18,0,0,0,.45,0,.66.66,0,0,0,.34-.18.73.73,0,0,0,.13-.25.58.58,0,0,0,0-.14h.57v3.49h-.7v-2.41Z"/><path class="cls-1" d="M20.69,218.14h.73v.72h-.73Z"/><path class="cls-1" d="M18,229.67a2,2,0,0,1,.69-.74,6.06,6.06,0,0,0,.62-.48.74.74,0,0,0,.21-.5.57.57,0,0,0-.12-.37.43.43,0,0,0-.35-.15.44.44,0,0,0-.43.23,1.31,1.31,0,0,0-.08.43h-.66a1.67,1.67,0,0,1,.16-.72,1,1,0,0,1,1-.52,1.2,1.2,0,0,1,.88.31,1,1,0,0,1,.33.81,1.06,1.06,0,0,1-.23.69,2.31,2.31,0,0,1-.5.44l-.27.2c-.18.12-.29.21-.36.26a1.46,1.46,0,0,0-.16.19h1.53v.61H17.8A1.59,1.59,0,0,1,18,229.67Z"/><path class="cls-1" d="M20.69,229.64h.73v.72h-.73Z"/><path class="cls-1" d="M18.45,240.79a.83.83,0,0,0,.06.34.48.48,0,0,0,.46.26.5.5,0,0,0,.5-.54.45.45,0,0,0-.28-.46,1.44,1.44,0,0,0-.5-.07v-.49a1.26,1.26,0,0,0,.47-.06.41.41,0,0,0,.23-.41.48.48,0,0,0-.12-.33.45.45,0,0,0-.33-.12.43.43,0,0,0-.36.15.67.67,0,0,0-.1.42h-.64a1.64,1.64,0,0,1,.08-.5,1.33,1.33,0,0,1,.27-.38.92.92,0,0,1,.32-.18,1.18,1.18,0,0,1,.45-.07,1.21,1.21,0,0,1,.81.26.87.87,0,0,1,.31.69.73.73,0,0,1-.19.52.51.51,0,0,1-.24.18c.07,0,.16.06.27.17a.83.83,0,0,1,.26.66,1.16,1.16,0,0,1-.3.78,1.19,1.19,0,0,1-.91.33,1.1,1.1,0,0,1-1-.48,1.57,1.57,0,0,1-.17-.67Z"/><path class="cls-1" d="M20.69,241.14h.73v.72h-.73Z"/><path class="cls-2" d="M124.87,66.12a5,5,0,1,1,5,5A5,5,0,0,1,124.87,66.12ZM130.49,68h0L133,65.52l-2.5-2.5v1.24h0l-.5,0a3.84,3.84,0,0,0-.67.16,3.79,3.79,0,0,0-2.19,2,3.75,3.75,0,0,0-.35,1.52s0,0,0,0l0,0a2.62,2.62,0,0,1,.4-.48,2.86,2.86,0,0,1,1.16-.66,3.58,3.58,0,0,1,1-.17,5,5,0,0,1,.94.06l.19,0Z"/><path class="cls-3" d="M130.49,68V66.75l-.19,0a5,5,0,0,0-.94-.06,3.58,3.58,0,0,0-1,.17,2.86,2.86,0,0,0-1.16.66,2.62,2.62,0,0,0-.4.48l0,0s0,0,0,0a3.75,3.75,0,0,1,.35-1.52,3.79,3.79,0,0,1,2.19-2,3.84,3.84,0,0,1,.67-.16l.5,0h0V63l2.5,2.5L130.5,68Z"/><path class="cls-4" d="M136.2,66.12a5,5,0,1,1,5,5A5,5,0,0,1,136.2,66.12ZM141.82,68h0l2.49-2.48-2.5-2.5v1.24h0l-.49,0a4,4,0,0,0-.68.16,3.79,3.79,0,0,0-2.19,2,4.19,4.19,0,0,0-.3,1,2.55,2.55,0,0,0,0,.55v0l0,0a3.09,3.09,0,0,1,.4-.48,3,3,0,0,1,1.16-.66,3.64,3.64,0,0,1,1-.17,4.9,4.9,0,0,1,.94.06l.19,0Z"/><path class="cls-3" d="M141.82,68V66.75l-.19,0a4.9,4.9,0,0,0-.94-.06,3.64,3.64,0,0,0-1,.17,3,3,0,0,0-1.16.66,3.09,3.09,0,0,0-.4.48l0,0v0a2.55,2.55,0,0,1,0-.55,4.19,4.19,0,0,1,.3-1,3.79,3.79,0,0,1,2.19-2,4,4,0,0,1,.68-.16l.49,0h0V63l2.5,2.5L141.83,68Z"/><path class="cls-5" d="M147.53,66.12a5,5,0,1,1,5,5A5,5,0,0,1,147.53,66.12ZM153.16,68h0l2.49-2.48L153.16,63v1.24h0l-.49,0a4,4,0,0,0-.68.16,3.73,3.73,0,0,0-1.57,1.05,3.81,3.81,0,0,0-.62.92,3.73,3.73,0,0,0-.29,1,3.41,3.41,0,0,0-.05.55v0l0,0a2.67,2.67,0,0,1,.41-.48,2.88,2.88,0,0,1,1.15-.66,3.71,3.71,0,0,1,1-.17,4.85,4.85,0,0,1,.93.06l.2,0Z"/><path class="cls-3" d="M153.16,68V66.75l-.2,0a4.85,4.85,0,0,0-.93-.06,3.71,3.71,0,0,0-1,.17,2.88,2.88,0,0,0-1.15.66,2.67,2.67,0,0,0-.41.48l0,0v0a3.41,3.41,0,0,1,.05-.55,3.73,3.73,0,0,1,.29-1,3.81,3.81,0,0,1,.62-.92,3.73,3.73,0,0,1,1.57-1.05,4,4,0,0,1,.68-.16l.49,0h0V63l2.49,2.5L153.16,68Z"/><path class="cls-6" d="M158.87,66.12a5,5,0,1,1,5,5A5,5,0,0,1,158.87,66.12ZM164.49,68h0L167,65.52l-2.5-2.5v1.24h0l-.5,0a3.84,3.84,0,0,0-.67.16,3.79,3.79,0,0,0-2.19,2,3.75,3.75,0,0,0-.35,1.52s0,0,0,0l0,0a2.62,2.62,0,0,1,.4-.48,2.86,2.86,0,0,1,1.16-.66,3.58,3.58,0,0,1,1-.17,5,5,0,0,1,.94.06l.19,0Z"/><path class="cls-3" d="M164.49,68V66.75l-.19,0a5,5,0,0,0-.94-.06,3.58,3.58,0,0,0-1,.17,2.86,2.86,0,0,0-1.16.66,2.62,2.62,0,0,0-.4.48l0,0s0,0,0,0a3.75,3.75,0,0,1,.35-1.52,3.79,3.79,0,0,1,2.19-2,3.84,3.84,0,0,1,.67-.16l.5,0h0V63l2.5,2.5L164.5,68Z"/></g><g id="logo_dark_grey" data-name="logo dark grey"><rect class="cls-1" x="14.98" y="22.17" width="86" height="7"/><rect class="cls-1" x="14.99" y="35.74" width="78" height="6"/><rect class="cls-1" x="14.99" y="48.3" width="68" height="5"/><rect class="cls-1" x="103.56" y="111.18" width="27.94" height="6.82"/><rect class="cls-1" x="14.98" y="59.87" width="59.01" height="4"/><rect class="cls-1" x="14.99" y="70.43" width="45.01" height="3"/><rect class="cls-1" x="14.99" y="80" width="39.01" height="1.99"/><path class="cls-1" d="M15.85,17.43V9.08h1.73v3.19h3.24V9.08h1.74v8.35H20.82V13.7H17.58v3.73Z"/><path class="cls-1" d="M30.41,10.56H26v1.77H30v1.45H26v2.15h4.62v1.5H24.29V9.08h6.12Z"/><path class="cls-1" d="M34.36,9.08h2l3,8.35h-1.9l-.55-1.72H33.77l-.57,1.72H31.38Zm-.12,5.2h2.14L35.33,11Z"/><path class="cls-1" d="M45.24,9.26a2.78,2.78,0,0,1,1.42,1.06,3.89,3.89,0,0,1,.6,1.35,6.8,6.8,0,0,1,.16,1.38,5.6,5.6,0,0,1-.67,2.82A3,3,0,0,1,44,17.43h-3.6V9.08H44A4.55,4.55,0,0,1,45.24,9.26ZM42,10.53V16h1.61a1.75,1.75,0,0,0,1.73-1.22,4.21,4.21,0,0,0,.26-1.59,3.9,3.9,0,0,0-.4-2,1.68,1.68,0,0,0-1.59-.68Z"/><path class="cls-1" d="M50.32,17.43H48.58V9.08h1.74Z"/><path class="cls-1" d="M51.92,9.08h1.83l3.31,5.82V9.08h1.63v8.35H56.94l-3.4-5.92v5.92H51.92Z"/><path class="cls-1" d="M65.94,11.69a1.65,1.65,0,0,0-1-1.2,2.49,2.49,0,0,0-1-.18,2.06,2.06,0,0,0-1.65.76,3.37,3.37,0,0,0-.65,2.28,2.84,2.84,0,0,0,.7,2.18,2.34,2.34,0,0,0,1.6.64,2.08,2.08,0,0,0,1.44-.51,2.18,2.18,0,0,0,.69-1.32H64.21V13h3.47v4.48H66.53l-.18-1a4.07,4.07,0,0,1-.9.83,3.25,3.25,0,0,1-1.7.43A3.54,3.54,0,0,1,61,16.5a4.38,4.38,0,0,1-1.11-3.16A4.6,4.6,0,0,1,61,10.09a3.78,3.78,0,0,1,3-1.22,3.92,3.92,0,0,1,2.56.8,3,3,0,0,1,1.1,2Z"/><path class="cls-1" d="M73.83,14.85a1.67,1.67,0,0,0,.32.86,1.84,1.84,0,0,0,1.48.51,3.31,3.31,0,0,0,1-.13,1,1,0,0,0,.74-1,.71.71,0,0,0-.36-.64,3.86,3.86,0,0,0-1.16-.39l-.91-.2a5.68,5.68,0,0,1-1.83-.64,2,2,0,0,1-.84-1.81,2.41,2.41,0,0,1,.82-1.86,3.55,3.55,0,0,1,2.43-.74,3.7,3.7,0,0,1,2.28.7,2.47,2.47,0,0,1,1,2H77.14a1.19,1.19,0,0,0-.67-1.07,2.32,2.32,0,0,0-1-.21,2,2,0,0,0-1.11.27.86.86,0,0,0-.41.76.72.72,0,0,0,.41.67,4.77,4.77,0,0,0,1.11.34l1.46.35a3.74,3.74,0,0,1,1.45.6A2.08,2.08,0,0,1,79.08,15a2.39,2.39,0,0,1-.88,1.9,3.75,3.75,0,0,1-2.5.76,4.05,4.05,0,0,1-2.59-.75,2.48,2.48,0,0,1-1-2Z"/><path class="cls-1" d="M81.9,17.43H80.17V9.08H81.9Z"/><path class="cls-1" d="M82.94,16l4.27-5.4H83.05V9.08h6.33v1.4L85.05,16h4.34v1.47H82.94Z"/><path class="cls-1" d="M96.79,10.56H92.37v1.77h4.06v1.45H92.37v2.15H97v1.5H90.67V9.08h6.12Z"/><path class="cls-1" d="M99.61,14.85a1.67,1.67,0,0,0,.32.86,1.85,1.85,0,0,0,1.48.51,3.27,3.27,0,0,0,1-.13,1,1,0,0,0,.74-1,.71.71,0,0,0-.36-.64,3.86,3.86,0,0,0-1.16-.39l-.91-.2a5.88,5.88,0,0,1-1.83-.64,2,2,0,0,1-.84-1.81,2.42,2.42,0,0,1,.83-1.86,3.52,3.52,0,0,1,2.42-.74,3.7,3.7,0,0,1,2.28.7,2.47,2.47,0,0,1,1,2h-1.68a1.19,1.19,0,0,0-.67-1.07,2.32,2.32,0,0,0-1-.21,2,2,0,0,0-1.1.27.85.85,0,0,0-.42.76.72.72,0,0,0,.41.67,5,5,0,0,0,1.11.34l1.47.35a3.75,3.75,0,0,1,1.44.6,2.06,2.06,0,0,1,.75,1.71,2.4,2.4,0,0,1-.89,1.9,3.75,3.75,0,0,1-2.5.76,4.05,4.05,0,0,1-2.59-.75,2.48,2.48,0,0,1-1-2Z"/><rect class="cls-1" x="124.74" y="28.69" width="93" height="0.5"/><rect class="cls-1" x="124.74" y="32.7" width="93" height="0.5"/><rect class="cls-7" x="124.74" y="36.25" width="16.26" height="0.5"/><rect class="cls-1" x="124.74" y="20.17" width="38.08" height="4.76"/><rect class="cls-1" x="16.74" y="192.69" width="93" height="0.5"/><rect class="cls-1" x="16.74" y="196.7" width="93" height="0.5"/><rect class="cls-7" x="16.74" y="200.25" width="16.26" height="0.5"/><g class="cls-8"><path class="cls-1" d="M16.74,147.69v32.47h93.5V147.69Z"/></g><g class="cls-8"><polygon class="cls-1" points="88.24 180.13 74.16 158.46 62.6 172.56 54.58 169.92 41.24 180.13 88.24 180.13"/></g><path class="cls-3" d="M48.65,158.11V161a1.9,1.9,0,0,0,1,1.64L52,164a1.93,1.93,0,0,0,1.92,0l2.39-1.4a1.91,1.91,0,0,0,.94-1.64v-2.84a1.93,1.93,0,0,0-.94-1.65l-2.39-1.39a1.89,1.89,0,0,0-1.92,0l-2.39,1.39A1.91,1.91,0,0,0,48.65,158.11Z"/><path class="cls-7" d="M53,155.31a1.38,1.38,0,0,1,.71.19L56,156.9a1.4,1.4,0,0,1,.7,1.21V161a1.42,1.42,0,0,1-.7,1.21l-2.38,1.39a1.39,1.39,0,0,1-.71.2,1.36,1.36,0,0,1-.71-.2l-2.39-1.39a1.42,1.42,0,0,1-.7-1.21v-2.84a1.4,1.4,0,0,1,.7-1.21l2.39-1.4a1.35,1.35,0,0,1,.71-.19m0-.5a1.8,1.8,0,0,0-1,.26l-2.39,1.39a1.91,1.91,0,0,0-1,1.65V161a1.9,1.9,0,0,0,1,1.64L52,164a1.89,1.89,0,0,0,1,.26,2,2,0,0,0,1-.26l2.39-1.4a1.91,1.91,0,0,0,.94-1.64v-2.84a1.93,1.93,0,0,0-.94-1.65l-2.39-1.39a1.85,1.85,0,0,0-1-.26Z"/><rect class="cls-1" x="16.74" y="184.17" width="38.08" height="4.76"/><rect class="cls-1" x="127.74" y="192.69" width="93" height="0.5"/><rect class="cls-1" x="127.74" y="196.7" width="93" height="0.5"/><rect class="cls-7" x="127.74" y="200.25" width="16.26" height="0.5"/><g class="cls-8"><path class="cls-1" d="M127.74,147.69v32.47h93.5V147.69Z"/></g><g class="cls-8"><polygon class="cls-1" points="199.24 180.13 185.16 158.46 173.6 172.56 165.58 169.92 152.24 180.13 199.24 180.13"/></g><path class="cls-3" d="M159.65,158.11V161a1.9,1.9,0,0,0,.95,1.64L163,164a1.93,1.93,0,0,0,1.92,0l2.39-1.4a1.91,1.91,0,0,0,.94-1.64v-2.84a1.93,1.93,0,0,0-.94-1.65l-2.39-1.39a1.89,1.89,0,0,0-1.92,0l-2.39,1.39A1.91,1.91,0,0,0,159.65,158.11Z"/><path class="cls-7" d="M164,155.31a1.38,1.38,0,0,1,.71.19l2.38,1.4a1.4,1.4,0,0,1,.7,1.21V161a1.42,1.42,0,0,1-.7,1.21l-2.38,1.39a1.39,1.39,0,0,1-.71.2,1.36,1.36,0,0,1-.71-.2l-2.39-1.39a1.42,1.42,0,0,1-.7-1.21v-2.84a1.4,1.4,0,0,1,.7-1.21l2.39-1.4a1.35,1.35,0,0,1,.71-.19m0-.5a1.8,1.8,0,0,0-1,.26l-2.39,1.39a1.91,1.91,0,0,0-.95,1.65V161a1.9,1.9,0,0,0,.95,1.64L163,164a1.89,1.89,0,0,0,1,.26,2,2,0,0,0,1-.26l2.39-1.4a1.91,1.91,0,0,0,.94-1.64v-2.84a1.93,1.93,0,0,0-.94-1.65l-2.39-1.39a1.85,1.85,0,0,0-1-.26Z"/><rect class="cls-1" x="127.74" y="184.17" width="38.08" height="4.76"/><g class="cls-9"><rect class="cls-1" x="0.17" y="89.05" width="238.62" height="51"/></g><g class="cls-9"><polygon class="cls-1" points="237.31 140.05 205.94 92.38 180.19 123.39 162.31 117.58 132.59 140.05 237.31 140.05"/></g><path class="cls-3" d="M66.94,96.91v1.48H64.45v6.87H62.69V98.39H60.18V96.91Z"/><path class="cls-3" d="M69.56,105.26H67.82V96.91h1.74Z"/><path class="cls-3" d="M77.25,96.91v1.48H74.76v6.87H73V98.39H70.49V96.91Z"/><path class="cls-3" d="M78.27,96.91H80v6.84h4.17v1.51H78.27Z"/><path class="cls-3" d="M91.53,98.39H87.11v1.77h4.06v1.45H87.11v2.14h4.63v1.51H85.41V96.91h6.12Z"/><g class="cls-10"><path class="cls-11" d="M99.62,103.63a1.36,1.36,0,0,0,.25.65,1.4,1.4,0,0,0,1.13.39,2.42,2.42,0,0,0,.78-.1.74.74,0,0,0,.56-.74.56.56,0,0,0-.27-.49,3,3,0,0,0-.89-.29l-.68-.15a4.5,4.5,0,0,1-1.4-.49,1.54,1.54,0,0,1-.64-1.38,1.81,1.81,0,0,1,.63-1.41,2.65,2.65,0,0,1,1.84-.57,2.88,2.88,0,0,1,1.74.53,1.89,1.89,0,0,1,.75,1.55h-1.27a1,1,0,0,0-.52-.82,1.82,1.82,0,0,0-.79-.16,1.49,1.49,0,0,0-.84.21.65.65,0,0,0-.31.58.54.54,0,0,0,.31.51,4,4,0,0,0,.84.26L102,102a2.83,2.83,0,0,1,1.1.47,1.56,1.56,0,0,1,.56,1.29,1.83,1.83,0,0,1-.67,1.45,2.85,2.85,0,0,1-1.9.57,3.12,3.12,0,0,1-2-.56,1.88,1.88,0,0,1-.72-1.56Z"/><path class="cls-11" d="M104.55,99.24h1.35v3.9a2.2,2.2,0,0,0,.16,1,1.28,1.28,0,0,0,2.09,0,2.22,2.22,0,0,0,.15-1v-3.9h1.35v3.9a3.28,3.28,0,0,1-.31,1.58,2.94,2.94,0,0,1-4.47,0,3.27,3.27,0,0,1-.32-1.58Z"/><path class="cls-11" d="M115.67,99.91a1.66,1.66,0,0,1,.29,1,1.47,1.47,0,0,1-.29.94,1.78,1.78,0,0,1-.49.36,1.44,1.44,0,0,1,.73.56,1.66,1.66,0,0,1,.25.93,1.81,1.81,0,0,1-.28,1,1.67,1.67,0,0,1-.45.5,1.58,1.58,0,0,1-.72.32,4.16,4.16,0,0,1-.9.09H111V99.24H114A2,2,0,0,1,115.67,99.91Zm-3.45.43v1.4h1.54a1.21,1.21,0,0,0,.67-.16.57.57,0,0,0,.26-.55.56.56,0,0,0-.34-.59,2.31,2.31,0,0,0-.75-.1Zm0,2.45v1.7h1.54a1.37,1.37,0,0,0,.64-.12.79.79,0,0,0,.42-.79.67.67,0,0,0-.4-.68,1.76,1.76,0,0,0-.64-.11Z"/><path class="cls-11" d="M121.92,99.24v1.12H120v5.23h-1.34v-5.23h-1.91V99.24Z"/><path class="cls-11" d="M123.91,105.59h-1.32V99.24h1.32Z"/><path class="cls-11" d="M129.76,99.24v1.12h-1.9v5.23h-1.33v-5.23h-1.91V99.24Z"/><path class="cls-11" d="M130.54,99.24h1.33v5.21H135v1.14h-4.5Z"/><path class="cls-11" d="M140.63,100.36h-3.36v1.35h3.08v1.1h-3.08v1.64h3.51v1.14H136V99.24h4.66Z"/></g><rect class="cls-3" x="41" y="118" width="153" height="15"/><rect class="cls-3" x="61.06" y="111.18" width="27.94" height="6.82"/><path class="cls-12" d="M153.87,103.86v4.56a3.09,3.09,0,0,0,1.56,2.7l4,2.29a3.09,3.09,0,0,0,3.11,0l4-2.29a3.09,3.09,0,0,0,1.56-2.7v-4.56a3.12,3.12,0,0,0-1.56-2.71l-4-2.28a3.09,3.09,0,0,0-3.11,0l-4,2.28A3.12,3.12,0,0,0,153.87,103.86Z"/><rect class="cls-1" x="146.06" y="111.18" width="27.94" height="6.82"/></g><g id="Layer_23" data-name="Layer 23"><rect class="cls-7" x="124.87" y="46.68" width="33.48" height="7.13" rx="3.35"/><rect class="cls-1" x="163.93" y="46.68" width="33.48" height="7.13"/><polygon class="cls-1" points="237.08 275.6 -5.55 275.6 -5.17 260.69 237.08 260.69 237.08 275.6"/><rect class="cls-3" x="17.45" y="264.72" width="50" height="5.46"/><rect class="cls-7" x="187.93" y="264.58" width="33.48" height="7.13" rx="3.35"/></g></svg>