<?xml version="1.0" encoding="utf-8"?>
<!-- Generator: Adobe Illustrator 24.0.3, SVG Export Plug-In . SVG Version: 6.00 Build 0)  -->
<svg version="1.1" id="Layer_1" xmlns="http://www.w3.org/2000/svg" xmlns:xlink="http://www.w3.org/1999/xlink" x="0px" y="0px"
	 viewBox="0 0 100 116" style="enable-background:new 0 0 100 116;" xml:space="preserve">
<style type="text/css">
	.st0{opacity:0.62;}
	.st1{fill:#81A0B4;}
	.st2{fill:#FFFFFF;}
	.st3{fill:#C9292C;}
	.st4{enable-background:new    ;}
	.st5{fill:#F1F2F2;}
	.st6{fill:#597889;}
</style>
<title>LandingPages_</title>
<g class="st0">
	<path class="st1" d="M-0.4,47.9v68h101.9v-68H-0.4z"/>
</g>
<g id="Layer_1_1_">
	<polygon class="st1" points="100.4,47.9 0,47.9 0.2,0 100.5,0 	"/>
</g>
<g id="movie_icon">
	<path class="st2" d="M95,4.3L95,4.3l1.2-0.8c0.1-0.1,0.2-0.1,0.2,0c0,0,0,0,0,0c0,0,0,0.1,0,0.1c0,0.3,0,2.2,0,2.8
		c0,0.1-0.1,0.2-0.1,0.2c0,0,0,0,0,0c0,0-0.1,0-0.1,0L95,5.7h-0.1l0,0v0.7c0,0.2-0.1,0.4-0.3,0.6C94.5,7,94.4,7,94.3,7l-4.1,0
		c-0.3,0-0.6-0.2-0.6-0.5c0,0,0-0.1,0-0.1c0-0.9,0-1.9,0-2.8c0-0.3,0.3-0.6,0.6-0.6h0.1h4.1c0.3,0,0.6,0.3,0.7,0.6c0,0,0,0,0,0.1
		L95,4.3L95,4.3z M91.6,5c0,0.2,0,0.4,0,0.6c0,0.1,0.1,0.2,0.2,0.2c0,0,0.1,0,0.1,0l1-0.6C93,5.2,93.1,5,93,4.9c0,0-0.1-0.1-0.1-0.1
		l-1-0.6c-0.1-0.1-0.2,0-0.3,0.1c0,0,0,0.1,0,0.1V5z"/>
	<path class="st1" d="M91.6,5V4.4c0-0.1,0.1-0.2,0.2-0.2c0.1,0,0.1,0,0.1,0l1,0.6C93,4.9,93.1,5,93,5.1c0,0-0.1,0.1-0.1,0.1l-1,0.6
		c-0.1,0.1-0.3,0-0.3-0.1c0,0,0-0.1,0-0.1C91.6,5.3,91.6,5.2,91.6,5z"/>
</g>
<path id="btn" class="st3" d="M43.6,65.1h11.3c0.8,0,1.4,0.6,1.4,1.4v0.2c0,0.8-0.6,1.4-1.4,1.4H43.6c-0.8,0-1.4-0.6-1.4-1.4v-0.2
	C42.2,65.7,42.8,65.1,43.6,65.1z"/>
<g id="logo_dark_grey">
	<g class="st4">
		<path class="st5" d="M12.7,16.5h0.7l-1.1,3.1h-0.6l-1.1-3.1h0.7l0.7,2.4L12.7,16.5z"/>
		<path class="st5" d="M14.3,19.6h-0.6v-3.1h0.6V19.6z"/>
		<path class="st5" d="M16.8,16.5c0.2,0.1,0.4,0.2,0.5,0.4c0.1,0.2,0.2,0.3,0.2,0.5s0.1,0.4,0.1,0.5c0,0.4-0.1,0.8-0.2,1.1
			c-0.2,0.4-0.6,0.6-1,0.6h-1.3v-3.1h1.3C16.5,16.5,16.6,16.5,16.8,16.5z M15.6,17v2h0.6c0.3,0,0.5-0.2,0.6-0.5
			c0.1-0.2,0.1-0.4,0.1-0.6c0-0.3,0-0.6-0.1-0.7c-0.1-0.2-0.3-0.3-0.6-0.3H15.6z"/>
		<path class="st5" d="M20.4,17h-1.6v0.7h1.5v0.5h-1.5V19h1.7v0.6h-2.4v-3.1h2.3V17z"/>
		<path class="st5" d="M23.3,19.3c-0.2,0.2-0.6,0.4-1,0.4c-0.4,0-0.8-0.1-1-0.4C21,19,20.8,18.6,20.8,18c0-0.6,0.2-1,0.5-1.3
			c0.2-0.2,0.6-0.4,1-0.4c0.4,0,0.8,0.1,1,0.4c0.3,0.3,0.5,0.7,0.5,1.3C23.8,18.6,23.7,19,23.3,19.3z M22.9,18.8
			c0.2-0.2,0.2-0.5,0.2-0.8c0-0.3-0.1-0.6-0.2-0.8c-0.2-0.2-0.4-0.3-0.6-0.3c-0.3,0-0.5,0.1-0.6,0.3c-0.2,0.2-0.2,0.5-0.2,0.8
			c0,0.4,0.1,0.6,0.2,0.8c0.2,0.2,0.4,0.3,0.6,0.3C22.6,19.1,22.8,19,22.9,18.8z"/>
		<path class="st5" d="M27.8,16.5V17h-0.9v2.6h-0.7V17h-0.9v-0.6H27.8z"/>
		<path class="st5" d="M28.7,19.6h-0.6v-3.1h0.6V19.6z"/>
		<path class="st5" d="M31.6,16.5V17h-0.9v2.6H30V17h-0.9v-0.6H31.6z"/>
		<path class="st5" d="M32,16.5h0.7V19h1.6v0.6H32V16.5z"/>
		<path class="st5" d="M36.9,17h-1.6v0.7h1.5v0.5h-1.5V19H37v0.6h-2.4v-3.1h2.3V17z"/>
	</g>
</g>
<path id="topbtn" class="st3" d="M12,25.8h11.3c0.8,0,1.4,0.6,1.4,1.4v0.2c0,0.8-0.6,1.4-1.4,1.4H12c-0.8,0-1.4-0.6-1.4-1.4v-0.2
	C10.6,26.5,11.2,25.8,12,25.8z"/>
<g id="vid">
	<rect x="2" y="50.6" class="st1" width="19.4" height="11.9"/>
	<path class="st2" d="M12.8,56.1L12.8,56.1l0.7-0.5c0,0,0.1,0,0.1,0c0,0,0,0,0,0c0,0,0,0,0,0.1c0,0.2,0,1.3,0,1.6
		c0,0.1,0,0.1-0.1,0.1c0,0,0,0,0,0c0,0,0,0-0.1,0l-0.6-0.5h0l0,0c0,0.1,0,0.3,0,0.4c0,0.1-0.1,0.3-0.2,0.3c-0.1,0-0.1,0.1-0.2,0.1
		h-2.4c-0.2,0-0.3-0.1-0.4-0.3c0,0,0-0.1,0-0.1c0-0.5,0-1.1,0-1.6c0-0.2,0.1-0.3,0.3-0.4h0.1h2.4c0.2,0,0.4,0.1,0.4,0.3c0,0,0,0,0,0
		L12.8,56.1L12.8,56.1z M10.8,56.5v0.3c0,0.1,0.1,0.1,0.1,0.1c0,0,0.1,0,0.1,0c0.2-0.1,0.4-0.2,0.6-0.3c0.1,0,0.1-0.1,0.1-0.2
		c0,0,0,0-0.1-0.1L11,56.1c-0.1,0-0.2,0-0.2,0c0,0,0,0.1,0,0.1C10.8,56.3,10.8,56.4,10.8,56.5z"/>
</g>
<g id="vid_1_">
	<rect x="27.7" y="50.8" class="st1" width="19.4" height="11.9"/>
	<path class="st2" d="M38.5,56.4L38.5,56.4l0.7-0.5c0,0,0.1,0,0.1,0c0,0,0,0,0,0c0,0,0,0,0,0.1c0,0.2,0,1.3,0,1.6
		c0,0.1,0,0.1-0.1,0.1c0,0,0,0,0,0c0,0,0,0-0.1,0l-0.6-0.5h0l0,0c0,0.1,0,0.3,0,0.4c0,0.1-0.1,0.3-0.2,0.3c-0.1,0-0.1,0.1-0.2,0.1
		h-2.4c-0.2,0-0.3-0.1-0.4-0.3c0,0,0-0.1,0-0.1c0-0.5,0-1.1,0-1.6c0-0.2,0.1-0.3,0.3-0.4h0.1h2.4c0.2,0,0.4,0.1,0.4,0.3c0,0,0,0,0,0
		L38.5,56.4L38.5,56.4z M36.5,56.8v0.3c0,0.1,0.1,0.1,0.1,0.1c0,0,0.1,0,0.1,0c0.2-0.1,0.4-0.2,0.6-0.3c0.1,0,0.1-0.1,0.1-0.2
		c0,0,0,0-0.1-0.1l-0.6-0.3c-0.1,0-0.2,0-0.2,0c0,0,0,0.1,0,0.1C36.5,56.6,36.5,56.7,36.5,56.8z"/>
</g>
<g id="vid_2_">
	<rect x="53.3" y="50.8" class="st1" width="19.4" height="11.9"/>
	<path class="st2" d="M64.2,56.4L64.2,56.4l0.7-0.5c0,0,0.1,0,0.1,0c0,0,0,0,0,0c0,0,0,0,0,0.1c0,0.2,0,1.3,0,1.6
		c0,0.1,0,0.1-0.1,0.1c0,0,0,0,0,0c0,0,0,0-0.1,0l-0.6-0.5h0l0,0c0,0.1,0,0.3,0,0.4c0,0.1-0.1,0.3-0.2,0.3c-0.1,0-0.1,0.1-0.2,0.1
		h-2.4c-0.2,0-0.3-0.1-0.4-0.3c0,0,0-0.1,0-0.1c0-0.5,0-1.1,0-1.6c0-0.2,0.1-0.3,0.3-0.4h0.1h2.4c0.2,0,0.4,0.1,0.4,0.3c0,0,0,0,0,0
		L64.2,56.4L64.2,56.4z M62.2,56.8v0.3c0,0.1,0.1,0.1,0.1,0.1c0,0,0.1,0,0.1,0c0.2-0.1,0.4-0.2,0.6-0.3c0.1,0,0.1-0.1,0.1-0.2
		c0,0,0,0-0.1-0.1l-0.6-0.3c-0.1,0-0.2,0-0.2,0c0,0,0,0.1,0,0.1C62.2,56.6,62.2,56.7,62.2,56.8z"/>
</g>
<g id="vid_3_">
	<rect x="79" y="50.8" class="st1" width="19.4" height="11.9"/>
	<path class="st2" d="M89.9,56.4L89.9,56.4l0.7-0.5c0,0,0.1,0,0.1,0c0,0,0,0,0,0c0,0,0,0,0,0.1c0,0.2,0,1.3,0,1.6
		c0,0.1,0,0.1-0.1,0.1c0,0,0,0,0,0c0,0,0,0-0.1,0l-0.6-0.5h0l0,0c0,0.1,0,0.3,0,0.4c0,0.1-0.1,0.3-0.2,0.3c-0.1,0-0.1,0.1-0.2,0.1
		h-2.4c-0.2,0-0.3-0.1-0.4-0.3c0,0,0-0.1,0-0.1c0-0.5,0-1.1,0-1.6c0-0.2,0.1-0.3,0.3-0.4h0.1h2.4c0.2,0,0.4,0.1,0.4,0.3c0,0,0,0,0,0
		L89.9,56.4L89.9,56.4z M87.8,56.8v0.3c0,0.1,0.1,0.1,0.1,0.1c0,0,0.1,0,0.1,0c0.2-0.1,0.4-0.2,0.6-0.3c0.1,0,0.1-0.1,0.1-0.2
		c0,0,0,0-0.1-0.1l-0.6-0.3c-0.1,0-0.2,0-0.2,0c0,0,0,0.1,0,0.1C87.9,56.6,87.8,56.7,87.8,56.8z"/>
</g>
<g id="vid_7_">
	<rect x="2" y="72.3" class="st1" width="19.4" height="11.9"/>
	<path class="st2" d="M12.8,77.8L12.8,77.8l0.7-0.5c0,0,0.1,0,0.1,0c0,0,0,0,0,0c0,0,0,0,0,0.1c0,0.2,0,1.3,0,1.6
		c0,0.1,0,0.1-0.1,0.1c0,0,0,0,0,0c0,0,0,0-0.1,0l-0.6-0.5h0l0,0c0,0.1,0,0.3,0,0.4c0,0.1-0.1,0.3-0.2,0.3c-0.1,0-0.1,0.1-0.2,0.1
		h-2.4c-0.2,0-0.3-0.1-0.4-0.3c0,0,0-0.1,0-0.1c0-0.5,0-1.1,0-1.6c0-0.2,0.1-0.3,0.3-0.4h0.1h2.4c0.2,0,0.4,0.1,0.4,0.3c0,0,0,0,0,0
		L12.8,77.8L12.8,77.8z M10.8,78.2v0.3c0,0.1,0.1,0.1,0.1,0.1c0,0,0.1,0,0.1,0c0.2-0.1,0.4-0.2,0.6-0.3c0.1,0,0.1-0.1,0.1-0.2
		c0,0,0,0-0.1-0.1L11,77.8c-0.1,0-0.2,0-0.2,0c0,0,0,0.1,0,0.1C10.8,78,10.8,78.1,10.8,78.2z"/>
</g>
<g id="vid_6_">
	<rect x="27.7" y="72.5" class="st1" width="19.4" height="11.9"/>
	<path class="st2" d="M38.5,78.1L38.5,78.1l0.7-0.5c0,0,0.1,0,0.1,0c0,0,0,0,0,0c0,0,0,0,0,0.1c0,0.2,0,1.3,0,1.6
		c0,0.1,0,0.1-0.1,0.1c0,0,0,0,0,0c0,0,0,0-0.1,0l-0.6-0.5h0l0,0c0,0.1,0,0.3,0,0.4c0,0.1-0.1,0.3-0.2,0.3c-0.1,0-0.1,0.1-0.2,0.1
		h-2.4c-0.2,0-0.3-0.1-0.4-0.3c0,0,0-0.1,0-0.1c0-0.5,0-1.1,0-1.6c0-0.2,0.1-0.3,0.3-0.4h0.1h2.4c0.2,0,0.4,0.1,0.4,0.3c0,0,0,0,0,0
		L38.5,78.1L38.5,78.1z M36.5,78.5v0.3c0,0.1,0.1,0.1,0.1,0.1c0,0,0.1,0,0.1,0c0.2-0.1,0.4-0.2,0.6-0.3c0.1,0,0.1-0.1,0.1-0.2
		c0,0,0,0-0.1-0.1L36.7,78c-0.1,0-0.2,0-0.2,0c0,0,0,0.1,0,0.1C36.5,78.3,36.5,78.4,36.5,78.5z"/>
</g>
<g id="vid_5_">
	<rect x="53.3" y="72.5" class="st1" width="19.4" height="11.9"/>
	<path class="st2" d="M64.2,78.1L64.2,78.1l0.7-0.5c0,0,0.1,0,0.1,0c0,0,0,0,0,0c0,0,0,0,0,0.1c0,0.2,0,1.3,0,1.6
		c0,0.1,0,0.1-0.1,0.1c0,0,0,0,0,0c0,0,0,0-0.1,0l-0.6-0.5h0l0,0c0,0.1,0,0.3,0,0.4c0,0.1-0.1,0.3-0.2,0.3c-0.1,0-0.1,0.1-0.2,0.1
		h-2.4c-0.2,0-0.3-0.1-0.4-0.3c0,0,0-0.1,0-0.1c0-0.5,0-1.1,0-1.6c0-0.2,0.1-0.3,0.3-0.4h0.1h2.4c0.2,0,0.4,0.1,0.4,0.3c0,0,0,0,0,0
		L64.2,78.1L64.2,78.1z M62.2,78.5v0.3c0,0.1,0.1,0.1,0.1,0.1c0,0,0.1,0,0.1,0c0.2-0.1,0.4-0.2,0.6-0.3c0.1,0,0.1-0.1,0.1-0.2
		c0,0,0,0-0.1-0.1L62.4,78c-0.1,0-0.2,0-0.2,0c0,0,0,0.1,0,0.1C62.2,78.3,62.2,78.4,62.2,78.5z"/>
</g>
<g id="vid_4_">
	<rect x="79" y="72.5" class="st1" width="19.4" height="11.9"/>
	<path class="st2" d="M89.9,78.1L89.9,78.1l0.7-0.5c0,0,0.1,0,0.1,0c0,0,0,0,0,0c0,0,0,0,0,0.1c0,0.2,0,1.3,0,1.6
		c0,0.1,0,0.1-0.1,0.1c0,0,0,0,0,0c0,0,0,0-0.1,0l-0.6-0.5h0l0,0c0,0.1,0,0.3,0,0.4c0,0.1-0.1,0.3-0.2,0.3c-0.1,0-0.1,0.1-0.2,0.1
		h-2.4c-0.2,0-0.3-0.1-0.4-0.3c0,0,0-0.1,0-0.1c0-0.5,0-1.1,0-1.6c0-0.2,0.1-0.3,0.3-0.4h0.1h2.4c0.2,0,0.4,0.1,0.4,0.3c0,0,0,0,0,0
		L89.9,78.1L89.9,78.1z M87.8,78.5v0.3c0,0.1,0.1,0.1,0.1,0.1c0,0,0.1,0,0.1,0c0.2-0.1,0.4-0.2,0.6-0.3c0.1,0,0.1-0.1,0.1-0.2
		c0,0,0,0-0.1-0.1L88.1,78c-0.1,0-0.2,0-0.2,0c0,0,0,0.1,0,0.1C87.9,78.3,87.8,78.4,87.8,78.5z"/>
</g>
<g id="vid_11_">
	<rect x="2" y="87.3" class="st1" width="19.4" height="11.9"/>
	<path class="st2" d="M12.9,92.9L12.9,92.9l0.7-0.5c0,0,0.1,0,0.1,0c0,0,0,0,0,0c0,0,0,0,0,0.1c0,0.2,0,1.3,0,1.6
		c0,0.1,0,0.1-0.1,0.1c0,0,0,0,0,0c0,0,0,0-0.1,0l-0.6-0.5h0l0,0c0,0.1,0,0.3,0,0.4c0,0.1-0.1,0.3-0.2,0.3c-0.1,0-0.1,0.1-0.2,0.1
		h-2.4c-0.2,0-0.3-0.1-0.4-0.3c0,0,0-0.1,0-0.1c0-0.5,0-1.1,0-1.6c0-0.2,0.1-0.3,0.3-0.4h0.1h2.4c0.2,0,0.4,0.1,0.4,0.3c0,0,0,0,0,0
		L12.9,92.9L12.9,92.9z M10.8,93.3v0.3c0,0.1,0.1,0.1,0.1,0.1c0,0,0.1,0,0.1,0c0.2-0.1,0.4-0.2,0.6-0.3c0.1,0,0.1-0.1,0.1-0.2
		c0,0,0,0-0.1-0.1L11,92.8c-0.1,0-0.2,0-0.2,0c0,0,0,0.1,0,0.1C10.9,93.1,10.8,93.2,10.8,93.3z"/>
</g>
<g id="vid_10_">
	<rect x="27.7" y="87.6" class="st1" width="19.4" height="11.9"/>
	<path class="st2" d="M38.5,93.1L38.5,93.1l0.7-0.5c0,0,0.1,0,0.1,0c0,0,0,0,0,0c0,0,0,0,0,0.1c0,0.2,0,1.3,0,1.6
		c0,0.1,0,0.1-0.1,0.1c0,0,0,0,0,0c0,0,0,0-0.1,0l-0.6-0.5h0l0,0c0,0.1,0,0.3,0,0.4c0,0.1-0.1,0.3-0.2,0.3c-0.1,0-0.1,0.1-0.2,0.1
		h-2.4c-0.2,0-0.3-0.1-0.4-0.3c0,0,0-0.1,0-0.1c0-0.5,0-1.1,0-1.6c0-0.2,0.1-0.3,0.3-0.4h0.1h2.4c0.2,0,0.4,0.1,0.4,0.3c0,0,0,0,0,0
		L38.5,93.1L38.5,93.1z M36.5,93.5v0.3c0,0.1,0.1,0.1,0.1,0.1c0,0,0.1,0,0.1,0c0.2-0.1,0.4-0.2,0.6-0.3c0.1,0,0.1-0.1,0.1-0.2
		c0,0,0,0-0.1-0.1l-0.6-0.3c-0.1,0-0.2,0-0.2,0c0,0,0,0.1,0,0.1C36.5,93.3,36.5,93.4,36.5,93.5z"/>
</g>
<g id="vid_9_">
	<rect x="53.4" y="87.6" class="st1" width="19.4" height="11.9"/>
	<path class="st2" d="M64.2,93.1L64.2,93.1l0.7-0.5c0,0,0.1,0,0.1,0c0,0,0,0,0,0c0,0,0,0,0,0.1c0,0.2,0,1.3,0,1.6
		c0,0.1,0,0.1-0.1,0.1c0,0,0,0,0,0c0,0,0,0-0.1,0l-0.6-0.5h0l0,0c0,0.1,0,0.3,0,0.4c0,0.1-0.1,0.3-0.2,0.3c-0.1,0-0.1,0.1-0.2,0.1
		h-2.4c-0.2,0-0.3-0.1-0.4-0.3c0,0,0-0.1,0-0.1c0-0.5,0-1.1,0-1.6c0-0.2,0.1-0.3,0.3-0.4h0.1h2.4c0.2,0,0.4,0.1,0.4,0.3c0,0,0,0,0,0
		L64.2,93.1L64.2,93.1z M62.2,93.5v0.3c0,0.1,0.1,0.1,0.1,0.1c0,0,0.1,0,0.1,0c0.2-0.1,0.4-0.2,0.6-0.3c0.1,0,0.1-0.1,0.1-0.2
		c0,0,0,0-0.1-0.1l-0.6-0.3c-0.1,0-0.2,0-0.2,0c0,0,0,0.1,0,0.1C62.2,93.3,62.2,93.4,62.2,93.5z"/>
</g>
<g id="vid_8_">
	<rect x="79" y="87.6" class="st1" width="19.4" height="11.9"/>
	<path class="st2" d="M89.9,93.1L89.9,93.1l0.7-0.5c0,0,0.1,0,0.1,0c0,0,0,0,0,0c0,0,0,0,0,0.1c0,0.2,0,1.3,0,1.6
		c0,0.1,0,0.1-0.1,0.1c0,0,0,0,0,0c0,0,0,0-0.1,0l-0.6-0.5h0l0,0c0,0.1,0,0.3,0,0.4c0,0.1-0.1,0.3-0.2,0.3c-0.1,0-0.1,0.1-0.2,0.1
		h-2.4c-0.2,0-0.3-0.1-0.4-0.3c0,0,0-0.1,0-0.1c0-0.5,0-1.1,0-1.6c0-0.2,0.1-0.3,0.3-0.4h0.1h2.4c0.2,0,0.4,0.1,0.4,0.3c0,0,0,0,0,0
		L89.9,93.1L89.9,93.1z M87.9,93.5v0.3c0,0.1,0.1,0.1,0.1,0.1c0,0,0.1,0,0.1,0c0.2-0.1,0.4-0.2,0.6-0.3c0.1,0,0.1-0.1,0.1-0.2
		c0,0,0,0-0.1-0.1l-0.6-0.3c-0.1,0-0.2,0-0.2,0c0,0,0,0.1,0,0.1C87.9,93.3,87.9,93.4,87.9,93.5z"/>
</g>
<g id="vid_15_">
	<rect x="2" y="101.8" class="st1" width="19.4" height="11.9"/>
	<path class="st2" d="M12.9,107.3L12.9,107.3l0.7-0.5c0,0,0.1,0,0.1,0c0,0,0,0,0,0c0,0,0,0,0,0.1c0,0.2,0,1.3,0,1.6
		c0,0.1,0,0.1-0.1,0.1c0,0,0,0,0,0c0,0,0,0-0.1,0l-0.6-0.5h0l0,0c0,0.1,0,0.3,0,0.4c0,0.1-0.1,0.3-0.2,0.3c-0.1,0-0.1,0.1-0.2,0.1
		h-2.4c-0.2,0-0.3-0.1-0.4-0.3c0,0,0-0.1,0-0.1c0-0.5,0-1.1,0-1.6c0-0.2,0.1-0.3,0.3-0.4h0.1h2.4c0.2,0,0.4,0.1,0.4,0.3c0,0,0,0,0,0
		L12.9,107.3L12.9,107.3z M10.8,107.7v0.3c0,0.1,0.1,0.1,0.1,0.1c0,0,0.1,0,0.1,0c0.2-0.1,0.4-0.2,0.6-0.3c0.1,0,0.1-0.1,0.1-0.2
		c0,0,0,0-0.1-0.1l-0.6-0.3c-0.1,0-0.2,0-0.2,0c0,0,0,0.1,0,0.1C10.9,107.5,10.8,107.6,10.8,107.7z"/>
</g>
<g id="vid_14_">
	<rect x="27.7" y="102" class="st1" width="19.4" height="11.9"/>
	<path class="st2" d="M38.5,107.6L38.5,107.6l0.7-0.5c0,0,0.1,0,0.1,0c0,0,0,0,0,0c0,0,0,0,0,0.1c0,0.2,0,1.3,0,1.6
		c0,0.1,0,0.1-0.1,0.1c0,0,0,0,0,0c0,0,0,0-0.1,0l-0.6-0.5h0l0,0c0,0.1,0,0.3,0,0.4c0,0.1-0.1,0.3-0.2,0.3c-0.1,0-0.1,0.1-0.2,0.1
		h-2.4c-0.2,0-0.3-0.1-0.4-0.3c0,0,0-0.1,0-0.1c0-0.5,0-1.1,0-1.6c0-0.2,0.1-0.3,0.3-0.4h0.1h2.4c0.2,0,0.4,0.1,0.4,0.3c0,0,0,0,0,0
		L38.5,107.6L38.5,107.6z M36.5,108v0.3c0,0.1,0.1,0.1,0.1,0.1c0,0,0.1,0,0.1,0c0.2-0.1,0.4-0.2,0.6-0.3c0.1,0,0.1-0.1,0.1-0.2
		c0,0,0,0-0.1-0.1l-0.6-0.3c-0.1,0-0.2,0-0.2,0c0,0,0,0.1,0,0.1C36.5,107.8,36.5,107.9,36.5,108z"/>
</g>
<g id="vid_13_">
	<rect x="53.4" y="102" class="st1" width="19.4" height="11.9"/>
	<path class="st2" d="M64.2,107.6L64.2,107.6l0.7-0.5c0,0,0.1,0,0.1,0c0,0,0,0,0,0c0,0,0,0,0,0.1c0,0.2,0,1.3,0,1.6
		c0,0.1,0,0.1-0.1,0.1c0,0,0,0,0,0c0,0,0,0-0.1,0l-0.6-0.5h0l0,0c0,0.1,0,0.3,0,0.4c0,0.1-0.1,0.3-0.2,0.3c-0.1,0-0.1,0.1-0.2,0.1
		h-2.4c-0.2,0-0.3-0.1-0.4-0.3c0,0,0-0.1,0-0.1c0-0.5,0-1.1,0-1.6c0-0.2,0.1-0.3,0.3-0.4h0.1h2.4c0.2,0,0.4,0.1,0.4,0.3c0,0,0,0,0,0
		L64.2,107.6L64.2,107.6z M62.2,108v0.3c0,0.1,0.1,0.1,0.1,0.1c0,0,0.1,0,0.1,0c0.2-0.1,0.4-0.2,0.6-0.3c0.1,0,0.1-0.1,0.1-0.2
		c0,0,0,0-0.1-0.1l-0.6-0.3c-0.1,0-0.2,0-0.2,0c0,0,0,0.1,0,0.1C62.2,107.8,62.2,107.9,62.2,108z"/>
</g>
<g id="vid_12_">
	<rect x="79" y="102" class="st1" width="19.4" height="11.9"/>
	<path class="st2" d="M89.9,107.6L89.9,107.6l0.7-0.5c0,0,0.1,0,0.1,0c0,0,0,0,0,0c0,0,0,0,0,0.1c0,0.2,0,1.3,0,1.6
		c0,0.1,0,0.1-0.1,0.1c0,0,0,0,0,0c0,0,0,0-0.1,0l-0.6-0.5h0l0,0c0,0.1,0,0.3,0,0.4c0,0.1-0.1,0.3-0.2,0.3c-0.1,0-0.1,0.1-0.2,0.1
		h-2.4c-0.2,0-0.3-0.1-0.4-0.3c0,0,0-0.1,0-0.1c0-0.5,0-1.1,0-1.6c0-0.2,0.1-0.3,0.3-0.4h0.1h2.4c0.2,0,0.4,0.1,0.4,0.3c0,0,0,0,0,0
		L89.9,107.6L89.9,107.6z M87.9,108v0.3c0,0.1,0.1,0.1,0.1,0.1c0,0,0.1,0,0.1,0c0.2-0.1,0.4-0.2,0.6-0.3c0.1,0,0.1-0.1,0.1-0.2
		c0,0,0,0-0.1-0.1l-0.6-0.3c-0.1,0-0.2,0-0.2,0c0,0,0,0.1,0,0.1C87.9,107.8,87.9,107.9,87.9,108z"/>
</g>
<rect x="10.7" y="21.3" class="st2" width="21.5" height="0.7"/>
<rect x="10.7" y="22.5" class="st2" width="21.5" height="0.7"/>
<rect x="10.7" y="23.8" class="st2" width="21.5" height="0.7"/>
<g id="vid_19_">
	<rect x="10.7" y="35.5" class="st6" width="15.9" height="9.8"/>
	<path class="st2" d="M19.6,40.1L19.6,40.1l0.6-0.4c0,0,0.1,0,0.1,0c0,0,0,0,0,0c0,0,0,0,0,0.1c0,0.1,0,1.1,0,1.3c0,0,0,0.1-0.1,0.1
		c0,0,0,0,0,0c0,0,0,0,0,0l-0.5-0.4h0l0,0c0,0.1,0,0.2,0,0.3c0,0.1-0.1,0.2-0.2,0.3c0,0-0.1,0-0.2,0h-2c-0.1,0-0.3-0.1-0.3-0.2
		c0,0,0,0,0-0.1c0-0.4,0-0.9,0-1.3c0-0.2,0.1-0.3,0.3-0.3h0.1h2c0.2,0,0.3,0.1,0.3,0.3c0,0,0,0,0,0L19.6,40.1L19.6,40.1z M17.9,40.4
		v0.3c0,0.1,0,0.1,0.1,0.1c0,0,0,0,0.1,0c0.2-0.1,0.3-0.2,0.5-0.3c0.1,0,0.1-0.1,0-0.1c0,0,0,0,0,0L18.1,40c-0.1,0-0.1,0-0.2,0
		c0,0,0,0,0,0.1C17.9,40.2,17.9,40.3,17.9,40.4z"/>
</g>
<g id="vid_18_">
	<rect x="31.8" y="35.7" class="st6" width="15.9" height="9.8"/>
	<path class="st2" d="M40.7,40.3L40.7,40.3l0.6-0.4c0,0,0.1,0,0.1,0c0,0,0,0,0,0c0,0,0,0,0,0.1c0,0.1,0,1.1,0,1.3c0,0,0,0.1-0.1,0.1
		c0,0,0,0,0,0c0,0,0,0,0,0L40.7,41h0l0,0c0,0.1,0,0.2,0,0.3c0,0.1-0.1,0.2-0.2,0.3c0,0-0.1,0-0.2,0h-2c-0.1,0-0.3-0.1-0.3-0.2
		c0,0,0,0,0-0.1c0-0.4,0-0.9,0-1.3c0-0.2,0.1-0.3,0.3-0.3h0.1h2c0.2,0,0.3,0.1,0.3,0.3c0,0,0,0,0,0L40.7,40.3L40.7,40.3z M39,40.6
		v0.3c0,0.1,0,0.1,0.1,0.1c0,0,0,0,0.1,0c0.2-0.1,0.3-0.2,0.5-0.3c0.1,0,0.1-0.1,0-0.1c0,0,0,0,0,0l-0.5-0.3c-0.1,0-0.1,0-0.2,0
		c0,0,0,0,0,0.1C39,40.4,39,40.5,39,40.6z"/>
</g>
<g id="vid_17_">
	<rect x="52.9" y="35.7" class="st6" width="15.9" height="9.8"/>
	<path class="st2" d="M61.8,40.3L61.8,40.3l0.6-0.4c0,0,0.1,0,0.1,0c0,0,0,0,0,0c0,0,0,0,0,0.1c0,0.1,0,1.1,0,1.3c0,0,0,0.1-0.1,0.1
		c0,0,0,0,0,0c0,0,0,0,0,0L61.8,41h0l0,0c0,0.1,0,0.2,0,0.3c0,0.1-0.1,0.2-0.2,0.3c0,0-0.1,0-0.2,0h-2c-0.1,0-0.3-0.1-0.3-0.2
		c0,0,0,0,0-0.1c0-0.4,0-0.9,0-1.3c0-0.2,0.1-0.3,0.3-0.3h0.1h2c0.2,0,0.3,0.1,0.3,0.3c0,0,0,0,0,0L61.8,40.3L61.8,40.3z M60.1,40.6
		v0.3c0,0.1,0,0.1,0.1,0.1c0,0,0,0,0.1,0c0.2-0.1,0.3-0.2,0.5-0.3c0.1,0,0.1-0.1,0-0.1c0,0,0,0,0,0l-0.5-0.3c-0.1,0-0.1,0-0.2,0
		c0,0,0,0,0,0.1C60.1,40.4,60.1,40.5,60.1,40.6z"/>
</g>
<g id="vid_16_">
	<rect x="74" y="35.7" class="st6" width="15.9" height="9.8"/>
	<path class="st2" d="M82.9,40.3L82.9,40.3l0.6-0.4c0,0,0.1,0,0.1,0c0,0,0,0,0,0c0,0,0,0,0,0.1c0,0.1,0,1.1,0,1.3c0,0,0,0.1-0.1,0.1
		c0,0,0,0,0,0c0,0,0,0,0,0L82.9,41h0l0,0c0,0.1,0,0.2,0,0.3c0,0.1-0.1,0.2-0.2,0.3c0,0-0.1,0-0.2,0h-2c-0.1,0-0.3-0.1-0.3-0.2
		c0,0,0,0,0-0.1c0-0.4,0-0.9,0-1.3c0-0.2,0.1-0.3,0.3-0.3h0.1h2c0.2,0,0.3,0.1,0.3,0.3c0,0,0,0,0,0L82.9,40.3L82.9,40.3z M81.2,40.6
		v0.3c0,0.1,0,0.1,0.1,0.1c0,0,0,0,0.1,0c0.2-0.1,0.3-0.2,0.5-0.3c0.1,0,0.1-0.1,0-0.1c0,0,0,0,0,0l-0.5-0.3c-0.1,0-0.1,0-0.2,0
		c0,0,0,0,0,0.1C81.2,40.4,81.2,40.5,81.2,40.6z"/>
</g>
</svg>
