<?xml version="1.0" encoding="utf-8"?>
<!-- Generator: Adobe Illustrator 23.1.1, SVG Export Plug-In . SVG Version: 6.00 Build 0)  -->
<svg version="1.1" id="Layer_1" xmlns="http://www.w3.org/2000/svg" xmlns:xlink="http://www.w3.org/1999/xlink" x="0px" y="0px"
	 viewBox="0 0 279 207" style="enable-background:new 0 0 279 207;" xml:space="preserve">
<style type="text/css">
	.st0{fill-rule:evenodd;clip-rule:evenodd;fill:#313131;}
	.st1{fill:none;stroke:#FFFFFF;stroke-width:1.1495;stroke-linecap:square;}
	.st2{enable-background:new    ;}
	.st3{fill:#FFFFFF;}
	.st4{fill-rule:evenodd;clip-rule:evenodd;fill:#819FB3;}
	.st5{fill-rule:evenodd;clip-rule:evenodd;fill:#EEF8FF;fill-opacity:0.73;}
	.st6{fill-rule:evenodd;clip-rule:evenodd;fill:#FEFEFE;}
	.st7{fill-rule:evenodd;clip-rule:evenodd;fill:#C8282C;}
	.st8{fill:none;stroke:#FFFFFF;stroke-width:3.4485;stroke-linecap:square;}
	.st9{fill:none;stroke:#819FB3;stroke-width:3.4485;stroke-linecap:square;}
</style>
<title>FAQ Toggle</title>
<desc>Created with Sketch.</desc>
<g id="FAQ-Toggle">
	<rect id="Rectangle-Copy-24" class="st0" width="279" height="207"/>
	<g id="Group-10" transform="translate(29.000000, 19.000000)">
		<g id="FAQ-Toggles">
			<path id="Line-Copy-2" class="st1" d="M1.1,150h210.4"/>
			<path id="Line-Copy-4" class="st1" d="M1.1,35.1h215"/>
			<path id="Line-Copy-3" class="st1" d="M0,169.6h211.5"/>
			<path id="Line-Copy" class="st1" d="M1.1,16.7h215"/>
			<g class="st2">
				<path class="st3" d="M208.6,45.5l-4.3-4.3c-0.1-0.1-0.1-0.2-0.1-0.3s0-0.2,0.1-0.3l1-1c0.1-0.1,0.2-0.1,0.3-0.1
					c0.1,0,0.2,0,0.3,0.1l3.1,3.1l3.1-3.1c0.1-0.1,0.2-0.1,0.3-0.1c0.1,0,0.2,0,0.3,0.1l1,1c0.1,0.1,0.1,0.2,0.1,0.3s0,0.2-0.1,0.3
					l-4.3,4.3c-0.1,0.1-0.2,0.1-0.3,0.1C208.8,45.6,208.7,45.5,208.6,45.5z"/>
			</g>
			<g class="st2">
				<path class="st3" d="M211,25.9l-4.3,4.3c-0.1,0.1-0.2,0.1-0.3,0.1c-0.1,0-0.2,0-0.3-0.1l-1-1c-0.1-0.1-0.1-0.2-0.1-0.3
					c0-0.1,0-0.2,0.1-0.3l3.1-3.1l-3.1-3.1c-0.1-0.1-0.1-0.2-0.1-0.3c0-0.1,0-0.2,0.1-0.3l1-1c0.1-0.1,0.2-0.1,0.3-0.1
					c0.1,0,0.2,0,0.3,0.1l4.3,4.3c0.1,0.1,0.1,0.2,0.1,0.3C211.1,25.7,211.1,25.8,211,25.9z"/>
			</g>
			<g class="st2">
				<path class="st3" d="M211,159.2l-4.3,4.3c-0.1,0.1-0.2,0.1-0.3,0.1c-0.1,0-0.2,0-0.3-0.1l-1-1c-0.1-0.1-0.1-0.2-0.1-0.3
					c0-0.1,0-0.2,0.1-0.3l3.1-3.1l-3.1-3.1c-0.1-0.1-0.1-0.2-0.1-0.3c0-0.1,0-0.2,0.1-0.3l1-1c0.1-0.1,0.2-0.1,0.3-0.1
					c0.1,0,0.2,0,0.3,0.1l4.3,4.3c0.1,0.1,0.1,0.2,0.1,0.3C211.1,159.1,211.1,159.2,211,159.2z"/>
			</g>
			<path id="FAQTOGGLES" class="st3" d="M0.9,1.5h5.9V3H2.6v1.9h3.6v1.4H2.6v3.5H0.9V1.5z M9.7,6.7h2.1l-1-3.3L9.7,6.7z M9.8,1.5h2
				l2.9,8.3h-1.9l-0.5-1.7h-3L8.7,9.8H6.9L9.8,1.5z M19.6,8.6c0.2,0,0.4,0,0.6-0.1c0.1,0,0.2-0.1,0.4-0.1l-0.8-0.8l0.9-0.9l0.8,0.8
				c0.1-0.3,0.2-0.5,0.3-0.7c0.1-0.3,0.1-0.7,0.1-1.1c0-0.9-0.2-1.6-0.6-2.2s-0.9-0.8-1.7-0.8c-0.7,0-1.2,0.2-1.6,0.7
				c-0.4,0.5-0.6,1.2-0.6,2.2c0,1.1,0.3,1.9,0.9,2.4C18.6,8.4,19.1,8.6,19.6,8.6z M23.6,5.5c0,0.7-0.1,1.4-0.3,1.9
				c-0.1,0.5-0.4,0.9-0.6,1.2l1,0.9l-0.9,0.9l-1-0.9c-0.3,0.2-0.6,0.3-0.8,0.4C20.6,10,20.1,10,19.6,10c-1.1,0-2-0.3-2.7-1
				c-0.9-0.8-1.3-1.9-1.3-3.4c0-1.5,0.4-2.7,1.3-3.4c0.7-0.6,1.6-0.9,2.7-0.9c1.1,0,2,0.3,2.7,1C23.2,3,23.6,4.1,23.6,5.5z
				 M34.5,1.5V3H32v6.8h-1.7V3h-2.5V1.5H34.5z M39.2,8.6c0.7,0,1.2-0.3,1.6-0.8s0.6-1.2,0.6-2.2c0-0.9-0.2-1.6-0.6-2.2
				s-0.9-0.8-1.6-0.8S38,3,37.6,3.5c-0.4,0.5-0.6,1.2-0.6,2.2s0.2,1.7,0.6,2.2C38,8.3,38.5,8.6,39.2,8.6z M43.2,5.6
				c0,1.5-0.4,2.6-1.3,3.4c-0.6,0.6-1.5,1-2.7,1s-2.1-0.3-2.7-1c-0.8-0.8-1.3-1.9-1.3-3.4c0-1.5,0.4-2.7,1.3-3.4
				c0.6-0.6,1.5-1,2.7-1s2.1,0.3,2.7,1C42.7,3,43.2,4.1,43.2,5.6z M50.2,4.1c-0.1-0.6-0.5-1-1-1.2c-0.3-0.1-0.6-0.2-0.9-0.2
				c-0.7,0-1.2,0.3-1.6,0.8C46.3,4,46,4.7,46,5.8c0,1,0.2,1.7,0.7,2.2c0.5,0.4,1,0.6,1.6,0.6c0.6,0,1.1-0.2,1.4-0.5
				c0.4-0.3,0.6-0.8,0.7-1.3h-1.9V5.4H52v4.4h-1.1l-0.2-1c-0.3,0.4-0.6,0.7-0.9,0.8c-0.5,0.3-1,0.4-1.7,0.4c-1.1,0-2-0.4-2.7-1.1
				c-0.7-0.8-1.1-1.8-1.1-3.1c0-1.3,0.4-2.4,1.1-3.2c0.7-0.8,1.7-1.2,2.9-1.2c1.1,0,1.9,0.3,2.5,0.8s1,1.2,1.1,2H50.2z M59.4,4.1
				c-0.1-0.6-0.5-1-1-1.2c-0.3-0.1-0.6-0.2-0.9-0.2c-0.7,0-1.2,0.3-1.6,0.8c-0.4,0.5-0.6,1.3-0.6,2.3c0,1,0.2,1.7,0.7,2.2
				c0.5,0.4,1,0.6,1.6,0.6c0.6,0,1.1-0.2,1.4-0.5c0.4-0.3,0.6-0.8,0.7-1.3h-1.9V5.4h3.4v4.4H60l-0.2-1c-0.3,0.4-0.6,0.7-0.9,0.8
				c-0.5,0.3-1,0.4-1.7,0.4c-1.1,0-2-0.4-2.7-1.1c-0.7-0.8-1.1-1.8-1.1-3.1c0-1.3,0.4-2.4,1.1-3.2c0.7-0.8,1.7-1.2,2.9-1.2
				c1.1,0,1.9,0.3,2.5,0.8c0.6,0.5,1,1.2,1.1,2H59.4z M63,1.5h1.7v6.8h4.1v1.5H63V1.5z M76.3,3h-4.4v1.8h4v1.4h-4v2.1h4.6v1.5h-6.3
				V1.5h6.1V3z M79.3,7.2c0.1,0.4,0.2,0.7,0.3,0.8c0.3,0.3,0.8,0.5,1.4,0.5c0.4,0,0.7,0,1-0.1c0.5-0.2,0.7-0.5,0.7-1
				c0-0.3-0.1-0.5-0.4-0.6c-0.2-0.1-0.6-0.3-1.1-0.4l-0.9-0.2c-0.9-0.2-1.5-0.4-1.8-0.6c-0.6-0.4-0.8-1-0.8-1.8
				c0-0.7,0.3-1.4,0.8-1.8c0.5-0.5,1.3-0.7,2.4-0.7c0.9,0,1.6,0.2,2.2,0.7s0.9,1.1,1,2h-1.7c0-0.5-0.2-0.9-0.7-1.1
				c-0.3-0.1-0.6-0.2-1-0.2c-0.4,0-0.8,0.1-1.1,0.3c-0.3,0.2-0.4,0.4-0.4,0.8c0,0.3,0.1,0.5,0.4,0.7c0.2,0.1,0.5,0.2,1.1,0.3
				l1.4,0.3c0.6,0.1,1.1,0.3,1.4,0.6c0.5,0.4,0.7,1,0.7,1.7c0,0.8-0.3,1.4-0.9,1.9S82.2,10,81.1,10c-1.1,0-1.9-0.2-2.5-0.7
				c-0.6-0.5-0.9-1.2-0.9-2H79.3z"/>
			<path id="WITHIMAGECAROUSELS" class="st3" d="M89.7,3.8l0.7,2.8l0.1,0.8l0.1-0.8l0.6-2.9h1.1l0.6,2.8l0.2,0.8l0.2-0.8l0.7-2.9
				h1.1l-1.4,5h-1l-0.6-2.9l-0.2-1l-0.2,1L91,8.8h-1l-1.4-5H89.7z M96.7,8.8h-1v-5h1V8.8z M101.4,3.8v0.9h-1.5v4.1h-1V4.7h-1.5V3.8
				H101.4z M102.2,8.8v-5h1v1.9h1.9V3.8h1v5h-1V6.6h-1.9v2.2H102.2z M110.4,8.8h-1v-5h1V8.8z M114.9,3.8h1.5v5h-1V5.4
				c0-0.1,0-0.2,0-0.4s0-0.3,0-0.4l-0.9,4.2h-1l-0.9-4.2c0,0.1,0,0.2,0,0.4s0,0.3,0,0.4v3.4h-1v-5h1.5l0.9,3.9L114.9,3.8z
				 M118.9,6.9h1.3l-0.6-2L118.9,6.9z M118.9,3.8h1.2l1.8,5h-1.1l-0.3-1h-1.8l-0.3,1h-1.1L118.9,3.8z M126,5.4
				c-0.1-0.3-0.3-0.6-0.6-0.7c-0.2-0.1-0.4-0.1-0.6-0.1c-0.4,0-0.7,0.2-1,0.5c-0.3,0.3-0.4,0.8-0.4,1.4c0,0.6,0.1,1,0.4,1.3
				c0.3,0.3,0.6,0.4,0.9,0.4c0.3,0,0.6-0.1,0.9-0.3c0.2-0.2,0.4-0.5,0.4-0.8H125V6.1h2.1v2.7h-0.7l-0.1-0.6
				c-0.2,0.2-0.4,0.4-0.5,0.5c-0.3,0.2-0.6,0.3-1,0.3c-0.7,0-1.2-0.2-1.6-0.7c-0.4-0.5-0.7-1.1-0.7-1.9c0-0.8,0.2-1.4,0.7-1.9
				c0.4-0.5,1-0.7,1.8-0.7c0.6,0,1.1,0.2,1.5,0.5c0.4,0.3,0.6,0.7,0.7,1.2H126z M131.9,4.7h-2.6v1.1h2.4v0.9h-2.4v1.3h2.7v0.9h-3.8
				v-5h3.6V4.7z M134.9,6.4c0-0.9,0.2-1.5,0.7-2c0.4-0.4,0.9-0.6,1.5-0.6c0.8,0,1.4,0.3,1.8,0.8c0.2,0.3,0.3,0.6,0.3,0.9h-1
				c-0.1-0.2-0.2-0.4-0.3-0.5c-0.2-0.2-0.5-0.3-0.8-0.3c-0.4,0-0.7,0.2-0.9,0.5c-0.2,0.3-0.3,0.7-0.3,1.3s0.1,1,0.3,1.3
				c0.2,0.3,0.5,0.4,0.9,0.4c0.4,0,0.6-0.1,0.8-0.4c0.1-0.1,0.2-0.3,0.3-0.6h1c-0.1,0.5-0.3,1-0.7,1.3c-0.4,0.3-0.8,0.5-1.4,0.5
				c-0.7,0-1.3-0.2-1.7-0.7C135.1,7.8,134.9,7.2,134.9,6.4z M141.6,6.9h1.3l-0.6-2L141.6,6.9z M141.7,3.8h1.2l1.8,5h-1.1l-0.3-1
				h-1.8l-0.3,1h-1.1L141.7,3.8z M146.4,4.7V6h1.2c0.2,0,0.4,0,0.5-0.1c0.2-0.1,0.3-0.3,0.3-0.6c0-0.3-0.1-0.5-0.3-0.6
				c-0.1-0.1-0.3-0.1-0.5-0.1H146.4z M147.9,3.8c0.3,0,0.6,0,0.8,0.1c0.2,0.1,0.3,0.2,0.5,0.3c0.1,0.1,0.2,0.3,0.3,0.4
				c0.1,0.2,0.1,0.3,0.1,0.5c0,0.2-0.1,0.5-0.2,0.7c-0.1,0.2-0.3,0.4-0.6,0.5c0.2,0.1,0.4,0.2,0.5,0.4c0.1,0.2,0.1,0.4,0.1,0.8v0.3
				c0,0.2,0,0.4,0,0.5c0,0.1,0.1,0.2,0.2,0.3v0.1h-1.1c0-0.1-0.1-0.2-0.1-0.3c0-0.1,0-0.3,0-0.4l0-0.5c0-0.3-0.1-0.5-0.2-0.6
				c-0.1-0.1-0.3-0.2-0.6-0.2h-1.1v1.9h-1v-5H147.9z M152.8,8.1c0.4,0,0.7-0.2,1-0.5c0.2-0.3,0.4-0.7,0.4-1.3c0-0.6-0.1-1-0.4-1.3
				s-0.6-0.5-1-0.5s-0.7,0.2-1,0.5c-0.2,0.3-0.4,0.7-0.4,1.3s0.1,1,0.4,1.3C152,7.9,152.4,8.1,152.8,8.1z M155.1,6.3
				c0,0.9-0.3,1.6-0.8,2c-0.4,0.4-0.9,0.6-1.6,0.6s-1.3-0.2-1.6-0.6c-0.5-0.5-0.8-1.2-0.8-2c0-0.9,0.3-1.6,0.8-2
				c0.4-0.4,0.9-0.6,1.6-0.6s1.3,0.2,1.6,0.6C154.9,4.7,155.1,5.4,155.1,6.3z M156.1,3.8h1.1v3.1c0,0.3,0,0.6,0.1,0.7
				c0.1,0.3,0.4,0.4,0.8,0.4c0.4,0,0.7-0.1,0.8-0.4c0.1-0.2,0.1-0.4,0.1-0.7V3.8h1.1v3.1c0,0.5-0.1,0.9-0.2,1.2
				c-0.3,0.5-0.9,0.8-1.7,0.8c-0.9,0-1.4-0.3-1.8-0.8c-0.2-0.3-0.2-0.7-0.2-1.2V3.8z M162,7.3c0,0.2,0.1,0.4,0.2,0.5
				c0.2,0.2,0.5,0.3,0.9,0.3c0.2,0,0.4,0,0.6-0.1c0.3-0.1,0.4-0.3,0.4-0.6c0-0.2-0.1-0.3-0.2-0.4c-0.1-0.1-0.4-0.2-0.7-0.2l-0.5-0.1
				c-0.5-0.1-0.9-0.2-1.1-0.4c-0.3-0.2-0.5-0.6-0.5-1.1c0-0.4,0.2-0.8,0.5-1.1c0.3-0.3,0.8-0.4,1.4-0.4c0.5,0,1,0.1,1.3,0.4
				s0.6,0.7,0.6,1.2h-1c0-0.3-0.1-0.5-0.4-0.6c-0.2-0.1-0.4-0.1-0.6-0.1c-0.3,0-0.5,0.1-0.6,0.2c-0.2,0.1-0.2,0.3-0.2,0.5
				c0,0.2,0.1,0.3,0.2,0.4c0.1,0.1,0.3,0.1,0.6,0.2l0.9,0.2c0.4,0.1,0.7,0.2,0.8,0.4c0.3,0.2,0.4,0.6,0.4,1c0,0.5-0.2,0.8-0.5,1.1
				c-0.3,0.3-0.8,0.4-1.5,0.4c-0.6,0-1.2-0.1-1.5-0.4c-0.4-0.3-0.6-0.7-0.6-1.2H162z M169.7,4.7h-2.6v1.1h2.4v0.9h-2.4v1.3h2.7v0.9
				h-3.8v-5h3.6V4.7z M170.8,3.8h1v4.1h2.5v0.9h-3.5V3.8z M176,7.3c0,0.2,0.1,0.4,0.2,0.5c0.2,0.2,0.5,0.3,0.9,0.3
				c0.2,0,0.4,0,0.6-0.1c0.3-0.1,0.4-0.3,0.4-0.6c0-0.2-0.1-0.3-0.2-0.4c-0.1-0.1-0.4-0.2-0.7-0.2l-0.5-0.1
				c-0.5-0.1-0.9-0.2-1.1-0.4c-0.3-0.2-0.5-0.6-0.5-1.1c0-0.4,0.2-0.8,0.5-1.1c0.3-0.3,0.8-0.4,1.4-0.4c0.5,0,1,0.1,1.3,0.4
				s0.6,0.7,0.6,1.2h-1c0-0.3-0.1-0.5-0.4-0.6c-0.2-0.1-0.4-0.1-0.6-0.1c-0.3,0-0.5,0.1-0.6,0.2C176.1,4.8,176,5,176,5.2
				c0,0.2,0.1,0.3,0.2,0.4c0.1,0.1,0.3,0.1,0.6,0.2l0.9,0.2c0.4,0.1,0.7,0.2,0.8,0.4c0.3,0.2,0.4,0.6,0.4,1c0,0.5-0.2,0.8-0.5,1.1
				c-0.3,0.3-0.8,0.4-1.5,0.4c-0.6,0-1.2-0.1-1.5-0.4c-0.4-0.3-0.6-0.7-0.6-1.2H176z"/>
		</g>
		<g id="Carousel" transform="translate(5.747500, 40.232500)">
			<polygon id="Fill-1" class="st4" points="0,95.4 131,95.4 131,0 0,0 			"/>
			<polygon id="Fill-7" class="st5" points="27.5,67.9 53.4,81.1 90.8,32.8 131,95.1 0,95.4 			"/>
			<path id="Fill-3" class="st6" d="M54.6,43.7c-0.6,0-1.1-0.1-1.6-0.4l-6.6-3.8c-1-0.6-1.6-1.6-1.6-2.8v-7.7c0-1.1,0.6-2.2,1.6-2.8
				l6.6-3.8c0.5-0.3,1-0.4,1.6-0.4c0.6,0,1.1,0.1,1.6,0.4l6.6,3.8c1,0.6,1.6,1.6,1.6,2.8v7.7c0,1.1-0.6,2.2-1.6,2.8l-6.6,3.8
				C55.7,43.5,55.2,43.7,54.6,43.7"/>
			<path id="Fill-5" class="st7" d="M54.6,20.7c-0.7,0-1.4,0.2-2.1,0.5L45.8,25c-1.3,0.7-2.1,2.1-2.1,3.5v7.5c0,1.4,0.8,2.8,2.1,3.5
				l6.7,3.7c0.7,0.4,1.4,0.5,2.1,0.5c0.7,0,1.4-0.2,2.1-0.5l6.7-3.7c1.3-0.7,2.1-2.1,2.1-3.5v-7.5c0-1.4-0.8-2.8-2.1-3.5l-6.7-3.7
				C56.1,20.9,55.3,20.7,54.6,20.7 M54.2,22.3c0.4,0,0.8,0.1,1.1,0.3l6.6,3.8c0.7,0.4,1.1,1.1,1.1,1.9V36c0,0.8-0.4,1.5-1.1,1.9
				l-6.6,3.8C55,41.9,54.6,42,54.2,42s-0.8-0.1-1.1-0.3l-6.6-3.8c-0.7-0.4-1.1-1.1-1.1-1.9v-7.6c0-0.8,0.4-1.5,1.1-1.9l6.6-3.8
				C53.4,22.4,53.8,22.3,54.2,22.3"/>
		</g>
		<path id="Line-4" class="st8" d="M7.5,141.1h37.9"/>
		<path id="Line-4-Copy-9" class="st9" d="M54.6,141.1h34.5"/>
		<path id="Line-4-Copy-10" class="st9" d="M98.3,141.1h36.8"/>
	</g>
</g>
</svg>
