<?xml version="1.0" encoding="UTF-8"?>
<svg width="279px" height="207px" viewBox="0 0 279 207" version="1.1" xmlns="http://www.w3.org/2000/svg" xmlns:xlink="http://www.w3.org/1999/xlink">
    <!-- Generator: Sketch 54.1 (76490) - https://sketchapp.com -->
    <title>large-case-study-portfolio</title>
    <desc>Created with Sketch.</desc>
    <g id="large-case-study-portfolio" stroke="none" stroke-width="1" fill="none" fill-rule="evenodd">
        <rect id="Rectangle-Copy-13" fill="#313131" x="0" y="0" width="279" height="207"></rect>
        <g id="Section" transform="translate(152.000000, 183.000000)" stroke="#8C8C8C" stroke-linecap="square">
            <g id="1-paragraph">
                <path d="M0,0.338 L62,0.338" id="Line-Copy-2"></path>
                <path d="M0,12.038 L43.8383838,12.038" id="Line-Copy-3"></path>
                <path d="M0,6.188 L62,6.188" id="Line-Copy-4"></path>
            </g>
        </g>
        <g id="Group-3" transform="translate(67.000000, 20.000000)" fill-rule="nonzero">
            <path d="M0.467948718,6.47191011 C0.467948718,4.36907359 1.00687058,2.7483884 2.08473047,1.60980592 C3.02199995,0.618313054 4.21439711,0.122574055 5.66195774,0.122574055 C7.59898132,0.122574055 9.01527838,0.787191175 9.91089144,2.11644535 C10.4055614,2.86278889 10.6711171,3.61184507 10.7075665,4.36363636 L8.30192022,4.36363636 C8.14570864,3.78617348 7.94524012,3.35035898 7.70050865,3.05617978 C7.26311623,2.53319453 6.6148479,2.27170582 5.75568422,2.27170582 C4.88089938,2.27170582 4.19097525,2.64078623 3.68589115,3.37895812 C3.18080704,4.11713001 2.92826878,5.1617229 2.92826878,6.51276813 C2.92826878,7.86381336 3.19512622,8.87572016 3.72884912,9.5485189 C4.26257201,10.2213176 4.94078044,10.557712 5.76349476,10.557712 C6.60703728,10.557712 7.25009864,10.2689848 7.69269811,9.69152196 C7.93742958,9.38099947 8.14050159,8.91522272 8.30192022,8.29417773 L10.6841349,8.29417773 C10.4758528,9.60708862 9.94343963,10.6748342 9.08687948,11.4974464 C8.23031932,12.3200586 7.13294944,12.7313585 5.79473692,12.7313585 C4.13889418,12.7313585 2.83715055,12.175695 1.88946698,11.0643514 C0.941783399,9.94755996 0.467948718,8.41676151 0.467948718,6.47191011 Z M17.2393856,8.06537283 C17.0987951,8.1579848 16.9569051,8.23289042 16.8137111,8.29009193 C16.6705172,8.34729344 16.4739539,8.40040834 16.2240154,8.4494382 L15.7241408,8.54749745 C15.2555061,8.63466165 14.9196562,8.74089144 14.7165812,8.86618999 C14.3729157,9.07865275 14.2010855,9.40823747 14.2010855,9.85495403 C14.2010855,10.2526407 14.3065268,10.5400059 14.5174124,10.7170582 C14.728298,10.8941105 14.9847415,10.9826353 15.2867506,10.9826353 C15.7657994,10.9826353 16.2070905,10.8355479 16.6106371,10.5413687 C17.0141837,10.2471895 17.2237644,9.71059293 17.2393856,8.93156282 L17.2393856,8.06537283 Z M15.8881622,6.97854954 C16.2995193,6.92407191 16.5937134,6.85597589 16.7707532,6.77425945 C17.0883834,6.63261761 17.2471961,6.41198652 17.2471961,6.11235955 C17.2471961,5.74735943 17.1261339,5.49540417 16.884006,5.35648621 C16.641878,5.21756825 16.286502,5.14811032 15.8178673,5.14811032 C15.291955,5.14811032 14.9196563,5.28430235 14.7009601,5.5566905 C14.5447485,5.75825773 14.440609,6.0306418 14.3885385,6.37385087 L12.24064,6.37385087 C12.2875035,5.59482076 12.4957825,4.9547182 12.8654832,4.453524 C13.4538802,3.66904613 14.4640332,3.27681307 15.8959727,3.27681307 C16.8280351,3.27681307 17.6559441,3.47020576 18.3797244,3.85699694 C19.1035047,4.24378811 19.4653894,4.97377741 19.4653894,6.04698672 L19.4653894,10.1327886 C19.4653894,10.4160722 19.4705964,10.7592762 19.4810105,11.1624106 C19.4966317,11.4674854 19.5408909,11.6744972 19.6137897,11.7834525 C19.6866884,11.8924078 19.7960349,11.9822945 19.9418324,12.0531154 L19.9418324,12.3963228 L17.520565,12.3963228 C17.4528733,12.2165466 17.4060105,12.0476685 17.3799753,11.8896834 C17.35394,11.7316982 17.3331121,11.5519247 17.317491,11.3503575 C17.0102748,11.6990143 16.6562006,11.995913 16.2552575,12.2410623 C15.7762087,12.5297937 15.2346833,12.6741573 14.6306652,12.6741573 C13.8600214,12.6741573 13.2234688,12.4439928 12.7209882,11.9836568 C12.2185077,11.5233208 11.9672711,10.870961 11.9672711,10.0265577 C11.9672711,8.93155734 12.3708117,8.13891971 13.1779048,7.64862104 C13.6205043,7.38168065 14.2713761,7.19101181 15.1305398,7.07660878 L15.8881622,6.97854954 Z M23.3806776,9.5526047 C23.4275411,9.96663469 23.5290771,10.2608095 23.6852887,10.4351379 C23.9612625,10.7456604 24.471546,10.9009193 25.2161545,10.9009193 C25.6535469,10.9009193 26.0011124,10.8328233 26.2588616,10.6966292 C26.5166107,10.5604351 26.6454833,10.3561471 26.6454833,10.0837589 C26.6454833,9.82226631 26.5413438,9.62342594 26.3330617,9.48723187 C26.1247796,9.35103779 25.3515439,9.1167875 24.0133313,8.78447395 C23.0500266,8.53387685 22.3705164,8.22063518 21.9747804,7.84473953 C21.5790444,7.47429164 21.3811794,6.94041888 21.3811794,6.24310521 C21.3811794,5.42049299 21.6896926,4.71365634 22.3067284,4.12257406 C22.9237641,3.53149177 23.7920271,3.23595506 24.9115434,3.23595506 C25.9737822,3.23595506 26.8394417,3.45794807 27.5085479,3.90194076 C28.1776542,4.34593344 28.5616686,5.11269459 28.6606026,6.20224719 L26.4345987,6.20224719 C26.4033564,5.90262022 26.3226483,5.66564609 26.192472,5.49131767 C25.9477405,5.17534742 25.5311825,5.01736466 24.9427856,5.01736466 C24.4585297,5.01736466 24.1135676,5.09635604 23.907889,5.25434116 C23.7022105,5.41232629 23.5993727,5.59754746 23.5993727,5.81001021 C23.5993727,6.0769506 23.7087192,6.27034329 23.9274154,6.39019408 C24.1461116,6.51549263 24.9193473,6.73067604 26.2471457,7.03575077 C27.1323447,7.25366129 27.7962339,7.58324601 28.2388334,8.02451481 C28.6762258,8.47123138 28.8949188,9.02961871 28.8949188,9.69969356 C28.8949188,10.5822312 28.5811985,11.302687 27.9537487,11.8610827 C27.3262989,12.4194784 26.3564999,12.6986721 25.0443226,12.6986721 C23.7061101,12.6986721 22.7180867,12.4031354 22.0802227,11.8120531 C21.4423588,11.2209708 21.1234316,10.4678289 21.1234316,9.5526047 L23.3806776,9.5526047 Z M34.1067566,5.17262513 C33.5912584,5.17262513 33.1916231,5.34150325 32.9078387,5.67926456 C32.6240543,6.01702586 32.4457155,6.47463109 32.3728167,7.05209397 L35.8328859,7.05209397 C35.7964365,6.43649675 35.6180976,5.96935808 35.2978639,5.65066394 C34.9776302,5.33196981 34.5805984,5.17262513 34.1067566,5.17262513 Z M34.1067566,3.25229826 C34.8149157,3.25229826 35.4527701,3.39121414 36.0203388,3.66905005 C36.5879076,3.94688597 37.0565353,4.38542431 37.426236,4.98467824 C37.7594874,5.51311126 37.9755768,6.1259754 38.0745108,6.82328907 C38.1317884,7.2318713 38.1552198,7.82022088 38.1448057,8.58835546 L32.3181429,8.58835546 C32.3493853,9.4817886 32.6175444,10.108272 33.1226285,10.4678243 C33.4298447,10.6911826 33.7995398,10.8028601 34.2317252,10.8028601 C34.6899458,10.8028601 35.0622445,10.666668 35.3486324,10.3942799 C35.504844,10.2471903 35.6428288,10.0429022 35.762591,9.7814096 L38.0354581,9.7814096 C37.9781806,10.3098426 37.7152283,10.8464392 37.2465936,11.3912155 C36.5176062,12.2574098 35.4970392,12.6905005 34.184862,12.6905005 C33.101795,12.6905005 32.1463152,12.3255059 31.3183938,11.5955056 C30.4904725,10.8655054 30.076518,9.67791085 30.076518,8.03268641 C30.076518,6.49096948 30.4501184,5.30882264 31.1973305,4.48621042 C31.9445425,3.6635982 32.9143415,3.25229826 34.1067566,3.25229826 Z M46.4205828,8.67824311 C46.4934816,9.22846717 46.6366734,9.63976711 46.8501625,9.91215526 C47.2406915,10.4079017 47.9097877,10.6557712 48.8574713,10.6557712 C49.42504,10.6557712 49.8858573,10.590399 50.2399368,10.4596527 C50.9116466,10.2090556 51.2474965,9.74327886 51.2474965,9.06230848 C51.2474965,8.66462178 51.0808733,8.35682778 50.7476219,8.13891726 C50.4143706,7.9264545 49.8910696,7.7385095 49.1777034,7.57507661 L47.9592592,7.28907048 C46.7616371,7.0057868 45.9337281,6.69799281 45.4755075,6.36567926 C44.6996567,5.81000744 44.3117371,4.94110227 44.3117371,3.75893769 C44.3117371,2.68028061 44.6866392,1.78413704 45.4364548,1.07048008 C46.1862704,0.356823126 47.2875455,0 48.7403132,0 C49.9535564,0 50.9884426,0.336394321 51.8450028,1.00919305 C52.7015629,1.68199179 53.1506645,2.65848866 53.1923209,3.93871297 L50.8804011,3.93871297 C50.8387447,3.21416049 50.5367402,2.69935461 49.9743785,2.39427988 C49.5994707,2.19271265 49.1334465,2.09193054 48.5762918,2.09193054 C47.9566526,2.09193054 47.46199,2.22267489 47.0922893,2.48416752 C46.7225885,2.74566014 46.5377409,3.11065479 46.5377409,3.57916241 C46.5377409,4.00953569 46.719985,4.33094889 47.0844787,4.54341164 C47.3187961,4.68505348 47.8186657,4.85120776 48.5841024,5.04187947 L50.5679795,5.54034729 C51.4375573,5.75825781 52.0936361,6.04970876 52.5362356,6.41470889 C53.2235665,6.98127624 53.5672268,7.80115228 53.5672268,8.87436159 C53.5672268,9.97480972 53.164988,10.8886583 52.3604984,11.6159346 C51.5560088,12.343211 50.4195866,12.7068437 48.9511978,12.7068437 C47.4515666,12.7068437 46.2721869,12.3486587 45.4130232,11.6322778 C44.5538595,10.915897 44.1242841,9.9312286 44.1242841,8.67824311 L46.4205828,8.67824311 Z M54.4988888,5.22982635 L54.4988888,3.57099081 L55.6860908,3.57099081 L55.6860908,1.08682329 L57.8886631,1.08682329 L57.8886631,3.57099081 L59.2711287,3.57099081 L59.2711287,5.22982635 L57.8886631,5.22982635 L57.8886631,9.93667007 C57.8886631,10.3016702 57.9329224,10.5291109 58.0214423,10.618999 C58.1099622,10.7088871 58.3807248,10.7538304 58.8337384,10.7538304 C58.9014301,10.7538304 58.973026,10.7524685 59.0485283,10.7497446 C59.1240305,10.7470208 59.1982299,10.742935 59.2711287,10.7374872 L59.2711287,12.4780388 L58.2167058,12.5188968 C57.1648811,12.5570312 56.4463187,12.3663623 56.0609968,11.9468846 C55.8110582,11.6799442 55.6860908,11.2686442 55.6860908,10.7129724 L55.6860908,5.22982635 L54.4988888,5.22982635 Z M63.1239325,3.48927477 L63.1239325,8.85801839 C63.1239325,9.36466035 63.1812092,9.74599804 63.2957644,10.0020429 C63.4988395,10.4542072 63.897173,10.680286 64.490777,10.680286 C65.2510067,10.680286 65.7717041,10.3588728 66.052885,9.71603677 C66.1986824,9.36737994 66.2715801,8.90705087 66.2715801,8.33503575 L66.2715801,3.48927477 L68.5288261,3.48927477 L68.5288261,12.3963228 L66.3653066,12.3963228 L66.3653066,11.1378958 C66.3444784,11.1651346 66.2924086,11.2468498 66.2090958,11.3830439 C66.1257829,11.519238 66.0268504,11.639087 65.9122953,11.7425945 C65.5634227,12.0694603 65.2262711,12.2928152 64.9008303,12.412666 C64.5753896,12.5325168 64.1939787,12.5924413 63.7565863,12.5924413 C62.4964795,12.5924413 61.6477427,12.118493 61.2103502,11.1705822 C60.9656188,10.647597 60.8432549,9.87675007 60.8432549,8.85801839 L60.8432549,3.48927477 L63.1239325,3.48927477 Z M74.0218434,3.27681307 C74.5373416,3.27681307 74.9955553,3.39530014 75.3964984,3.63227783 C75.7974414,3.86925553 76.1228773,4.19747832 76.3728159,4.61695608 L76.3728159,0.367722165 L78.6300619,0.367722165 L78.6300619,12.3963228 L76.4665423,12.3963228 L76.4665423,11.1624106 C76.1489121,11.6908436 75.7870274,12.0749052 75.3808773,12.3146067 C74.9747272,12.5543083 74.4696507,12.6741573 73.8656326,12.6741573 C72.8710855,12.6741573 72.0340644,12.2533239 71.354544,11.4116445 C70.6750236,10.5699651 70.3352685,9.48996233 70.3352685,8.17160368 C70.3352685,6.65167779 70.6698167,5.45591175 71.3389229,4.58426966 C72.0080292,3.71262758 72.902327,3.27681307 74.0218434,3.27681307 Z M74.5060968,10.7129724 C75.1361502,10.7129724 75.6151919,10.4678268 75.9432362,9.97752809 C76.2712805,9.48722942 76.4353002,8.85257455 76.4353002,8.07354443 C76.4353002,6.98399183 76.172348,6.2049734 75.6464357,5.73646578 C75.3235984,5.4531821 74.9486962,5.31154239 74.5217179,5.31154239 C73.8708363,5.31154239 73.3930964,5.56894533 73.0884838,6.08375894 C72.7838713,6.59857254 72.6315673,7.23731318 72.6315673,8 C72.6315673,8.82261222 72.7864748,9.48041973 73.0962944,9.97344229 C73.406114,10.4664648 73.8760435,10.7129724 74.5060968,10.7129724 Z M81.2019372,14.1041879 L81.4831167,14.1205312 C81.7018129,14.1314267 81.9100918,14.1232552 82.1079598,14.0960163 C82.3058278,14.0687775 82.472451,14.0061292 82.6078344,13.9080695 C82.7380107,13.8154575 82.8590729,13.6220648 82.9710245,13.3278856 C83.0829761,13.0337064 83.1285372,12.8539329 83.107709,12.7885598 L79.983493,3.48927477 L82.4594341,3.48927477 L84.3183426,10.0592441 L86.0757141,3.48927477 L88.4423077,3.48927477 L85.5211658,12.2492339 C84.9588041,13.9380404 84.5136078,14.9853572 84.1855635,15.3912155 C83.8575191,15.7970739 83.2014404,16 82.2173074,16 C82.0194394,16 81.8606267,15.9986381 81.7408645,15.9959142 C81.6211023,15.9931903 81.4414616,15.9836569 81.2019372,15.9673136 L81.2019372,14.1041879 Z" id="CaseStudy" fill="#FFFFFF"></path>
            <path d="M95.4266393,6.24738494 L95.4266393,10.7756276 L96.72691,10.7756276 C97.3923101,10.7756276 97.8562518,10.4382879 98.118749,9.76359833 C98.2622069,9.39330359 98.3339347,8.95240842 98.3339347,8.44089958 C98.3339347,7.73482911 98.2263429,7.19273202 98.0111562,6.81459205 C97.7959695,6.43645208 97.3678917,6.24738494 96.72691,6.24738494 L95.4266393,6.24738494 Z M96.9649877,5.04236402 C97.383152,5.0486402 97.7311083,5.0988489 98.008867,5.19299163 C98.4819726,5.35303427 98.8650297,5.64644138 99.1580499,6.07322176 C99.3930766,6.41841177 99.5533196,6.791839 99.6387838,7.19351464 C99.724248,7.59519029 99.7669795,7.97803165 99.7669795,8.34205021 C99.7669795,9.26464896 99.5868969,10.0460219 99.2267262,10.6861925 C98.7383592,11.5491675 97.9844539,11.9806485 96.9649877,11.9806485 L94.0576923,11.9806485 L94.0576923,5.04236402 L96.9649877,5.04236402 Z M102.812922,7.81956067 C102.510744,7.81956067 102.276484,7.91684003 102.110134,8.11140167 C101.943784,8.30596332 101.839245,8.56955901 101.796513,8.90219665 L103.824752,8.90219665 C103.803386,8.54759237 103.698846,8.2785051 103.51113,8.09492678 C103.323414,7.91134845 103.09068,7.81956067 102.812922,7.81956067 Z M102.812922,6.71338912 C103.228034,6.71338912 103.601934,6.79340924 103.934634,6.95345188 C104.267334,7.11349452 104.542036,7.36610706 104.758749,7.71129707 C104.954096,8.0156919 105.080764,8.36872184 105.138758,8.77039749 C105.172333,9.00575431 105.186068,9.34466306 105.179964,9.78713389 L101.764464,9.78713389 C101.782778,10.3017808 101.939968,10.6626559 102.236041,10.8697699 C102.416126,10.9984316 102.632836,11.0627615 102.886176,11.0627615 C103.154778,11.0627615 103.373014,10.9843104 103.54089,10.8274059 C103.632459,10.7426774 103.713343,10.6250008 103.783546,10.4743724 L105.115866,10.4743724 C105.082291,10.7787672 104.928152,11.0878645 104.653446,11.4016736 C104.226124,11.9006301 103.627884,12.1501046 102.858706,12.1501046 C102.223829,12.1501046 101.663741,11.9398557 101.178426,11.5193515 C100.693112,11.0988473 100.450458,10.4147537 100.450458,9.46705021 C100.450458,8.57897046 100.669457,7.89801492 101.107461,7.42416318 C101.545465,6.95031144 102.113946,6.71338912 102.812922,6.71338912 Z M107.195762,10.3425732 C107.223232,10.5810681 107.282751,10.7505225 107.37432,10.8509414 C107.536092,11.0298126 107.835212,11.1192469 108.27169,11.1192469 C108.528083,11.1192469 108.73182,11.0800213 108.882909,11.001569 C109.033997,10.9231168 109.10954,10.8054401 109.10954,10.6485356 C109.10954,10.4979072 109.048495,10.3833686 108.926404,10.3049163 C108.804312,10.226464 108.351053,10.0915282 107.566614,9.9001046 C107.001939,9.75575242 106.603621,9.57531489 106.371646,9.35878661 C106.139672,9.14539642 106.023687,8.83786812 106.023687,8.43619247 C106.023687,7.96234073 106.204532,7.55517953 106.566229,7.21469665 C106.927926,6.87421378 107.436888,6.7039749 108.093132,6.7039749 C108.7158,6.7039749 109.223236,6.83185019 109.615456,7.0876046 C110.007675,7.34335902 110.232779,7.7850387 110.290772,8.4126569 L108.985923,8.4126569 C108.967609,8.2400619 108.920299,8.10355699 108.843992,8.00313808 C108.700534,7.8211288 108.456354,7.73012552 108.111445,7.73012552 C107.827582,7.73012552 107.62537,7.77562716 107.504805,7.8666318 C107.384239,7.95763644 107.323957,8.06432993 107.323957,8.18671548 C107.323957,8.34048194 107.388055,8.4518825 107.516251,8.5209205 C107.644447,8.5930966 108.097706,8.71704933 108.876041,8.89278243 C109.394931,9.01830607 109.784093,9.20815772 110.043538,9.4623431 C110.29993,9.71966656 110.428125,10.0413161 110.428125,10.4273013 C110.428125,10.935672 110.244227,11.3506783 109.876425,11.6723326 C109.508624,11.993987 108.940143,12.1548117 108.170965,12.1548117 C107.386525,12.1548117 106.807361,11.9845728 106.433455,11.64409 C106.059549,11.3036071 105.872599,10.8697725 105.872599,10.3425732 L107.195762,10.3425732 Z M114.495054,8.69037657 C114.470636,8.49895302 114.408065,8.3263606 114.307339,8.17259414 C114.160829,7.96548014 113.933436,7.86192469 113.625155,7.86192469 C113.185624,7.86192469 112.884978,8.08629483 112.723206,8.53504184 C112.637742,8.77353676 112.595011,9.09047919 112.595011,9.48587866 C112.595011,9.86244958 112.637742,10.1652708 112.723206,10.3943515 C112.878873,10.8211318 113.171889,11.0345188 113.602263,11.0345188 C113.907492,11.0345188 114.124202,10.9497916 114.252398,10.7803347 C114.380594,10.6108778 114.458427,10.3912147 114.485897,10.1213389 L115.818217,10.1213389 C115.787694,10.5292907 115.644238,10.9152701 115.387846,11.2792887 C114.978838,11.8661117 114.372967,12.1595188 113.570214,12.1595188 C112.76746,12.1595188 112.17685,11.9147514 111.798366,11.4252092 C111.419881,10.935667 111.230642,10.3002131 111.230642,9.51882845 C111.230642,8.63702488 111.439721,7.95136228 111.857885,7.46182008 C112.27605,6.97227789 112.852924,6.72751046 113.588527,6.72751046 C114.214248,6.72751046 114.726262,6.87186048 115.124586,7.16056485 C115.522911,7.44926923 115.758697,7.95920137 115.831952,8.69037657 L114.495054,8.69037657 Z M119.560078,6.72751046 C119.584497,6.72751046 119.605099,6.72829497 119.621887,6.72986402 C119.638675,6.73143306 119.676065,6.7337866 119.734058,6.73692469 L119.734058,8.11140167 C119.651646,8.1019874 119.578392,8.09571131 119.514294,8.09257322 C119.450196,8.08943513 119.398308,8.08786611 119.358628,8.08786611 C118.833633,8.08786611 118.481099,8.26359657 118.301013,8.61506276 C118.200288,8.81276249 118.149926,9.11715276 118.149926,9.52824268 L118.149926,11.9806485 L116.83592,11.9806485 L116.83592,6.8498954 L118.081249,6.8498954 L118.081249,7.74424686 C118.282701,7.40219494 118.458205,7.16841067 118.607767,7.04288703 C118.851951,6.83263493 119.169385,6.72751046 119.560078,6.72751046 Z M121.960463,6.23797071 L120.637301,6.23797071 L120.637301,5 L121.960463,5 L121.960463,6.23797071 Z M120.637301,6.8498954 L121.960463,6.8498954 L121.960463,11.9806485 L120.637301,11.9806485 L120.637301,6.8498954 Z M126.782832,9.41527197 C126.782832,9.0198725 126.69508,8.6699806 126.519573,8.36558577 C126.344066,8.06119095 126.059444,7.90899582 125.665698,7.90899582 C125.192592,7.90899582 124.867528,8.13964204 124.690495,8.60094142 C124.598926,8.84571252 124.553142,9.15637887 124.553142,9.53294979 C124.553142,10.1291871 124.707281,10.5481159 125.015562,10.789749 C125.1987,10.930963 125.41541,11.001569 125.665698,11.001569 C126.028921,11.001569 126.305912,10.857219 126.496681,10.5685146 C126.687449,10.2798103 126.782832,9.89539989 126.782832,9.41527197 Z M126.041128,6.73692469 C126.624116,6.73692469 127.117817,6.95815678 127.522246,7.40062762 C127.926675,7.84309845 128.128887,8.49267354 128.128887,9.34937238 C128.128887,10.2531426 127.931254,10.9419432 127.535981,11.415795 C127.140709,11.8896467 126.631747,12.126569 126.009079,12.126569 C125.612281,12.126569 125.282638,12.0245826 125.020141,11.8206067 C124.876683,11.7076354 124.73628,11.5428881 124.598926,11.3263598 L124.598926,14 L123.307812,14 L123.307812,6.8498954 L124.557721,6.8498954 L124.557721,7.60774059 C124.698126,7.38493612 124.847686,7.20920566 125.006406,7.08054393 C125.296373,6.85146329 125.641278,6.73692469 126.041128,6.73692469 Z M128.679591,7.85251046 L128.679591,6.89696653 L129.37551,6.89696653 L129.37551,5.46600418 L130.666624,5.46600418 L130.666624,6.89696653 L131.477004,6.89696653 L131.477004,7.85251046 L130.666624,7.85251046 L130.666624,10.5638075 C130.666624,10.7740596 130.692568,10.905073 130.744457,10.9568515 C130.796346,11.00863 130.955063,11.0345188 131.220613,11.0345188 C131.260293,11.0345188 131.302261,11.0337343 131.346519,11.0321653 C131.390778,11.0305962 131.434272,11.0282427 131.477004,11.0251046 L131.477004,12.0277197 L130.858918,12.0512552 C130.242354,12.0732219 129.821144,11.9633903 129.595274,11.7217573 C129.448764,11.5679909 129.37551,11.3310685 129.37551,11.0109833 L129.37551,7.85251046 L128.679591,7.85251046 Z M133.776664,6.23797071 L132.453501,6.23797071 L132.453501,5 L133.776664,5 L133.776664,6.23797071 Z M132.453501,6.8498954 L133.776664,6.8498954 L133.776664,11.9806485 L132.453501,11.9806485 L132.453501,6.8498954 Z M137.399487,11.0345188 C137.781024,11.0345188 138.074039,10.8948759 138.278543,10.6155858 C138.483047,10.3362957 138.585297,9.93933312 138.585297,9.42468619 C138.585297,8.91003927 138.483047,8.51386122 138.278543,8.23614017 C138.074039,7.95841911 137.781024,7.81956067 137.399487,7.81956067 C137.01795,7.81956067 136.724171,7.95841911 136.518141,8.23614017 C136.312112,8.51386122 136.209098,8.91003927 136.209098,9.42468619 C136.209098,9.93933312 136.312112,10.3362957 136.518141,10.6155858 C136.724171,10.8948759 137.01795,11.0345188 137.399487,11.0345188 Z M139.954244,9.42468619 C139.954244,10.177828 139.743639,10.8219116 139.322422,11.3569561 C138.901206,11.8920006 138.26176,12.1595188 137.404065,12.1595188 C136.546371,12.1595188 135.906925,11.8920006 135.485708,11.3569561 C135.064492,10.8219116 134.853886,10.177828 134.853886,9.42468619 C134.853886,8.68409672 135.064492,8.04236673 135.485708,7.49947699 C135.906925,6.95658724 136.546371,6.68514644 137.404065,6.68514644 C138.26176,6.68514644 138.901206,6.95658724 139.322422,7.49947699 C139.743639,8.04236673 139.954244,8.68409672 139.954244,9.42468619 Z M143.773939,6.72751046 C144.289776,6.72751046 144.71175,6.8663689 145.039871,7.14408996 C145.367993,7.42181101 145.532051,7.88231896 145.532051,8.52562762 L145.532051,11.9806485 L144.195153,11.9806485 L144.195153,8.85983264 C144.195153,8.58995681 144.160052,8.38284591 144.08985,8.23849372 C143.961653,7.97489408 143.717473,7.84309623 143.357303,7.84309623 C142.91472,7.84309623 142.611021,8.03608594 142.446198,8.42207113 C142.360733,8.62604704 142.318002,8.88650469 142.318002,9.20345188 L142.318002,11.9806485 L141.017731,11.9806485 L141.017731,6.85930962 L142.276796,6.85930962 L142.276796,7.60774059 C142.444672,7.34414094 142.603389,7.15428928 142.752952,7.03817992 C143.021553,6.83106591 143.361879,6.72751046 143.773939,6.72751046 Z" id="Description" fill="#8C8C8C"></path>
        </g>
        <g id="Group-3-Copy" transform="translate(67.000000, 20.000000)" fill-rule="nonzero">
            <path d="M0.467948718,6.47191011 C0.467948718,4.36907359 1.00687058,2.7483884 2.08473047,1.60980592 C3.02199995,0.618313054 4.21439711,0.122574055 5.66195774,0.122574055 C7.59898132,0.122574055 9.01527838,0.787191175 9.91089144,2.11644535 C10.4055614,2.86278889 10.6711171,3.61184507 10.7075665,4.36363636 L8.30192022,4.36363636 C8.14570864,3.78617348 7.94524012,3.35035898 7.70050865,3.05617978 C7.26311623,2.53319453 6.6148479,2.27170582 5.75568422,2.27170582 C4.88089938,2.27170582 4.19097525,2.64078623 3.68589115,3.37895812 C3.18080704,4.11713001 2.92826878,5.1617229 2.92826878,6.51276813 C2.92826878,7.86381336 3.19512622,8.87572016 3.72884912,9.5485189 C4.26257201,10.2213176 4.94078044,10.557712 5.76349476,10.557712 C6.60703728,10.557712 7.25009864,10.2689848 7.69269811,9.69152196 C7.93742958,9.38099947 8.14050159,8.91522272 8.30192022,8.29417773 L10.6841349,8.29417773 C10.4758528,9.60708862 9.94343963,10.6748342 9.08687948,11.4974464 C8.23031932,12.3200586 7.13294944,12.7313585 5.79473692,12.7313585 C4.13889418,12.7313585 2.83715055,12.175695 1.88946698,11.0643514 C0.941783399,9.94755996 0.467948718,8.41676151 0.467948718,6.47191011 Z M17.2393856,8.06537283 C17.0987951,8.1579848 16.9569051,8.23289042 16.8137111,8.29009193 C16.6705172,8.34729344 16.4739539,8.40040834 16.2240154,8.4494382 L15.7241408,8.54749745 C15.2555061,8.63466165 14.9196562,8.74089144 14.7165812,8.86618999 C14.3729157,9.07865275 14.2010855,9.40823747 14.2010855,9.85495403 C14.2010855,10.2526407 14.3065268,10.5400059 14.5174124,10.7170582 C14.728298,10.8941105 14.9847415,10.9826353 15.2867506,10.9826353 C15.7657994,10.9826353 16.2070905,10.8355479 16.6106371,10.5413687 C17.0141837,10.2471895 17.2237644,9.71059293 17.2393856,8.93156282 L17.2393856,8.06537283 Z M15.8881622,6.97854954 C16.2995193,6.92407191 16.5937134,6.85597589 16.7707532,6.77425945 C17.0883834,6.63261761 17.2471961,6.41198652 17.2471961,6.11235955 C17.2471961,5.74735943 17.1261339,5.49540417 16.884006,5.35648621 C16.641878,5.21756825 16.286502,5.14811032 15.8178673,5.14811032 C15.291955,5.14811032 14.9196563,5.28430235 14.7009601,5.5566905 C14.5447485,5.75825773 14.440609,6.0306418 14.3885385,6.37385087 L12.24064,6.37385087 C12.2875035,5.59482076 12.4957825,4.9547182 12.8654832,4.453524 C13.4538802,3.66904613 14.4640332,3.27681307 15.8959727,3.27681307 C16.8280351,3.27681307 17.6559441,3.47020576 18.3797244,3.85699694 C19.1035047,4.24378811 19.4653894,4.97377741 19.4653894,6.04698672 L19.4653894,10.1327886 C19.4653894,10.4160722 19.4705964,10.7592762 19.4810105,11.1624106 C19.4966317,11.4674854 19.5408909,11.6744972 19.6137897,11.7834525 C19.6866884,11.8924078 19.7960349,11.9822945 19.9418324,12.0531154 L19.9418324,12.3963228 L17.520565,12.3963228 C17.4528733,12.2165466 17.4060105,12.0476685 17.3799753,11.8896834 C17.35394,11.7316982 17.3331121,11.5519247 17.317491,11.3503575 C17.0102748,11.6990143 16.6562006,11.995913 16.2552575,12.2410623 C15.7762087,12.5297937 15.2346833,12.6741573 14.6306652,12.6741573 C13.8600214,12.6741573 13.2234688,12.4439928 12.7209882,11.9836568 C12.2185077,11.5233208 11.9672711,10.870961 11.9672711,10.0265577 C11.9672711,8.93155734 12.3708117,8.13891971 13.1779048,7.64862104 C13.6205043,7.38168065 14.2713761,7.19101181 15.1305398,7.07660878 L15.8881622,6.97854954 Z M23.3806776,9.5526047 C23.4275411,9.96663469 23.5290771,10.2608095 23.6852887,10.4351379 C23.9612625,10.7456604 24.471546,10.9009193 25.2161545,10.9009193 C25.6535469,10.9009193 26.0011124,10.8328233 26.2588616,10.6966292 C26.5166107,10.5604351 26.6454833,10.3561471 26.6454833,10.0837589 C26.6454833,9.82226631 26.5413438,9.62342594 26.3330617,9.48723187 C26.1247796,9.35103779 25.3515439,9.1167875 24.0133313,8.78447395 C23.0500266,8.53387685 22.3705164,8.22063518 21.9747804,7.84473953 C21.5790444,7.47429164 21.3811794,6.94041888 21.3811794,6.24310521 C21.3811794,5.42049299 21.6896926,4.71365634 22.3067284,4.12257406 C22.9237641,3.53149177 23.7920271,3.23595506 24.9115434,3.23595506 C25.9737822,3.23595506 26.8394417,3.45794807 27.5085479,3.90194076 C28.1776542,4.34593344 28.5616686,5.11269459 28.6606026,6.20224719 L26.4345987,6.20224719 C26.4033564,5.90262022 26.3226483,5.66564609 26.192472,5.49131767 C25.9477405,5.17534742 25.5311825,5.01736466 24.9427856,5.01736466 C24.4585297,5.01736466 24.1135676,5.09635604 23.907889,5.25434116 C23.7022105,5.41232629 23.5993727,5.59754746 23.5993727,5.81001021 C23.5993727,6.0769506 23.7087192,6.27034329 23.9274154,6.39019408 C24.1461116,6.51549263 24.9193473,6.73067604 26.2471457,7.03575077 C27.1323447,7.25366129 27.7962339,7.58324601 28.2388334,8.02451481 C28.6762258,8.47123138 28.8949188,9.02961871 28.8949188,9.69969356 C28.8949188,10.5822312 28.5811985,11.302687 27.9537487,11.8610827 C27.3262989,12.4194784 26.3564999,12.6986721 25.0443226,12.6986721 C23.7061101,12.6986721 22.7180867,12.4031354 22.0802227,11.8120531 C21.4423588,11.2209708 21.1234316,10.4678289 21.1234316,9.5526047 L23.3806776,9.5526047 Z M34.1067566,5.17262513 C33.5912584,5.17262513 33.1916231,5.34150325 32.9078387,5.67926456 C32.6240543,6.01702586 32.4457155,6.47463109 32.3728167,7.05209397 L35.8328859,7.05209397 C35.7964365,6.43649675 35.6180976,5.96935808 35.2978639,5.65066394 C34.9776302,5.33196981 34.5805984,5.17262513 34.1067566,5.17262513 Z M34.1067566,3.25229826 C34.8149157,3.25229826 35.4527701,3.39121414 36.0203388,3.66905005 C36.5879076,3.94688597 37.0565353,4.38542431 37.426236,4.98467824 C37.7594874,5.51311126 37.9755768,6.1259754 38.0745108,6.82328907 C38.1317884,7.2318713 38.1552198,7.82022088 38.1448057,8.58835546 L32.3181429,8.58835546 C32.3493853,9.4817886 32.6175444,10.108272 33.1226285,10.4678243 C33.4298447,10.6911826 33.7995398,10.8028601 34.2317252,10.8028601 C34.6899458,10.8028601 35.0622445,10.666668 35.3486324,10.3942799 C35.504844,10.2471903 35.6428288,10.0429022 35.762591,9.7814096 L38.0354581,9.7814096 C37.9781806,10.3098426 37.7152283,10.8464392 37.2465936,11.3912155 C36.5176062,12.2574098 35.4970392,12.6905005 34.184862,12.6905005 C33.101795,12.6905005 32.1463152,12.3255059 31.3183938,11.5955056 C30.4904725,10.8655054 30.076518,9.67791085 30.076518,8.03268641 C30.076518,6.49096948 30.4501184,5.30882264 31.1973305,4.48621042 C31.9445425,3.6635982 32.9143415,3.25229826 34.1067566,3.25229826 Z M46.4205828,8.67824311 C46.4934816,9.22846717 46.6366734,9.63976711 46.8501625,9.91215526 C47.2406915,10.4079017 47.9097877,10.6557712 48.8574713,10.6557712 C49.42504,10.6557712 49.8858573,10.590399 50.2399368,10.4596527 C50.9116466,10.2090556 51.2474965,9.74327886 51.2474965,9.06230848 C51.2474965,8.66462178 51.0808733,8.35682778 50.7476219,8.13891726 C50.4143706,7.9264545 49.8910696,7.7385095 49.1777034,7.57507661 L47.9592592,7.28907048 C46.7616371,7.0057868 45.9337281,6.69799281 45.4755075,6.36567926 C44.6996567,5.81000744 44.3117371,4.94110227 44.3117371,3.75893769 C44.3117371,2.68028061 44.6866392,1.78413704 45.4364548,1.07048008 C46.1862704,0.356823126 47.2875455,0 48.7403132,0 C49.9535564,0 50.9884426,0.336394321 51.8450028,1.00919305 C52.7015629,1.68199179 53.1506645,2.65848866 53.1923209,3.93871297 L50.8804011,3.93871297 C50.8387447,3.21416049 50.5367402,2.69935461 49.9743785,2.39427988 C49.5994707,2.19271265 49.1334465,2.09193054 48.5762918,2.09193054 C47.9566526,2.09193054 47.46199,2.22267489 47.0922893,2.48416752 C46.7225885,2.74566014 46.5377409,3.11065479 46.5377409,3.57916241 C46.5377409,4.00953569 46.719985,4.33094889 47.0844787,4.54341164 C47.3187961,4.68505348 47.8186657,4.85120776 48.5841024,5.04187947 L50.5679795,5.54034729 C51.4375573,5.75825781 52.0936361,6.04970876 52.5362356,6.41470889 C53.2235665,6.98127624 53.5672268,7.80115228 53.5672268,8.87436159 C53.5672268,9.97480972 53.164988,10.8886583 52.3604984,11.6159346 C51.5560088,12.343211 50.4195866,12.7068437 48.9511978,12.7068437 C47.4515666,12.7068437 46.2721869,12.3486587 45.4130232,11.6322778 C44.5538595,10.915897 44.1242841,9.9312286 44.1242841,8.67824311 L46.4205828,8.67824311 Z M54.4988888,5.22982635 L54.4988888,3.57099081 L55.6860908,3.57099081 L55.6860908,1.08682329 L57.8886631,1.08682329 L57.8886631,3.57099081 L59.2711287,3.57099081 L59.2711287,5.22982635 L57.8886631,5.22982635 L57.8886631,9.93667007 C57.8886631,10.3016702 57.9329224,10.5291109 58.0214423,10.618999 C58.1099622,10.7088871 58.3807248,10.7538304 58.8337384,10.7538304 C58.9014301,10.7538304 58.973026,10.7524685 59.0485283,10.7497446 C59.1240305,10.7470208 59.1982299,10.742935 59.2711287,10.7374872 L59.2711287,12.4780388 L58.2167058,12.5188968 C57.1648811,12.5570312 56.4463187,12.3663623 56.0609968,11.9468846 C55.8110582,11.6799442 55.6860908,11.2686442 55.6860908,10.7129724 L55.6860908,5.22982635 L54.4988888,5.22982635 Z M63.1239325,3.48927477 L63.1239325,8.85801839 C63.1239325,9.36466035 63.1812092,9.74599804 63.2957644,10.0020429 C63.4988395,10.4542072 63.897173,10.680286 64.490777,10.680286 C65.2510067,10.680286 65.7717041,10.3588728 66.052885,9.71603677 C66.1986824,9.36737994 66.2715801,8.90705087 66.2715801,8.33503575 L66.2715801,3.48927477 L68.5288261,3.48927477 L68.5288261,12.3963228 L66.3653066,12.3963228 L66.3653066,11.1378958 C66.3444784,11.1651346 66.2924086,11.2468498 66.2090958,11.3830439 C66.1257829,11.519238 66.0268504,11.639087 65.9122953,11.7425945 C65.5634227,12.0694603 65.2262711,12.2928152 64.9008303,12.412666 C64.5753896,12.5325168 64.1939787,12.5924413 63.7565863,12.5924413 C62.4964795,12.5924413 61.6477427,12.118493 61.2103502,11.1705822 C60.9656188,10.647597 60.8432549,9.87675007 60.8432549,8.85801839 L60.8432549,3.48927477 L63.1239325,3.48927477 Z M74.0218434,3.27681307 C74.5373416,3.27681307 74.9955553,3.39530014 75.3964984,3.63227783 C75.7974414,3.86925553 76.1228773,4.19747832 76.3728159,4.61695608 L76.3728159,0.367722165 L78.6300619,0.367722165 L78.6300619,12.3963228 L76.4665423,12.3963228 L76.4665423,11.1624106 C76.1489121,11.6908436 75.7870274,12.0749052 75.3808773,12.3146067 C74.9747272,12.5543083 74.4696507,12.6741573 73.8656326,12.6741573 C72.8710855,12.6741573 72.0340644,12.2533239 71.354544,11.4116445 C70.6750236,10.5699651 70.3352685,9.48996233 70.3352685,8.17160368 C70.3352685,6.65167779 70.6698167,5.45591175 71.3389229,4.58426966 C72.0080292,3.71262758 72.902327,3.27681307 74.0218434,3.27681307 Z M74.5060968,10.7129724 C75.1361502,10.7129724 75.6151919,10.4678268 75.9432362,9.97752809 C76.2712805,9.48722942 76.4353002,8.85257455 76.4353002,8.07354443 C76.4353002,6.98399183 76.172348,6.2049734 75.6464357,5.73646578 C75.3235984,5.4531821 74.9486962,5.31154239 74.5217179,5.31154239 C73.8708363,5.31154239 73.3930964,5.56894533 73.0884838,6.08375894 C72.7838713,6.59857254 72.6315673,7.23731318 72.6315673,8 C72.6315673,8.82261222 72.7864748,9.48041973 73.0962944,9.97344229 C73.406114,10.4664648 73.8760435,10.7129724 74.5060968,10.7129724 Z M81.2019372,14.1041879 L81.4831167,14.1205312 C81.7018129,14.1314267 81.9100918,14.1232552 82.1079598,14.0960163 C82.3058278,14.0687775 82.472451,14.0061292 82.6078344,13.9080695 C82.7380107,13.8154575 82.8590729,13.6220648 82.9710245,13.3278856 C83.0829761,13.0337064 83.1285372,12.8539329 83.107709,12.7885598 L79.983493,3.48927477 L82.4594341,3.48927477 L84.3183426,10.0592441 L86.0757141,3.48927477 L88.4423077,3.48927477 L85.5211658,12.2492339 C84.9588041,13.9380404 84.5136078,14.9853572 84.1855635,15.3912155 C83.8575191,15.7970739 83.2014404,16 82.2173074,16 C82.0194394,16 81.8606267,15.9986381 81.7408645,15.9959142 C81.6211023,15.9931903 81.4414616,15.9836569 81.2019372,15.9673136 L81.2019372,14.1041879 Z" id="CaseStudy" fill="#FFFFFF"></path>
            <path d="M95.4266393,6.24738494 L95.4266393,10.7756276 L96.72691,10.7756276 C97.3923101,10.7756276 97.8562518,10.4382879 98.118749,9.76359833 C98.2622069,9.39330359 98.3339347,8.95240842 98.3339347,8.44089958 C98.3339347,7.73482911 98.2263429,7.19273202 98.0111562,6.81459205 C97.7959695,6.43645208 97.3678917,6.24738494 96.72691,6.24738494 L95.4266393,6.24738494 Z M96.9649877,5.04236402 C97.383152,5.0486402 97.7311083,5.0988489 98.008867,5.19299163 C98.4819726,5.35303427 98.8650297,5.64644138 99.1580499,6.07322176 C99.3930766,6.41841177 99.5533196,6.791839 99.6387838,7.19351464 C99.724248,7.59519029 99.7669795,7.97803165 99.7669795,8.34205021 C99.7669795,9.26464896 99.5868969,10.0460219 99.2267262,10.6861925 C98.7383592,11.5491675 97.9844539,11.9806485 96.9649877,11.9806485 L94.0576923,11.9806485 L94.0576923,5.04236402 L96.9649877,5.04236402 Z M102.812922,7.81956067 C102.510744,7.81956067 102.276484,7.91684003 102.110134,8.11140167 C101.943784,8.30596332 101.839245,8.56955901 101.796513,8.90219665 L103.824752,8.90219665 C103.803386,8.54759237 103.698846,8.2785051 103.51113,8.09492678 C103.323414,7.91134845 103.09068,7.81956067 102.812922,7.81956067 Z M102.812922,6.71338912 C103.228034,6.71338912 103.601934,6.79340924 103.934634,6.95345188 C104.267334,7.11349452 104.542036,7.36610706 104.758749,7.71129707 C104.954096,8.0156919 105.080764,8.36872184 105.138758,8.77039749 C105.172333,9.00575431 105.186068,9.34466306 105.179964,9.78713389 L101.764464,9.78713389 C101.782778,10.3017808 101.939968,10.6626559 102.236041,10.8697699 C102.416126,10.9984316 102.632836,11.0627615 102.886176,11.0627615 C103.154778,11.0627615 103.373014,10.9843104 103.54089,10.8274059 C103.632459,10.7426774 103.713343,10.6250008 103.783546,10.4743724 L105.115866,10.4743724 C105.082291,10.7787672 104.928152,11.0878645 104.653446,11.4016736 C104.226124,11.9006301 103.627884,12.1501046 102.858706,12.1501046 C102.223829,12.1501046 101.663741,11.9398557 101.178426,11.5193515 C100.693112,11.0988473 100.450458,10.4147537 100.450458,9.46705021 C100.450458,8.57897046 100.669457,7.89801492 101.107461,7.42416318 C101.545465,6.95031144 102.113946,6.71338912 102.812922,6.71338912 Z M107.195762,10.3425732 C107.223232,10.5810681 107.282751,10.7505225 107.37432,10.8509414 C107.536092,11.0298126 107.835212,11.1192469 108.27169,11.1192469 C108.528083,11.1192469 108.73182,11.0800213 108.882909,11.001569 C109.033997,10.9231168 109.10954,10.8054401 109.10954,10.6485356 C109.10954,10.4979072 109.048495,10.3833686 108.926404,10.3049163 C108.804312,10.226464 108.351053,10.0915282 107.566614,9.9001046 C107.001939,9.75575242 106.603621,9.57531489 106.371646,9.35878661 C106.139672,9.14539642 106.023687,8.83786812 106.023687,8.43619247 C106.023687,7.96234073 106.204532,7.55517953 106.566229,7.21469665 C106.927926,6.87421378 107.436888,6.7039749 108.093132,6.7039749 C108.7158,6.7039749 109.223236,6.83185019 109.615456,7.0876046 C110.007675,7.34335902 110.232779,7.7850387 110.290772,8.4126569 L108.985923,8.4126569 C108.967609,8.2400619 108.920299,8.10355699 108.843992,8.00313808 C108.700534,7.8211288 108.456354,7.73012552 108.111445,7.73012552 C107.827582,7.73012552 107.62537,7.77562716 107.504805,7.8666318 C107.384239,7.95763644 107.323957,8.06432993 107.323957,8.18671548 C107.323957,8.34048194 107.388055,8.4518825 107.516251,8.5209205 C107.644447,8.5930966 108.097706,8.71704933 108.876041,8.89278243 C109.394931,9.01830607 109.784093,9.20815772 110.043538,9.4623431 C110.29993,9.71966656 110.428125,10.0413161 110.428125,10.4273013 C110.428125,10.935672 110.244227,11.3506783 109.876425,11.6723326 C109.508624,11.993987 108.940143,12.1548117 108.170965,12.1548117 C107.386525,12.1548117 106.807361,11.9845728 106.433455,11.64409 C106.059549,11.3036071 105.872599,10.8697725 105.872599,10.3425732 L107.195762,10.3425732 Z M114.495054,8.69037657 C114.470636,8.49895302 114.408065,8.3263606 114.307339,8.17259414 C114.160829,7.96548014 113.933436,7.86192469 113.625155,7.86192469 C113.185624,7.86192469 112.884978,8.08629483 112.723206,8.53504184 C112.637742,8.77353676 112.595011,9.09047919 112.595011,9.48587866 C112.595011,9.86244958 112.637742,10.1652708 112.723206,10.3943515 C112.878873,10.8211318 113.171889,11.0345188 113.602263,11.0345188 C113.907492,11.0345188 114.124202,10.9497916 114.252398,10.7803347 C114.380594,10.6108778 114.458427,10.3912147 114.485897,10.1213389 L115.818217,10.1213389 C115.787694,10.5292907 115.644238,10.9152701 115.387846,11.2792887 C114.978838,11.8661117 114.372967,12.1595188 113.570214,12.1595188 C112.76746,12.1595188 112.17685,11.9147514 111.798366,11.4252092 C111.419881,10.935667 111.230642,10.3002131 111.230642,9.51882845 C111.230642,8.63702488 111.439721,7.95136228 111.857885,7.46182008 C112.27605,6.97227789 112.852924,6.72751046 113.588527,6.72751046 C114.214248,6.72751046 114.726262,6.87186048 115.124586,7.16056485 C115.522911,7.44926923 115.758697,7.95920137 115.831952,8.69037657 L114.495054,8.69037657 Z M119.560078,6.72751046 C119.584497,6.72751046 119.605099,6.72829497 119.621887,6.72986402 C119.638675,6.73143306 119.676065,6.7337866 119.734058,6.73692469 L119.734058,8.11140167 C119.651646,8.1019874 119.578392,8.09571131 119.514294,8.09257322 C119.450196,8.08943513 119.398308,8.08786611 119.358628,8.08786611 C118.833633,8.08786611 118.481099,8.26359657 118.301013,8.61506276 C118.200288,8.81276249 118.149926,9.11715276 118.149926,9.52824268 L118.149926,11.9806485 L116.83592,11.9806485 L116.83592,6.8498954 L118.081249,6.8498954 L118.081249,7.74424686 C118.282701,7.40219494 118.458205,7.16841067 118.607767,7.04288703 C118.851951,6.83263493 119.169385,6.72751046 119.560078,6.72751046 Z M121.960463,6.23797071 L120.637301,6.23797071 L120.637301,5 L121.960463,5 L121.960463,6.23797071 Z M120.637301,6.8498954 L121.960463,6.8498954 L121.960463,11.9806485 L120.637301,11.9806485 L120.637301,6.8498954 Z M126.782832,9.41527197 C126.782832,9.0198725 126.69508,8.6699806 126.519573,8.36558577 C126.344066,8.06119095 126.059444,7.90899582 125.665698,7.90899582 C125.192592,7.90899582 124.867528,8.13964204 124.690495,8.60094142 C124.598926,8.84571252 124.553142,9.15637887 124.553142,9.53294979 C124.553142,10.1291871 124.707281,10.5481159 125.015562,10.789749 C125.1987,10.930963 125.41541,11.001569 125.665698,11.001569 C126.028921,11.001569 126.305912,10.857219 126.496681,10.5685146 C126.687449,10.2798103 126.782832,9.89539989 126.782832,9.41527197 Z M126.041128,6.73692469 C126.624116,6.73692469 127.117817,6.95815678 127.522246,7.40062762 C127.926675,7.84309845 128.128887,8.49267354 128.128887,9.34937238 C128.128887,10.2531426 127.931254,10.9419432 127.535981,11.415795 C127.140709,11.8896467 126.631747,12.126569 126.009079,12.126569 C125.612281,12.126569 125.282638,12.0245826 125.020141,11.8206067 C124.876683,11.7076354 124.73628,11.5428881 124.598926,11.3263598 L124.598926,14 L123.307812,14 L123.307812,6.8498954 L124.557721,6.8498954 L124.557721,7.60774059 C124.698126,7.38493612 124.847686,7.20920566 125.006406,7.08054393 C125.296373,6.85146329 125.641278,6.73692469 126.041128,6.73692469 Z M128.679591,7.85251046 L128.679591,6.89696653 L129.37551,6.89696653 L129.37551,5.46600418 L130.666624,5.46600418 L130.666624,6.89696653 L131.477004,6.89696653 L131.477004,7.85251046 L130.666624,7.85251046 L130.666624,10.5638075 C130.666624,10.7740596 130.692568,10.905073 130.744457,10.9568515 C130.796346,11.00863 130.955063,11.0345188 131.220613,11.0345188 C131.260293,11.0345188 131.302261,11.0337343 131.346519,11.0321653 C131.390778,11.0305962 131.434272,11.0282427 131.477004,11.0251046 L131.477004,12.0277197 L130.858918,12.0512552 C130.242354,12.0732219 129.821144,11.9633903 129.595274,11.7217573 C129.448764,11.5679909 129.37551,11.3310685 129.37551,11.0109833 L129.37551,7.85251046 L128.679591,7.85251046 Z M133.776664,6.23797071 L132.453501,6.23797071 L132.453501,5 L133.776664,5 L133.776664,6.23797071 Z M132.453501,6.8498954 L133.776664,6.8498954 L133.776664,11.9806485 L132.453501,11.9806485 L132.453501,6.8498954 Z M137.399487,11.0345188 C137.781024,11.0345188 138.074039,10.8948759 138.278543,10.6155858 C138.483047,10.3362957 138.585297,9.93933312 138.585297,9.42468619 C138.585297,8.91003927 138.483047,8.51386122 138.278543,8.23614017 C138.074039,7.95841911 137.781024,7.81956067 137.399487,7.81956067 C137.01795,7.81956067 136.724171,7.95841911 136.518141,8.23614017 C136.312112,8.51386122 136.209098,8.91003927 136.209098,9.42468619 C136.209098,9.93933312 136.312112,10.3362957 136.518141,10.6155858 C136.724171,10.8948759 137.01795,11.0345188 137.399487,11.0345188 Z M139.954244,9.42468619 C139.954244,10.177828 139.743639,10.8219116 139.322422,11.3569561 C138.901206,11.8920006 138.26176,12.1595188 137.404065,12.1595188 C136.546371,12.1595188 135.906925,11.8920006 135.485708,11.3569561 C135.064492,10.8219116 134.853886,10.177828 134.853886,9.42468619 C134.853886,8.68409672 135.064492,8.04236673 135.485708,7.49947699 C135.906925,6.95658724 136.546371,6.68514644 137.404065,6.68514644 C138.26176,6.68514644 138.901206,6.95658724 139.322422,7.49947699 C139.743639,8.04236673 139.954244,8.68409672 139.954244,9.42468619 Z M143.773939,6.72751046 C144.289776,6.72751046 144.71175,6.8663689 145.039871,7.14408996 C145.367993,7.42181101 145.532051,7.88231896 145.532051,8.52562762 L145.532051,11.9806485 L144.195153,11.9806485 L144.195153,8.85983264 C144.195153,8.58995681 144.160052,8.38284591 144.08985,8.23849372 C143.961653,7.97489408 143.717473,7.84309623 143.357303,7.84309623 C142.91472,7.84309623 142.611021,8.03608594 142.446198,8.42207113 C142.360733,8.62604704 142.318002,8.88650469 142.318002,9.20345188 L142.318002,11.9806485 L141.017731,11.9806485 L141.017731,6.85930962 L142.276796,6.85930962 L142.276796,7.60774059 C142.444672,7.34414094 142.603389,7.15428928 142.752952,7.03817992 C143.021553,6.83106591 143.361879,6.72751046 143.773939,6.72751046 Z" id="Description" fill="#8C8C8C"></path>
        </g>
        <g id="Group-3" transform="translate(69.000000, 177.000000)" fill-rule="nonzero">
            <path d="M3.82362988,2.23712949 C3.82362988,1.87831334 3.72993717,1.62246566 3.54254894,1.46957878 C3.35516072,1.3166919 3.09266627,1.24024961 2.75505774,1.24024961 L1.42166554,1.24024961 L1.42166554,3.27145086 L2.75505774,3.27145086 C3.09266627,3.27145086 3.35516072,3.18876838 3.54254894,3.02340094 C3.72993717,2.85803349 3.82362988,2.59594563 3.82362988,2.23712949 Z M5.24064946,2.22776911 C5.24064946,3.04212576 5.036229,3.61778303 4.62738197,3.95475819 C4.21853493,4.29173335 3.63469773,4.46021841 2.87585285,4.46021841 L1.42166554,4.46021841 L1.42166554,6.94071763 L0,6.94071763 L0,0.0421216849 L2.98271006,0.0421216849 C3.67031644,0.0421216849 4.21853493,0.21996702 4.62738197,0.575663027 C5.036229,0.931359033 5.24064946,1.48205555 5.24064946,2.22776911 Z M9.07953045,1.71762871 C9.10430906,1.71762871 9.12521569,1.71840873 9.14225099,1.7199688 C9.15928628,1.72152887 9.19722795,1.72386894 9.25607715,1.72698908 L9.25607715,3.09360374 C9.17244935,3.08424332 9.09811464,3.07800314 9.03307079,3.074883 C8.96802694,3.07176285 8.91537319,3.07020281 8.87510795,3.07020281 C8.34236787,3.07020281 7.98463208,3.24492805 7.80188984,3.59438378 C7.69967808,3.79095262 7.64857297,4.0936017 7.64857297,4.50234009 L7.64857297,6.94071763 L6.31518078,6.94071763 L6.31518078,1.83931357 L7.57888348,1.83931357 L7.57888348,2.72854914 C7.783307,2.38845384 7.96140058,2.15600686 8.11316955,2.03120125 C8.36095564,1.82215184 8.68307271,1.71762871 9.07953045,1.71762871 Z M12.4259391,6 C12.8131048,6 13.1104437,5.86115583 13.3179645,5.58346334 C13.5254853,5.30577084 13.6292442,4.911079 13.6292442,4.39937598 C13.6292442,3.88767295 13.5254853,3.49376113 13.3179645,3.21762871 C13.1104437,2.94149628 12.8131048,2.80343214 12.4259391,2.80343214 C12.0387733,2.80343214 11.7406601,2.94149628 11.5315906,3.21762871 C11.3225211,3.49376113 11.2179879,3.88767295 11.2179879,4.39937598 C11.2179879,4.911079 11.3225211,5.30577084 11.5315906,5.58346334 C11.7406601,5.86115583 12.0387733,6 12.4259391,6 Z M15.018388,4.39937598 C15.018388,5.14820967 14.8046757,5.78860888 14.3772447,6.32059282 C13.9498137,6.85257676 13.3009336,7.11856474 12.430585,7.11856474 C11.5602364,7.11856474 10.9113563,6.85257676 10.4839253,6.32059282 C10.0564944,5.78860888 9.84278206,5.14820967 9.84278206,4.39937598 C9.84278206,3.66302284 10.0564944,3.0249637 10.4839253,2.48517941 C10.9113563,1.94539512 11.5602364,1.67550702 12.430585,1.67550702 C13.3009336,1.67550702 13.9498137,1.94539512 14.3772447,2.48517941 C14.8046757,3.0249637 15.018388,3.66302284 15.018388,4.39937598 Z M17.4727712,1.23088924 L16.1486709,1.23088924 L16.1486709,0 L17.4727712,0 L17.4727712,1.23088924 Z M15.5121736,7.91887676 C15.5865094,7.92511704 15.6391632,7.92901715 15.6701364,7.93057722 C15.7011097,7.93213729 15.7289852,7.93291732 15.7537638,7.93291732 C15.8838515,7.93291732 15.9821901,7.90093636 16.0487826,7.83697348 C16.1153752,7.7730106 16.1486709,7.64898688 16.1486709,7.4648986 L16.1486709,1.86271451 L17.4727712,1.86271451 L17.4727712,7.48829953 C17.4727712,8.0031227 17.3721096,8.38377412 17.1707834,8.63026521 C16.9694572,8.8767563 16.574554,9 15.9860621,9 C15.9457969,9 15.8861742,8.99843995 15.8071924,8.99531981 C15.7282106,8.99219967 15.629872,8.98907958 15.5121736,8.98595944 L15.5121736,7.91887676 Z M20.8517015,2.80343214 C20.5450663,2.80343214 20.3073501,2.90015504 20.1385458,3.09360374 C19.9697415,3.28705245 19.8636597,3.54914031 19.8202971,3.8798752 L21.87846,3.8798752 C21.8567787,3.52729933 21.7506969,3.2597513 21.5602113,3.07722309 C21.3697258,2.89469488 21.1335582,2.80343214 20.8517015,2.80343214 Z M20.8517015,1.70358814 C21.2729379,1.70358814 21.6523546,1.78315053 21.9899632,1.94227769 C22.3275717,2.10140485 22.6063269,2.35257239 22.826237,2.69578783 C23.0244659,2.99844145 23.153003,3.34945198 23.2118522,3.74882995 C23.2459228,3.98284048 23.2598605,4.31981059 23.2536659,4.75975039 L19.7877754,4.75975039 C19.8063593,5.27145342 19.9658692,5.63026418 20.2663098,5.83619345 C20.4490521,5.9641192 20.6689589,6.02808112 20.926037,6.02808112 C21.1986017,6.02808112 21.4200572,5.95007878 21.5904101,5.79407176 C21.6833299,5.70982797 21.7654078,5.59282446 21.8366463,5.44305772 L23.1886224,5.44305772 C23.1545518,5.74571134 22.9981391,6.05304056 22.7193798,6.3650546 C22.2857542,6.86115693 21.6786874,7.10920437 20.8981612,7.10920437 C20.2539174,7.10920437 19.6855666,6.9001581 19.1930917,6.48205928 C18.7006169,6.06396047 18.4543832,5.38378006 18.4543832,4.44149766 C18.4543832,3.55849793 18.676613,2.88143761 19.1210793,2.41029641 C19.5655456,1.93915521 20.1424139,1.70358814 20.8517015,1.70358814 Z M27.2923234,3.66926677 C27.2675448,3.47893821 27.2040506,3.30733306 27.1018388,3.15444618 C26.9531671,2.94851691 26.7224198,2.84555382 26.4095899,2.84555382 C25.9635749,2.84555382 25.6584929,3.06864051 25.4943346,3.51482059 C25.4076095,3.75195126 25.3642476,4.06708072 25.3642476,4.46021841 C25.3642476,4.83463526 25.4076095,5.13572429 25.4943346,5.36349454 C25.6522983,5.78783363 25.9496371,6 26.3863601,6 C26.6960927,6 26.9159995,5.91575747 27.0460872,5.74726989 C27.1761749,5.57878231 27.2551555,5.36037576 27.2830315,5.09204368 L28.6350075,5.09204368 C28.6040343,5.49766193 28.4584621,5.88143345 28.1982867,6.24336973 C27.783245,6.82683599 27.168435,7.11856474 26.3538383,7.11856474 C25.5392416,7.11856474 24.939918,6.87519744 24.5558495,6.38845554 C24.1717811,5.90171363 23.9797498,5.26989468 23.9797498,4.49297972 C23.9797498,3.61622027 24.1919134,2.93447981 24.6162471,2.44773791 C25.0405807,1.96099601 25.6259666,1.71762871 26.3724222,1.71762871 C27.007374,1.71762871 27.5269427,1.86115301 27.9311437,2.14820593 C28.3353447,2.43525885 28.5746096,2.94227406 28.6489454,3.66926677 L27.2923234,3.66926677 Z M29.1613149,2.83619345 L29.1613149,1.88611544 L29.8675017,1.88611544 L29.8675017,0.463338534 L31.177664,0.463338534 L31.177664,1.88611544 L32,1.88611544 L32,2.83619345 L31.177664,2.83619345 L31.177664,5.53198128 C31.177664,5.74103069 31.2039909,5.87129459 31.2566455,5.92277691 C31.3093,5.97425923 31.4703585,6 31.7398259,6 C31.7800912,6 31.8226787,5.99921998 31.86759,5.99765991 C31.9125012,5.99609984 31.9566374,5.99375977 32,5.99063963 L32,6.9875195 L31.3727946,7.01092044 C30.7471348,7.03276142 30.3197102,6.92355814 30.090508,6.68330733 C29.9418364,6.53042045 29.8675017,6.29485339 29.8675017,5.97659906 L29.8675017,2.83619345 L29.1613149,2.83619345 Z" id="Project" fill="#FFFFFF"></path>
            <path d="M34.8244368,3.69299163 L34.8244368,6.20868201 L35.6075139,6.20868201 C36.0082455,6.20868201 36.2876505,6.02127105 36.4457373,5.64644351 C36.5321335,5.44072422 36.575331,5.19578245 36.575331,4.91161088 C36.575331,4.5193495 36.5105348,4.21818445 36.3809404,4.00810669 C36.251346,3.79802894 35.9935398,3.69299163 35.6075139,3.69299163 L34.8244368,3.69299163 Z M35.7508942,3.02353556 C36.0027301,3.02702233 36.2122839,3.05491606 36.3795617,3.10721757 C36.6644856,3.19613015 36.8951785,3.3591341 37.0716475,3.59623431 C37.2131903,3.78800654 37.3096953,3.99546611 37.3611654,4.21861925 C37.4126355,4.44177238 37.4383702,4.65446203 37.4383702,4.85669456 C37.4383702,5.36924942 37.329917,5.8033455 37.1130072,6.15899582 C36.8188923,6.63842639 36.3648591,6.87813808 35.7508942,6.87813808 L34,6.87813808 L34,3.02353556 L35.7508942,3.02353556 Z M39.2727632,4.56642259 C39.0907796,4.56642259 38.9496985,4.62046668 38.8495156,4.72855649 C38.7493327,4.83664629 38.6863746,4.98308834 38.6606396,5.16788703 L39.8821296,5.16788703 C39.869262,4.97088465 39.806304,4.82139172 39.6932536,4.71940377 C39.5802031,4.61741581 39.4400411,4.56642259 39.2727632,4.56642259 Z M39.2727632,3.95188285 C39.5227609,3.95188285 39.7479393,3.99633847 39.9483051,4.08525105 C40.1486709,4.17416362 40.314108,4.31450392 40.4446216,4.50627615 C40.5622675,4.67538439 40.6385524,4.87151213 40.6734786,5.09466527 C40.693699,5.22541906 40.7019709,5.4137017 40.6982944,5.65951883 L38.6413384,5.65951883 C38.6523677,5.94543379 38.7470345,6.14591993 38.9253417,6.26098326 C39.0337966,6.332462 39.1643081,6.36820084 39.3168802,6.36820084 C39.4786435,6.36820084 39.6100741,6.32461689 39.7111761,6.2374477 C39.7663227,6.19037633 39.8150347,6.12500042 39.8573137,6.04131799 L40.659692,6.04131799 C40.6394716,6.21042623 40.546643,6.38214697 40.3812033,6.55648536 C40.1238528,6.83368339 39.7635674,6.97228033 39.3003364,6.97228033 C38.9179869,6.97228033 38.5806789,6.85547537 38.2884022,6.62186192 C37.9961255,6.38824848 37.8499893,6.0081965 37.8499893,5.48169456 C37.8499893,4.98831692 37.9818795,4.61000829 38.2456639,4.34675732 C38.5094482,4.08350635 38.8518112,3.95188285 39.2727632,3.95188285 Z M41.9122918,5.96809623 C41.9288358,6.10059341 41.9646805,6.19473473 42.0198271,6.25052301 C42.1172526,6.34989589 42.2973953,6.39958159 42.5602606,6.39958159 C42.7146709,6.39958159 42.8373701,6.37778962 42.9283619,6.33420502 C43.0193537,6.29062042 43.064849,6.22524451 43.064849,6.13807531 C43.064849,6.05439289 43.0280851,5.99076033 42.9545564,5.94717573 C42.8810277,5.90359113 42.6080564,5.82862675 42.1356342,5.72228033 C41.7955638,5.64208468 41.5556799,5.54184161 41.4159754,5.42154812 C41.2762708,5.30299801 41.2064195,5.13214895 41.2064195,4.90899582 C41.2064195,4.64574485 41.3153323,4.41954418 41.5331612,4.23038703 C41.7509901,4.04122988 42.0575084,3.94665272 42.4527253,3.94665272 C42.8277219,3.94665272 43.1333211,4.01769455 43.3695321,4.15978033 C43.6057432,4.30186612 43.7413098,4.54724372 43.7762359,4.8959205 L42.9904015,4.8959205 C42.9793722,4.80003439 42.9508802,4.72419833 42.9049248,4.66841004 C42.8185285,4.56729378 42.6714732,4.5167364 42.4637546,4.5167364 C42.2928003,4.5167364 42.1710201,4.54201509 42.0984105,4.59257322 C42.0258009,4.64313135 41.9894966,4.70240552 41.9894966,4.77039749 C41.9894966,4.8558233 42.0280986,4.9177125 42.1053038,4.95606695 C42.182509,4.99616478 42.4554803,5.06502741 42.924226,5.1626569 C43.2367231,5.23239226 43.4710924,5.3378654 43.627341,5.4790795 C43.7817513,5.62203698 43.8589553,5.80073115 43.8589553,6.01516736 C43.8589553,6.29759555 43.7482043,6.52815462 43.526699,6.70685146 C43.3051937,6.88554831 42.9628307,6.9748954 42.4995996,6.9748954 C42.0271775,6.9748954 41.6783808,6.88031824 41.4531991,6.69116109 C41.2280173,6.50200394 41.1154282,6.26098473 41.1154282,5.96809623 L41.9122918,5.96809623 Z M46.3082293,5.05020921 C46.2935235,4.94386279 46.2558406,4.84797811 46.1951794,4.7625523 C46.1069449,4.64748896 45.9699997,4.58995816 45.7843397,4.58995816 C45.5196362,4.58995816 45.3385744,4.71460824 45.2411489,4.96391213 C45.1896788,5.09640931 45.1639441,5.27248844 45.1639441,5.49215481 C45.1639441,5.70136088 45.1896788,5.8695949 45.2411489,5.99686192 C45.334898,6.23396213 45.5113643,6.35251046 45.7705531,6.35251046 C45.9543749,6.35251046 46.0848865,6.3054398 46.1620916,6.21129707 C46.2392968,6.11715434 46.2861707,5.9951193 46.3027146,5.84518828 L47.1050929,5.84518828 C47.0867108,6.07182819 47.0003158,6.28626119 46.8459055,6.48849372 C46.5995842,6.81450651 46.2347033,6.97751046 45.7512519,6.97751046 C45.2678005,6.97751046 44.9121106,6.84152856 44.6841715,6.56956067 C44.4562324,6.29759278 44.3422646,5.94456284 44.3422646,5.51046025 C44.3422646,5.02056938 44.4681807,4.63964571 44.7200166,4.36767782 C44.9718525,4.09570994 45.3192705,3.95972803 45.7622812,3.95972803 C46.1391159,3.95972803 46.4474724,4.03992249 46.6873599,4.20031381 C46.9272474,4.36070513 47.0692476,4.64400076 47.1133649,5.05020921 L46.3082293,5.05020921 Z M49.3585976,3.95972803 C49.3733034,3.95972803 49.3857112,3.96016387 49.3958214,3.96103556 C49.4059316,3.96190726 49.4284494,3.96321478 49.4633756,3.96495816 L49.4633756,4.72855649 C49.4137437,4.72332633 49.3696271,4.71983962 49.3310245,4.71809623 C49.2924219,4.71635285 49.2611727,4.71548117 49.2372758,4.71548117 C48.9211023,4.71548117 48.7087912,4.81310921 48.6003364,5.0083682 C48.5396751,5.11820139 48.509345,5.28730709 48.509345,5.51569038 L48.509345,6.87813808 L47.717996,6.87813808 L47.717996,4.02771967 L48.4679853,4.02771967 L48.4679853,4.52458159 C48.5893077,4.33455275 48.6950037,4.20467259 48.7850764,4.13493724 C48.9321338,4.01813052 49.1233057,3.95972803 49.3585976,3.95972803 Z M50.8042094,3.68776151 L50.0073457,3.68776151 L50.0073457,3 L50.8042094,3 L50.8042094,3.68776151 Z M50.0073457,4.02771967 L50.8042094,4.02771967 L50.8042094,6.87813808 L50.0073457,6.87813808 L50.0073457,4.02771967 Z M53.7084401,5.45292887 C53.7084401,5.2332625 53.6555921,5.03887811 53.5498946,4.86976987 C53.444197,4.70066164 53.2727857,4.61610879 53.0356556,4.61610879 C52.7507317,4.61610879 52.5549644,4.74424558 52.4483477,5.00052301 C52.3932012,5.13650696 52.3656283,5.30909937 52.3656283,5.51830544 C52.3656283,5.84954838 52.458457,6.08228664 52.644117,6.2165272 C52.7544101,6.29497947 52.8849217,6.33420502 53.0356556,6.33420502 C53.2544036,6.33420502 53.4212194,6.25401056 53.536108,6.09361925 C53.6509967,5.93322793 53.7084401,5.71966661 53.7084401,5.45292887 Z M53.2617553,3.96495816 C53.612855,3.96495816 53.9101824,4.08786488 54.1537463,4.33368201 C54.3973102,4.57949914 54.5190904,4.94037419 54.5190904,5.41631799 C54.5190904,5.91841255 54.4000675,6.30107958 54.1620182,6.56433054 C53.923969,6.82758151 53.6174506,6.95920502 53.2424541,6.95920502 C53.0034857,6.95920502 52.8049611,6.90254589 52.6468743,6.78922594 C52.5604781,6.72646412 52.4759213,6.63493784 52.3932015,6.51464435 L52.3932015,8 L51.615639,8 L51.615639,4.02771967 L52.3683856,4.02771967 L52.3683856,4.44874477 C52.4529437,4.32496451 52.543015,4.22733648 52.6386024,4.15585774 C52.8132331,4.02859072 53.0209487,3.96495816 53.2617553,3.96495816 Z M54.8507474,4.58472803 L54.8507474,4.05387029 L55.2698591,4.05387029 L55.2698591,3.25889121 L56.0474215,3.25889121 L56.0474215,4.05387029 L56.5354661,4.05387029 L56.5354661,4.58472803 L56.0474215,4.58472803 L56.0474215,6.09100418 C56.0474215,6.2078109 56.0630462,6.28059609 56.0942959,6.30936192 C56.1255456,6.33812776 56.2211315,6.35251046 56.3810565,6.35251046 C56.4049533,6.35251046 56.4302285,6.35207462 56.4568826,6.35120293 C56.4835368,6.35033124 56.509731,6.34902372 56.5354661,6.34728033 L56.5354661,6.9042887 L56.1632287,6.91736402 C55.7919086,6.9295677 55.5382383,6.86855018 55.4022101,6.73430962 C55.3139756,6.64888381 55.2698591,6.5172603 55.2698591,6.33943515 L55.2698591,4.58472803 L54.8507474,4.58472803 Z M57.9204169,3.68776151 L57.1235533,3.68776151 L57.1235533,3 L57.9204169,3 L57.9204169,3.68776151 Z M57.1235533,4.02771967 L57.9204169,4.02771967 L57.9204169,6.87813808 L57.1235533,6.87813808 L57.1235533,4.02771967 Z M60.1022314,6.35251046 C60.3320087,6.35251046 60.5084751,6.27493104 60.6316357,6.11976987 C60.7547963,5.96460871 60.8163757,5.74407395 60.8163757,5.458159 C60.8163757,5.17224404 60.7547963,4.95214512 60.6316357,4.79785565 C60.5084751,4.64356617 60.3320087,4.56642259 60.1022314,4.56642259 C59.8724542,4.56642259 59.6955283,4.64356617 59.5714486,4.79785565 C59.4473688,4.95214512 59.3853299,5.17224404 59.3853299,5.458159 C59.3853299,5.74407395 59.4473688,5.96460871 59.5714486,6.11976987 C59.6955283,6.27493104 59.8724542,6.35251046 60.1022314,6.35251046 Z M61.6408125,5.458159 C61.6408125,5.87657113 61.5139773,6.23439531 61.2603032,6.53164226 C61.0066291,6.82888921 60.6215281,6.97751046 60.1049888,6.97751046 C59.5884494,6.97751046 59.2033484,6.82888921 58.9496743,6.53164226 C58.6960002,6.23439531 58.569165,5.87657113 58.569165,5.458159 C58.569165,5.0467204 58.6960002,4.69020374 58.9496743,4.38859833 C59.2033484,4.08699291 59.5884494,3.93619247 60.1049888,3.93619247 C60.6215281,3.93619247 61.0066291,4.08699291 61.2603032,4.38859833 C61.5139773,4.69020374 61.6408125,5.0467204 61.6408125,5.458159 Z M63.9411915,3.95972803 C64.2518504,3.95972803 64.5059803,4.03687161 64.7035888,4.19116109 C64.9011972,4.34545056 65,4.60128831 65,4.95868201 L65,6.87813808 L64.1948644,6.87813808 L64.1948644,5.14435146 C64.1948644,4.99442045 64.1737252,4.87935884 64.1314462,4.79916318 C64.054241,4.65271893 63.9071857,4.57949791 63.690276,4.57949791 C63.4237343,4.57949791 63.2408343,4.68671441 63.1415705,4.90115063 C63.0901004,5.01447058 63.0643658,5.15916927 63.0643658,5.33525105 L63.0643658,6.87813808 L62.2812887,6.87813808 L62.2812887,4.03294979 L63.0395499,4.03294979 L63.0395499,4.44874477 C63.1406519,4.30230052 63.2362379,4.19682738 63.3263106,4.13232218 C63.4880738,4.01725884 63.6930321,3.95972803 63.9411915,3.95972803 Z" id="Description" fill="#8C8C8C"></path>
        </g>
        <g id="Group-3" transform="translate(69.000000, 192.000000)" fill-rule="nonzero">
            <path d="M2.33150005,1.18518519 L2.33150005,3.01851852 L3.87533234,3.01851852 C4.18203599,3.01851852 4.41206028,2.98148185 4.5654121,2.90740741 C4.83672687,2.77777713 4.97238222,2.52160685 4.97238222,2.13888889 C4.97238222,1.72530657 4.84115041,1.44753157 4.57868287,1.30555556 C4.43122919,1.22530824 4.21005199,1.18518519 3.91514463,1.18518519 L2.33150005,1.18518519 Z M4.19825428,0 C4.65536068,0.00925930556 5.00703243,0.0679006944 5.25328007,0.175925926 C5.49952771,0.283951157 5.70817154,0.442900185 5.8792178,0.652777778 C6.02077333,0.825618148 6.13283645,1.01697426 6.21541051,1.22685185 C6.29798457,1.43672944 6.33927098,1.67592458 6.33927098,1.94444444 C6.33927098,2.26852014 6.2611217,2.58718979 6.1048208,2.90046296 C5.9485199,3.21373613 5.69047984,3.43518454 5.33069286,3.56481481 C5.63149837,3.69135866 5.84456573,3.87114081 5.96990136,4.10416667 C6.09523699,4.33719252 6.15790386,4.69289884 6.15790386,5.1712963 L6.15790386,5.62962963 C6.15790386,5.94135958 6.16969998,6.15277722 6.19329256,6.26388889 C6.22868145,6.43981569 6.31125427,6.56944403 6.4410135,6.65277778 L6.4410135,6.82407407 L4.9414171,6.82407407 C4.90013007,6.67283875 4.87063978,6.55092639 4.85294534,6.45833333 C4.81755645,6.26697435 4.79838776,6.07098866 4.79543869,5.87037037 L4.78659151,5.23611111 C4.78069337,4.80092375 4.70475586,4.51080319 4.55877672,4.36574074 C4.41279758,4.22067829 4.13927511,4.14814815 3.73820111,4.14814815 L2.33150005,4.14814815 L2.33150005,6.82407407 L1,6.82407407 L1,0 L4.19825428,0 Z M9.68917761,5.89351852 C10.0578118,5.89351852 10.3409186,5.75617421 10.5385066,5.48148148 C10.7360945,5.20678875 10.834887,4.81636056 10.834887,4.31018519 C10.834887,3.80400981 10.7360945,3.41435322 10.5385066,3.1412037 C10.3409186,2.86805419 10.0578118,2.73148148 9.68917761,2.73148148 C9.32054342,2.73148148 9.03669935,2.86805419 8.83763688,3.1412037 C8.63857442,3.41435322 8.53904468,3.80400981 8.53904468,4.31018519 C8.53904468,4.81636056 8.63857442,5.20678875 8.83763688,5.48148148 C9.03669935,5.75617421 9.32054342,5.89351852 9.68917761,5.89351852 Z M12.1575398,4.31018519 C12.1575398,5.05092963 11.9540568,5.68441095 11.5470847,6.21064815 C11.1401125,6.73688535 10.5222909,7 9.6936012,7 C8.86491153,7 8.24708989,6.73688535 7.84011774,6.21064815 C7.43314559,5.68441095 7.22966257,5.05092963 7.22966257,4.31018519 C7.22966257,3.58178648 7.43314559,2.95061995 7.84011774,2.41666667 C8.24708989,1.88271338 8.86491153,1.61574074 9.6936012,1.61574074 C10.5222909,1.61574074 11.1401125,1.88271338 11.5470847,2.41666667 C11.9540568,2.95061995 12.1575398,3.58178648 12.1575398,4.31018519 Z M14.4634797,6.82407407 L13.202757,6.82407407 L13.202757,0 L14.4634797,0 L14.4634797,6.82407407 Z M17.7116438,2.73148148 C17.4196855,2.73148148 17.1933475,2.82715954 17.032623,3.01851852 C16.8718985,3.2098775 16.7708942,3.46913417 16.7296072,3.7962963 L18.6892568,3.7962963 C18.6686132,3.44752912 18.567609,3.18287127 18.386241,3.00231481 C18.2048729,2.82175836 17.9800095,2.73148148 17.7116438,2.73148148 Z M17.7116438,1.64351852 C18.1127178,1.64351852 18.4739739,1.72222144 18.7954229,1.87962963 C19.1168719,2.03703782 19.3822845,2.28549213 19.5916688,2.625 C19.7804095,2.92438421 19.9027942,3.27160296 19.9588266,3.66666667 C19.9912664,3.89814931 20.004537,4.23147931 19.9986389,4.66666667 L16.6986421,4.66666667 C16.7163365,5.17284204 16.8682115,5.52777676 17.1542717,5.73148148 C17.328267,5.85802532 17.5376481,5.9212963 17.7824212,5.9212963 C18.0419397,5.9212963 18.2527952,5.84413657 18.4149943,5.68981481 C18.5034665,5.60648106 18.5816158,5.49074148 18.6494445,5.34259259 L19.9367086,5.34259259 C19.9042688,5.64197681 19.7553429,5.94598611 19.4899262,6.25462963 C19.0770559,6.74537282 18.4990462,6.99074074 17.7558797,6.99074074 C17.1424724,6.99074074 16.6013255,6.78395269 16.1324228,6.37037037 C15.6635201,5.95678806 15.4290723,5.28395528 15.4290723,4.35185185 C15.4290723,3.47839069 15.6406651,2.80864431 16.0638572,2.34259259 C16.4870492,1.87654088 17.0363059,1.64351852 17.7116438,1.64351852 Z" id="Role" fill="#FFFFFF"></path>
            <path d="M22.7978421,3.69299163 L22.7978421,6.20868201 L23.5556586,6.20868201 C23.9434634,6.20868201 24.2138553,6.02127105 24.3668425,5.64644351 C24.4504518,5.44072422 24.4922558,5.19578245 24.4922558,4.91161088 C24.4922558,4.5193495 24.4295498,4.21818445 24.3041359,4.00810669 C24.1787219,3.79802894 23.929232,3.69299163 23.5556586,3.69299163 L22.7978421,3.69299163 Z M23.6944138,3.02353556 C23.9381259,3.02702233 24.1409199,3.05491606 24.3028017,3.10721757 C24.5785344,3.19613015 24.8017857,3.3591341 24.9725621,3.59623431 C25.109539,3.78800654 25.202931,3.99546611 25.2527407,4.21861925 C25.3025505,4.44177238 25.3274551,4.65446203 25.3274551,4.85669456 C25.3274551,5.36924942 25.2225003,5.8033455 25.0125876,6.15899582 C24.7279603,6.63842639 24.2885734,6.87813808 23.6944138,6.87813808 L22,6.87813808 L22,3.02353556 L23.6944138,3.02353556 Z M27.1026741,4.56642259 C26.9265609,4.56642259 26.7900308,4.62046668 26.6930796,4.72855649 C26.5961284,4.83664629 26.5352013,4.98308834 26.5102964,5.16788703 L27.6923834,5.16788703 C27.679931,4.97088465 27.6190039,4.82139172 27.5096002,4.71940377 C27.4001966,4.61741581 27.2645559,4.56642259 27.1026741,4.56642259 Z M27.1026741,3.95188285 C27.3446073,3.95188285 27.5625219,3.99633847 27.7564243,4.08525105 C27.9503267,4.17416362 28.1104271,4.31450392 28.2367305,4.50627615 C28.3505815,4.67538439 28.4244056,4.87151213 28.4582051,5.09466527 C28.4777732,5.22541906 28.4857782,5.4137017 28.4822204,5.65951883 L26.4916178,5.65951883 C26.5022913,5.94543379 26.5939044,6.14591993 26.7664597,6.26098326 C26.871416,6.332462 26.9977175,6.36820084 27.145368,6.36820084 C27.301913,6.36820084 27.429104,6.32461689 27.5269446,6.2374477 C27.5803122,6.19037633 27.6274529,6.12500042 27.6683681,6.04131799 L28.4448632,6.04131799 C28.4252951,6.21042623 28.335461,6.38214697 28.1753581,6.55648536 C27.9263091,6.83368339 27.5776458,6.97228033 27.1293578,6.97228033 C26.7593422,6.97228033 26.4329151,6.85547537 26.1500667,6.62186192 C25.8672182,6.38824848 25.7257961,6.0081965 25.7257961,5.48169456 C25.7257961,4.98831692 25.8534318,4.61000829 26.108707,4.34675732 C26.3639821,4.08350635 26.6953012,3.95188285 27.1026741,3.95188285 Z M29.6570566,5.96809623 C29.6730669,6.10059341 29.7077553,6.19473473 29.761123,6.25052301 C29.8554058,6.34989589 30.0297374,6.39958159 30.2841231,6.39958159 C30.4335525,6.39958159 30.5522937,6.37778962 30.6403503,6.33420502 C30.7284068,6.29062042 30.7724345,6.22524451 30.7724345,6.13807531 C30.7724345,6.05439289 30.7368566,5.99076033 30.6656998,5.94717573 C30.5945429,5.90359113 30.3303771,5.82862675 29.8731944,5.72228033 C29.544094,5.64208468 29.3119483,5.54184161 29.1767503,5.42154812 C29.0415523,5.30299801 28.9739544,5.13214895 28.9739544,4.90899582 C28.9739544,4.64574485 29.0793539,4.41954418 29.290156,4.23038703 C29.5009581,4.04122988 29.7975887,3.94665272 30.1800568,3.94665272 C30.5429566,3.94665272 30.8386978,4.01769455 31.0672892,4.15978033 C31.2958805,4.30186612 31.427074,4.54724372 31.4608735,4.8959205 L30.7003885,4.8959205 C30.689715,4.80003439 30.6621422,4.72419833 30.6176691,4.66841004 C30.5340598,4.56729378 30.3917483,4.5167364 30.1907302,4.5167364 C30.0252906,4.5167364 29.9074388,4.54201509 29.8371715,4.59257322 C29.7669041,4.64313135 29.7317709,4.70240552 29.7317709,4.77039749 C29.7317709,4.8558233 29.7691277,4.9177125 29.8438424,4.95606695 C29.9185571,4.99616478 30.1827229,5.06502741 30.6363477,5.1626569 C30.9387643,5.23239226 31.1655733,5.3378654 31.3167816,5.4790795 C31.4662109,5.62203698 31.5409245,5.80073115 31.5409245,6.01516736 C31.5409245,6.29759555 31.4337461,6.52815462 31.2193861,6.70685146 C31.0050262,6.88554831 30.6737071,6.9748954 30.225419,6.9748954 C29.7682363,6.9748954 29.4306911,6.88031824 29.2127733,6.69116109 C28.9948555,6.50200394 28.8858982,6.26098473 28.8858982,5.96809623 L29.6570566,5.96809623 Z M33.9111896,5.05020921 C33.8969583,4.94386279 33.8604909,4.84797811 33.8017865,4.7625523 C33.7163983,4.64748896 33.5838707,4.58995816 33.4041997,4.58995816 C33.1480351,4.58995816 32.972814,4.71460824 32.8785312,4.96391213 C32.8287214,5.09640931 32.8038169,5.27248844 32.8038169,5.49215481 C32.8038169,5.70136088 32.8287214,5.8695949 32.8785312,5.99686192 C32.9692561,6.23396213 33.14003,6.35251046 33.3908578,6.35251046 C33.5687499,6.35251046 33.6950514,6.3054398 33.7697661,6.21129707 C33.8444808,6.11715434 33.8898426,5.9951193 33.9058529,5.84518828 L34.682348,5.84518828 C34.6645588,6.07182819 34.5809508,6.28626119 34.4315214,6.48849372 C34.193146,6.81450651 33.8400355,6.97751046 33.3721793,6.97751046 C32.904323,6.97751046 32.560107,6.84152856 32.3395208,6.56956067 C32.1189346,6.29759278 32.0086432,5.94456284 32.0086432,5.51046025 C32.0086432,5.02056938 32.1304974,4.63964571 32.3742096,4.36767782 C32.6179218,4.09570994 32.9541328,3.95972803 33.3828527,3.95972803 C33.7475315,3.95972803 34.0459411,4.03992249 34.2780902,4.20031381 C34.5102394,4.36070513 34.647659,4.64400076 34.6903531,5.05020921 L33.9111896,5.05020921 Z M36.863159,3.95972803 C36.8773904,3.95972803 36.8893979,3.96016387 36.899182,3.96103556 C36.908966,3.96190726 36.9307575,3.96321478 36.964557,3.96495816 L36.964557,4.72855649 C36.9165261,4.72332633 36.8738327,4.71983962 36.8364753,4.71809623 C36.799118,4.71635285 36.7688768,4.71548117 36.7457508,4.71548117 C36.4397764,4.71548117 36.2343141,4.81310921 36.1293578,5.0083682 C36.0706534,5.11820139 36.0413016,5.28730709 36.0413016,5.51569038 L36.0413016,6.87813808 L35.27548,6.87813808 L35.27548,4.02771967 L36.0012761,4.02771967 L36.0012761,4.52458159 C36.1186849,4.33455275 36.2209713,4.20467259 36.3081384,4.13493724 C36.4504521,4.01813052 36.6354571,3.95972803 36.863159,3.95972803 Z M38.2621381,3.68776151 L37.4909797,3.68776151 L37.4909797,3 L38.2621381,3 L38.2621381,3.68776151 Z M37.4909797,4.02771967 L38.2621381,4.02771967 L38.2621381,6.87813808 L37.4909797,6.87813808 L37.4909797,4.02771967 Z M41.072684,5.45292887 C41.072684,5.2332625 41.0215408,5.03887811 40.9192528,4.86976987 C40.8169649,4.70066164 40.651083,4.61610879 40.4216022,4.61610879 C40.1458694,4.61610879 39.9564172,4.74424558 39.8532398,5.00052301 C39.7998721,5.13650696 39.7731887,5.30909937 39.7731887,5.51830544 C39.7731887,5.84954838 39.8630229,6.08228664 40.0426939,6.2165272 C40.1494291,6.29497947 40.2757306,6.33420502 40.4216022,6.33420502 C40.6332938,6.33420502 40.7947284,6.25401056 40.905911,6.09361925 C41.0170935,5.93322793 41.072684,5.71966661 41.072684,5.45292887 Z M40.6404083,3.96495816 C40.9801823,3.96495816 41.2679184,4.08786488 41.5036254,4.33368201 C41.7393325,4.57949914 41.8571842,4.94037419 41.8571842,5.41631799 C41.8571842,5.91841255 41.7420008,6.30107958 41.5116305,6.56433054 C41.2812603,6.82758151 40.9846297,6.95920502 40.6217298,6.95920502 C40.39047,6.95920502 40.1983495,6.90254589 40.0453623,6.78922594 C39.961753,6.72646412 39.8799238,6.63493784 39.7998724,6.51464435 L39.7998724,8 L39.0473926,8 L39.0473926,4.02771967 L39.7758571,4.02771967 L39.7758571,4.44874477 C39.8576874,4.32496451 39.9448533,4.22733648 40.0373572,4.15585774 C40.2063546,4.02859072 40.4073697,3.96495816 40.6404083,3.96495816 Z M42.1781426,4.58472803 L42.1781426,4.05387029 L42.5837346,4.05387029 L42.5837346,3.25889121 L43.3362144,3.25889121 L43.3362144,4.05387029 L43.8085155,4.05387029 L43.8085155,4.58472803 L43.3362144,4.58472803 L43.3362144,6.09100418 C43.3362144,6.2078109 43.351335,6.28059609 43.3815766,6.30936192 C43.4118183,6.33812776 43.5043208,6.35251046 43.6590869,6.35251046 C43.6822129,6.35251046 43.7066727,6.35207462 43.732467,6.35120293 C43.7582614,6.35033124 43.7836106,6.34902372 43.8085155,6.34728033 L43.8085155,6.9042887 L43.4482858,6.91736402 C43.0889438,6.9295677 42.8434564,6.86855018 42.7118162,6.73430962 C42.626428,6.64888381 42.5837346,6.5172603 42.5837346,6.33943515 L42.5837346,4.58472803 L42.1781426,4.58472803 Z M45.1487906,3.68776151 L44.3776322,3.68776151 L44.3776322,3 L45.1487906,3 L45.1487906,3.68776151 Z M44.3776322,4.02771967 L45.1487906,4.02771967 L45.1487906,6.87813808 L44.3776322,6.87813808 L44.3776322,4.02771967 Z M47.260224,6.35251046 C47.4825891,6.35251046 47.653363,6.27493104 47.7725507,6.11976987 C47.8917384,5.96460871 47.9513313,5.74407395 47.9513313,5.458159 C47.9513313,5.17224404 47.8917384,4.95214512 47.7725507,4.79785565 C47.653363,4.64356617 47.4825891,4.56642259 47.260224,4.56642259 C47.0378589,4.56642259 46.8666403,4.64356617 46.7465631,4.79785565 C46.626486,4.95214512 46.5664483,5.17224404 46.5664483,5.458159 C46.5664483,5.74407395 46.626486,5.96460871 46.7465631,6.11976987 C46.8666403,6.27493104 47.0378589,6.35251046 47.260224,6.35251046 Z M48.7491734,5.458159 C48.7491734,5.87657113 48.6264297,6.23439531 48.3809386,6.53164226 C48.1354475,6.82888921 47.7627691,6.97751046 47.2628924,6.97751046 C46.7630156,6.97751046 46.3903372,6.82888921 46.1448461,6.53164226 C45.899355,6.23439531 45.7766113,5.87657113 45.7766113,5.458159 C45.7766113,5.0467204 45.899355,4.69020374 46.1448461,4.38859833 C46.3903372,4.08699291 46.7630156,3.93619247 47.2628924,3.93619247 C47.7627691,3.93619247 48.1354475,4.08699291 48.3809386,4.38859833 C48.6264297,4.69020374 48.7491734,5.0467204 48.7491734,5.458159 Z M50.9753466,3.95972803 C51.2759843,3.95972803 51.5219164,4.03687161 51.7131504,4.19116109 C51.9043844,4.34545056 52,4.60128831 52,4.95868201 L52,6.87813808 L51.2208365,6.87813808 L51.2208365,5.14435146 C51.2208365,4.99442045 51.2003792,4.87935884 51.159464,4.79916318 C51.0847494,4.65271893 50.9424378,4.57949791 50.7325251,4.57949791 C50.4745816,4.57949791 50.2975816,4.68671441 50.2015199,4.90115063 C50.1517101,5.01447058 50.1268056,5.15916927 50.1268056,5.33525105 L50.1268056,6.87813808 L49.368989,6.87813808 L49.368989,4.03294979 L50.1027903,4.03294979 L50.1027903,4.44874477 C50.2006309,4.30230052 50.2931334,4.19682738 50.3803005,4.13232218 C50.5368456,4.01725884 50.7351923,3.95972803 50.9753466,3.95972803 Z" id="Description" fill="#8C8C8C"></path>
        </g>
        <g id="Carousel" transform="translate(67.500000, 44.000000)">
            <polygon id="Fill-1" fill="#819FB3" points="0.5 105 144.5 105 144.5 0 0.5 0"></polygon>
            <polygon id="Fill-7" fill-opacity="0.73" fill="#EEF8FF" points="34.6611507 73.7663924 62.1589203 88.273637 105.116667 42 144.5 103.649404 5.5 104"></polygon>
            <path d="M2.5,118.75 L45.5,118.25" id="Line-4" stroke="#FFFFFF" stroke-width="3.4485" stroke-linecap="square"></path>
            <path d="M52.5,118.75 L95.5,118.25" id="Line-4-Copy" stroke="#819FB3" stroke-width="3.4485" stroke-linecap="square"></path>
            <path d="M101.5,118.75 L144.5,118.25" id="Line-4-Copy-2" stroke="#819FB3" stroke-width="3.4485" stroke-linecap="square"></path>
            <path d="M60.5,48 C59.8713685,48 59.2511468,47.8359294 58.7066131,47.5264798 L51.2912844,43.2959502 C50.1853976,42.6666667 49.5,41.4911734 49.5,40.2305296 L49.5,31.7715472 C49.5,30.5088266 50.1853976,29.3354102 51.2912844,28.7040498 L58.7066131,24.4735202 C59.2511468,24.1640706 59.8713685,24 60.5,24 C61.1286315,24 61.7467508,24.1640706 62.2912844,24.4735202 L69.7087156,28.7040498 C70.8146024,29.3354102 71.5,30.5088266 71.5,31.7715472 L71.5,40.2305296 C71.5,41.4911734 70.8146024,42.6666667 69.7087156,43.2959502 L62.2912844,47.5264798 C61.7467508,47.8359294 61.1286315,48 60.5,48" id="Fill-3" fill="#FEFEFE"></path>
            <path d="M60.5,23 C59.7023726,23 58.9068388,23.2029147 58.1908583,23.6108147 L50.8070482,27.8285418 C49.3792742,28.6443418 48.5,30.1496377 48.5,31.7812376 L48.5,40.2146213 C48.5,41.8482918 49.3792742,43.3535876 50.8070482,44.1693876 L58.1908583,48.3871148 C58.9068388,48.7950147 59.7023726,49 60.5,49 C61.2955338,49 62.0931612,48.7950147 62.8070482,48.3871148 L70.1929518,44.1693876 C71.6207258,43.3535876 72.5,41.8482918 72.5,40.2146213 L72.5,31.7812376 C72.5,30.1496377 71.6207258,28.6443418 70.1929518,27.8285418 L62.8070482,23.6108147 C62.0931612,23.2029147 61.2955338,23 60.5,23 M60.0384615,24.8571429 C60.4706418,24.8571429 60.8966773,24.9753583 61.2715066,25.1970121 L68.4977242,29.4970974 C69.257624,29.9488491 69.7307692,30.7953558 69.7307692,31.6988593 L69.7307692,40.2969188 C69.7307692,41.2046442 69.257624,42.0490399 68.4977242,42.5007916 L61.2715066,46.8008769 C60.8966773,47.0225308 60.4706418,47.1428571 60.0384615,47.1428571 C59.6062813,47.1428571 59.1802458,47.0225308 58.8033682,46.8008769 L51.5791989,42.5007916 C50.8172508,42.0490399 50.3461538,41.2046442 50.3461538,40.2969188 L50.3461538,31.6988593 C50.3461538,30.7953558 50.8172508,29.9488491 51.5791989,29.4970974 L58.8033682,25.1970121 C59.1802458,24.9753583 59.6062813,24.8571429 60.0384615,24.8571429" id="Fill-5" fill="#C8282C"></path>
            <text id="" font-family="FontAwesome" font-size="9.196" font-weight="normal" fill="#FFFFFF">
                <tspan x="9.5" y="55"></tspan>
            </text>
            <text id="" font-family="FontAwesome" font-size="9.196" font-weight="normal" letter-spacing="0.160930006" fill="#FFFFFF">
                <tspan x="131.5" y="55"></tspan>
            </text>
        </g>
        <path d="M68.3454492,11.27771 C68.3454492,10.3114486 68.6045335,9.56673764 69.12271,9.04355469 C69.5732982,8.58795996 70.1465379,8.36016602 70.8424463,8.36016602 C71.7736619,8.36016602 72.4545405,8.6655601 72.8851025,9.27635742 C73.122913,9.6193051 73.2505777,9.96349925 73.2681006,10.3089502 L72.1115967,10.3089502 C72.0364986,10.0436038 71.9401243,9.8433454 71.8224707,9.70816895 C71.6121962,9.46785524 71.3005441,9.3477002 70.8875049,9.3477002 C70.4669559,9.3477002 70.1352779,9.51729404 69.8924609,9.85648682 C69.649644,10.1956796 69.5282373,10.675674 69.5282373,11.2964844 C69.5282373,11.9172948 69.6565279,12.3822698 69.9131128,12.6914233 C70.1696977,13.0005769 70.4957435,13.1551514 70.8912598,13.1551514 C71.2967891,13.1551514 71.6059381,13.0224802 71.8187158,12.7571338 C71.9363694,12.6144475 72.0339954,12.4004213 72.1115967,12.1150488 L73.2568359,12.1150488 C73.1567052,12.7183363 72.9007499,13.2089695 72.4889624,13.5869629 C72.0771749,13.9649563 71.5496191,14.1539502 70.9062793,14.1539502 C70.1102402,14.1539502 69.4844326,13.8986207 69.0288379,13.3879541 C68.5732432,12.8747842 68.3454492,12.1713765 68.3454492,11.27771 Z M75.7511395,11.9085303 L77.1554656,11.9085303 L76.4645672,9.73069824 L75.7511395,11.9085303 Z M75.8224822,8.46530273 L77.1291815,8.46530273 L79.0892303,14 L77.8350994,14 L77.4783856,12.8622705 L75.4394842,12.8622705 L75.0564862,14 L73.8474139,14 L75.8224822,8.46530273 Z M80.7274206,12.2915283 C80.7624663,12.5443584 80.8313051,12.7333522 80.9339391,12.8585156 C81.1216842,13.086313 81.4433493,13.20021 81.898944,13.20021 C82.1718002,13.20021 82.393336,13.1701712 82.5635582,13.1100928 C82.8864798,12.9949425 83.0479381,12.7809163 83.0479381,12.4680078 C83.0479381,12.2852693 82.9678348,12.1438368 82.8076256,12.0437061 C82.6474165,11.9460786 82.3958419,11.8597172 82.0528942,11.7846191 L81.4671325,11.6531982 C80.8913809,11.5230283 80.4933673,11.3815958 80.2730797,11.2288965 C79.9000928,10.9735632 79.7136022,10.574298 79.7136022,10.0310889 C79.7136022,9.53544186 79.8938348,9.12366049 80.2543053,8.79573242 C80.6147759,8.46780435 81.1442091,8.30384277 81.8426207,8.30384277 C82.4258821,8.30384277 82.9233991,8.45841724 83.3351867,8.7675708 C83.7469742,9.07672436 83.9628778,9.52542837 83.982904,10.1136963 L82.8714586,10.1136963 C82.8514325,9.78076168 82.7062451,9.54420643 82.4358922,9.40402344 C82.255657,9.31140253 82.0316179,9.26509277 81.7637682,9.26509277 C81.4658794,9.26509277 81.2280725,9.3251703 81.0503405,9.44532715 C80.8726085,9.565484 80.7837438,9.73320042 80.7837438,9.94848145 C80.7837438,10.1462396 80.8713569,10.2939302 81.0465856,10.3915576 C81.1592326,10.4566426 81.3995427,10.5329911 81.7675231,10.6206055 L82.7212633,10.8496533 C83.139309,10.949784 83.454716,11.0837068 83.6674938,11.2514258 C83.9979251,11.5117656 84.1631383,11.8885018 84.1631383,12.3816455 C84.1631383,12.8873056 83.9697638,13.3072225 83.5830089,13.6414087 C83.1962541,13.9755949 82.6499241,14.1426855 81.9440026,14.1426855 C81.2230615,14.1426855 80.6560798,13.9780982 80.2430407,13.6489185 C79.8300015,13.3197388 79.623485,12.8672799 79.623485,12.2915283 L80.7274206,12.2915283 Z M89.2107622,9.44532715 L86.2819536,9.44532715 L86.2819536,10.6206055 L88.9704497,10.6206055 L88.9704497,11.5818555 L86.2819536,11.5818555 L86.2819536,13.0049561 L89.345938,13.0049561 L89.345938,14 L85.1517339,14 L85.1517339,8.46530273 L89.2107622,8.46530273 L89.2107622,9.44532715 Z M92.5284464,10.2451172 L92.5284464,9.51666992 C92.8663875,9.50165032 93.1029428,9.47912124 93.2381193,9.44908203 C93.4534003,9.40151994 93.6286264,9.3063972 93.7638029,9.16371094 C93.8564238,9.0660835 93.9265142,8.93591553 93.9740763,8.77320312 C94.0016122,8.67557568 94.01538,8.60298201 94.01538,8.55541992 L94.9052872,8.55541992 L94.9052872,14 L93.8088614,14 L93.8088614,10.2451172 L92.5284464,10.2451172 Z M98.0942441,8.29633301 L98.9841513,8.29633301 L96.8326035,14 L95.950206,14 L98.0942441,8.29633301 Z M98.846282,14 C98.8562951,13.6094902 98.9401533,13.2527799 99.0978591,12.9298584 C99.2505585,12.5668846 99.6110236,12.1826387 100.179265,11.7771094 C100.672409,11.4241486 100.991571,11.1713224 101.136761,11.018623 C101.359551,10.7808126 101.470945,10.5204767 101.470945,10.2376074 C101.470945,10.0073068 101.407113,9.81580968 101.279446,9.66311035 C101.151779,9.51041102 100.969044,9.4340625 100.731233,9.4340625 C100.405808,9.4340625 100.184272,9.55546916 100.066619,9.79828613 C99.9990307,9.93846913 99.958979,10.1612566 99.9464627,10.4666553 L98.9063601,10.4666553 C98.923883,10.0035507 99.0077412,9.62931783 99.1579373,9.34394531 C99.4433098,8.80073622 99.9502139,8.52913574 100.678665,8.52913574 C101.254416,8.52913574 101.712508,8.68871667 102.052952,9.0078833 C102.393396,9.32704994 102.563616,9.74947003 102.563616,10.2751562 C102.563616,10.6781824 102.443461,11.0361443 102.203147,11.3490527 C102.045441,11.556824 101.786357,11.7883727 101.425886,12.0437061 L100.99783,12.3478516 C100.72998,12.5380999 100.546619,12.6757776 100.44774,12.7608887 C100.34886,12.8459998 100.265628,12.9448774 100.19804,13.0575244 L102.574881,13.0575244 L102.574881,14 L98.846282,14 Z" id="CASE1/2" fill="#819FB3" fill-rule="nonzero"></path>
    </g>
</svg>