<?xml version="1.0" encoding="utf-8"?>
<!-- Generator: Adobe Illustrator 23.1.1, SVG Export Plug-In . SVG Version: 6.00 Build 0)  -->
<svg version="1.1" id="Layer_1" xmlns="http://www.w3.org/2000/svg" xmlns:xlink="http://www.w3.org/1999/xlink" x="0px" y="0px"
	 viewBox="0 0 279 207" style="enable-background:new 0 0 279 207;" xml:space="preserve">
<style type="text/css">
	.st0{fill-rule:evenodd;clip-rule:evenodd;fill:#9B9B9B;}
	.st1{fill-rule:evenodd;clip-rule:evenodd;fill:#313131;fill-opacity:0.81;}
	.st2{fill-rule:evenodd;clip-rule:evenodd;fill:#313131;fill-opacity:0.76;}
	.st3{fill:#FFFFFF;}
	.st4{font-family:'Helvetica-Bold';}
	.st5{font-size:15.64px;}
	.st6{fill:#727C85;}
	.st7{font-size:13.35px;}
	.st8{fill-rule:evenodd;clip-rule:evenodd;fill:#313131;fill-opacity:0.9;}
	.st9{font-size:11.39px;}
	.st10{fill:none;stroke:#FFFFFF;stroke-linecap:square;}
	.st11{fill-rule:evenodd;clip-rule:evenodd;fill:#819FB3;}
	.st12{fill-rule:evenodd;clip-rule:evenodd;fill:#D0E0EA;}
</style>
<title>team-member-bios</title>
<desc>Created with Sketch.</desc>
<g id="team-member-bios">
	<rect id="Rectangle" y="-5" class="st0" width="279" height="212"/>
	<image style="overflow:visible;" width="279" height="207" xlink:href="C40C94812E8CBE89.jpg" >
	</image>
	<rect y="-3" class="st1" width="279" height="212"/>
	<rect id="Rectangle-Copy-19" y="-5" class="st2" width="279" height="212"/>
	<g id="Group-2" transform="translate(81.000000, 10.000000)">
		<text transform="matrix(1 0 0 1 0 15)" class="st3 st4 st5">Title</text>
		<text transform="matrix(1 0 0 1 38 15)" class="st6 st4 st7">Subheading</text>
	</g>
	<g id="Group" transform="translate(15.000000, 48.000000)">
		<rect class="st8" width="250" height="138"/>
		<g id="Bio" transform="translate(13.000000, 12.000000)">
			<text transform="matrix(1 0 0 1 2 76)" class="st3 st4 st9">NAME</text>
			<path id="Line" class="st10" d="M2,100.7h39.7"/>
			<path class="st10" d="M2,108.7h31.8"/>
			<path id="Line-Copy-2" class="st10" d="M2,93h40.7"/>
			<rect class="st11" width="60" height="60"/>
			<g id="BIO" transform="translate(8.000000, 9.000000)">
				<ellipse id="Oval" class="st12" cx="22.6" cy="14.1" rx="14" ry="13.5"/>
				<path id="Combined-Shape" class="st12" d="M43.6,39.8L43.6,39.8l0,10.8h-44V39.8h0c0-0.1,0-0.2,0-0.3c0-5.5,4.4-9.9,9.9-9.9
					h24.2c5.5,0,9.9,4.4,9.9,9.9C43.6,39.6,43.6,39.7,43.6,39.8z"/>
			</g>
		</g>
		<g id="Bio-Copy-2" transform="translate(176.000000, 12.000000)">
			<text transform="matrix(1 0 0 1 2 76)" class="st3 st4 st9">NAME</text>
			<path class="st10" d="M2,100.7h39.7"/>
			<path class="st10" d="M2,108.7h31.8"/>
			<path class="st10" d="M2,93h40.7"/>
			<rect class="st11" width="60" height="60"/>
			<g transform="translate(8.000000, 9.000000)">
				<ellipse class="st12" cx="22.6" cy="14.1" rx="14" ry="13.5"/>
				<path class="st12" d="M43.6,39.8L43.6,39.8l0,10.8h-44V39.8h0c0-0.1,0-0.2,0-0.3c0-5.5,4.4-9.9,9.9-9.9h24.2
					c5.5,0,9.9,4.4,9.9,9.9C43.6,39.6,43.6,39.7,43.6,39.8z"/>
			</g>
		</g>
		<g id="Bio-Copy-3" transform="translate(94.000000, 12.000000)">
			<text transform="matrix(1 0 0 1 2 76)" class="st3 st4 st9">NAME</text>
			<path class="st10" d="M2,100.7h39.7"/>
			<path class="st10" d="M2,108.7h31.8"/>
			<path class="st10" d="M2,93h40.7"/>
			<rect class="st11" width="60" height="60"/>
			<g transform="translate(8.000000, 9.000000)">
				<ellipse class="st12" cx="22.6" cy="14.1" rx="14" ry="13.5"/>
				<path class="st12" d="M43.6,39.8L43.6,39.8l0,10.8h-44V39.8h0c0-0.1,0-0.2,0-0.3c0-5.5,4.4-9.9,9.9-9.9h24.2
					c5.5,0,9.9,4.4,9.9,9.9C43.6,39.6,43.6,39.7,43.6,39.8z"/>
			</g>
		</g>
	</g>
</g>
</svg>
