<?xml version="1.0" encoding="UTF-8"?>
<svg width="279px" height="207px" viewBox="0 0 279 207" version="1.1" xmlns="http://www.w3.org/2000/svg" xmlns:xlink="http://www.w3.org/1999/xlink">
    <!-- Generator: Sketch 54.1 (76490) - https://sketchapp.com -->
    <title>Event Details</title>
    <desc>Created with Sketch.</desc>
    <defs>
        <polygon id="path-1" points="0 0 73.568 0 73.568 93.1095 0 93.1095"></polygon>
    </defs>
    <g id="Event-Details" stroke="none" stroke-width="1" fill="none" fill-rule="evenodd">
        <rect id="Rectangle-Copy-18" fill="#313131" x="0" y="0" width="279" height="207"></rect>
        <g id="Section-Copy" transform="translate(31.000000, 42.000000)">
            <path d="M1.25726562,16 L1.25726562,3.96617188 L3.74730469,3.96617188 L3.74730469,8.554375 L8.44980469,8.554375 L8.44980469,3.96617188 L10.9480078,3.96617188 L10.9480078,16 L8.44980469,16 L8.44980469,10.6280469 L3.74730469,10.6280469 L3.74730469,16 L1.25726562,16 Z M22.4616436,6.09699219 L16.0936749,6.09699219 L16.0936749,8.65234375 L21.9391436,8.65234375 L21.9391436,10.7423437 L16.0936749,10.7423437 L16.0936749,13.8365234 L22.7555499,13.8365234 L22.7555499,16 L13.636292,16 L13.636292,3.96617188 L22.4616436,3.96617188 L22.4616436,6.09699219 Z M28.2196153,11.4526172 L31.2729747,11.4526172 L29.7707872,6.71746094 L28.2196153,11.4526172 Z M28.3747325,3.96617188 L31.2158263,3.96617188 L35.4774669,16 L32.75067,16 L31.9750841,13.5262891 L27.5419982,13.5262891 L26.7092638,16 L24.0804357,16 L28.3747325,3.96617188 Z M39.6597746,6.05617188 L39.6597746,13.91 L41.9783683,13.91 C43.1648847,13.91 43.9921681,13.3249147 44.4602433,12.1547266 C44.7160519,11.5124838 44.8439543,10.7477909 44.8439543,9.860625 C44.8439543,8.6360095 44.6521007,7.69579104 44.2683879,7.03994141 C43.884675,6.38409177 43.1213428,6.05617188 41.9783683,6.05617188 L39.6597746,6.05617188 Z M42.4028996,3.96617188 C43.1485544,3.97705735 43.7690169,4.06413981 44.2643058,4.22742188 C45.1079298,4.50500139 45.7909829,5.01388953 46.3134855,5.75410156 C46.7325762,6.35280247 47.0183155,7.00047829 47.1707121,7.69714844 C47.3231087,8.39381859 47.3993058,9.05782236 47.3993058,9.68917969 C47.3993058,11.2893439 47.0781893,12.6445648 46.4359465,13.7548828 C45.5651088,15.2516351 44.2207733,16 42.4028996,16 L37.2187199,16 L37.2187199,3.96617188 L42.4028996,3.96617188 Z M51.8102073,16 L49.3120041,16 L49.3120041,3.96617188 L51.8102073,3.96617188 L51.8102073,16 Z M54.3270462,3.96617188 L56.9640384,3.96617188 L61.7563431,12.3669922 L61.7563431,3.96617188 L64.099429,3.96617188 L64.099429,16 L61.5848978,16 L56.6701321,7.45222656 L56.6701321,16 L54.3270462,16 L54.3270462,3.96617188 Z M74.7476742,7.72164063 C74.5571784,6.89978756 74.0918315,6.32558757 73.3516195,5.99902344 C72.9379716,5.81941316 72.4780673,5.72960937 71.9718929,5.72960938 C71.003086,5.72960937 70.2070979,6.09562785 69.5839046,6.82767578 C68.9607114,7.55972371 68.6491195,8.66050046 68.6491195,10.1300391 C68.6491195,11.6104631 68.986564,12.658174 69.6614632,13.2732031 C70.3363624,13.8882322 71.1037766,14.1957422 71.9637289,14.1957422 C72.8073529,14.1957422 73.4985699,13.9521834 74.0374007,13.4650586 C74.5762316,12.9779338 74.9082334,12.3397826 75.0334164,11.5505859 L72.249471,11.5505859 L72.249471,9.54222656 L77.2622054,9.54222656 L77.2622054,16 L75.5967367,16 L75.3436507,14.4978125 C74.8592473,15.0692997 74.423835,15.4720561 74.0374007,15.7060938 C73.373387,16.1142989 72.5569889,16.3183984 71.588182,16.3183984 C69.9934605,16.3183984 68.6872235,15.7659691 67.669432,14.6610937 C66.6080986,13.5507757 66.0774398,12.0322753 66.0774398,10.1055469 C66.0774398,8.15704755 66.6135412,6.59500588 67.6857601,5.419375 C68.757979,4.24374412 70.1757904,3.6559375 71.9392367,3.6559375 C73.4686454,3.6559375 74.6973245,4.04372659 75.6253109,4.81931641 C76.5532973,5.59490622 77.0853167,6.56233795 77.2213851,7.72164063 L74.7476742,7.72164063 Z" id="HEADING" fill="#FFFFFF" fill-rule="nonzero"></path>
            <path d="M1.1495,33.9335 L100.0065,33.9335" id="Line-Copy-2" stroke="#FFFFFF" stroke-linecap="square"></path>
            <path d="M1.1495,66.1495 L71.269,66.1495" id="Line-Copy-3" stroke="#FFFFFF" stroke-linecap="square"></path>
            <path d="M140.239,108.053 L177.023,108.053" id="Line-Copy-5" stroke="#FFFFFF" stroke-linecap="square"></path>
            <path d="M140.239,119.548 L177.023,119.548" id="Line-Copy-6" stroke="#FFFFFF" stroke-linecap="square"></path>
            <path d="M1.1495,50.1495 L100.0065,50.1495" id="Line-Copy-4" stroke="#FFFFFF" stroke-linecap="square"></path>
            <g id="covert-nine-website-2019-352" transform="translate(140.239000, 1.149500)">
                <mask id="mask-2" fill="white">
                    <use xlink:href="#path-1"></use>
                </mask>
                <g id="Mask"></g>
            </g>
        </g>
        <g id="IMG" transform="translate(174.000000, 44.000000)">
            <g id="Group-22">
                <polygon id="Fill-1" fill="#63CAE4" points="1.07042254 93.7010061 74.9295775 93.7010061 74.9295775 1.02968139 1.07042254 1.02968139"></polygon>
                <polygon id="Fill-2" fill="#819FB3" points="0 94.7306875 76 94.7306875 76 0 0 0"></polygon>
                <g id="Group-21" transform="translate(0.000000, 10.296814)">
                    <polygon id="Fill-3" fill="#D0E0EA" points="1.07042254 83.4041922 17.8670623 46.7363001 32.0342629 63.2384944 50.2229586 19.5639463 71.7183099 83.4041922"></polygon>
                    <path d="M51.5140845,14.4155394 L32.7816901,59.7215204 L18.7323944,43.2466182 L0,84.4338736 L74.9295775,84.4338736 L51.5140845,14.4155394 Z M51.3880718,23.6826719 L70.6478873,81.3448294 L5.35211268,81.3448294 L19.955028,49.1920469 L30.7315993,61.8321223 L34.0290318,65.7084667 L35.9669965,61.0175579 L51.3880718,23.6826719 Z" id="Fill-4" fill="#D0E0EA"></path>
                    <path d="M10.8523718,9.21070593 L10.8523718,14.4538435 C10.8523718,16.4473067 11.9570479,18.288377 13.7510761,19.2851086 L18.4694986,21.904618 C20.2635268,22.9013496 22.4728789,22.9013496 24.266907,21.904618 L28.9853296,19.2851086 C30.7793577,18.288377 31.8840338,16.4473067 31.8840338,14.4538435 L31.8840338,9.21070593 C31.8840338,7.22136149 30.7793577,5.37617245 28.9853296,4.38355959 L24.266907,1.75993142 C22.4728789,0.763199843 20.2635268,0.763199843 18.4694986,1.75993142 L13.7510761,4.38355959 C11.9570479,5.37617245 10.8523718,7.22136149 10.8523718,9.21070593" id="Fill-5" fill="#FEFEFE"></path>
                    <path d="M10.8523718,9.21070593 L10.8523718,14.4538435 C10.8523718,16.4473067 11.9570479,18.288377 13.7510761,19.2851086 L18.4694986,21.904618 C20.2635268,22.9013496 22.4728789,22.9013496 24.266907,21.904618 L28.9853296,19.2851086 C30.7793577,18.288377 31.8840338,16.4473067 31.8840338,14.4538435 L31.8840338,9.21070593 C31.8840338,7.22136149 30.7793577,5.37617245 28.9853296,4.38355959 L24.266907,1.75993142 C22.4728789,0.763199843 20.2635268,0.763199843 18.4694986,1.75993142 L13.7510761,4.38355959 C11.9570479,5.37617245 10.8523718,7.22136149 10.8523718,9.21070593 Z" id="Stroke-7" stroke="#C8282C" stroke-width="2.0691"></path>
                </g>
            </g>
        </g>
    </g>
</svg>