<?xml version="1.0" encoding="UTF-8"?>
<svg width="279px" height="207px" viewBox="0 0 279 207" version="1.1" xmlns="http://www.w3.org/2000/svg" xmlns:xlink="http://www.w3.org/1999/xlink">
    <!-- Generator: Sketch 54.1 (76490) - https://sketchapp.com -->
    <title>FAQ Toggle</title>
    <desc>Created with Sketch.</desc>
    <g id="FAQ-Toggle" stroke="none" stroke-width="1" fill="none" fill-rule="evenodd">
        <rect id="Rectangle-Copy-24" fill="#313131" x="0" y="0" width="279" height="207"></rect>
        <g id="Group-10" transform="translate(29.000000, 19.000000)">
            <g id="FAQ-Toggles">
                <path d="M1.1495,150.00975 L211.508,150.00975" id="Line-Copy-2" stroke="#FFFFFF" stroke-width="1.1495" stroke-linecap="square"></path>
                <path d="M1.1495,35.05975 L216.106,35.05975" id="Line-Copy-4" stroke="#FFFFFF" stroke-width="1.1495" stroke-linecap="square"></path>
                <path d="M0,169.55125 L211.508,169.55125" id="Line-Copy-3" stroke="#FFFFFF" stroke-width="1.1495" stroke-linecap="square"></path>
                <path d="M1.1495,16.66775 L216.106,16.66775" id="Line-Copy" stroke="#FFFFFF" stroke-width="1.1495" stroke-linecap="square"></path>
                <text id="" transform="translate(208.807000, 43.083000) rotate(90.000000) translate(-208.807000, -43.083000) " font-family="FontAwesome" font-size="10.3455" font-weight="normal" letter-spacing="0.160930006" fill="#FFFFFF">
                    <tspan x="204.807" y="47.083"></tspan>
                </text>
                <text id="-copy" font-family="FontAwesome" font-size="10.3455" font-weight="normal" letter-spacing="0.160930006" fill="#FFFFFF">
                    <tspan x="204.611" y="29.691"></tspan>
                </text>
                <text id="-copy-2" font-family="FontAwesome" font-size="10.3455" font-weight="normal" letter-spacing="0.160930006" fill="#FFFFFF">
                    <tspan x="204.611" y="163.033"></tspan>
                </text>
                <path d="M0.875595703,1.53196875 L6.74096436,1.53196875 L6.74096436,2.98568213 L2.59311035,2.98568213 L2.59311035,4.88841895 L6.2245874,4.88841895 L6.2245874,6.32529395 L2.59311035,6.32529395 L2.59311035,9.794 L0.875595703,9.794 L0.875595703,1.53196875 Z M9.73168496,6.66767432 L11.8308695,6.66767432 L10.7981156,3.41225439 L9.73168496,6.66767432 Z M9.83832803,1.52074316 L11.79158,1.52074316 L14.7214579,9.794 L12.8467851,9.794 L12.3135697,8.09332373 L9.26582315,8.09332373 L8.69331826,9.794 L6.88599893,9.794 L9.83832803,1.52074316 Z M19.6149153,8.55918555 C19.813235,8.55918555 20.0040681,8.53486369 20.1874202,8.48621924 C20.288451,8.46002607 20.4175439,8.41325327 20.5747029,8.34589941 L19.7383968,7.54888281 L20.6308309,6.61715918 L21.467137,7.41417578 C21.5981028,7.14476037 21.6897775,6.90902542 21.7421639,6.70696387 C21.8244852,6.40387153 21.8656453,6.05026911 21.8656453,5.646146 C21.8656453,4.71815959 21.6757477,4.00066473 21.2959468,3.49363989 C20.9161459,2.98661506 20.3614204,2.73310645 19.6317537,2.73310645 C18.9469895,2.73310645 18.4006832,2.97632504 17.9928182,3.46276953 C17.5849532,3.94921402 17.3810237,4.6769989 17.3810237,5.646146 C17.3810237,6.77993584 17.672886,7.59191177 18.2566194,8.08209814 C18.6345494,8.400158 19.0873102,8.55918555 19.6149153,8.55918555 Z M23.5943855,5.52266455 C23.5943855,6.25981505 23.5045818,6.8772161 23.3249715,7.37488623 C23.1790381,7.85010508 22.9638832,8.24486757 22.6795003,8.55918555 L23.6336751,9.45161963 L22.7300154,10.3945688 L21.7309383,9.45161963 C21.4278459,9.63497178 21.1659182,9.76406473 20.9451473,9.83890234 C20.5747011,9.96238441 20.1312949,10.0241245 19.6149153,10.0241245 C18.5372537,10.0241245 17.6466994,9.7023276 16.9432259,9.05872412 C16.0900771,8.28415482 15.6635091,7.14664015 15.6635091,5.646146 C15.6635091,4.1344262 16.1013026,2.99129879 16.9769026,2.21672949 C17.6916018,1.58435166 18.5802852,1.26816748 19.6429793,1.26816748 C20.7131572,1.26816748 21.6111951,1.60306078 22.3371199,2.27285742 C23.1753012,3.04742672 23.5943855,4.13068493 23.5943855,5.52266455 Z M34.5206974,1.52074316 L34.5206974,2.98568213 L32.0454557,2.98568213 L32.0454557,9.794 L30.3054898,9.794 L30.3054898,2.98568213 L27.8190226,2.98568213 L27.8190226,1.52074316 L34.5206974,1.52074316 Z M39.1896431,8.55918555 C39.8744072,8.55918555 40.4179073,8.30661239 40.8201594,7.8014585 C41.2224116,7.2963046 41.4235347,6.57787429 41.4235347,5.646146 C41.4235347,4.71815959 41.2224116,4.00066473 40.8201594,3.49363989 C40.4179073,2.98661506 39.8744072,2.73310645 39.1896431,2.73310645 C38.5048789,2.73310645 37.9585725,2.9856796 37.5507075,3.4908335 C37.1428425,3.99598739 36.9389131,4.7144177 36.9389131,5.646146 C36.9389131,6.57787429 37.1428425,7.2963046 37.5507075,7.8014585 C37.9585725,8.30661239 38.5048789,8.55918555 39.1896431,8.55918555 Z M43.1522749,5.646146 C43.1522749,7.13167263 42.7350615,8.2691873 41.9006221,9.05872412 C41.275728,9.7023276 40.3720774,10.0241245 39.1896431,10.0241245 C38.0072088,10.0241245 37.1035581,9.7023276 36.4786641,9.05872412 C35.6404828,8.2691873 35.2213984,7.13167263 35.2213984,5.646146 C35.2213984,4.13068432 35.6404828,2.99316965 36.4786641,2.23356787 C37.1035581,1.58996439 38.0072088,1.26816748 39.1896431,1.26816748 C40.3720774,1.26816748 41.275728,1.58996439 41.9006221,2.23356787 C42.7350615,2.99316965 43.1522749,4.13068432 43.1522749,5.646146 Z M50.2347216,4.10262793 C50.1037558,3.53760395 49.7838298,3.14284145 49.274934,2.91832861 C48.9905511,2.79484655 48.6743669,2.73310645 48.326372,2.73310645 C47.6603172,2.73310645 47.1130754,2.98474415 46.68463,3.4880271 C46.2561847,3.99131005 46.0419652,4.74809407 46.0419652,5.75840186 C46.0419652,6.7761934 46.2739584,7.49649463 46.7379516,7.91932715 C47.2019448,8.34215967 47.729542,8.55357275 48.3207592,8.55357275 C48.9007507,8.55357275 49.3759624,8.3861261 49.7464086,8.05122778 C50.1168548,7.71632946 50.3451061,7.27760053 50.4311693,6.73502783 L48.5172069,6.73502783 L48.5172069,5.35428076 L51.9634618,5.35428076 L51.9634618,9.794 L50.8184521,9.794 L50.6444555,8.76124609 C50.3114281,9.15414357 50.0120821,9.43103858 49.7464086,9.59193945 C49.2898992,9.8725805 48.7286255,10.0128989 48.0625707,10.0128989 C46.9661997,10.0128989 46.0681618,9.63310373 45.3684301,8.87350195 C44.6387633,8.11015829 44.2739355,7.06618924 44.2739355,5.74156348 C44.2739355,4.40197019 44.6425052,3.32806654 45.3796557,2.51982031 C46.1168062,1.71157408 47.0915515,1.30745703 48.3039208,1.30745703 C49.3553893,1.30745703 50.2001062,1.57406203 50.8380968,2.10728003 C51.4760875,2.64049803 51.8418508,3.30560734 51.9353979,4.10262793 L50.2347216,4.10262793 Z M59.3770633,4.10262793 C59.2460975,3.53760395 58.9261715,3.14284145 58.4172757,2.91832861 C58.1328928,2.79484655 57.8167086,2.73310645 57.4687137,2.73310645 C56.8026589,2.73310645 56.2554171,2.98474415 55.8269717,3.4880271 C55.3985264,3.99131005 55.1843069,4.74809407 55.1843069,5.75840186 C55.1843069,6.7761934 55.4163001,7.49649463 55.8802933,7.91932715 C56.3442865,8.34215967 56.8718837,8.55357275 57.4631009,8.55357275 C58.0430924,8.55357275 58.5183041,8.3861261 58.8887503,8.05122778 C59.2591965,7.71632946 59.4874478,7.27760053 59.573511,6.73502783 L57.6595486,6.73502783 L57.6595486,5.35428076 L61.1058035,5.35428076 L61.1058035,9.794 L59.9607938,9.794 L59.7867972,8.76124609 C59.4537698,9.15414357 59.1544238,9.43103858 58.8887503,9.59193945 C58.4322409,9.8725805 57.8709672,10.0128989 57.2049124,10.0128989 C56.1085414,10.0128989 55.2105035,9.63310373 54.5107718,8.87350195 C53.781105,8.11015829 53.4162772,7.06618924 53.4162772,5.74156348 C53.4162772,4.40197019 53.7848469,3.32806654 54.5219974,2.51982031 C55.2591479,1.71157408 56.2338932,1.30745703 57.4462625,1.30745703 C58.497731,1.30745703 59.3424479,1.57406203 59.9804385,2.10728003 C60.6184292,2.64049803 60.9841925,3.30560734 61.0777396,4.10262793 L59.3770633,4.10262793 Z M62.9571272,1.52074316 L64.6858674,1.52074316 L64.6858674,8.30660986 L68.7832063,8.30660986 L68.7832063,9.794 L62.9571272,9.794 L62.9571272,1.52074316 Z M76.297838,2.98568213 L71.9198595,2.98568213 L71.9198595,4.74248633 L75.9386192,4.74248633 L75.9386192,6.17936133 L71.9198595,6.17936133 L71.9198595,8.30660986 L76.4998985,8.30660986 L76.4998985,9.794 L70.2304088,9.794 L70.2304088,1.52074316 L76.297838,1.52074316 L76.297838,2.98568213 Z M79.2997842,7.2401792 C79.3521705,7.61810915 79.4550707,7.9006169 79.6084878,8.08771094 C79.8891289,8.42822208 80.3699533,8.5984751 81.0509756,8.5984751 C81.4588406,8.5984751 81.7899921,8.5535732 82.0444399,8.46376807 C82.5271426,8.29164155 82.7684902,7.97171555 82.7684902,7.50398047 C82.7684902,7.23082318 82.6487519,7.01941009 82.4092715,6.86973486 C82.1697911,6.72380152 81.7937378,6.59470857 81.2811001,6.48245215 L80.4055044,6.28600439 C79.5448718,6.0914266 78.9499217,5.88001351 78.6206362,5.65175879 C78.063096,5.27008696 77.7843301,4.67326594 77.7843301,3.86127783 C77.7843301,3.12038546 78.0537415,2.50485532 78.5925723,2.01466895 C79.1314031,1.52448258 79.922799,1.27939307 80.9667837,1.27939307 C81.8386419,1.27939307 82.5823295,1.51045073 83.1978689,1.972573 C83.8134083,2.43469526 84.1361406,3.10541732 84.1660757,3.98475928 L82.504689,3.98475928 C82.4747539,3.48708915 82.2577281,3.13348672 81.853605,2.92394141 C81.5841896,2.78549182 81.2492963,2.71626807 80.848915,2.71626807 C80.4036312,2.71626807 80.0481579,2.80607186 79.7824844,2.98568213 C79.5168109,3.1652924 79.3839761,3.41599465 79.3839761,3.73779639 C79.3839761,4.03340496 79.5149399,4.25417261 79.7768716,4.40010596 C79.9452562,4.49739485 80.3044714,4.6115205 80.8545278,4.74248633 L82.2801773,5.0848667 C82.9050713,5.23454193 83.3765412,5.43472954 83.6946011,5.68543555 C84.1885293,6.07459114 84.4354898,6.63773573 84.4354898,7.37488623 C84.4354898,8.13074613 84.1464338,8.7584372 83.5683132,9.25797827 C82.9901927,9.75751934 82.1735395,10.0072861 81.1183291,10.0072861 C80.0406675,10.0072861 79.1931442,9.76126117 78.5757339,9.26920386 C77.9583236,8.77714655 77.6496231,8.10081176 77.6496231,7.2401792 L79.2997842,7.2401792 Z" id="FAQTOGGLES" fill="#FFFFFF" fill-rule="nonzero"></path>
                <path d="M89.7137603,3.8300459 L90.370457,6.67236426 L90.5118994,7.46376807 L90.6567095,6.68920264 L91.2157437,3.8300459 L92.3102383,3.8300459 L92.8995815,6.67236426 L93.051127,7.46376807 L93.2026724,6.70267334 L93.8661045,3.8300459 L94.920187,3.8300459 L93.5226016,8.794 L92.5325049,8.794 L91.9330586,5.89106348 L91.7579395,4.93127588 L91.5828203,5.89106348 L90.983374,8.794 L90.0202188,8.794 L88.6125303,3.8300459 L89.7137603,3.8300459 Z M96.6773055,8.794 L95.6467967,8.794 L95.6467967,3.8300459 L96.6773055,3.8300459 L96.6773055,8.794 Z M101.431655,3.8300459 L101.431655,4.70900928 L99.9465105,4.70900928 L99.9465105,8.794 L98.902531,8.794 L98.902531,4.70900928 L97.4106506,4.70900928 L97.4106506,3.8300459 L101.431655,3.8300459 Z M102.212148,8.794 L102.212148,3.8300459 L103.239289,3.8300459 L103.239289,5.72267969 L105.17907,5.72267969 L105.17907,3.8300459 L106.209579,3.8300459 L106.209579,8.794 L105.17907,8.794 L105.17907,6.57806934 L103.239289,6.57806934 L103.239289,8.794 L102.212148,8.794 Z M110.42766,8.794 L109.397152,8.794 L109.397152,3.8300459 L110.42766,3.8300459 L110.42766,8.794 Z M114.865449,3.8300459 L116.357329,3.8300459 L116.357329,8.794 L115.390806,8.794 L115.390806,5.43642725 C115.390806,5.33988672 115.391929,5.20461977 115.394174,5.03062231 C115.396419,4.85662486 115.397542,4.72248045 115.397542,4.62818506 L114.45796,8.794 L113.451025,8.794 L112.518179,4.62818506 C112.518179,4.72248045 112.519301,4.85662486 112.521547,5.03062231 C112.523792,5.20461977 112.524914,5.33988672 112.524914,5.43642725 L112.524914,8.794 L111.558391,8.794 L111.558391,3.8300459 L113.06711,3.8300459 L113.969647,7.73318213 L114.865449,3.8300459 Z M118.858704,6.91820459 L120.118215,6.91820459 L119.498563,4.96495264 L118.858704,6.91820459 Z M118.92269,3.8300459 L120.094641,3.8300459 L121.852568,8.794 L120.727764,8.794 L120.407835,7.77359424 L118.579187,7.77359424 L118.235684,8.794 L117.151293,8.794 L118.92269,3.8300459 Z M126.000736,5.37917676 C125.922157,5.04016237 125.730201,4.80330487 125.424864,4.66859717 C125.254234,4.59450793 125.064523,4.55746387 124.855726,4.55746387 C124.456094,4.55746387 124.127749,4.70844649 123.870681,5.01041626 C123.613614,5.31238603 123.485082,5.76645644 123.485082,6.37264111 C123.485082,6.98331604 123.624278,7.41549678 123.902674,7.66919629 C124.18107,7.9228958 124.497629,8.04974365 124.852359,8.04974365 C125.200354,8.04974365 125.485481,7.94927566 125.707748,7.74833667 C125.930016,7.54739768 126.066967,7.28416032 126.118605,6.9586167 L124.970227,6.9586167 L124.970227,6.13016846 L127.03798,6.13016846 L127.03798,8.794 L126.350975,8.794 L126.246577,8.17434766 C126.04676,8.41008614 125.867153,8.57622315 125.707748,8.67276367 C125.433843,8.8411483 125.097079,8.92533936 124.697446,8.92533936 C124.039623,8.92533936 123.5008,8.69746224 123.080961,8.24170117 C122.643161,7.78369498 122.424265,7.15731354 122.424265,6.36253809 C122.424265,5.55878211 122.645406,4.91443992 123.087697,4.42949219 C123.529987,3.94454445 124.114834,3.70207422 124.842256,3.70207422 C125.473137,3.70207422 125.979967,3.86203722 126.362761,4.18196802 C126.745556,4.50189882 126.965014,4.90096441 127.021142,5.37917676 L126.000736,5.37917676 Z M131.87989,4.70900928 L129.253103,4.70900928 L129.253103,5.7630918 L131.664359,5.7630918 L131.664359,6.6252168 L129.253103,6.6252168 L129.253103,7.90156592 L132.001126,7.90156592 L132.001126,8.794 L128.239432,8.794 L128.239432,3.8300459 L131.87989,3.8300459 L131.87989,4.70900928 Z M134.872137,6.35243506 C134.872137,5.48581549 135.104505,4.81789981 135.569246,4.34866797 C135.973369,3.9400546 136.487496,3.73575098 137.111642,3.73575098 C137.946829,3.73575098 138.557495,4.00965253 138.943657,4.55746387 C139.156944,4.86504646 139.271444,5.17374699 139.28716,5.48357471 L138.249916,5.48357471 C138.182562,5.2455911 138.096126,5.06598352 137.990605,4.94474658 C137.802014,4.72921425 137.5225,4.62144971 137.152054,4.62144971 C136.774872,4.62144971 136.477397,4.77355488 136.25962,5.07776978 C136.041842,5.38198468 135.932955,5.81248159 135.932955,6.36927344 C135.932955,6.92606528 136.048016,7.34309163 136.278142,7.62036499 C136.508268,7.89763835 136.800691,8.03627295 137.155421,8.03627295 C137.519132,8.03627295 137.796401,7.91728293 137.987237,7.67929932 C138.092758,7.551327 138.180317,7.3593714 138.249916,7.10342676 L139.277057,7.10342676 C139.187252,7.64450271 138.957691,8.08454127 138.588367,8.42355566 C138.219044,8.76257005 137.74589,8.93207471 137.168892,8.93207471 C136.454941,8.93207471 135.893668,8.70307504 135.485054,8.24506885 C135.076441,7.78481752 134.872137,7.1539459 134.872137,6.35243506 Z M141.606681,6.91820459 L142.866191,6.91820459 L142.246539,4.96495264 L141.606681,6.91820459 Z M141.670666,3.8300459 L142.842618,3.8300459 L144.600544,8.794 L143.475741,8.794 L143.155811,7.77359424 L141.327163,7.77359424 L140.983661,8.794 L139.899269,8.794 L141.670666,3.8300459 Z M146.44859,4.6921709 L146.44859,6.02577051 L147.623909,6.02577051 C147.857402,6.02577051 148.03252,5.99882937 148.149266,5.94494629 C148.355818,5.8506509 148.459093,5.66430803 148.459093,5.38591211 C148.459093,5.0850649 148.359186,4.88300638 148.159369,4.77973047 C148.047113,4.72135713 147.878731,4.6921709 147.654218,4.6921709 L146.44859,4.6921709 Z M147.869749,3.8300459 C148.217744,3.83678128 148.485472,3.87943808 148.67294,3.95801758 C148.860408,4.03659707 149.019249,4.15221945 149.149466,4.30488818 C149.257232,4.43061537 149.342546,4.56981125 149.405409,4.72247998 C149.468273,4.87514871 149.499704,5.04914355 149.499704,5.24446973 C149.499704,5.48020821 149.440209,5.71201424 149.321218,5.93989478 C149.202226,6.16777531 149.00578,6.32886086 148.731874,6.42315625 C148.960877,6.51520651 149.123085,6.64598328 149.218503,6.81549048 C149.313921,6.98499767 149.36163,7.24374484 149.36163,7.59173975 L149.36163,7.92513965 C149.36163,8.15189762 149.37061,8.30568661 149.388571,8.38651123 C149.415513,8.51448355 149.478375,8.60877753 149.577161,8.669396 L149.577161,8.794 L148.435519,8.794 C148.404087,8.68398871 148.381636,8.59530747 148.368165,8.52795361 C148.341224,8.38875565 148.326631,8.24619214 148.324385,8.10025879 L148.31765,7.63888721 C148.31316,7.3223241 148.255349,7.1112852 148.144215,7.00576416 C148.033081,6.90024312 147.824848,6.8474834 147.519511,6.8474834 L146.44859,6.8474834 L146.44859,8.794 L145.43492,8.794 L145.43492,3.8300459 L147.869749,3.8300459 Z M152.768909,8.05311133 C153.179768,8.05311133 153.505868,7.90156743 153.747219,7.5984751 C153.98857,7.29538276 154.109244,6.86432457 154.109244,6.3052876 C154.109244,5.74849575 153.98857,5.31799884 153.747219,5.01378394 C153.505868,4.70956904 153.179768,4.55746387 152.768909,4.55746387 C152.358051,4.55746387 152.030267,4.70900776 151.785548,5.0121001 C151.540829,5.31519243 151.418471,5.74625062 151.418471,6.3052876 C151.418471,6.86432457 151.540829,7.29538276 151.785548,7.5984751 C152.030267,7.90156743 152.358051,8.05311133 152.768909,8.05311133 Z M155.146488,6.3052876 C155.146488,7.19660358 154.89616,7.87911238 154.395497,8.35283447 C154.02056,8.73899656 153.47837,8.93207471 152.768909,8.93207471 C152.059449,8.93207471 151.517258,8.73899656 151.142322,8.35283447 C150.639413,7.87911238 150.387962,7.19660358 150.387962,6.3052876 C150.387962,5.39601059 150.639413,4.71350179 151.142322,4.25774072 C151.517258,3.87157864 152.059449,3.67850049 152.768909,3.67850049 C153.47837,3.67850049 154.02056,3.87157864 154.395497,4.25774072 C154.89616,4.71350179 155.146488,5.39601059 155.146488,6.3052876 Z M156.118938,3.8300459 L157.173021,3.8300459 L157.173021,6.88116016 C157.173021,7.22241968 157.213433,7.47162519 157.294257,7.62878418 C157.419984,7.9071801 157.693886,8.04637598 158.11597,8.04637598 C158.535809,8.04637598 158.808588,7.9071801 158.934315,7.62878418 C159.01514,7.47162519 159.055552,7.22241968 159.055552,6.88116016 L159.055552,3.8300459 L160.109634,3.8300459 L160.109634,6.88116016 C160.109634,7.40876533 160.027688,7.81961767 159.863794,8.11372949 C159.558456,8.65256031 158.975854,8.92197168 158.11597,8.92197168 C157.256086,8.92197168 156.672361,8.65256031 156.364779,8.11372949 C156.200884,7.81961767 156.118938,7.40876533 156.118938,6.88116016 L156.118938,3.8300459 Z M162.031769,7.26170752 C162.063201,7.48846549 162.124941,7.65797014 162.216991,7.77022656 C162.385376,7.97453325 162.67387,8.07668506 163.082484,8.07668506 C163.327203,8.07668506 163.525894,8.04974392 163.678562,7.99586084 C163.968184,7.89258493 164.112992,7.70062933 164.112992,7.41998828 C164.112992,7.25609391 164.041149,7.12924605 163.897461,7.03944092 C163.753773,6.95188091 163.528141,6.87442514 163.220558,6.80707129 L162.695201,6.68920264 C162.178821,6.57245596 161.821851,6.44560811 161.62428,6.30865527 C161.289756,6.07965218 161.122496,5.72155956 161.122496,5.2343667 C161.122496,4.78983127 161.284143,4.42051319 161.607442,4.12640137 C161.93074,3.83228955 162.405578,3.68523584 163.031969,3.68523584 C163.555083,3.68523584 164.001296,3.82387044 164.37062,4.1011438 C164.739943,4.37841716 164.933583,4.78085039 164.951544,5.30845557 L163.954712,5.30845557 C163.936751,5.00985349 163.806535,4.79769203 163.564061,4.67196484 C163.402412,4.58889509 163.201476,4.54736084 162.961247,4.54736084 C162.694077,4.54736084 162.480793,4.60124311 162.321389,4.70900928 C162.161985,4.81677544 162.082284,4.96719679 162.082284,5.16027783 C162.082284,5.33764298 162.160862,5.47010357 162.318021,5.55766357 C162.419052,5.61603691 162.634581,5.6845123 162.964615,5.7630918 L163.820005,5.96852002 C164.194941,6.05832516 164.477823,6.17843772 164.668659,6.32886133 C164.965016,6.56235468 165.113192,6.90024144 165.113192,7.34253174 C165.113192,7.79604768 164.939759,8.17266232 164.592886,8.47238696 C164.246014,8.77211161 163.756022,8.92197168 163.122896,8.92197168 C162.476299,8.92197168 161.967785,8.7743567 161.597339,8.47912231 C161.226892,8.18388793 161.041672,7.77808705 161.041672,7.26170752 L162.031769,7.26170752 Z M169.732835,4.70900928 L167.106048,4.70900928 L167.106048,5.7630918 L169.517304,5.7630918 L169.517304,6.6252168 L167.106048,6.6252168 L167.106048,7.90156592 L169.854071,7.90156592 L169.854071,8.794 L166.092378,8.794 L166.092378,3.8300459 L169.732835,3.8300459 L169.732835,4.70900928 Z M170.84336,3.8300459 L171.880604,3.8300459 L171.880604,7.90156592 L174.339007,7.90156592 L174.339007,8.794 L170.84336,8.794 L170.84336,3.8300459 Z M175.98836,7.26170752 C176.019792,7.48846549 176.081532,7.65797014 176.173582,7.77022656 C176.341967,7.97453325 176.630462,8.07668506 177.039075,8.07668506 C177.283794,8.07668506 177.482485,8.04974392 177.635154,7.99586084 C177.924775,7.89258493 178.069584,7.70062933 178.069584,7.41998828 C178.069584,7.25609391 177.997741,7.12924605 177.854053,7.03944092 C177.710364,6.95188091 177.484732,6.87442514 177.17715,6.80707129 L176.651792,6.68920264 C176.135413,6.57245596 175.778443,6.44560811 175.580871,6.30865527 C175.246347,6.07965218 175.079088,5.72155956 175.079088,5.2343667 C175.079088,4.78983127 175.240735,4.42051319 175.564033,4.12640137 C175.887332,3.83228955 176.362169,3.68523584 176.98856,3.68523584 C177.511675,3.68523584 177.957887,3.82387044 178.327211,4.1011438 C178.696535,4.37841716 178.890174,4.78085039 178.908135,5.30845557 L177.911303,5.30845557 C177.893342,5.00985349 177.763127,4.79769203 177.520653,4.67196484 C177.359003,4.58889509 177.158068,4.54736084 176.917839,4.54736084 C176.650668,4.54736084 176.437384,4.60124311 176.27798,4.70900928 C176.118576,4.81677544 176.038875,4.96719679 176.038875,5.16027783 C176.038875,5.33764298 176.117454,5.47010357 176.274613,5.55766357 C176.375643,5.61603691 176.591173,5.6845123 176.921206,5.7630918 L177.776596,5.96852002 C178.151533,6.05832516 178.434414,6.17843772 178.62525,6.32886133 C178.921607,6.56235468 179.069784,6.90024144 179.069784,7.34253174 C179.069784,7.79604768 178.89635,8.17266232 178.549478,8.47238696 C178.202605,8.77211161 177.712613,8.92197168 177.079487,8.92197168 C176.43289,8.92197168 175.924376,8.7743567 175.55393,8.47912231 C175.183484,8.18388793 174.998264,7.77808705 174.998264,7.26170752 L175.98836,7.26170752 Z" id="WITHIMAGECAROUSELS" fill="#FFFFFF" fill-rule="nonzero"></path>
            </g>
            <g id="Carousel" transform="translate(5.747500, 40.232500)">
                <polygon id="Fill-1" fill="#819FB3" points="0 95.4085 131.043 95.4085 131.043 0 0 0"></polygon>
                <polygon id="Fill-7" fill-opacity="0.73" fill="#EEF8FF" points="27.4918322 67.941999 53.4155028 81.1214797 90.8105 32.76075 131.043 95.0899919 0 95.4085"></polygon>
                <path d="M54.60125,43.681 C54.0428681,43.681 53.4919561,43.5316923 53.0082741,43.2500867 L46.4216084,39.4002166 C45.4393044,38.8275556 44.8305,37.7578322 44.8305,36.6106201 L44.8305,28.9127699 C44.8305,27.7636678 45.4393044,26.6958344 46.4216084,26.1212834 L53.0082741,22.2714133 C53.4919561,21.9898077 54.0428681,21.8405 54.60125,21.8405 C55.1596319,21.8405 55.7086764,21.9898077 56.1923584,22.2714133 L62.7808916,26.1212834 C63.7631956,26.6958344 64.372,27.7636678 64.372,28.9127699 L64.372,36.6106201 C64.372,37.7578322 63.7631956,38.8275556 62.7808916,39.4002166 L56.1923584,43.2500867 C55.7086764,43.5316923 55.1596319,43.681 54.60125,43.681" id="Fill-3" fill="#FEFEFE"></path>
                <path d="M54.60125,20.691 C53.8753925,20.691 53.1514401,20.8704234 52.499883,21.2311011 L45.7804619,24.9605453 C44.4811579,25.6819007 43.681,27.0129296 43.681,28.4556404 L43.681,35.9126979 C43.681,37.3572395 44.4811579,38.6882685 45.7804619,39.4096239 L52.499883,43.139068 C53.1514401,43.4997457 53.8753925,43.681 54.60125,43.681 C55.3252024,43.681 56.0510599,43.4997457 56.7007119,43.139068 L63.4220381,39.4096239 C64.7213421,38.6882685 65.5215,37.3572395 65.5215,35.9126979 L65.5215,28.4556404 C65.5215,27.0129296 64.7213421,25.6819007 63.4220381,24.9605453 L56.7007119,21.2311011 C56.0510599,20.8704234 55.3252024,20.691 54.60125,20.691 M54.1812404,22.3331429 C54.5745334,22.3331429 54.9622346,22.4376726 55.3033371,22.6336657 L61.8793456,26.4359334 C62.5708703,26.8353862 63.0014423,27.5838935 63.0014423,28.382799 L63.0014423,35.9854678 C63.0014423,36.7881065 62.5708703,37.5347472 61.8793456,37.9342 L55.3033371,41.7364677 C54.9622346,41.9324608 54.5745334,42.0388571 54.1812404,42.0388571 C53.7879474,42.0388571 53.4002462,41.9324608 53.0572797,41.7364677 L46.4831352,37.9342 C45.7897465,37.5347472 45.3610385,36.7881065 45.3610385,35.9854678 L45.3610385,28.382799 C45.3610385,27.5838935 45.7897465,26.8353862 46.4831352,26.4359334 L53.0572797,22.6336657 C53.4002462,22.4376726 53.7879474,22.3331429 54.1812404,22.3331429" id="Fill-5" fill="#C8282C"></path>
            </g>
            <path d="M7.47175,141.101125 L45.40525,141.101125" id="Line-4" stroke="#FFFFFF" stroke-width="3.4485" stroke-linecap="square"></path>
            <path d="M54.60125,141.101125 L89.08625,141.101125" id="Line-4-Copy-9" stroke="#819FB3" stroke-width="3.4485" stroke-linecap="square"></path>
            <path d="M98.28225,141.101125 L135.06625,141.101125" id="Line-4-Copy-10" stroke="#819FB3" stroke-width="3.4485" stroke-linecap="square"></path>
        </g>
    </g>
</svg>