<?xml version="1.0" encoding="UTF-8"?>
<svg width="279px" height="207px" viewBox="0 0 279 207" version="1.1" xmlns="http://www.w3.org/2000/svg" xmlns:xlink="http://www.w3.org/1999/xlink">
    <!-- Generator: Sketch 54.1 (76490) - https://sketchapp.com -->
    <title>Google Map + Addres</title>
    <desc>Created with Sketch.</desc>
    <g id="Google-Map-+-Addres" stroke="none" stroke-width="1" fill="none" fill-rule="evenodd">
        <rect id="Rectangle-Copy-13" fill="#313131" x="0" y="0" width="279" height="207"></rect>
        <g id="Location-Copy" transform="translate(29.000000, 61.000000)">
            <polygon id="Fill-1" fill="#FEFEFE" points="0 84 219 84 219 0 0 0"></polygon>
            <g id="Group-5">
                <polygon id="Stroke-2" stroke="#9D9D9D" stroke-width="1.1495" points="0.105593057 83.8909091 218.894407 83.8909091 218.894407 0.109090909 0.105593057 0.109090909"></polygon>
                <polygon id="Fill-4" fill="#819FB3" points="93.8357628 83.8909091 218.857942 83.8909091 218.857942 0.109090909 93.8357628 0.109090909"></polygon>
            </g>
            <path d="M131.858639,49.4794521 L181.162304,49.4794521" id="Stroke-6" stroke="#FFFFFF"></path>
            <path d="M131.858639,37.9726027 L182.308901,37.9726027" id="Stroke-7" stroke="#FFFFFF"></path>
            <path d="M142.17801,59.8356164 L170.842932,59.8356164" id="Stroke-8" stroke="#FFFFFF"></path>
            <polygon id="Fill-9" fill="#FFFFFF" points="184.596883 28.7671233 127.272251 28.7186314 127.274857 23.0136986 184.602094 23.0621906"></polygon>
            <g id="Group-34" transform="translate(13.759162, 9.205479)">
                <path d="M22.9221378,43.2533981 L41.8545182,43.2533981 C41.9213082,43.2533981 41.990667,43.2454373 42.0574569,43.2401302 C42.0651634,43.2374766 42.0703011,43.2295159 42.0780077,43.2242087 C42.0831453,43.2189015 42.088283,43.2109408 42.0934207,43.2029801 C42.1422288,42.534278 42.121678,30.9593642 42.0651634,30.7576922 C42.0420438,30.752385 42.0189242,30.7444243 41.9958046,30.7444243 C41.1378107,30.7417707 40.2823857,30.7470778 39.4243918,30.7391171 C39.2908119,30.7364635 39.2291596,30.8134173 39.157232,30.903639 C38.6691516,31.5192695 38.186209,32.1428607 37.6929909,32.7505304 C36.9274754,33.6898975 36.1568222,34.6213039 35.386169,35.5527103 C34.7850595,36.2771375 34.1762434,36.9962576 33.5725651,37.7180312 C33.4235721,37.895821 33.2797169,38.0842252 33.1332928,38.262015 C32.9303541,38.5061443 32.7222777,38.7476201 32.5090637,38.9997101 C32.4345672,38.9174491 32.3754838,38.8590704 32.3189692,38.7927309 C31.7435481,38.0948395 31.1681271,37.3916409 30.5875683,36.6937495 C30.0378357,36.0303546 29.4803966,35.3669598 28.9255262,34.7062185 C28.7559825,34.4992393 28.5787323,34.2975672 28.4117574,34.090588 C27.5537635,33.0265026 26.6983385,31.9624172 25.8480511,30.8956783 C25.7581416,30.7815744 25.6630943,30.7364635 25.5243768,30.7391171 C24.7254663,30.7444243 23.9291246,30.7417707 23.1302141,30.7417707 C23.065993,30.7417707 22.9992031,30.752385 22.9221378,30.7603457 L22.9221378,43.2533981 Z M4.521508,30.7550386 C3.99746382,34.9317727 3.47085079,39.0766639 2.95451314,43.234823 L19.7419089,43.234823 C19.7984234,42.8606683 19.7804415,30.9328284 19.7264958,30.7550386 L4.521508,30.7550386 Z M45.2685119,30.7550386 C45.2145662,31.0310108 45.2222727,43.0437653 45.2762185,43.2480909 C45.3404396,43.2507445 45.4072295,43.2587052 45.4740195,43.2587052 C50.9867587,43.2533981 56.4969292,43.2480909 62.0122373,43.2427838 C62.017375,43.2427838 62.0276504,43.234823 62.032788,43.2295159 C62.0379257,43.2215551 62.0404946,43.2135944 62.05077,43.1976729 C61.5292946,39.0607424 61.0078193,34.9105441 60.4863439,30.7550386 L45.2685119,30.7550386 Z M17.0600357,12.2277464 C16.8699412,12.1614069 7.07237012,12.1587534 6.84888069,12.2277464 C6.2195139,17.2377045 5.59014711,22.2529698 4.96078033,27.2708887 C4.95564264,27.3106924 4.96078033,27.3558032 4.96078033,27.3982605 C4.96078033,27.4062212 4.96591801,27.4168355 4.9710557,27.4221427 C4.97619339,27.4301034 4.98133108,27.4354106 4.99674414,27.4513321 C5.01986374,27.4539857 5.05325871,27.4619464 5.08665368,27.4619464 L22.7911267,27.4619464 C22.8168152,27.4619464 22.8425036,27.4539857 22.8656232,27.4486785 C22.8707609,27.4460249 22.8784674,27.4380642 22.8861739,27.432757 C22.8913116,27.4274499 22.8964493,27.4194891 22.9092935,27.4062212 C22.9041558,27.2098563 22.950395,27.0134915 22.8142463,26.814473 C22.2002926,25.9042952 21.5889077,24.9861567 21.0006424,24.0600575 C20.4072395,23.1286511 19.8806264,22.1600945 19.3925461,21.1676558 C18.7220778,19.8090231 18.1595009,18.4052795 17.7510547,16.9351965 C17.4093985,15.7039356 17.1807714,14.4514461 17.1062749,13.1697671 C17.088293,12.8566448 17.0754488,12.5408688 17.0600357,12.2277464 L17.0600357,12.2277464 Z M42.1191092,27.4460249 L60.0701912,27.4460249 C59.8544083,25.7344661 59.6386254,24.0467896 59.4279802,22.3564594 C59.2147662,20.6528614 59.0118275,18.9519169 58.7909069,17.2509724 C58.5725551,15.5632959 58.377323,13.8729657 58.146127,12.1932499 L47.9452474,12.1932499 C47.9375409,12.3206217 47.9272655,12.432072 47.9246967,12.5435224 C47.9221278,13.2626424 47.8502002,13.9791089 47.7423087,14.684961 C47.4520294,16.6114598 46.8509199,18.4371225 46.0648536,20.2017529 C45.4097984,21.6771431 44.6263009,23.078233 43.7734447,24.4395193 C43.2956397,25.2037502 42.7870086,25.9520597 42.2732398,26.6897548 C42.1062649,26.9285769 42.07287,27.1594383 42.1191092,27.4460249 L42.1191092,27.4460249 Z M2.53322272,46.5677189 C1.98862779,50.9036678 1.44403286,55.2369631 0.894300234,59.5888335 L19.7547531,59.5888335 L19.7547531,46.5677189 L2.53322272,46.5677189 Z M45.2659431,46.5650653 C45.2145662,46.888802 45.2248416,59.3951222 45.2736496,59.5914871 L64.1135517,59.5914871 C63.5663879,55.2396167 63.0192242,50.9063214 62.4746292,46.5650653 L45.2659431,46.5650653 Z M42.0831453,59.5967943 C42.1345222,59.1722216 42.1165403,46.7640838 42.0677323,46.5783332 C41.7055253,46.5252616 23.1070945,46.5464902 22.9272754,46.5969083 C22.8784674,46.9604486 22.8964493,59.4004294 22.950395,59.5967943 L42.0831453,59.5967943 Z M32.4962194,34.9609621 C32.5681471,34.8760476 32.6220928,34.8123616 32.6786074,34.7486757 C33.310543,33.9844448 33.9424786,33.2202139 34.5744143,32.4506759 C35.319379,31.5431517 36.0694815,30.6382811 36.7990332,29.717489 C37.5517045,28.7701611 38.2941004,27.8122189 39.0133767,26.8357016 C39.6735696,25.9387918 40.3055053,25.0153461 40.9374409,24.094554 C41.6002027,23.1286511 42.1987433,22.1229444 42.763889,21.0933556 C43.4934407,19.7586051 44.1356517,18.3813973 44.6237321,16.9272357 C44.9910768,15.8419217 45.2402547,14.7274183 45.3532838,13.581072 C45.4534687,12.5939404 45.4354868,11.6068088 45.3275953,10.6170237 C45.1940155,9.42556646 44.8934607,8.28187369 44.4182246,7.18859893 C44.0020718,6.2333103 43.4600457,5.35497549 42.7947151,4.56420879 C41.8134167,3.39663381 40.6368862,2.47053456 39.3087938,1.75141451 C38.1605205,1.12782332 36.9274754,0.748361453 35.6713107,0.448506968 C34.9340524,0.273370721 34.1813811,0.185802597 33.4287098,0.151306063 C31.9079542,0.0823129958 30.3974739,0.164573961 28.912682,0.557303728 C27.6590861,0.889001167 26.4414541,1.29765241 25.3188692,1.97431519 C24.499408,2.4652274 23.7236171,3.00655762 23.0351669,3.67791323 C22.2645137,4.42887624 21.6068896,5.26740736 21.0700012,6.20942809 C20.1092535,7.89445108 19.6442928,9.72276736 19.5826405,11.6598804 C19.5389702,13.1458849 19.7110827,14.6133144 20.1092535,16.0489009 C20.5254063,17.5455198 21.1213781,18.9651848 21.8355167,20.3291247 C22.3030463,21.223381 22.7962644,22.1017158 23.3254463,22.958822 C23.9316935,23.9300321 24.5687668,24.8800135 25.2263908,25.8140735 C25.8840149,26.7481335 26.5724651,27.6609649 27.2686218,28.5658355 C27.9981736,29.5078562 28.7508449,30.436609 29.5009473,31.3653619 C30.0481111,32.0393711 30.6132568,32.7054195 31.1706959,33.3767751 C31.3684969,33.6155973 31.5637291,33.8597266 31.76153,34.0985488 C32.0004325,34.3824818 32.2419039,34.6637612 32.4962194,34.9609621 L32.4962194,34.9609621 Z" id="Fill-10" fill="#FEFEFE"></path>
                <path d="M40.4200757,13.1052852 C40.3866808,12.8133914 40.3558546,12.3224792 40.2787893,11.8368742 C40.0116295,10.0987796 39.2358386,8.62073579 38.0644458,7.35232478 C37.5583835,6.80303382 36.957274,6.36784678 36.3279072,5.98838491 C35.4853263,5.48155123 34.5708179,5.16577527 33.6023637,5.04105703 C31.6577488,4.79162056 29.8467137,5.17108243 28.1975158,6.30416088 C27.1545652,7.02328092 26.3248286,7.93876586 25.6954618,9.05326925 C24.9453593,10.3853662 24.5780146,11.8236063 24.5985654,13.365336 C24.6268227,15.4218601 25.2844467,17.2422156 26.5791441,18.7998668 C27.2675943,19.6330908 28.0896244,20.3071 29.0529409,20.7794371 C29.9006594,21.1933955 30.7869106,21.4852893 31.7219699,21.5834717 C32.6133587,21.6736934 33.4970411,21.6232754 34.3678792,21.3738389 C35.4056922,21.076638 36.3715775,20.6441046 37.2321403,19.9568275 C38.241696,19.1448321 39.0277623,18.1603541 39.5929079,16.9768577 C40.1426406,15.8145898 40.3969561,14.5886361 40.4200757,13.1052852 M32.4951919,34.960166 C32.2408763,34.6629651 32.0019738,34.3843393 31.7630714,34.0977527 C31.5652704,33.8589305 31.3700382,33.6148012 31.1696684,33.3786326 C30.6147981,32.707277 30.0496524,32.0412286 29.4999198,31.3645658 C28.7498173,30.435813 27.997146,29.5097137 27.2701632,28.5650394 C26.5714376,27.6601688 25.8855562,26.749991 25.2279322,25.8132774 C24.5677392,24.8792175 23.9306659,23.929236 23.3269876,22.9580259 C22.7978057,22.1035733 22.3020188,21.2252385 21.837058,20.3309822 C21.1203506,18.9643887 20.5269476,17.5447237 20.1107949,16.0481048 C19.7100552,14.6125183 19.5379426,13.1477424 19.5841818,11.6590843 C19.6432652,9.72462487 20.1107949,7.893655 21.0715425,6.20863201 C21.6084309,5.26661129 22.266055,4.42808016 23.0341394,3.67711716 C23.7251584,3.00576154 24.5009493,2.46443132 25.3178417,1.97617269 C26.4429954,1.29950992 27.6580586,0.888205094 28.9142233,0.556507655 C30.3990152,0.163777887 31.9094955,0.0841705015 33.4276823,0.150509989 C34.1803536,0.185006523 34.9330249,0.272574647 35.6702831,0.447710895 C36.9290167,0.750218959 38.159493,1.12702725 39.3077663,1.75327201 C40.6358586,2.46973848 41.8123892,3.39849131 42.7962564,4.56341272 C43.461587,5.35417941 44.0036131,6.23251423 44.4197659,7.19045643 C44.8924332,8.28373119 45.1929879,9.42477038 45.3265678,10.6188812 C45.4344593,11.6086663 45.4524412,12.5957979 45.3548251,13.5829295 C45.241796,14.7266222 44.9900492,15.8411256 44.6252734,16.9264397 C44.1346242,18.3806012 43.4924132,19.757809 42.7628615,21.0952131 C42.1977158,22.1221483 41.5991751,23.127855 40.9364134,24.0964115 C40.3044777,25.01455 39.675111,25.9379957 39.0123492,26.8375591 C38.2956417,27.8114228 37.5532458,28.769365 36.8005745,29.7193465 C36.0710228,30.637485 35.3209203,31.5423556 34.5759556,32.4498798 C33.9440199,33.2194179 33.3095155,33.9836488 32.6775798,34.7478797 C32.6236341,34.8142191 32.5671195,34.8752515 32.4951919,34.960166" id="Fill-12" fill="#731012"></path>
                <path d="M42.0831453,59.597325 L22.950395,59.597325 C22.8964493,59.4009601 22.8784674,46.9609794 22.9272754,46.597439 C23.1070945,46.547021 41.7055253,46.5257923 42.0677323,46.5788639 C42.1165403,46.7646145 42.1345222,59.1727523 42.0831453,59.597325" id="Fill-14" fill="#819FB3"></path>
                <path d="M45.2667137,46.5650653 L62.4753999,46.5650653 C63.0199948,50.9063214 63.5671586,55.2396167 64.1143224,59.5914871 L45.2744203,59.5914871 C45.2230434,59.3951222 45.212768,46.888802 45.2667137,46.5650653" id="Fill-16" fill="#819FB3"></path>
                <path d="M2.5319383,46.5677189 L19.7534686,46.5677189 L19.7534686,59.5888335 L0.893015812,59.5888335 C1.44274843,55.2369631 1.98734337,50.9036678 2.5319383,46.5677189" id="Fill-18" fill="#819FB3"></path>
                <path d="M42.1183385,27.4460249 C42.0720993,27.1594383 42.1054943,26.9285769 42.275038,26.6897548 C42.7888068,25.9547132 43.2948691,25.2037502 43.7752429,24.4395193 C44.6280991,23.078233 45.4090277,21.6771431 46.0640829,20.2044064 C46.852718,18.4371225 47.4512587,16.6114598 47.7415381,14.684961 C47.8494295,13.9791089 47.923926,13.2626424 47.9264949,12.5435224 C47.9290637,12.432072 47.9393391,12.3206217 47.9470456,12.1932499 L58.1453564,12.1932499 C58.3765523,13.8729657 58.5717845,15.5632959 58.7901362,17.2509724 C59.0110568,18.9519169 59.2139955,20.6528614 59.4272096,22.3564594 C59.6378548,24.0467896 59.8536377,25.7344661 60.0694206,27.4460249 L42.1183385,27.4460249 Z" id="Fill-20" fill="#819FB3"></path>
                <path d="M17.0595219,12.226685 C17.074935,12.5398074 17.090348,12.8555833 17.10833,13.1687057 C17.1802576,14.4530382 17.4088847,15.7055277 17.7531098,16.934135 C18.161556,18.4042181 18.721564,19.8079617 19.3920323,21.1665944 C19.8826815,22.1590331 20.4067257,23.1275896 21.0001287,24.058996 C21.5909628,24.9877489 22.1997788,25.9032338 22.8137325,26.8134116 C22.9498813,27.01243 22.9036421,27.2087949 22.9087798,27.4078134 C22.8959355,27.4210813 22.8933667,27.429042 22.888229,27.4316956 C22.8805225,27.4370027 22.872816,27.4449635 22.8651094,27.4476171 C22.8419898,27.4529242 22.8163014,27.460885 22.7906129,27.460885 L5.08613992,27.460885 C5.05274494,27.460885 5.01934997,27.4529242 4.99879922,27.4502706 C4.98081731,27.4343492 4.97567962,27.429042 4.97054193,27.4237349 C4.96540425,27.4184277 4.96026656,27.4078134 4.96026656,27.3998526 C4.96026656,27.3547418 4.95512887,27.3122845 4.96026656,27.2698272 C5.58963334,22.2519084 6.21900013,17.2392967 6.84836692,12.226685 C7.07185635,12.1603455 16.8694275,12.1629991 17.0595219,12.226685" id="Fill-22" fill="#819FB3"></path>
                <path d="M45.2692826,30.7550386 L60.4871146,30.7550386 C61.0085899,34.9105441 61.5300653,39.0607424 62.0515406,43.1950193 C62.0386964,43.2135944 62.0361275,43.2215551 62.0309899,43.2295159 C62.0258522,43.234823 62.0181456,43.2427838 62.013008,43.2427838 C56.4976998,43.2480909 50.9875294,43.2533981 45.4747901,43.2587052 C45.4080002,43.2587052 45.3386414,43.2507445 45.2769891,43.2480909 C45.2204746,43.0437653 45.2153369,31.0310108 45.2692826,30.7550386" id="Fill-24" fill="#819FB3"></path>
                <path d="M4.521508,30.7550386 L19.7264958,30.7550386 C19.7804415,30.9328284 19.7984234,42.8606683 19.7419089,43.234823 L2.95451314,43.234823 C3.47085079,39.0766639 3.99746382,34.9317727 4.521508,30.7550386" id="Fill-26" fill="#819FB3"></path>
                <path d="M22.9221378,43.2533981 L22.9221378,30.7603457 C22.9992031,30.752385 23.065993,30.7417707 23.1302141,30.7417707 C23.9291246,30.7417707 24.7254663,30.7444243 25.5243768,30.7391171 C25.6630943,30.7364635 25.7581416,30.7815744 25.8480511,30.8956783 C26.6983385,31.9624172 27.5537635,33.0265026 28.4117574,34.090588 C28.5787323,34.2975672 28.7559825,34.4992393 28.9255262,34.7062185 C29.4803966,35.3669598 30.0378357,36.0303546 30.5875683,36.6937495 C31.1681271,37.3916409 31.7435481,38.0948395 32.3189692,38.7927309 C32.3754838,38.8590704 32.4345672,38.9174491 32.5090637,38.9997101 C32.7222777,38.7476201 32.9303541,38.5061443 33.1332928,38.262015 C33.2797169,38.0842252 33.4235721,37.895821 33.5725651,37.7180312 C34.1762434,36.9962576 34.7850595,36.2771375 35.386169,35.5527103 C36.1568222,34.6213039 36.9274754,33.6898975 37.6929909,32.7505304 C38.186209,32.1428607 38.6691516,31.5192695 39.157232,30.903639 C39.2291596,30.8134173 39.2908119,30.7364635 39.4243918,30.7391171 C40.2823857,30.7470778 41.1378107,30.7417707 41.9958046,30.7444243 C42.0189242,30.7444243 42.0420438,30.752385 42.0651634,30.7576922 C42.121678,30.9593642 42.1422288,42.534278 42.0934207,43.2029801 C42.088283,43.2109408 42.0831453,43.2189015 42.0780077,43.2242087 C42.0703011,43.2295159 42.0651634,43.2374766 42.0574569,43.2401302 C41.990667,43.2454373 41.9213082,43.2533981 41.8545182,43.2533981 L22.9221378,43.2533981 Z" id="Fill-28" fill="#819FB3"></path>
                <path d="M27.7212522,13.1673789 C27.7829044,15.0248846 28.4353908,16.3490208 29.6812802,17.3467667 C30.523861,18.0234294 31.5102971,18.3312447 32.5763674,18.3073624 C33.7888618,18.2808266 34.8575009,17.8536003 35.7437521,16.9726119 C36.1188033,16.5984572 36.4399088,16.189806 36.683949,15.7095081 C37.2516635,14.6162333 37.4135007,13.4619263 37.1720293,12.251894 C36.8509238,10.6623999 35.9775169,9.46563551 34.5723592,8.75978336 C33.0644477,8.0035132 31.5462609,8.06189195 30.0845887,8.96410898 C29.3987073,9.38602812 28.8515435,9.94062624 28.4379596,10.6438248 C27.9421728,11.4903167 27.7161145,12.4084552 27.7212522,13.1673789 M40.4190482,13.1063466 C40.3984974,14.587044 40.141613,15.8156513 39.5918804,16.9779191 C39.0267347,18.1614156 38.2432373,19.1458936 37.2311127,19.9578889 C36.37055,20.6425124 35.4046646,21.0750459 34.3668517,21.3749004 C33.4960135,21.6243368 32.6123312,21.6747548 31.7235112,21.5845331 C30.7858831,21.4863507 29.9022007,21.1918034 29.0544822,20.777845 C28.0911657,20.3055078 27.2665668,19.6341522 26.5806854,18.8009282 C25.285988,17.2406235 24.6257951,15.4229215 24.5975378,13.3637438 C24.5769871,11.8220141 24.9443318,10.383774 25.6944342,9.0516771 C26.323801,7.93717371 27.1535376,7.02434236 28.1990572,6.30522231 C29.8456862,5.16949028 31.6567212,4.79268199 33.6013361,5.03946488 C34.5697903,5.16418312 35.4842988,5.48261266 36.3294485,5.98944635 C36.9588153,6.36625464 37.5573559,6.80409526 38.0634182,7.35338622 C39.2348111,8.61914364 40.010602,10.099841 40.2803306,11.8379356 C40.3548271,12.3235406 40.3882221,12.8117993 40.4190482,13.1063466" id="Fill-30" stroke="#819FB3" stroke-width="1.1495" fill="#FFFFFF"></path>
                <path d="M27.7212522,13.1673789 C27.7161145,12.4084552 27.9421728,11.4903167 28.4379596,10.6438248 C28.8515435,9.94062624 29.3987073,9.38602812 30.0845887,8.96410898 C31.5462609,8.06189195 33.0644477,8.0035132 34.5723592,8.75978336 C35.9775169,9.46563551 36.8509238,10.6623999 37.1720293,12.251894 C37.4135007,13.4619263 37.2516635,14.6162333 36.683949,15.7095081 C36.4399088,16.189806 36.1188033,16.5984572 35.7437521,16.9726119 C34.8575009,17.8536003 33.7888618,18.2808266 32.5763674,18.3073624 C31.5102971,18.3312447 30.523861,18.0234294 29.6812802,17.3467667 C28.4353908,16.3490208 27.7829044,15.0248846 27.7212522,13.1673789" id="Fill-32" fill="#819FB3"></path>
            </g>
        </g>
    </g>
</svg>