<?xml version="1.0" encoding="UTF-8"?>
<svg width="279px" height="207px" viewBox="0 0 279 207" version="1.1" xmlns="http://www.w3.org/2000/svg" xmlns:xlink="http://www.w3.org/1999/xlink">
    <!-- Generator: Sketch 54.1 (76490) - https://sketchapp.com -->
    <title>Restaurant Style Menu v2</title>
    <desc>Created with Sketch.</desc>
    <g id="Restaurant-Style-Menu-v2" stroke="none" stroke-width="1" fill="none" fill-rule="evenodd">
        <rect id="Rectangle-Copy-17" fill="#313131" x="0" y="0" width="279" height="207"></rect>
        <g id="Group-Copy-8" transform="translate(31.000000, 33.000000)">
            <path d="M4.59687744,2.6945127 L4.59687744,12.413625 L7.46613721,12.413625 C8.93445119,12.413625 9.95821439,11.6895819 10.5374575,10.2414741 C10.8540206,9.44669866 11.0122998,8.50039123 11.0122998,7.40252344 C11.0122998,5.88706176 10.774881,4.72354141 10.3000364,3.91192749 C9.82519172,3.10031357 8.88056811,2.6945127 7.46613721,2.6945127 L4.59687744,2.6945127 Z M7.99149463,0.108137695 C8.91424241,0.121608466 9.68206481,0.229373013 10.2949849,0.43143457 C11.3389696,0.774939218 12.1842477,1.40468829 12.8308447,2.32070068 C13.3494694,3.06159306 13.7030718,3.86309188 13.8916626,4.72522119 C14.0802534,5.5873505 14.1745474,6.40905518 14.1745474,7.19035986 C14.1745474,9.17056312 13.7771656,10.8476489 12.9823901,12.2216675 C11.9047285,14.0738984 10.2411133,15 7.99149463,15 L1.57607227,15 L1.57607227,0.108137695 L7.99149463,0.108137695 Z M19.6330378,15 L16.5415115,15 L16.5415115,0.108137695 L19.6330378,0.108137695 L19.6330378,15 Z M22.7476259,0.108137695 L26.0109038,0.108137695 L31.9413808,10.5041528 L31.9413808,0.108137695 L34.8409497,0.108137695 L34.8409497,15 L31.7292173,15 L25.6471948,4.42213037 L25.6471948,15 L22.7476259,15 L22.7476259,0.108137695 Z M37.9555378,0.108137695 L41.2188156,0.108137695 L47.1492927,10.5041528 L47.1492927,0.108137695 L50.0488615,0.108137695 L50.0488615,15 L46.9371291,15 L40.8551066,4.42213037 L40.8551066,15 L37.9555378,15 L37.9555378,0.108137695 Z M64.2262646,2.74502783 L56.3459033,2.74502783 L56.3459033,5.90727539 L63.5796708,5.90727539 L63.5796708,8.49365039 L56.3459033,8.49365039 L56.3459033,12.3226978 L64.5899736,12.3226978 L64.5899736,15 L53.304892,15 L53.304892,0.108137695 L64.2262646,0.108137695 L64.2262646,2.74502783 Z M70.391967,2.6945127 L70.391967,6.69531152 L73.9179235,6.69531152 C74.6184036,6.69531152 75.1437557,6.61448811 75.4939958,6.45283887 C76.1136512,6.16995269 76.4234743,5.6109241 76.4234743,4.77573633 C76.4234743,3.87319471 76.1237541,3.26701913 75.5243048,2.95719141 C75.1875356,2.78207139 74.6823893,2.6945127 74.0088507,2.6945127 L70.391967,2.6945127 Z M74.6554445,0.108137695 C75.6994292,0.128343851 76.5026118,0.256314251 77.0650165,0.492052734 C77.6274212,0.727791218 78.1039425,1.07465835 78.4945949,1.53266455 C78.8178934,1.90984612 79.0738342,2.32743375 79.262425,2.78543994 C79.4510158,3.24344614 79.5453097,3.76543066 79.5453097,4.35140918 C79.5453097,5.05862463 79.3668247,5.75404272 79.0098493,6.43768433 C78.6528739,7.12132593 78.0635365,7.60458257 77.2418195,7.88746875 C77.9288288,8.16361954 78.4154531,8.55594985 78.7017069,9.06447144 C78.9879608,9.57299302 79.1310856,10.3492345 79.1310856,11.3932192 L79.1310856,12.3934189 C79.1310856,13.0736929 79.1580267,13.5350598 79.2119098,13.7775337 C79.2927345,14.1614507 79.4813224,14.4443326 79.7776794,14.626188 L79.7776794,15 L76.3527531,15 C76.2584577,14.6699661 76.1911049,14.4039224 76.1506925,14.2018608 C76.0698679,13.784267 76.0260886,13.3565764 76.0193532,12.9187764 L75.9991471,11.5346616 C75.9856764,10.5849723 75.8122428,9.95185559 75.4788412,9.63529248 C75.1454397,9.31872937 74.520742,9.1604502 73.6047297,9.1604502 L70.391967,9.1604502 L70.391967,15 L67.3509557,15 L67.3509557,0.108137695 L74.6554445,0.108137695 Z" id="DINNER" fill="#FFFFFF" fill-rule="nonzero"></path>
            <path d="M85.7410254,8.87639453 L87.1913711,8.87639453 L89.8271387,13.4968457 L89.8271387,8.87639453 L91.1158359,8.87639453 L91.1158359,15.495 L89.7328438,15.495 L87.0297227,10.7937246 L87.0297227,15.495 L85.7410254,15.495 L85.7410254,8.87639453 Z M97.4169039,10.0483457 L93.9145211,10.0483457 L93.9145211,11.4537891 L97.1295289,11.4537891 L97.1295289,12.6032891 L93.9145211,12.6032891 L93.9145211,14.3050879 L97.5785524,14.3050879 L97.5785524,15.495 L92.5629606,15.495 L92.5629606,8.87639453 L97.4169039,8.87639453 L97.4169039,10.0483457 Z M99.676761,8.87639453 L100.552357,12.6661523 L100.740947,13.7213574 L100.934027,12.6886035 L101.679406,8.87639453 L103.138732,8.87639453 L103.924523,12.6661523 L104.126583,13.7213574 L104.328644,12.7065645 L105.21322,8.87639453 L106.618663,8.87639453 L104.755216,15.495 L103.435087,15.495 L102.635825,11.624418 L102.402333,10.3447012 L102.168841,11.624418 L101.369579,15.495 L100.085372,15.495 L98.2084544,8.87639453 L99.676761,8.87639453 Z M110.244821,8.885375 L114.937116,8.885375 L114.937116,10.0483457 L111.618833,10.0483457 L111.618833,11.5705352 L114.524014,11.5705352 L114.524014,12.7200352 L111.618833,12.7200352 L111.618833,15.495 L110.244821,15.495 L110.244821,8.885375 Z M117.286777,12.9939395 L118.966125,12.9939395 L118.139922,10.3896035 L117.286777,12.9939395 Z M117.372092,8.87639453 L118.934694,8.87639453 L121.278596,15.495 L119.778858,15.495 L119.352285,14.134459 L116.914088,14.134459 L116.456084,15.495 L115.010229,15.495 L117.372092,8.87639453 Z M122.236285,8.87639453 L123.619277,8.87639453 L123.619277,14.3050879 L126.897148,14.3050879 L126.897148,15.495 L122.236285,15.495 L122.236285,8.87639453 Z M127.971583,8.87639453 L129.354576,8.87639453 L129.354576,14.3050879 L132.632447,14.3050879 L132.632447,15.495 L127.971583,15.495 L127.971583,8.87639453 Z M140.605151,8.87639453 L142.594325,8.87639453 L142.594325,15.495 L141.305628,15.495 L141.305628,11.0182363 C141.305628,10.8895156 141.307124,10.7091597 141.310118,10.4771631 C141.313111,10.2451665 141.314608,10.0663073 141.314608,9.94058008 L140.061833,15.495 L138.719253,15.495 L137.475458,9.94058008 C137.475458,10.0663073 137.476954,10.2451665 137.479948,10.4771631 C137.482941,10.7091597 137.484438,10.8895156 137.484438,11.0182363 L137.484438,15.495 L136.195741,15.495 L136.195741,8.87639453 L138.207366,8.87639453 L139.410749,14.0805762 L140.605151,8.87639453 Z M148.890903,10.0483457 L145.38852,10.0483457 L145.38852,11.4537891 L148.603528,11.4537891 L148.603528,12.6032891 L145.38852,12.6032891 L145.38852,14.3050879 L149.052551,14.3050879 L149.052551,15.495 L144.036959,15.495 L144.036959,8.87639453 L148.890903,8.87639453 L148.890903,10.0483457 Z M150.225771,8.87639453 L151.676117,8.87639453 L154.311885,13.4968457 L154.311885,8.87639453 L155.600582,8.87639453 L155.600582,15.495 L154.21759,15.495 L151.514469,10.7937246 L151.514469,15.495 L150.225771,15.495 L150.225771,8.87639453 Z M157.007294,8.87639453 L158.412738,8.87639453 L158.412738,12.9445469 C158.412738,13.3995596 158.46662,13.7318336 158.574386,13.9413789 C158.742023,14.3125735 159.107225,14.498168 159.670003,14.498168 C160.229789,14.498168 160.593494,14.3125735 160.76113,13.9413789 C160.868897,13.7318336 160.922779,13.3995596 160.922779,12.9445469 L160.922779,8.87639453 L162.328222,8.87639453 L162.328222,12.9445469 C162.328222,13.6480204 162.218961,14.1958236 162.000435,14.5879727 C161.593318,15.3064137 160.816516,15.6656289 159.670003,15.6656289 C158.523491,15.6656289 157.745192,15.3064137 157.335082,14.5879727 C157.116556,14.1958236 157.007294,13.6480204 157.007294,12.9445469 L157.007294,8.87639453 Z" id="NEWFALLMENU" fill="#8C8C8C" fill-rule="nonzero"></path>
            <rect id="Rectangle" fill="#FFFFFF" x="0" y="23.7375" width="217.2555" height="124.146"></rect>
            <g id="LInes-1" transform="translate(11.345500, 34.083000)" stroke-linecap="square">
                <path d="M1.299,1.1495 L36.9335,1.1495" id="Line-Copy-7" stroke="#5C5C5C" stroke-width="4.598"></path>
                <path d="M0.1495,20.691 L36.9335,20.691" id="Line-Copy-8" stroke="#5C5C5C"></path>
                <path d="M0.1495,29.887 L36.9335,29.887" id="Line-Copy-10" stroke="#5C5C5C"></path>
                <path d="M0.1495,39.083 L36.9335,39.083" id="Line-Copy-11" stroke="#5C5C5C"></path>
                <path d="M0.1495,49.4285 L36.9335,49.4285" id="Line-Copy-12" stroke="#5C5C5C"></path>
                <path d="M0.1495,58.6245 L36.9335,58.6245" id="Line-Copy-13" stroke="#5C5C5C"></path>
                <path d="M0.1495,10.3455 L36.9335,10.3455" id="Line-Copy-9" stroke="#5C5C5C"></path>
                <g id="Carousel" transform="translate(0.149500, 101.156000)" stroke-width="1.1495">
                    <path d="M-8.79296636e-14,0.646589853 L9.19550113,0.550803382" id="Line-4-Copy-6" stroke="#ADADAD"></path>
                    <path d="M16.093,0.658563161 L25.2885011,0.562776691" id="Line-4-Copy-7" stroke="#575757"></path>
                    <path d="M33.3355,0.622643235 L42.5310011,0.526856765" id="Line-4-Copy-8" stroke="#575757"></path>
                </g>
            </g>
            <g id="Lines" transform="translate(80.465000, 34.083000)" stroke="#5C5C5C" stroke-linecap="square">
                <path d="M0,1.1495 L35.6345,1.1495" id="Line-Copy-7" stroke-width="4.598"></path>
                <path d="M0,21.8405 L36.784,21.8405" id="Line-Copy-8"></path>
                <path d="M0,31.0365 L36.784,31.0365" id="Line-Copy-10"></path>
                <path d="M0,41.382 L36.784,41.382" id="Line-Copy-11"></path>
                <path d="M0,51.7275 L36.784,51.7275" id="Line-Copy-12"></path>
                <path d="M0,62.073 L36.784,62.073" id="Line-Copy-13"></path>
                <path d="M0,72.4185 L36.784,72.4185" id="Line-Copy-14"></path>
                <path d="M0,81.6145 L36.784,81.6145" id="Line-Copy-15"></path>
                <path d="M0,91.96 L36.784,91.96" id="Line-Copy-16"></path>
                <path d="M0,102.3055 L36.784,102.3055" id="Line-Copy-17"></path>
                <path d="M0,11.495 L36.784,11.495" id="Line-Copy-9"></path>
            </g>
        </g>
        <g id="food-carousel" transform="translate(173.538000, 145.083000)" stroke-linecap="square">
            <path d="M1.1495,0.800616544 L14.9427517,0.656936839" id="Line-4-Copy-3" stroke="#ADADAD" stroke-width="1.1495"></path>
            <path d="M22.99,0.812589853 L36.7832517,0.668910147" id="Line-4-Copy-4" stroke="#575757" stroke-width="1.1495"></path>
            <path d="M44.8305,0.812589853 L58.6237517,0.668910147" id="Line-4-Copy-5" stroke="#575757" stroke-width="1.1495"></path>
            <path d="M0,10.5115 L59.774,10.5115" id="Line-Copy-11" stroke="#5C5C5C"></path>
            <path d="M0,20.857 L45.98,20.857" id="Line-Copy-18" stroke="#5C5C5C"></path>
        </g>
        <g id="IMG-Copy-2" transform="translate(42.000000, 133.000000)">
            <g id="Group-12">
                <polygon id="Fill-1" fill="#819FB3" points="0 31 46.8292683 31 46.8292683 0 0 0"></polygon>
                <g id="Group-11" transform="translate(12.747501, 5.511111)">
                    <path d="M4.65872913,9.45938069 C4.41736485,9.45938069 4.17922952,9.39763914 3.97015478,9.28118988 L1.12302496,7.68919558 C0.698417566,7.45238936 0.435257849,7.01003847 0.435257849,6.53564449 L0.435257849,3.35243744 C0.435257849,2.87726192 0.698417566,2.43569256 1.12302496,2.1981048 L3.97015478,0.606110511 C4.17922952,0.489661247 4.41736485,0.427919691 4.65872913,0.427919691 C4.90009341,0.427919691 5.1374215,0.489661247 5.34649624,0.606110511 L8.1944333,2.1981048 C8.6190407,2.43569256 8.88220041,2.87726192 8.88220041,3.35243744 L8.88220041,6.53564449 C8.88220041,7.01003847 8.6190407,7.45238936 8.1944333,7.68919558 L5.34649624,9.28118988 C5.1374215,9.39763914 4.90009341,9.45938069 4.65872913,9.45938069" id="Fill-3" fill="#FEFEFE"></path>
                    <path d="M4.65872913,0.037384812 C4.3511713,0.037384812 4.04442071,0.113975603 3.76834518,0.267938723 L0.921215363,1.85993302 C0.370678777,2.16785926 0.0316386514,2.73603788 0.0316386514,3.35189036 L0.0316386514,6.53509741 C0.0316386514,7.15173143 0.370678777,7.71991005 0.921215363,8.02783629 L3.76834518,9.61983059 C4.04442071,9.77379371 4.3511713,9.85116604 4.65872913,9.85116604 C4.96547972,9.85116604 5.27303755,9.77379371 5.54830584,9.61983059 L8.3962429,8.02783629 C8.94677949,7.71991005 9.28581961,7.15173143 9.28581961,6.53509741 L9.28581961,3.35189036 C9.28581961,2.73603788 8.94677949,2.16785926 8.3962429,1.85993302 L5.54830584,0.267938723 C5.27303755,0.113975603 4.96547972,0.037384812 4.65872913,0.037384812 M4.65872913,0.818923493 C4.82905643,0.818923493 4.99696202,0.86268966 5.14468665,0.944751221 L7.9926237,2.53674552 C8.29210915,2.70399479 8.47858122,3.0173918 8.47858122,3.35189036 L8.47858122,6.53509741 C8.47858122,6.87115904 8.29210915,7.18377452 7.9926237,7.35102379 L5.14468665,8.94301809 C4.99696202,9.02507965 4.82905643,9.06962735 4.65872913,9.06962735 C4.48840183,9.06962735 4.32049624,9.02507965 4.17196438,8.94301809 L1.32483456,7.35102379 C1.02454188,7.18377452 0.838877046,6.87115904 0.838877046,6.53509741 L0.838877046,3.35189036 C0.838877046,3.0173918 1.02454188,2.70399479 1.32483456,2.53674552 L4.17196438,0.944751221 C4.32049624,0.86268966 4.48840183,0.818923493 4.65872913,0.818923493" id="Fill-5" fill="#C8282C"></path>
                </g>
                <polygon id="Fill-7" fill-opacity="0.73" fill="#EEF8FF" points="11.0139068 21.1255448 20.0463379 25.6926403 34.1570417 11.1250138 47.0936271 30.5331595 1.43509048 30.6435324"></polygon>
            </g>
        </g>
        <g id="IMG" transform="translate(174.000000, 67.000000)">
            <g id="Group-22">
                <polygon id="Fill-2" fill="#819FB3" points="0 74.8823529 60 74.8823529 60 0 0 0"></polygon>
                <g id="Group-21" transform="translate(0.000000, 8.139386)">
                    <polygon id="Fill-3" fill="#D0E0EA" points="0.845070423 65.9290281 14.1055755 36.9439324 25.2902075 49.9885241 39.6497041 15.4648338 56.6197183 65.9290281"></polygon>
                    <path d="M40.6690141,11.3951407 L25.8802817,47.2084399 L14.7887324,34.185422 L0,66.7429668 L59.1549296,66.7429668 L40.6690141,11.3951407 Z M40.5695303,18.7205882 L55.7746479,64.3011509 L4.22535211,64.3011509 L15.7539695,38.8851418 L24.2617889,48.8768205 L26.8650251,51.9409784 L28.3949972,48.2329267 L40.5695303,18.7205882 Z" id="Fill-4" fill="#D0E0EA"></path>
                    <path d="M8.56766197,7.28084373 L8.56766197,11.4254192 C8.56766197,13.0012043 9.43977465,14.4565266 10.8561127,15.2444192 L14.5811831,17.315079 C15.9975211,18.1029716 17.7417465,18.1029716 19.1580845,17.315079 L22.8831549,15.2444192 C24.299493,14.4565266 25.1716056,13.0012043 25.1716056,11.4254192 L25.1716056,7.28084373 C25.1716056,5.70831432 24.299493,4.24973632 22.8831549,3.46509949 L19.1580845,1.39118389 C17.7417465,0.603291304 15.9975211,0.603291304 14.5811831,1.39118389 L10.8561127,3.46509949 C9.43977465,4.24973632 8.56766197,5.70831432 8.56766197,7.28084373" id="Fill-5" fill="#FEFEFE"></path>
                    <path d="M8.56766197,7.28084373 L8.56766197,11.4254192 C8.56766197,13.0012043 9.43977465,14.4565266 10.8561127,15.2444192 L14.5811831,17.315079 C15.9975211,18.1029716 17.7417465,18.1029716 19.1580845,17.315079 L22.8831549,15.2444192 C24.299493,14.4565266 25.1716056,13.0012043 25.1716056,11.4254192 L25.1716056,7.28084373 C25.1716056,5.70831432 24.299493,4.24973632 22.8831549,3.46509949 L19.1580845,1.39118389 C17.7417465,0.603291304 15.9975211,0.603291304 14.5811831,1.39118389 L10.8561127,3.46509949 C9.43977465,4.24973632 8.56766197,5.70831432 8.56766197,7.28084373 Z" id="Stroke-7" stroke="#C8282C" stroke-width="2.0691"></path>
                </g>
            </g>
        </g>
    </g>
</svg>