<?xml version="1.0" encoding="UTF-8"?>
<svg width="279px" height="207px" viewBox="0 0 279 207" version="1.1" xmlns="http://www.w3.org/2000/svg" xmlns:xlink="http://www.w3.org/1999/xlink">
    <!-- Generator: Sketch 54.1 (76490) - https://sketchapp.com -->
    <title>Restaurant Style Menu</title>
    <desc>Created with Sketch.</desc>
    <g id="Restaurant-Style-Menu" stroke="none" stroke-width="1" fill="none" fill-rule="evenodd">
        <rect id="Rectangle-Copy-16" fill="#313131" x="0" y="0" width="279" height="207"></rect>
        <g id="Group-Copy" transform="translate(29.000000, 35.000000)">
            <path d="M2.80920288,2.47997998 L2.80920288,4.48655347 L5.04421704,4.48655347 C5.44347571,4.48655347 5.76761126,4.41143634 6.01663342,4.26119983 C6.26565558,4.11096332 6.39016479,3.84445187 6.39016479,3.46165747 C6.39016479,3.03770239 6.22552451,2.75781391 5.89623901,2.62198364 C5.61223027,2.52731406 5.25002165,2.47997998 4.80960229,2.47997998 L2.80920288,2.47997998 Z M2.80920288,5.9930271 L2.80920288,8.4194375 L5.04421704,8.4194375 C5.44347571,8.4194375 5.75423424,8.36592941 5.97650195,8.25891162 C6.37987669,8.06134032 6.58156104,7.68266768 6.58156104,7.12288232 C6.58156104,6.64953442 6.3860507,6.32436986 5.99502417,6.14737891 C5.77687253,6.04859326 5.47023,5.99714317 5.0750874,5.9930271 L2.80920288,5.9930271 Z M5.41466138,0.89941748 C6.53011601,0.915881755 7.32038936,1.23898831 7.78550513,1.86874683 C8.0653978,2.25565729 8.20534204,2.71870808 8.20534204,3.25791309 C8.20534204,3.81358237 8.0653978,4.26016913 7.78550513,4.59768677 C7.62909451,4.78702593 7.39859812,4.95989823 7.09400903,5.11630884 C7.5591248,5.28506766 7.9100144,5.55260811 8.14668835,5.91893823 C8.38336231,6.28526835 8.50169751,6.72979711 8.50169751,7.25253784 C8.50169751,7.79174285 8.36586928,8.27537367 8.09420874,8.70344482 C7.92133385,8.98745357 7.70524348,9.22618198 7.44593115,9.41963721 C7.15369027,9.64190492 6.80897468,9.79419718 6.41177405,9.87651855 C6.01457341,9.95883993 5.58342168,10 5.11830591,10 L0.994025635,10 L0.994025635,0.89941748 L5.41466138,0.89941748 Z M12.2617568,2.47997998 L12.2617568,4.9249126 L14.416508,4.9249126 C14.8445792,4.9249126 15.1656277,4.87552051 15.3796633,4.77673486 C15.7583416,4.60385998 15.947678,4.26223139 15.947678,3.75183887 C15.947678,3.20028565 15.7645156,2.82984502 15.3981855,2.64050586 C15.1923821,2.53348807 14.8836816,2.47997998 14.4720747,2.47997998 L12.2617568,2.47997998 Z M14.8672153,0.89941748 C15.505206,0.911765687 15.9960398,0.98996982 16.3397316,1.13403223 C16.6834233,1.27809463 16.9746308,1.49006899 17.2133628,1.76996167 C17.4109341,2.00046152 17.5673423,2.25565396 17.6825923,2.53554663 C17.7978422,2.81543931 17.8554663,3.13442985 17.8554663,3.49252783 C17.8554663,3.92471505 17.7463921,4.34969278 17.5282405,4.76747375 C17.3100888,5.18525473 16.9499382,5.48057824 16.4477778,5.65345313 C16.8676168,5.82221194 17.1649983,6.06196935 17.3399313,6.37273254 C17.5148642,6.68349574 17.6023293,7.15786554 17.6023293,7.7958562 L17.6023293,8.40708936 C17.6023293,8.8228123 17.6187934,9.10475878 17.6517219,9.25293726 C17.7011147,9.48755318 17.8163629,9.66042547 17.99747,9.77155933 L17.99747,10 L15.9044595,10 C15.8468345,9.79831263 15.8056744,9.63573035 15.780978,9.51224829 C15.7315852,9.25705203 15.7048311,8.99568558 15.7007151,8.72814111 L15.6883669,7.88229321 C15.6801348,7.30192752 15.5741476,6.91502286 15.3704022,6.72156763 C15.1666568,6.5281124 14.7848972,6.43138623 14.2251118,6.43138623 L12.2617568,6.43138623 L12.2617568,10 L10.4033611,10 L10.4033611,0.89941748 L14.8672153,0.89941748 Z M19.7571298,0.89941748 L21.6896145,0.89941748 L21.6896145,6.49312695 C21.6896145,7.1187694 21.7637026,7.57564618 21.9118811,7.863771 C22.1423809,8.37416352 22.6445338,8.62935596 23.4183547,8.62935596 C24.1880596,8.62935596 24.6881544,8.37416352 24.9186543,7.863771 C25.0668327,7.57564618 25.1409209,7.1187694 25.1409209,6.49312695 L25.1409209,0.89941748 L27.0734055,0.89941748 L27.0734055,6.49312695 C27.0734055,7.46040311 26.9231712,8.2136324 26.6226982,8.7528374 C26.0629129,9.7406939 24.994809,10.2346147 23.4183547,10.2346147 C21.8419004,10.2346147 20.7717385,9.7406939 20.2078371,8.7528374 C19.9073641,8.2136324 19.7571298,7.46040311 19.7571298,6.49312695 L19.7571298,0.89941748 Z M29.1232468,0.89941748 L31.1174721,0.89941748 L34.7416525,7.25253784 L34.7416525,0.89941748 L36.5136113,0.89941748 L36.5136113,10 L34.611997,10 L30.8952055,3.53574634 L30.8952055,10 L29.1232468,10 L29.1232468,0.89941748 Z M38.1559638,5.52379761 C38.1559638,3.93499507 38.5819705,2.71048298 39.4339968,1.85022461 C40.1748891,1.1011001 41.1174547,0.726543457 42.2617219,0.726543457 C43.7928994,0.726543457 44.9124533,1.22869631 45.6204172,2.23301709 C46.0114437,2.79691851 46.2213601,3.36286947 46.2501725,3.93088696 L44.3485583,3.93088696 C44.2250762,3.49458367 44.0666099,3.16530311 43.8731547,2.9430354 C43.5274049,2.5478928 43.0149621,2.35032446 42.3358107,2.35032446 C41.6443112,2.35032446 41.0989402,2.62918394 40.6996816,3.18691125 C40.3004229,3.74463857 40.1007966,4.53388292 40.1007966,5.55466797 C40.1007966,6.57545302 40.3117419,7.34000132 40.733639,7.84833582 C41.155536,8.35667031 41.6916459,8.61083374 42.3419848,8.61083374 C43.0087879,8.61083374 43.5171148,8.39268537 43.8669806,7.95638208 C44.0604359,7.72176616 44.2209602,7.36984756 44.3485583,6.90061572 L46.2316503,6.90061572 C46.0670076,7.89258829 45.6461459,8.69932567 44.9690525,9.32085205 C44.2919592,9.94237843 43.4245108,10.253137 42.3666811,10.253137 C41.0577712,10.253137 40.0287695,9.83330425 39.279645,8.99362622 C38.5305204,8.14983213 38.1559638,6.99323415 38.1559638,5.52379761 Z M47.9357436,10 L47.9357436,0.89941748 L49.8188356,0.89941748 L49.8188356,4.36924609 L53.3751012,4.36924609 L53.3751012,0.89941748 L55.2643673,0.89941748 L55.2643673,10 L53.3751012,10 L53.3751012,5.93746045 L49.8188356,5.93746045 L49.8188356,10 L47.9357436,10 Z" id="BRUNCH" fill="#FFFFFF" fill-rule="nonzero"></path>
            <path d="M79.8916532,5.87852087 L81.0462047,5.87852087 L80.4781901,4.08803992 L79.8916532,5.87852087 Z M79.9503069,3.04770874 L81.0245955,3.04770874 L82.6360283,7.598 L81.6049583,7.598 L81.3116898,6.66262805 L79.6354292,6.66262805 L79.3205515,7.598 L78.3265259,7.598 L79.9503069,3.04770874 Z M85.5111329,3.04770874 L86.4989845,3.04770874 L84.9462053,7.598 L84.0478778,7.598 L82.5105338,3.04770874 L83.5261687,3.04770874 L84.5140202,6.50210217 L85.5111329,3.04770874 Z M87.9417043,5.87852087 L89.0962558,5.87852087 L88.5282412,4.08803992 L87.9417043,5.87852087 Z M88.000358,3.04770874 L89.0746466,3.04770874 L90.6860794,7.598 L89.6550093,7.598 L89.3617409,6.66262805 L87.6854803,6.66262805 L87.3706026,7.598 L86.376577,7.598 L88.000358,3.04770874 Z M92.2337585,7.598 L91.2891254,7.598 L91.2891254,3.04770874 L92.2337585,3.04770874 L92.2337585,7.598 Z M93.2195969,3.04770874 L94.1704041,3.04770874 L94.1704041,6.77993542 L96.4239404,6.77993542 L96.4239404,7.598 L93.2195969,7.598 L93.2195969,3.04770874 Z M98.4254138,5.87852087 L99.5799653,5.87852087 L99.0119507,4.08803992 L98.4254138,5.87852087 Z M98.4840675,3.04770874 L99.5583561,3.04770874 L101.169789,7.598 L100.138719,7.598 L99.8454504,6.66262805 L98.1691898,6.66262805 L97.8543121,7.598 L96.8602865,7.598 L98.4840675,3.04770874 Z M102.769948,3.83798999 L102.769948,4.84127673 L103.887455,4.84127673 C104.087084,4.84127673 104.249152,4.80371817 104.373663,4.72859991 C104.498174,4.65348166 104.560429,4.52022593 104.560429,4.32882874 C104.560429,4.11685119 104.478108,3.97690696 104.313466,3.90899182 C104.171461,3.86165703 103.990357,3.83798999 103.770147,3.83798999 L102.769948,3.83798999 Z M102.769948,5.59451355 L102.769948,6.80771875 L103.887455,6.80771875 C104.087084,6.80771875 104.242463,6.7809647 104.353597,6.72745581 C104.555285,6.62867016 104.656127,6.43933384 104.656127,6.15944116 C104.656127,5.92276721 104.558372,5.76018493 104.362858,5.67168945 C104.253782,5.62229663 104.100461,5.59657158 103.90289,5.59451355 L102.769948,5.59451355 Z M104.072677,3.04770874 C104.630404,3.05594088 105.025541,3.21749415 105.258099,3.53237341 C105.398045,3.72582864 105.468017,3.95735404 105.468017,4.22695654 C105.468017,4.50479118 105.398045,4.72808456 105.258099,4.89684338 C105.179893,4.99151297 105.064645,5.07794911 104.912351,5.15615442 C105.144909,5.24053383 105.320353,5.37430406 105.43869,5.55746912 C105.557027,5.74063418 105.616195,5.96289855 105.616195,6.22426892 C105.616195,6.49387142 105.548281,6.73568684 105.412451,6.94972241 C105.326013,7.09172678 105.217968,7.21109099 105.088312,7.3078186 C104.942191,7.41895246 104.769834,7.49509859 104.571233,7.53625928 C104.372633,7.57741996 104.157057,7.598 103.924499,7.598 L101.862359,7.598 L101.862359,3.04770874 L104.072677,3.04770874 Z M106.512509,3.04770874 L107.463316,3.04770874 L107.463316,6.77993542 L109.716853,6.77993542 L109.716853,7.598 L106.512509,7.598 L106.512509,3.04770874 Z M113.83912,3.85342517 L111.431232,3.85342517 L111.431232,4.81966748 L113.64155,4.81966748 L113.64155,5.60994873 L111.431232,5.60994873 L111.431232,6.77993542 L113.950253,6.77993542 L113.950253,7.598 L110.502034,7.598 L110.502034,3.04770874 L113.83912,3.04770874 L113.83912,3.85342517 Z M118.660131,6.91885205 C119.036752,6.91885205 119.335677,6.77993681 119.556915,6.50210217 C119.778154,6.22426753 119.888772,5.82913086 119.888772,5.3166803 C119.888772,4.80628777 119.778154,4.4116656 119.556915,4.13280194 C119.335677,3.85393828 119.036752,3.71450854 118.660131,3.71450854 C118.283511,3.71450854 117.983043,3.85342378 117.758717,4.13125842 C117.534391,4.40909306 117.42223,4.80422974 117.42223,5.3166803 C117.42223,5.82913086 117.534391,6.22426753 117.758717,6.50210217 C117.983043,6.77993681 118.283511,6.91885205 118.660131,6.91885205 Z M120.839579,5.3166803 C120.839579,6.13371995 120.610111,6.75935301 120.15117,7.19359827 C119.807478,7.54758018 119.31047,7.72456848 118.660131,7.72456848 C118.009792,7.72456848 117.512785,7.54758018 117.169093,7.19359827 C116.708093,6.75935301 116.477597,6.13371995 116.477597,5.3166803 C116.477597,4.48317637 116.708093,3.85754331 117.169093,3.43976233 C117.512785,3.08578042 118.009792,2.90879211 118.660131,2.90879211 C119.31047,2.90879211 119.807478,3.08578042 120.15117,3.43976233 C120.610111,3.85754331 120.839579,4.48317637 120.839579,5.3166803 Z M121.649456,3.04770874 L122.646569,3.04770874 L124.458659,6.22426892 L124.458659,3.04770874 L125.344639,3.04770874 L125.344639,7.598 L124.393831,7.598 L122.535436,4.36587317 L122.535436,7.598 L121.649456,7.598 L121.649456,3.04770874 Z M128.807354,3.04770874 L129.409326,5.65316724 L129.538981,6.37862073 L129.671724,5.66860242 L130.184172,3.04770874 L131.187459,3.04770874 L131.72769,5.65316724 L131.866607,6.37862073 L132.005523,5.68095056 L132.613669,3.04770874 L133.579912,3.04770874 L132.298792,7.598 L131.391203,7.598 L130.841711,4.93697485 L130.681185,4.05716956 L130.520659,4.93697485 L129.971167,7.598 L129.088274,7.598 L127.797893,3.04770874 L128.807354,3.04770874 Z M137.618829,3.85342517 L135.210941,3.85342517 L135.210941,4.81966748 L137.421259,4.81966748 L137.421259,5.60994873 L135.210941,5.60994873 L135.210941,6.77993542 L137.729962,6.77993542 L137.729962,7.598 L134.281743,7.598 L134.281743,3.04770874 L137.618829,3.04770874 L137.618829,3.85342517 Z M141.935579,3.85342517 L139.527691,3.85342517 L139.527691,4.81966748 L141.738009,4.81966748 L141.738009,5.60994873 L139.527691,5.60994873 L139.527691,6.77993542 L142.046713,6.77993542 L142.046713,7.598 L138.598493,7.598 L138.598493,3.04770874 L141.935579,3.04770874 L141.935579,3.85342517 Z M142.902896,3.04770874 L143.838268,3.04770874 L143.838268,4.92153967 L145.594791,3.04770874 L146.823432,3.04770874 L144.958862,4.92153967 L146.91913,7.598 L145.696663,7.598 L144.292062,5.60994873 L143.838268,6.07609119 L143.838268,7.598 L142.902896,7.598 L142.902896,3.04770874 Z M150.332453,3.83798999 L150.332453,6.80771875 L151.209171,6.80771875 C151.657822,6.80771875 151.970639,6.58648337 152.14763,6.14400598 C152.244357,5.90115792 152.29272,5.61200843 152.29272,5.27654883 C152.29272,4.81349109 152.220176,4.45797099 152.075084,4.20997784 C151.929993,3.9619847 151.641358,3.83798999 151.209171,3.83798999 L150.332453,3.83798999 Z M151.369697,3.04770874 C151.651647,3.05182481 151.88626,3.08475287 152.073541,3.1464939 C152.392536,3.25145365 152.650816,3.44387698 152.848387,3.72376965 C153.006856,3.95015343 153.114901,4.19505585 153.172526,4.45848425 C153.230151,4.72191265 153.258963,4.97298908 153.258963,5.21172107 C153.258963,5.81678318 153.137541,6.32922605 152.894693,6.74906506 C152.565407,7.31502452 152.05708,7.598 151.369697,7.598 L149.409429,7.598 L149.409429,3.04770874 L151.369697,3.04770874 Z M155.31909,5.87852087 L156.473641,5.87852087 L155.905627,4.08803992 L155.31909,5.87852087 Z M155.377744,3.04770874 L156.452032,3.04770874 L158.063465,7.598 L157.032395,7.598 L156.739126,6.66262805 L155.062866,6.66262805 L154.747988,7.598 L153.753963,7.598 L155.377744,3.04770874 Z M160.756434,3.04770874 L161.83381,3.04770874 L160.311901,5.88778198 L160.311901,7.598 L159.361094,7.598 L159.361094,5.88778198 L157.786706,3.04770874 L158.9073,3.04770874 L159.851933,5.02958594 L160.756434,3.04770874 Z M163.165397,6.19339856 C163.194209,6.40126003 163.250804,6.5566393 163.335184,6.65954102 C163.489536,6.84682214 163.75399,6.9404613 164.128552,6.9404613 C164.352878,6.9404613 164.535011,6.91576526 164.674957,6.86637244 C164.940444,6.77170286 165.073185,6.59574356 165.073185,6.33848926 C165.073185,6.18825275 165.007329,6.07197555 164.875615,5.98965417 C164.7439,5.90939083 164.537071,5.83838971 164.25512,5.77664868 L163.773543,5.66860242 C163.300195,5.56158463 162.972972,5.44530743 162.791865,5.31976733 C162.485218,5.10984783 162.331897,4.78159627 162.331897,4.33500281 C162.331897,3.927512 162.480073,3.58897042 162.77643,3.31936792 C163.072787,3.04976542 163.508055,2.91496619 164.082246,2.91496619 C164.561768,2.91496619 164.970796,3.0420479 165.309343,3.29621515 C165.64789,3.55038239 165.825393,3.91927952 165.841857,4.4029176 L164.928094,4.4029176 C164.91163,4.12919903 164.792266,3.9347177 164.569998,3.81946777 C164.42182,3.7433205 164.237628,3.70524744 164.017419,3.70524744 C163.772512,3.70524744 163.577002,3.75463952 163.430882,3.85342517 C163.284761,3.95221082 163.211702,4.09009706 163.211702,4.26708801 C163.211702,4.42967273 163.283732,4.55109494 163.427795,4.63135828 C163.520406,4.68486717 163.717975,4.74763628 164.020506,4.81966748 L164.804613,5.00797668 C165.148304,5.09029806 165.407613,5.20040125 165.582546,5.33828955 C165.854206,5.55232513 165.990035,5.86205465 165.990035,6.26748743 C165.990035,6.68321037 165.831054,7.02844046 165.513088,7.30318805 C165.195121,7.57793564 164.745962,7.71530737 164.165596,7.71530737 C163.572882,7.71530737 163.106745,7.57999364 162.767169,7.30936212 C162.427593,7.0387306 162.257808,6.66674647 162.257808,6.19339856 L163.165397,6.19339856 Z M168.511204,6.39714294 C168.511204,6.12342437 168.579118,5.88881197 168.714948,5.69329871 C168.850779,5.49778544 169.073043,5.30433311 169.381748,5.11293591 L169.477446,5.05428223 C169.345732,4.90610375 169.243861,4.75484049 169.17183,4.60048792 C169.099799,4.44613534 169.063783,4.28561106 169.063783,4.11891028 C169.063783,3.78756674 169.174916,3.5287728 169.397183,3.34252069 C169.619451,3.15626858 169.907572,3.06314392 170.261553,3.06314392 C170.584665,3.06314392 170.851691,3.15832658 171.062639,3.34869476 C171.273588,3.53906294 171.379061,3.78242186 171.379061,4.07877881 C171.379061,4.34632328 171.315777,4.56344265 171.189208,4.73014343 C171.062639,4.89684422 170.876904,5.05119448 170.631998,5.19319885 L171.277188,5.98965417 C171.351278,5.88263639 171.408387,5.76635919 171.448519,5.64081909 C171.488651,5.51527899 171.509745,5.38253777 171.511803,5.24259143 L172.292823,5.24259143 C172.280475,5.51836804 172.214619,5.79722751 172.095253,6.07917822 C172.029396,6.23764687 171.92238,6.41257717 171.774201,6.60397437 L172.601527,7.598 L171.533412,7.598 L171.218535,7.21212048 C171.06624,7.35412486 170.924238,7.45908303 170.792524,7.52699817 C170.557908,7.6484222 170.28728,7.7091333 169.980633,7.7091333 C169.519633,7.7091333 169.159483,7.57330507 168.900171,7.30164453 C168.640858,7.02998399 168.511204,6.72848648 168.511204,6.39714294 Z M169.872587,4.08803992 C169.872587,4.17036129 169.901399,4.25679744 169.959024,4.34735095 C169.996069,4.40703395 170.076331,4.51302113 170.199813,4.66531567 C170.323295,4.57887823 170.411789,4.50581911 170.465298,4.44613611 C170.5682,4.33500225 170.61965,4.21460905 170.61965,4.08495288 C170.61965,3.9902833 170.58878,3.90590516 170.527039,3.83181592 C170.465298,3.75772668 170.371658,3.72068262 170.246118,3.72068262 C170.167913,3.72068262 170.094854,3.74229165 170.026939,3.78551038 C169.924037,3.84930944 169.872587,3.95015161 169.872587,4.08803992 Z M169.387922,6.36935962 C169.387922,6.51959613 169.449148,6.65748236 169.571601,6.78302246 C169.694054,6.90856256 169.850977,6.97133167 170.042374,6.97133167 C170.186436,6.97133167 170.322779,6.93788911 170.451406,6.87100299 C170.580033,6.80411687 170.684477,6.72951425 170.76474,6.64719287 L169.931241,5.6161228 C169.711031,5.76224324 169.565427,5.89086846 169.494425,6.00200232 C169.423423,6.11313618 169.387922,6.23558738 169.387922,6.36935962 Z M175.792583,3.04770874 L176.394555,5.65316724 L176.524211,6.37862073 L176.656953,5.66860242 L177.169401,3.04770874 L178.172688,3.04770874 L178.712919,5.65316724 L178.851836,6.37862073 L178.990753,5.68095056 L179.598899,3.04770874 L180.565141,3.04770874 L179.284021,7.598 L178.376432,7.598 L177.82694,4.93697485 L177.666414,4.05716956 L177.505888,4.93697485 L176.956396,7.598 L176.073503,7.598 L174.783122,3.04770874 L175.792583,3.04770874 Z M184.604058,3.85342517 L182.19617,3.85342517 L182.19617,4.81966748 L184.406488,4.81966748 L184.406488,5.60994873 L182.19617,5.60994873 L182.19617,6.77993542 L184.715191,6.77993542 L184.715191,7.598 L181.266972,7.598 L181.266972,3.04770874 L184.604058,3.04770874 L184.604058,3.85342517 Z M188.920809,3.85342517 L186.51292,3.85342517 L186.51292,4.81966748 L188.723238,4.81966748 L188.723238,5.60994873 L186.51292,5.60994873 L186.51292,6.77993542 L189.031942,6.77993542 L189.031942,7.598 L185.583723,7.598 L185.583723,3.04770874 L188.920809,3.04770874 L188.920809,3.85342517 Z M189.888125,3.04770874 L190.823497,3.04770874 L190.823497,4.92153967 L192.58002,3.04770874 L193.808661,3.04770874 L191.944091,4.92153967 L193.904359,7.598 L192.681893,7.598 L191.277291,5.60994873 L190.823497,6.07609119 L190.823497,7.598 L189.888125,7.598 L189.888125,3.04770874 Z M197.903145,3.85342517 L195.495256,3.85342517 L195.495256,4.81966748 L197.705574,4.81966748 L197.705574,5.60994873 L195.495256,5.60994873 L195.495256,6.77993542 L198.014278,6.77993542 L198.014278,7.598 L194.566059,7.598 L194.566059,3.04770874 L197.903145,3.04770874 L197.903145,3.85342517 Z M198.839591,3.04770874 L199.836703,3.04770874 L201.648793,6.22426892 L201.648793,3.04770874 L202.534773,3.04770874 L202.534773,7.598 L201.583966,7.598 L199.72557,4.36587317 L199.72557,7.598 L198.839591,7.598 L198.839591,3.04770874 Z M204.443635,3.83798999 L204.443635,6.80771875 L205.320353,6.80771875 C205.769005,6.80771875 206.081821,6.58648337 206.258812,6.14400598 C206.35554,5.90115792 206.403903,5.61200843 206.403903,5.27654883 C206.403903,4.81349109 206.331358,4.45797099 206.186267,4.20997784 C206.041176,3.9619847 205.752541,3.83798999 205.320353,3.83798999 L204.443635,3.83798999 Z M205.480879,3.04770874 C205.76283,3.05182481 205.997442,3.08475287 206.184723,3.1464939 C206.503719,3.25145365 206.761998,3.44387698 206.95957,3.72376965 C207.118038,3.95015343 207.226083,4.19505585 207.283708,4.45848425 C207.341333,4.72191265 207.370145,4.97298908 207.370145,5.21172107 C207.370145,5.81678318 207.248723,6.32922605 207.005875,6.74906506 C206.67659,7.31502452 206.168263,7.598 205.480879,7.598 L203.520611,7.598 L203.520611,3.04770874 L205.480879,3.04770874 Z M208.874606,6.19339856 C208.903418,6.40126003 208.960013,6.5566393 209.044393,6.65954102 C209.198745,6.84682214 209.463199,6.9404613 209.837761,6.9404613 C210.062087,6.9404613 210.24422,6.91576526 210.384167,6.86637244 C210.649653,6.77170286 210.782394,6.59574356 210.782394,6.33848926 C210.782394,6.18825275 210.716538,6.07197555 210.584824,5.98965417 C210.45311,5.90939083 210.24628,5.83838971 209.96433,5.77664868 L209.482752,5.66860242 C209.009404,5.56158463 208.682182,5.44530743 208.501074,5.31976733 C208.194427,5.10984783 208.041106,4.78159627 208.041106,4.33500281 C208.041106,3.927512 208.189282,3.58897042 208.485639,3.31936792 C208.781996,3.04976542 209.217264,2.91496619 209.791456,2.91496619 C210.270978,2.91496619 210.680006,3.0420479 211.018552,3.29621515 C211.357099,3.55038239 211.534602,3.91927952 211.551066,4.4029176 L210.637303,4.4029176 C210.620839,4.12919903 210.501475,3.9347177 210.279207,3.81946777 C210.131029,3.7433205 209.946838,3.70524744 209.726628,3.70524744 C209.481722,3.70524744 209.286211,3.75463952 209.140091,3.85342517 C208.993971,3.95221082 208.920911,4.09009706 208.920911,4.26708801 C208.920911,4.42967273 208.992942,4.55109494 209.137004,4.63135828 C209.229615,4.68486717 209.427184,4.74763628 209.729715,4.81966748 L210.513822,5.00797668 C210.857514,5.09029806 211.116822,5.20040125 211.291755,5.33828955 C211.563416,5.55232513 211.699244,5.86205465 211.699244,6.26748743 C211.699244,6.68321037 211.540263,7.02844046 211.222297,7.30318805 C210.904331,7.57793564 210.455171,7.71530737 209.874806,7.71530737 C209.282092,7.71530737 208.815954,7.57999364 208.476378,7.30936212 C208.136803,7.0387306 207.967017,6.66674647 207.967017,6.19339856 L208.874606,6.19339856 Z" id="AVAILABLEONWEEKDAYS&amp;WEEKENDS" fill="#8C8C8C" fill-rule="nonzero"></path>
            <rect id="Rectangle" fill="#FFFFFF" x="0" y="16.5415" width="217.2555" height="124.146"></rect>
            <g id="LInes-1" transform="translate(10.196000, 26.887000)" stroke-linecap="square">
                <path d="M1.299,1.1495 L36.9335,1.1495" id="Line-Copy-7" stroke="#5C5C5C" stroke-width="4.598"></path>
                <path d="M0.1495,20.691 L36.9335,20.691" id="Line-Copy-8" stroke="#5C5C5C"></path>
                <path d="M0.1495,29.887 L36.9335,29.887" id="Line-Copy-10" stroke="#5C5C5C"></path>
                <path d="M0.1495,39.083 L36.9335,39.083" id="Line-Copy-11" stroke="#5C5C5C"></path>
                <path d="M0.1495,49.4285 L36.9335,49.4285" id="Line-Copy-12" stroke="#5C5C5C"></path>
                <path d="M0.1495,58.6245 L36.9335,58.6245" id="Line-Copy-13" stroke="#5C5C5C"></path>
                <path d="M0.1495,10.3455 L36.9335,10.3455" id="Line-Copy-9" stroke="#5C5C5C"></path>
                <g id="Carousel" transform="translate(0.149500, 101.156000)" stroke-width="1.1495">
                    <path d="M-8.79296636e-14,0.646589853 L9.19550113,0.550803382" id="Line-4-Copy-6" stroke="#ADADAD"></path>
                    <path d="M16.093,0.658563161 L25.2885011,0.562776691" id="Line-4-Copy-7" stroke="#575757"></path>
                    <path d="M33.3355,0.622643235 L42.5310011,0.526856765" id="Line-4-Copy-8" stroke="#575757"></path>
                </g>
            </g>
            <g id="Lines" transform="translate(71.269000, 26.887000)" stroke="#5C5C5C" stroke-linecap="square">
                <path d="M0,1.1495 L35.6345,1.1495" id="Line-Copy-7" stroke-width="4.598"></path>
                <path d="M0,22.99 L36.784,22.99" id="Line-Copy-10"></path>
                <path d="M0,34.485 L36.784,34.485" id="Line-Copy-11"></path>
                <path d="M0,45.98 L36.784,45.98" id="Line-Copy-12"></path>
                <path d="M0,56.3255 L36.784,56.3255" id="Line-Copy-13"></path>
                <path d="M0,67.8205 L36.784,67.8205" id="Line-Copy-14"></path>
                <path d="M0,79.3155 L36.784,79.3155" id="Line-Copy-15"></path>
                <path d="M0,90.8105 L36.784,90.8105" id="Line-Copy-16"></path>
                <path d="M0,102.3055 L36.784,102.3055" id="Line-Copy-17"></path>
                <path d="M0,11.495 L36.784,11.495" id="Line-Copy-9"></path>
            </g>
            <g id="food-carousel" transform="translate(126.445000, 81.737500)" stroke-linecap="square">
                <g id="carousel-part" transform="translate(12.644500, 0.325500)" stroke-width="1.1495">
                    <path d="M-1.33226763e-13,0.646589853 L13.7932517,0.502910147" id="Line-4-Copy-3" stroke="#ADADAD"></path>
                    <path d="M21.8405,0.658563161 L35.6337517,0.514883456" id="Line-4-Copy-4" stroke="#575757"></path>
                    <path d="M43.681,0.658563161 L57.4742517,0.514883456" id="Line-4-Copy-5" stroke="#575757"></path>
                </g>
                <path d="M1.1495,10.671 L41.382,10.671" id="Line-Copy-11" stroke="#5C5C5C"></path>
                <path d="M1.1495,21.0165 L41.382,21.0165" id="Line-Copy-19" stroke="#5C5C5C"></path>
                <path d="M0,34.8105 L26.4385,34.8105" id="Line-Copy-20" stroke="#CCCCCC"></path>
                <path d="M0,45.156 L26.4385,45.156" id="Line-Copy-22" stroke="#5C5C5C"></path>
                <path d="M37.0146267,34.8105 L79.3155,34.8105" id="Line-Copy-21" stroke="#5C5C5C"></path>
                <path d="M37.0147865,45.156 L80.465,45.156" id="Line-Copy-23" stroke="#5C5C5C"></path>
            </g>
        </g>
        <g id="IMG" transform="translate(157.000000, 61.000000)">
            <g id="Group-12">
                <polygon id="Fill-1" fill="#819FB3" points="0 54.2307692 82 54.2307692 82 0 0 0"></polygon>
                <g id="Group-11" transform="translate(23.496217, 10.666667)">
                    <path d="M8.58697771,18.3084788 C8.14209464,18.3084788 7.70316319,18.188979 7.31779626,17.9635933 L2.06996158,14.882314 C1.28732448,14.4239794 0.802268031,13.5678164 0.802268031,12.6496345 L0.802268031,6.48858859 C0.802268031,5.56889404 1.28732448,4.71424367 2.06996158,4.2543964 L7.31779626,1.17311712 C7.70316319,0.947731446 8.14209464,0.82823166 8.58697771,0.82823166 C9.03186077,0.82823166 9.46930432,0.947731446 9.85467126,1.17311712 L15.1039938,4.2543964 C15.8866309,4.71424367 16.3716874,5.56889404 16.3716874,6.48858859 L16.3716874,12.6496345 C16.3716874,13.5678164 15.8866309,14.4239794 15.1039938,14.882314 L9.85467126,17.9635933 C9.46930432,18.188979 9.03186077,18.3084788 8.58697771,18.3084788" id="Fill-3" fill="#FEFEFE"></path>
                    <path d="M8.58697771,0.0723577006 C8.02008658,0.0723577006 7.45468335,0.220597941 6.94582045,0.518591077 L1.69798577,3.59987036 C0.683235773,4.19585663 0.0583164178,5.29555719 0.0583164178,6.48752973 L0.0583164178,12.6485756 C0.0583164178,13.8420608 0.683235773,14.9417614 1.69798577,15.5377477 L6.94582045,18.6190269 C7.45468335,18.9170201 8.02008658,19.066773 8.58697771,19.066773 C9.15238093,19.066773 9.71927206,18.9170201 10.2266471,18.6190269 L15.4759696,15.5377477 C16.4907196,14.9417614 17.115639,13.8420608 17.115639,12.6485756 L17.115639,6.48752973 C17.115639,5.29555719 16.4907196,4.19585663 15.4759696,3.59987036 L10.2266471,0.518591077 C9.71927206,0.220597941 9.15238093,0.0723577006 8.58697771,0.0723577006 M8.58697771,1.58501321 C8.90092529,1.58501321 9.21040916,1.66972192 9.48269545,1.82855075 L14.732018,4.90983003 C15.2840301,5.23353831 15.6277358,5.84011317 15.6277358,6.48752973 L15.6277358,12.6485756 C15.6277358,13.2990175 15.2840301,13.9040797 14.732018,14.227788 L9.48269545,17.3090673 C9.21040916,17.4678961 8.90092529,17.5541175 8.58697771,17.5541175 C8.27303013,17.5541175 7.96354626,17.4678961 7.68977206,17.3090673 L2.44193739,14.227788 C1.88843739,13.9040797 1.54621964,13.2990175 1.54621964,12.6485756 L1.54621964,6.48752973 C1.54621964,5.84011317 1.88843739,5.23353831 2.44193739,4.90983003 L7.68977206,1.82855075 C7.96354626,1.66972192 8.27303013,1.58501321 8.58697771,1.58501321" id="Fill-5" fill="#C8282C"></path>
                </g>
                <polygon id="Fill-7" fill-opacity="0.73" fill="#EEF8FF" points="19.2932074 37.4761203 34.9916324 45.7382447 59.516129 19.3846154 82 54.4950075 2.64516129 54.694678"></polygon>
            </g>
        </g>
        <g id="IMG-Copy" transform="translate(38.000000, 126.000000)">
            <g id="Group-12">
                <polygon id="Fill-1" fill="#819FB3" points="0 33 45 33 45 0 0 0"></polygon>
                <g id="Group-11" transform="translate(12.894265, 5.866667)">
                    <path d="M4.71236582,10.0696633 C4.46822267,10.0696633 4.22734565,10.0039384 4.0158638,9.87997632 L1.13595453,8.18527272 C0.706458557,7.93318867 0.440269041,7.46229901 0.440269041,6.95729897 L0.440269041,3.56872372 C0.440269041,3.06289172 0.706458557,2.59283402 1.13595453,2.33991802 L4.0158638,0.645214414 C4.22734565,0.521252295 4.46822267,0.455527413 4.71236582,0.455527413 C4.95650896,0.455527413 5.19656944,0.521252295 5.4080513,0.645214414 L8.28877711,2.33991802 C8.71827307,2.59283402 8.98446259,3.06289172 8.98446259,3.56872372 L8.98446259,6.95729897 C8.98446259,7.46229901 8.71827307,7.93318867 8.28877711,8.18527272 L5.4080513,9.87997632 C5.19656944,10.0039384 4.95650896,10.0696633 4.71236582,10.0696633" id="Fill-3" fill="#FEFEFE"></path>
                    <path d="M4.71236582,0.0397967353 C4.40126703,0.0397967353 4.09098477,0.121328867 3.81173073,0.285225092 L0.931821461,1.9799287 C0.374946461,2.30772115 0.0320029122,2.91255645 0.0320029122,3.56814135 L0.0320029122,6.9567166 C0.0320029122,7.61313346 0.374946461,8.21796876 0.931821461,8.54576121 L3.81173073,10.2404648 C4.09098477,10.404361 4.40126703,10.4867251 4.71236582,10.4867251 C5.02264807,10.4867251 5.33374686,10.404361 5.61218436,10.2404648 L8.49291017,8.54576121 C9.04978517,8.21796876 9.39272872,7.61313346 9.39272872,6.9567166 L9.39272872,3.56814135 C9.39272872,2.91255645 9.04978517,2.30772115 8.49291017,1.9799287 L5.61218436,0.285225092 C5.33374686,0.121328867 5.02264807,0.0397967353 4.71236582,0.0397967353 M4.71236582,0.871757267 C4.88465412,0.871757267 5.05449283,0.918347057 5.20391823,1.00570291 L8.08464404,2.70040652 C8.38757751,2.87844607 8.57619646,3.21206224 8.57619646,3.56814135 L8.57619646,6.9567166 C8.57619646,7.31445963 8.38757751,7.64724384 8.08464404,7.82528339 L5.20391823,9.519987 C5.05449283,9.60734285 4.88465412,9.6547646 4.71236582,9.6547646 C4.54007751,9.6547646 4.3702388,9.60734285 4.21999686,9.519987 L1.34008759,7.82528339 C1.03633759,7.64724384 0.84853517,7.31445963 0.84853517,6.9567166 L0.84853517,3.56814135 C0.84853517,3.21206224 1.03633759,2.87844607 1.34008759,2.70040652 L4.21999686,1.00570291 C4.3702388,0.918347057 4.54007751,0.871757267 4.71236582,0.871757267" id="Fill-5" fill="#C8282C"></path>
                </g>
                <polygon id="Fill-7" fill-opacity="0.73" fill="#EEF8FF" points="10.5877358 23.1503277 19.2027251 27.6944961 32.6612903 13.2 45 32.5107157 1.4516129 32.6205344"></polygon>
            </g>
        </g>
    </g>
</svg>