<?xml version="1.0" encoding="UTF-8"?>
<svg width="279px" height="207px" viewBox="0 0 279 207" version="1.1" xmlns="http://www.w3.org/2000/svg" xmlns:xlink="http://www.w3.org/1999/xlink">
    <!-- Generator: Sketch 54.1 (76490) - https://sketchapp.com -->
    <title>STREAMING AUDIO PREVIEW  GRID ROW </title>
    <desc>Created with Sketch.</desc>
    <g id="STREAMING-AUDIO-PREVIEW--GRID-ROW-" stroke="none" stroke-width="1" fill="none" fill-rule="evenodd">
        <rect id="Rectangle-Copy" fill="#313131" x="0" y="0" width="279" height="207"></rect>
        <g id="Audio-3" transform="translate(193.000000, 136.000000)">
            <g id="Group-16">
                <path d="M0,28.6068854 L74.0421124,28.6068854 L74.0421124,0.00095095 L0,0.00095095 L0,28.6068854 Z M0.73252451,27.926277 L73.3081228,27.926277 L73.3081228,0.67884245 L0.73252451,0.67884245 L0.73252451,27.926277 Z" id="Fill-1" stroke="#FFFFFF" fill="#FEFEFE"></path>
                <g id="Group-8" transform="translate(2.930098, 1.377820)">
                    <path d="M65.0944569,6.68154008 C65.0944569,6.60138858 65.0549005,6.54025608 64.9743228,6.49135008 C64.4571605,6.20470658 63.8579555,6.06342258 63.1781727,6.06342258 C62.8221658,6.06342258 62.439788,6.10553608 62.0251792,6.18976308 C61.9138354,6.21149908 61.8566985,6.27670708 61.8566985,6.38267008 C61.8566985,6.43293458 61.8757442,6.47640658 61.9109053,6.51172758 C61.9489966,6.54840708 61.9958782,6.56606758 62.0544801,6.56606758 C62.0676656,6.56606758 62.1174773,6.55519958 62.2024501,6.53753908 C62.556992,6.46961408 62.8807678,6.43565158 63.1781727,6.43565158 C63.783238,6.43565158 64.3165158,6.56335058 64.7736111,6.82010708 C64.8248878,6.84591858 64.8688393,6.86086208 64.9054655,6.86086208 C64.9567423,6.86086208 65.0021588,6.84320158 65.038785,6.81059758 C65.0754112,6.77663508 65.0944569,6.73316308 65.0944569,6.68154008 M65.4812298,5.88002508 C65.4812298,5.78085458 65.4328832,5.70477858 65.3405851,5.65315558 C64.7047538,5.30266258 63.9707643,5.12741608 63.1386164,5.12741608 C62.7298677,5.12741608 62.3225841,5.18175608 61.9211607,5.28500208 C61.7922364,5.31760608 61.7292393,5.39639908 61.7292393,5.52273958 C61.7292393,5.58523058 61.7526801,5.63685358 61.7995616,5.68168408 C61.8464432,5.72515608 61.9021151,5.74689208 61.9695073,5.74689208 C61.9885529,5.74689208 62.0383646,5.73738258 62.1189423,5.71700508 C62.4441832,5.63413658 62.7811445,5.59338158 63.126896,5.59338158 C63.874071,5.59338158 64.5274829,5.74825058 65.0871316,6.05527158 C65.1515938,6.08787558 65.2014054,6.10417758 65.2394967,6.10417758 C65.306889,6.10417758 65.3640259,6.08380008 65.4109075,6.03896958 C65.457789,5.99549758 65.4812298,5.94251608 65.4812298,5.88002508 M65.9148843,4.95624508 C65.9148843,4.84077258 65.8606775,4.75247008 65.7537289,4.69677158 C65.4167676,4.51473258 65.0241345,4.37888258 64.5758295,4.28378758 C64.1304546,4.19140958 63.6689642,4.14522058 63.1986834,4.14522058 C62.6522201,4.14522058 62.1658239,4.20363608 61.7365645,4.32046708 C61.6750325,4.33676908 61.6237557,4.36937308 61.5827344,4.41556208 C61.5402479,4.46039258 61.5212023,4.52152508 61.5212023,4.59624258 C61.5212023,4.67231858 61.5461081,4.73616808 61.60178,4.78914958 C61.6574519,4.84213108 61.7248441,4.86794258 61.809817,4.86794258 C61.8376529,4.86794258 61.8918597,4.85707458 61.9695073,4.83805558 C62.3255142,4.74567758 62.737193,4.69948858 63.2030786,4.69948858 C63.6294078,4.69948858 64.0425517,4.74160208 64.4469052,4.82718758 C64.8483286,4.91141458 65.18822,5.02824558 65.4651143,5.18175608 C65.5207861,5.21028458 65.5735279,5.22522808 65.6248046,5.22522808 C65.7024522,5.22522808 65.7713095,5.19941658 65.8284464,5.14915208 C65.8855833,5.09752908 65.9148843,5.03367958 65.9148843,4.95624508 M66.325098,4.07593708 C66.6005273,4.51473258 66.7382419,4.99292458 66.7382419,5.51187158 C66.7382419,6.03081858 66.6005273,6.50901058 66.325098,6.94780608 C66.0467387,7.38660158 65.6746163,7.73301908 65.2014054,7.98977558 C64.7281946,8.24517358 64.2110323,8.37287258 63.6528486,8.37287258 C63.0931999,8.37287258 62.5775026,8.24517358 62.1042918,7.98977558 C61.631081,7.73301908 61.2574935,7.38660158 60.9805992,6.94780608 C60.70517,6.50901058 60.5674554,6.03081858 60.5674554,5.51187158 C60.5674554,4.99292458 60.70517,4.51473258 60.9805992,4.07593708 C61.2574935,3.63714158 61.631081,3.29072408 62.1042918,3.03396758 C62.5775026,2.77856958 63.0931999,2.65087058 63.6528486,2.65087058 C64.2110323,2.65087058 64.7281946,2.77856958 65.2014054,3.03396758 C65.6746163,3.29072408 66.0467387,3.63714158 66.325098,4.07593708" id="Fill-2" fill="#FEFEFE"></path>
                    <path d="M13.6523523,7.91948207 C13.6523523,11.2776941 10.7163941,13.9987696 7.09625794,13.9987696 C3.47612181,13.9987696 0.540163574,11.2776941 0.540163574,7.91948207 C0.540163574,4.56127007 3.47612181,1.84019457 7.09625794,1.84019457 C10.7163941,1.84019457 13.6523523,4.56127007 13.6523523,7.91948207 Z" id="Stroke-4" stroke="#FEFEFE" stroke-width="0.57475"></path>
                    <path d="M8.73506177,7.91812357 C7.6421352,8.59329807 6.55067368,9.26847257 5.45774711,9.94500557 L5.45774711,5.89395857 C5.47093255,5.89939257 8.68232,7.88144407 8.73506177,7.91812357" id="Fill-6" fill="#FEFEFE"></path>
                </g>
                <text id="" font-family="FontAwesome" font-size="4.30683165" font-weight="normal" fill="#FEFEFE">
                    <tspan x="64.4116379" y="22.192087"></tspan>
                </text>
                <g id="Group-15" transform="translate(19.222454, 17.502625)">
                    <polygon id="Fill-9" fill="#FEFEFE" points="7.25492275 3.428854 35.0205318 3.428854 35.0205318 1.9983535 7.25492275 1.9983535"></polygon>
                    <path d="M2.43989264,2.5882142 C3.53135416,3.2633887 4.61988558,3.9358462 5.7113471,4.6110207 L5.7113471,0.5681247 C5.69816166,0.5735587 2.4926344,2.5515347 2.43989264,2.5882142" id="Fill-11" fill="#FEFEFE"></path>
                    <path d="M1.0850153,0.56771715 L1.0850153,4.85921865" id="Stroke-12" stroke="#FEFEFE" stroke-width="0.57475"></path>
                    <path d="M39.8343898,2.5882142 C38.7443934,3.2633887 37.6543969,3.9358462 36.5629354,4.6110207 L36.5629354,0.5681247 C36.5761208,0.5735587 39.7816481,2.5515347 39.8343898,2.5882142" id="Fill-13" fill="#FEFEFE"></path>
                    <path d="M41.1907322,0.56771715 L41.1907322,4.85921865" id="Stroke-14" stroke="#FEFEFE" stroke-width="0.57475"></path>
                </g>
            </g>
        </g>
        <g id="IMG_1" transform="translate(12.000000, 44.000000)">
            <g id="Group-12">
                <polygon id="Fill-1" fill="#819FB3" points="0 79.8428571 75 79.8428571 75 0 0 0"></polygon>
                <g id="Group-11" transform="translate(24.317388, 17.254286)">
                    <path d="M1.15384615,16.2 C0.692263585,16.2 0.236856034,16.0734312 -0.162976359,15.834713 L-5.60779817,12.5711615 C-6.41981299,12.0857143 -6.92307692,11.1789052 -6.92307692,10.2064085 L-6.92307692,3.68090788 C-6.92307692,2.70680908 -6.41981299,1.80160214 -5.60779817,1.31455274 L-0.162976359,-1.94899866 C0.236856034,-2.18771696 0.692263585,-2.31428571 1.15384615,-2.31428571 C1.61542872,-2.31428571 2.06929252,-2.18771696 2.46912491,-1.94899866 L7.91549047,1.31455274 C8.72750529,1.80160214 9.23076923,2.70680908 9.23076923,3.68090788 L9.23076923,10.2064085 C9.23076923,11.1789052 8.72750529,12.0857143 7.91549047,12.5711615 L2.46912491,15.834713 C2.06929252,16.0734312 1.61542872,16.2 1.15384615,16.2" id="Fill-3" fill="#FEFEFE"></path>
                    <path d="M1.15384615,-3.47142857 C0.54028665,-3.47142857 -0.0716624618,-3.30887382 -0.622416662,-2.9821056 L-6.30227065,0.396710998 C-7.40055827,1.05024744 -8.07692308,2.2561383 -8.07692308,3.56321119 L-8.07692308,10.3191857 C-8.07692308,11.6279173 -7.40055827,12.8338081 -6.30227065,13.4873446 L-0.622416662,16.8661612 C-0.0716624618,17.1929294 0.54028665,17.3571429 1.15384615,17.3571429 C1.76579527,17.3571429 2.37935477,17.1929294 2.92849858,16.8661612 L8.60996296,13.4873446 C9.70825058,12.8338081 10.3846154,11.6279173 10.3846154,10.3191857 L10.3846154,3.56321119 C10.3846154,2.2561383 9.70825058,1.05024744 8.60996296,0.396710998 L2.92849858,-2.9821056 C2.37935477,-3.30887382 1.76579527,-3.47142857 1.15384615,-3.47142857 M1.15384615,-1.81270663 C1.49363895,-1.81270663 1.82860057,-1.7198182 2.12330238,-1.5456524 L7.80476676,1.8331642 C8.40222234,2.1881307 8.77422299,2.85327819 8.77422299,3.56321119 L8.77422299,10.3191857 C8.77422299,11.0324361 8.40222234,11.6959249 7.80476676,12.0508914 L2.12330238,15.429708 C1.82860057,15.6038738 1.49363895,15.6984209 1.15384615,15.6984209 C0.814053358,15.6984209 0.479091739,15.6038738 0.182779537,15.429708 L-5.49707445,12.0508914 C-6.09614043,11.6959249 -6.46653068,11.0324361 -6.46653068,10.3191857 L-6.46653068,3.56321119 C-6.46653068,2.85327819 -6.09614043,2.1881307 -5.49707445,1.8331642 L0.182779537,-1.5456524 C0.479091739,-1.7198182 0.814053358,-1.81270663 1.15384615,-1.81270663" id="Fill-5" fill="#C8282C"></path>
                </g>
                <polygon id="Fill-7" fill-opacity="0.73" fill="#EEF8FF" points="15.5769231 53.8071429 30.5713599 68.7669396 51.9230769 30.0857143 75 80.0819281 0 80.3399309"></polygon>
            </g>
        </g>
        <g id="IMG_2" transform="translate(103.000000, 44.000000)">
            <g id="Group-12">
                <polygon id="Fill-1" fill="#819FB3" points="0 79.8428571 75 79.8428571 75 0 0 0"></polygon>
                <g id="Group-11" transform="translate(24.317388, 17.254286)">
                    <path d="M1.15384615,16.2 C0.692263585,16.2 0.236856034,16.0734312 -0.162976359,15.834713 L-5.60779817,12.5711615 C-6.41981299,12.0857143 -6.92307692,11.1789052 -6.92307692,10.2064085 L-6.92307692,3.68090788 C-6.92307692,2.70680908 -6.41981299,1.80160214 -5.60779817,1.31455274 L-0.162976359,-1.94899866 C0.236856034,-2.18771696 0.692263585,-2.31428571 1.15384615,-2.31428571 C1.61542872,-2.31428571 2.06929252,-2.18771696 2.46912491,-1.94899866 L7.91549047,1.31455274 C8.72750529,1.80160214 9.23076923,2.70680908 9.23076923,3.68090788 L9.23076923,10.2064085 C9.23076923,11.1789052 8.72750529,12.0857143 7.91549047,12.5711615 L2.46912491,15.834713 C2.06929252,16.0734312 1.61542872,16.2 1.15384615,16.2" id="Fill-3" fill="#FEFEFE"></path>
                    <path d="M1.15384615,-3.47142857 C0.54028665,-3.47142857 -0.0716624618,-3.30887382 -0.622416662,-2.9821056 L-6.30227065,0.396710998 C-7.40055827,1.05024744 -8.07692308,2.2561383 -8.07692308,3.56321119 L-8.07692308,10.3191857 C-8.07692308,11.6279173 -7.40055827,12.8338081 -6.30227065,13.4873446 L-0.622416662,16.8661612 C-0.0716624618,17.1929294 0.54028665,17.3571429 1.15384615,17.3571429 C1.76579527,17.3571429 2.37935477,17.1929294 2.92849858,16.8661612 L8.60996296,13.4873446 C9.70825058,12.8338081 10.3846154,11.6279173 10.3846154,10.3191857 L10.3846154,3.56321119 C10.3846154,2.2561383 9.70825058,1.05024744 8.60996296,0.396710998 L2.92849858,-2.9821056 C2.37935477,-3.30887382 1.76579527,-3.47142857 1.15384615,-3.47142857 M1.15384615,-1.81270663 C1.49363895,-1.81270663 1.82860057,-1.7198182 2.12330238,-1.5456524 L7.80476676,1.8331642 C8.40222234,2.1881307 8.77422299,2.85327819 8.77422299,3.56321119 L8.77422299,10.3191857 C8.77422299,11.0324361 8.40222234,11.6959249 7.80476676,12.0508914 L2.12330238,15.429708 C1.82860057,15.6038738 1.49363895,15.6984209 1.15384615,15.6984209 C0.814053358,15.6984209 0.479091739,15.6038738 0.182779537,15.429708 L-5.49707445,12.0508914 C-6.09614043,11.6959249 -6.46653068,11.0324361 -6.46653068,10.3191857 L-6.46653068,3.56321119 C-6.46653068,2.85327819 -6.09614043,2.1881307 -5.49707445,1.8331642 L0.182779537,-1.5456524 C0.479091739,-1.7198182 0.814053358,-1.81270663 1.15384615,-1.81270663" id="Fill-5" fill="#C8282C"></path>
                </g>
                <polygon id="Fill-7" fill-opacity="0.73" fill="#EEF8FF" points="15.5769231 53.8071429 30.5713599 68.7669396 51.9230769 30.0857143 75 80.0819281 0 80.3399309"></polygon>
            </g>
        </g>
        <g id="IMG_2-Copy" transform="translate(193.000000, 44.000000)">
            <g id="Group-12">
                <polygon id="Fill-1" fill="#819FB3" points="0 79.8428571 75 79.8428571 75 0 0 0"></polygon>
                <g id="Group-11" transform="translate(24.317388, 17.254286)">
                    <path d="M1.15384615,16.2 C0.692263585,16.2 0.236856034,16.0734312 -0.162976359,15.834713 L-5.60779817,12.5711615 C-6.41981299,12.0857143 -6.92307692,11.1789052 -6.92307692,10.2064085 L-6.92307692,3.68090788 C-6.92307692,2.70680908 -6.41981299,1.80160214 -5.60779817,1.31455274 L-0.162976359,-1.94899866 C0.236856034,-2.18771696 0.692263585,-2.31428571 1.15384615,-2.31428571 C1.61542872,-2.31428571 2.06929252,-2.18771696 2.46912491,-1.94899866 L7.91549047,1.31455274 C8.72750529,1.80160214 9.23076923,2.70680908 9.23076923,3.68090788 L9.23076923,10.2064085 C9.23076923,11.1789052 8.72750529,12.0857143 7.91549047,12.5711615 L2.46912491,15.834713 C2.06929252,16.0734312 1.61542872,16.2 1.15384615,16.2" id="Fill-3" fill="#FEFEFE"></path>
                    <path d="M1.15384615,-3.47142857 C0.54028665,-3.47142857 -0.0716624618,-3.30887382 -0.622416662,-2.9821056 L-6.30227065,0.396710998 C-7.40055827,1.05024744 -8.07692308,2.2561383 -8.07692308,3.56321119 L-8.07692308,10.3191857 C-8.07692308,11.6279173 -7.40055827,12.8338081 -6.30227065,13.4873446 L-0.622416662,16.8661612 C-0.0716624618,17.1929294 0.54028665,17.3571429 1.15384615,17.3571429 C1.76579527,17.3571429 2.37935477,17.1929294 2.92849858,16.8661612 L8.60996296,13.4873446 C9.70825058,12.8338081 10.3846154,11.6279173 10.3846154,10.3191857 L10.3846154,3.56321119 C10.3846154,2.2561383 9.70825058,1.05024744 8.60996296,0.396710998 L2.92849858,-2.9821056 C2.37935477,-3.30887382 1.76579527,-3.47142857 1.15384615,-3.47142857 M1.15384615,-1.81270663 C1.49363895,-1.81270663 1.82860057,-1.7198182 2.12330238,-1.5456524 L7.80476676,1.8331642 C8.40222234,2.1881307 8.77422299,2.85327819 8.77422299,3.56321119 L8.77422299,10.3191857 C8.77422299,11.0324361 8.40222234,11.6959249 7.80476676,12.0508914 L2.12330238,15.429708 C1.82860057,15.6038738 1.49363895,15.6984209 1.15384615,15.6984209 C0.814053358,15.6984209 0.479091739,15.6038738 0.182779537,15.429708 L-5.49707445,12.0508914 C-6.09614043,11.6959249 -6.46653068,11.0324361 -6.46653068,10.3191857 L-6.46653068,3.56321119 C-6.46653068,2.85327819 -6.09614043,2.1881307 -5.49707445,1.8331642 L0.182779537,-1.5456524 C0.479091739,-1.7198182 0.814053358,-1.81270663 1.15384615,-1.81270663" id="Fill-5" fill="#C8282C"></path>
                </g>
                <polygon id="Fill-7" fill-opacity="0.73" fill="#EEF8FF" points="15.5769231 53.8071429 30.5713599 68.7669396 51.9230769 30.0857143 75 80.0819281 0 80.3399309"></polygon>
            </g>
        </g>
        <g id="Audio-2" transform="translate(103.000000, 136.000000)">
            <g id="Group-16">
                <path d="M0,28.6068854 L74.0421124,28.6068854 L74.0421124,0.00095095 L0,0.00095095 L0,28.6068854 Z M0.73252451,27.926277 L73.3081228,27.926277 L73.3081228,0.67884245 L0.73252451,0.67884245 L0.73252451,27.926277 Z" id="Fill-1" stroke="#FFFFFF" fill="#FEFEFE"></path>
                <g id="Group-8" transform="translate(2.930098, 1.377820)">
                    <path d="M65.0944569,6.68154008 C65.0944569,6.60138858 65.0549005,6.54025608 64.9743228,6.49135008 C64.4571605,6.20470658 63.8579555,6.06342258 63.1781727,6.06342258 C62.8221658,6.06342258 62.439788,6.10553608 62.0251792,6.18976308 C61.9138354,6.21149908 61.8566985,6.27670708 61.8566985,6.38267008 C61.8566985,6.43293458 61.8757442,6.47640658 61.9109053,6.51172758 C61.9489966,6.54840708 61.9958782,6.56606758 62.0544801,6.56606758 C62.0676656,6.56606758 62.1174773,6.55519958 62.2024501,6.53753908 C62.556992,6.46961408 62.8807678,6.43565158 63.1781727,6.43565158 C63.783238,6.43565158 64.3165158,6.56335058 64.7736111,6.82010708 C64.8248878,6.84591858 64.8688393,6.86086208 64.9054655,6.86086208 C64.9567423,6.86086208 65.0021588,6.84320158 65.038785,6.81059758 C65.0754112,6.77663508 65.0944569,6.73316308 65.0944569,6.68154008 M65.4812298,5.88002508 C65.4812298,5.78085458 65.4328832,5.70477858 65.3405851,5.65315558 C64.7047538,5.30266258 63.9707643,5.12741608 63.1386164,5.12741608 C62.7298677,5.12741608 62.3225841,5.18175608 61.9211607,5.28500208 C61.7922364,5.31760608 61.7292393,5.39639908 61.7292393,5.52273958 C61.7292393,5.58523058 61.7526801,5.63685358 61.7995616,5.68168408 C61.8464432,5.72515608 61.9021151,5.74689208 61.9695073,5.74689208 C61.9885529,5.74689208 62.0383646,5.73738258 62.1189423,5.71700508 C62.4441832,5.63413658 62.7811445,5.59338158 63.126896,5.59338158 C63.874071,5.59338158 64.5274829,5.74825058 65.0871316,6.05527158 C65.1515938,6.08787558 65.2014054,6.10417758 65.2394967,6.10417758 C65.306889,6.10417758 65.3640259,6.08380008 65.4109075,6.03896958 C65.457789,5.99549758 65.4812298,5.94251608 65.4812298,5.88002508 M65.9148843,4.95624508 C65.9148843,4.84077258 65.8606775,4.75247008 65.7537289,4.69677158 C65.4167676,4.51473258 65.0241345,4.37888258 64.5758295,4.28378758 C64.1304546,4.19140958 63.6689642,4.14522058 63.1986834,4.14522058 C62.6522201,4.14522058 62.1658239,4.20363608 61.7365645,4.32046708 C61.6750325,4.33676908 61.6237557,4.36937308 61.5827344,4.41556208 C61.5402479,4.46039258 61.5212023,4.52152508 61.5212023,4.59624258 C61.5212023,4.67231858 61.5461081,4.73616808 61.60178,4.78914958 C61.6574519,4.84213108 61.7248441,4.86794258 61.809817,4.86794258 C61.8376529,4.86794258 61.8918597,4.85707458 61.9695073,4.83805558 C62.3255142,4.74567758 62.737193,4.69948858 63.2030786,4.69948858 C63.6294078,4.69948858 64.0425517,4.74160208 64.4469052,4.82718758 C64.8483286,4.91141458 65.18822,5.02824558 65.4651143,5.18175608 C65.5207861,5.21028458 65.5735279,5.22522808 65.6248046,5.22522808 C65.7024522,5.22522808 65.7713095,5.19941658 65.8284464,5.14915208 C65.8855833,5.09752908 65.9148843,5.03367958 65.9148843,4.95624508 M66.325098,4.07593708 C66.6005273,4.51473258 66.7382419,4.99292458 66.7382419,5.51187158 C66.7382419,6.03081858 66.6005273,6.50901058 66.325098,6.94780608 C66.0467387,7.38660158 65.6746163,7.73301908 65.2014054,7.98977558 C64.7281946,8.24517358 64.2110323,8.37287258 63.6528486,8.37287258 C63.0931999,8.37287258 62.5775026,8.24517358 62.1042918,7.98977558 C61.631081,7.73301908 61.2574935,7.38660158 60.9805992,6.94780608 C60.70517,6.50901058 60.5674554,6.03081858 60.5674554,5.51187158 C60.5674554,4.99292458 60.70517,4.51473258 60.9805992,4.07593708 C61.2574935,3.63714158 61.631081,3.29072408 62.1042918,3.03396758 C62.5775026,2.77856958 63.0931999,2.65087058 63.6528486,2.65087058 C64.2110323,2.65087058 64.7281946,2.77856958 65.2014054,3.03396758 C65.6746163,3.29072408 66.0467387,3.63714158 66.325098,4.07593708" id="Fill-2" fill="#FEFEFE"></path>
                    <path d="M13.6523523,7.91948207 C13.6523523,11.2776941 10.7163941,13.9987696 7.09625794,13.9987696 C3.47612181,13.9987696 0.540163574,11.2776941 0.540163574,7.91948207 C0.540163574,4.56127007 3.47612181,1.84019457 7.09625794,1.84019457 C10.7163941,1.84019457 13.6523523,4.56127007 13.6523523,7.91948207 Z" id="Stroke-4" stroke="#FEFEFE" stroke-width="0.57475"></path>
                    <path d="M8.73506177,7.91812357 C7.6421352,8.59329807 6.55067368,9.26847257 5.45774711,9.94500557 L5.45774711,5.89395857 C5.47093255,5.89939257 8.68232,7.88144407 8.73506177,7.91812357" id="Fill-6" fill="#FEFEFE"></path>
                </g>
                <text id="" font-family="FontAwesome" font-size="4.30683165" font-weight="normal" fill="#FEFEFE">
                    <tspan x="64.4116379" y="22.192087"></tspan>
                </text>
                <g id="Group-15" transform="translate(19.222454, 17.502625)">
                    <polygon id="Fill-9" fill="#FEFEFE" points="7.25492275 3.428854 35.0205318 3.428854 35.0205318 1.9983535 7.25492275 1.9983535"></polygon>
                    <path d="M2.43989264,2.5882142 C3.53135416,3.2633887 4.61988558,3.9358462 5.7113471,4.6110207 L5.7113471,0.5681247 C5.69816166,0.5735587 2.4926344,2.5515347 2.43989264,2.5882142" id="Fill-11" fill="#FEFEFE"></path>
                    <path d="M1.0850153,0.56771715 L1.0850153,4.85921865" id="Stroke-12" stroke="#FEFEFE" stroke-width="0.57475"></path>
                    <path d="M39.8343898,2.5882142 C38.7443934,3.2633887 37.6543969,3.9358462 36.5629354,4.6110207 L36.5629354,0.5681247 C36.5761208,0.5735587 39.7816481,2.5515347 39.8343898,2.5882142" id="Fill-13" fill="#FEFEFE"></path>
                    <path d="M41.1907322,0.56771715 L41.1907322,4.85921865" id="Stroke-14" stroke="#FEFEFE" stroke-width="0.57475"></path>
                </g>
            </g>
        </g>
        <g id="Audio-1" transform="translate(12.000000, 136.000000)">
            <g id="Group-16">
                <path d="M0,28.6068854 L74.0421124,28.6068854 L74.0421124,0.00095095 L0,0.00095095 L0,28.6068854 Z M0.73252451,27.926277 L73.3081228,27.926277 L73.3081228,0.67884245 L0.73252451,0.67884245 L0.73252451,27.926277 Z" id="Fill-1" stroke="#FFFFFF" fill="#FEFEFE"></path>
                <g id="Group-8" transform="translate(2.930098, 1.377820)">
                    <path d="M65.0944569,6.68154008 C65.0944569,6.60138858 65.0549005,6.54025608 64.9743228,6.49135008 C64.4571605,6.20470658 63.8579555,6.06342258 63.1781727,6.06342258 C62.8221658,6.06342258 62.439788,6.10553608 62.0251792,6.18976308 C61.9138354,6.21149908 61.8566985,6.27670708 61.8566985,6.38267008 C61.8566985,6.43293458 61.8757442,6.47640658 61.9109053,6.51172758 C61.9489966,6.54840708 61.9958782,6.56606758 62.0544801,6.56606758 C62.0676656,6.56606758 62.1174773,6.55519958 62.2024501,6.53753908 C62.556992,6.46961408 62.8807678,6.43565158 63.1781727,6.43565158 C63.783238,6.43565158 64.3165158,6.56335058 64.7736111,6.82010708 C64.8248878,6.84591858 64.8688393,6.86086208 64.9054655,6.86086208 C64.9567423,6.86086208 65.0021588,6.84320158 65.038785,6.81059758 C65.0754112,6.77663508 65.0944569,6.73316308 65.0944569,6.68154008 M65.4812298,5.88002508 C65.4812298,5.78085458 65.4328832,5.70477858 65.3405851,5.65315558 C64.7047538,5.30266258 63.9707643,5.12741608 63.1386164,5.12741608 C62.7298677,5.12741608 62.3225841,5.18175608 61.9211607,5.28500208 C61.7922364,5.31760608 61.7292393,5.39639908 61.7292393,5.52273958 C61.7292393,5.58523058 61.7526801,5.63685358 61.7995616,5.68168408 C61.8464432,5.72515608 61.9021151,5.74689208 61.9695073,5.74689208 C61.9885529,5.74689208 62.0383646,5.73738258 62.1189423,5.71700508 C62.4441832,5.63413658 62.7811445,5.59338158 63.126896,5.59338158 C63.874071,5.59338158 64.5274829,5.74825058 65.0871316,6.05527158 C65.1515938,6.08787558 65.2014054,6.10417758 65.2394967,6.10417758 C65.306889,6.10417758 65.3640259,6.08380008 65.4109075,6.03896958 C65.457789,5.99549758 65.4812298,5.94251608 65.4812298,5.88002508 M65.9148843,4.95624508 C65.9148843,4.84077258 65.8606775,4.75247008 65.7537289,4.69677158 C65.4167676,4.51473258 65.0241345,4.37888258 64.5758295,4.28378758 C64.1304546,4.19140958 63.6689642,4.14522058 63.1986834,4.14522058 C62.6522201,4.14522058 62.1658239,4.20363608 61.7365645,4.32046708 C61.6750325,4.33676908 61.6237557,4.36937308 61.5827344,4.41556208 C61.5402479,4.46039258 61.5212023,4.52152508 61.5212023,4.59624258 C61.5212023,4.67231858 61.5461081,4.73616808 61.60178,4.78914958 C61.6574519,4.84213108 61.7248441,4.86794258 61.809817,4.86794258 C61.8376529,4.86794258 61.8918597,4.85707458 61.9695073,4.83805558 C62.3255142,4.74567758 62.737193,4.69948858 63.2030786,4.69948858 C63.6294078,4.69948858 64.0425517,4.74160208 64.4469052,4.82718758 C64.8483286,4.91141458 65.18822,5.02824558 65.4651143,5.18175608 C65.5207861,5.21028458 65.5735279,5.22522808 65.6248046,5.22522808 C65.7024522,5.22522808 65.7713095,5.19941658 65.8284464,5.14915208 C65.8855833,5.09752908 65.9148843,5.03367958 65.9148843,4.95624508 M66.325098,4.07593708 C66.6005273,4.51473258 66.7382419,4.99292458 66.7382419,5.51187158 C66.7382419,6.03081858 66.6005273,6.50901058 66.325098,6.94780608 C66.0467387,7.38660158 65.6746163,7.73301908 65.2014054,7.98977558 C64.7281946,8.24517358 64.2110323,8.37287258 63.6528486,8.37287258 C63.0931999,8.37287258 62.5775026,8.24517358 62.1042918,7.98977558 C61.631081,7.73301908 61.2574935,7.38660158 60.9805992,6.94780608 C60.70517,6.50901058 60.5674554,6.03081858 60.5674554,5.51187158 C60.5674554,4.99292458 60.70517,4.51473258 60.9805992,4.07593708 C61.2574935,3.63714158 61.631081,3.29072408 62.1042918,3.03396758 C62.5775026,2.77856958 63.0931999,2.65087058 63.6528486,2.65087058 C64.2110323,2.65087058 64.7281946,2.77856958 65.2014054,3.03396758 C65.6746163,3.29072408 66.0467387,3.63714158 66.325098,4.07593708" id="Fill-2" fill="#FEFEFE"></path>
                    <path d="M13.6523523,7.91948207 C13.6523523,11.2776941 10.7163941,13.9987696 7.09625794,13.9987696 C3.47612181,13.9987696 0.540163574,11.2776941 0.540163574,7.91948207 C0.540163574,4.56127007 3.47612181,1.84019457 7.09625794,1.84019457 C10.7163941,1.84019457 13.6523523,4.56127007 13.6523523,7.91948207 Z" id="Stroke-4" stroke="#FEFEFE" stroke-width="0.57475"></path>
                    <path d="M8.73506177,7.91812357 C7.6421352,8.59329807 6.55067368,9.26847257 5.45774711,9.94500557 L5.45774711,5.89395857 C5.47093255,5.89939257 8.68232,7.88144407 8.73506177,7.91812357" id="Fill-6" fill="#FEFEFE"></path>
                </g>
                <text id="" font-family="FontAwesome" font-size="4.30683165" font-weight="normal" fill="#FEFEFE">
                    <tspan x="64.4116379" y="22.192087"></tspan>
                </text>
                <g id="Group-15" transform="translate(19.222454, 17.502625)">
                    <polygon id="Fill-9" fill="#FEFEFE" points="7.25492275 3.428854 35.0205318 3.428854 35.0205318 1.9983535 7.25492275 1.9983535"></polygon>
                    <path d="M2.43989264,2.5882142 C3.53135416,3.2633887 4.61988558,3.9358462 5.7113471,4.6110207 L5.7113471,0.5681247 C5.69816166,0.5735587 2.4926344,2.5515347 2.43989264,2.5882142" id="Fill-11" fill="#FEFEFE"></path>
                    <path d="M1.0850153,0.56771715 L1.0850153,4.85921865" id="Stroke-12" stroke="#FEFEFE" stroke-width="0.57475"></path>
                    <path d="M39.8343898,2.5882142 C38.7443934,3.2633887 37.6543969,3.9358462 36.5629354,4.6110207 L36.5629354,0.5681247 C36.5761208,0.5735587 39.7816481,2.5515347 39.8343898,2.5882142" id="Fill-13" fill="#FEFEFE"></path>
                    <path d="M41.1907322,0.56771715 L41.1907322,4.85921865" id="Stroke-14" stroke="#FEFEFE" stroke-width="0.57475"></path>
                </g>
            </g>
        </g>
    </g>
</svg>