<?xml version="1.0" encoding="utf-8"?><svg xmlns="http://www.w3.org/2000/svg" viewBox="0 0 100 115.97"><defs><style>.cls-1,.cls-10{fill:#81a0b4;}.cls-2{opacity:0.44;}.cls-3{fill:none;}.cls-3,.cls-5{stroke:#81a0b4;stroke-width:0.5px;}.cls-3,.cls-4,.cls-5{stroke-miterlimit:10;}.cls-4,.cls-5,.cls-9{fill:#fff;}.cls-4{stroke:#c9292c;}.cls-6{font-size:5px;}.cls-12,.cls-13,.cls-6{fill:#f1f2f2;}.cls-10,.cls-13,.cls-6{font-family:Helvetica-Bold, Helvetica;font-weight:700;}.cls-7{letter-spacing:-0.05em;}.cls-8{opacity:0.62;}.cls-10{font-size:1.95px;}.cls-11{letter-spacing:-0.02em;}.cls-13{font-size:4.87px;}.cls-14{letter-spacing:-0.02em;}.cls-15{letter-spacing:0em;}</style></defs><title>LandingPages_</title><g id="Layer_1" data-name="Layer 1"><rect class="cls-1" x="0.05" width="100" height="21.26"/><polygon class="cls-1" points="42.86 18.26 49.86 25.26 57.36 18.26 42.86 18.26"/><g class="cls-2"><rect class="cls-1" y="20.5" width="100" height="24.77"/></g><line class="cls-3" x1="18.99" y1="42.26" x2="35" y2="42.26"/><line class="cls-3" x1="18.99" y1="39.6" x2="47" y2="39.6"/><line class="cls-3" x1="18.99" y1="36.93" x2="47" y2="36.93"/><line class="cls-3" x1="18.99" y1="34.26" x2="47" y2="34.26"/><line class="cls-3" x1="53" y1="42.26" x2="69" y2="42.26"/><line class="cls-3" x1="53" y1="39.6" x2="81" y2="39.6"/><line class="cls-3" x1="53" y1="36.93" x2="81" y2="36.93"/><line class="cls-3" x1="53" y1="34.26" x2="81" y2="34.26"/><rect class="cls-1" y="86.26" width="100" height="29.71"/><path class="cls-4" d="M67.47,93.17v1.94a1.33,1.33,0,0,0,.66,1.15l1.68,1a1.35,1.35,0,0,0,1.32,0l1.68-1a1.33,1.33,0,0,0,.66-1.15V93.17A1.32,1.32,0,0,0,72.81,92l-1.68-1a1.3,1.3,0,0,0-1.32,0l-1.68,1A1.32,1.32,0,0,0,67.47,93.17Z"/><polygon class="cls-5" points="100 115.61 83.32 90.26 69.63 106.75 60.13 103.66 44.32 115.61 100 115.61"/><rect class="cls-5" x="10.54" y="100.68" width="78.93" height="9.59"/></g><g id="logo_dark_grey" data-name="logo dark grey"><text class="cls-6" transform="translate(34.02 11.55)"><tspan class="cls-7">AW</tspan><tspan x="7.78" y="0">ARENESS</tspan></text><rect class="cls-1" x="24.19" y="27.26" width="51.63" height="3.29"/><rect class="cls-1" x="24.19" y="47.99" width="51.63" height="3.29"/><g class="cls-8"><path class="cls-1" d="M21.47,53V66.63h20V53Zm9.32,5.51a.63.63,0,0,1-.31.54l-.79.45a.58.58,0,0,1-.62,0L28.28,59A.62.62,0,0,1,28,58.5v-.92a.63.63,0,0,1,.32-.54l.79-.45a.62.62,0,0,1,.62,0l.79.45a.64.64,0,0,1,.31.54Z"/></g><g class="cls-8"><polygon class="cls-1" points="41.47 66.62 35.48 57.51 30.56 63.44 27.15 62.33 21.47 66.62 41.47 66.62"/></g><line class="cls-3" x1="44.73" y1="63.33" x2="74.74" y2="63.33"/><line class="cls-3" x1="44.73" y1="60.81" x2="74.74" y2="60.81"/><rect class="cls-1" x="44.73" y="56.29" width="34.74" height="2"/><g class="cls-8"><path class="cls-1" d="M21.47,69.63V83.26h20V69.63Zm9.32,5.5a.62.62,0,0,1-.31.54l-.79.46a.62.62,0,0,1-.62,0l-.79-.46a.61.61,0,0,1-.32-.54v-.91a.62.62,0,0,1,.32-.54l.79-.46a.62.62,0,0,1,.62,0l.79.46a.63.63,0,0,1,.31.54Z"/></g><g class="cls-8"><polygon class="cls-1" points="41.47 83.25 35.48 74.15 30.56 80.07 27.15 78.96 21.47 83.25 41.47 83.25"/></g><line class="cls-3" x1="44.73" y1="79.96" x2="74.74" y2="79.96"/><line class="cls-3" x1="44.73" y1="77.45" x2="74.74" y2="77.45"/><rect class="cls-1" x="44.73" y="72.93" width="34.74" height="2"/><rect class="cls-9" x="32.68" y="14.26" width="34.74" height="2"/><line class="cls-3" x1="13.92" y1="105.68" x2="33.92" y2="105.68"/><line class="cls-3" x1="13.92" y1="107.68" x2="33.92" y2="107.68"/><text class="cls-10" transform="translate(13.92 103.74)">STE<tspan class="cls-11" x="3.8" y="0">P</tspan><tspan x="5.06" y="0" xml:space="preserve"> 1</tspan><tspan class="cls-12" x="6.69" y="0"> </tspan></text><line class="cls-3" x1="40.04" y1="105.68" x2="60.04" y2="105.68"/><line class="cls-3" x1="40.04" y1="107.68" x2="60.04" y2="107.68"/><text class="cls-10" transform="translate(39.81 103.68)">STE<tspan class="cls-11" x="3.8" y="0">P</tspan><tspan x="5.06" y="0" xml:space="preserve"> 2</tspan></text><line class="cls-3" x1="65.92" y1="105.68" x2="85.92" y2="105.68"/><line class="cls-3" x1="65.92" y1="107.68" x2="85.92" y2="107.68"/><text class="cls-10" transform="translate(65.92 103.68)">STE<tspan class="cls-11" x="3.8" y="0">P</tspan><tspan x="5.06" y="0" xml:space="preserve"> 3</tspan><tspan class="cls-12" x="6.69" y="0"> </tspan></text><text class="cls-13" transform="translate(10.54 95.68)">SE<tspan class="cls-14" x="6.5" y="0">R</tspan><tspan class="cls-15" x="9.93" y="0">VICES</tspan></text><path class="cls-4" d="M27,73.17v1.94a1.33,1.33,0,0,0,.66,1.15l1.68,1a1.35,1.35,0,0,0,1.32,0l1.68-1A1.33,1.33,0,0,0,33,75.11V73.17A1.32,1.32,0,0,0,32.31,72l-1.68-1a1.3,1.3,0,0,0-1.32,0l-1.68,1A1.32,1.32,0,0,0,27,73.17Z"/></g></svg>