<?xml version="1.0" encoding="utf-8"?><svg xmlns="http://www.w3.org/2000/svg" viewBox="0 0 100 115.97"><defs><style>.cls-1,.cls-4{fill:#81a0b4;}.cls-1,.cls-10,.cls-11{stroke:#81a0b4;}.cls-1,.cls-10,.cls-11,.cls-13{stroke-miterlimit:10;}.cls-12,.cls-13,.cls-2,.cls-8{fill:#fff;}.cls-3{opacity:0.62;}.cls-5{opacity:0.65;}.cls-6{font-size:5px;fill:#f1f2f2;}.cls-12,.cls-6{font-family:Helvetica-Bold, Helvetica;font-weight:700;}.cls-7{fill:#c9292c;}.cls-8,.cls-9{opacity:0.44;}.cls-10,.cls-11{fill:none;}.cls-10,.cls-13{stroke-width:0.5px;}.cls-12{font-size:1.95px;}.cls-13{stroke:#c9292c;}</style></defs><title>LandingPages_</title><g id="Layer_1" data-name="Layer 1"><rect class="cls-1" x="-0.17" y="0.21" width="100" height="30"/><polygon class="cls-2" points="99.83 30.8 86.64 10.78 75.83 23.8 68.31 21.37 55.83 30.8 99.83 30.8"/><g class="cls-3"><path class="cls-4" d="M0,62.21v24H100v-24Zm75.33,7.12a1.1,1.1,0,0,1-.55,1l-1.39.78a1.07,1.07,0,0,1-1.09,0l-1.37-.82a1.09,1.09,0,0,1-.53-1V67.67a1.11,1.11,0,0,1,.56-.94l1.39-.79a1,1,0,0,1,1.08,0l1.38.82a1.11,1.11,0,0,1,.53,1Z"/></g><g class="cls-3"><polygon class="cls-4" points="98.99 86.29 85.81 66.26 74.99 79.29 67.48 76.85 54.99 86.29 98.99 86.29"/></g></g><g id="logo_dark_grey" data-name="logo dark grey"><rect class="cls-2" x="12.83" y="7.21" width="23" height="48"/><g class="cls-5"><rect class="cls-4" x="12.84" y="7.21" width="23" height="48"/></g><text class="cls-6" transform="translate(41.82 15.21)">CONVERSION</text><rect class="cls-7" x="16.39" y="50.08" width="14.66" height="3.12" rx="1.47"/><rect class="cls-8" x="15.84" y="10.21" width="17" height="3"/><rect class="cls-8" x="15.84" y="15.9" width="17" height="3"/><rect class="cls-8" x="15.84" y="21.6" width="17" height="3"/><rect class="cls-8" x="15.84" y="27.3" width="17" height="3"/><rect class="cls-8" x="15.84" y="32.99" width="17" height="3"/><rect class="cls-8" x="15.84" y="38.69" width="17" height="3"/><rect class="cls-8" x="15.84" y="44.38" width="17" height="3"/><rect class="cls-4" x="41.83" y="36.21" width="51.63" height="3.29"/><g class="cls-9"><path class="cls-4" d="M41.83,42.79V56.43H62V42.79Zm9.4,5.51a.63.63,0,0,1-.32.54l-.8.45a.62.62,0,0,1-.62,0l-.8-.45a.63.63,0,0,1-.32-.54v-.92a.62.62,0,0,1,.32-.54l.8-.45a.58.58,0,0,1,.62,0l.8.45a.62.62,0,0,1,.32.54Z"/></g><g class="cls-9"><polygon class="cls-4" points="62 56.41 55.96 47.31 51 53.23 47.55 52.13 41.83 56.41 62 56.41"/></g><line class="cls-10" x1="65.26" y1="51.48" x2="88.83" y2="51.48"/><line class="cls-10" x1="65.26" y1="48.96" x2="88.83" y2="48.96"/><rect class="cls-4" x="65.26" y="44.44" width="23.56" height="2"/><line class="cls-10" x1="65.26" y1="54.78" x2="81.83" y2="54.78"/><rect class="cls-4" x="37" y="69.21" width="26" height="3"/><line class="cls-11" x1="42.89" y1="75.21" x2="57.11" y2="75.21"/><rect class="cls-7" x="42.75" y="78.21" width="14.08" height="3" rx="1.41"/><g class="cls-9"><path class="cls-4" d="M3.5,89.17V102.8h20V89.17Zm9.32,5.5a.62.62,0,0,1-.31.54l-.79.46a.64.64,0,0,1-.63,0l-.79-.46a.62.62,0,0,1-.31-.54v-.91a.63.63,0,0,1,.31-.54l.79-.46a.64.64,0,0,1,.63,0l.79.46a.63.63,0,0,1,.31.54Z"/></g><g class="cls-9"><polygon class="cls-4" points="23.5 102.79 17.51 93.69 12.59 99.61 9.18 98.5 3.5 102.79 23.5 102.79"/></g><line class="cls-10" x1="3.5" y1="111.21" x2="20.78" y2="111.21"/><line class="cls-10" x1="3.5" y1="108.69" x2="20.78" y2="108.69"/><rect class="cls-4" x="3.5" y="104.17" width="20" height="2"/><g class="cls-9"><path class="cls-4" d="M27.83,89.21v13.63h20V89.21Zm9.32,5.5a.63.63,0,0,1-.31.54l-.79.46a.62.62,0,0,1-.62,0l-.79-.46a.62.62,0,0,1-.32-.54V93.8a.62.62,0,0,1,.32-.54l.79-.46a.62.62,0,0,1,.62,0l.79.46a.63.63,0,0,1,.31.54Z"/></g><g class="cls-9"><polygon class="cls-4" points="47.83 102.83 41.84 93.73 36.92 99.65 33.51 98.54 27.83 102.83 47.83 102.83"/></g><line class="cls-10" x1="27.83" y1="111.24" x2="45.11" y2="111.24"/><line class="cls-10" x1="27.83" y1="108.72" x2="45.11" y2="108.72"/><rect class="cls-4" x="27.83" y="104.21" width="20" height="2"/><g class="cls-9"><path class="cls-4" d="M52.17,89.17V102.8h20V89.17Zm9.32,5.5a.61.61,0,0,1-.32.54l-.79.46a.62.62,0,0,1-.62,0L59,95.21a.62.62,0,0,1-.31-.54v-.91a.63.63,0,0,1,.31-.54l.79-.46a.62.62,0,0,1,.62,0l.79.46a.62.62,0,0,1,.32.54Z"/></g><g class="cls-9"><polygon class="cls-4" points="72.17 102.79 66.17 93.69 61.26 99.61 57.84 98.5 52.17 102.79 72.17 102.79"/></g><line class="cls-10" x1="52.17" y1="111.21" x2="69.44" y2="111.21"/><line class="cls-10" x1="52.17" y1="108.69" x2="69.44" y2="108.69"/><rect class="cls-4" x="52.17" y="104.17" width="20" height="2"/><g class="cls-9"><path class="cls-4" d="M76.5,89.21v13.63h20V89.21Zm9.32,5.5a.63.63,0,0,1-.31.54l-.79.46a.64.64,0,0,1-.63,0l-.79-.46a.63.63,0,0,1-.31-.54V93.8a.63.63,0,0,1,.31-.54l.79-.46a.64.64,0,0,1,.63,0l.79.46a.63.63,0,0,1,.31.54Z"/></g><g class="cls-9"><polygon class="cls-4" points="96.5 102.83 90.51 93.73 85.59 99.65 82.18 98.54 76.5 102.83 96.5 102.83"/></g><line class="cls-10" x1="76.5" y1="111.24" x2="93.78" y2="111.24"/><line class="cls-10" x1="76.5" y1="108.72" x2="93.78" y2="108.72"/><rect class="cls-4" x="76.5" y="104.21" width="20" height="2"/><text class="cls-12" transform="translate(21.45 52.21)">JOIN</text></g><g id="Layer_23" data-name="Layer 23"><path class="cls-13" d="M48.07,47.06v1a.72.72,0,0,0,.36.62l.91.53a.77.77,0,0,0,.72,0l.91-.53a.72.72,0,0,0,.36-.62v-1a.72.72,0,0,0-.36-.62l-.91-.53a.71.71,0,0,0-.72,0l-.91.53A.72.72,0,0,0,48.07,47.06Z"/><path class="cls-13" d="M10.07,94.06v1a.72.72,0,0,0,.36.62l.91.53a.77.77,0,0,0,.72,0l.91-.53a.72.72,0,0,0,.36-.62v-1a.72.72,0,0,0-.36-.62l-.91-.53a.71.71,0,0,0-.72,0l-.91.53A.72.72,0,0,0,10.07,94.06Z"/><path class="cls-13" d="M34.07,94.06v1a.72.72,0,0,0,.36.62l.91.53a.77.77,0,0,0,.72,0l.91-.53a.72.72,0,0,0,.36-.62v-1a.72.72,0,0,0-.36-.62l-.91-.53a.71.71,0,0,0-.72,0l-.91.53A.72.72,0,0,0,34.07,94.06Z"/><path class="cls-13" d="M58.07,94.06v1a.72.72,0,0,0,.36.62l.91.53a.76.76,0,0,0,.72,0l.91-.53a.72.72,0,0,0,.36-.62v-1a.72.72,0,0,0-.36-.62l-.91-.53a.71.71,0,0,0-.72,0l-.91.53A.72.72,0,0,0,58.07,94.06Z"/><path class="cls-13" d="M83.07,94.06v1a.72.72,0,0,0,.36.62l.91.53a.77.77,0,0,0,.72,0l.91-.53a.72.72,0,0,0,.36-.62v-1a.72.72,0,0,0-.36-.62l-.91-.53a.71.71,0,0,0-.72,0l-.91.53A.72.72,0,0,0,83.07,94.06Z"/><path class="cls-13" d="M70.33,67.92v1.62a1.09,1.09,0,0,0,.55.95l1.39.81a1.1,1.1,0,0,0,1.11,0l1.39-.81a1.08,1.08,0,0,0,.56-.95V67.92a1.09,1.09,0,0,0-.56-1l-1.39-.81a1.15,1.15,0,0,0-1.11,0L70.88,67A1.1,1.1,0,0,0,70.33,67.92Z"/></g></svg>