<?xml version="1.0" encoding="utf-8"?><svg xmlns="http://www.w3.org/2000/svg" viewBox="0 0 100 115.97"><defs><style>.cls-1,.cls-12{fill:#fff;}.cls-2{opacity:0.66;}.cls-3{fill:#81a0b4;}.cls-4{opacity:0.44;}.cls-5,.cls-6{fill:none;stroke:#81a0b4;stroke-miterlimit:10;}.cls-5{stroke-width:0.5px;}.cls-7{opacity:0.62;}.cls-8{opacity:0.68;}.cls-9{fill:#c9292c;}.cls-10{font-size:5.19px;}.cls-10,.cls-13{fill:#f1f2f2;font-family:Helvetica-Bold, Helvetica;font-weight:700;}.cls-11{opacity:0.51;}.cls-12{fill-rule:evenodd;}.cls-13{font-size:2.53px;}</style></defs><title>LandingPages_</title><g id="Layer_1" data-name="Layer 1"><rect class="cls-1" x="0.14" y="0.03" width="100" height="116"/><path class="cls-1" d="M54.6,80.64a.2.2,0,0,0-.11-.18,2.73,2.73,0,0,0-.76-.29,4.41,4.41,0,0,0-.89-.1,3.07,3.07,0,0,0-1,.13.17.17,0,0,0-.1.06.18.18,0,0,0,0,.13.19.19,0,0,0,0,.13.18.18,0,0,0,.14.06l.1,0a2.78,2.78,0,0,1,.8-.1,3.57,3.57,0,0,1,.8.09,2,2,0,0,1,.66.25l.11,0a.21.21,0,0,0,.13,0A.18.18,0,0,0,54.6,80.64Zm-.28.65a.18.18,0,0,0-.1-.16,2.66,2.66,0,0,0-1.42-.37,3,3,0,0,0-.79.11.16.16,0,0,0-.13.17.16.16,0,0,0,0,.11.15.15,0,0,0,.11,0l.1,0a2.82,2.82,0,0,1,.65-.08,2.4,2.4,0,0,1,1.27.32l.1,0a.15.15,0,0,0,.11,0A.16.16,0,0,0,54.32,81.29Zm-.25.56a.17.17,0,0,0-.08-.14,2.26,2.26,0,0,0-1.17-.3,3.32,3.32,0,0,0-.74.09.12.12,0,0,0-.11.14.16.16,0,0,0,0,.09.15.15,0,0,0,.09,0l.1,0a3,3,0,0,1,.63-.08,2,2,0,0,1,1,.27l.08,0a.14.14,0,0,0,.09,0A.18.18,0,0,0,54.07,81.85Z"/><g class="cls-2"><rect class="cls-3" x="11.14" y="85.03" width="32.88" height="9.59"/></g><rect class="cls-3" x="11.14" y="93.93" width="32.88" height="12.33"/><rect class="cls-1" x="11.64" y="85.53" width="7.91" height="7.91"/><path class="cls-3" d="M19,86v6.9h-6.9V86H19m1-1h-8.9v8.9H20V85Z"/><path class="cls-3" d="M15.59,87.57a1.91,1.91,0,1,1-1.91,1.91,1.92,1.92,0,0,1,1.91-1.91m0-1a2.91,2.91,0,1,0,2.91,2.91,2.91,2.91,0,0,0-2.91-2.91Z"/><path class="cls-3" d="M16.32,89.48l-1.46,1V88.51Z"/><rect class="cls-1" x="23.79" y="91.25" width="12.33" height="0.69"/><rect class="cls-1" x="13.19" y="95.99" width="22.61" height="0.68"/><rect class="cls-1" x="38.54" y="95.99" width="3.43" height="0.68"/><rect class="cls-1" x="13.19" y="100.11" width="22.61" height="0.68"/><rect class="cls-1" x="38.54" y="100.11" width="3.43" height="0.68"/><rect class="cls-1" x="13.19" y="103.53" width="22.61" height="0.68"/><rect class="cls-1" x="38.54" y="103.53" width="3.43" height="0.68"/><path class="cls-1" d="M42.21,91.77a.41.41,0,0,1,.3.12.44.44,0,0,1-.3.75.44.44,0,0,1-.31-.13.42.42,0,0,1-.13-.31v0l-.49-.24A.4.4,0,0,1,41,92a.44.44,0,0,1-.31-.13.43.43,0,0,1,0-.62.43.43,0,0,1,.31-.12.44.44,0,0,1,.29.11l.49-.24v0a.42.42,0,0,1,.13-.31.43.43,0,0,1,.31-.12.41.41,0,0,1,.3.12.42.42,0,0,1,.13.31.4.4,0,0,1-.13.31.38.38,0,0,1-.3.13.41.41,0,0,1-.3-.12l-.49.25v.09l.49.24A.44.44,0,0,1,42.21,91.77Z"/><path class="cls-1" d="M21.65,91.53l1.45,1V90.56Z"/><rect class="cls-1" x="20.75" y="90.56" width="0.59" height="2.05"/><path class="cls-1" d="M38.25,91.53l-1.45,1V90.56Z"/><rect class="cls-1" x="38.56" y="90.56" width="0.59" height="2.05"/><polygon class="cls-3" points="100 25.03 0 25.03 0.16 0 100.16 0 100 25.03"/><g class="cls-4"><rect class="cls-3" x="7.14" y="29.03" width="84" height="25"/></g><line class="cls-5" x1="15.14" y1="49.03" x2="40.28" y2="49.03"/><line class="cls-5" x1="15.14" y1="44.36" x2="59.14" y2="44.36"/><line class="cls-5" x1="15.14" y1="40.03" x2="59.14" y2="40.03"/><path class="cls-1" d="M8.62,19.39l.05,0,1.19-.8a.17.17,0,0,1,.25,0,.2.2,0,0,1,0,.11c0,.31,0,2.25,0,2.76a.16.16,0,0,1-.18.18.21.21,0,0,1-.1,0l-1.17-.81-.06,0v.71a.64.64,0,0,1-.33.56.62.62,0,0,1-.33.08l-4.18,0a.62.62,0,0,1-.62-.5.57.57,0,0,1,0-.13c0-.94,0-1.88,0-2.82A.62.62,0,0,1,3.74,18h.14l4.09,0a.65.65,0,0,1,.54.26.7.7,0,0,1,.12.4c0,.21,0,.41,0,.62Zm-3.45.67c0,.19,0,.38,0,.57a.24.24,0,0,0,.36.21l1-.57a.23.23,0,0,0,0-.39l-1-.58a.23.23,0,0,0-.36.21Z"/><path class="cls-3" d="M5.17,20.06v-.55a.23.23,0,0,1,.36-.21l1,.58a.23.23,0,0,1,0,.39l-1,.57a.24.24,0,0,1-.36-.21C5.16,20.44,5.16,20.25,5.17,20.06Z"/><path class="cls-3" d="M86.14,34V48h-10V34h10m1-1h-12V49h12V33Z"/><line class="cls-6" x1="76.14" y1="34.03" x2="86.14" y2="48.03"/><line class="cls-6" x1="86.14" y1="34.03" x2="76.14" y2="48.03"/><line class="cls-5" x1="75.14" y1="51.03" x2="88.14" y2="51.03"/><line class="cls-5" y1="57.09" x2="100" y2="57.09"/><line class="cls-5" y1="81.03" x2="100" y2="81.03"/><g class="cls-7"><path class="cls-3" d="M0,57V81H100V57Zm75.33,7.12a1.08,1.08,0,0,1-.55.95l-1.39.79a1.09,1.09,0,0,1-1.09,0l-1.37-.82a1.1,1.1,0,0,1-.53-1V62.49a1.11,1.11,0,0,1,.56-.94l1.39-.79a1.07,1.07,0,0,1,1.08,0l1.38.82a1.12,1.12,0,0,1,.53,1Z"/></g><polygon class="cls-3" points="98.99 81.11 85.81 61.09 74.99 74.11 67.48 71.68 54.99 81.11 98.99 81.11"/><rect class="cls-3" x="11.14" y="67.03" width="17" height="3"/><line class="cls-6" x1="11.14" y1="73.03" x2="25.36" y2="73.03"/><g class="cls-8"><path class="cls-3" d="M55.78,85v24.1H91.14V85Zm16.48,9.73a1.11,1.11,0,0,1-.55,1l-1.4.8a1.08,1.08,0,0,1-1.1,0l-1.4-.8a1.11,1.11,0,0,1-.55-1V93.15a1.11,1.11,0,0,1,.55-1l1.4-.8a1.08,1.08,0,0,1,1.1,0l1.4.8a1.11,1.11,0,0,1,.55,1Z"/></g><polygon class="cls-3" points="91.14 109.11 80.55 93.02 71.85 103.49 65.82 101.53 55.78 109.11 91.14 109.11"/></g><g id="logo_dark_grey" data-name="logo dark grey"><rect class="cls-9" x="18.8" y="17.03" width="14.08" height="3" rx="1.41"/><rect class="cls-9" x="73.6" y="73.03" width="14.08" height="3" rx="1.41"/><rect class="cls-1" x="13.72" y="12.03" width="24.24" height="2"/><rect class="cls-3" x="14.9" y="35.03" width="24.24" height="2"/><text class="cls-10" transform="translate(8.84 9.03)">EVENT NAME</text><g class="cls-11"><path class="cls-12" d="M78.76,14.68c-.37-.79-.34-5.63,2-6.4a1.23,1.23,0,0,0-.56,1.52,4.12,4.12,0,0,1,3.2-2.41c1.33-.16-.73.06-.33,1.23,0-.49,3.29-2.49,6-1.09.73,5.3-3.11,5.6-3.11,5.6h0a3.57,3.57,0,0,0,1.31,0c-.5,2.21-3.49,2.33-3.49,2.33a5.54,5.54,0,0,0,1.93.14c-2.73,1.79-6.46-.27-6.46-.27s0,0-.09-.07l6.2-4.32a1.22,1.22,0,0,0,.57.24,1.38,1.38,0,1,0-1.12-1.6,1.35,1.35,0,0,0,.21,1L80.58,13.7l-.12-.18-1.7,1.16m7.57-5.77a.88.88,0,0,1,.72,1,.9.9,0,0,1-1,.73.9.9,0,1,1,.32-1.77Zm-7.17,6.32,0,0,0,0Zm-1.91-.36.47-.31L78,15l-.46.3-.31-.46Zm-.24.82-.3-.47.46-.3.31.47-.47.3Zm-.55.36-.3-.47.47-.31.3.47-.47.31Zm2.6-.77L76.9,16.7l-.38-.57,2.13-1.38.41.53Z"/></g><text class="cls-13" transform="translate(78.93 20.63)">LOGO</text></g><g id="Layer_23" data-name="Layer 23"><path class="cls-1" d="M70.11,96.52a1,1,0,0,1-.49-.13l-1.69-1a1,1,0,0,1-.48-.83v-2a1,1,0,0,1,.48-.83l1.69-1a1,1,0,0,1,1,0l1.69,1a1,1,0,0,1,.48.83v2a1,1,0,0,1-.48.83l-1.69,1A.94.94,0,0,1,70.11,96.52Z"/><path class="cls-9" d="M70.1,91.06a.6.6,0,0,1,.3.07l1.69,1a.61.61,0,0,1,.3.51v2a.61.61,0,0,1-.3.51l-1.69,1a.61.61,0,0,1-.3.08.6.6,0,0,1-.29-.08l-1.69-1a.58.58,0,0,1-.3-.51v-2a.58.58,0,0,1,.3-.51l1.69-1a.59.59,0,0,1,.29-.07m0-.75a1.28,1.28,0,0,0-.66.18l-1.7,1a1.35,1.35,0,0,0-.67,1.16v2a1.35,1.35,0,0,0,.67,1.16l1.7,1a1.32,1.32,0,0,0,1.33,0l1.7-1a1.35,1.35,0,0,0,.67-1.16v-2a1.35,1.35,0,0,0-.67-1.16l-1.7-1a1.29,1.29,0,0,0-.67-.18Z"/><path class="cls-1" d="M73.11,66.52a1,1,0,0,1-.49-.13l-1.69-1a1,1,0,0,1-.48-.83v-2a1,1,0,0,1,.48-.83l1.69-1a1,1,0,0,1,1,0l1.69,1a1,1,0,0,1,.48.83v2a1,1,0,0,1-.48.83l-1.69,1A.94.94,0,0,1,73.11,66.52Z"/><path class="cls-9" d="M73.1,61.06a.6.6,0,0,1,.3.07l1.69,1a.61.61,0,0,1,.3.51v2a.61.61,0,0,1-.3.51l-1.69,1a.61.61,0,0,1-.3.08.6.6,0,0,1-.29-.08l-1.69-1a.58.58,0,0,1-.3-.51v-2a.58.58,0,0,1,.3-.51l1.69-1a.59.59,0,0,1,.29-.07m0-.75a1.28,1.28,0,0,0-.66.18l-1.7,1a1.35,1.35,0,0,0-.67,1.16v2a1.35,1.35,0,0,0,.67,1.16l1.7,1a1.32,1.32,0,0,0,1.33,0l1.7-1a1.35,1.35,0,0,0,.67-1.16v-2a1.35,1.35,0,0,0-.67-1.16l-1.7-1a1.29,1.29,0,0,0-.67-.18Z"/></g></svg>