<?xml version="1.0" encoding="utf-8"?><svg xmlns="http://www.w3.org/2000/svg" viewBox="0 0 237 275"><defs><style>.cls-1{opacity:0.62;}.cls-2,.cls-6{fill:#81a0b4;}.cls-3{fill:#fff;}.cls-4{fill:#c9292c;}.cls-5{fill:#f1f2f2;}.cls-6{fill-rule:evenodd;}</style></defs><title>c9 blocks</title><g id="Layer_1" data-name="Layer 1"><g class="cls-1"><path class="cls-2" d="M-.38,108v40H237.38V108Z"/></g><rect class="cls-3" x="24" y="116.35" width="109" height="22.27"/><rect class="cls-2" y="-1.5" width="236.62" height="50.5"/><path class="cls-3" d="M169.32,10.48v4.9a3.34,3.34,0,0,0,1.68,2.9l4.24,2.45a3.32,3.32,0,0,0,3.34,0l4.25-2.45a3.36,3.36,0,0,0,1.67-2.9v-4.9a3.34,3.34,0,0,0-1.67-2.89l-4.25-2.45a3.32,3.32,0,0,0-3.34,0L171,7.59A3.33,3.33,0,0,0,169.32,10.48Z"/><path class="cls-4" d="M176.91,21.68a3.87,3.87,0,0,1-1.92-.52l-4.24-2.45a3.85,3.85,0,0,1-1.93-3.33v-4.9a3.86,3.86,0,0,1,1.93-3.33L175,4.7a3.87,3.87,0,0,1,3.84,0l4.25,2.45A3.87,3.87,0,0,1,185,10.48v4.9a3.86,3.86,0,0,1-1.92,3.33l-4.25,2.45A3.84,3.84,0,0,1,176.91,21.68Zm0-16.49a2.88,2.88,0,0,0-1.42.38L171.25,8a2.86,2.86,0,0,0-1.43,2.46v4.9a2.86,2.86,0,0,0,1.43,2.47l4.24,2.45a2.88,2.88,0,0,0,2.84,0l4.25-2.45A2.87,2.87,0,0,0,184,15.38v-4.9A2.87,2.87,0,0,0,182.58,8l-4.25-2.45A2.85,2.85,0,0,0,176.91,5.19Z"/><polygon class="cls-3" points="237.2 50 205.83 2.33 180.08 33.34 162.2 27.53 132.47 50 237.2 50"/><polygon class="cls-2" points="225.8 148 198.16 110 175.47 134.72 159.71 130.09 133.52 148 225.8 148"/><g class="cls-1"><path class="cls-2" d="M-.79,148.15v40H237v-40Z"/></g><rect class="cls-3" x="103.59" y="156.5" width="109" height="22.27" transform="translate(316.18 335.27) rotate(-180)"/><polygon class="cls-2" points="10.79 188.15 38.43 150.15 61.12 174.87 76.87 170.24 103.06 188.15 10.79 188.15"/></g><g id="logo_dark_grey" data-name="logo dark grey"><rect class="cls-3" x="17.12" y="26.7" width="57.71" height="4.76"/><path class="cls-5" d="M21.79,15.94a3.14,3.14,0,0,1-2.09.61H18v3H16.23V11.21h3.58a2.89,2.89,0,0,1,2,.64,2.53,2.53,0,0,1,.74,2A2.58,2.58,0,0,1,21.79,15.94Zm-1.33-3a1.43,1.43,0,0,0-.93-.27H18v2.45h1.57a1.33,1.33,0,0,0,.93-.3,1.22,1.22,0,0,0,.33-1A1.17,1.17,0,0,0,20.46,12.93Z"/><path class="cls-5" d="M25.46,11.21h2l3,8.35h-1.9l-.55-1.72H24.87l-.57,1.72H22.48Zm-.12,5.19h2.14l-1.05-3.28Z"/><path class="cls-5" d="M37.06,13.81a1.6,1.6,0,0,0-1-1.19,2.24,2.24,0,0,0-1-.19,2.06,2.06,0,0,0-1.66.76,3.48,3.48,0,0,0-.65,2.29,2.81,2.81,0,0,0,.7,2.17,2.3,2.3,0,0,0,1.6.64,2.12,2.12,0,0,0,1.44-.5,2.23,2.23,0,0,0,.69-1.32H35.33v-1.4h3.48v4.49H37.65l-.18-1a3.72,3.72,0,0,1-.9.84,3.22,3.22,0,0,1-1.7.42,3.52,3.52,0,0,1-2.72-1.15,4.36,4.36,0,0,1-1.1-3.16,4.66,4.66,0,0,1,1.11-3.25,4.3,4.3,0,0,1,5.51-.41,3,3,0,0,1,1.11,2Z"/><path class="cls-5" d="M46.64,12.68H42.23v1.78h4.05v1.45H42.23v2.14h4.62v1.51H40.52V11.21h6.12Z"/><path class="cls-5" d="M57.5,11.21v1.47H55v6.88H53.24V12.68H50.73V11.21Z"/><path class="cls-5" d="M60.11,19.56H58.38V11.21h1.73Z"/><path class="cls-5" d="M67.8,11.21v1.47H65.31v6.88H63.55V12.68H61V11.21Z"/><path class="cls-5" d="M68.82,11.21h1.75v6.84h4.17v1.51H68.82Z"/><path class="cls-5" d="M82.08,12.68H77.67v1.78h4v1.45h-4v2.14h4.62v1.51H76V11.21h6.12Z"/><rect class="cls-2" x="21" y="97.91" width="47" height="0.5"/><rect class="cls-2" x="21" y="101.92" width="47" height="0.5"/><g class="cls-1"><path class="cls-2" d="M21,52.91V85.38H68V52.91ZM42.9,66a1.48,1.48,0,0,1-.73,1.28l-1.86,1.09a1.42,1.42,0,0,1-1.46,0L37,67.3A1.47,1.47,0,0,1,36.25,66V63.84A1.47,1.47,0,0,1,37,62.56l1.86-1.09a1.46,1.46,0,0,1,1.46,0l1.86,1.09a1.48,1.48,0,0,1,.73,1.28Z"/></g><g class="cls-1"><polygon class="cls-2" points="68 85.35 53.92 63.68 42.36 77.78 34.34 75.14 21 85.35 68 85.35"/></g><path class="cls-3" d="M35.91,63.33v2.83a1.9,1.9,0,0,0,1,1.65l2.39,1.39a1.89,1.89,0,0,0,1.92,0l2.39-1.39a1.91,1.91,0,0,0,.94-1.65V63.33a1.91,1.91,0,0,0-.94-1.65l-2.39-1.39a1.89,1.89,0,0,0-1.92,0l-2.39,1.39A1.9,1.9,0,0,0,35.91,63.33Z"/><path class="cls-4" d="M40.21,60.53a1.38,1.38,0,0,1,.71.19l2.38,1.39a1.43,1.43,0,0,1,.7,1.22v2.83a1.42,1.42,0,0,1-.7,1.22l-2.38,1.39a1.39,1.39,0,0,1-.71.2,1.36,1.36,0,0,1-.71-.2l-2.39-1.39a1.42,1.42,0,0,1-.7-1.22V63.33a1.43,1.43,0,0,1,.7-1.22l2.39-1.39a1.35,1.35,0,0,1,.71-.19m0-.5a1.8,1.8,0,0,0-1,.26l-2.39,1.39a1.9,1.9,0,0,0-1,1.65v2.83a1.9,1.9,0,0,0,1,1.65l2.39,1.39a1.84,1.84,0,0,0,1,.27,1.86,1.86,0,0,0,1-.27l2.39-1.39a1.91,1.91,0,0,0,.94-1.65V63.33a1.91,1.91,0,0,0-.94-1.65l-2.39-1.39a1.85,1.85,0,0,0-1-.26Z"/><rect class="cls-2" x="21" y="89.39" width="38.08" height="4.76"/><rect class="cls-2" x="95" y="97.91" width="47" height="0.5"/><rect class="cls-2" x="95" y="101.92" width="47" height="0.5"/><g class="cls-1"><path class="cls-2" d="M95,52.91V85.38h47V52.91ZM116.9,66a1.48,1.48,0,0,1-.73,1.28l-1.86,1.09a1.42,1.42,0,0,1-1.46,0L111,67.3a1.47,1.47,0,0,1-.74-1.28V63.84a1.47,1.47,0,0,1,.74-1.28l1.86-1.09a1.46,1.46,0,0,1,1.46,0l1.86,1.09a1.48,1.48,0,0,1,.73,1.28Z"/></g><g class="cls-1"><polygon class="cls-2" points="142 85.35 127.92 63.68 116.36 77.78 108.34 75.14 95 85.35 142 85.35"/></g><path class="cls-3" d="M109.91,63.33v2.83a1.9,1.9,0,0,0,1,1.65l2.39,1.39a1.89,1.89,0,0,0,1.92,0l2.39-1.39a1.91,1.91,0,0,0,.94-1.65V63.33a1.91,1.91,0,0,0-.94-1.65l-2.39-1.39a1.89,1.89,0,0,0-1.92,0l-2.39,1.39A1.9,1.9,0,0,0,109.91,63.33Z"/><path class="cls-4" d="M114.21,60.53a1.38,1.38,0,0,1,.71.19l2.38,1.39a1.43,1.43,0,0,1,.7,1.22v2.83a1.42,1.42,0,0,1-.7,1.22l-2.38,1.39a1.39,1.39,0,0,1-.71.2,1.36,1.36,0,0,1-.71-.2l-2.39-1.39a1.42,1.42,0,0,1-.7-1.22V63.33a1.43,1.43,0,0,1,.7-1.22l2.39-1.39a1.35,1.35,0,0,1,.71-.19m0-.5a1.8,1.8,0,0,0-1,.26l-2.39,1.39a1.9,1.9,0,0,0-1,1.65v2.83a1.9,1.9,0,0,0,1,1.65l2.39,1.39a1.84,1.84,0,0,0,1,.27,1.86,1.86,0,0,0,1-.27l2.39-1.39a1.91,1.91,0,0,0,.94-1.65V63.33a1.91,1.91,0,0,0-.94-1.65l-2.39-1.39a1.85,1.85,0,0,0-1-.26Z"/><rect class="cls-2" x="95" y="89.39" width="38.08" height="4.76"/><rect class="cls-2" x="169" y="97.91" width="47" height="0.5"/><rect class="cls-2" x="169" y="101.92" width="47" height="0.5"/><g class="cls-1"><path class="cls-2" d="M169,52.91V85.38h47V52.91ZM190.9,66a1.48,1.48,0,0,1-.73,1.28l-1.86,1.09a1.42,1.42,0,0,1-1.46,0L185,67.3a1.47,1.47,0,0,1-.74-1.28V63.84a1.47,1.47,0,0,1,.74-1.28l1.86-1.09a1.46,1.46,0,0,1,1.46,0l1.86,1.09a1.48,1.48,0,0,1,.73,1.28Z"/></g><g class="cls-1"><polygon class="cls-2" points="216 85.35 201.92 63.68 190.36 77.78 182.34 75.14 169 85.35 216 85.35"/></g><path class="cls-3" d="M183.91,63.33v2.83a1.9,1.9,0,0,0,1,1.65l2.39,1.39a1.89,1.89,0,0,0,1.92,0l2.39-1.39a1.91,1.91,0,0,0,.94-1.65V63.33a1.91,1.91,0,0,0-.94-1.65l-2.39-1.39a1.89,1.89,0,0,0-1.92,0l-2.39,1.39A1.9,1.9,0,0,0,183.91,63.33Z"/><path class="cls-4" d="M188.21,60.53a1.38,1.38,0,0,1,.71.19l2.38,1.39a1.43,1.43,0,0,1,.7,1.22v2.83a1.42,1.42,0,0,1-.7,1.22l-2.38,1.39a1.39,1.39,0,0,1-.71.2,1.36,1.36,0,0,1-.71-.2l-2.39-1.39a1.42,1.42,0,0,1-.7-1.22V63.33a1.43,1.43,0,0,1,.7-1.22l2.39-1.39a1.35,1.35,0,0,1,.71-.19m0-.5a1.82,1.82,0,0,0-1,.26l-2.39,1.39a1.9,1.9,0,0,0-1,1.65v2.83a1.9,1.9,0,0,0,1,1.65l2.39,1.39a1.84,1.84,0,0,0,1,.27,1.86,1.86,0,0,0,1-.27l2.39-1.39a1.91,1.91,0,0,0,.94-1.65V63.33a1.91,1.91,0,0,0-.94-1.65l-2.39-1.39a1.85,1.85,0,0,0-1-.26Z"/><rect class="cls-2" x="169" y="89.39" width="38.08" height="4.76"/><rect class="cls-3" x="52.81" y="195.24" width="131.73" height="30.82"/><path class="cls-2" d="M184.79,226.31H52.56V195H184.79Zm-131.73-.5H184.29V195.5H53.06Z"/><rect class="cls-2" x="60.19" y="208.9" width="117.93" height="0.5"/><rect class="cls-2" x="60.19" y="213.66" width="117.93" height="0.5"/><path class="cls-2" d="M158.63,220.93h1.26v.61h-1.26Z"/><path class="cls-2" d="M164.68,221.55a1.11,1.11,0,0,1-.26.48l.39.36-.37.38-.4-.38a1.35,1.35,0,0,1-.32.16,1.73,1.73,0,0,1-.54.07,1.56,1.56,0,0,1-1.08-.39,1.77,1.77,0,0,1-.51-1.37,1.72,1.72,0,0,1,.53-1.39,1.69,1.69,0,0,1,2.16,0,1.71,1.71,0,0,1,.51,1.32A2,2,0,0,1,164.68,221.55Zm-1.26.45.15-.05-.34-.33.36-.37.34.32a1.06,1.06,0,0,0,.11-.29,1.37,1.37,0,0,0,.05-.43,1.35,1.35,0,0,0-.23-.86.76.76,0,0,0-.67-.31.82.82,0,0,0-.66.29,1.33,1.33,0,0,0-.25.89,1.24,1.24,0,0,0,.35,1,.84.84,0,0,0,.55.19A1,1,0,0,0,163.42,222Z"/><path class="cls-2" d="M165.32,219.19H166v2.05a1,1,0,0,0,.09.5.53.53,0,0,0,.55.29.55.55,0,0,0,.55-.29,1.2,1.2,0,0,0,.08-.5v-2.05H168v2.05a1.69,1.69,0,0,1-.17.83,1.2,1.2,0,0,1-1.17.55,1.23,1.23,0,0,1-1.18-.55,1.69,1.69,0,0,1-.17-.83Z"/><path class="cls-2" d="M171.25,222.23a1.44,1.44,0,0,1-1.09.39,1.48,1.48,0,0,1-1.1-.39,1.76,1.76,0,0,1-.5-1.37,1.74,1.74,0,0,1,.5-1.38,1.48,1.48,0,0,1,1.1-.39,1.44,1.44,0,0,1,1.09.39,1.75,1.75,0,0,1,.51,1.38A1.77,1.77,0,0,1,171.25,222.23Zm-.43-.5a1.41,1.41,0,0,0,.24-.87,1.37,1.37,0,0,0-.24-.87.78.78,0,0,0-.66-.31.8.8,0,0,0-.66.3,1.66,1.66,0,0,0,0,1.75.88.88,0,0,0,1.32,0Z"/><path class="cls-2" d="M174.72,219.19v.59h-1v2.75H173v-2.75h-1v-.59Z"/><path class="cls-2" d="M177.6,219.78h-1.77v.71h1.63v.58h-1.63v.86h1.86v.6h-2.54v-3.34h2.45Z"/><rect class="cls-4" x="179.76" y="126.27" width="33.48" height="7.13" rx="3.35"/><rect class="cls-2" x="29.05" y="133.03" width="33.82" height="1"/><rect class="cls-2" x="29.05" y="121.44" width="38.08" height="4.76"/><rect class="cls-2" x="61.19" y="199.44" width="38.08" height="4.76"/><rect class="cls-4" x="23.35" y="166.42" width="33.48" height="7.13" rx="3.35" transform="translate(80.18 339.98) rotate(180)"/><rect class="cls-2" x="173.72" y="173.18" width="33.82" height="1"/><rect class="cls-2" x="169.46" y="161.6" width="38.08" height="4.76"/></g><g id="Layer_4" data-name="Layer 4"><path class="cls-2" d="M216.41,240.52l-1.95,2a.17.17,0,0,1-.12.05.21.21,0,0,1-.12-.05l-.43-.44a.13.13,0,0,1,0-.12.16.16,0,0,1,0-.12l1.39-1.39-1.39-1.4a.16.16,0,0,1,0-.12.13.13,0,0,1,0-.12l.43-.44a.21.21,0,0,1,.12-.05.17.17,0,0,1,.12.05l1.95,2a.13.13,0,0,1,.05.12A.13.13,0,0,1,216.41,240.52Z"/><path class="cls-2" d="M23.22,239l-1.4,1.4,1.4,1.39a.19.19,0,0,1,0,.12.16.16,0,0,1,0,.12l-.44.44a.21.21,0,0,1-.12.05.17.17,0,0,1-.12-.05l-1.95-2a.13.13,0,0,1-.05-.11.13.13,0,0,1,.05-.12l1.95-2a.17.17,0,0,1,.12-.05.21.21,0,0,1,.12.05l.44.44a.16.16,0,0,1,0,.12A.19.19,0,0,1,23.22,239Z"/><path class="cls-6" d="M64.59,246.48c-.5-1.07-.46-7.7,2.77-8.77a1.69,1.69,0,0,0-.76,2.08A5.61,5.61,0,0,1,71,236.5c1.82-.22-1,.08-.45,1.68,0-.67,4.51-3.41,8.19-1.5,1,7.27-4.26,7.68-4.26,7.68h0a4.9,4.9,0,0,0,1.8,0c-.69,3-4.78,3.19-4.78,3.19a7.73,7.73,0,0,0,2.65.19c-3.75,2.46-8.86-.37-8.86-.37s-.06,0-.12-.1l8.49-5.91a1.9,1.9,0,0,0,3-1.2,1.9,1.9,0,0,0-3.74-.66,1.92,1.92,0,0,0,.3,1.39l-6.08,4.29-.17-.25-2.32,1.59M75,238.57a1.23,1.23,0,1,1-1.42,1,1.23,1.23,0,0,1,1.42-1Zm-9.81,8.66,0,0,0,0Zm-2.61-.49.64-.42.41.64-.64.42-.41-.64Zm-.33,1.13-.42-.64.64-.42.42.64-.64.42Zm-.75.48-.42-.64.64-.41.42.64-.64.41Zm3.55-1-3,1.95-.53-.78,2.92-1.9.56.73Z"/><path class="cls-6" d="M105.41,246.48c-.5-1.07-.47-7.7,2.77-8.77a1.69,1.69,0,0,0-.77,2.08,5.63,5.63,0,0,1,4.38-3.29c1.82-.22-1,.08-.45,1.68,0-.67,4.5-3.41,8.19-1.5,1,7.27-4.27,7.68-4.27,7.68h0a5,5,0,0,0,1.81,0c-.69,3-4.78,3.19-4.78,3.19a7.69,7.69,0,0,0,2.64.19c-3.74,2.46-8.85-.37-8.85-.37s-.07,0-.12-.1l8.49-5.91a1.89,1.89,0,1,0,1.44-3.4,1.9,1.9,0,0,0-2.2,1.54,1.88,1.88,0,0,0,.3,1.39l-6.09,4.29-.16-.25-2.32,1.59m10.35-7.91a1.23,1.23,0,1,1-1.43,1,1.23,1.23,0,0,1,1.43-1ZM106,247.23l0,0,0,0Zm-2.6-.49.64-.42.41.64-.64.42-.41-.64Zm-.34,1.13-.41-.64.64-.42.41.64-.64.42Zm-.74.48-.42-.64.64-.41.42.64-.64.41Zm3.55-1-2.95,1.95-.53-.78,2.92-1.9.56.73Z"/><path class="cls-6" d="M146.23,246.48c-.5-1.07-.47-7.7,2.77-8.77a1.69,1.69,0,0,0-.77,2.08,5.63,5.63,0,0,1,4.38-3.29c1.82-.22-1,.08-.45,1.68,0-.67,4.5-3.41,8.18-1.5,1,7.27-4.26,7.68-4.26,7.68h0a5,5,0,0,0,1.81,0c-.69,3-4.79,3.19-4.79,3.19a7.77,7.77,0,0,0,2.65.19c-3.75,2.46-8.86-.37-8.86-.37s-.06,0-.12-.1l8.49-5.91a1.94,1.94,0,0,0,.78.33,1.89,1.89,0,1,0-1.53-2.19,1.92,1.92,0,0,0,.29,1.39l-6.08,4.29-.17-.25-2.32,1.59m10.36-7.91a1.23,1.23,0,1,1-1.43,1,1.23,1.23,0,0,1,1.43-1Zm-9.82,8.66,0,0,0,0Zm-2.61-.49.64-.42.42.64-.64.42-.42-.64Zm-.33,1.13-.42-.64.64-.42.42.64-.64.42Zm-.75.48-.41-.64.64-.41.41.64-.64.41Zm3.55-1-2.95,1.95-.52-.78,2.92-1.9.55.73Z"/></g><g id="Layer_23" data-name="Layer 23"><path class="cls-3" d="M163.88,120.41v4.39a3,3,0,0,0,1.51,2.6l3.8,2.2a3,3,0,0,0,3,0l3.81-2.2a3,3,0,0,0,1.5-2.6v-4.39a3,3,0,0,0-1.5-2.6l-3.81-2.2a3,3,0,0,0-3,0l-3.8,2.2A3,3,0,0,0,163.88,120.41Z"/><path class="cls-4" d="M170.69,116a2.22,2.22,0,0,1,1.13.3l3.8,2.2a2.24,2.24,0,0,1,1.13,2v4.39a2.25,2.25,0,0,1-1.13,2l-3.8,2.2a2.26,2.26,0,0,1-2.25,0l-3.81-2.2a2.27,2.27,0,0,1-1.13-2v-4.39a2.26,2.26,0,0,1,1.13-2l3.81-2.2a2.21,2.21,0,0,1,1.12-.3m0-.75a3,3,0,0,0-1.5.4l-3.8,2.2a3,3,0,0,0-1.51,2.6v4.39a3,3,0,0,0,1.51,2.6l3.8,2.2a3,3,0,0,0,3,0l3.81-2.2a3,3,0,0,0,1.5-2.6v-4.39a3,3,0,0,0-1.5-2.6l-3.81-2.2a3,3,0,0,0-1.5-.4Z"/><polygon class="cls-2" points="238.26 275.96 -4.36 275.96 -3.98 257.04 238.26 257.04 238.26 275.96"/><rect class="cls-3" x="135.64" y="262.5" width="50" height="8"/><rect class="cls-3" x="20.8" y="266.25" width="25.21" height="0.5"/><path class="cls-3" d="M72.7,160.56V165a3,3,0,0,1-1.5,2.6l-3.8,2.2a3,3,0,0,1-3,0l-3.8-2.2a3,3,0,0,1-1.5-2.6v-4.39a3,3,0,0,1,1.5-2.6l3.8-2.2a3,3,0,0,1,3,0l3.8,2.2A3,3,0,0,1,72.7,160.56Z"/><path class="cls-4" d="M65.9,156.11a2.21,2.21,0,0,1,1.12.3l3.81,2.2A2.26,2.26,0,0,1,72,160.56V165a2.26,2.26,0,0,1-1.12,2L67,169.1a2.26,2.26,0,0,1-2.25,0L61,166.9a2.26,2.26,0,0,1-1.12-2v-4.39A2.26,2.26,0,0,1,61,158.61l3.81-2.2a2.22,2.22,0,0,1,1.13-.3m0-.75a3,3,0,0,0-1.51.4l-3.8,2.2a3,3,0,0,0-1.5,2.6V165a3,3,0,0,0,1.5,2.6l3.8,2.2a3,3,0,0,0,3,0l3.8-2.2a3,3,0,0,0,1.5-2.6v-4.39a3,3,0,0,0-1.5-2.6l-3.8-2.2a3,3,0,0,0-1.5-.4Z"/></g></svg>