<?xml version="1.0" encoding="utf-8"?><svg xmlns="http://www.w3.org/2000/svg" viewBox="0 0 237 275"><defs><style>.cls-1{fill:#81a0b4;}.cls-2{opacity:0.68;}.cls-3{fill:#fff;}.cls-4{fill:#f1f2f2;}.cls-5{fill:#c9292c;}.cls-6{opacity:0.44;}.cls-7{opacity:0.62;}</style></defs><title>c9 blocks</title><g id="Layer_1" data-name="Layer 1"><polygon class="cls-1" points="237.19 48 -0.57 48 -0.19 0.23 237.57 0.23 237.19 48"/><g class="cls-2"><path class="cls-1" d="M29.37,84V188.49H207.63V84Z"/></g><polygon class="cls-1" points="207.63 188.39 154.23 107.26 110.4 160.03 79.97 150.15 29.37 188.39 207.63 188.39"/></g><g id="logo_dark_grey" data-name="logo dark grey"><rect class="cls-3" x="34.69" y="29.86" width="57.63" height="4.76"/><path class="cls-4" d="M34.54,18.88a3.35,3.35,0,0,1-2.23.65H30.46v3.2H28.62V13.85h3.81a3.06,3.06,0,0,1,2.1.69,2.67,2.67,0,0,1,.79,2.12A2.74,2.74,0,0,1,34.54,18.88Zm-1.42-3.19a1.46,1.46,0,0,0-1-.3H30.46V18h1.67a1.37,1.37,0,0,0,1-.32,1.28,1.28,0,0,0,.35-1A1.18,1.18,0,0,0,33.12,15.69Z"/><path class="cls-4" d="M43.64,21.94a3.87,3.87,0,0,1-2.91,1,3.87,3.87,0,0,1-2.91-1,4.8,4.8,0,0,1-1.35-3.67,4.71,4.71,0,0,1,1.35-3.66,3.87,3.87,0,0,1,2.91-1,3.87,3.87,0,0,1,2.91,1A4.74,4.74,0,0,1,45,18.27,4.83,4.83,0,0,1,43.64,21.94Zm-1.16-1.35a3.68,3.68,0,0,0,.65-2.32A3.67,3.67,0,0,0,42.48,16a2.13,2.13,0,0,0-1.75-.81A2.16,2.16,0,0,0,39,16a3.59,3.59,0,0,0-.65,2.31A3.62,3.62,0,0,0,39,20.59a2.16,2.16,0,0,0,1.76.81A2.13,2.13,0,0,0,42.48,20.59Z"/><path class="cls-4" d="M52.09,14.08a2.19,2.19,0,0,1,.83.62,2.9,2.9,0,0,1,.44.74,2.54,2.54,0,0,1,.17.94,2.69,2.69,0,0,1-.32,1.24,1.79,1.79,0,0,1-1.06.87,1.66,1.66,0,0,1,.88.7,2.92,2.92,0,0,1,.25,1.39v.59a4.79,4.79,0,0,0,0,.83.73.73,0,0,0,.34.5v.23H51.62l-.12-.48a4.79,4.79,0,0,1-.07-.77l0-.82a1.62,1.62,0,0,0-.29-1.13,1.49,1.49,0,0,0-1.06-.29H48.25v3.49H46.44V13.85h4.25A3.87,3.87,0,0,1,52.09,14.08Zm-3.84,1.31v2.39h2a2,2,0,0,0,.89-.15,1,1,0,0,0,.53-1,1.11,1.11,0,0,0-.51-1.08,1.78,1.78,0,0,0-.86-.16Z"/><path class="cls-4" d="M61.75,13.85v1.57H59.1v7.31H57.23V15.42H54.56V13.85Z"/><path class="cls-4" d="M62.84,13.86h6.33v1.56H64.68v2h3.93V19H64.68v3.73H62.84Z"/><path class="cls-4" d="M77.21,21.94a4.63,4.63,0,0,1-5.82,0A4.8,4.8,0,0,1,70,18.27a4.71,4.71,0,0,1,1.35-3.66,4.63,4.63,0,0,1,5.82,0,4.74,4.74,0,0,1,1.34,3.66A4.83,4.83,0,0,1,77.21,21.94Zm-1.16-1.35a3.68,3.68,0,0,0,.65-2.32A3.67,3.67,0,0,0,76.05,16a2.31,2.31,0,0,0-3.51,0,3.59,3.59,0,0,0-.66,2.31,3.62,3.62,0,0,0,.66,2.32,2.31,2.31,0,0,0,3.51,0Z"/><path class="cls-4" d="M80,13.85h1.86v7.28h4.43v1.6H80Z"/><path class="cls-4" d="M89.19,22.73H87.35V13.85h1.84Z"/><path class="cls-4" d="M97.76,21.94a4.63,4.63,0,0,1-5.82,0,4.8,4.8,0,0,1-1.35-3.67,4.71,4.71,0,0,1,1.35-3.66,4.63,4.63,0,0,1,5.82,0,4.7,4.7,0,0,1,1.34,3.66A4.8,4.8,0,0,1,97.76,21.94ZM96.6,20.59a3.68,3.68,0,0,0,.65-2.32A3.67,3.67,0,0,0,96.6,16a2.11,2.11,0,0,0-1.75-.81,2.16,2.16,0,0,0-1.76.81,3.65,3.65,0,0,0-.65,2.31,3.68,3.68,0,0,0,.65,2.32,2.16,2.16,0,0,0,1.76.81A2.11,2.11,0,0,0,96.6,20.59Z"/><rect class="cls-1" x="29.37" y="72.86" width="177.95" height="4.76"/><rect class="cls-1" x="117.37" y="59.86" width="90.95" height="4.76"/><path class="cls-1" d="M31.16,59.78a3.61,3.61,0,0,1,2.73-1.1,3.67,3.67,0,0,1,3.24,1.47,3.2,3.2,0,0,1,.61,1.66H35.88a2.66,2.66,0,0,0-.45-1,2,2,0,0,0-3,.24,4,4,0,0,0-.57,2.31,3.48,3.48,0,0,0,.61,2.24,1.89,1.89,0,0,0,1.53.74,1.74,1.74,0,0,0,1.46-.64,3,3,0,0,0,.46-1h1.84a4,4,0,0,1-1.22,2.36A3.52,3.52,0,0,1,34,68a3.77,3.77,0,0,1-3-1.23,5.83,5.83,0,0,1,.15-7Z"/><path class="cls-1" d="M41.76,58.85h2.1L47,67.73H45L44.4,65.9H41.13l-.6,1.83H38.59Zm-.13,5.52h2.28l-1.12-3.49Z"/><path class="cls-1" d="M49.46,65a1.79,1.79,0,0,0,.34.9,2,2,0,0,0,1.58.55,3.61,3.61,0,0,0,1.09-.14,1,1,0,0,0,.79-1,.76.76,0,0,0-.39-.68,4.1,4.1,0,0,0-1.23-.42l-1-.21a5.93,5.93,0,0,1-2-.68,2.16,2.16,0,0,1-.89-1.92,2.54,2.54,0,0,1,.87-2,3.74,3.74,0,0,1,2.58-.79,4,4,0,0,1,2.42.74,2.68,2.68,0,0,1,1.06,2.16H53a1.28,1.28,0,0,0-.71-1.14,2.61,2.61,0,0,0-1.11-.22,2.11,2.11,0,0,0-1.17.29.92.92,0,0,0-.44.81.78.78,0,0,0,.43.71,5.69,5.69,0,0,0,1.18.37l1.56.36a4,4,0,0,1,1.54.65,2.15,2.15,0,0,1,.79,1.81,2.54,2.54,0,0,1-.94,2,4,4,0,0,1-2.66.8,4.31,4.31,0,0,1-2.75-.79,2.62,2.62,0,0,1-1-2.17Z"/><path class="cls-1" d="M62.92,60.42h-4.7v1.89h4.31v1.54H58.22v2.28h4.91v1.6H56.41V58.85h6.51Z"/><path class="cls-1" d="M69.34,65a1.79,1.79,0,0,0,.34.9,2,2,0,0,0,1.58.55,3.61,3.61,0,0,0,1.09-.14,1,1,0,0,0,.79-1,.76.76,0,0,0-.39-.68,4.1,4.1,0,0,0-1.23-.42l-1-.21a6,6,0,0,1-2-.68,2.16,2.16,0,0,1-.9-1.92,2.55,2.55,0,0,1,.88-2,3.74,3.74,0,0,1,2.58-.79,4,4,0,0,1,2.43.74,2.67,2.67,0,0,1,1.05,2.16H72.87a1.31,1.31,0,0,0-.72-1.14A2.61,2.61,0,0,0,71,60.13a2.11,2.11,0,0,0-1.17.29.92.92,0,0,0-.44.81.78.78,0,0,0,.43.71,5.69,5.69,0,0,0,1.18.37l1.56.36a4,4,0,0,1,1.54.65,2.15,2.15,0,0,1,.79,1.81,2.54,2.54,0,0,1-.94,2,4,4,0,0,1-2.66.8,4.34,4.34,0,0,1-2.76-.79,2.64,2.64,0,0,1-1-2.17Z"/><path class="cls-1" d="M82.68,58.85v1.57H80v7.31H78.16V60.42H75.49V58.85Z"/><path class="cls-1" d="M83.76,58.85h1.89V64.3a3,3,0,0,0,.22,1.34,1.81,1.81,0,0,0,2.92,0A3.18,3.18,0,0,0,89,64.3V58.85h1.89V64.3a4.63,4.63,0,0,1-.44,2.21,4.11,4.11,0,0,1-6.25,0,4.63,4.63,0,0,1-.44-2.21Z"/><path class="cls-1" d="M97.87,59a2.89,2.89,0,0,1,1.51,1.13A3.76,3.76,0,0,1,100,61.6a7,7,0,0,1,.17,1.47,6,6,0,0,1-.71,3,3.23,3.23,0,0,1-3,1.66H92.67V58.85H96.5A4.71,4.71,0,0,1,97.87,59Zm-3.4,1.35v5.79h1.72A1.85,1.85,0,0,0,98,64.89a4.53,4.53,0,0,0,.28-1.69,4.17,4.17,0,0,0-.42-2.08,1.79,1.79,0,0,0-1.69-.73Z"/><path class="cls-1" d="M106.64,58.85h2.11l-3,5.55v3.33h-1.86V64.4l-3.07-5.55H103l1.84,3.86Z"/><rect class="cls-3" x="123" y="35.15" width="47.86" height="0.5"/><rect class="cls-3" x="123" y="28.83" width="83.75" height="0.5"/><rect class="cls-3" x="123" y="22.51" width="83.75" height="0.5"/><rect class="cls-3" x="123" y="16.19" width="83.75" height="0.5"/><rect class="cls-1" x="29.37" y="52.94" width="34" height="1"/><rect class="cls-1" x="116.63" y="199.88" width="52" height="1"/><rect class="cls-1" x="116.63" y="193.56" width="91" height="1"/><rect class="cls-1" x="29.37" y="194.06" width="38.59" height="4.76"/></g><g id="Layer_23" data-name="Layer 23"><path class="cls-3" d="M85.92,110.44v9.87a6.74,6.74,0,0,0,3.37,5.83l8.55,4.94a6.76,6.76,0,0,0,6.74,0l8.55-4.94a6.72,6.72,0,0,0,3.37-5.83v-9.87a6.73,6.73,0,0,0-3.37-5.84l-8.55-4.94a6.76,6.76,0,0,0-6.74,0l-8.55,4.94A6.75,6.75,0,0,0,85.92,110.44Z"/><path class="cls-5" d="M101.21,99.51a6.07,6.07,0,0,1,3,.8l8.55,4.94a6,6,0,0,1,3,5.19v9.87a6,6,0,0,1-3,5.19l-8.55,4.93a6,6,0,0,1-6,0l-8.55-4.93a6,6,0,0,1-3-5.19v-9.87a6,6,0,0,1,3-5.19l8.55-4.94a6,6,0,0,1,3-.8m0-.75a6.76,6.76,0,0,0-3.37.9l-8.55,4.94a6.75,6.75,0,0,0-3.37,5.84v9.87a6.74,6.74,0,0,0,3.37,5.83l8.55,4.94a6.76,6.76,0,0,0,6.74,0l8.55-4.94a6.72,6.72,0,0,0,3.37-5.83v-9.87a6.73,6.73,0,0,0-3.37-5.84l-8.55-4.94a6.73,6.73,0,0,0-3.37-.9Z"/><g class="cls-6"><polygon class="cls-1" points="239.62 276 -1 276 -0.62 208.45 240 208.45 239.62 276"/></g><g class="cls-2"><g class="cls-7"><path class="cls-1" d="M29.68,217.89v47.48H67.47V217.89Z"/></g></g><polygon class="cls-1" points="67.47 265.33 55.66 236.78 46.22 258.04 39.13 250.96 29.68 265.33 67.47 265.33"/><g class="cls-2"><g class="cls-7"><path class="cls-1" d="M76.92,217.89v47.48H114.7V217.89Z"/></g></g><polygon class="cls-1" points="114.7 265.33 102.89 236.78 93.45 258.04 86.36 250.96 76.92 265.33 114.7 265.33"/><g class="cls-2"><g class="cls-7"><path class="cls-1" d="M124.15,217.89v47.48h37.78V217.89Z"/></g></g><polygon class="cls-1" points="161.93 265.33 150.12 236.78 140.68 258.04 133.59 250.96 124.15 265.33 161.93 265.33"/><g class="cls-2"><g class="cls-7"><path class="cls-1" d="M171.38,217.89v47.48h37.78V217.89Z"/></g></g><polygon class="cls-1" points="209.16 265.33 197.35 236.78 187.91 258.04 180.82 250.96 171.38 265.33 209.16 265.33"/><path class="cls-3" d="M39,229v3.1A2.1,2.1,0,0,0,40,233.9l2.68,1.55a2.11,2.11,0,0,0,2.12,0l2.68-1.55a2.12,2.12,0,0,0,1.06-1.83V229a2.12,2.12,0,0,0-1.06-1.83l-2.68-1.55a2.11,2.11,0,0,0-2.12,0L40,227.14A2.1,2.1,0,0,0,39,229Z"/><path class="cls-5" d="M43.78,225.81a1.66,1.66,0,0,1,.81.21l2.68,1.55a1.63,1.63,0,0,1,.81,1.4v3.1a1.62,1.62,0,0,1-.81,1.4L44.59,235a1.67,1.67,0,0,1-.81.22A1.61,1.61,0,0,1,43,235l-2.68-1.55a1.62,1.62,0,0,1-.81-1.4V229a1.63,1.63,0,0,1,.81-1.4L43,226a1.6,1.6,0,0,1,.81-.21m0-.5a2.1,2.1,0,0,0-1.06.28L40,227.14A2.1,2.1,0,0,0,39,229v3.1A2.1,2.1,0,0,0,40,233.9l2.68,1.55a2.11,2.11,0,0,0,1.06.29,2.14,2.14,0,0,0,1.06-.29l2.68-1.55a2.12,2.12,0,0,0,1.06-1.83V229a2.12,2.12,0,0,0-1.06-1.83l-2.68-1.55a2.13,2.13,0,0,0-1.06-.28Z"/><path class="cls-3" d="M86.21,229v3.1a2.1,2.1,0,0,0,1.06,1.83L90,235.45a2.11,2.11,0,0,0,2.12,0l2.68-1.55a2.12,2.12,0,0,0,1.06-1.83V229a2.12,2.12,0,0,0-1.06-1.83l-2.68-1.55a2.11,2.11,0,0,0-2.12,0l-2.68,1.55A2.1,2.1,0,0,0,86.21,229Z"/><path class="cls-5" d="M91,225.81a1.66,1.66,0,0,1,.81.21l2.68,1.55a1.63,1.63,0,0,1,.81,1.4v3.1a1.62,1.62,0,0,1-.81,1.4L91.82,235a1.67,1.67,0,0,1-.81.22,1.61,1.61,0,0,1-.81-.22l-2.68-1.55a1.62,1.62,0,0,1-.81-1.4V229a1.63,1.63,0,0,1,.81-1.4L90.2,226a1.6,1.6,0,0,1,.81-.21m0-.5a2.1,2.1,0,0,0-1.06.28l-2.68,1.55A2.1,2.1,0,0,0,86.21,229v3.1a2.1,2.1,0,0,0,1.06,1.83L90,235.45a2.11,2.11,0,0,0,1.06.29,2.14,2.14,0,0,0,1.06-.29l2.68-1.55a2.12,2.12,0,0,0,1.06-1.83V229a2.12,2.12,0,0,0-1.06-1.83l-2.68-1.55a2.13,2.13,0,0,0-1.06-.28Z"/><path class="cls-3" d="M133.44,229v3.1a2.1,2.1,0,0,0,1.06,1.83l2.68,1.55a2.11,2.11,0,0,0,2.12,0L142,233.9a2.12,2.12,0,0,0,1.06-1.83V229a2.12,2.12,0,0,0-1.06-1.83l-2.68-1.55a2.11,2.11,0,0,0-2.12,0l-2.68,1.55A2.1,2.1,0,0,0,133.44,229Z"/><path class="cls-5" d="M138.24,225.81a1.66,1.66,0,0,1,.81.21l2.68,1.55a1.63,1.63,0,0,1,.81,1.4v3.1a1.62,1.62,0,0,1-.81,1.4L139.05,235a1.67,1.67,0,0,1-.81.22,1.64,1.64,0,0,1-.81-.22l-2.68-1.55a1.62,1.62,0,0,1-.81-1.4V229a1.63,1.63,0,0,1,.81-1.4l2.68-1.55a1.63,1.63,0,0,1,.81-.21m0-.5a2.1,2.1,0,0,0-1.06.28l-2.68,1.55a2.1,2.1,0,0,0-1.06,1.83v3.1a2.1,2.1,0,0,0,1.06,1.83l2.68,1.55a2.11,2.11,0,0,0,1.06.29,2.14,2.14,0,0,0,1.06-.29L142,233.9a2.12,2.12,0,0,0,1.06-1.83V229a2.12,2.12,0,0,0-1.06-1.83l-2.68-1.55a2.13,2.13,0,0,0-1.06-.28Z"/><path class="cls-3" d="M180.67,229v3.1a2.1,2.1,0,0,0,1.06,1.83l2.68,1.55a2.11,2.11,0,0,0,2.12,0l2.68-1.55a2.12,2.12,0,0,0,1.06-1.83V229a2.12,2.12,0,0,0-1.06-1.83l-2.68-1.55a2.11,2.11,0,0,0-2.12,0l-2.68,1.55A2.1,2.1,0,0,0,180.67,229Z"/><path class="cls-5" d="M185.47,225.81a1.66,1.66,0,0,1,.81.21l2.68,1.55a1.63,1.63,0,0,1,.81,1.4v3.1a1.62,1.62,0,0,1-.81,1.4L186.28,235a1.6,1.6,0,0,1-1.62,0L182,233.47a1.62,1.62,0,0,1-.81-1.4V229a1.63,1.63,0,0,1,.81-1.4l2.68-1.55a1.66,1.66,0,0,1,.81-.21m0-.5a2.1,2.1,0,0,0-1.06.28l-2.68,1.55a2.1,2.1,0,0,0-1.06,1.83v3.1a2.1,2.1,0,0,0,1.06,1.83l2.68,1.55a2.11,2.11,0,0,0,1.06.29,2.14,2.14,0,0,0,1.06-.29l2.68-1.55a2.12,2.12,0,0,0,1.06-1.83V229a2.12,2.12,0,0,0-1.06-1.83l-2.68-1.55a2.13,2.13,0,0,0-1.06-.28Z"/></g></svg>