<?xml version="1.0" encoding="utf-8"?><svg xmlns="http://www.w3.org/2000/svg" viewBox="0 0 100 115.97"><defs><style>.cls-1,.cls-10,.cls-16,.cls-17,.cls-8{fill:#81a0b4;}.cls-2,.cls-3,.cls-6{fill:#fff;}.cls-2{stroke:#c9292c;}.cls-2,.cls-3,.cls-4,.cls-7{stroke-miterlimit:10;}.cls-3,.cls-4,.cls-7{stroke:#81a0b4;}.cls-3,.cls-4{stroke-width:0.5px;}.cls-4,.cls-7{fill:none;}.cls-5{opacity:0.44;}.cls-7{stroke-width:0.25px;}.cls-8{font-size:3px;}.cls-10,.cls-13,.cls-16,.cls-8{font-family:Helvetica-Bold, Helvetica;font-weight:700;}.cls-9{fill:#c9292c;}.cls-10{font-size:1.95px;}.cls-11{letter-spacing:-0.02em;}.cls-12,.cls-13{fill:#f1f2f2;}.cls-13{font-size:4.87px;}.cls-14{letter-spacing:-0.02em;}.cls-15{letter-spacing:0em;}.cls-16{font-size:3.88px;}.cls-17{fill-rule:evenodd;}</style></defs><title>LandingPages_</title><g id="Layer_1" data-name="Layer 1"><path class="cls-1" d="M93.06,57.24l-.82.82a.06.06,0,0,1,0,0s0,0,0,0L92,57.88s0,0,0-.05a.08.08,0,0,1,0,0l.59-.59L92,56.6a.08.08,0,0,1,0-.05s0,0,0,0l.19-.18,0,0,0,0,.82.82s0,0,0,0A.08.08,0,0,1,93.06,57.24Z"/><rect class="cls-1" width="100" height="25.03"/><path class="cls-2" d="M69,7.82v2.4a1.63,1.63,0,0,0,.82,1.42l2.08,1.2a1.61,1.61,0,0,0,1.64,0l2.09-1.2a1.65,1.65,0,0,0,.82-1.42V7.82a1.65,1.65,0,0,0-.82-1.42L73.5,5.2a1.61,1.61,0,0,0-1.64,0L69.78,6.4A1.63,1.63,0,0,0,69,7.82Z"/><polygon class="cls-3" points="100 24.67 86.82 4.64 76 17.67 68.49 15.23 56 24.67 100 24.67"/><rect class="cls-3" x="10.54" y="11.03" width="78.93" height="9.59"/><line class="cls-4" x1="39.92" y1="32.03" x2="59.92" y2="32.03"/><line class="cls-4" x1="10.92" y1="32.03" x2="30.92" y2="32.03"/><g class="cls-5"><rect class="cls-1" x="0.09" y="35.03" width="99.77" height="25"/></g><polygon class="cls-1" points="1.92 52.03 1.92 58.27 8.16 58.27 8.16 56.56 3.62 56.56 3.62 52.03 1.92 52.03"/><path class="cls-1" d="M7.75,52.63a.28.28,0,0,0-.4,0L6,53.94l-.68-.68-.65,2.4L7.12,55l-.68-.68L7.75,53A.28.28,0,0,0,7.75,52.63Z"/><polygon class="cls-1" points="1.92 43.03 1.92 36.79 8.16 36.79 8.16 38.49 3.62 38.49 3.62 43.03 1.92 43.03"/><path class="cls-1" d="M7.75,42.43a.28.28,0,0,1-.4,0L6,41.12l-.68.68-.65-2.41L7.12,40l-.68.68L7.75,42A.28.28,0,0,1,7.75,42.43Z"/><polygon class="cls-1" points="97.92 43.03 97.92 36.79 91.69 36.79 91.69 38.49 96.22 38.49 96.22 43.03 97.92 43.03"/><path class="cls-1" d="M92.09,42.43a.3.3,0,0,0,.41,0l1.31-1.31.68.68.64-2.41-2.4.65.68.68L92.09,42A.28.28,0,0,0,92.09,42.43Z"/><polygon class="cls-1" points="97.92 52.03 97.92 58.27 91.69 58.27 91.69 56.56 96.22 56.56 96.22 52.03 97.92 52.03"/><path class="cls-1" d="M92.09,52.63a.3.3,0,0,1,.41,0l1.31,1.31.68-.68.64,2.4L92.73,55l.68-.68L92.09,53A.28.28,0,0,1,92.09,52.63Z"/><path class="cls-1" d="M77.57,45.75l.1-.06,2.63-1.76a.39.39,0,0,1,.56.09.5.5,0,0,1,.06.24c0,.68,0,5,0,6.12a.36.36,0,0,1-.39.39.55.55,0,0,1-.22-.1l-2.59-1.78-.13-.09v.11c0,.48,0,1,0,1.45a1.4,1.4,0,0,1-.72,1.24,1.41,1.41,0,0,1-.73.18l-9.26-.07a1.37,1.37,0,0,1-1.37-1.1,1.53,1.53,0,0,1,0-.3c0-2.07,0-4.15,0-6.22a1.38,1.38,0,0,1,1.29-1.35h.3l9.06.06a1.41,1.41,0,0,1,1.19.59,1.43,1.43,0,0,1,.27.87c0,.46,0,.92,0,1.38Zm-7.65,1.48c0,.42,0,.84,0,1.26a.52.52,0,0,0,.79.46l2.14-1.25a.49.49,0,0,0,0-.87l-2.11-1.28a.51.51,0,0,0-.8.45C69.93,46.41,69.92,46.82,69.92,47.23Z"/><path class="cls-6" d="M69.92,47.23c0-.41,0-.82,0-1.23a.51.51,0,0,1,.8-.45l2.11,1.28a.49.49,0,0,1,0,.87L70.7,49a.52.52,0,0,1-.79-.46C69.91,48.07,69.92,47.65,69.92,47.23Z"/><rect class="cls-1" x="7.92" y="63.03" width="15" height="2"/><rect class="cls-1" x="12.92" y="71.03" width="28" height="1"/><path class="cls-1" d="M90.44,71.3l-1.11,1.1a.09.09,0,0,1-.06,0,.09.09,0,0,1-.07,0L89,72.15a.09.09,0,0,1,0-.06A.09.09,0,0,1,89,72l.79-.79L89,70.44a.09.09,0,0,1,0-.07.11.11,0,0,1,0-.07l.25-.24a.09.09,0,0,1,.07,0,.09.09,0,0,1,.06,0l1.11,1.1a.09.09,0,0,1,0,.07A.11.11,0,0,1,90.44,71.3Z"/><line class="cls-7" x1="7.92" y1="68.03" x2="91.92" y2="68.03"/><line class="cls-7" x1="7.92" y1="75.03" x2="91.92" y2="75.03"/><rect class="cls-1" x="12.92" y="78" width="28" height="1" transform="translate(-0.21 0.07) rotate(-0.15)"/><path class="cls-1" d="M90.44,78.3l-1.11,1.1a.09.09,0,0,1-.06,0,.09.09,0,0,1-.07,0L89,79.15a.09.09,0,0,1,0-.06A.09.09,0,0,1,89,79l.79-.79L89,77.44a.09.09,0,0,1,0-.07.11.11,0,0,1,0-.07l.25-.24a.09.09,0,0,1,.07,0,.09.09,0,0,1,.06,0l1.11,1.1a.09.09,0,0,1,0,.07A.11.11,0,0,1,90.44,78.3Z"/><line class="cls-7" x1="7.92" y1="75.03" x2="91.92" y2="75.03"/><line class="cls-7" x1="7.92" y1="82.03" x2="91.92" y2="82.03"/><line class="cls-7" x1="7.92" y1="82.03" x2="91.92" y2="82.03"/><rect class="cls-1" x="12.92" y="85.03" width="28" height="1"/><path class="cls-1" d="M90.06,85.54,89,84.44a.09.09,0,0,1,0-.07.11.11,0,0,1,0-.07l.25-.24a.09.09,0,0,1,.07,0,.09.09,0,0,1,.06,0l.79.79.79-.79a.1.1,0,0,1,.14,0l.24.24a.11.11,0,0,1,0,.07.09.09,0,0,1,0,.07l-1.1,1.1a.09.09,0,0,1-.07,0A.07.07,0,0,1,90.06,85.54Z"/><line class="cls-7" x1="7.92" y1="82.03" x2="91.92" y2="82.03"/><line class="cls-4" x1="12.92" y1="94.03" x2="51.92" y2="94.03"/><line class="cls-4" x1="12.92" y1="92.03" x2="75.92" y2="92.03"/><line class="cls-4" x1="12.92" y1="90.03" x2="86.92" y2="90.03"/><line class="cls-4" x1="12.92" y1="88.03" x2="86.92" y2="88.03"/><text class="cls-8" transform="translate(8.92 72.03)">1.</text><text class="cls-8" transform="translate(8.92 79.03)">2.</text><text class="cls-8" transform="translate(8.92 86.03)">3.</text><path class="cls-1" d="M91.9,107.36l-.82.82s0,0,0,0a.06.06,0,0,1,0,0L90.8,108a.06.06,0,0,1,0,0s0,0,0,0l.58-.59-.58-.59s0,0,0,0a.06.06,0,0,1,0,0l.18-.18,0,0,0,0,.82.82a.06.06,0,0,1,0,0S91.92,107.35,91.9,107.36Z"/><path class="cls-1" d="M9.05,106.72l-.59.59.59.59a.08.08,0,0,1,0,0s0,0,0,0l-.19.18s0,0,0,0a.06.06,0,0,1-.05,0l-.82-.82a.08.08,0,0,1,0,0s0,0,0,0l.82-.82.05,0,0,0,.19.18a.17.17,0,0,1,0,0A.08.08,0,0,1,9.05,106.72Z"/></g><g id="logo_dark_grey" data-name="logo dark grey"><line class="cls-4" x1="17.45" y1="47.19" x2="39.41" y2="47.19"/><rect class="cls-1" x="17.41" y="41.19" width="18.63" height="3.29"/><rect class="cls-9" x="17.41" y="50.19" width="14.66" height="3.12" rx="1.47"/><line class="cls-4" x1="13.92" y1="16.03" x2="33.92" y2="16.03"/><line class="cls-4" x1="13.92" y1="18.03" x2="33.92" y2="18.03"/><text class="cls-10" transform="translate(13.92 14.09)">STE<tspan class="cls-11" x="3.8" y="0">P</tspan><tspan x="5.06" y="0" xml:space="preserve"> 1</tspan><tspan class="cls-12" x="6.69" y="0"> </tspan></text><line class="cls-4" x1="40.04" y1="16.03" x2="60.04" y2="16.03"/><line class="cls-4" x1="40.04" y1="18.03" x2="60.04" y2="18.03"/><text class="cls-10" transform="translate(39.81 14.03)">STE<tspan class="cls-11" x="3.8" y="0">P</tspan><tspan x="5.06" y="0" xml:space="preserve"> 2</tspan></text><line class="cls-4" x1="65.92" y1="16.03" x2="85.92" y2="16.03"/><line class="cls-4" x1="65.92" y1="18.03" x2="85.92" y2="18.03"/><text class="cls-10" transform="translate(65.92 14.03)">STE<tspan class="cls-11" x="3.8" y="0">P</tspan><tspan x="5.06" y="0" xml:space="preserve"> 3</tspan><tspan class="cls-12" x="6.69" y="0"> </tspan></text><text class="cls-13" transform="translate(10.54 9.03)">SE<tspan class="cls-14" x="6.5" y="0">R</tspan><tspan class="cls-15" x="9.93" y="0">VICES</tspan></text><text class="cls-16" transform="translate(35.92 101.03)">OUR BRANDS</text><rect class="cls-1" x="10.92" y="28.03" width="16.21" height="2"/><rect class="cls-1" x="39.92" y="28.03" width="16.21" height="2"/></g><g id="Layer_4" data-name="Layer 4"><path class="cls-17" d="M24,109.47c-.28-.6-.26-4.33,1.56-4.92a1,1,0,0,0-.43,1.17,3.14,3.14,0,0,1,2.46-1.85c1-.13-.56,0-.25.94,0-.38,2.53-1.92,4.59-.84.57,4.08-2.39,4.31-2.39,4.31h0a2.86,2.86,0,0,0,1,0c-.39,1.69-2.69,1.79-2.69,1.79a4.34,4.34,0,0,0,1.48.11c-2.1,1.38-5-.21-5-.21l-.07-.06,4.77-3.32a1,1,0,0,0,.44.19,1,1,0,1,0-.7-.45l-3.41,2.41-.1-.14-1.3.89M29.82,105a.7.7,0,0,1,.56.8.7.7,0,0,1-1.37-.24.7.7,0,0,1,.81-.56ZM24.3,109.9l0,0,0,0Zm-1.46-.28.36-.24.23.36-.36.24-.23-.36Zm-.19.63-.23-.36.36-.23L23,110l-.36.23Zm-.42.27-.23-.36.36-.23.23.36-.36.23Zm2-.59L22.57,111l-.3-.44,1.64-1.07.31.41Z"/><path class="cls-17" d="M46.92,109.47c-.28-.6-.26-4.33,1.56-4.92a.94.94,0,0,0-.43,1.17,3.11,3.11,0,0,1,2.46-1.85c1-.13-.56,0-.26.94,0-.38,2.53-1.92,4.6-.84.56,4.08-2.39,4.31-2.39,4.31h0a2.81,2.81,0,0,0,1,0c-.39,1.69-2.68,1.79-2.68,1.79a4.34,4.34,0,0,0,1.48.11c-2.1,1.38-5-.21-5-.21a.15.15,0,0,1-.07-.06L52,106.57a.93.93,0,0,0,.44.19,1.06,1.06,0,0,0,1.23-.86,1.07,1.07,0,1,0-2.1-.37,1.06,1.06,0,0,0,.17.78l-3.42,2.41-.09-.14-1.3.89M52.74,105a.69.69,0,0,1,.56.8.68.68,0,0,1-.8.56.69.69,0,0,1-.56-.8.7.7,0,0,1,.8-.56Zm-5.51,4.87,0,0,0,0Zm-1.47-.28.36-.24.24.36L46,110l-.24-.36Zm-.18.63-.24-.36.36-.23.24.36-.36.23Zm-.42.27-.24-.36.36-.23.24.36-.36.23Zm2-.59L45.49,111l-.29-.44,1.64-1.07.31.41Z"/><path class="cls-17" d="M69.85,109.47c-.28-.6-.26-4.33,1.56-4.92a1,1,0,0,0-.44,1.17,3.14,3.14,0,0,1,2.46-1.85c1-.13-.56,0-.25.94,0-.38,2.53-1.92,4.6-.84.56,4.08-2.39,4.31-2.39,4.31h0a2.81,2.81,0,0,0,1,0c-.39,1.69-2.69,1.79-2.69,1.79a4.41,4.41,0,0,0,1.49.11c-2.11,1.38-5-.21-5-.21s0,0-.06-.06l4.76-3.32a1,1,0,0,0,.44.19,1.07,1.07,0,0,0,1.24-.86,1.07,1.07,0,1,0-2.1-.37,1.06,1.06,0,0,0,.17.78l-3.42,2.41-.09-.14-1.31.89M75.67,105a.69.69,0,0,1-.24,1.36.68.68,0,0,1-.56-.8.69.69,0,0,1,.8-.56Zm-5.51,4.87,0,0,0,0Zm-1.47-.28.36-.24.23.36-.36.24-.23-.36Zm-.19.63-.23-.36.36-.23.23.36-.36.23Zm-.42.27-.23-.36.36-.23.23.36-.36.23Zm2-.59L68.42,111l-.3-.44,1.65-1.07.31.41Z"/></g></svg>