<svg width="208px" height="154px" viewBox="0 0 208 154" version="1.1" 
    xmlns="http://www.w3.org/2000/svg" 
    xmlns:xlink="http://www.w3.org/1999/xlink">
    <title>feather gradient logo</title>
    <defs>
        <linearGradient x1="33.6869195%" y1="30.0594433%" x2="70.8481219%" y2="72.2510539%" id="linearGradient-1">
            <stop stop-color="#61CAE5" offset="0%"></stop>
            <stop stop-color="#64C6E1" offset="12%"></stop>
            <stop stop-color="#6DBAD3" offset="25%"></stop>
            <stop stop-color="#7BA7BD" offset="39%"></stop>
            <stop stop-color="#8F8B9F" offset="54%"></stop>
            <stop stop-color="#A96877" offset="68%"></stop>
            <stop stop-color="#C93D48" offset="83%"></stop>
            <stop stop-color="#DF1F26" offset="92%"></stop>
        </linearGradient>
    </defs>
    <g id="Homepage" stroke="none" stroke-width="1" fill="none" fill-rule="evenodd">
        <g id="Transition-2-Desktop-Slide-1" transform="translate(-796.000000, -435.000000)" fill="url(#linearGradient-1)">
            <path d="M837.768236,557.050152 C831.901814,544.530425 832.317684,467.175134 870.099921,454.788031 C870.099921,454.788031 856.261181,461.233568 861.145442,479.058264 C867.516217,466.962935 879.134034,446.149773 912.262065,440.632605 C933.497983,438.077378 900.626552,441.605183 906.953086,460.278674 C907.165445,452.427319 959.52083,420.491405 1002.51471,442.763434 C1014.22986,527.545682 952.796123,532.293629 952.796123,532.293629 L952.796123,532.293629 C952.796123,532.293629 966.02433,534.397934 973.881619,531.851549 C965.811971,567.076543 918.022308,569.110115 918.022308,569.110115 C918.022308,569.110115 936.170169,573.62818 948.920568,571.293994 C905.165729,599.940827 845.519346,566.996969 845.519346,566.996969 C845.280442,567.067702 844.784937,566.616779 844.121315,565.838717 L943.222263,496.874119 C952.501579,503.6857 965.452424,502.27787 973.048864,493.6318 C980.645305,484.985729 980.365852,471.971311 972.405268,463.658784 C964.444684,455.346258 951.445327,454.494802 942.46694,461.69783 C933.488553,468.900857 931.511335,481.767464 937.913284,491.330426 L866.87914,541.435859 L864.905969,538.562334 L837.839022,557.129726 L837.768236,557.050152 Z M959.032262,464.22436 C966.915012,465.622769 972.172149,473.146199 970.775127,481.029445 C969.378105,488.912691 961.855815,494.171279 953.972589,492.775553 C946.089363,491.379826 940.829667,483.858184 942.224008,475.974464 C942.891689,472.185721 945.038687,468.818065 948.191689,466.613904 C951.344691,464.409743 955.244813,463.550055 959.032262,464.22436 L959.032262,464.22436 Z M843.675,565.775 L843.285,565.225 L843.715,565.745 L843.715,565.745 L843.675,565.775 Z M814,559.734577 L821.268817,555 L826,562.265423 L818.739785,567 L814,559.734577 Z M809.731183,573 L805,565.734577 L812.268817,561 L817,568.265423 L809.731183,573 Z M800.731183,578 L796,570.731183 L803.268817,566 L808,573.260215 L800.731183,578 Z M843,566.436209 L808.208061,589 L802,579.93239 L836.425708,558 L842.973203,566.436209 L843,566.436209 Z" id="feather-gradient-logo"></path>
        </g>
    </g>
</svg>