<?xml version="1.0" encoding="UTF-8"?>
<svg width="1638px" height="1366px" viewBox="0 0 1638 1366" version="1.1" xmlns="http://www.w3.org/2000/svg" xmlns:xlink="http://www.w3.org/1999/xlink">
    <!-- Generator: Sketch 54.1 (76490) - https://sketchapp.com -->
    <title>Section Templates</title>
    <desc>Created with Sketch.</desc>
    <defs>
        <linearGradient x1="50%" y1="100%" x2="50%" y2="0%" id="linearGradient-1">
            <stop stop-color="#E10019" offset="0%"></stop>
            <stop stop-color="#00EAFF" offset="100%"></stop>
        </linearGradient>
        <linearGradient x1="50%" y1="100%" x2="50%" y2="0%" id="linearGradient-2">
            <stop stop-color="#E10019" offset="0%"></stop>
            <stop stop-color="#00EAFF" offset="100%"></stop>
        </linearGradient>
        <linearGradient x1="50%" y1="100%" x2="50%" y2="0%" id="linearGradient-3">
            <stop stop-color="#E10019" offset="0%"></stop>
            <stop stop-color="#00EAFF" offset="100%"></stop>
        </linearGradient>
        <linearGradient x1="50%" y1="100%" x2="50%" y2="0%" id="linearGradient-4">
            <stop stop-color="#E10019" offset="0%"></stop>
            <stop stop-color="#00EAFF" offset="100%"></stop>
        </linearGradient>
        <linearGradient x1="50%" y1="100%" x2="50%" y2="0%" id="linearGradient-5">
            <stop stop-color="#E10019" offset="0%"></stop>
            <stop stop-color="#00EAFF" offset="100%"></stop>
        </linearGradient>
        <linearGradient x1="50%" y1="100%" x2="50%" y2="0%" id="linearGradient-6">
            <stop stop-color="#E10019" offset="0%"></stop>
            <stop stop-color="#00EAFF" offset="100%"></stop>
        </linearGradient>
        <linearGradient x1="50%" y1="100%" x2="50%" y2="0%" id="linearGradient-7">
            <stop stop-color="#E10019" offset="0%"></stop>
            <stop stop-color="#00EAFF" offset="100%"></stop>
        </linearGradient>
        <linearGradient x1="50%" y1="100%" x2="50%" y2="0%" id="linearGradient-8">
            <stop stop-color="#E10019" offset="0%"></stop>
            <stop stop-color="#00EAFF" offset="100%"></stop>
        </linearGradient>
        <linearGradient x1="50%" y1="100%" x2="50%" y2="0%" id="linearGradient-9">
            <stop stop-color="#E10019" offset="0%"></stop>
            <stop stop-color="#00EAFF" offset="100%"></stop>
        </linearGradient>
        <linearGradient x1="50%" y1="100%" x2="50%" y2="0%" id="linearGradient-10">
            <stop stop-color="#E10019" offset="0%"></stop>
            <stop stop-color="#00EAFF" offset="100%"></stop>
        </linearGradient>
        <linearGradient x1="50%" y1="100%" x2="50%" y2="0%" id="linearGradient-11">
            <stop stop-color="#E10019" offset="0%"></stop>
            <stop stop-color="#00EAFF" offset="100%"></stop>
        </linearGradient>
        <linearGradient x1="50%" y1="100%" x2="50%" y2="0%" id="linearGradient-12">
            <stop stop-color="#E10019" offset="0%"></stop>
            <stop stop-color="#00EAFF" offset="100%"></stop>
        </linearGradient>
        <linearGradient x1="50%" y1="100%" x2="50%" y2="0%" id="linearGradient-13">
            <stop stop-color="#E10019" offset="0%"></stop>
            <stop stop-color="#00EAFF" offset="100%"></stop>
        </linearGradient>
        <linearGradient x1="50%" y1="100%" x2="50%" y2="0%" id="linearGradient-14">
            <stop stop-color="#E10019" offset="0%"></stop>
            <stop stop-color="#00EAFF" offset="100%"></stop>
        </linearGradient>
        <linearGradient x1="50%" y1="100%" x2="50%" y2="0%" id="linearGradient-15">
            <stop stop-color="#E10019" offset="0%"></stop>
            <stop stop-color="#00EAFF" offset="100%"></stop>
        </linearGradient>
    </defs>
    <g id="Tutorial-Page" stroke="none" stroke-width="1" fill="none" fill-rule="evenodd">
        <g id="Example-3" transform="translate(-37.000000, -6750.000000)">
            <g id="Section-6" transform="translate(37.000000, 6447.000000)">
                <g id="Section-Templates" transform="translate(0.000000, 303.000000)">
                    <g id="pattern" transform="translate(36.000000, 0.000000)">
                        <g id="Tabular" transform="translate(903.000000, 122.000000)">
                            <rect id="Rectangle" stroke="url(#linearGradient-1)" stroke-width="2.43" x="1.215" y="1.215" width="130.57" height="188.57" rx="7.29"></rect>
                            <path d="M13.4719654,19.8905556 C12.3386245,19.8905556 11.9489466,19.9658058 11.5489739,20.1797136 C11.2327101,20.3488533 10.9917691,20.5897943 10.8226294,20.9060581 C10.6087216,21.3060308 10.5334713,21.6957088 10.5334713,22.8290496 L10.5334713,170.717617 C10.5334713,171.850958 10.6087216,172.240636 10.8226294,172.640609 C10.9917691,172.956872 11.2327101,173.197813 11.5489739,173.366953 C11.9489466,173.580861 12.3386245,173.656111 13.4719654,173.656111 L120.375168,173.656111 C121.508509,173.656111 121.898187,173.580861 122.29816,173.366953 C122.614424,173.197813 122.855365,172.956872 123.024504,172.640609 C123.238412,172.240636 123.313662,171.850958 123.313662,170.717617 L123.313662,22.8290496 C123.313662,21.6957088 123.238412,21.3060308 123.024504,20.9060581 C122.855365,20.5897943 122.614424,20.3488533 122.29816,20.1797136 C121.898187,19.9658058 121.508509,19.8905556 120.375168,19.8905556 L13.4719654,19.8905556 Z" id="Rectangle-Copy-143" stroke="url(#linearGradient-2)" stroke-width="2.43"></path>
                            <ellipse id="Oval" stroke="url(#linearGradient-3)" stroke-width="1.62" cx="66.0764331" cy="181.662222" rx="4.23566879" ry="4.24444444"></ellipse>
                            <ellipse id="Oval" stroke="url(#linearGradient-4)" stroke-width="0.81" cx="66.5" cy="11.46" rx="2.11783439" ry="2.12222222"></ellipse>
                        </g>
                        <g id="Tabular-Copy-2" transform="translate(1494.000000, 160.000000)">
                            <rect id="Rectangle" stroke="url(#linearGradient-1)" stroke-width="2.43" x="1.215" y="1.215" width="130.57" height="188.57" rx="7.29"></rect>
                            <path d="M13.4719654,19.8905556 C12.3386245,19.8905556 11.9489466,19.9658058 11.5489739,20.1797136 C11.2327101,20.3488533 10.9917691,20.5897943 10.8226294,20.9060581 C10.6087216,21.3060308 10.5334713,21.6957088 10.5334713,22.8290496 L10.5334713,170.717617 C10.5334713,171.850958 10.6087216,172.240636 10.8226294,172.640609 C10.9917691,172.956872 11.2327101,173.197813 11.5489739,173.366953 C11.9489466,173.580861 12.3386245,173.656111 13.4719654,173.656111 L120.375168,173.656111 C121.508509,173.656111 121.898187,173.580861 122.29816,173.366953 C122.614424,173.197813 122.855365,172.956872 123.024504,172.640609 C123.238412,172.240636 123.313662,171.850958 123.313662,170.717617 L123.313662,22.8290496 C123.313662,21.6957088 123.238412,21.3060308 123.024504,20.9060581 C122.855365,20.5897943 122.614424,20.3488533 122.29816,20.1797136 C121.898187,19.9658058 121.508509,19.8905556 120.375168,19.8905556 L13.4719654,19.8905556 Z" id="Rectangle-Copy-143" stroke="url(#linearGradient-2)" stroke-width="2.43"></path>
                            <ellipse id="Oval" stroke="url(#linearGradient-3)" stroke-width="1.62" cx="66.0764331" cy="181.662222" rx="4.23566879" ry="4.24444444"></ellipse>
                            <ellipse id="Oval" stroke="url(#linearGradient-4)" stroke-width="0.81" cx="66.5" cy="11.46" rx="2.11783439" ry="2.12222222"></ellipse>
                        </g>
                        <g id="Tabular-Copy-4" transform="translate(783.500000, 375.500000) rotate(-90.000000) translate(-783.500000, -375.500000) translate(717.000000, 280.000000)">
                            <rect id="Rectangle" stroke="#D8D8D8" stroke-width="2.43" x="1.215" y="1.215" width="130.57" height="188.57" rx="7.29"></rect>
                            <rect id="Rectangle-Copy-144" stroke="url(#linearGradient-1)" stroke-width="2.43" x="1.215" y="1.215" width="130.57" height="188.57" rx="7.29"></rect>
                            <path d="M13.4719654,19.8905556 C12.3386245,19.8905556 11.9489466,19.9658058 11.5489739,20.1797136 C11.2327101,20.3488533 10.9917691,20.5897943 10.8226294,20.9060581 C10.6087216,21.3060308 10.5334713,21.6957088 10.5334713,22.8290496 L10.5334713,170.717617 C10.5334713,171.850958 10.6087216,172.240636 10.8226294,172.640609 C10.9917691,172.956872 11.2327101,173.197813 11.5489739,173.366953 C11.9489466,173.580861 12.3386245,173.656111 13.4719654,173.656111 L120.375168,173.656111 C121.508509,173.656111 121.898187,173.580861 122.29816,173.366953 C122.614424,173.197813 122.855365,172.956872 123.024504,172.640609 C123.238412,172.240636 123.313662,171.850958 123.313662,170.717617 L123.313662,22.8290496 C123.313662,21.6957088 123.238412,21.3060308 123.024504,20.9060581 C122.855365,20.5897943 122.614424,20.3488533 122.29816,20.1797136 C121.898187,19.9658058 121.508509,19.8905556 120.375168,19.8905556 L13.4719654,19.8905556 Z" id="Rectangle-Copy-143" stroke="url(#linearGradient-2)" stroke-width="2.43"></path>
                            <ellipse id="Oval" stroke="url(#linearGradient-3)" stroke-width="1.62" cx="66.0764331" cy="181.662222" rx="4.23566879" ry="4.24444444"></ellipse>
                            <ellipse id="Oval" stroke="url(#linearGradient-4)" stroke-width="0.81" cx="66.5" cy="11.46" rx="2.11783439" ry="2.12222222"></ellipse>
                        </g>
                        <g id="Tabular-Copy-5" transform="translate(1379.500000, 167.500000) rotate(-90.000000) translate(-1379.500000, -167.500000) translate(1313.000000, 72.000000)">
                            <rect id="Rectangle" stroke="url(#linearGradient-1)" stroke-width="2.43" x="1.215" y="1.215" width="130.57" height="188.57" rx="7.29"></rect>
                            <path d="M13.4719654,19.8905556 C12.3386245,19.8905556 11.9489466,19.9658058 11.5489739,20.1797136 C11.2327101,20.3488533 10.9917691,20.5897943 10.8226294,20.9060581 C10.6087216,21.3060308 10.5334713,21.6957088 10.5334713,22.8290496 L10.5334713,170.717617 C10.5334713,171.850958 10.6087216,172.240636 10.8226294,172.640609 C10.9917691,172.956872 11.2327101,173.197813 11.5489739,173.366953 C11.9489466,173.580861 12.3386245,173.656111 13.4719654,173.656111 L120.375168,173.656111 C121.508509,173.656111 121.898187,173.580861 122.29816,173.366953 C122.614424,173.197813 122.855365,172.956872 123.024504,172.640609 C123.238412,172.240636 123.313662,171.850958 123.313662,170.717617 L123.313662,22.8290496 C123.313662,21.6957088 123.238412,21.3060308 123.024504,20.9060581 C122.855365,20.5897943 122.614424,20.3488533 122.29816,20.1797136 C121.898187,19.9658058 121.508509,19.8905556 120.375168,19.8905556 L13.4719654,19.8905556 Z" id="Rectangle-Copy-143" stroke="url(#linearGradient-2)" stroke-width="2.43"></path>
                            <ellipse id="Oval" stroke="url(#linearGradient-3)" stroke-width="1.62" cx="66.0764331" cy="181.662222" rx="4.23566879" ry="4.24444444"></ellipse>
                            <ellipse id="Oval" stroke="url(#linearGradient-4)" stroke-width="0.81" cx="66.5" cy="11.46" rx="2.11783439" ry="2.12222222"></ellipse>
                        </g>
                        <g id="Tabular-Copy" transform="translate(1223.000000, 387.000000)">
                            <rect id="Rectangle" stroke="url(#linearGradient-1)" stroke-width="2.43" x="1.215" y="1.215" width="130.57" height="188.57" rx="7.29"></rect>
                            <path d="M13.4719654,19.8905556 C12.3386245,19.8905556 11.9489466,19.9658058 11.5489739,20.1797136 C11.2327101,20.3488533 10.9917691,20.5897943 10.8226294,20.9060581 C10.6087216,21.3060308 10.5334713,21.6957088 10.5334713,22.8290496 L10.5334713,170.717617 C10.5334713,171.850958 10.6087216,172.240636 10.8226294,172.640609 C10.9917691,172.956872 11.2327101,173.197813 11.5489739,173.366953 C11.9489466,173.580861 12.3386245,173.656111 13.4719654,173.656111 L120.375168,173.656111 C121.508509,173.656111 121.898187,173.580861 122.29816,173.366953 C122.614424,173.197813 122.855365,172.956872 123.024504,172.640609 C123.238412,172.240636 123.313662,171.850958 123.313662,170.717617 L123.313662,22.8290496 C123.313662,21.6957088 123.238412,21.3060308 123.024504,20.9060581 C122.855365,20.5897943 122.614424,20.3488533 122.29816,20.1797136 C121.898187,19.9658058 121.508509,19.8905556 120.375168,19.8905556 L13.4719654,19.8905556 Z" id="Rectangle-Copy-143" stroke="url(#linearGradient-2)" stroke-width="2.43"></path>
                            <ellipse id="Oval" stroke="#D8D8D8" stroke-width="1.62" fill="#FFFFFF" cx="66.0764331" cy="181.662222" rx="4.23566879" ry="4.24444444"></ellipse>
                            <ellipse id="Oval" stroke="url(#linearGradient-4)" stroke-width="0.81" cx="66.5" cy="11.46" rx="2.11783439" ry="2.12222222"></ellipse>
                        </g>
                        <g id="Tabular-Copy" transform="translate(721.000000, 470.000000)">
                            <rect id="Rectangle" stroke="url(#linearGradient-1)" stroke-width="2.43" x="1.215" y="1.215" width="130.57" height="188.57" rx="7.29"></rect>
                            <path d="M13.4719654,19.8905556 C12.3386245,19.8905556 11.9489466,19.9658058 11.5489739,20.1797136 C11.2327101,20.3488533 10.9917691,20.5897943 10.8226294,20.9060581 C10.6087216,21.3060308 10.5334713,21.6957088 10.5334713,22.8290496 L10.5334713,170.717617 C10.5334713,171.850958 10.6087216,172.240636 10.8226294,172.640609 C10.9917691,172.956872 11.2327101,173.197813 11.5489739,173.366953 C11.9489466,173.580861 12.3386245,173.656111 13.4719654,173.656111 L120.375168,173.656111 C121.508509,173.656111 121.898187,173.580861 122.29816,173.366953 C122.614424,173.197813 122.855365,172.956872 123.024504,172.640609 C123.238412,172.240636 123.313662,171.850958 123.313662,170.717617 L123.313662,22.8290496 C123.313662,21.6957088 123.238412,21.3060308 123.024504,20.9060581 C122.855365,20.5897943 122.614424,20.3488533 122.29816,20.1797136 C121.898187,19.9658058 121.508509,19.8905556 120.375168,19.8905556 L13.4719654,19.8905556 Z" id="Rectangle-Copy-143" stroke="url(#linearGradient-2)" stroke-width="2.43"></path>
                            <ellipse id="Oval" stroke="url(#linearGradient-3)" stroke-width="1.62" cx="66.0764331" cy="181.662222" rx="4.23566879" ry="4.24444444"></ellipse>
                            <ellipse id="Oval" stroke="url(#linearGradient-4)" stroke-width="0.81" cx="66.5" cy="11.46" rx="2.11783439" ry="2.12222222"></ellipse>
                        </g>
                        <g id="iPad-Copy-2" transform="translate(686.000000, 0.000000)">
                            <rect id="Rectangle" stroke="url(#linearGradient-5)" stroke-width="2.43" x="1.215" y="1.215" width="191.57" height="273.57" rx="7.29"></rect>
                            <path d="M14.7289209,24.9934615 C14.2539616,24.9934615 14.1538668,25.0127907 14.0539215,25.0662421 C14.0016577,25.0941931 13.9679054,25.1279453 13.9399544,25.1802091 C13.8865031,25.2801544 13.8671739,25.3802492 13.8671739,25.8552086 L13.8671739,247.597099 C13.8671739,248.072058 13.8865031,248.172153 13.9399544,248.272099 C13.9679054,248.324362 14.0016577,248.358115 14.0539215,248.386066 C14.1538668,248.439517 14.2539616,248.458846 14.7289209,248.458846 L179.271079,248.458846 C179.746038,248.458846 179.846133,248.439517 179.946078,248.386066 C179.998342,248.358115 180.032095,248.324362 180.060046,248.272099 C180.113497,248.172153 180.132826,248.072058 180.132826,247.597099 L180.132826,25.8552086 C180.132826,25.3802492 180.113497,25.2801544 180.060046,25.1802091 C180.032095,25.1279453 179.998342,25.0941931 179.946078,25.0662421 C179.846133,25.0127907 179.746038,24.9934615 179.271079,24.9934615 L14.7289209,24.9934615 Z" id="Rectangle-Copy-143" stroke="url(#linearGradient-6)" stroke-width="2.43"></path>
                            <ellipse id="Oval" stroke="url(#linearGradient-7)" stroke-width="1.62" cx="97.4217391" cy="262.052602" rx="6.32608696" ry="6.36923077"></ellipse>
                        </g>
                        <g id="iPad-Copy" transform="translate(1064.000000, 60.000000)">
                            <rect id="Rectangle" stroke="url(#linearGradient-5)" stroke-width="2.43" x="1.215" y="1.215" width="191.57" height="273.57" rx="7.29"></rect>
                            <path d="M14.7289209,24.9934615 C14.2539616,24.9934615 14.1538668,25.0127907 14.0539215,25.0662421 C14.0016577,25.0941931 13.9679054,25.1279453 13.9399544,25.1802091 C13.8865031,25.2801544 13.8671739,25.3802492 13.8671739,25.8552086 L13.8671739,247.597099 C13.8671739,248.072058 13.8865031,248.172153 13.9399544,248.272099 C13.9679054,248.324362 14.0016577,248.358115 14.0539215,248.386066 C14.1538668,248.439517 14.2539616,248.458846 14.7289209,248.458846 L179.271079,248.458846 C179.746038,248.458846 179.846133,248.439517 179.946078,248.386066 C179.998342,248.358115 180.032095,248.324362 180.060046,248.272099 C180.113497,248.172153 180.132826,248.072058 180.132826,247.597099 L180.132826,25.8552086 C180.132826,25.3802492 180.113497,25.2801544 180.060046,25.1802091 C180.032095,25.1279453 179.998342,25.0941931 179.946078,25.0662421 C179.846133,25.0127907 179.746038,24.9934615 179.271079,24.9934615 L14.7289209,24.9934615 Z" id="Rectangle-Copy-143" stroke="url(#linearGradient-6)" stroke-width="2.43"></path>
                            <ellipse id="Oval" stroke="url(#linearGradient-7)" stroke-width="1.62" cx="97.4217391" cy="262.052602" rx="6.32608696" ry="6.36923077"></ellipse>
                        </g>
                        <g id="mobile-phone-copy-3" transform="translate(1379.000000, 297.000000) rotate(-90.000000) translate(-1379.000000, -297.000000) translate(1336.000000, 209.000000)">
                            <path d="M16.6139761,1.62 C11.5914872,1.62 9.52747291,2.01857954 7.39402999,3.1595573 C5.56434492,4.13808359 4.13808359,5.56434492 3.1595573,7.39402999 C2.01857954,9.52747291 1.62,11.5914872 1.62,16.6139761 L1.62,159.386024 C1.62,164.408513 2.01857954,166.472527 3.1595573,168.60597 C4.13808359,170.435655 5.56434492,171.861916 7.39402999,172.840443 C9.52747291,173.98142 11.5914872,174.38 16.6139761,174.38 L69.3860239,174.38 C74.4085128,174.38 76.4725271,173.98142 78.60597,172.840443 C80.4356551,171.861916 81.8619164,170.435655 82.8404427,168.60597 C83.9814205,166.472527 84.38,164.408513 84.38,159.386024 L84.38,16.6139761 C84.38,11.5914872 83.9814205,9.52747291 82.8404427,7.39402999 C81.8619164,5.56434492 80.4356551,4.13808359 78.60597,3.1595573 C76.4725271,2.01857954 74.4085128,1.62 69.3860239,1.62 L16.6139761,1.62 Z" id="Rectangle" stroke="url(#linearGradient-8)" stroke-width="3.24"></path>
                            <rect id="Rectangle" stroke="url(#linearGradient-9)" stroke-width="1.62" x="6.77039604" y="25.3484615" width="70.7562376" height="126.149231"></rect>
                            <path d="M36.3849125,14.7896154 C36.0362805,14.7896154 35.8758258,14.822544 35.7234549,14.9040328 C35.5960336,14.9721785 35.4984542,15.0697579 35.4303086,15.1971792 C35.3488197,15.3495501 35.3158911,15.5100048 35.3158911,15.8586368 L35.3158911,16.2952094 C35.3158911,16.6438413 35.3488197,16.8042961 35.4303086,16.956667 C35.4984542,17.0840883 35.5960336,17.1816677 35.7234549,17.2498133 C35.8758258,17.3313022 36.0362805,17.3642308 36.3849125,17.3642308 L48.7636024,17.3642308 C49.1122343,17.3642308 49.2726891,17.3313022 49.42506,17.2498133 C49.5524813,17.1816677 49.6500607,17.0840883 49.7182063,16.956667 C49.7996951,16.8042961 49.8326238,16.6438413 49.8326238,16.2952094 L49.8326238,15.8586368 C49.8326238,15.5100048 49.7996951,15.3495501 49.7182063,15.1971792 C49.6500607,15.0697579 49.5524813,14.9721785 49.42506,14.9040328 C49.2726891,14.822544 49.1122343,14.7896154 48.7636024,14.7896154 L36.3849125,14.7896154 Z" id="Rectangle" stroke="url(#linearGradient-10)" stroke-width="0.81"></path>
                            <ellipse id="Oval" stroke="url(#linearGradient-11)" stroke-width="0.81" cx="42.5742574" cy="9.30769231" rx="1.7029703" ry="1.69230769"></ellipse>
                        </g>
                        <g id="Computer" transform="translate(895.000000, 351.000000)">
                            <path d="M16.6139761,1.62 C11.5914872,1.62 9.52747291,2.01857954 7.39402999,3.1595573 C5.56434492,4.13808359 4.13808359,5.56434492 3.1595573,7.39402999 C2.01857954,9.52747291 1.62,11.5914872 1.62,16.6139761 L1.62,202.375715 C1.62,207.398204 2.01857954,209.462218 3.1595573,211.595661 C4.13808359,213.425346 5.56434492,214.851607 7.39402999,215.830133 C9.52747291,216.971111 11.5914872,217.369691 16.6139761,217.369691 L283.386024,217.369691 C288.408513,217.369691 290.472527,216.971111 292.60597,215.830133 C294.435655,214.851607 295.861916,213.425346 296.840443,211.595661 C297.98142,209.462218 298.38,207.398204 298.38,202.375715 L298.38,16.6139761 C298.38,11.5914872 297.98142,9.52747291 296.840443,7.39402999 C295.861916,5.56434492 294.435655,4.13808359 292.60597,3.1595573 C290.472527,2.01857954 288.408513,1.62 283.386024,1.62 L16.6139761,1.62 Z" id="Rectangle" stroke="url(#linearGradient-12)" stroke-width="3.24"></path>
                            <rect id="Rectangle" stroke="url(#linearGradient-13)" stroke-width="3.24" x="14.3318644" y="12.6543643" width="272.183729" height="173.309828"></rect>
                            <polygon id="Path-4" stroke="url(#linearGradient-14)" stroke-width="4.05" points="117.314877 218.989691 112.401195 243.136509 100 247 200.847458 247 187.594692 243.136509 184.55289 218.989691"></polygon>
                            <ellipse id="Oval" fill="url(#linearGradient-15)" cx="151.271186" cy="7.21477663" rx="2.11864407" ry="2.12199313"></ellipse>
                        </g>
                        <g id="Computer-Copy-2" transform="translate(1379.000000, 376.000000)">
                            <path d="M16.6139761,-7.77665188e-15 L283.386024,-1.17632734e-14 C289.163065,-1.28244987e-14 291.25796,0.60150996 293.36996,1.73101992 C295.48196,2.86052988 297.13947,4.51803984 298.26898,6.63003984 C299.39849,8.74203984 300,10.8369347 300,16.6139761 L300,202.375715 C300,208.152756 299.39849,210.247651 298.26898,212.359651 C297.13947,214.471651 295.48196,216.129161 293.36996,217.258671 C291.25796,218.388181 289.163065,218.989691 283.386024,218.989691 L16.6139761,218.989691 C10.8369347,218.989691 8.74203984,218.388181 6.63003984,217.258671 C4.51803984,216.129161 2.86052988,214.471651 1.73101992,212.359651 C0.60150996,210.247651 9.14178471e-15,208.152756 8.43430118e-15,202.375715 L2.22383985e-15,16.6139761 C1.51635632e-15,10.8369347 0.60150996,8.74203984 1.73101992,6.63003984 C2.86052988,4.51803984 4.51803984,2.86052988 6.63003984,1.73101992 C8.74203984,0.60150996 10.8369347,-6.71542658e-15 16.6139761,-7.77665188e-15 Z" id="Rectangle" stroke="url(#linearGradient-12)" stroke-width="3"></path>
                            <rect id="Rectangle" stroke="url(#linearGradient-13)" stroke-width="3" x="12.7118644" y="11.0343643" width="275.423729" height="176.549828"></rect>
                            <polygon id="Path-4" stroke="url(#linearGradient-14)" stroke-width="3" points="117.314877 221 112.401195 245.146818 100 249.010309 200.847458 249.010309 187.594692 245.146818 184.55289 221"></polygon>
                            <ellipse id="Oval" stroke="url(#linearGradient-15)" cx="151.271186" cy="6.21477663" rx="2.11864407" ry="2.12199313"></ellipse>
                        </g>
                        <g id="Tabular-Copy-3" transform="translate(329.000000, 289.000000)">
                            <rect id="Rectangle" stroke="url(#linearGradient-1)" stroke-width="2.43" x="1.215" y="1.215" width="130.57" height="188.57" rx="7.29"></rect>
                            <path d="M13.4719654,19.8905556 C12.3386245,19.8905556 11.9489466,19.9658058 11.5489739,20.1797136 C11.2327101,20.3488533 10.9917691,20.5897943 10.8226294,20.9060581 C10.6087216,21.3060308 10.5334713,21.6957088 10.5334713,22.8290496 L10.5334713,170.717617 C10.5334713,171.850958 10.6087216,172.240636 10.8226294,172.640609 C10.9917691,172.956872 11.2327101,173.197813 11.5489739,173.366953 C11.9489466,173.580861 12.3386245,173.656111 13.4719654,173.656111 L120.375168,173.656111 C121.508509,173.656111 121.898187,173.580861 122.29816,173.366953 C122.614424,173.197813 122.855365,172.956872 123.024504,172.640609 C123.238412,172.240636 123.313662,171.850958 123.313662,170.717617 L123.313662,22.8290496 C123.313662,21.6957088 123.238412,21.3060308 123.024504,20.9060581 C122.855365,20.5897943 122.614424,20.3488533 122.29816,20.1797136 C121.898187,19.9658058 121.508509,19.8905556 120.375168,19.8905556 L13.4719654,19.8905556 Z" id="Rectangle-Copy-143" stroke="url(#linearGradient-2)" stroke-width="2.43"></path>
                            <ellipse id="Oval" stroke="url(#linearGradient-3)" stroke-width="1.62" cx="66.0764331" cy="181.662222" rx="4.23566879" ry="4.24444444"></ellipse>
                            <ellipse id="Oval" fill="url(#linearGradient-4)" cx="66.5" cy="11.46" rx="2.11783439" ry="2.12222222"></ellipse>
                        </g>
                        <g id="Tabular-Copy-3" transform="translate(394.000000, 60.000000)">
                            <rect id="Rectangle" stroke="url(#linearGradient-1)" stroke-width="2.43" x="1.215" y="1.215" width="130.57" height="188.57" rx="7.29"></rect>
                            <path d="M13.4719654,19.8905556 C12.3386245,19.8905556 11.9489466,19.9658058 11.5489739,20.1797136 C11.2327101,20.3488533 10.9917691,20.5897943 10.8226294,20.9060581 C10.6087216,21.3060308 10.5334713,21.6957088 10.5334713,22.8290496 L10.5334713,170.717617 C10.5334713,171.850958 10.6087216,172.240636 10.8226294,172.640609 C10.9917691,172.956872 11.2327101,173.197813 11.5489739,173.366953 C11.9489466,173.580861 12.3386245,173.656111 13.4719654,173.656111 L120.375168,173.656111 C121.508509,173.656111 121.898187,173.580861 122.29816,173.366953 C122.614424,173.197813 122.855365,172.956872 123.024504,172.640609 C123.238412,172.240636 123.313662,171.850958 123.313662,170.717617 L123.313662,22.8290496 C123.313662,21.6957088 123.238412,21.3060308 123.024504,20.9060581 C122.855365,20.5897943 122.614424,20.3488533 122.29816,20.1797136 C121.898187,19.9658058 121.508509,19.8905556 120.375168,19.8905556 L13.4719654,19.8905556 Z" id="Rectangle-Copy-143" stroke="url(#linearGradient-2)" stroke-width="2.43"></path>
                            <ellipse id="Oval" stroke="url(#linearGradient-3)" stroke-width="1.62" cx="66.0764331" cy="181.662222" rx="4.23566879" ry="4.24444444"></ellipse>
                            <ellipse id="Oval" stroke="url(#linearGradient-4)" stroke-width="0.81" cx="66.5" cy="11.46" rx="2.11783439" ry="2.12222222"></ellipse>
                        </g>
                        <g id="iPad" transform="translate(0.000000, 311.000000)">
                            <rect id="Rectangle" stroke="url(#linearGradient-5)" stroke-width="2.43" x="1.215" y="1.215" width="191.57" height="273.57" rx="7.29"></rect>
                            <path d="M14.7289209,24.9934615 C14.2539616,24.9934615 14.1538668,25.0127907 14.0539215,25.0662421 C14.0016577,25.0941931 13.9679054,25.1279453 13.9399544,25.1802091 C13.8865031,25.2801544 13.8671739,25.3802492 13.8671739,25.8552086 L13.8671739,247.597099 C13.8671739,248.072058 13.8865031,248.172153 13.9399544,248.272099 C13.9679054,248.324362 14.0016577,248.358115 14.0539215,248.386066 C14.1538668,248.439517 14.2539616,248.458846 14.7289209,248.458846 L179.271079,248.458846 C179.746038,248.458846 179.846133,248.439517 179.946078,248.386066 C179.998342,248.358115 180.032095,248.324362 180.060046,248.272099 C180.113497,248.172153 180.132826,248.072058 180.132826,247.597099 L180.132826,25.8552086 C180.132826,25.3802492 180.113497,25.2801544 180.060046,25.1802091 C180.032095,25.1279453 179.998342,25.0941931 179.946078,25.0662421 C179.846133,25.0127907 179.746038,24.9934615 179.271079,24.9934615 L14.7289209,24.9934615 Z" id="Rectangle-Copy-143" stroke="url(#linearGradient-6)" stroke-width="2.43"></path>
                            <ellipse id="Oval" stroke="url(#linearGradient-7)" stroke-width="1.62" cx="97.4217391" cy="262.052602" rx="6.32608696" ry="6.36923077"></ellipse>
                        </g>
                        <g id="iPad-Copy-3" transform="translate(477.000000, 390.000000)">
                            <rect id="Rectangle" stroke="url(#linearGradient-5)" stroke-width="2.43" x="1.215" y="1.215" width="191.57" height="273.57" rx="7.29"></rect>
                            <path d="M14.7289209,24.9934615 C14.2539616,24.9934615 14.1538668,25.0127907 14.0539215,25.0662421 C14.0016577,25.0941931 13.9679054,25.1279453 13.9399544,25.1802091 C13.8865031,25.2801544 13.8671739,25.3802492 13.8671739,25.8552086 L13.8671739,247.597099 C13.8671739,248.072058 13.8865031,248.172153 13.9399544,248.272099 C13.9679054,248.324362 14.0016577,248.358115 14.0539215,248.386066 C14.1538668,248.439517 14.2539616,248.458846 14.7289209,248.458846 L179.271079,248.458846 C179.746038,248.458846 179.846133,248.439517 179.946078,248.386066 C179.998342,248.358115 180.032095,248.324362 180.060046,248.272099 C180.113497,248.172153 180.132826,248.072058 180.132826,247.597099 L180.132826,25.8552086 C180.132826,25.3802492 180.113497,25.2801544 180.060046,25.1802091 C180.032095,25.1279453 179.998342,25.0941931 179.946078,25.0662421 C179.846133,25.0127907 179.746038,24.9934615 179.271079,24.9934615 L14.7289209,24.9934615 Z" id="Rectangle-Copy-143" stroke="url(#linearGradient-6)" stroke-width="2.43"></path>
                            <ellipse id="Oval" stroke="url(#linearGradient-7)" stroke-width="1.62" cx="97.4217391" cy="262.052602" rx="6.32608696" ry="6.36923077"></ellipse>
                        </g>
                        <g id="mobile-phone" transform="translate(575.000000, 95.000000)">
                            <path d="M16.6139761,1.62 C11.5914872,1.62 9.52747291,2.01857954 7.39402999,3.1595573 C5.56434492,4.13808359 4.13808359,5.56434492 3.1595573,7.39402999 C2.01857954,9.52747291 1.62,11.5914872 1.62,16.6139761 L1.62,159.386024 C1.62,164.408513 2.01857954,166.472527 3.1595573,168.60597 C4.13808359,170.435655 5.56434492,171.861916 7.39402999,172.840443 C9.52747291,173.98142 11.5914872,174.38 16.6139761,174.38 L69.3860239,174.38 C74.4085128,174.38 76.4725271,173.98142 78.60597,172.840443 C80.4356551,171.861916 81.8619164,170.435655 82.8404427,168.60597 C83.9814205,166.472527 84.38,164.408513 84.38,159.386024 L84.38,16.6139761 C84.38,11.5914872 83.9814205,9.52747291 82.8404427,7.39402999 C81.8619164,5.56434492 80.4356551,4.13808359 78.60597,3.1595573 C76.4725271,2.01857954 74.4085128,1.62 69.3860239,1.62 L16.6139761,1.62 Z" id="Rectangle" stroke="url(#linearGradient-8)" stroke-width="3.24"></path>
                            <rect id="Rectangle" stroke="url(#linearGradient-9)" stroke-width="1.62" x="6.77039604" y="25.3484615" width="70.7562376" height="126.149231"></rect>
                            <path d="M36.3849125,14.7896154 C36.0362805,14.7896154 35.8758258,14.822544 35.7234549,14.9040328 C35.5960336,14.9721785 35.4984542,15.0697579 35.4303086,15.1971792 C35.3488197,15.3495501 35.3158911,15.5100048 35.3158911,15.8586368 L35.3158911,16.2952094 C35.3158911,16.6438413 35.3488197,16.8042961 35.4303086,16.956667 C35.4984542,17.0840883 35.5960336,17.1816677 35.7234549,17.2498133 C35.8758258,17.3313022 36.0362805,17.3642308 36.3849125,17.3642308 L48.7636024,17.3642308 C49.1122343,17.3642308 49.2726891,17.3313022 49.42506,17.2498133 C49.5524813,17.1816677 49.6500607,17.0840883 49.7182063,16.956667 C49.7996951,16.8042961 49.8326238,16.6438413 49.8326238,16.2952094 L49.8326238,15.8586368 C49.8326238,15.5100048 49.7996951,15.3495501 49.7182063,15.1971792 C49.6500607,15.0697579 49.5524813,14.9721785 49.42506,14.9040328 C49.2726891,14.822544 49.1122343,14.7896154 48.7636024,14.7896154 L36.3849125,14.7896154 Z" id="Rectangle" stroke="url(#linearGradient-10)" stroke-width="0.81"></path>
                            <ellipse id="Oval" stroke="url(#linearGradient-11)" stroke-width="0.81" cx="42.5742574" cy="9.30769231" rx="1.7029703" ry="1.69230769"></ellipse>
                        </g>
                        <g id="mobile-phone-copy" transform="translate(219.000000, 311.000000)">
                            <path d="M16.6139761,1.62 C11.5914872,1.62 9.52747291,2.01857954 7.39402999,3.1595573 C5.56434492,4.13808359 4.13808359,5.56434492 3.1595573,7.39402999 C2.01857954,9.52747291 1.62,11.5914872 1.62,16.6139761 L1.62,159.386024 C1.62,164.408513 2.01857954,166.472527 3.1595573,168.60597 C4.13808359,170.435655 5.56434492,171.861916 7.39402999,172.840443 C9.52747291,173.98142 11.5914872,174.38 16.6139761,174.38 L69.3860239,174.38 C74.4085128,174.38 76.4725271,173.98142 78.60597,172.840443 C80.4356551,171.861916 81.8619164,170.435655 82.8404427,168.60597 C83.9814205,166.472527 84.38,164.408513 84.38,159.386024 L84.38,16.6139761 C84.38,11.5914872 83.9814205,9.52747291 82.8404427,7.39402999 C81.8619164,5.56434492 80.4356551,4.13808359 78.60597,3.1595573 C76.4725271,2.01857954 74.4085128,1.62 69.3860239,1.62 L16.6139761,1.62 Z" id="Rectangle" stroke="url(#linearGradient-8)" stroke-width="3.24"></path>
                            <rect id="Rectangle" stroke="url(#linearGradient-9)" stroke-width="1.62" x="6.77039604" y="25.3484615" width="70.7562376" height="126.149231"></rect>
                            <path d="M36.3849125,14.7896154 C36.0362805,14.7896154 35.8758258,14.822544 35.7234549,14.9040328 C35.5960336,14.9721785 35.4984542,15.0697579 35.4303086,15.1971792 C35.3488197,15.3495501 35.3158911,15.5100048 35.3158911,15.8586368 L35.3158911,16.2952094 C35.3158911,16.6438413 35.3488197,16.8042961 35.4303086,16.956667 C35.4984542,17.0840883 35.5960336,17.1816677 35.7234549,17.2498133 C35.8758258,17.3313022 36.0362805,17.3642308 36.3849125,17.3642308 L48.7636024,17.3642308 C49.1122343,17.3642308 49.2726891,17.3313022 49.42506,17.2498133 C49.5524813,17.1816677 49.6500607,17.0840883 49.7182063,16.956667 C49.7996951,16.8042961 49.8326238,16.6438413 49.8326238,16.2952094 L49.8326238,15.8586368 C49.8326238,15.5100048 49.7996951,15.3495501 49.7182063,15.1971792 C49.6500607,15.0697579 49.5524813,14.9721785 49.42506,14.9040328 C49.2726891,14.822544 49.1122343,14.7896154 48.7636024,14.7896154 L36.3849125,14.7896154 Z" id="Rectangle" stroke="url(#linearGradient-10)" stroke-width="0.81"></path>
                            <ellipse id="Oval" fill="url(#linearGradient-11)" cx="42.5742574" cy="9.30769231" rx="1.7029703" ry="1.69230769"></ellipse>
                        </g>
                        <g id="mobile-phone-copy-2" transform="translate(575.000000, 331.000000) rotate(-90.000000) translate(-575.000000, -331.000000) translate(532.000000, 243.000000)">
                            <path d="M16.6139761,1.62 C11.5914872,1.62 9.52747291,2.01857954 7.39402999,3.1595573 C5.56434492,4.13808359 4.13808359,5.56434492 3.1595573,7.39402999 C2.01857954,9.52747291 1.62,11.5914872 1.62,16.6139761 L1.62,159.386024 C1.62,164.408513 2.01857954,166.472527 3.1595573,168.60597 C4.13808359,170.435655 5.56434492,171.861916 7.39402999,172.840443 C9.52747291,173.98142 11.5914872,174.38 16.6139761,174.38 L69.3860239,174.38 C74.4085128,174.38 76.4725271,173.98142 78.60597,172.840443 C80.4356551,171.861916 81.8619164,170.435655 82.8404427,168.60597 C83.9814205,166.472527 84.38,164.408513 84.38,159.386024 L84.38,16.6139761 C84.38,11.5914872 83.9814205,9.52747291 82.8404427,7.39402999 C81.8619164,5.56434492 80.4356551,4.13808359 78.60597,3.1595573 C76.4725271,2.01857954 74.4085128,1.62 69.3860239,1.62 L16.6139761,1.62 Z" id="Rectangle" stroke="url(#linearGradient-8)" stroke-width="3.24"></path>
                            <rect id="Rectangle" stroke="url(#linearGradient-9)" stroke-width="1.62" x="6.77039604" y="25.3484615" width="70.7562376" height="126.149231"></rect>
                            <path d="M36.3849125,14.7896154 C36.0362805,14.7896154 35.8758258,14.822544 35.7234549,14.9040328 C35.5960336,14.9721785 35.4984542,15.0697579 35.4303086,15.1971792 C35.3488197,15.3495501 35.3158911,15.5100048 35.3158911,15.8586368 L35.3158911,16.2952094 C35.3158911,16.6438413 35.3488197,16.8042961 35.4303086,16.956667 C35.4984542,17.0840883 35.5960336,17.1816677 35.7234549,17.2498133 C35.8758258,17.3313022 36.0362805,17.3642308 36.3849125,17.3642308 L48.7636024,17.3642308 C49.1122343,17.3642308 49.2726891,17.3313022 49.42506,17.2498133 C49.5524813,17.1816677 49.6500607,17.0840883 49.7182063,16.956667 C49.7996951,16.8042961 49.8326238,16.6438413 49.8326238,16.2952094 L49.8326238,15.8586368 C49.8326238,15.5100048 49.7996951,15.3495501 49.7182063,15.1971792 C49.6500607,15.0697579 49.5524813,14.9721785 49.42506,14.9040328 C49.2726891,14.822544 49.1122343,14.7896154 48.7636024,14.7896154 L36.3849125,14.7896154 Z" id="Rectangle" stroke="url(#linearGradient-10)" stroke-width="0.81"></path>
                            <ellipse id="Oval" stroke="url(#linearGradient-11)" stroke-width="0.81" fill="#D8D8D8" cx="42.5742574" cy="9.30769231" rx="1.7029703" ry="1.69230769"></ellipse>
                        </g>
                        <g id="mobile-phone-copy-4" transform="translate(366.000000, 555.000000) rotate(-90.000000) translate(-366.000000, -555.000000) translate(323.000000, 467.000000)">
                            <path d="M16.6139761,1.62 C11.5914872,1.62 9.52747291,2.01857954 7.39402999,3.1595573 C5.56434492,4.13808359 4.13808359,5.56434492 3.1595573,7.39402999 C2.01857954,9.52747291 1.62,11.5914872 1.62,16.6139761 L1.62,159.386024 C1.62,164.408513 2.01857954,166.472527 3.1595573,168.60597 C4.13808359,170.435655 5.56434492,171.861916 7.39402999,172.840443 C9.52747291,173.98142 11.5914872,174.38 16.6139761,174.38 L69.3860239,174.38 C74.4085128,174.38 76.4725271,173.98142 78.60597,172.840443 C80.4356551,171.861916 81.8619164,170.435655 82.8404427,168.60597 C83.9814205,166.472527 84.38,164.408513 84.38,159.386024 L84.38,16.6139761 C84.38,11.5914872 83.9814205,9.52747291 82.8404427,7.39402999 C81.8619164,5.56434492 80.4356551,4.13808359 78.60597,3.1595573 C76.4725271,2.01857954 74.4085128,1.62 69.3860239,1.62 L16.6139761,1.62 Z" id="Rectangle" stroke="url(#linearGradient-8)" stroke-width="3.24"></path>
                            <rect id="Rectangle" stroke="url(#linearGradient-9)" stroke-width="1.62" x="7.81" y="25.81" width="70.7562376" height="126.149231"></rect>
                            <path d="M36.3849125,14.7896154 C36.0362805,14.7896154 35.8758258,14.822544 35.7234549,14.9040328 C35.5960336,14.9721785 35.4984542,15.0697579 35.4303086,15.1971792 C35.3488197,15.3495501 35.3158911,15.5100048 35.3158911,15.8586368 L35.3158911,16.2952094 C35.3158911,16.6438413 35.3488197,16.8042961 35.4303086,16.956667 C35.4984542,17.0840883 35.5960336,17.1816677 35.7234549,17.2498133 C35.8758258,17.3313022 36.0362805,17.3642308 36.3849125,17.3642308 L48.7636024,17.3642308 C49.1122343,17.3642308 49.2726891,17.3313022 49.42506,17.2498133 C49.5524813,17.1816677 49.6500607,17.0840883 49.7182063,16.956667 C49.7996951,16.8042961 49.8326238,16.6438413 49.8326238,16.2952094 L49.8326238,15.8586368 C49.8326238,15.5100048 49.7996951,15.3495501 49.7182063,15.1971792 C49.6500607,15.0697579 49.5524813,14.9721785 49.42506,14.9040328 C49.2726891,14.822544 49.1122343,14.7896154 48.7636024,14.7896154 L36.3849125,14.7896154 Z" id="Rectangle" stroke="url(#linearGradient-10)" stroke-width="0.81"></path>
                            <ellipse id="Oval" fill="url(#linearGradient-11)" cx="42.5742574" cy="9.30769231" rx="1.7029703" ry="1.69230769"></ellipse>
                        </g>
                        <g id="Computer-Copy" transform="translate(59.000000, 45.000000)">
                            <path d="M16.6139761,1.62 C11.5914872,1.62 9.52747291,2.01857954 7.39402999,3.1595573 C5.56434492,4.13808359 4.13808359,5.56434492 3.1595573,7.39402999 C2.01857954,9.52747291 1.62,11.5914872 1.62,16.6139761 L1.62,202.375715 C1.62,207.398204 2.01857954,209.462218 3.1595573,211.595661 C4.13808359,213.425346 5.56434492,214.851607 7.39402999,215.830133 C9.52747291,216.971111 11.5914872,217.369691 16.6139761,217.369691 L283.386024,217.369691 C288.408513,217.369691 290.472527,216.971111 292.60597,215.830133 C294.435655,214.851607 295.861916,213.425346 296.840443,211.595661 C297.98142,209.462218 298.38,207.398204 298.38,202.375715 L298.38,16.6139761 C298.38,11.5914872 297.98142,9.52747291 296.840443,7.39402999 C295.861916,5.56434492 294.435655,4.13808359 292.60597,3.1595573 C290.472527,2.01857954 288.408513,1.62 283.386024,1.62 L16.6139761,1.62 Z" id="Rectangle" stroke="url(#linearGradient-12)" stroke-width="3.24"></path>
                            <rect id="Rectangle" stroke="url(#linearGradient-13)" stroke-width="3.24" x="14.3318644" y="12.6543643" width="272.183729" height="173.309828"></rect>
                            <polygon id="Path-4" stroke="url(#linearGradient-14)" stroke-width="4.05" points="117.314877 218.989691 112.401195 243.136509 100 247 200.847458 247 187.594692 243.136509 184.55289 218.989691"></polygon>
                            <ellipse id="Oval" fill="url(#linearGradient-15)" cx="151.271186" cy="7.21477663" rx="2.11864407" ry="2.12199313"></ellipse>
                        </g>
                    </g>
                    <g id="pattern" transform="translate(0.000000, 700.000000)">
                        <g id="Tabular" transform="translate(903.000000, 122.000000)">
                            <rect id="Rectangle" stroke="url(#linearGradient-1)" stroke-width="2.43" x="1.215" y="1.215" width="130.57" height="188.57" rx="7.29"></rect>
                            <path d="M13.4719654,19.8905556 C12.3386245,19.8905556 11.9489466,19.9658058 11.5489739,20.1797136 C11.2327101,20.3488533 10.9917691,20.5897943 10.8226294,20.9060581 C10.6087216,21.3060308 10.5334713,21.6957088 10.5334713,22.8290496 L10.5334713,170.717617 C10.5334713,171.850958 10.6087216,172.240636 10.8226294,172.640609 C10.9917691,172.956872 11.2327101,173.197813 11.5489739,173.366953 C11.9489466,173.580861 12.3386245,173.656111 13.4719654,173.656111 L120.375168,173.656111 C121.508509,173.656111 121.898187,173.580861 122.29816,173.366953 C122.614424,173.197813 122.855365,172.956872 123.024504,172.640609 C123.238412,172.240636 123.313662,171.850958 123.313662,170.717617 L123.313662,22.8290496 C123.313662,21.6957088 123.238412,21.3060308 123.024504,20.9060581 C122.855365,20.5897943 122.614424,20.3488533 122.29816,20.1797136 C121.898187,19.9658058 121.508509,19.8905556 120.375168,19.8905556 L13.4719654,19.8905556 Z" id="Rectangle-Copy-143" stroke="url(#linearGradient-2)" stroke-width="2.43"></path>
                            <ellipse id="Oval" stroke="url(#linearGradient-3)" stroke-width="1.62" cx="66.0764331" cy="181.662222" rx="4.23566879" ry="4.24444444"></ellipse>
                            <ellipse id="Oval" stroke="url(#linearGradient-4)" stroke-width="0.81" cx="66.5" cy="11.46" rx="2.11783439" ry="2.12222222"></ellipse>
                        </g>
                        <g id="Tabular-Copy-2" transform="translate(1494.000000, 160.000000)">
                            <rect id="Rectangle" stroke="url(#linearGradient-1)" stroke-width="2.43" x="1.215" y="1.215" width="130.57" height="188.57" rx="7.29"></rect>
                            <path d="M13.4719654,19.8905556 C12.3386245,19.8905556 11.9489466,19.9658058 11.5489739,20.1797136 C11.2327101,20.3488533 10.9917691,20.5897943 10.8226294,20.9060581 C10.6087216,21.3060308 10.5334713,21.6957088 10.5334713,22.8290496 L10.5334713,170.717617 C10.5334713,171.850958 10.6087216,172.240636 10.8226294,172.640609 C10.9917691,172.956872 11.2327101,173.197813 11.5489739,173.366953 C11.9489466,173.580861 12.3386245,173.656111 13.4719654,173.656111 L120.375168,173.656111 C121.508509,173.656111 121.898187,173.580861 122.29816,173.366953 C122.614424,173.197813 122.855365,172.956872 123.024504,172.640609 C123.238412,172.240636 123.313662,171.850958 123.313662,170.717617 L123.313662,22.8290496 C123.313662,21.6957088 123.238412,21.3060308 123.024504,20.9060581 C122.855365,20.5897943 122.614424,20.3488533 122.29816,20.1797136 C121.898187,19.9658058 121.508509,19.8905556 120.375168,19.8905556 L13.4719654,19.8905556 Z" id="Rectangle-Copy-143" stroke="url(#linearGradient-2)" stroke-width="2.43"></path>
                            <ellipse id="Oval" stroke="url(#linearGradient-3)" stroke-width="1.62" cx="66.0764331" cy="181.662222" rx="4.23566879" ry="4.24444444"></ellipse>
                            <ellipse id="Oval" stroke="url(#linearGradient-4)" stroke-width="0.81" cx="66.5" cy="11.46" rx="2.11783439" ry="2.12222222"></ellipse>
                        </g>
                        <g id="Tabular-Copy-4" transform="translate(783.500000, 375.500000) rotate(-90.000000) translate(-783.500000, -375.500000) translate(717.000000, 280.000000)">
                            <rect id="Rectangle" stroke="#D8D8D8" stroke-width="2.43" x="1.215" y="1.215" width="130.57" height="188.57" rx="7.29"></rect>
                            <rect id="Rectangle-Copy-144" stroke="url(#linearGradient-1)" stroke-width="2.43" x="1.215" y="1.215" width="130.57" height="188.57" rx="7.29"></rect>
                            <path d="M13.4719654,19.8905556 C12.3386245,19.8905556 11.9489466,19.9658058 11.5489739,20.1797136 C11.2327101,20.3488533 10.9917691,20.5897943 10.8226294,20.9060581 C10.6087216,21.3060308 10.5334713,21.6957088 10.5334713,22.8290496 L10.5334713,170.717617 C10.5334713,171.850958 10.6087216,172.240636 10.8226294,172.640609 C10.9917691,172.956872 11.2327101,173.197813 11.5489739,173.366953 C11.9489466,173.580861 12.3386245,173.656111 13.4719654,173.656111 L120.375168,173.656111 C121.508509,173.656111 121.898187,173.580861 122.29816,173.366953 C122.614424,173.197813 122.855365,172.956872 123.024504,172.640609 C123.238412,172.240636 123.313662,171.850958 123.313662,170.717617 L123.313662,22.8290496 C123.313662,21.6957088 123.238412,21.3060308 123.024504,20.9060581 C122.855365,20.5897943 122.614424,20.3488533 122.29816,20.1797136 C121.898187,19.9658058 121.508509,19.8905556 120.375168,19.8905556 L13.4719654,19.8905556 Z" id="Rectangle-Copy-143" stroke="url(#linearGradient-2)" stroke-width="2.43"></path>
                            <ellipse id="Oval" stroke="url(#linearGradient-3)" stroke-width="1.62" cx="66.0764331" cy="181.662222" rx="4.23566879" ry="4.24444444"></ellipse>
                            <ellipse id="Oval" stroke="url(#linearGradient-4)" stroke-width="0.81" cx="66.5" cy="11.46" rx="2.11783439" ry="2.12222222"></ellipse>
                        </g>
                        <g id="Tabular-Copy-5" transform="translate(1379.500000, 167.500000) rotate(-90.000000) translate(-1379.500000, -167.500000) translate(1313.000000, 72.000000)">
                            <rect id="Rectangle" stroke="url(#linearGradient-1)" stroke-width="2.43" x="1.215" y="1.215" width="130.57" height="188.57" rx="7.29"></rect>
                            <path d="M13.4719654,19.8905556 C12.3386245,19.8905556 11.9489466,19.9658058 11.5489739,20.1797136 C11.2327101,20.3488533 10.9917691,20.5897943 10.8226294,20.9060581 C10.6087216,21.3060308 10.5334713,21.6957088 10.5334713,22.8290496 L10.5334713,170.717617 C10.5334713,171.850958 10.6087216,172.240636 10.8226294,172.640609 C10.9917691,172.956872 11.2327101,173.197813 11.5489739,173.366953 C11.9489466,173.580861 12.3386245,173.656111 13.4719654,173.656111 L120.375168,173.656111 C121.508509,173.656111 121.898187,173.580861 122.29816,173.366953 C122.614424,173.197813 122.855365,172.956872 123.024504,172.640609 C123.238412,172.240636 123.313662,171.850958 123.313662,170.717617 L123.313662,22.8290496 C123.313662,21.6957088 123.238412,21.3060308 123.024504,20.9060581 C122.855365,20.5897943 122.614424,20.3488533 122.29816,20.1797136 C121.898187,19.9658058 121.508509,19.8905556 120.375168,19.8905556 L13.4719654,19.8905556 Z" id="Rectangle-Copy-143" stroke="url(#linearGradient-2)" stroke-width="2.43"></path>
                            <ellipse id="Oval" stroke="url(#linearGradient-3)" stroke-width="1.62" cx="66.0764331" cy="181.662222" rx="4.23566879" ry="4.24444444"></ellipse>
                            <ellipse id="Oval" stroke="url(#linearGradient-4)" stroke-width="0.81" cx="66.5" cy="11.46" rx="2.11783439" ry="2.12222222"></ellipse>
                        </g>
                        <g id="Tabular-Copy" transform="translate(1223.000000, 387.000000)">
                            <rect id="Rectangle" stroke="url(#linearGradient-1)" stroke-width="2.43" x="1.215" y="1.215" width="130.57" height="188.57" rx="7.29"></rect>
                            <path d="M13.4719654,19.8905556 C12.3386245,19.8905556 11.9489466,19.9658058 11.5489739,20.1797136 C11.2327101,20.3488533 10.9917691,20.5897943 10.8226294,20.9060581 C10.6087216,21.3060308 10.5334713,21.6957088 10.5334713,22.8290496 L10.5334713,170.717617 C10.5334713,171.850958 10.6087216,172.240636 10.8226294,172.640609 C10.9917691,172.956872 11.2327101,173.197813 11.5489739,173.366953 C11.9489466,173.580861 12.3386245,173.656111 13.4719654,173.656111 L120.375168,173.656111 C121.508509,173.656111 121.898187,173.580861 122.29816,173.366953 C122.614424,173.197813 122.855365,172.956872 123.024504,172.640609 C123.238412,172.240636 123.313662,171.850958 123.313662,170.717617 L123.313662,22.8290496 C123.313662,21.6957088 123.238412,21.3060308 123.024504,20.9060581 C122.855365,20.5897943 122.614424,20.3488533 122.29816,20.1797136 C121.898187,19.9658058 121.508509,19.8905556 120.375168,19.8905556 L13.4719654,19.8905556 Z" id="Rectangle-Copy-143" stroke="url(#linearGradient-2)" stroke-width="2.43"></path>
                            <ellipse id="Oval" stroke="#D8D8D8" stroke-width="1.62" fill="#FFFFFF" cx="66.0764331" cy="181.662222" rx="4.23566879" ry="4.24444444"></ellipse>
                            <ellipse id="Oval" stroke="url(#linearGradient-4)" stroke-width="0.81" cx="66.5" cy="11.46" rx="2.11783439" ry="2.12222222"></ellipse>
                        </g>
                        <g id="Tabular-Copy" transform="translate(721.000000, 470.000000)">
                            <rect id="Rectangle" stroke="url(#linearGradient-1)" stroke-width="2.43" x="1.215" y="1.215" width="130.57" height="188.57" rx="7.29"></rect>
                            <path d="M13.4719654,19.8905556 C12.3386245,19.8905556 11.9489466,19.9658058 11.5489739,20.1797136 C11.2327101,20.3488533 10.9917691,20.5897943 10.8226294,20.9060581 C10.6087216,21.3060308 10.5334713,21.6957088 10.5334713,22.8290496 L10.5334713,170.717617 C10.5334713,171.850958 10.6087216,172.240636 10.8226294,172.640609 C10.9917691,172.956872 11.2327101,173.197813 11.5489739,173.366953 C11.9489466,173.580861 12.3386245,173.656111 13.4719654,173.656111 L120.375168,173.656111 C121.508509,173.656111 121.898187,173.580861 122.29816,173.366953 C122.614424,173.197813 122.855365,172.956872 123.024504,172.640609 C123.238412,172.240636 123.313662,171.850958 123.313662,170.717617 L123.313662,22.8290496 C123.313662,21.6957088 123.238412,21.3060308 123.024504,20.9060581 C122.855365,20.5897943 122.614424,20.3488533 122.29816,20.1797136 C121.898187,19.9658058 121.508509,19.8905556 120.375168,19.8905556 L13.4719654,19.8905556 Z" id="Rectangle-Copy-143" stroke="url(#linearGradient-2)" stroke-width="2.43"></path>
                            <ellipse id="Oval" stroke="url(#linearGradient-3)" stroke-width="1.62" cx="66.0764331" cy="181.662222" rx="4.23566879" ry="4.24444444"></ellipse>
                            <ellipse id="Oval" stroke="url(#linearGradient-4)" stroke-width="0.81" cx="66.5" cy="11.46" rx="2.11783439" ry="2.12222222"></ellipse>
                        </g>
                        <g id="iPad-Copy-2" transform="translate(686.000000, 0.000000)">
                            <rect id="Rectangle" stroke="url(#linearGradient-5)" stroke-width="2.43" x="1.215" y="1.215" width="191.57" height="273.57" rx="7.29"></rect>
                            <path d="M14.7289209,24.9934615 C14.2539616,24.9934615 14.1538668,25.0127907 14.0539215,25.0662421 C14.0016577,25.0941931 13.9679054,25.1279453 13.9399544,25.1802091 C13.8865031,25.2801544 13.8671739,25.3802492 13.8671739,25.8552086 L13.8671739,247.597099 C13.8671739,248.072058 13.8865031,248.172153 13.9399544,248.272099 C13.9679054,248.324362 14.0016577,248.358115 14.0539215,248.386066 C14.1538668,248.439517 14.2539616,248.458846 14.7289209,248.458846 L179.271079,248.458846 C179.746038,248.458846 179.846133,248.439517 179.946078,248.386066 C179.998342,248.358115 180.032095,248.324362 180.060046,248.272099 C180.113497,248.172153 180.132826,248.072058 180.132826,247.597099 L180.132826,25.8552086 C180.132826,25.3802492 180.113497,25.2801544 180.060046,25.1802091 C180.032095,25.1279453 179.998342,25.0941931 179.946078,25.0662421 C179.846133,25.0127907 179.746038,24.9934615 179.271079,24.9934615 L14.7289209,24.9934615 Z" id="Rectangle-Copy-143" stroke="url(#linearGradient-6)" stroke-width="2.43"></path>
                            <ellipse id="Oval" stroke="url(#linearGradient-7)" stroke-width="1.62" cx="97.4217391" cy="262.052602" rx="6.32608696" ry="6.36923077"></ellipse>
                        </g>
                        <g id="iPad-Copy" transform="translate(1064.000000, 60.000000)">
                            <rect id="Rectangle" stroke="url(#linearGradient-5)" stroke-width="2.43" x="1.215" y="1.215" width="191.57" height="273.57" rx="7.29"></rect>
                            <path d="M14.7289209,24.9934615 C14.2539616,24.9934615 14.1538668,25.0127907 14.0539215,25.0662421 C14.0016577,25.0941931 13.9679054,25.1279453 13.9399544,25.1802091 C13.8865031,25.2801544 13.8671739,25.3802492 13.8671739,25.8552086 L13.8671739,247.597099 C13.8671739,248.072058 13.8865031,248.172153 13.9399544,248.272099 C13.9679054,248.324362 14.0016577,248.358115 14.0539215,248.386066 C14.1538668,248.439517 14.2539616,248.458846 14.7289209,248.458846 L179.271079,248.458846 C179.746038,248.458846 179.846133,248.439517 179.946078,248.386066 C179.998342,248.358115 180.032095,248.324362 180.060046,248.272099 C180.113497,248.172153 180.132826,248.072058 180.132826,247.597099 L180.132826,25.8552086 C180.132826,25.3802492 180.113497,25.2801544 180.060046,25.1802091 C180.032095,25.1279453 179.998342,25.0941931 179.946078,25.0662421 C179.846133,25.0127907 179.746038,24.9934615 179.271079,24.9934615 L14.7289209,24.9934615 Z" id="Rectangle-Copy-143" stroke="url(#linearGradient-6)" stroke-width="2.43"></path>
                            <ellipse id="Oval" stroke="url(#linearGradient-7)" stroke-width="1.62" cx="97.4217391" cy="262.052602" rx="6.32608696" ry="6.36923077"></ellipse>
                        </g>
                        <g id="mobile-phone-copy-3" transform="translate(1379.000000, 297.000000) rotate(-90.000000) translate(-1379.000000, -297.000000) translate(1336.000000, 209.000000)">
                            <path d="M16.6139761,1.62 C11.5914872,1.62 9.52747291,2.01857954 7.39402999,3.1595573 C5.56434492,4.13808359 4.13808359,5.56434492 3.1595573,7.39402999 C2.01857954,9.52747291 1.62,11.5914872 1.62,16.6139761 L1.62,159.386024 C1.62,164.408513 2.01857954,166.472527 3.1595573,168.60597 C4.13808359,170.435655 5.56434492,171.861916 7.39402999,172.840443 C9.52747291,173.98142 11.5914872,174.38 16.6139761,174.38 L69.3860239,174.38 C74.4085128,174.38 76.4725271,173.98142 78.60597,172.840443 C80.4356551,171.861916 81.8619164,170.435655 82.8404427,168.60597 C83.9814205,166.472527 84.38,164.408513 84.38,159.386024 L84.38,16.6139761 C84.38,11.5914872 83.9814205,9.52747291 82.8404427,7.39402999 C81.8619164,5.56434492 80.4356551,4.13808359 78.60597,3.1595573 C76.4725271,2.01857954 74.4085128,1.62 69.3860239,1.62 L16.6139761,1.62 Z" id="Rectangle" stroke="url(#linearGradient-8)" stroke-width="3.24"></path>
                            <rect id="Rectangle" stroke="url(#linearGradient-9)" stroke-width="1.62" x="6.77039604" y="25.3484615" width="70.7562376" height="126.149231"></rect>
                            <path d="M36.3849125,14.7896154 C36.0362805,14.7896154 35.8758258,14.822544 35.7234549,14.9040328 C35.5960336,14.9721785 35.4984542,15.0697579 35.4303086,15.1971792 C35.3488197,15.3495501 35.3158911,15.5100048 35.3158911,15.8586368 L35.3158911,16.2952094 C35.3158911,16.6438413 35.3488197,16.8042961 35.4303086,16.956667 C35.4984542,17.0840883 35.5960336,17.1816677 35.7234549,17.2498133 C35.8758258,17.3313022 36.0362805,17.3642308 36.3849125,17.3642308 L48.7636024,17.3642308 C49.1122343,17.3642308 49.2726891,17.3313022 49.42506,17.2498133 C49.5524813,17.1816677 49.6500607,17.0840883 49.7182063,16.956667 C49.7996951,16.8042961 49.8326238,16.6438413 49.8326238,16.2952094 L49.8326238,15.8586368 C49.8326238,15.5100048 49.7996951,15.3495501 49.7182063,15.1971792 C49.6500607,15.0697579 49.5524813,14.9721785 49.42506,14.9040328 C49.2726891,14.822544 49.1122343,14.7896154 48.7636024,14.7896154 L36.3849125,14.7896154 Z" id="Rectangle" stroke="url(#linearGradient-10)" stroke-width="0.81"></path>
                            <ellipse id="Oval" stroke="url(#linearGradient-11)" stroke-width="0.81" cx="42.5742574" cy="9.30769231" rx="1.7029703" ry="1.69230769"></ellipse>
                        </g>
                        <g id="Computer" transform="translate(895.000000, 351.000000)">
                            <path d="M16.6139761,1.62 C11.5914872,1.62 9.52747291,2.01857954 7.39402999,3.1595573 C5.56434492,4.13808359 4.13808359,5.56434492 3.1595573,7.39402999 C2.01857954,9.52747291 1.62,11.5914872 1.62,16.6139761 L1.62,202.375715 C1.62,207.398204 2.01857954,209.462218 3.1595573,211.595661 C4.13808359,213.425346 5.56434492,214.851607 7.39402999,215.830133 C9.52747291,216.971111 11.5914872,217.369691 16.6139761,217.369691 L283.386024,217.369691 C288.408513,217.369691 290.472527,216.971111 292.60597,215.830133 C294.435655,214.851607 295.861916,213.425346 296.840443,211.595661 C297.98142,209.462218 298.38,207.398204 298.38,202.375715 L298.38,16.6139761 C298.38,11.5914872 297.98142,9.52747291 296.840443,7.39402999 C295.861916,5.56434492 294.435655,4.13808359 292.60597,3.1595573 C290.472527,2.01857954 288.408513,1.62 283.386024,1.62 L16.6139761,1.62 Z" id="Rectangle" stroke="url(#linearGradient-12)" stroke-width="3.24"></path>
                            <rect id="Rectangle" stroke="url(#linearGradient-13)" stroke-width="3.24" x="14.3318644" y="12.6543643" width="272.183729" height="173.309828"></rect>
                            <polygon id="Path-4" stroke="url(#linearGradient-14)" stroke-width="4.05" points="117.314877 218.989691 112.401195 243.136509 100 247 200.847458 247 187.594692 243.136509 184.55289 218.989691"></polygon>
                            <ellipse id="Oval" fill="url(#linearGradient-15)" cx="151.271186" cy="7.21477663" rx="2.11864407" ry="2.12199313"></ellipse>
                        </g>
                        <g id="Computer-Copy-2" transform="translate(1379.000000, 376.000000)">
                            <path d="M16.6139761,-7.77665188e-15 L283.386024,-1.17632734e-14 C289.163065,-1.28244987e-14 291.25796,0.60150996 293.36996,1.73101992 C295.48196,2.86052988 297.13947,4.51803984 298.26898,6.63003984 C299.39849,8.74203984 300,10.8369347 300,16.6139761 L300,202.375715 C300,208.152756 299.39849,210.247651 298.26898,212.359651 C297.13947,214.471651 295.48196,216.129161 293.36996,217.258671 C291.25796,218.388181 289.163065,218.989691 283.386024,218.989691 L16.6139761,218.989691 C10.8369347,218.989691 8.74203984,218.388181 6.63003984,217.258671 C4.51803984,216.129161 2.86052988,214.471651 1.73101992,212.359651 C0.60150996,210.247651 9.14178471e-15,208.152756 8.43430118e-15,202.375715 L2.22383985e-15,16.6139761 C1.51635632e-15,10.8369347 0.60150996,8.74203984 1.73101992,6.63003984 C2.86052988,4.51803984 4.51803984,2.86052988 6.63003984,1.73101992 C8.74203984,0.60150996 10.8369347,-6.71542658e-15 16.6139761,-7.77665188e-15 Z" id="Rectangle" stroke="url(#linearGradient-12)" stroke-width="3"></path>
                            <rect id="Rectangle" stroke="url(#linearGradient-13)" stroke-width="3" x="12.7118644" y="11.0343643" width="275.423729" height="176.549828"></rect>
                            <polygon id="Path-4" stroke="url(#linearGradient-14)" stroke-width="3" points="117.314877 221 112.401195 245.146818 100 249.010309 200.847458 249.010309 187.594692 245.146818 184.55289 221"></polygon>
                            <ellipse id="Oval" stroke="url(#linearGradient-15)" cx="151.271186" cy="6.21477663" rx="2.11864407" ry="2.12199313"></ellipse>
                        </g>
                        <g id="Tabular-Copy-3" transform="translate(329.000000, 289.000000)">
                            <rect id="Rectangle" stroke="url(#linearGradient-1)" stroke-width="2.43" x="1.215" y="1.215" width="130.57" height="188.57" rx="7.29"></rect>
                            <path d="M13.4719654,19.8905556 C12.3386245,19.8905556 11.9489466,19.9658058 11.5489739,20.1797136 C11.2327101,20.3488533 10.9917691,20.5897943 10.8226294,20.9060581 C10.6087216,21.3060308 10.5334713,21.6957088 10.5334713,22.8290496 L10.5334713,170.717617 C10.5334713,171.850958 10.6087216,172.240636 10.8226294,172.640609 C10.9917691,172.956872 11.2327101,173.197813 11.5489739,173.366953 C11.9489466,173.580861 12.3386245,173.656111 13.4719654,173.656111 L120.375168,173.656111 C121.508509,173.656111 121.898187,173.580861 122.29816,173.366953 C122.614424,173.197813 122.855365,172.956872 123.024504,172.640609 C123.238412,172.240636 123.313662,171.850958 123.313662,170.717617 L123.313662,22.8290496 C123.313662,21.6957088 123.238412,21.3060308 123.024504,20.9060581 C122.855365,20.5897943 122.614424,20.3488533 122.29816,20.1797136 C121.898187,19.9658058 121.508509,19.8905556 120.375168,19.8905556 L13.4719654,19.8905556 Z" id="Rectangle-Copy-143" stroke="url(#linearGradient-2)" stroke-width="2.43"></path>
                            <ellipse id="Oval" stroke="url(#linearGradient-3)" stroke-width="1.62" cx="66.0764331" cy="181.662222" rx="4.23566879" ry="4.24444444"></ellipse>
                            <ellipse id="Oval" fill="url(#linearGradient-4)" cx="66.5" cy="11.46" rx="2.11783439" ry="2.12222222"></ellipse>
                        </g>
                        <g id="Tabular-Copy-3" transform="translate(394.000000, 60.000000)">
                            <rect id="Rectangle" stroke="url(#linearGradient-1)" stroke-width="2.43" x="1.215" y="1.215" width="130.57" height="188.57" rx="7.29"></rect>
                            <path d="M13.4719654,19.8905556 C12.3386245,19.8905556 11.9489466,19.9658058 11.5489739,20.1797136 C11.2327101,20.3488533 10.9917691,20.5897943 10.8226294,20.9060581 C10.6087216,21.3060308 10.5334713,21.6957088 10.5334713,22.8290496 L10.5334713,170.717617 C10.5334713,171.850958 10.6087216,172.240636 10.8226294,172.640609 C10.9917691,172.956872 11.2327101,173.197813 11.5489739,173.366953 C11.9489466,173.580861 12.3386245,173.656111 13.4719654,173.656111 L120.375168,173.656111 C121.508509,173.656111 121.898187,173.580861 122.29816,173.366953 C122.614424,173.197813 122.855365,172.956872 123.024504,172.640609 C123.238412,172.240636 123.313662,171.850958 123.313662,170.717617 L123.313662,22.8290496 C123.313662,21.6957088 123.238412,21.3060308 123.024504,20.9060581 C122.855365,20.5897943 122.614424,20.3488533 122.29816,20.1797136 C121.898187,19.9658058 121.508509,19.8905556 120.375168,19.8905556 L13.4719654,19.8905556 Z" id="Rectangle-Copy-143" stroke="url(#linearGradient-2)" stroke-width="2.43"></path>
                            <ellipse id="Oval" stroke="url(#linearGradient-3)" stroke-width="1.62" cx="66.0764331" cy="181.662222" rx="4.23566879" ry="4.24444444"></ellipse>
                            <ellipse id="Oval" stroke="url(#linearGradient-4)" stroke-width="0.81" cx="66.5" cy="11.46" rx="2.11783439" ry="2.12222222"></ellipse>
                        </g>
                        <g id="iPad" transform="translate(0.000000, 311.000000)">
                            <rect id="Rectangle" stroke="url(#linearGradient-5)" stroke-width="2.43" x="1.215" y="1.215" width="191.57" height="273.57" rx="7.29"></rect>
                            <path d="M14.7289209,24.9934615 C14.2539616,24.9934615 14.1538668,25.0127907 14.0539215,25.0662421 C14.0016577,25.0941931 13.9679054,25.1279453 13.9399544,25.1802091 C13.8865031,25.2801544 13.8671739,25.3802492 13.8671739,25.8552086 L13.8671739,247.597099 C13.8671739,248.072058 13.8865031,248.172153 13.9399544,248.272099 C13.9679054,248.324362 14.0016577,248.358115 14.0539215,248.386066 C14.1538668,248.439517 14.2539616,248.458846 14.7289209,248.458846 L179.271079,248.458846 C179.746038,248.458846 179.846133,248.439517 179.946078,248.386066 C179.998342,248.358115 180.032095,248.324362 180.060046,248.272099 C180.113497,248.172153 180.132826,248.072058 180.132826,247.597099 L180.132826,25.8552086 C180.132826,25.3802492 180.113497,25.2801544 180.060046,25.1802091 C180.032095,25.1279453 179.998342,25.0941931 179.946078,25.0662421 C179.846133,25.0127907 179.746038,24.9934615 179.271079,24.9934615 L14.7289209,24.9934615 Z" id="Rectangle-Copy-143" stroke="url(#linearGradient-6)" stroke-width="2.43"></path>
                            <ellipse id="Oval" stroke="url(#linearGradient-7)" stroke-width="1.62" cx="97.4217391" cy="262.052602" rx="6.32608696" ry="6.36923077"></ellipse>
                        </g>
                        <g id="iPad-Copy-3" transform="translate(477.000000, 390.000000)">
                            <rect id="Rectangle" stroke="url(#linearGradient-5)" stroke-width="2.43" x="1.215" y="1.215" width="191.57" height="273.57" rx="7.29"></rect>
                            <path d="M14.7289209,24.9934615 C14.2539616,24.9934615 14.1538668,25.0127907 14.0539215,25.0662421 C14.0016577,25.0941931 13.9679054,25.1279453 13.9399544,25.1802091 C13.8865031,25.2801544 13.8671739,25.3802492 13.8671739,25.8552086 L13.8671739,247.597099 C13.8671739,248.072058 13.8865031,248.172153 13.9399544,248.272099 C13.9679054,248.324362 14.0016577,248.358115 14.0539215,248.386066 C14.1538668,248.439517 14.2539616,248.458846 14.7289209,248.458846 L179.271079,248.458846 C179.746038,248.458846 179.846133,248.439517 179.946078,248.386066 C179.998342,248.358115 180.032095,248.324362 180.060046,248.272099 C180.113497,248.172153 180.132826,248.072058 180.132826,247.597099 L180.132826,25.8552086 C180.132826,25.3802492 180.113497,25.2801544 180.060046,25.1802091 C180.032095,25.1279453 179.998342,25.0941931 179.946078,25.0662421 C179.846133,25.0127907 179.746038,24.9934615 179.271079,24.9934615 L14.7289209,24.9934615 Z" id="Rectangle-Copy-143" stroke="url(#linearGradient-6)" stroke-width="2.43"></path>
                            <ellipse id="Oval" stroke="url(#linearGradient-7)" stroke-width="1.62" cx="97.4217391" cy="262.052602" rx="6.32608696" ry="6.36923077"></ellipse>
                        </g>
                        <g id="mobile-phone" transform="translate(575.000000, 95.000000)">
                            <path d="M16.6139761,1.62 C11.5914872,1.62 9.52747291,2.01857954 7.39402999,3.1595573 C5.56434492,4.13808359 4.13808359,5.56434492 3.1595573,7.39402999 C2.01857954,9.52747291 1.62,11.5914872 1.62,16.6139761 L1.62,159.386024 C1.62,164.408513 2.01857954,166.472527 3.1595573,168.60597 C4.13808359,170.435655 5.56434492,171.861916 7.39402999,172.840443 C9.52747291,173.98142 11.5914872,174.38 16.6139761,174.38 L69.3860239,174.38 C74.4085128,174.38 76.4725271,173.98142 78.60597,172.840443 C80.4356551,171.861916 81.8619164,170.435655 82.8404427,168.60597 C83.9814205,166.472527 84.38,164.408513 84.38,159.386024 L84.38,16.6139761 C84.38,11.5914872 83.9814205,9.52747291 82.8404427,7.39402999 C81.8619164,5.56434492 80.4356551,4.13808359 78.60597,3.1595573 C76.4725271,2.01857954 74.4085128,1.62 69.3860239,1.62 L16.6139761,1.62 Z" id="Rectangle" stroke="url(#linearGradient-8)" stroke-width="3.24"></path>
                            <rect id="Rectangle" stroke="url(#linearGradient-9)" stroke-width="1.62" x="6.77039604" y="25.3484615" width="70.7562376" height="126.149231"></rect>
                            <path d="M36.3849125,14.7896154 C36.0362805,14.7896154 35.8758258,14.822544 35.7234549,14.9040328 C35.5960336,14.9721785 35.4984542,15.0697579 35.4303086,15.1971792 C35.3488197,15.3495501 35.3158911,15.5100048 35.3158911,15.8586368 L35.3158911,16.2952094 C35.3158911,16.6438413 35.3488197,16.8042961 35.4303086,16.956667 C35.4984542,17.0840883 35.5960336,17.1816677 35.7234549,17.2498133 C35.8758258,17.3313022 36.0362805,17.3642308 36.3849125,17.3642308 L48.7636024,17.3642308 C49.1122343,17.3642308 49.2726891,17.3313022 49.42506,17.2498133 C49.5524813,17.1816677 49.6500607,17.0840883 49.7182063,16.956667 C49.7996951,16.8042961 49.8326238,16.6438413 49.8326238,16.2952094 L49.8326238,15.8586368 C49.8326238,15.5100048 49.7996951,15.3495501 49.7182063,15.1971792 C49.6500607,15.0697579 49.5524813,14.9721785 49.42506,14.9040328 C49.2726891,14.822544 49.1122343,14.7896154 48.7636024,14.7896154 L36.3849125,14.7896154 Z" id="Rectangle" stroke="url(#linearGradient-10)" stroke-width="0.81"></path>
                            <ellipse id="Oval" stroke="url(#linearGradient-11)" stroke-width="0.81" cx="42.5742574" cy="9.30769231" rx="1.7029703" ry="1.69230769"></ellipse>
                        </g>
                        <g id="mobile-phone-copy" transform="translate(219.000000, 311.000000)">
                            <path d="M16.6139761,1.62 C11.5914872,1.62 9.52747291,2.01857954 7.39402999,3.1595573 C5.56434492,4.13808359 4.13808359,5.56434492 3.1595573,7.39402999 C2.01857954,9.52747291 1.62,11.5914872 1.62,16.6139761 L1.62,159.386024 C1.62,164.408513 2.01857954,166.472527 3.1595573,168.60597 C4.13808359,170.435655 5.56434492,171.861916 7.39402999,172.840443 C9.52747291,173.98142 11.5914872,174.38 16.6139761,174.38 L69.3860239,174.38 C74.4085128,174.38 76.4725271,173.98142 78.60597,172.840443 C80.4356551,171.861916 81.8619164,170.435655 82.8404427,168.60597 C83.9814205,166.472527 84.38,164.408513 84.38,159.386024 L84.38,16.6139761 C84.38,11.5914872 83.9814205,9.52747291 82.8404427,7.39402999 C81.8619164,5.56434492 80.4356551,4.13808359 78.60597,3.1595573 C76.4725271,2.01857954 74.4085128,1.62 69.3860239,1.62 L16.6139761,1.62 Z" id="Rectangle" stroke="url(#linearGradient-8)" stroke-width="3.24"></path>
                            <rect id="Rectangle" stroke="url(#linearGradient-9)" stroke-width="1.62" x="6.77039604" y="25.3484615" width="70.7562376" height="126.149231"></rect>
                            <path d="M36.3849125,14.7896154 C36.0362805,14.7896154 35.8758258,14.822544 35.7234549,14.9040328 C35.5960336,14.9721785 35.4984542,15.0697579 35.4303086,15.1971792 C35.3488197,15.3495501 35.3158911,15.5100048 35.3158911,15.8586368 L35.3158911,16.2952094 C35.3158911,16.6438413 35.3488197,16.8042961 35.4303086,16.956667 C35.4984542,17.0840883 35.5960336,17.1816677 35.7234549,17.2498133 C35.8758258,17.3313022 36.0362805,17.3642308 36.3849125,17.3642308 L48.7636024,17.3642308 C49.1122343,17.3642308 49.2726891,17.3313022 49.42506,17.2498133 C49.5524813,17.1816677 49.6500607,17.0840883 49.7182063,16.956667 C49.7996951,16.8042961 49.8326238,16.6438413 49.8326238,16.2952094 L49.8326238,15.8586368 C49.8326238,15.5100048 49.7996951,15.3495501 49.7182063,15.1971792 C49.6500607,15.0697579 49.5524813,14.9721785 49.42506,14.9040328 C49.2726891,14.822544 49.1122343,14.7896154 48.7636024,14.7896154 L36.3849125,14.7896154 Z" id="Rectangle" stroke="url(#linearGradient-10)" stroke-width="0.81"></path>
                            <ellipse id="Oval" fill="url(#linearGradient-11)" cx="42.5742574" cy="9.30769231" rx="1.7029703" ry="1.69230769"></ellipse>
                        </g>
                        <g id="mobile-phone-copy-2" transform="translate(575.000000, 331.000000) rotate(-90.000000) translate(-575.000000, -331.000000) translate(532.000000, 243.000000)">
                            <path d="M16.6139761,1.62 C11.5914872,1.62 9.52747291,2.01857954 7.39402999,3.1595573 C5.56434492,4.13808359 4.13808359,5.56434492 3.1595573,7.39402999 C2.01857954,9.52747291 1.62,11.5914872 1.62,16.6139761 L1.62,159.386024 C1.62,164.408513 2.01857954,166.472527 3.1595573,168.60597 C4.13808359,170.435655 5.56434492,171.861916 7.39402999,172.840443 C9.52747291,173.98142 11.5914872,174.38 16.6139761,174.38 L69.3860239,174.38 C74.4085128,174.38 76.4725271,173.98142 78.60597,172.840443 C80.4356551,171.861916 81.8619164,170.435655 82.8404427,168.60597 C83.9814205,166.472527 84.38,164.408513 84.38,159.386024 L84.38,16.6139761 C84.38,11.5914872 83.9814205,9.52747291 82.8404427,7.39402999 C81.8619164,5.56434492 80.4356551,4.13808359 78.60597,3.1595573 C76.4725271,2.01857954 74.4085128,1.62 69.3860239,1.62 L16.6139761,1.62 Z" id="Rectangle" stroke="url(#linearGradient-8)" stroke-width="3.24"></path>
                            <rect id="Rectangle" stroke="url(#linearGradient-9)" stroke-width="1.62" x="6.77039604" y="25.3484615" width="70.7562376" height="126.149231"></rect>
                            <path d="M36.3849125,14.7896154 C36.0362805,14.7896154 35.8758258,14.822544 35.7234549,14.9040328 C35.5960336,14.9721785 35.4984542,15.0697579 35.4303086,15.1971792 C35.3488197,15.3495501 35.3158911,15.5100048 35.3158911,15.8586368 L35.3158911,16.2952094 C35.3158911,16.6438413 35.3488197,16.8042961 35.4303086,16.956667 C35.4984542,17.0840883 35.5960336,17.1816677 35.7234549,17.2498133 C35.8758258,17.3313022 36.0362805,17.3642308 36.3849125,17.3642308 L48.7636024,17.3642308 C49.1122343,17.3642308 49.2726891,17.3313022 49.42506,17.2498133 C49.5524813,17.1816677 49.6500607,17.0840883 49.7182063,16.956667 C49.7996951,16.8042961 49.8326238,16.6438413 49.8326238,16.2952094 L49.8326238,15.8586368 C49.8326238,15.5100048 49.7996951,15.3495501 49.7182063,15.1971792 C49.6500607,15.0697579 49.5524813,14.9721785 49.42506,14.9040328 C49.2726891,14.822544 49.1122343,14.7896154 48.7636024,14.7896154 L36.3849125,14.7896154 Z" id="Rectangle" stroke="url(#linearGradient-10)" stroke-width="0.81"></path>
                            <ellipse id="Oval" stroke="url(#linearGradient-11)" stroke-width="0.81" fill="#D8D8D8" cx="42.5742574" cy="9.30769231" rx="1.7029703" ry="1.69230769"></ellipse>
                        </g>
                        <g id="mobile-phone-copy-4" transform="translate(366.000000, 555.000000) rotate(-90.000000) translate(-366.000000, -555.000000) translate(323.000000, 467.000000)">
                            <path d="M16.6139761,1.62 C11.5914872,1.62 9.52747291,2.01857954 7.39402999,3.1595573 C5.56434492,4.13808359 4.13808359,5.56434492 3.1595573,7.39402999 C2.01857954,9.52747291 1.62,11.5914872 1.62,16.6139761 L1.62,159.386024 C1.62,164.408513 2.01857954,166.472527 3.1595573,168.60597 C4.13808359,170.435655 5.56434492,171.861916 7.39402999,172.840443 C9.52747291,173.98142 11.5914872,174.38 16.6139761,174.38 L69.3860239,174.38 C74.4085128,174.38 76.4725271,173.98142 78.60597,172.840443 C80.4356551,171.861916 81.8619164,170.435655 82.8404427,168.60597 C83.9814205,166.472527 84.38,164.408513 84.38,159.386024 L84.38,16.6139761 C84.38,11.5914872 83.9814205,9.52747291 82.8404427,7.39402999 C81.8619164,5.56434492 80.4356551,4.13808359 78.60597,3.1595573 C76.4725271,2.01857954 74.4085128,1.62 69.3860239,1.62 L16.6139761,1.62 Z" id="Rectangle" stroke="url(#linearGradient-8)" stroke-width="3.24"></path>
                            <rect id="Rectangle" stroke="url(#linearGradient-9)" stroke-width="1.62" x="7.81" y="25.81" width="70.7562376" height="126.149231"></rect>
                            <path d="M36.3849125,14.7896154 C36.0362805,14.7896154 35.8758258,14.822544 35.7234549,14.9040328 C35.5960336,14.9721785 35.4984542,15.0697579 35.4303086,15.1971792 C35.3488197,15.3495501 35.3158911,15.5100048 35.3158911,15.8586368 L35.3158911,16.2952094 C35.3158911,16.6438413 35.3488197,16.8042961 35.4303086,16.956667 C35.4984542,17.0840883 35.5960336,17.1816677 35.7234549,17.2498133 C35.8758258,17.3313022 36.0362805,17.3642308 36.3849125,17.3642308 L48.7636024,17.3642308 C49.1122343,17.3642308 49.2726891,17.3313022 49.42506,17.2498133 C49.5524813,17.1816677 49.6500607,17.0840883 49.7182063,16.956667 C49.7996951,16.8042961 49.8326238,16.6438413 49.8326238,16.2952094 L49.8326238,15.8586368 C49.8326238,15.5100048 49.7996951,15.3495501 49.7182063,15.1971792 C49.6500607,15.0697579 49.5524813,14.9721785 49.42506,14.9040328 C49.2726891,14.822544 49.1122343,14.7896154 48.7636024,14.7896154 L36.3849125,14.7896154 Z" id="Rectangle" stroke="url(#linearGradient-10)" stroke-width="0.81"></path>
                            <ellipse id="Oval" fill="url(#linearGradient-11)" cx="42.5742574" cy="9.30769231" rx="1.7029703" ry="1.69230769"></ellipse>
                        </g>
                        <g id="Computer-Copy" transform="translate(59.000000, 45.000000)">
                            <path d="M16.6139761,1.62 C11.5914872,1.62 9.52747291,2.01857954 7.39402999,3.1595573 C5.56434492,4.13808359 4.13808359,5.56434492 3.1595573,7.39402999 C2.01857954,9.52747291 1.62,11.5914872 1.62,16.6139761 L1.62,202.375715 C1.62,207.398204 2.01857954,209.462218 3.1595573,211.595661 C4.13808359,213.425346 5.56434492,214.851607 7.39402999,215.830133 C9.52747291,216.971111 11.5914872,217.369691 16.6139761,217.369691 L283.386024,217.369691 C288.408513,217.369691 290.472527,216.971111 292.60597,215.830133 C294.435655,214.851607 295.861916,213.425346 296.840443,211.595661 C297.98142,209.462218 298.38,207.398204 298.38,202.375715 L298.38,16.6139761 C298.38,11.5914872 297.98142,9.52747291 296.840443,7.39402999 C295.861916,5.56434492 294.435655,4.13808359 292.60597,3.1595573 C290.472527,2.01857954 288.408513,1.62 283.386024,1.62 L16.6139761,1.62 Z" id="Rectangle" stroke="url(#linearGradient-12)" stroke-width="3.24"></path>
                            <rect id="Rectangle" stroke="url(#linearGradient-13)" stroke-width="3.24" x="14.3318644" y="12.6543643" width="272.183729" height="173.309828"></rect>
                            <polygon id="Path-4" stroke="url(#linearGradient-14)" stroke-width="4.05" points="117.314877 218.989691 112.401195 243.136509 100 247 200.847458 247 187.594692 243.136509 184.55289 218.989691"></polygon>
                            <ellipse id="Oval" fill="url(#linearGradient-15)" cx="151.271186" cy="7.21477663" rx="2.11864407" ry="2.12199313"></ellipse>
                        </g>
                    </g>
                </g>
            </g>
        </g>
    </g>
</svg>