<svg id="Layer_1" data-name="Layer 1" xmlns="http://www.w3.org/2000/svg" viewBox="0 0 48 48"><defs><style>.cls-1{fill:#fff;}.cls-2{fill:#81a0b5;}.cls-3,.cls-4{fill:none;stroke:#6d6e71;stroke-miterlimit:10;}.cls-3{stroke-width:1.06px;}.cls-4{stroke-width:1.06px;}.cls-5{fill:#731012;}</style></defs><title>Artboard 1 copy 13</title><rect class="cls-1" x="2.55" y="9.05" width="42.89" height="23.89"/><path class="cls-2" d="M3.11,9.61H44.89V32.39H3.11V9.61M2,8.5v25H46V8.5Z"/><line class="cls-3" x1="6.04" y1="13.47" x2="42.04" y2="13.47"/><line class="cls-4" x1="6.06" y1="18.5" x2="32" y2="18.5"/><rect class="cls-2" x="6" y="23.5" width="11" height="4.79" rx="2.31"/><path class="cls-5" d="M34,25.57,35.66,39a.53.53,0,0,0,1,.13l2.13-5.4a.53.53,0,0,1,.5-.34h6a.52.52,0,0,0,.28-1l-11-7.24A.39.39,0,0,0,34,25.57Z"/></svg>