<svg id="Layer_1" data-name="Layer 1" xmlns="http://www.w3.org/2000/svg" viewBox="0 0 48 48"><defs><style>.cls-1{fill:#fff;}.cls-2{fill:#81a0b5;}</style></defs><title>Artboard 1 copy 19</title><rect class="cls-1" x="2.44" y="6.82" width="42.9" height="5.98"/><path class="cls-2" d="M44.83,7.33v5H3v-5H44.83m1-1H1.93v7H45.85v-7Z"/><rect class="cls-1" x="2.36" y="6.81" width="42.99" height="34.99"/><path class="cls-2" d="M44.85,7.31v34h-42v-34h42m1-1h-44v36h44v-36Z"/><rect class="cls-1" x="17.35" y="12.81" width="13" height="29"/><path class="cls-2" d="M29.85,13.31v28h-12v-28h12m1-1h-14v30h14v-30Z"/><path class="cls-2" d="M44.85,7.31v5h-42v-5h42m1-1h-44v7h44v-7Z"/></svg>