<svg id="Layer_1" data-name="Layer 1" xmlns="http://www.w3.org/2000/svg" viewBox="0 0 26 39"><defs><style>.cls-1{isolation:isolate;}.cls-2{fill:#b1b1b1;}</style></defs><title>icon-carousel-next</title><g id="About"><g id="icon-arrow-down" class="cls-1"><g class="cls-1"><path class="cls-2" d="M7.53.62l17.78,17.8a1.5,1.5,0,0,1,0,2.16L7.53,38.38a1.52,1.52,0,0,1-2.18,0l-4-4a1.44,1.44,0,0,1-.46-1.08,1.48,1.48,0,0,1,.46-1.08L14.13,19.5,1.39,6.76A1.46,1.46,0,0,1,.93,5.68,1.44,1.44,0,0,1,1.39,4.6l4-4a1.52,1.52,0,0,1,2.18,0Z"/></g></g></g></svg>