<svg id="Layer_1" data-name="Layer 1" xmlns="http://www.w3.org/2000/svg" viewBox="0 0 48 48"><defs><style>.cls-1,.cls-4{fill:#fff;}.cls-2,.cls-3{fill:#81a0b5;}.cls-3{font-size:3.35px;font-family:FontAwesome;letter-spacing:0.01em;}.cls-4,.cls-5,.cls-6{stroke:#6d6e71;stroke-miterlimit:10;}.cls-4{stroke-width:0.76px;}.cls-5,.cls-6{fill:none;}.cls-5{stroke-width:0.75px;}</style></defs><title>Artboard 1 copy 14</title><rect class="cls-1" x="40.53" y="8.3" width="5.17" height="21.46"/><path class="cls-2" d="M45.22,8.78V29.27H41V8.78h4.21m1-1H40V30.24h6.14V7.82Z"/><rect class="cls-1" x="7.94" y="5.94" width="32.11" height="26.85"/><path class="cls-2" d="M39.61,6.39v26H8.39v-26H39.61m.89-.89H7.5V33.24h33V5.5Z"/><text class="cls-3" transform="translate(42.56 42.07)"></text><rect class="cls-4" x="9" y="39.35" width="30" height="3.16"/><rect class="cls-2" x="9" y="39.17" width="10" height="3.08"/><rect class="cls-5" x="19.06" y="39.34" width="10" height="3.08"/><text class="cls-3" transform="translate(3.17 42.07)"></text><rect class="cls-1" x="2.66" y="8.3" width="5.17" height="21.46"/><path class="cls-2" d="M7.35,8.78V29.27H3.14V8.78H7.35m1-1H2.18V30.24H8.31V7.82Z"/><rect class="cls-1" x="10.56" y="13.33" width="13.11" height="9.11"/><path class="cls-2" d="M23.23,13.77V22H11V13.77H23.23m.89-.89h-14v10h14v-10Z"/><line class="cls-6" x1="27.12" y1="14.88" x2="38.12" y2="14.88"/><line class="cls-6" x1="27.12" y1="17.88" x2="37.12" y2="17.88"/></svg>