<svg id="Layer_1" data-name="Layer 1" xmlns="http://www.w3.org/2000/svg" viewBox="0 0 48 48"><defs><style>.cls-1{fill:#3b5999;}.cls-2{fill:#fff;}.cls-3{fill:#2baae1;}.cls-4{fill:#f15922;}.cls-5{fill:#231f20;}</style></defs><title>Artboard 1 copy 18</title><path class="cls-1" d="M2,24a5,5,0,1,1,5,5A5,5,0,0,1,2,24Zm5.62,1.88h0l2.48-2.48L7.61,20.88v1.23H7.56l-.49,0a3.87,3.87,0,0,0-.67.17,3.74,3.74,0,0,0-1.58,1,3.56,3.56,0,0,0-.61.93,3.34,3.34,0,0,0-.3,1,3.53,3.53,0,0,0-.05.56v0l0,0a3.07,3.07,0,0,1,.41-.47,2.88,2.88,0,0,1,1.16-.67,4,4,0,0,1,1-.17,5,5,0,0,1,.94.06l.19,0Z"/><path class="cls-2" d="M7.61,25.85V24.61l-.19,0a5,5,0,0,0-.94-.06,4,4,0,0,0-1,.17,2.88,2.88,0,0,0-1.16.67,3.07,3.07,0,0,0-.41.47l0,0v0a3.53,3.53,0,0,1,.05-.56,3.34,3.34,0,0,1,.3-1,3.56,3.56,0,0,1,.61-.93,3.74,3.74,0,0,1,1.58-1,3.87,3.87,0,0,1,.67-.17l.49,0h.05V20.88l2.49,2.49L7.62,25.85Z"/><path class="cls-3" d="M13.32,24a5,5,0,1,1,5,5A5,5,0,0,1,13.32,24Zm5.62,1.88h0l2.49-2.48-2.5-2.49v1.23h0l-.5,0a3.87,3.87,0,0,0-.67.17,3.74,3.74,0,0,0-1.58,1,3.83,3.83,0,0,0-.61.93,4.11,4.11,0,0,0-.3,1,3.53,3.53,0,0,0-.05.56s0,0,0,0l0,0a2.88,2.88,0,0,1,1.56-1.14,4,4,0,0,1,1-.17,4.9,4.9,0,0,1,.94.06l.19,0Z"/><path class="cls-2" d="M18.94,25.85V24.61l-.19,0a4.9,4.9,0,0,0-.94-.06,4,4,0,0,0-1,.17,2.88,2.88,0,0,0-1.56,1.14l0,0s0,0,0,0a3.53,3.53,0,0,1,.05-.56,4.11,4.11,0,0,1,.3-1,3.83,3.83,0,0,1,.61-.93,3.74,3.74,0,0,1,1.58-1,3.87,3.87,0,0,1,.67-.17l.5,0h0V20.88l2.5,2.49L19,25.85Z"/><path class="cls-4" d="M24.65,24a5,5,0,1,1,5,5A5,5,0,0,1,24.65,24Zm5.62,1.88h0l2.49-2.48-2.5-2.49v1.23h0l-.49,0a4,4,0,0,0-.68.17,3.7,3.7,0,0,0-1.57,1,3.87,3.87,0,0,0-.62.93,4.11,4.11,0,0,0-.3,1,3.52,3.52,0,0,0,0,.56v0l0,0a2.61,2.61,0,0,1,.41-.47,2.91,2.91,0,0,1,1.15-.67,4.11,4.11,0,0,1,1-.17,4.85,4.85,0,0,1,.93.06l.19,0Z"/><path class="cls-2" d="M30.27,25.85V24.61l-.19,0a4.85,4.85,0,0,0-.93-.06,4.11,4.11,0,0,0-1,.17,2.91,2.91,0,0,0-1.15.67,2.61,2.61,0,0,0-.41.47l0,0v0a3.52,3.52,0,0,1,0-.56,4.11,4.11,0,0,1,.3-1,3.87,3.87,0,0,1,.62-.93,3.7,3.7,0,0,1,1.57-1,4,4,0,0,1,.68-.17l.49,0h0V20.88l2.5,2.49-2.49,2.48Z"/><path class="cls-5" d="M36,24a5,5,0,1,1,5,5A5,5,0,0,1,36,24Zm5.62,1.88h0l2.48-2.48-2.49-2.49v1.23h0l-.49,0a3.87,3.87,0,0,0-.67.17,3.74,3.74,0,0,0-1.58,1,3.56,3.56,0,0,0-.61.93,3.34,3.34,0,0,0-.3,1,3.53,3.53,0,0,0,0,.56v0l0,0a3.07,3.07,0,0,1,.41-.47,2.88,2.88,0,0,1,1.16-.67,4,4,0,0,1,1-.17,5,5,0,0,1,.94.06l.19,0Z"/><path class="cls-2" d="M41.61,25.85V24.61l-.19,0a5,5,0,0,0-.94-.06,4,4,0,0,0-1,.17,2.88,2.88,0,0,0-1.16.67,3.07,3.07,0,0,0-.41.47l0,0v0a3.53,3.53,0,0,1,0-.56,3.34,3.34,0,0,1,.3-1,3.56,3.56,0,0,1,.61-.93,3.74,3.74,0,0,1,1.58-1,3.87,3.87,0,0,1,.67-.17l.49,0h0V20.88l2.49,2.49-2.48,2.48Z"/></svg>