<svg id="Layer_1" data-name="Layer 1" xmlns="http://www.w3.org/2000/svg" viewBox="0 0 48 48"><defs><style>.cls-1{fill:#fff;}.cls-2{fill:#81a0b5;}.cls-3{fill:none;stroke:#6d6e71;stroke-miterlimit:10;stroke-width:0.75px;}</style></defs><title>Artboard 1 copy 2</title><rect class="cls-1" x="34.36" y="3.38" width="11.25" height="7.25"/><path class="cls-2" d="M45.24,3.75v6.5H34.74V3.75h10.5M46,3H34v8H46V3Z"/><line class="cls-3" x1="33.99" y1="13" x2="45.99" y2="13"/><rect class="cls-1" x="18.36" y="3.38" width="11.25" height="7.25"/><path class="cls-2" d="M29.24,3.75v6.5H18.74V3.75h10.5M30,3H18v8H30V3Z"/><line class="cls-3" x1="17.99" y1="13" x2="29.99" y2="13"/><rect class="cls-1" x="2.36" y="3.38" width="11.25" height="7.25"/><path class="cls-2" d="M13.24,3.75v6.5H2.74V3.75h10.5M14,3H2v8H14V3Z"/><line class="cls-3" x1="1.99" y1="13" x2="13.99" y2="13"/><rect class="cls-1" x="34.36" y="18.38" width="11.25" height="7.25"/><path class="cls-2" d="M45.24,18.75v6.5H34.74v-6.5h10.5M46,18H34v8H46V18Z"/><line class="cls-3" x1="33.99" y1="28" x2="45.99" y2="28"/><rect class="cls-1" x="18.36" y="18.38" width="11.25" height="7.25"/><path class="cls-2" d="M29.24,18.75v6.5H18.74v-6.5h10.5M30,18H18v8H30V18Z"/><line class="cls-3" x1="17.99" y1="28" x2="29.99" y2="28"/><rect class="cls-1" x="2.36" y="18.38" width="11.25" height="7.25"/><path class="cls-2" d="M13.24,18.75v6.5H2.74v-6.5h10.5M14,18H2v8H14V18Z"/><line class="cls-3" x1="1.99" y1="28" x2="13.99" y2="28"/><rect class="cls-1" x="34.36" y="33.38" width="11.25" height="7.25"/><path class="cls-2" d="M45.24,33.75v6.5H34.74v-6.5h10.5M46,33H34v8H46V33Z"/><line class="cls-3" x1="33.99" y1="43" x2="45.99" y2="43"/><rect class="cls-1" x="18.36" y="33.38" width="11.25" height="7.25"/><path class="cls-2" d="M29.24,33.75v6.5H18.74v-6.5h10.5M30,33H18v8H30V33Z"/><line class="cls-3" x1="17.99" y1="43" x2="29.99" y2="43"/><rect class="cls-1" x="2.36" y="33.38" width="11.25" height="7.25"/><path class="cls-2" d="M13.24,33.75v6.5H2.74v-6.5h10.5M14,33H2v8H14V33Z"/><line class="cls-3" x1="1.99" y1="43" x2="13.99" y2="43"/></svg>