<svg id="Layer_1" data-name="Layer 1" xmlns="http://www.w3.org/2000/svg" viewBox="0 0 26 39"><defs><style>.cls-1{isolation:isolate;}.cls-2{fill:#b1b1b1;}</style></defs><title>icon-carousel-prev</title><g id="About"><g id="icon-arrow-down" class="cls-1"><g class="cls-1"><path class="cls-2" d="M18.47,38.38.69,20.58a1.5,1.5,0,0,1,0-2.16L18.47.62a1.52,1.52,0,0,1,2.18,0l4,4a1.44,1.44,0,0,1,.46,1.08,1.48,1.48,0,0,1-.46,1.08L11.87,19.5,24.61,32.24a1.46,1.46,0,0,1,.46,1.08,1.44,1.44,0,0,1-.46,1.08l-4,4a1.52,1.52,0,0,1-2.18,0Z"/></g></g></g></svg>