<svg id="Layer_1" data-name="Layer 1" xmlns="http://www.w3.org/2000/svg" viewBox="0 0 48 48"><defs><style>.cls-1,.cls-4{fill:#fff;}.cls-2,.cls-5{fill:#81a0b5;}.cls-3{fill:#63cbe5;}.cls-4{stroke:#c9292c;stroke-width:0.8px;}.cls-4,.cls-6,.cls-7{stroke-miterlimit:10;}.cls-5{font-size:3.35px;font-family:FontAwesome;letter-spacing:0.01em;}.cls-6,.cls-7{fill:none;stroke:#6d6e71;}.cls-6{stroke-width:0.76px;}.cls-7{stroke-width:0.75px;}</style></defs><title>Artboard 1 copy 11</title><rect class="cls-1" x="40.53" y="8.3" width="5.17" height="21.46"/><path class="cls-2" d="M45.22,8.78V29.27H41V8.78h4.21m1-1H40V30.24h6.14V7.82Z"/><rect class="cls-3" x="7.95" y="5.94" width="32.11" height="26.85"/><path class="cls-2" d="M39.61,6.39v26H8.39v-26H39.61m.89-.89H7.5V33.24h33V5.5Z"/><path class="cls-4" d="M13.18,13.48v2.07a2.2,2.2,0,0,0,1.1,1.91l1.79,1a2.23,2.23,0,0,0,2.21,0l1.79-1a2.19,2.19,0,0,0,1.11-1.91V13.48a2.19,2.19,0,0,0-1.11-1.91l-1.79-1a2.23,2.23,0,0,0-2.21,0l-1.79,1A2.2,2.2,0,0,0,13.18,13.48Z"/><path class="cls-1" d="M9.13,32.72,14.3,25a1,1,0,0,1,.82-.44,1,1,0,0,1,.75.35l2.86,3.4,8.84-14a1,1,0,0,1,.83-.45,1,1,0,0,1,.86.51L39.31,32.72Z"/><path class="cls-2" d="M28.4,14.38a.46.46,0,0,1,.42.24l9.63,17.59H10.09l4.64-7a.46.46,0,0,1,.39-.21.49.49,0,0,1,.36.17l2.41,2.86.9,1.07L19.54,28,28,14.6a.46.46,0,0,1,.4-.22m0-1a1.47,1.47,0,0,0-1.26.7L18.67,27.41l-2.4-2.86A1.52,1.52,0,0,0,15.12,24a1.49,1.49,0,0,0-1.24.67l-5.7,8.55h32L29.71,14.13a1.49,1.49,0,0,0-1.31-.78Z"/><text class="cls-5" transform="translate(42.56 42.07)"></text><rect class="cls-6" x="9" y="39.35" width="30" height="3.16"/><rect class="cls-2" x="9" y="39.17" width="10" height="3.08"/><rect class="cls-7" x="19.06" y="39.34" width="10" height="3.08"/><text class="cls-5" transform="translate(3.17 42.07)"></text><rect class="cls-1" x="2.66" y="8.3" width="5.17" height="21.46"/><path class="cls-2" d="M7.35,8.78V29.27H3.14V8.78H7.35m1-1H2.18V30.24H8.31V7.82Z"/></svg>