<svg id="Layer_1" data-name="Layer 1" xmlns="http://www.w3.org/2000/svg" viewBox="0 0 48 48"><defs><style>.cls-1{fill:none;stroke:#6d6e71;stroke-miterlimit:10;}.cls-2{fill:#81a0b5;}</style></defs><title>Artboard 1 copy 18</title><line class="cls-1" x1="2.03" y1="28.57" x2="46.03" y2="28.57"/><line class="cls-1" x1="2.03" y1="34.07" x2="46.03" y2="34.07"/><rect class="cls-2" x="2.03" y="6.07" width="44" height="7"/><path class="cls-2" d="M46,23.07h-.75v-1H46Zm-1.5,0h-.75v-1h.75Zm-1.5,0h-.75v-1H43Zm-1.5,0h-.74v-1h.74Zm-1.49,0h-.75v-1H40Zm-1.5,0h-.75v-1h.75Zm-1.5,0h-.75v-1H37Zm-1.5,0h-.75v-1h.75Zm-1.5,0h-.75v-1H34Zm-1.5,0h-.75v-1h.75Zm-1.49,0H30.3v-1h.75Zm-1.5,0H28.8v-1h.75Zm-1.5,0H27.3v-1h.75Zm-1.5,0H25.8v-1h.75Zm-1.5,0H24.3v-1h.75Zm-1.5,0H22.8v-1h.75Zm-1.5,0h-.74v-1h.74Zm-1.49,0h-.75v-1h.75Zm-1.5,0h-.75v-1h.75Zm-1.5,0h-.75v-1h.75Zm-1.5,0h-.75v-1h.75Zm-1.5,0h-.75v-1h.75Zm-1.5,0h-.75v-1h.75Zm-1.49,0h-.75v-1h.75Zm-1.5,0H9.32v-1h.75Zm-1.5,0H7.82v-1h.75Zm-1.5,0H6.32v-1h.75Zm-1.5,0H4.82v-1h.75Zm-1.5,0H3.32v-1h.75Zm-1.5,0H2v-1h.54Z"/><polygon class="cls-2" points="45.06 23.07 45.02 9.62 3 10.05 3 23.07 2.03 23.07 2.03 9.03 45.99 8.57 46.03 23.07 45.06 23.07"/></svg>