<svg id="Layer_1" data-name="Layer 1" xmlns="http://www.w3.org/2000/svg" viewBox="0 0 48 48"><defs><style>.cls-1{fill:none;stroke:#6d6e71;stroke-miterlimit:10;}.cls-2{fill:#81a0b5;}</style></defs><title>Artboard 1 copy 20</title><line class="cls-1" x1="7.85" y1="18.96" x2="39.85" y2="18.96"/><line class="cls-1" x1="7.85" y1="26.96" x2="39.85" y2="26.96"/><line class="cls-1" x1="7.85" y1="34.96" x2="39.85" y2="34.96"/><path class="cls-2" d="M44.85,14V41h-42V14h42m1-1h-44v29h44V13Z"/><path class="cls-2" d="M29.87,6.94v3h-11v-3h11m1-1h-13v5h13V6Z"/><path class="cls-2" d="M44.87,6.94v3h-11v-3h11m1-1h-13v5h13V6Z"/><rect class="cls-2" x="2.33" y="6.44" width="12.04" height="4.04"/><path class="cls-2" d="M13.89,6.92V10H2.82V6.92H13.89m1-1h-13v5h13V6Z"/></svg>