<svg version="1.1" id="Layer_1" xmlns="http://www.w3.org/2000/svg" xmlns:xlink="http://www.w3.org/1999/xlink" x="0px" y="0px"
	 viewBox="0 0 24.1 24.1" style="enable-background:new 0 0 24.1 24.1;" xml:space="preserve">
<style type="text/css">
	.st0{fill:none;}
	.st1{fill:none;stroke:#FFFFFF;stroke-miterlimit:10;}
</style>
<g>
	<rect x="2.1" y="1.1" class="st0" width="20" height="20"/>
	<g>
		<path d="M7.6,2.4v19.3h14.5V2.4H7.6z"/>
	</g>
	<g>
		<path d="M2.1,2.4v2.3h4.2V2.4H2.1z"/>
	</g>
	<g>
		<path d="M2.1,6.7v2.3h4.2V6.7H2.1z"/>
	</g>
	<g>
		<path d="M2.1,10.9v2.3h4.2v-2.3H2.1z"/>
	</g>
	<g>
		<path d="M2.1,15.2v2.3h4.2v-2.3H2.1z"/>
	</g>
	<g>
		<path d="M2.1,19.5v2.3h4.2v-2.3H2.1z"/>
	</g>
	<line class="st1" x1="19.3" y1="18.1" x2="10" y2="18.1"/>
	<line class="st1" x1="19.3" y1="14.9" x2="10" y2="14.9"/>
	<line class="st1" x1="19.3" y1="11.7" x2="10" y2="11.7"/>
	<line class="st1" x1="19.3" y1="8.5" x2="10" y2="8.5"/>
	<line class="st1" x1="19.3" y1="5.3" x2="10" y2="5.3"/>
</g>
</svg>
