<?xml version="1.0" encoding="UTF-8"?>
<svg width="279px" height="207px" viewBox="0 0 279 207" version="1.1" xmlns="http://www.w3.org/2000/svg" xmlns:xlink="http://www.w3.org/1999/xlink">
    <!-- Generator: Sketch 54.1 (76490) - https://sketchapp.com -->
    <title>Classic Header Statement + Image</title>
    <desc>Created with Sketch.</desc>
    <defs>
        <polygon id="path-1" points="0 0 57.475 0 57.475 42.5315 0 42.5315"></polygon>
    </defs>
    <g id="Classic-Header-Statement-+-Image" stroke="none" stroke-width="1" fill="none" fill-rule="evenodd">
        <rect id="Rectangle-Copy-14" fill="#313131" x="0" y="0" width="279" height="207"></rect>
        <g id="Section" transform="translate(51.000000, 41.000000)">
            <path d="M3.4485,63.79725 L102.3055,64.372" id="Line" stroke="#FFFFFF" stroke-width="4.598" stroke-linecap="square"></path>
            <path d="M3.4485,101.73075 L174.27089,101.73075" id="Line-Copy" stroke="#FFFFFF" stroke-linecap="square"></path>
            <path d="M3.4485,83.33875 L174.27089,83.33875" id="Line-Copy-3" stroke="#FFFFFF" stroke-linecap="square"></path>
            <path d="M3.4485,123.57125 L112.19599,123.57125" id="Line-Copy-2" stroke="#FFFFFF" stroke-linecap="square"></path>
            <text id="COMPANY-NAME" font-family="Helvetica-Bold, Helvetica" font-size="20.691" font-weight="bold" letter-spacing="0.265534407" fill="#FFFFFF">
                <tspan x="0" y="20">COMPANY</tspan>
                <tspan x="0" y="45">NAME</tspan>
            </text>
            <g id="Group-3" transform="translate(120.697500, 8.046500)">
                <mask id="mask-2" fill="white">
                    <use xlink:href="#path-1"></use>
                </mask>
                <g id="Clip-2"></g>
                <path d="M12.8109748,36.2659536 L3.28219472,42.5315 L1.58100836,40.0141167 L11.0163167,33.9213579 L12.8109748,36.2659536 Z M1.3459936,39.6446169 L0,37.5844563 L2.06973223,36.2446874 L3.41305521,38.304848 L1.3459936,39.6446169 Z M3.7602361,38.0762366 L2.4142425,36.0187343 L4.48397472,34.6789654 L5.82996833,36.7364677 L3.7602361,38.0762366 Z M4.83115561,34.4530123 L6.89821722,33.1132433 L8.24421082,35.1707456 L6.17981984,36.5105146 L4.83115561,34.4530123 Z M44.9492428,8.21587045 C47.1124468,8.59600331 48.5545828,10.6481891 48.1700132,12.8013892 C47.7907848,14.9545892 45.7263938,16.390056 43.5658604,16.0099231 C41.3999858,15.6297903 39.9578498,13.5776045 40.3424194,11.4244044 C40.7243184,9.27120432 42.7887094,7.8357376 44.9492428,8.21587045 L44.9492428,8.21587045 Z M11.4916875,33.6209732 C9.87596101,30.1731948 9.99079776,8.86714702 20.4382719,5.45392614 C20.4382719,5.45392614 16.6112703,7.22965165 17.9626051,12.1421378 C19.7252158,8.80866504 22.9379743,3.07477296 32.0982086,1.55424154 C37.9682362,0.855116078 28.8801088,1.82538525 30.6427195,6.96914102 C30.6988025,4.80530784 45.1762456,-4.00154634 57.0685264,2.14171959 C60.2892968,25.4946366 43.3121513,26.799848 43.3121513,26.799848 C43.3121513,26.799848 46.9682332,27.3820095 49.1421197,26.682884 C46.9121501,36.3829175 33.6952407,36.9438129 33.6952407,36.9438129 C33.6952407,36.9438129 38.7160105,38.187884 42.2412318,37.541924 C30.1433131,45.4343327 13.6495502,36.3589931 13.6495502,36.3589931 C13.5854553,36.3802593 13.4465829,36.2579788 13.2649806,36.0426587 L40.6682353,17.0439908 C41.3919739,17.5703286 42.2465731,17.9398284 43.1919733,18.1072995 C46.516898,18.6947775 49.6922678,16.4857538 50.2798047,13.1708889 C50.8673416,9.86134064 48.6480545,6.70331385 45.3204592,6.11849407 C41.9955346,5.53101602 38.8201647,7.74269809 38.2352985,11.0549046 C37.9442006,12.6711338 38.3314409,14.2554638 39.18604,15.5154846 L19.5489547,29.3225479 L19.0014772,28.5277246 L11.5210643,33.6342646 L11.4916875,33.6209732 Z" id="Fill-1" fill="#FEFEFE" mask="url(#mask-2)"></path>
            </g>
        </g>
    </g>
</svg>