<?xml version="1.0" encoding="UTF-8"?>
<svg width="279px" height="207px" viewBox="0 0 279 207" version="1.1" xmlns="http://www.w3.org/2000/svg" xmlns:xlink="http://www.w3.org/1999/xlink">
    <!-- Generator: Sketch 54.1 (76490) - https://sketchapp.com -->
    <title>Clear Section</title>
    <desc>Created with Sketch.</desc>
    <defs>
        <polygon id="path-1" points="82 0 133 0 133 51 82 51"></polygon>
    </defs>
    <g id="Clear-Section" stroke="none" stroke-width="1" fill="none" fill-rule="evenodd">
        <rect id="Rectangle-Copy-34" stroke="#979797" fill="#FFFFFF" x="0.5" y="0.5" width="278" height="206"></rect>
        <g id="Group-3" transform="translate(32.000000, 52.000000)">
            <mask id="mask-2" fill="white">
                <use xlink:href="#path-1"></use>
            </mask>
            <g id="Clip-2"></g>
            <path d="M110.824881,25.5177928 C110.990492,25.3799106 111.075351,25.3200362 111.147891,25.2478447 C113.405197,22.989382 115.661819,20.7302349 117.916387,18.469035 C118.092606,18.2918067 118.259586,18.1043143 118.420748,17.9130583 C119.050686,17.1665099 119.104065,16.332716 118.691406,15.489 C118.24145,14.5686448 117.480119,14.0544091 116.434784,14.0376443 C115.721014,14.0263537 115.192359,14.4153663 114.71195,14.895388 C112.397844,17.2092774 110.079289,19.5197454 107.767578,21.836714 C107.682377,21.9222489 107.649871,22.0604732 107.592728,22.1740635 C107.379213,22.0101787 107.322412,21.9222489 107.250214,21.8500575 C104.991539,19.5926211 102.732522,17.3362111 100.470768,15.0821962 C100.293865,14.9056522 100.106355,14.7386881 99.9147392,14.5771983 C99.1684629,13.948688 98.3345907,13.8929193 97.4904533,14.3065659 C96.5706961,14.7575058 96.0547013,15.5170555 96.0389614,16.563318 C96.0286962,17.2773631 96.417061,17.8056265 96.8967856,18.2856482 C99.2112344,20.5998797 101.521919,22.9178748 103.838763,25.2293692 C103.924306,25.3149041 104.062201,25.3474073 104.175802,25.4048868 C103.992398,25.6300146 103.892484,25.7069959 103.803862,25.7956101 C101.522261,28.0780226 99.2416876,30.3614616 96.9624826,32.6462691 C96.8259561,32.7831249 96.6928513,32.9251128 96.5717226,33.0756542 C95.9650523,33.8280189 95.8884059,34.6601022 96.3075661,35.505871 C96.7688134,36.435464 97.5349357,36.9582531 98.5990894,36.9538053 C99.2820639,36.9514103 99.7984008,36.5907953 100.264096,36.1244592 C102.584704,33.8006478 104.911813,31.4829948 107.231395,29.1578149 C107.316938,29.07228 107.349444,28.9340556 107.406587,28.8204653 C107.63721,28.9997464 107.709751,29.1037568 107.798031,29.1923709 C110.080315,31.4740992 112.364653,33.7541168 114.648991,36.0337922 C114.761907,36.1463561 114.878246,36.2558407 114.998006,36.3608776 C115.727174,37.0006784 116.558993,37.1211115 117.409631,36.7013064 C118.297567,36.2630257 118.867282,35.5424799 118.930926,34.5095608 C118.975751,33.7818301 118.61955,33.2258534 118.126823,32.7328304 C115.812374,30.4185989 113.501005,28.1012881 111.186214,25.7877409 C111.098618,25.7001531 110.986386,25.6371995 110.824881,25.5177928 M107.493156,51 C93.3385431,50.9709181 81.9938434,39.6009386 82.0000025,25.4904216 C82.0054773,11.3371373 93.3953435,-0.00683969574 107.506843,3.09409242e-06 C121.679933,0.00684588393 133.007524,11.4120658 132.999996,25.5041072 C132.992126,39.6758671 121.586178,50.9842616 107.493156,51" id="Fill-1" fill="#819FB3" mask="url(#mask-2)"></path>
            <text id="CLEAR-SECTION" fill="#819FB3" font-family="Muli-Black, Muli" font-size="26" font-weight="700" line-spacing="24" letter-spacing="0.2559375">
                <tspan x="0" y="105">CLEAR SECTION</tspan>
            </text>
        </g>
    </g>
</svg>