<?xml version="1.0" encoding="UTF-8"?>
<svg width="279px" height="207px" viewBox="0 0 279 207" version="1.1" xmlns="http://www.w3.org/2000/svg" xmlns:xlink="http://www.w3.org/1999/xlink">
    <!-- Generator: Sketch 54.1 (76490) - https://sketchapp.com -->
    <title>Event Details</title>
    <desc>Created with Sketch.</desc>
    <defs>
        <polygon id="path-1" points="0 0 73.568 0 73.568 93.1095 0 93.1095"></polygon>
    </defs>
    <g id="Event-Details" stroke="none" stroke-width="1" fill="none" fill-rule="evenodd">
        <rect id="Rectangle-Copy-18" fill="#313131" x="0" y="0" width="279" height="207"></rect>
        <g id="Section-Copy" transform="translate(31.000000, 37.000000)">
            <text id="HEADING" font-family="Helvetica-Bold, Helvetica" font-size="16.72" font-weight="bold" letter-spacing="0.2145733" fill="#FFFFFF">
                <tspan x="0" y="21">HEADING</tspan>
            </text>
            <path d="M1.1495,38.9335 L100.0065,38.9335" id="Line-Copy-2" stroke="#FFFFFF" stroke-linecap="square"></path>
            <path d="M1.1495,71.1495 L71.269,71.1495" id="Line-Copy-3" stroke="#FFFFFF" stroke-linecap="square"></path>
            <path d="M140.239,113.053 L177.023,113.053" id="Line-Copy-5" stroke="#FFFFFF" stroke-linecap="square"></path>
            <path d="M140.239,124.548 L177.023,124.548" id="Line-Copy-6" stroke="#FFFFFF" stroke-linecap="square"></path>
            <path d="M1.1495,55.1495 L100.0065,55.1495" id="Line-Copy-4" stroke="#FFFFFF" stroke-linecap="square"></path>
            <g id="covert-nine-website-2019-352" transform="translate(140.239000, 6.149500)">
                <mask id="mask-2" fill="white">
                    <use xlink:href="#path-1"></use>
                </mask>
                <g id="Mask"></g>
            </g>
        </g>
        <g id="IMG" transform="translate(174.000000, 44.000000)">
            <g id="Group-22">
                <polygon id="Fill-1" fill="#63CAE4" points="1.07042254 93.7010061 74.9295775 93.7010061 74.9295775 1.02968139 1.07042254 1.02968139"></polygon>
                <polygon id="Fill-2" fill="#819FB3" points="0 94.7306875 76 94.7306875 76 0 0 0"></polygon>
                <g id="Group-21" transform="translate(0.000000, 10.296814)">
                    <polygon id="Fill-3" fill="#D0E0EA" points="1.07042254 83.4041922 17.8670623 46.7363001 32.0342629 63.2384944 50.2229586 19.5639463 71.7183099 83.4041922"></polygon>
                    <path d="M51.5140845,14.4155394 L32.7816901,59.7215204 L18.7323944,43.2466182 L0,84.4338736 L74.9295775,84.4338736 L51.5140845,14.4155394 Z M51.3880718,23.6826719 L70.6478873,81.3448294 L5.35211268,81.3448294 L19.955028,49.1920469 L30.7315993,61.8321223 L34.0290318,65.7084667 L35.9669965,61.0175579 L51.3880718,23.6826719 Z" id="Fill-4" fill="#D0E0EA"></path>
                    <path d="M10.8523718,9.21070593 L10.8523718,14.4538435 C10.8523718,16.4473067 11.9570479,18.288377 13.7510761,19.2851086 L18.4694986,21.904618 C20.2635268,22.9013496 22.4728789,22.9013496 24.266907,21.904618 L28.9853296,19.2851086 C30.7793577,18.288377 31.8840338,16.4473067 31.8840338,14.4538435 L31.8840338,9.21070593 C31.8840338,7.22136149 30.7793577,5.37617245 28.9853296,4.38355959 L24.266907,1.75993142 C22.4728789,0.763199843 20.2635268,0.763199843 18.4694986,1.75993142 L13.7510761,4.38355959 C11.9570479,5.37617245 10.8523718,7.22136149 10.8523718,9.21070593" id="Fill-5" fill="#FEFEFE"></path>
                    <path d="M10.8523718,9.21070593 L10.8523718,14.4538435 C10.8523718,16.4473067 11.9570479,18.288377 13.7510761,19.2851086 L18.4694986,21.904618 C20.2635268,22.9013496 22.4728789,22.9013496 24.266907,21.904618 L28.9853296,19.2851086 C30.7793577,18.288377 31.8840338,16.4473067 31.8840338,14.4538435 L31.8840338,9.21070593 C31.8840338,7.22136149 30.7793577,5.37617245 28.9853296,4.38355959 L24.266907,1.75993142 C22.4728789,0.763199843 20.2635268,0.763199843 18.4694986,1.75993142 L13.7510761,4.38355959 C11.9570479,5.37617245 10.8523718,7.22136149 10.8523718,9.21070593 Z" id="Stroke-7" stroke="#C8282C" stroke-width="2.0691"></path>
                </g>
            </g>
        </g>
    </g>
</svg>