<?xml version="1.0" encoding="UTF-8"?>
<svg width="279px" height="207px" viewBox="0 0 279 207" version="1.1" xmlns="http://www.w3.org/2000/svg" xmlns:xlink="http://www.w3.org/1999/xlink">
    <!-- Generator: Sketch 54.1 (76490) - https://sketchapp.com -->
    <title>FAQS 2 Col with Small Toggles</title>
    <desc>Created with Sketch.</desc>
    <g id="FAQS-2-Col-with-Small-Toggles" stroke="none" stroke-width="1" fill="none" fill-rule="evenodd">
        <rect id="Rectangle-Copy-24" fill="#313131" x="0" y="0" width="279" height="207"></rect>
        <g id="20160916-riot-fest-friday-491" transform="translate(141.000000, 93.000000)">
            <g id="plus">
                <ellipse id="Oval" stroke="#FFFFFF" stroke-width="2.299" cx="6.83870968" cy="6.97058824" rx="6.83870968" ry="6.97058824"></ellipse>
                <polygon id="+" fill="#FFFFFF" fill-rule="nonzero" points="3.82562584 8.11873851 3.82562584 6.63816923 6.10742188 6.63816923 6.10742188 4.31237075 7.57111055 4.31237075 7.57111055 6.63816923 9.85290659 6.63816923 9.85290659 8.11873851 7.57111055 8.11873851 7.57111055 10.4558824 6.10742188 10.4558824 6.10742188 8.11873851"></polygon>
                <path d="M27.5,72.3123707 L93,72.3123707" id="Line-2-Copy-2" stroke="#FFFFFF" stroke-linecap="square"></path>
            </g>
            <g id="plus-copy" transform="translate(0.000000, 33.000000)">
                <ellipse id="Oval" stroke="#FFFFFF" stroke-width="2.299" cx="6.83870968" cy="6.97058824" rx="6.83870968" ry="6.97058824"></ellipse>
                <polygon id="+" fill="#FFFFFF" fill-rule="nonzero" points="3.82562584 8.11873851 3.82562584 6.63816923 6.10742188 6.63816923 6.10742188 4.31237075 7.57111055 4.31237075 7.57111055 6.63816923 9.85290659 6.63816923 9.85290659 8.11873851 7.57111055 8.11873851 7.57111055 10.4558824 6.10742188 10.4558824 6.10742188 8.11873851"></polygon>
                <path d="M27.5,7.31237075 L93,7.31237075" id="Line-2-Copy" stroke="#FFFFFF" stroke-linecap="square"></path>
            </g>
            <g id="plus-copy-2" transform="translate(0.000000, 6.000000)">
                <ellipse id="Oval" stroke="#FFFFFF" stroke-width="2.299" cx="6.83870968" cy="65.9705882" rx="6.83870968" ry="6.97058824"></ellipse>
                <polygon id="+" fill="#FFFFFF" fill-rule="nonzero" points="3.82562584 67.1187385 3.82562584 65.6381692 6.10742188 65.6381692 6.10742188 63.3123707 7.57111055 63.3123707 7.57111055 65.6381692 9.85290659 65.6381692 9.85290659 67.1187385 7.57111055 67.1187385 7.57111055 69.4558824 6.10742188 69.4558824 6.10742188 67.1187385"></polygon>
                <path d="M27.5,1.31237075 L93,1.31237075" id="Line-2" stroke="#FFFFFF" stroke-linecap="square"></path>
            </g>
        </g>
        <g id="IMG" transform="translate(39.000000, 46.000000)">
            <g id="Group-22">
                <polygon id="Fill-1" fill="#63CAE4" points="1.14473684 133.267134 85.8552632 133.267134 85.8552632 1.464474 1.14473684 1.464474"></polygon>
                <polygon id="Fill-2" fill="#819FB3" points="0 132.844828 87 132.844828 87 0 0 0"></polygon>
                <g id="Group-21" transform="translate(3.434211, 15.840445)">
                    <polygon id="Fill-3" fill="#D0E0EA" points="0 117.827586 19.3235643 74.7003567 35.6221107 94.1095422 56.5471551 42.7413793 81.2763158 117.827586"></polygon>
                    <path d="M11.7677529,11.904308 L11.7677529,19.3614096 C11.7677529,22.1966313 13.3151791,24.8151108 15.8282473,26.2327216 L22.4377966,29.9583435 C24.9508648,31.3759543 28.0457173,31.3759543 30.5587855,29.9583435 L37.1683348,26.2327216 C39.681403,24.8151108 41.2288292,22.1966313 41.2288292,19.3614096 L41.2288292,11.904308 C41.2288292,9.07494426 39.681403,6.45060686 37.1683348,5.03885392 L30.5587855,1.30737418 C28.0457173,-0.110236652 24.9508648,-0.110236652 22.4377966,1.30737418 L15.8282473,5.03885392 C13.3151791,6.45060686 11.7677529,9.07494426 11.7677529,11.904308" id="Fill-5" fill="#FEFEFE"></path>
                    <path d="M11.7677529,11.904308 L11.7677529,19.3614096 C11.7677529,22.1966313 13.3151791,24.8151108 15.8282473,26.2327216 L22.4377966,29.9583435 C24.9508648,31.3759543 28.0457173,31.3759543 30.5587855,29.9583435 L37.1683348,26.2327216 C39.681403,24.8151108 41.2288292,22.1966313 41.2288292,19.3614096 L41.2288292,11.904308 C41.2288292,9.07494426 39.681403,6.45060686 37.1683348,5.03885392 L30.5587855,1.30737418 C28.0457173,-0.110236652 24.9508648,-0.110236652 22.4377966,1.30737418 L15.8282473,5.03885392 C13.3151791,6.45060686 11.7677529,9.07494426 11.7677529,11.904308 Z" id="Stroke-7" stroke="#C8282C" stroke-width="2.0691"></path>
                </g>
            </g>
        </g>
        <text id="EVENT-LIMITATIONS" font-family="Helvetica-Bold, Helvetica" font-size="13.794" font-weight="bold" line-spacing="19.5415" letter-spacing="0.241394995" fill="#FFFFFF">
            <tspan x="145" y="59">EVENT</tspan>
            <tspan x="145" y="78.5415">LIMITATIONS</tspan>
        </text>
    </g>
</svg>