<?xml version="1.0" encoding="UTF-8"?>
<svg width="279px" height="207px" viewBox="0 0 279 207" version="1.1" xmlns="http://www.w3.org/2000/svg" xmlns:xlink="http://www.w3.org/1999/xlink">
    <!-- Generator: Sketch 54.1 (76490) - https://sketchapp.com -->
    <title>Large MIssion Statement + Image</title>
    <desc>Created with Sketch.</desc>
    <g id="Large-MIssion-Statement-+-Image" stroke="none" stroke-width="1" fill="none" fill-rule="evenodd">
        <rect id="Rectangle-Copy-13" fill="#313131" x="0" y="0" width="279" height="207"></rect>
        <g id="Section" transform="translate(33.000000, 53.000000)">
            <g id="1-paragraph" transform="translate(0.000000, 1.149500)">
                <rect id="Rectangle" fill="#C8282C" x="26.4385" y="90.8105" width="45.98" height="8.0465" rx="4.02325"></rect>
                <path d="M0,39.083 L98.857,39.083" id="Line-Copy-2" stroke="#FFFFFF" stroke-linecap="square"></path>
                <path d="M0,57.475 L98.857,57.475" id="Line-Copy-4" stroke="#FFFFFF" stroke-linecap="square"></path>
                <path d="M21.8405,75.867 L78.166,75.867" id="Line-Copy-5" stroke="#FFFFFF" stroke-linecap="square"></path>
                <text id="MISSION" font-family="Helvetica-Bold, Helvetica" font-size="20.691" font-weight="bold" letter-spacing="0.265534407" fill="#FFFFFF">
                    <tspan x="4.598" y="20">MISSION</tspan>
                </text>
            </g>
            <g id="IMG" transform="translate(135.641000, 0.000000)">
                <g id="Group-22">
                    <polygon id="Fill-1" fill="#63CAE4" points="1.11711972 98.5850595 78.1983803 98.5850595 78.1983803 1.0833523 1.11711972 1.0833523"></polygon>
                    <polygon id="Fill-2" fill="#819FB3" points="0 99.6684118 79.3155 99.6684118 79.3155 0 0 0"></polygon>
                    <g id="Group-21" transform="translate(0.000000, 10.833523)">
                        <polygon id="Fill-3" fill="#D0E0EA" points="1.11711972 87.7515364 18.6465128 49.1723741 33.4317576 66.5347256 52.4139351 20.5836937 74.8470211 87.7515364"></polygon>
                        <path d="M53.7613864,15.1669322 L34.2117914,62.8344335 L19.5495951,45.5007967 L0,88.8348887 L78.1983803,88.8348887 L53.7613864,15.1669322 Z M53.6298764,24.9171029 L73.7299014,85.5848318 L5.58559859,85.5848318 L20.8255661,51.7561238 L32.0722653,65.0550481 L35.5135483,69.1334423 L37.5360567,64.1980254 L53.6298764,24.9171029 Z" id="Fill-4" fill="#D0E0EA"></path>
                        <path d="M11.3258066,9.69080301 L11.3258066,15.2072329 C11.3258066,17.304603 12.4786741,19.2416369 14.3509667,20.2903219 L19.2752305,23.0463702 C21.1475231,24.0950552 23.4532582,24.0950552 25.3255509,23.0463702 L30.2498146,20.2903219 C32.1221072,19.2416369 33.2749748,17.304603 33.2749748,15.2072329 L33.2749748,9.69080301 C33.2749748,7.59776636 32.1221072,5.65639904 30.2498146,4.61204742 L25.3255509,1.85166575 C23.4532582,0.802980726 21.1475231,0.802980726 19.2752305,1.85166575 L14.3509667,4.61204742 C12.4786741,5.65639904 11.3258066,7.59776636 11.3258066,9.69080301" id="Fill-5" fill="#FEFEFE"></path>
                        <path d="M11.3258066,9.69080301 L11.3258066,15.2072329 C11.3258066,17.304603 12.4786741,19.2416369 14.3509667,20.2903219 L19.2752305,23.0463702 C21.1475231,24.0950552 23.4532582,24.0950552 25.3255509,23.0463702 L30.2498146,20.2903219 C32.1221072,19.2416369 33.2749748,17.304603 33.2749748,15.2072329 L33.2749748,9.69080301 C33.2749748,7.59776636 32.1221072,5.65639904 30.2498146,4.61204742 L25.3255509,1.85166575 C23.4532582,0.802980726 21.1475231,0.802980726 19.2752305,1.85166575 L14.3509667,4.61204742 C12.4786741,5.65639904 11.3258066,7.59776636 11.3258066,9.69080301 Z" id="Stroke-7" stroke="#C8282C" stroke-width="2.0691"></path>
                    </g>
                </g>
            </g>
        </g>
    </g>
</svg>