<?xml version="1.0" encoding="UTF-8"?>
<svg width="279px" height="207px" viewBox="0 0 279 207" version="1.1" xmlns="http://www.w3.org/2000/svg" xmlns:xlink="http://www.w3.org/1999/xlink">
    <!-- Generator: Sketch 54.1 (76490) - https://sketchapp.com -->
    <title>Single Bio</title>
    <desc>Created with Sketch.</desc>
    <g id="Single-Bio" stroke="none" stroke-width="1" fill="none" fill-rule="evenodd">
        <rect id="Rectangle-Copy-19" fill="#313131" x="0" y="0" width="279" height="207"></rect>
        <g id="Bio" transform="translate(31.000000, 45.000000)">
            <text id="NAME" font-family="Helvetica-Bold, Helvetica" font-size="18.392" font-weight="bold" letter-spacing="0.168976491" fill="#FFFFFF">
                <tspan x="0" y="18">NAME</tspan>
            </text>
            <path d="M0,52.30225 L91.2632395,52.30225" id="Line" stroke="#FFFFFF" stroke-linecap="square"></path>
            <path d="M0,70.69425 L72.99325,70.69425" id="Line" stroke="#FFFFFF" stroke-linecap="square"></path>
            <path d="M1.1495,35.05975 L92.4127395,35.05975" id="Line-Copy-2" stroke="#FFFFFF" stroke-linecap="square"></path>
            <rect id="Rectangle" fill="#819FB3" x="105.754" y="3.4485" width="112.651" height="112.651"></rect>
            <rect id="Rectangle-Copy-2" stroke="#C8282C" stroke-width="2.299" fill="#C8282C" x="1.1495" y="89.661" width="39.083" height="8.0465" rx="4.02325"></rect>
            <g id="BIO" transform="translate(120.697500, 19.541500)" fill="#D0E0EA">
                <circle id="Oval" cx="41.95675" cy="25.86375" r="25.86375"></circle>
                <path d="M82.7554579,75.867 L82.764,75.867 L82.764,96.558 L0,96.558 L0,75.867 L0.00854206597,75.867 C0.00286077007,75.6761117 2.35456615e-17,75.4845149 0,75.29225 C-1.28282325e-15,64.8172032 8.49170322,56.3255 18.96675,56.3255 L63.79725,56.3255 C74.2722968,56.3255 82.764,64.8172032 82.764,75.29225 C82.764,75.4845149 82.7611392,75.6761117 82.7554579,75.867 Z" id="Combined-Shape"></path>
            </g>
        </g>
    </g>
</svg>