<?xml version="1.0" encoding="UTF-8"?>
<svg width="279px" height="207px" viewBox="0 0 279 207" version="1.1" xmlns="http://www.w3.org/2000/svg" xmlns:xlink="http://www.w3.org/1999/xlink">
    <!-- Generator: Sketch 54.1 (76490) - https://sketchapp.com -->
    <title>FAQS 2 Col with Small Toggles</title>
    <desc>Created with Sketch.</desc>
    <g id="FAQS-2-Col-with-Small-Toggles" stroke="none" stroke-width="1" fill="none" fill-rule="evenodd">
        <rect id="Rectangle-Copy-24" fill="#313131" x="0" y="0" width="279" height="207"></rect>
        <g id="20160916-riot-fest-friday-491" transform="translate(141.000000, 93.000000)">
            <g id="plus">
                <ellipse id="Oval" stroke="#FFFFFF" stroke-width="2.299" cx="6.83870968" cy="6.97058824" rx="6.83870968" ry="6.97058824"></ellipse>
                <polygon id="+" fill="#FFFFFF" fill-rule="nonzero" points="3.82562584 8.11873851 3.82562584 6.63816923 6.10742188 6.63816923 6.10742188 4.31237075 7.57111055 4.31237075 7.57111055 6.63816923 9.85290659 6.63816923 9.85290659 8.11873851 7.57111055 8.11873851 7.57111055 10.4558824 6.10742188 10.4558824 6.10742188 8.11873851"></polygon>
                <path d="M27.5,72.3123707 L93,72.3123707" id="Line-2-Copy-2" stroke="#FFFFFF" stroke-linecap="square"></path>
            </g>
            <g id="plus-copy" transform="translate(0.000000, 33.000000)">
                <ellipse id="Oval" stroke="#FFFFFF" stroke-width="2.299" cx="6.83870968" cy="6.97058824" rx="6.83870968" ry="6.97058824"></ellipse>
                <polygon id="+" fill="#FFFFFF" fill-rule="nonzero" points="3.82562584 8.11873851 3.82562584 6.63816923 6.10742188 6.63816923 6.10742188 4.31237075 7.57111055 4.31237075 7.57111055 6.63816923 9.85290659 6.63816923 9.85290659 8.11873851 7.57111055 8.11873851 7.57111055 10.4558824 6.10742188 10.4558824 6.10742188 8.11873851"></polygon>
                <path d="M27.5,7.31237075 L93,7.31237075" id="Line-2-Copy" stroke="#FFFFFF" stroke-linecap="square"></path>
            </g>
            <g id="plus-copy-2" transform="translate(0.000000, 6.000000)">
                <ellipse id="Oval" stroke="#FFFFFF" stroke-width="2.299" cx="6.83870968" cy="65.9705882" rx="6.83870968" ry="6.97058824"></ellipse>
                <polygon id="+" fill="#FFFFFF" fill-rule="nonzero" points="3.82562584 67.1187385 3.82562584 65.6381692 6.10742188 65.6381692 6.10742188 63.3123707 7.57111055 63.3123707 7.57111055 65.6381692 9.85290659 65.6381692 9.85290659 67.1187385 7.57111055 67.1187385 7.57111055 69.4558824 6.10742188 69.4558824 6.10742188 67.1187385"></polygon>
                <path d="M27.5,1.31237075 L93,1.31237075" id="Line-2" stroke="#FFFFFF" stroke-linecap="square"></path>
            </g>
        </g>
        <g id="IMG" transform="translate(39.000000, 46.000000)">
            <g id="Group-22">
                <polygon id="Fill-1" fill="#63CAE4" points="1.14473684 133.267134 85.8552632 133.267134 85.8552632 1.464474 1.14473684 1.464474"></polygon>
                <polygon id="Fill-2" fill="#819FB3" points="0 132.844828 87 132.844828 87 0 0 0"></polygon>
                <g id="Group-21" transform="translate(3.434211, 15.840445)">
                    <polygon id="Fill-3" fill="#D0E0EA" points="0 117.827586 19.3235643 74.7003567 35.6221107 94.1095422 56.5471551 42.7413793 81.2763158 117.827586"></polygon>
                    <path d="M11.7677529,11.904308 L11.7677529,19.3614096 C11.7677529,22.1966313 13.3151791,24.8151108 15.8282473,26.2327216 L22.4377966,29.9583435 C24.9508648,31.3759543 28.0457173,31.3759543 30.5587855,29.9583435 L37.1683348,26.2327216 C39.681403,24.8151108 41.2288292,22.1966313 41.2288292,19.3614096 L41.2288292,11.904308 C41.2288292,9.07494426 39.681403,6.45060686 37.1683348,5.03885392 L30.5587855,1.30737418 C28.0457173,-0.110236652 24.9508648,-0.110236652 22.4377966,1.30737418 L15.8282473,5.03885392 C13.3151791,6.45060686 11.7677529,9.07494426 11.7677529,11.904308" id="Fill-5" fill="#FEFEFE"></path>
                    <path d="M11.7677529,11.904308 L11.7677529,19.3614096 C11.7677529,22.1966313 13.3151791,24.8151108 15.8282473,26.2327216 L22.4377966,29.9583435 C24.9508648,31.3759543 28.0457173,31.3759543 30.5587855,29.9583435 L37.1683348,26.2327216 C39.681403,24.8151108 41.2288292,22.1966313 41.2288292,19.3614096 L41.2288292,11.904308 C41.2288292,9.07494426 39.681403,6.45060686 37.1683348,5.03885392 L30.5587855,1.30737418 C28.0457173,-0.110236652 24.9508648,-0.110236652 22.4377966,1.30737418 L15.8282473,5.03885392 C13.3151791,6.45060686 11.7677529,9.07494426 11.7677529,11.904308 Z" id="Stroke-7" stroke="#C8282C" stroke-width="2.0691"></path>
                </g>
            </g>
        </g>
        <path d="M153.392248,50.3715186 L148.138674,50.3715186 L148.138674,52.4796836 L152.961186,52.4796836 L152.961186,54.2039336 L148.138674,54.2039336 L148.138674,56.7566318 L153.634721,56.7566318 L153.634721,58.5415 L146.111333,58.5415 L146.111333,48.6135918 L153.392248,48.6135918 L153.392248,50.3715186 Z M161.305208,48.6135918 L163.460521,48.6135918 L160.072639,58.5415 L158.112652,58.5415 L154.758447,48.6135918 L156.974377,48.6135918 L159.12969,56.1504502 L161.305208,48.6135918 Z M172.276019,50.3715186 L167.022444,50.3715186 L167.022444,52.4796836 L171.844956,52.4796836 L171.844956,54.2039336 L167.022444,54.2039336 L167.022444,56.7566318 L172.518491,56.7566318 L172.518491,58.5415 L164.995103,58.5415 L164.995103,48.6135918 L172.276019,48.6135918 L172.276019,50.3715186 Z M174.342694,48.6135918 L176.518212,48.6135918 L180.471864,55.5442686 L180.471864,48.6135918 L182.40491,48.6135918 L182.40491,58.5415 L180.330421,58.5415 L176.27574,51.4895869 L176.27574,58.5415 L174.342694,58.5415 L174.342694,48.6135918 Z M191.792912,48.6135918 L191.792912,50.3715186 L188.822622,50.3715186 L188.822622,58.5415 L186.734663,58.5415 L186.734663,50.3715186 L183.750902,50.3715186 L183.750902,48.6135918 L191.792912,48.6135918 Z M146.050715,68.1550918 L148.125203,68.1550918 L148.125203,76.2981318 L153.04201,76.2981318 L153.04201,78.083 L146.050715,78.083 L146.050715,68.1550918 Z M156.617404,78.083 L154.556386,78.083 L154.556386,68.1550918 L156.617404,68.1550918 L156.617404,78.083 Z M165.372283,68.1550918 L168.356044,68.1550918 L168.356044,78.083 L166.422998,78.083 L166.422998,71.3678545 C166.422998,71.1747734 166.425243,70.9042395 166.429733,70.5562446 C166.434224,70.2082497 166.436469,69.9399609 166.436469,69.7513701 L164.557306,78.083 L162.543435,78.083 L160.677743,69.7513701 C160.677743,69.9399609 160.679988,70.2082497 160.684478,70.5562446 C160.688969,70.9042395 160.691214,71.1747734 160.691214,71.3678545 L160.691214,78.083 L158.758168,78.083 L158.758168,68.1550918 L161.775605,68.1550918 L163.58068,75.9613643 L165.372283,68.1550918 Z M172.423119,78.083 L170.362101,78.083 L170.362101,68.1550918 L172.423119,68.1550918 L172.423119,78.083 Z M181.811121,68.1550918 L181.811121,69.9130186 L178.840831,69.9130186 L178.840831,78.083 L176.752872,78.083 L176.752872,69.9130186 L173.769111,69.9130186 L173.769111,68.1550918 L181.811121,68.1550918 Z M184.962188,74.3314092 L187.481209,74.3314092 L186.241905,70.4249053 L184.962188,74.3314092 Z M185.09016,68.1550918 L187.434062,68.1550918 L190.949915,78.083 L188.700308,78.083 L188.06045,76.0421885 L184.403154,76.0421885 L183.716148,78.083 L181.547365,78.083 L185.09016,68.1550918 Z M198.647345,68.1550918 L198.647345,69.9130186 L195.677055,69.9130186 L195.677055,78.083 L193.589096,78.083 L193.589096,69.9130186 L190.605335,69.9130186 L190.605335,68.1550918 L198.647345,68.1550918 Z M202.000472,78.083 L199.939454,78.083 L199.939454,68.1550918 L202.000472,68.1550918 L202.000472,78.083 Z M208.566362,76.6012227 C209.388079,76.6012227 210.040279,76.2981349 210.522982,75.6919502 C211.005684,75.0857655 211.247032,74.2236491 211.247032,73.1055752 C211.247032,71.9919915 211.005684,71.1309977 210.522982,70.5225679 C210.040279,69.9141381 209.388079,69.6099277 208.566362,69.6099277 C207.744645,69.6099277 207.089077,69.9130155 206.599639,70.5192002 C206.110201,71.1253849 205.865486,71.9875012 205.865486,73.1055752 C205.865486,74.2236491 206.110201,75.0857655 206.599639,75.6919502 C207.089077,76.2981349 207.744645,76.6012227 208.566362,76.6012227 Z M213.32152,73.1055752 C213.32152,74.8882072 212.820864,76.2532248 211.819537,77.2006689 C211.069664,77.9729931 209.985283,78.3591494 208.566362,78.3591494 C207.147441,78.3591494 206.06306,77.9729931 205.313187,77.2006689 C204.30737,76.2532248 203.804469,74.8882072 203.804469,73.1055752 C203.804469,71.2870212 204.30737,69.9220036 205.313187,69.0104814 C206.06306,68.2381573 207.147441,67.852001 208.566362,67.852001 C209.985283,67.852001 211.069664,68.2381573 211.819537,69.0104814 C212.820864,69.9220036 213.32152,71.2870212 213.32152,73.1055752 Z M215.112046,68.1550918 L217.287565,68.1550918 L221.241216,75.0857686 L221.241216,68.1550918 L223.174262,68.1550918 L223.174262,78.083 L221.099774,78.083 L217.045092,71.0310869 L217.045092,78.083 L215.112046,78.083 L215.112046,68.1550918 Z M226.850686,75.018415 C226.91355,75.471931 227.03703,75.8109403 227.221131,76.0354531 C227.5579,76.4440665 228.134889,76.6483701 228.952116,76.6483701 C229.441554,76.6483701 229.838936,76.5944878 230.144273,76.4867217 C230.723516,76.2801699 231.013134,75.8962587 231.013134,75.3349766 C231.013134,75.0071878 230.869447,74.7534921 230.582071,74.5738818 C230.294695,74.3987618 229.843431,74.2438503 229.228265,74.1091426 L228.177551,73.8734053 C227.144791,73.6399119 226.430851,73.3862162 226.035709,73.1123105 C225.36666,72.6543044 225.032141,71.9381191 225.032141,70.9637334 C225.032141,70.0746625 225.355435,69.3360264 226.002032,68.7478027 C226.648629,68.1595791 227.598304,67.8654717 228.851086,67.8654717 C229.897316,67.8654717 230.789741,68.1427409 231.528388,68.6972876 C232.267035,69.2518343 232.654314,70.0567008 232.690236,71.1119111 L230.696572,71.1119111 C230.66065,70.514707 230.400219,70.0903841 229.915271,69.8389297 C229.591973,69.6727902 229.190101,69.5897217 228.709643,69.5897217 C228.175303,69.5897217 227.748735,69.6974862 227.429927,69.9130186 C227.111118,70.1285509 226.951717,70.4293936 226.951717,70.8155557 C226.951717,71.170286 227.108873,71.4352071 227.423191,71.6103271 C227.625253,71.7270738 228.056311,71.8640246 228.716379,72.0211836 L230.427158,72.43204 C231.177031,72.6116503 231.742795,72.8518754 232.124467,73.1527227 C232.71718,73.6197094 233.013533,74.2954829 233.013533,75.1800635 C233.013533,76.0870954 232.666666,76.8403246 231.972921,77.4397739 C231.279176,78.0392232 230.299193,78.3389434 229.03294,78.3389434 C227.739746,78.3389434 226.722718,78.0437134 225.981826,77.4532446 C225.240934,76.8627759 224.870493,76.0511741 224.870493,75.018415 L226.850686,75.018415 Z" id="EVENTLIMITATIONS" fill="#FFFFFF" fill-rule="nonzero"></path>
    </g>
</svg>