<?xml version="1.0" encoding="UTF-8"?>
<svg width="279px" height="207px" viewBox="0 0 279 207" version="1.1" xmlns="http://www.w3.org/2000/svg" xmlns:xlink="http://www.w3.org/1999/xlink">
    <!-- Generator: Sketch 54.1 (76490) - https://sketchapp.com -->
    <title>Single Bio</title>
    <desc>Created with Sketch.</desc>
    <g id="Single-Bio" stroke="none" stroke-width="1" fill="none" fill-rule="evenodd">
        <rect id="Rectangle-Copy-19" fill="#313131" x="0" y="0" width="279" height="207"></rect>
        <g id="Bio" transform="translate(31.000000, 45.000000)">
            <path d="M1.35605078,4.76278906 L4.25674219,4.76278906 L9.52827734,14.0036914 L9.52827734,4.76278906 L12.1056719,4.76278906 L12.1056719,18 L9.3396875,18 L3.93344531,8.59744922 L3.93344531,18 L1.35605078,18 L1.35605078,4.76278906 Z M18.4711718,12.9978789 L21.8298671,12.9978789 L20.1774609,7.78920703 L18.4711718,12.9978789 Z M18.6418007,4.76278906 L21.7670038,4.76278906 L26.4548085,18 L23.455332,18 L22.6021874,15.278918 L17.7257929,15.278918 L16.8097851,18 L13.9180741,18 L18.6418007,4.76278906 Z M37.0770506,4.76278906 L41.0553983,4.76278906 L41.0553983,18 L38.4780038,18 L38.4780038,9.04647266 C38.4780038,8.78903126 38.4809972,8.42831938 38.4869842,7.96432617 C38.4929712,7.50033297 38.4959647,7.14261454 38.4959647,6.89116016 L35.9904139,18 L33.3052538,18 L30.8176639,6.89116016 C30.8176639,7.14261454 30.8206574,7.50033297 30.8266444,7.96432617 C30.8326314,8.42831938 30.8356249,8.78903126 30.8356249,9.04647266 L30.8356249,18 L28.2582303,18 L28.2582303,4.76278906 L32.2814803,4.76278906 L34.688246,15.1711523 L37.0770506,4.76278906 Z M53.5814998,7.10669141 L46.5767342,7.10669141 L46.5767342,9.91757813 L53.0067498,9.91757813 L53.0067498,12.2165781 L46.5767342,12.2165781 L46.5767342,15.6201758 L53.9047967,15.6201758 L53.9047967,18 L43.8736131,18 L43.8736131,4.76278906 L53.5814998,4.76278906 L53.5814998,7.10669141 Z" id="NAME" fill="#FFFFFF" fill-rule="nonzero"></path>
            <path d="M0,52.30225 L91.2632395,52.30225" id="Line" stroke="#FFFFFF" stroke-linecap="square"></path>
            <path d="M0,70.69425 L72.99325,70.69425" id="Line" stroke="#FFFFFF" stroke-linecap="square"></path>
            <path d="M1.1495,35.05975 L92.4127395,35.05975" id="Line-Copy-2" stroke="#FFFFFF" stroke-linecap="square"></path>
            <rect id="Rectangle" fill="#819FB3" x="105.754" y="3.4485" width="112.651" height="112.651"></rect>
            <rect id="Rectangle-Copy-2" stroke="#C8282C" stroke-width="2.299" fill="#C8282C" x="1.1495" y="89.661" width="39.083" height="8.0465" rx="4.02325"></rect>
            <g id="BIO" transform="translate(120.697500, 19.541500)" fill="#D0E0EA">
                <circle id="Oval" cx="41.95675" cy="25.86375" r="25.86375"></circle>
                <path d="M82.7554579,75.867 L82.764,75.867 L82.764,96.558 L0,96.558 L0,75.867 L0.00854206597,75.867 C0.00286077007,75.6761117 2.35456615e-17,75.4845149 0,75.29225 C-1.28282325e-15,64.8172032 8.49170322,56.3255 18.96675,56.3255 L63.79725,56.3255 C74.2722968,56.3255 82.764,64.8172032 82.764,75.29225 C82.764,75.4845149 82.7611392,75.6761117 82.7554579,75.867 Z" id="Combined-Shape"></path>
            </g>
        </g>
    </g>
</svg>