<?xml version="1.0" encoding="utf-8"?><svg height="227" viewBox="0 0 279 227" width="279" xmlns="http://www.w3.org/2000/svg"><path d="m-15-15h309v247h-309z" fill="#313131"/><path d="m55.4707 19.8274h2.2521l4.0928 7.1746v-7.1746h2.0011v10.2774h-2.1475l-4.1974-7.3v7.3h-2.0011zm13.2882 6.3937h2.6077l-1.2829-4.044zm.1325-6.3937h2.4264l3.64 10.2774h-2.3292l-.6624-2.1127h-3.7862l-.7112 2.1127h-2.2449zm14.3131 0h3.0887v10.2774h-2.001v-6.9515q0-.3.0069-.84t.007-.8332l-1.9453 8.6249h-2.0848l-1.9313-8.625q0 .2928.007.8332t.0069.84v6.9515h-2.0011v-10.2773h3.1237l1.8686 8.081zm12.814 1.82h-5.4385v2.1826h4.9922v1.7849h-4.9922v2.6426h5.69v1.8477h-7.7887v-10.2778h7.5372z" fill="#fff"/><g fill="none" stroke="#fff" stroke-linecap="square"><path d="m54.4179 56.737h70.8566"/><path d="m54.4179 71.0165h56.6721"/><path d="m55.31 43.35h70.857"/></g><rect fill="#c8282c" height="6.2473" rx="3.1236" stroke="#c8282c" stroke-width="2.299" width="30.344" x="75.5667" y="85.7422"/><path d="m157.6903 19.8274h67.2968v87.462h-67.2968z" fill="#819fb3"/><circle cx="191.6238" cy="71.687" fill="#d0e0ea" r="12.8292"/><path d="m211.8612 96.49h.0043v10.2634h-41.0536v-10.2634h.0042q-.0042-.142-.0042-.2851a9.4082 9.4082 0 0 1 9.4081-9.4079h22.2374a9.4082 9.4082 0 0 1 9.4081 9.4081q0 .1431-.0043.2849z" fill="#d0e0ea" fill-rule="evenodd"/><path d="m159.5162 129.0909h2.2521l4.0928 7.1746v-7.1746h2.0011v10.2774h-2.1475l-4.1974-7.3v7.3h-2.0011zm13.2881 6.3937h2.6077l-1.2829-4.044zm.1325-6.3937h2.4264l3.64 10.2774h-2.3292l-.6623-2.1127h-3.7861l-.7111 2.1127h-2.2452zm14.3131 0h3.0888v10.2774h-2.0011v-6.9515q0-.3.007-.84t.007-.8332l-1.9454 8.6249h-2.0847l-1.9314-8.6249q0 .2928.007.8332t.007.84v6.9515h-2.0011v-10.2774h3.1236l1.8687 8.0811zm12.814 1.82h-5.4385v2.1824h4.9923v1.7849h-4.9923v2.6426h5.6895v1.8477h-7.7882v-10.2776h7.5372z" fill="#fff"/><path d="m158.4634 166.0005h70.8566" fill="none" stroke="#fff" stroke-linecap="square"/><path d="m158.4634 180.28h56.6718" fill="none" stroke="#fff" stroke-linecap="square"/><path d="m159.3558 152.6134h70.8566" fill="none" stroke="#fff" stroke-linecap="square"/><rect fill="#c8282c" height="6.2473" rx="3.1236" stroke="#c8282c" stroke-width="2.299" width="30.344" x="181.2489" y="195.0057"/><path d="m58.8702 124.0705h67.2968v87.462h-67.2968z" fill="#819fb3"/><circle cx="92.8037" cy="175.9301" fill="#d0e0ea" r="12.8292"/><path d="m113.0411 200.7333h.0043v10.2634h-41.0536v-10.2634h.0042q-.0042-.1421-.0042-.2851a9.4081 9.4081 0 0 1 9.4082-9.4082h22.2374a9.4082 9.4082 0 0 1 9.4081 9.4081q-.0001.1432-.0044.2852z" fill="#d0e0ea" fill-rule="evenodd"/></svg>
