<svg xmlns="http://www.w3.org/2000/svg" width="279" height="227" viewBox="0 0 279 227"><rect x="-15" y="-15" width="309" height="247" fill="#313131"/><path d="M55.4707,19.8274h2.2521l4.0928,7.1746V19.8274h2.0011V30.1048H61.6692l-4.1974-7.3v7.3H55.4707Zm13.2882,6.3937h2.6077l-1.2829-4.044Zm.1325-6.3937h2.4264l3.64,10.2774H72.6286l-.6624-2.1127H68.18l-.7112,2.1127H65.2239Zm14.3131,0h3.0887V30.1048h-2.001V23.1533q0-.3.0069-.84t.007-.8332l-1.9453,8.6249H80.276L78.3447,21.48q0,.2928.007.8332t.0069.84v6.9515H76.3575V19.8274h3.1237l1.8686,8.081Zm12.814,1.82H90.58V23.83h4.9922v1.7849H90.58v2.6426H96.27v1.8477H88.4813V19.8274h7.5372Z" fill="#fff"/><path d="M54.4179,56.737h70.8566" fill="none" stroke="#fff" stroke-linecap="square"/><path d="M54.4179,71.0165H111.09" fill="none" stroke="#fff" stroke-linecap="square"/><path d="M55.31,43.35H126.167" fill="none" stroke="#fff" stroke-linecap="square"/><rect x="75.5667" y="85.7422" width="30.344" height="6.2473" rx="3.1236" fill="#c8282c" stroke="#c8282c" stroke-width="2.299"/><rect x="145.9688" y="18.807" width="87.462" height="87.462" fill="#819fb3"/><circle cx="190.146" cy="51.3821" r="20.0806" fill="#d0e0ea"/><path d="M221.8221,90.2045h.0066V106.269H157.5709V90.2045h.0066q-.0066-.2223-.0066-.4462a14.7257,14.7257,0,0,1,14.7257-14.7257H207.103a14.7257,14.7257,0,0,1,14.7257,14.7257Q221.8287,89.9822,221.8221,90.2045Z" fill="#d0e0ea" fill-rule="evenodd"/><path d="M159.5162,129.0909h2.2521l4.0928,7.1746v-7.1746h2.0011v10.2774h-2.1475l-4.1974-7.3v7.3h-2.0011Zm13.2881,6.3937h2.6077l-1.2829-4.044Zm.1325-6.3937h2.4264l3.64,10.2774H176.674l-.6623-2.1127h-3.7861l-.7111,2.1127h-2.2452Zm14.3131,0h3.0888v10.2774h-2.0011v-6.9515q0-.3.007-.84t.007-.8332l-1.9454,8.6249h-2.0847l-1.9314-8.6249q0,.2928.007.8332t.007.84v6.9515H180.403V129.0909h3.1236l1.8687,8.0811Zm12.814,1.82h-5.4385v2.1824h4.9923v1.7849h-4.9923v2.6426h5.6895v1.8477h-7.7882V129.0909h7.5372Z" fill="#fff"/><path d="M158.4634,166.0005H229.32" fill="none" stroke="#fff" stroke-linecap="square"/><path d="M158.4634,180.28h56.6718" fill="none" stroke="#fff" stroke-linecap="square"/><path d="M159.3558,152.6134h70.8566" fill="none" stroke="#fff" stroke-linecap="square"/><rect x="181.2489" y="195.0057" width="30.344" height="6.2473" rx="3.1236" fill="#c8282c" stroke="#c8282c" stroke-width="2.299"/><rect x="48.7876" y="124.0705" width="87.462" height="87.462" fill="#819fb3"/><circle cx="92.9648" cy="156.6457" r="20.0806" fill="#d0e0ea"/><path d="M124.6408,195.4681h.0067v16.0644H60.39V195.4681h.0066q-.0066-.2223-.0066-.4463a14.7257,14.7257,0,0,1,14.7257-14.7257h34.8063a14.7258,14.7258,0,0,1,14.7258,14.7257Q124.6475,195.2457,124.6408,195.4681Z" fill="#d0e0ea" fill-rule="evenodd"/></svg>