<?xml version="1.0" encoding="utf-8"?><svg height="227" viewBox="0 0 279 227" width="279" xmlns="http://www.w3.org/2000/svg"><path d="m-155-127h589v481h-589z" fill="#313131"/><g fill="none" stroke="#fff" stroke-linecap="square"><path d="m20.349 112.204 78.183.454" stroke-width="4.598"/><path d="m18.349 127.262h135.098"/><path d="m18.349 119.96h135.098"/><path d="m18.349 134.563h86.005"/></g><path d="m17.973 98.781a6.4661 6.4661 0 0 1 1.654-4.754 4.9306 4.9306 0 0 1 3.659-1.454 4.9493 4.9493 0 0 1 4.347 1.95 4.2187 4.2187 0 0 1 .815 2.197h-2.461a3.3223 3.3223 0 0 0 -.615-1.278 2.5039 2.5039 0 0 0 -1.99-.767 2.4645 2.4645 0 0 0 -2.117 1.083 5.2021 5.2021 0 0 0 -.775 3.064 4.5673 4.5673 0 0 0 .819 2.968 2.5878 2.5878 0 0 0 2.081.987 2.3807 2.3807 0 0 0 1.974-.847 3.6859 3.6859 0 0 0 .623-1.366h2.437a5.2854 5.2854 0 0 1 -1.634 3.132 4.7879 4.7879 0 0 1 -3.368 1.207 5.0779 5.0779 0 0 1 -3.995-1.63 6.5269 6.5269 0 0 1 -1.454-4.492zm17.748 4.035a2.81 2.81 0 0 0 2.321-1.079 5.9012 5.9012 0 0 0 0-6.132 2.8067 2.8067 0 0 0 -2.321-1.083 2.8439 2.8439 0 0 0 -2.333 1.079 5.8388 5.8388 0 0 0 0 6.136 2.8424 2.8424 0 0 0 2.333 1.079zm5.641-4.147a6.3685 6.3685 0 0 1 -1.782 4.858 5.1367 5.1367 0 0 1 -3.859 1.374 5.1352 5.1352 0 0 1 -3.859-1.374 6.3539 6.3539 0 0 1 -1.79-4.858 6.23 6.23 0 0 1 1.79-4.858 5.1367 5.1367 0 0 1 3.859-1.374 5.1352 5.1352 0 0 1 3.859 1.374 6.2452 6.2452 0 0 1 1.782 4.858zm9.894-5.872h3.54v11.777h-2.293v-7.966q0-.3435.008-.963t.008-.955l-2.229 9.884h-2.389l-2.213-9.884q0 .336.008.955t.008.963v7.966h-2.293v-11.777h3.58l2.141 9.261zm12.667 3.747a1.5933 1.5933 0 0 0 -.483-1.31 2.0977 2.0977 0 0 0 -1.354-.392h-2.294v3.468h2.293a1.9878 1.9878 0 0 0 1.354-.423 1.6953 1.6953 0 0 0 .484-1.343zm2.437-.016a3.6142 3.6142 0 0 1 -1.055 2.948 4.6452 4.6452 0 0 1 -3.012.863h-2.501v4.235h-2.445v-11.777h5.13a4.1817 4.1817 0 0 1 2.829.911 3.5315 3.5315 0 0 1 1.054 2.82zm4.069 3.596h2.988l-1.47-4.634zm.152-7.327h2.781l4.17 11.777h-2.669l-.759-2.421h-4.339l-.815 2.421h-2.573zm8.616 0h2.581l4.69 8.222v-8.222h2.293v11.777h-2.461l-4.81-8.366v8.366h-2.293zm18.787 0h2.789l-3.939 7.351v4.427h-2.462v-4.427l-4.075-7.351h2.9l2.445 5.13zm8.53.052h2.581l4.69 8.222v-8.222h2.293v11.777h-2.461l-4.81-8.366v8.366h-2.293zm15.287 7.327h2.988l-1.47-4.634zm.152-7.327h2.781l4.171 11.777h-2.669l-.759-2.421h-4.339l-.815 2.421h-2.573zm16.462 0h3.54v11.777h-2.293v-7.966q0-.3435.008-.963t.008-.955l-2.229 9.884h-2.389l-2.213-9.884q0 .336.008.955t.008.963v7.966h-2.293v-11.777h3.58l2.141 9.261zm14.744 2.085h-6.232v2.501h5.721v2.045h-5.721v3.028h6.52v2.117h-8.925v-11.776h8.637z" fill="#fff"/><path d="m225.9535 124.6655-6.459 4.247-1.153-1.706 6.396-4.13zm-7.771 2.29-.912-1.396 1.403-.908.911 1.396zm1.636-1.063-.912-1.395 1.403-.908.912 1.395zm.726-2.456 1.401-.908.912 1.395-1.399.908zm27.194-17.784a2.6828 2.6828 0 1 1 -3.123 2.175 2.68 2.68 0 0 1 3.123-2.175zm-22.679 17.22c-1.095-2.337-1.017-16.779 6.064-19.093a3.6665 3.6665 0 0 0 -1.678 4.534 12.2784 12.2784 0 0 1 9.582-7.177c3.979-.474-2.181.184-.987 3.67.038-1.467 9.851-7.436 17.912-3.272 2.183 15.829-9.325 16.714-9.325 16.714a10.8879 10.8879 0 0 0 3.952-.079c-1.512 6.575-10.47 6.955-10.47 6.955a17.038 17.038 0 0 0 5.793.405c-8.2 5.35-19.38-.802-19.38-.802-.043.014-.138-.068-.261-.214l18.575-12.878a4.1154 4.1154 0 1 0 -1.006-1.035l-13.3105 9.3595-.371-.539-5.07 3.461z" fill="#fefefe" fill-rule="evenodd"/></svg>
