<?xml version="1.0" encoding="UTF-8"?>
<svg width="279px" height="207px" viewBox="0 0 279 207" version="1.1" xmlns="http://www.w3.org/2000/svg" xmlns:xlink="http://www.w3.org/1999/xlink">
    <!-- Generator: Sketch 54.1 (76490) - https://sketchapp.com -->
    <title>Clear Section</title>
    <desc>Created with Sketch.</desc>
    <defs>
        <polygon id="path-1" points="81 0 132 0 132 51 81 51"></polygon>
    </defs>
    <g id="Clear-Section" stroke="none" stroke-width="1" fill="none" fill-rule="evenodd">
        <rect id="Rectangle-Copy-34" stroke="#979797" fill="#FFFFFF" x="0.5" y="0.5" width="278" height="206"></rect>
        <g id="Group-3" transform="translate(33.000000, 52.000000)">
            <mask id="mask-2" fill="white">
                <use xlink:href="#path-1"></use>
            </mask>
            <g id="Clip-2"></g>
            <path d="M109.824881,25.5177928 C109.990492,25.3799106 110.075351,25.3200362 110.147891,25.2478447 C112.405197,22.989382 114.661819,20.7302349 116.916387,18.469035 C117.092606,18.2918067 117.259586,18.1043143 117.420748,17.9130583 C118.050686,17.1665099 118.104065,16.332716 117.691406,15.489 C117.24145,14.5686448 116.480119,14.0544091 115.434784,14.0376443 C114.721014,14.0263537 114.192359,14.4153663 113.71195,14.895388 C111.397844,17.2092774 109.079289,19.5197454 106.767578,21.836714 C106.682377,21.9222489 106.649871,22.0604732 106.592728,22.1740635 C106.379213,22.0101787 106.322412,21.9222489 106.250214,21.8500575 C103.991539,19.5926211 101.732522,17.3362111 99.470768,15.0821962 C99.2938653,14.9056522 99.1063553,14.7386881 98.9147392,14.5771983 C98.1684629,13.948688 97.3345907,13.8929193 96.4904533,14.3065659 C95.5706961,14.7575058 95.0547013,15.5170555 95.0389614,16.563318 C95.0286962,17.2773631 95.417061,17.8056265 95.8967856,18.2856482 C98.2112344,20.5998797 100.521919,22.9178748 102.838763,25.2293692 C102.924306,25.3149041 103.062201,25.3474073 103.175802,25.4048868 C102.992398,25.6300146 102.892484,25.7069959 102.803862,25.7956101 C100.522261,28.0780226 98.2416876,30.3614616 95.9624826,32.6462691 C95.8259561,32.7831249 95.6928513,32.9251128 95.5717226,33.0756542 C94.9650523,33.8280189 94.8884059,34.6601022 95.3075661,35.505871 C95.7688134,36.435464 96.5349357,36.9582531 97.5990894,36.9538053 C98.2820639,36.9514103 98.7984008,36.5907953 99.2640964,36.1244592 C101.584704,33.8006478 103.911813,31.4829948 106.231395,29.1578149 C106.316938,29.07228 106.349444,28.9340556 106.406587,28.8204653 C106.63721,28.9997464 106.709751,29.1037568 106.798031,29.1923709 C109.080315,31.4740992 111.364653,33.7541168 113.648991,36.0337922 C113.761907,36.1463561 113.878246,36.2558407 113.998006,36.3608776 C114.727174,37.0006784 115.558993,37.1211115 116.409631,36.7013064 C117.297567,36.2630257 117.867282,35.5424799 117.930926,34.5095608 C117.975751,33.7818301 117.61955,33.2258534 117.126823,32.7328304 C114.812374,30.4185989 112.501005,28.1012881 110.186214,25.7877409 C110.098618,25.7001531 109.986386,25.6371995 109.824881,25.5177928 M106.493156,51 C92.3385431,50.9709181 80.9938434,39.6009386 81.0000025,25.4904216 C81.0054773,11.3371373 92.3953435,-0.00683969574 106.506843,3.09409242e-06 C120.679933,0.00684588393 132.007524,11.4120658 131.999996,25.5041072 C131.992126,39.6758671 120.586178,50.9842616 106.493156,51" id="Fill-1" fill="#819FB3" mask="url(#mask-2)"></path>
            <path d="M9.66,101.234 C7.73599038,101.234 6.05900715,100.839671 4.629,100.051 C3.19899285,99.2623294 2.09833719,98.1486739 1.327,96.71 C0.55566281,95.2713261 0.17,93.6073428 0.17,91.718 C0.17,89.8459906 0.55566281,88.1950071 1.327,86.765 C2.09833719,85.3349928 3.19899285,84.2256706 4.629,83.437 C6.05900715,82.6483294 7.73599038,82.254 9.66,82.254 C10.8733394,82.254 12.047661,82.4359982 13.183,82.8 C14.318339,83.1640018 15.2326632,83.6579969 15.926,84.282 L14.444,87.74 C12.9359925,86.6479945 11.3760081,86.102 9.764,86.102 C8.27332588,86.102 7.12933732,86.5743286 6.332,87.519 C5.53466268,88.4636714 5.136,89.8633241 5.136,91.718 C5.136,93.5900094 5.53466268,95.0026619 6.332,95.956 C7.12933732,96.9093381 8.27332588,97.386 9.764,97.386 C11.3760081,97.386 12.9359925,96.8400055 14.444,95.748 L15.926,99.206 C15.2326632,99.8300031 14.318339,100.323998 13.183,100.688 C12.047661,101.052002 10.8733394,101.234 9.66,101.234 Z M18.7299375,82.488 L23.6179375,82.488 L23.6179375,97.048 L31.4439375,97.048 L31.4439375,101 L18.7299375,101 L18.7299375,82.488 Z M34.039875,82.488 L47.247875,82.488 L47.247875,86.232 L38.797875,86.232 L38.797875,89.716 L46.701875,89.716 L46.701875,93.46 L38.797875,93.46 L38.797875,97.256 L47.247875,97.256 L47.247875,101 L34.039875,101 L34.039875,82.488 Z M62.2458125,97.178 L54.0298125,97.178 L52.3918125,101 L47.5038125,101 L56.1618125,82.488 L60.0098125,82.488 L68.6938125,101 L63.8838125,101 L62.2458125,97.178 Z M60.6598125,93.512 L58.1378125,87.662 L55.6158125,93.512 L60.6598125,93.512 Z M86.10975,101 L80.93575,101 L78.54375,94.838 C78.2664153,94.1446632 77.6164218,93.798 76.59375,93.798 L74.82575,93.798 L74.82575,101 L70.01575,101 L70.01575,82.488 L78.62175,82.488 C80.8577612,82.488 82.5390777,82.9689952 83.66575,83.931 C84.7924223,84.8930048 85.35575,86.2666577 85.35575,88.052 C85.35575,89.3000062 85.0220867,90.3789954 84.35475,91.289 C83.6874133,92.1990045 82.7470894,92.8446648 81.53375,93.226 C82.0537526,93.3300005 82.5217479,93.5726648 82.93775,93.954 C83.3537521,94.3353352 83.6830821,94.8466635 83.92575,95.488 L86.10975,101 Z M77.84175,90.158 C78.8817552,90.158 79.6357477,89.9976683 80.10375,89.677 C80.5717523,89.3563317 80.80575,88.8580034 80.80575,88.182 C80.80575,87.4713298 80.5760856,86.9600016 80.11675,86.648 C79.6574144,86.3359984 78.8990886,86.18 77.84175,86.18 L74.77375,86.18 L74.77375,90.158 L77.84175,90.158 Z M103.339625,101.234 C101.952951,101.234 100.583632,101.052002 99.231625,100.688 C97.8796182,100.323998 96.7789626,99.8300031 95.929625,99.206 L97.463625,95.748 C98.3649628,96.3200029 99.3226199,96.7576651 100.336625,97.061 C101.35063,97.3643348 102.368953,97.516 103.391625,97.516 C104.43163,97.516 105.228956,97.3730014 105.783625,97.087 C106.338294,96.8009986 106.615625,96.3980026 106.615625,95.878 C106.615625,95.4099977 106.364294,95.0243348 105.861625,94.721 C105.358956,94.4176651 104.414299,94.1186681 103.027625,93.824 C101.27695,93.4773316 99.9162965,93.0483359 98.945625,92.537 C97.9749535,92.0256641 97.294627,91.4233368 96.904625,90.73 C96.5146231,90.0366632 96.319625,89.1960049 96.319625,88.208 C96.319625,87.0813277 96.6402885,86.0630045 97.281625,85.153 C97.9229615,84.2429954 98.8242859,83.5323359 99.985625,83.021 C101.146964,82.5096641 102.472951,82.254 103.963625,82.254 C105.298298,82.254 106.593952,82.4403315 107.850625,82.813 C109.107298,83.1856685 110.090955,83.6753303 110.801625,84.282 L109.293625,87.74 C108.478954,87.1679971 107.620963,86.7303348 106.719625,86.427 C105.818287,86.1236651 104.916963,85.972 104.015625,85.972 C103.131621,85.972 102.420961,86.1409983 101.883625,86.479 C101.346289,86.8170017 101.077625,87.2719971 101.077625,87.844 C101.077625,88.1560016 101.172957,88.415999 101.363625,88.624 C101.554293,88.832001 101.909622,89.0356657 102.429625,89.235 C102.949628,89.4343343 103.72962,89.6466655 104.769625,89.872 C106.450967,90.2360018 107.77262,90.6736641 108.734625,91.185 C109.69663,91.6963359 110.376956,92.2943299 110.775625,92.979 C111.174294,93.6636701 111.373625,94.4826619 111.373625,95.436 C111.373625,97.2386757 110.671632,98.6556615 109.267625,99.687 C107.863618,100.718338 105.887638,101.234 103.339625,101.234 Z M114.359563,82.488 L127.567563,82.488 L127.567563,86.232 L119.117563,86.232 L119.117563,89.716 L127.021563,89.716 L127.021563,93.46 L119.117563,93.46 L119.117563,97.256 L127.567563,97.256 L127.567563,101 L114.359563,101 L114.359563,82.488 Z M139.3415,101.234 C137.41749,101.234 135.740507,100.839671 134.3105,100.051 C132.880493,99.2623294 131.779837,98.1486739 131.0085,96.71 C130.237163,95.2713261 129.8515,93.6073428 129.8515,91.718 C129.8515,89.8459906 130.237163,88.1950071 131.0085,86.765 C131.779837,85.3349928 132.880493,84.2256706 134.3105,83.437 C135.740507,82.6483294 137.41749,82.254 139.3415,82.254 C140.554839,82.254 141.729161,82.4359982 142.8645,82.8 C143.999839,83.1640018 144.914163,83.6579969 145.6075,84.282 L144.1255,87.74 C142.617492,86.6479945 141.057508,86.102 139.4455,86.102 C137.954826,86.102 136.810837,86.5743286 136.0135,87.519 C135.216163,88.4636714 134.8175,89.8633241 134.8175,91.718 C134.8175,93.5900094 135.216163,95.0026619 136.0135,95.956 C136.810837,96.9093381 137.954826,97.386 139.4455,97.386 C141.057508,97.386 142.617492,96.8400055 144.1255,95.748 L145.6075,99.206 C144.914163,99.8300031 143.999839,100.323998 142.8645,100.688 C141.729161,101.052002 140.554839,101.234 139.3415,101.234 Z M152.311438,86.44 L146.799438,86.44 L146.799438,82.488 L162.763438,82.488 L162.763438,86.44 L157.251438,86.44 L157.251438,101 L152.311438,101 L152.311438,86.44 Z M164.995375,82.488 L169.883375,82.488 L169.883375,101 L164.995375,101 L164.995375,82.488 Z M182.281313,101.234 C180.39197,101.234 178.74532,100.848337 177.341313,100.077 C175.937305,99.3056628 174.858316,98.2006739 174.104313,96.762 C173.350309,95.3233261 172.973313,93.6420096 172.973313,91.718 C172.973313,89.7939904 173.354642,88.1213404 174.117313,86.7 C174.879983,85.2786596 175.958972,84.1823372 177.354313,83.411 C178.749653,82.6396628 180.39197,82.254 182.281313,82.254 C184.170655,82.254 185.812972,82.6396628 187.208313,83.411 C188.603653,84.1823372 189.673975,85.2786596 190.419313,86.7 C191.16465,88.1213404 191.537313,89.7939904 191.537313,91.718 C191.537313,93.6420096 191.16465,95.3233261 190.419313,96.762 C189.673975,98.2006739 188.603653,99.3056628 187.208313,100.077 C185.812972,100.848337 184.170655,101.234 182.281313,101.234 Z M182.281313,97.516 C183.667986,97.516 184.755642,97.0220049 185.544313,96.034 C186.332983,95.0459951 186.727313,93.6073428 186.727313,91.718 C186.727313,89.8459906 186.332983,88.4203382 185.544313,87.441 C184.755642,86.4616618 183.667986,85.972 182.281313,85.972 C180.894639,85.972 179.811316,86.4573285 179.031313,87.428 C178.251309,88.3986715 177.861313,89.8286572 177.861313,91.718 C177.861313,93.6246762 178.251309,95.0676618 179.031313,96.047 C179.811316,97.0263382 180.894639,97.516 182.281313,97.516 Z M211.21525,82.488 L211.21525,101 L207.60125,101 L199.20325,90.496 L199.20325,101 L194.65325,101 L194.65325,82.488 L198.21525,82.488 L206.61325,92.94 L206.61325,82.488 L211.21525,82.488 Z" id="CLEARSECTION" fill="#819FB3" fill-rule="nonzero"></path>
        </g>
    </g>
</svg>