<svg xmlns="http://www.w3.org/2000/svg" xmlns:xlink="http://www.w3.org/1999/xlink" width="279" height="227" viewBox="0 0 279 227"><defs><clipPath id="a"><rect x="-6.0162" y="-5.0163" width="290.7385" height="236.3473" fill="none"/></clipPath><clipPath id="b"><rect x="41.8531" y="178.6574" width="194" height="37" fill="none"/></clipPath><clipPath id="c"><rect x="-0.1469" y="-0.3426" width="279" height="227" fill="none"/></clipPath></defs><g clip-path="url(#a)"><rect x="-22.1684" y="-15.428" width="323.0428" height="257.1709" fill="#fff"/><path d="M190.8691,19.9722V10.9766h3.2891a4.414,4.414,0,0,1,1.4434.2,2.2339,2.2339,0,0,1,.9.55,1.9236,1.9236,0,0,1,.4628.8056,3.4283,3.4283,0,0,1,.1319.9561,2.2877,2.2877,0,0,1-.3067,1.2368,2.2607,2.2607,0,0,1-.7939.7686,3.429,3.429,0,0,1-1.1065.3935,6.98,6.98,0,0,1-1.2441.1123H191.72v3.9732Zm2.8008-4.6978a6.8992,6.8992,0,0,0,1.0752-.0752,2.1423,2.1423,0,0,0,.8067-.2807,1.3986,1.3986,0,0,0,.5127-.5625,2.0524,2.0524,0,0,0,.1816-.9307,1.5386,1.5386,0,0,0-.5566-1.2871,2.87,2.87,0,0,0-1.77-.437h-2.2v3.5732Z" fill="#717c86"/><path d="M199.51,19.9722h-.751V13.5h.751v1.2119h.0244a2.1757,2.1757,0,0,1,.8066-1.0806,2.4555,2.4555,0,0,1,1.3067-.3061v.812a2.1943,2.1943,0,0,0-1.05.2,1.73,1.73,0,0,0-.6573.5747,2.2827,2.2827,0,0,0-.3369.856,5.5123,5.5123,0,0,0-.0937,1.0307Z" fill="#717c86"/><path d="M203.249,12.0884V10.9766h.8252v1.1118Zm.0371,7.8838V13.5h.751v6.4722Z" fill="#717c86"/><path d="M210.8262,15.5366a2.1713,2.1713,0,0,0-.6875-1.13A1.868,1.868,0,0,0,208.9,14a1.95,1.95,0,0,0-.9873.2373,2.0057,2.0057,0,0,0-.6758.6309,2.8657,2.8657,0,0,0-.3877.8872,4.0469,4.0469,0,0,0-.125.9931,4.2018,4.2018,0,0,0,.1192,1,2.648,2.648,0,0,0,.3818.8746,1.9535,1.9535,0,0,0,.6748.6186,2.0162,2.0162,0,0,0,1,.231,1.9183,1.9183,0,0,0,1.3447-.4619,2.1476,2.1476,0,0,0,.6436-1.2745h.8008a3.729,3.729,0,0,1-.3194.98,2.5744,2.5744,0,0,1-.5625.7622,2.4181,2.4181,0,0,1-.8193.4937,3.5122,3.5122,0,0,1-2.4258-.0874,2.52,2.52,0,0,1-.9248-.7183,3.029,3.029,0,0,1-.5381-1.0811,4.9147,4.9147,0,0,1-.1748-1.3369,4.3063,4.3063,0,0,1,.1934-1.2929,3.3855,3.3855,0,0,1,.5693-1.0933,2.7526,2.7526,0,0,1,.9316-.7559,2.8028,2.8028,0,0,1,1.2813-.2812,2.8933,2.8933,0,0,1,1.82.5371,2.499,2.499,0,0,1,.8691,1.6743Z" fill="#717c86"/><path d="M213.5527,12.0884V10.9766h.8252v1.1118Zm.0371,7.8838V13.5h.751v6.4722Z" fill="#717c86"/><path d="M217.291,19.9722h-.75V13.5h.75v.9a4.8179,4.8179,0,0,1,.9317-.7749,2.1486,2.1486,0,0,1,1.1572-.3,2.96,2.96,0,0,1,1.1123.206,1.9,1.9,0,0,1,.8633.7188,1.6126,1.6126,0,0,1,.2812.7183,6.4892,6.4892,0,0,1,.044.7685v4.2354h-.75V15.749a1.9292,1.9292,0,0,0-.3877-1.3115A1.6487,1.6487,0,0,0,219.2549,14a1.837,1.837,0,0,0-.6377.106,2.0107,2.0107,0,0,0-.5195.2812,1.8843,1.8843,0,0,0-.3936.4,1.83,1.83,0,0,0-.25.4746,2.3732,2.3732,0,0,0-.1377.6q-.0249.2871-.0254.6245Z" fill="#717c86"/><path d="M228.7832,13.5h.75v5.8477a5.7761,5.7761,0,0,1-.1309,1.2431,2.6871,2.6871,0,0,1-.4687,1.043,2.3612,2.3612,0,0,1-.9258.7187,4.3219,4.3219,0,0,1-2.7383.0874,2.667,2.667,0,0,1-.8379-.456,1.9743,1.9743,0,0,1-.4941-.606,1.5327,1.5327,0,0,1-.1816-.6186h.8007a1.4675,1.4675,0,0,0,.2754.5932,1.3748,1.3748,0,0,0,.4434.3628,1.9074,1.9074,0,0,0,.5693.1812,4.1227,4.1227,0,0,0,.65.05,2.4813,2.4813,0,0,0,1.2256-.2622,1.8068,1.8068,0,0,0,.7-.6875,2.6415,2.6415,0,0,0,.3057-.9619,7.4232,7.4232,0,0,0,.0566-1.1,2.3207,2.3207,0,0,1-.9941.9057,2.99,2.99,0,0,1-1.3194.3062,2.7575,2.7575,0,0,1-1.2812-.2808,2.6235,2.6235,0,0,1-.9-.75,3.2117,3.2117,0,0,1-.5322-1.0933,4.8087,4.8087,0,0,1-.1748-1.2993,5.2926,5.2926,0,0,1,.163-1.3369,2.92,2.92,0,0,1,.5186-1.08,2.49,2.49,0,0,1,.9062-.7183,3.0878,3.0878,0,0,1,1.3379-.2627,2.4671,2.4671,0,0,1,.6387.0874,3.0707,3.0707,0,0,1,.6309.25,2.45,2.45,0,0,1,.5625.4121,2.2114,2.2114,0,0,1,.4189.5625h.0254Zm0,3.2612a3.9873,3.9873,0,0,0-.1436-1.0932,2.6924,2.6924,0,0,0-.4189-.8745,1.9769,1.9769,0,0,0-.6885-.5811A2.0148,2.0148,0,0,0,226.5947,14a2.2326,2.2326,0,0,0-.875.1685,2.0039,2.0039,0,0,0-.7.4936,2.3154,2.3154,0,0,0-.47.7935,3.1884,3.1884,0,0,0-.168,1.0805,4.2064,4.2064,0,0,0,.1,1.1436,2.7187,2.7187,0,0,0,.4.9307,1.988,1.988,0,0,0,.7.6308,2.0879,2.0879,0,0,0,1.0127.231,1.91,1.91,0,0,0,.919-.2183,2.1289,2.1289,0,0,0,.6884-.5874,2.6855,2.6855,0,0,0,.4307-.8623A3.5438,3.5438,0,0,0,228.7832,16.7612Z" fill="#717c86"/><line x1="42.6392" y1="143.8097" x2="145.6555" y2="143.8097" fill="none" stroke="#121212" stroke-linecap="square" stroke-miterlimit="10"/><line x1="42.6392" y1="153.3844" x2="145.6555" y2="153.3844" fill="none" stroke="#121212" stroke-linecap="square" stroke-miterlimit="10"/><line x1="42.6392" y1="162.959" x2="145.6555" y2="162.959" fill="none" stroke="#121212" stroke-linecap="square" stroke-miterlimit="10"/><line x1="34.2542" y1="141.416" x2="34.2542" y2="165.3527" fill="none" stroke="#121212" stroke-linecap="square" stroke-miterlimit="10" stroke-width="3.4485"/><path d="M22.1348,143.6006a2.7537,2.7537,0,0,1,.5434-1.8008,2.6252,2.6252,0,0,1,1.5855-.8662v.791a1.5774,1.5774,0,0,0-1.042.835,1.36,1.36,0,0,0-.1138.6455h1.1939v1.998h-2.167Zm3.604,0a2.45,2.45,0,0,1,2.1289-2.667v.791a1.5345,1.5345,0,0,0-1.0342.8506,1.1929,1.1929,0,0,0-.1216.63h1.1939v1.998h-2.167Z" fill="#121212"/><path d="M166.8477,148.48h1.2236l1.83,5.168h-1.1729l-.3408-1.0625h-1.9053l-.3506,1.0625H165.001Zm-.0713,3.2148h1.3252l-.6534-2.0332Z" fill="#121212"/><path d="M170.8154,148.48h1.1328l2.0538,3.6035V148.48h1.0068v5.168h-1.0811l-2.1054-3.667v3.667h-1.0069Z" fill="#121212"/><path d="M180.2783,153.1885a2.6849,2.6849,0,0,1-3.39,0,2.7859,2.7859,0,0,1-.7862-2.1319,2.73,2.73,0,0,1,.7862-2.1318,2.6815,2.6815,0,0,1,3.39,0,2.7356,2.7356,0,0,1,.7832,2.1318A2.7915,2.7915,0,0,1,180.2783,153.1885Zm-.6748-.7862a2.5885,2.5885,0,0,0,0-2.69,1.2331,1.2331,0,0,0-1.0195-.4756,1.2507,1.2507,0,0,0-1.0254.4737,2.564,2.564,0,0,0,0,2.6923,1.2479,1.2479,0,0,0,1.0254.4737A1.234,1.234,0,0,0,179.6035,152.4023Z" fill="#121212"/><path d="M185.917,148.48v.915H184.37v4.253h-1.0879v-4.253h-1.5547v-.915Z" fill="#121212"/><path d="M186.8154,153.6475V148.48H187.89v1.97H189.9v-1.97h1.0742v5.168H189.9V151.34H187.89v2.3077Z" fill="#121212"/><path d="M196.1113,149.3945H193.374v1.0977h2.5127v.8974H193.374v1.3292h2.8633v.9287h-3.92V148.48h3.7939Z" fill="#121212"/><path d="M200.668,148.6123a1.2825,1.2825,0,0,1,.4843.3613,1.5951,1.5951,0,0,1,.26.4346,1.4363,1.4363,0,0,1,.0957.5439,1.5461,1.5461,0,0,1-.1855.7237,1.0381,1.0381,0,0,1-.6143.5029.9658.9658,0,0,1,.5068.4092,1.6908,1.6908,0,0,1,.1495.8076v.3477a2.67,2.67,0,0,0,.0283.48.43.43,0,0,0,.2.294v.13h-1.1934c-.0332-.1143-.0566-.2071-.07-.2774a2.5674,2.5674,0,0,1-.0459-.4453l-.0068-.4805a.9756.9756,0,0,0-.1709-.6591.8744.8744,0,0,0-.6162-.1641h-1.0557v2.0264h-1.0557V148.48h2.4737A2.25,2.25,0,0,1,200.668,148.6123Zm-2.2344.7647v1.3886h1.1641a1.2278,1.2278,0,0,0,.5195-.0849.5813.5813,0,0,0,.3066-.5821.6514.6514,0,0,0-.2968-.6308,1.0755,1.0755,0,0,0-.5-.0908Z" fill="#121212"/><path d="M208.8447,148.48v.915h-1.5468v4.253H206.21v-4.253h-1.5547v-.915Z" fill="#121212"/><path d="M213.5752,149.3945h-2.7373v1.0977h2.5127v.8974h-2.5127v1.3292h2.8633v.9287h-3.92V148.48h3.794Z" fill="#121212"/><path d="M215.5947,152.0518a1.0533,1.0533,0,0,0,.1973.5293,1.1487,1.1487,0,0,0,.9209.3193,2,2,0,0,0,.6348-.084.602.602,0,0,0,.4619-.6.4414.4414,0,0,0-.2266-.3965,2.4549,2.4549,0,0,0-.7178-.2412l-.56-.123a3.4746,3.4746,0,0,1-1.1338-.3965,1.26,1.26,0,0,1-.5234-1.1182,1.4844,1.4844,0,0,1,.5117-1.1533,2.179,2.179,0,0,1,1.5029-.46,2.3037,2.3037,0,0,1,1.4121.4336,1.5355,1.5355,0,0,1,.6123,1.2569h-1.0381a.74.74,0,0,0-.4179-.6631,1.4351,1.4351,0,0,0-.6436-.13,1.2256,1.2256,0,0,0-.6836.1689.5313.5313,0,0,0-.2558.47.4442.4442,0,0,0,.2519.414,3.16,3.16,0,0,0,.6875.2139l.9072.2139a2.2923,2.2923,0,0,1,.8955.375,1.2646,1.2646,0,0,1,.462,1.0546,1.4821,1.4821,0,0,1-.5479,1.1768,2.3115,2.3115,0,0,1-1.5478.4678,2.5319,2.5319,0,0,1-1.6075-.461,1.5249,1.5249,0,0,1-.5849-1.2675Z" fill="#121212"/><path d="M223.6416,148.48v.915h-1.5469v4.253h-1.0879v-4.253h-1.5547v-.915Z" fill="#121212"/><path d="M225.5322,153.6475H224.459V148.48h1.0732Z" fill="#121212"/><path d="M230.248,148.48h1.5557v5.168h-1.0068v-3.4961q0-.1509.0029-.4219c.0029-.1816.0039-.3213.0039-.419l-.98,4.337h-1.0507l-.9727-4.337q0,.1465.0029.419c.003.1807.0039.3213.0039.4219v3.4961H226.8V148.48h1.5723l.9414,4.0635Z" fill="#121212"/><path d="M237.06,153.1885a2.6851,2.6851,0,0,1-3.39,0,2.7859,2.7859,0,0,1-.7861-2.1319,2.73,2.73,0,0,1,.7861-2.1318,2.6816,2.6816,0,0,1,3.39,0,2.736,2.736,0,0,1,.7832,2.1318A2.7919,2.7919,0,0,1,237.06,153.1885Zm-.6748-.7862a2.589,2.589,0,0,0,0-2.69,1.2332,1.2332,0,0,0-1.02-.4756,1.2507,1.2507,0,0,0-1.0254.4737,2.564,2.564,0,0,0,0,2.6923,1.2479,1.2479,0,0,0,1.0254.4737A1.2342,1.2342,0,0,0,236.3848,152.4023Z" fill="#121212"/><path d="M238.9229,148.48h1.1328l2.0537,3.6035V148.48h1.0068v5.168h-1.081l-2.1055-3.667v3.667h-1.0068Z" fill="#121212"/><path d="M245.39,153.6475h-1.0732V148.48H245.39Z" fill="#121212"/><path d="M248.1523,148.48h1.2237l1.83,5.168h-1.1729l-.3408-1.0625h-1.9053l-.3506,1.0625h-1.1308Zm-.0712,3.2148h1.3251l-.6533-2.0332Z" fill="#121212"/><path d="M252.1377,148.48h1.08v4.2393h2.583v.9287h-3.6631Z" fill="#121212"/><path d="M31.3047,100.9893h1.8345l2.7451,7.7524H34.126l-.5117-1.5938H30.7568l-.5258,1.5938H28.5347Zm-.1069,4.8227h1.9873l-.98-3.05Z" fill="#121212"/><path d="M45.666,100.9893v1.3725H43.3447v6.38H41.7129v-6.38h-2.332v-1.3725Z" fill="#121212"/><path d="M52.6211,102.3618h-4.106v1.6465h3.7691v1.3462H48.5151v1.9936h4.2954v1.3936h-5.88v-7.7524h5.69Z" fill="#121212"/><path d="M55.5225,106.3486a1.5717,1.5717,0,0,0,.2959.794,1.72,1.72,0,0,0,1.3808.479,2.9805,2.9805,0,0,0,.9517-.1265.9025.9025,0,0,0,.6933-.8994.662.662,0,0,0-.34-.5942,3.6806,3.6806,0,0,0-1.0772-.3628l-.84-.1841a5.2312,5.2312,0,0,1-1.7017-.5942,1.89,1.89,0,0,1-.7846-1.6778,2.2273,2.2273,0,0,1,.7676-1.73,3.2718,3.2718,0,0,1,2.2539-.6889,3.4578,3.4578,0,0,1,2.1181.6494,2.3084,2.3084,0,0,1,.92,1.8853H58.6021a1.11,1.11,0,0,0-.626-.9937,2.1441,2.1441,0,0,0-.9658-.1948,1.8414,1.8414,0,0,0-1.0259.2524.7989.7989,0,0,0-.3828.7051.6647.6647,0,0,0,.3779.6206,4.7294,4.7294,0,0,0,1.0308.3208l1.3613.3208a3.4626,3.4626,0,0,1,1.3423.5625,1.8967,1.8967,0,0,1,.6938,1.583,2.2239,2.2239,0,0,1-.8223,1.7647,3.47,3.47,0,0,1-2.3222.7021,3.801,3.801,0,0,1-2.4107-.6914,2.288,2.288,0,0,1-.8774-1.9014Z" fill="#121212"/><path d="M67.4629,100.9893v1.3725H65.1416v6.38H63.51v-6.38H61.1777v-1.3725Z" fill="#121212"/><path d="M70.1592,108.7417H68.5483v-7.7524h1.6109Z" fill="#121212"/><path d="M77.0918,100.9893h2.333v7.7524H77.9141V103.498q0-.2262.0053-.6337t.0054-.6285l-1.4707,6.5059H74.8784l-1.46-6.5059q0,.2205.0053.6285t.0054.6337v5.2437H71.9185v-7.7524h2.3593L75.69,107.085Z" fill="#121212"/><path d="M87.18,108.0527a4.0246,4.0246,0,0,1-5.085,0,4.18,4.18,0,0,1-1.1792-3.1977,4.0986,4.0986,0,0,1,1.1792-3.1978,4.0246,4.0246,0,0,1,5.085,0,4.1083,4.1083,0,0,1,1.1738,3.1978A4.19,4.19,0,0,1,87.18,108.0527Zm-1.0132-1.1782a3.8821,3.8821,0,0,0,0-4.0366,1.8507,1.8507,0,0,0-1.5293-.7129,1.8742,1.8742,0,0,0-1.5371.71,3.8415,3.8415,0,0,0,0,4.0391,1.8739,1.8739,0,0,0,1.5371.71A1.8525,1.8525,0,0,0,86.167,106.8745Z" fill="#121212"/><path d="M89.8345,100.9893h1.7l3.08,5.4057v-5.4057H96.125v7.7524H94.5039l-3.1587-5.5v5.5H89.8345Z" fill="#121212"/><path d="M99.4058,108.7417H97.7949v-7.7524h1.6109Z" fill="#121212"/><path d="M103.41,100.9893h1.8344l2.7451,7.7524h-1.7583l-.5117-1.5938h-2.8574l-.5259,1.5938H100.64Zm-.107,4.8227h1.9873l-.98-3.05Z" fill="#121212"/><path d="M109.2573,100.9893h1.6211v6.3588h3.8745v1.3936h-5.4956Z" fill="#121212"/><line x1="146.8534" y1="99.5268" x2="249.8696" y2="99.5268" fill="none" stroke="#121212" stroke-linecap="square" stroke-miterlimit="10"/><line x1="146.8534" y1="109.1015" x2="249.8696" y2="109.1015" fill="none" stroke="#121212" stroke-linecap="square" stroke-miterlimit="10"/><line x1="146.8534" y1="118.6762" x2="249.8696" y2="118.6762" fill="none" stroke="#121212" stroke-linecap="square" stroke-miterlimit="10"/><line x1="138.4683" y1="97.1332" x2="138.4683" y2="121.0698" fill="none" stroke="#121212" stroke-linecap="square" stroke-miterlimit="10" stroke-width="3.4485"/><path d="M126.3486,99.3179a2.75,2.75,0,0,1,.5435-1.8,2.6227,2.6227,0,0,1,1.5854-.8662v.79a1.5768,1.5768,0,0,0-1.042.8355,1.3611,1.3611,0,0,0-.1137.646h1.1938v1.998h-2.167Zm3.604,0a2.4485,2.4485,0,0,1,2.1289-2.6665v.79a1.5359,1.5359,0,0,0-1.0341.8511,1.1938,1.1938,0,0,0-.1216.63H132.12v1.998h-2.167Z" fill="#121212"/><path d="M74.6055,9.5469h3.0429l1.7476,8.2573,1.79-8.2573h3.127L80.9858,21.0127H77.9009l-1.8-8.3521-1.8213,8.3521H71.1631L67.9414,9.5469h3.2217l1.79,8.226Z" fill="#121212"/><path d="M94.4712,9.61a3.3624,3.3624,0,0,1,1.42,1.1264,3,3,0,0,1,.5767,1.3218,16.3462,16.3462,0,0,1,.1049,2.2158v6.7383H93.5093V14.0308a3.0927,3.0927,0,0,0-.3135-1.4956,1.5713,1.5713,0,0,0-1.5464-.8,2.1219,2.1219,0,0,0-1.7925.7954,3.6561,3.6561,0,0,0-.6113,2.269v6.2134H86.2451V5.56h3.0005v5.47A3.6681,3.6681,0,0,1,90.75,9.6362a4.2448,4.2448,0,0,1,1.7979-.3945A4.86,4.86,0,0,1,94.4712,9.61Z" fill="#121212"/><path d="M104.1987,14.0386a4.728,4.728,0,0,0,1.1988-.2632.9021.9021,0,0,0,.6469-.8521,1.0064,1.0064,0,0,0-.4965-.9726,3.1328,3.1328,0,0,0-1.4566-.2686,1.9144,1.9144,0,0,0-1.5264.5264,2.17,2.17,0,0,0-.4267,1.0518h-2.895a4.3827,4.3827,0,0,1,.8457-2.4722q1.1946-1.5147,4.1025-1.5147a7.3214,7.3214,0,0,1,3.3628.7471,2.8635,2.8635,0,0,1,1.4692,2.8189v5.26q0,.5472.0215,1.3252a1.6648,1.6648,0,0,0,.1787.7993,1.0677,1.0677,0,0,0,.4424.3472v.4419h-3.2637a3.3034,3.3034,0,0,1-.1894-.6523q-.0536-.3048-.0845-.6944a6.1882,6.1882,0,0,1-1.44,1.147,4.3552,4.3552,0,0,1-2.2026.5571,3.8,3.8,0,0,1-2.5889-.8887,3.159,3.159,0,0,1-1.022-2.519,3.2629,3.2629,0,0,1,1.6441-3.061,7.3353,7.3353,0,0,1,2.6513-.7364Zm1.835,1.3989a3.32,3.32,0,0,1-.582.29,4.9929,4.9929,0,0,1-.8057.205l-.6831.126a4.4988,4.4988,0,0,0-1.3789.41,1.37,1.37,0,0,0-.709,1.2729,1.33,1.33,0,0,0,.4331,1.11,1.6459,1.6459,0,0,0,1.0527.3418,3.14,3.14,0,0,0,1.8121-.5679,2.4046,2.4046,0,0,0,.8608-2.0723Z" fill="#121212"/><path d="M110.7246,11.7876V9.6523h1.6V6.4541h2.9692V9.6523h1.8633v2.1353h-1.8633v6.0591a1.36,1.36,0,0,0,.1788.8779,1.9705,1.9705,0,0,0,1.0947.1738c.0913,0,.188-.0019.2895-.0053s.2017-.0088.3-.0157v2.24l-1.4214.0527a3.8175,3.8175,0,0,1-2.9057-.7363,2.1907,2.1907,0,0,1-.5054-1.5884V11.7876Z" fill="#121212"/><path d="M131.0034,9.5469h3.043l1.7475,8.2573,1.79-8.2573h3.1274l-3.3271,11.4658h-3.085l-1.8-8.3521-1.8213,8.3521H127.561L124.3394,9.5469h3.2216l1.79,8.226Z" fill="#121212"/><path d="M150.1,9.7793a4.6637,4.6637,0,0,1,1.9834,1.6963,5.6377,5.6377,0,0,1,.9141,2.37,14.5213,14.5213,0,0,1,.0986,2.2759h-8.3574a2.7467,2.7467,0,0,0,1.2,2.4189,3.0489,3.0489,0,0,0,1.6543.4317,2.3289,2.3289,0,0,0,2.2832-1.315H152.94a3.7427,3.7427,0,0,1-1.1124,2.0723,5.58,5.58,0,0,1-4.3173,1.6724,6.2576,6.2576,0,0,1-4.042-1.4107q-1.752-1.4106-1.751-4.59a6.2066,6.2066,0,0,1,1.58-4.5694,5.5383,5.5383,0,0,1,4.1045-1.59A6.5317,6.5317,0,0,1,150.1,9.7793Zm-4.4883,2.59a3.1128,3.1128,0,0,0-.8,1.7745h5.17a2.5,2.5,0,0,0-.8-1.8116,2.63,2.63,0,0,0-1.7793-.6181A2.379,2.379,0,0,0,145.6113,12.3691Z" fill="#121212"/><path d="M167.2061,9.731a3.6486,3.6486,0,0,1,1.3164,1.2675v-5.47h3.042V21.0127h-2.9161V19.4243a4.2317,4.2317,0,0,1-1.4629,1.4834,4.1184,4.1184,0,0,1-2.0429.4624,4.2654,4.2654,0,0,1-3.3848-1.625,6.2371,6.2371,0,0,1-1.374-4.1709,7.1714,7.1714,0,0,1,1.3535-4.6177,4.4011,4.4011,0,0,1,3.6162-1.6831A3.7012,3.7012,0,0,1,167.2061,9.731Zm.7373,8.1679a4.177,4.177,0,0,0,.663-2.4507A3.7576,3.7576,0,0,0,167.543,12.44a2.292,2.292,0,0,0-1.5157-.5469,2.1094,2.1094,0,0,0-1.9326.9941,4.6064,4.6064,0,0,0-.6152,2.4668,4.5558,4.5558,0,0,0,.626,2.54,2.12,2.12,0,0,0,1.9.9521A2.2159,2.2159,0,0,0,167.9434,17.8989Z" fill="#121212"/><path d="M184.1211,19.61a6.3263,6.3263,0,0,1-8.8232,0,6.6309,6.6309,0,0,1-1.4522-4.3145,6.6761,6.6761,0,0,1,1.4522-4.2983,6.2607,6.2607,0,0,1,8.8232,0,6.6816,6.6816,0,0,1,1.4521,4.2983A6.6363,6.6363,0,0,1,184.1211,19.61Zm-2.4-1.6568a4.3448,4.3448,0,0,0,.7051-2.6577,4.32,4.32,0,0,0-.7051-2.6518,2.6689,2.6689,0,0,0-4.0488,0,4.2929,4.2929,0,0,0-.71,2.6518,4.3177,4.3177,0,0,0,.71,2.6577,2.66,2.66,0,0,0,4.0488,0Z" fill="#121212"/><line x1="29.4627" y1="37.2915" x2="132.479" y2="37.2915" fill="none" stroke="#121212" stroke-linecap="square" stroke-miterlimit="10"/><line x1="29.4627" y1="56.4408" x2="132.479" y2="56.4408" fill="none" stroke="#121212" stroke-linecap="square" stroke-miterlimit="10"/><line x1="29.4627" y1="75.5902" x2="132.479" y2="75.5902" fill="none" stroke="#121212" stroke-linecap="square" stroke-miterlimit="10"/><line x1="146.8534" y1="37.2915" x2="249.8696" y2="37.2915" fill="none" stroke="#121212" stroke-linecap="square" stroke-miterlimit="10"/><line x1="146.8534" y1="56.4408" x2="249.8696" y2="56.4408" fill="none" stroke="#121212" stroke-linecap="square" stroke-miterlimit="10"/><line x1="146.8534" y1="75.5902" x2="249.8696" y2="75.5902" fill="none" stroke="#121212" stroke-linecap="square" stroke-miterlimit="10"/></g><g clip-path="url(#b)"><rect x="36.8531" y="173.6574" width="204" height="47" fill="#d8d8d8" opacity="0.4"/></g><g clip-path="url(#c)"><line x1="89.8531" y1="189.1574" x2="188.7101" y2="189.1574" fill="none" stroke="#121212" stroke-linecap="square" stroke-miterlimit="10"/><line x1="89.8531" y1="197.1574" x2="188.7101" y2="197.1574" fill="none" stroke="#121212" stroke-linecap="square" stroke-miterlimit="10"/><line x1="107.8531" y1="204.1574" x2="171.3531" y2="204.1574" fill="none" stroke="#121212" stroke-linecap="square" stroke-miterlimit="10"/></g></svg>