<?xml version="1.0" encoding="utf-8"?>
<!-- Generator: Adobe Illustrator 24.0.3, SVG Export Plug-In . SVG Version: 6.00 Build 0)  -->
<svg version="1.1" id="Layer_1" xmlns="http://www.w3.org/2000/svg" xmlns:xlink="http://www.w3.org/1999/xlink" x="0px" y="0px"
	 viewBox="0 0 279 207" style="enable-background:new 0 0 279 207;" xml:space="preserve">
<style type="text/css">
	.st0{fill-rule:evenodd;clip-rule:evenodd;fill:#313131;}
	.st1{fill:#FFFFFF;}
	.st2{fill:none;stroke:#FFFFFF;stroke-linecap:square;}
	.st3{fill-rule:evenodd;clip-rule:evenodd;fill:#63CAE4;}
	.st4{fill-rule:evenodd;clip-rule:evenodd;fill:#819FB3;}
	.st5{fill-rule:evenodd;clip-rule:evenodd;fill:#D0E0EA;}
	.st6{fill-rule:evenodd;clip-rule:evenodd;fill:#FEFEFE;}
	.st7{fill:none;stroke:#C8282C;stroke-width:2.0691;}
	.st8{fill-rule:evenodd;clip-rule:evenodd;fill:#1DA1F3;}
	.st9{fill-rule:evenodd;clip-rule:evenodd;fill:#3A5899;}
	.st10{fill-rule:evenodd;clip-rule:evenodd;fill:#BD091B;}
	.st11{fill-rule:evenodd;clip-rule:evenodd;fill:#1377B5;}
	.st12{fill-rule:evenodd;clip-rule:evenodd;fill:#FB4402;}
</style>
<title>Event Details</title>
<desc>Created with Sketch.</desc>
<g id="Event-Details">
	<rect id="Rectangle-Copy-18" class="st0" width="279" height="207"/>
	<g id="Section-Copy" transform="translate(31.000000, 42.000000)">
		<path id="HEADING" class="st1" d="M1.3,16V4h2.5v4.6h4.7V4h2.5v12H8.4v-5.4H3.7V16H1.3z M22.5,6.1h-6.4v2.6h5.8v2.1h-5.8v3.1h6.7
			V16h-9.1V4h8.8V6.1z M28.2,11.5h3.1l-1.5-4.7L28.2,11.5z M28.4,4h2.8l4.3,12h-2.7L32,13.5h-4.4L26.7,16h-2.6L28.4,4z M39.7,6.1
			v7.9H42c1.2,0,2-0.6,2.5-1.8c0.3-0.6,0.4-1.4,0.4-2.3c0-1.2-0.2-2.2-0.6-2.8s-1.1-1-2.3-1H39.7z M42.4,4c0.7,0,1.4,0.1,1.9,0.3
			c0.8,0.3,1.5,0.8,2,1.5C46.7,6.4,47,7,47.2,7.7s0.2,1.4,0.2,2c0,1.6-0.3,3-1,4.1c-0.9,1.5-2.2,2.2-4,2.2h-5.2V4H42.4z M51.8,16
			h-2.5V4h2.5V16z M54.3,4H57l4.8,8.4V4h2.3v12h-2.5l-4.9-8.5V16h-2.3V4z M74.7,7.7c-0.2-0.8-0.7-1.4-1.4-1.7
			c-0.4-0.2-0.9-0.3-1.4-0.3c-1,0-1.8,0.4-2.4,1.1c-0.6,0.7-0.9,1.8-0.9,3.3c0,1.5,0.3,2.5,1,3.1c0.7,0.6,1.4,0.9,2.3,0.9
			c0.8,0,1.5-0.2,2.1-0.7c0.5-0.5,0.9-1.1,1-1.9h-2.8v-2h5V16h-1.7l-0.3-1.5c-0.5,0.6-0.9,1-1.3,1.2c-0.7,0.4-1.5,0.6-2.4,0.6
			c-1.6,0-2.9-0.6-3.9-1.7c-1.1-1.1-1.6-2.6-1.6-4.6c0-1.9,0.5-3.5,1.6-4.7s2.5-1.8,4.3-1.8c1.5,0,2.8,0.4,3.7,1.2s1.5,1.7,1.6,2.9
			H74.7z"/>
		<path id="Line-Copy-2" class="st2" d="M1.1,33.9H100"/>
		<path id="Line-Copy-3" class="st2" d="M1.1,66.1h70.1"/>
		<path id="Line-Copy-5" class="st2" d="M140.2,108.1H177"/>
		<path id="Line-Copy-6" class="st2" d="M140.2,119.5H177"/>
		<path id="Line-Copy-4" class="st2" d="M1.1,50.1H100"/>
		<g id="covert-nine-website-2019-352" transform="translate(140.239000, 1.149500)">
			<g id="Mask">
			</g>
		</g>
	</g>
	<g id="IMG" transform="translate(174.000000, 44.000000)">
		<g id="Group-22">
			<polygon id="Fill-1" class="st3" points="1.1,93.7 74.9,93.7 74.9,1 1.1,1 			"/>
			<polygon id="Fill-2" class="st4" points="0,94.7 76,94.7 76,0 0,0 			"/>
			<g id="Group-21" transform="translate(0.000000, 10.296814)">
				<polygon id="Fill-3" class="st5" points="1.1,83.4 17.9,46.7 32,63.2 50.2,19.6 71.7,83.4 				"/>
				<path id="Fill-4" class="st5" d="M51.5,14.4L32.8,59.7l-14-16.5L0,84.4h74.9L51.5,14.4z M51.4,23.7l19.3,57.7H5.4L20,49.2
					l10.8,12.6l3.3,3.9L36,61L51.4,23.7z"/>
				<path id="Fill-5" class="st6" d="M10.9,9.2v5.2c0,2,1.1,3.8,2.9,4.8l4.7,2.6c1.8,1,4,1,5.8,0l4.7-2.6c1.8-1,2.9-2.8,2.9-4.8V9.2
					c0-2-1.1-3.8-2.9-4.8l-4.7-2.6c-1.8-1-4-1-5.8,0l-4.7,2.6C12,5.4,10.9,7.2,10.9,9.2"/>
				<path id="Stroke-7" class="st7" d="M10.9,9.2v5.2c0,2,1.1,3.8,2.9,4.8l4.7,2.6c1.8,1,4,1,5.8,0l4.7-2.6c1.8-1,2.9-2.8,2.9-4.8
					V9.2c0-2-1.1-3.8-2.9-4.8l-4.7-2.6c-1.8-1-4-1-5.8,0l-4.7,2.6C12,5.4,10.9,7.2,10.9,9.2z"/>
			</g>
		</g>
	</g>
</g>
<g id="Group" transform="translate(27.000000, 30.000000)">
	<circle id="Oval" class="st8" cx="17.7" cy="105.6" r="7.4"/>
	<circle id="Oval-Copy" class="st9" cx="39.5" cy="105.6" r="7.4"/>
	<circle id="Oval-Copy-2" class="st10" cx="61.3" cy="105.6" r="7.4"/>
	<circle id="Oval-Copy-3" class="st11" cx="83.2" cy="105.6" r="7.4"/>
	<circle id="Oval-Copy-4" class="st12" cx="105" cy="105.6" r="7.4"/>
</g>
<path id="_xF09A_" class="st1" d="M68.1,133v1h-0.6c-0.2,0-0.4,0-0.4,0.1c-0.1,0.1-0.1,0.2-0.1,0.4v0.7H68l-0.1,1.1h-0.9v2.8h-1.1
	v-2.8h-0.9v-1.1h0.9v-0.8c0-0.5,0.1-0.8,0.4-1.1s0.6-0.4,1-0.4C67.6,132.9,67.9,133,68.1,133z"/>
<path id="_xF099_" class="st1" d="M47.7,134.4c-0.2,0.2-0.4,0.4-0.6,0.6c0,0,0,0.1,0,0.2c0,0.3,0,0.6-0.1,1
	c-0.1,0.3-0.2,0.6-0.4,0.9c-0.2,0.3-0.4,0.6-0.7,0.8s-0.6,0.4-1,0.5c-0.4,0.1-0.8,0.2-1.2,0.2c-0.7,0-1.3-0.2-1.8-0.5
	c0.1,0,0.2,0,0.3,0c0.6,0,1-0.2,1.5-0.5c-0.3,0-0.5-0.1-0.7-0.2c-0.2-0.2-0.3-0.4-0.4-0.6c0.1,0,0.2,0,0.2,0c0.1,0,0.2,0,0.3,0
	c-0.3-0.1-0.5-0.2-0.7-0.4c-0.2-0.2-0.3-0.5-0.3-0.8v0c0.2,0.1,0.3,0.1,0.5,0.2c-0.2-0.1-0.3-0.3-0.4-0.4c-0.1-0.2-0.1-0.4-0.1-0.6
	c0-0.2,0.1-0.4,0.2-0.6c0.3,0.4,0.7,0.7,1.1,0.9c0.4,0.2,0.9,0.3,1.4,0.4c0-0.1,0-0.2,0-0.3c0-0.3,0.1-0.6,0.3-0.8
	c0.2-0.2,0.5-0.3,0.8-0.3c0.3,0,0.6,0.1,0.9,0.4c0.3-0.1,0.5-0.1,0.8-0.3c-0.1,0.3-0.3,0.5-0.5,0.7
	C47.2,134.6,47.4,134.5,47.7,134.4z"/>
<path id="_xF231_" class="st1" d="M86.3,135.1c0-0.3,0-0.5,0.1-0.8c0.1-0.2,0.2-0.4,0.4-0.6c0.2-0.2,0.3-0.3,0.6-0.5
	c0.2-0.1,0.4-0.2,0.7-0.3c0.2-0.1,0.5-0.1,0.7-0.1c0.4,0,0.8,0.1,1.1,0.2c0.3,0.2,0.6,0.4,0.8,0.7c0.2,0.3,0.3,0.7,0.3,1.1
	c0,0.2,0,0.5-0.1,0.7s-0.1,0.4-0.2,0.7s-0.2,0.4-0.4,0.6s-0.3,0.3-0.5,0.4c-0.2,0.1-0.4,0.1-0.7,0.1c-0.2,0-0.3,0-0.5-0.1
	c-0.2-0.1-0.3-0.2-0.4-0.3c0,0.1-0.1,0.2-0.1,0.4c0,0.2-0.1,0.3-0.1,0.4c0,0.1,0,0.1-0.1,0.3c0,0.1-0.1,0.2-0.1,0.3
	c0,0.1-0.1,0.1-0.1,0.2c-0.1,0.1-0.1,0.2-0.2,0.3c-0.1,0.1-0.1,0.2-0.2,0.3l-0.1,0l0,0c0-0.4-0.1-0.6-0.1-0.7c0-0.2,0-0.5,0.1-0.8
	c0.1-0.3,0.1-0.6,0.2-1.1c0.1-0.4,0.2-0.7,0.2-0.8c-0.1-0.2-0.1-0.4-0.1-0.6c0-0.2,0.1-0.4,0.2-0.6c0.1-0.2,0.3-0.3,0.5-0.3
	c0.2,0,0.3,0,0.4,0.1c0.1,0.1,0.1,0.2,0.1,0.4c0,0.2-0.1,0.4-0.2,0.7s-0.2,0.5-0.2,0.7c0,0.2,0.1,0.3,0.2,0.4
	c0.1,0.1,0.2,0.2,0.4,0.2c0.1,0,0.3,0,0.4-0.1s0.2-0.1,0.3-0.3c0.1-0.1,0.1-0.2,0.2-0.4c0.1-0.1,0.1-0.3,0.1-0.4
	c0-0.1,0.1-0.3,0.1-0.4c0-0.1,0-0.3,0-0.4c0-0.4-0.1-0.8-0.4-1c-0.3-0.2-0.6-0.4-1.1-0.4c-0.5,0-0.9,0.2-1.2,0.5
	c-0.3,0.3-0.5,0.7-0.5,1.2c0,0.1,0,0.2,0,0.3c0,0.1,0.1,0.2,0.1,0.2c0,0.1,0.1,0.1,0.1,0.2c0,0.1,0,0.1,0,0.1c0,0.1,0,0.2-0.1,0.3
	c0,0.1-0.1,0.2-0.1,0.2c0,0,0,0-0.1,0c-0.1,0-0.2-0.1-0.3-0.2c-0.1-0.1-0.2-0.2-0.2-0.3c-0.1-0.1-0.1-0.3-0.1-0.4
	C86.4,135.4,86.3,135.3,86.3,135.1z"/>
<path id="_xF0E1_" class="st1" d="M109,134.8v3.7h-1.2v-3.7H109z M109,133.6c0,0.2-0.1,0.3-0.2,0.5s-0.3,0.2-0.5,0.2h0
	c-0.2,0-0.4-0.1-0.5-0.2c-0.1-0.1-0.2-0.3-0.2-0.5c0-0.2,0.1-0.3,0.2-0.5c0.1-0.1,0.3-0.2,0.5-0.2c0.2,0,0.4,0.1,0.5,0.2
	C109,133.3,109,133.4,109,133.6z M110.9,135.3c0-0.1,0.1-0.1,0.1-0.2c0.1-0.1,0.1-0.1,0.2-0.2c0.1-0.1,0.2-0.1,0.3-0.2
	c0.1,0,0.3-0.1,0.4-0.1c0.4,0,0.8,0.1,1,0.4c0.3,0.3,0.4,0.7,0.4,1.2v2.1h-1.2v-2c0-0.3,0-0.5-0.1-0.6c-0.1-0.1-0.3-0.2-0.5-0.2
	c-0.2,0-0.3,0-0.4,0.1c-0.1,0.1-0.2,0.2-0.2,0.3c0,0.1,0,0.2,0,0.3v2h-1.2c0-1,0-1.8,0-2.4c0-0.6,0-1,0-1.1l0-0.2h1.2V135.3
	L110.9,135.3z"/>
<path id="_xF281_" class="st1" d="M135.6,135.6c0,0.1,0,0.3-0.1,0.4s-0.2,0.2-0.3,0.3c0,0.1,0,0.2,0,0.4c0,0.4-0.1,0.7-0.4,1.1
	c-0.3,0.3-0.6,0.6-1.1,0.8c-0.5,0.2-0.9,0.3-1.5,0.3c-0.5,0-1-0.1-1.5-0.3c-0.5-0.2-0.8-0.4-1.1-0.8c-0.3-0.3-0.4-0.7-0.4-1.1
	c0-0.1,0-0.2,0-0.3c-0.1-0.1-0.2-0.2-0.3-0.3c-0.1-0.1-0.1-0.3-0.1-0.4c0-0.2,0.1-0.4,0.2-0.5c0.1-0.1,0.3-0.2,0.5-0.2
	c0.2,0,0.4,0.1,0.5,0.2c0.5-0.4,1.2-0.6,1.9-0.6l0.4-1.9c0,0,0-0.1,0.1-0.1c0,0,0.1,0,0.1,0l1.4,0.3c0-0.1,0.1-0.2,0.2-0.2
	c0.1-0.1,0.2-0.1,0.3-0.1c0.2,0,0.3,0.1,0.4,0.2c0.1,0.1,0.2,0.2,0.2,0.4s-0.1,0.3-0.2,0.4c-0.1,0.1-0.2,0.2-0.4,0.2
	s-0.3-0.1-0.4-0.2s-0.2-0.2-0.2-0.4l-1.2-0.3l-0.4,1.7c0.7,0,1.4,0.2,1.9,0.6c0.1-0.2,0.3-0.2,0.5-0.2c0.2,0,0.4,0.1,0.5,0.2
	C135.6,135.2,135.6,135.4,135.6,135.6z M130.6,136.3c0,0.2,0.1,0.3,0.2,0.4c0.1,0.1,0.2,0.2,0.4,0.2s0.3-0.1,0.4-0.2
	c0.1-0.1,0.2-0.2,0.2-0.4c0-0.2-0.1-0.3-0.2-0.4c-0.1-0.1-0.2-0.2-0.4-0.2c-0.2,0-0.3,0.1-0.4,0.2
	C130.6,136,130.6,136.2,130.6,136.3z M133.6,137.6C133.6,137.6,133.6,137.6,133.6,137.6c0-0.1,0-0.2,0-0.2c0,0-0.1,0-0.1,0
	s-0.1,0-0.1,0c-0.1,0.1-0.3,0.2-0.4,0.2c-0.2,0-0.4,0.1-0.6,0.1c-0.2,0-0.4,0-0.6-0.1c-0.2,0-0.3-0.1-0.4-0.2c0,0-0.1,0-0.1,0
	c0,0-0.1,0-0.1,0c0,0,0,0.1,0,0.1c0,0,0,0.1,0,0.1c0.1,0.1,0.3,0.2,0.4,0.3s0.3,0.1,0.5,0.1s0.2,0,0.3,0c0.1,0,0.2,0,0.3,0
	c0.1,0,0.3,0,0.5-0.1C133.3,137.8,133.5,137.7,133.6,137.6z M133.2,136.7c0.1,0.1,0.2,0.2,0.4,0.2c0.2,0,0.3-0.1,0.4-0.2
	c0.1-0.1,0.2-0.2,0.2-0.4c0-0.2-0.1-0.3-0.2-0.4c-0.1-0.1-0.2-0.2-0.4-0.2c-0.2,0-0.3,0.1-0.4,0.2c-0.1,0.1-0.2,0.2-0.2,0.4
	C133,136.5,133.1,136.6,133.2,136.7z"/>
</svg>
