<svg xmlns="http://www.w3.org/2000/svg" xmlns:xlink="http://www.w3.org/1999/xlink" width="279" height="227" viewBox="0 0 279 227"><defs><clipPath id="a"><rect x="60.8531" y="4.1574" width="71" height="51" fill="none"/></clipPath><clipPath id="b"><polygon points="75.748 40.251 89.794 47.404 110.055 21.157 131.853 54.985 60.853 55.157 75.748 40.251" fill="none" clip-rule="evenodd"/></clipPath><clipPath id="c"><rect x="-0.1469" y="0.1574" width="279" height="227" fill="none"/></clipPath><clipPath id="d"><path d="M89.3531,27.1574a1.8171,1.8171,0,0,1-.8967-.2368l-3.7077-2.1152a1.7694,1.7694,0,0,1-.8956-1.5327v-4.23a1.771,1.771,0,0,1,.8956-1.5338l3.7077-2.1152a1.8141,1.8141,0,0,1,1.7923,0l3.7087,2.1152a1.7709,1.7709,0,0,1,.8957,1.5338v4.23a1.7693,1.7693,0,0,1-.8957,1.5327l-3.7087,2.1152a1.8136,1.8136,0,0,1-.8956.2368" fill="none" clip-rule="evenodd"/></clipPath><clipPath id="f"><path d="M89.6223,16.0145a1.29,1.29,0,0,1,.6165.1569l3.6131,1.9847a1.1685,1.1685,0,0,1,.6165,1.0162v3.9683a1.1678,1.1678,0,0,1-.6165,1.0172l-3.6131,1.9846a1.2846,1.2846,0,0,1-1.2341,0l-3.612-1.9846a1.1659,1.1659,0,0,1-.6166-1.0172V19.1723a1.1666,1.1666,0,0,1,.6166-1.0162l3.612-1.9847a1.2974,1.2974,0,0,1,.6176-.1569m.2308-.8571a2.4817,2.4817,0,0,0-1.1546.2819L85.0066,17.386A2.08,2.08,0,0,0,83.8531,19.21v3.8923a2.08,2.08,0,0,0,1.1535,1.8253l3.6919,1.9466a2.4953,2.4953,0,0,0,2.3081,0L94.7,24.9279a2.08,2.08,0,0,0,1.1536-1.8253V19.21A2.08,2.08,0,0,0,94.7,17.386l-3.6929-1.9467a2.4779,2.4779,0,0,0-1.1535-.2819" fill="none" clip-rule="evenodd"/></clipPath><clipPath id="h"><rect x="91.8531" y="106.1574" width="92" height="65" fill="none"/></clipPath><clipPath id="i"><polygon points="111.154 152.743 129.354 161.579 155.607 129.157 183.853 170.944 91.853 171.157 111.154 152.743" fill="none" clip-rule="evenodd"/></clipPath><clipPath id="k"><path d="M129.8531,136.1574a2.233,2.233,0,0,1-1.1412-.3157l-4.7189-2.82a2.3805,2.3805,0,0,1-1.14-2.0436v-5.6394a2.3829,2.3829,0,0,1,1.14-2.045l4.7189-2.82a2.2181,2.2181,0,0,1,2.2811,0l4.72,2.82a2.3829,2.3829,0,0,1,1.14,2.045v5.6394a2.3805,2.3805,0,0,1-1.14,2.0436l-4.72,2.82a2.2284,2.2284,0,0,1-1.14.3157" fill="none" clip-rule="evenodd"/></clipPath><clipPath id="m"><path d="M129.5454,121.3a1.72,1.72,0,0,1,.822.2091l4.8175,2.6462a1.5581,1.5581,0,0,1,.822,1.3549v5.2912a1.557,1.557,0,0,1-.822,1.3562l-4.8175,2.6462a1.7136,1.7136,0,0,1-1.6454,0l-4.8161-2.6462a1.5543,1.5543,0,0,1-.822-1.3562v-5.2912a1.5553,1.5553,0,0,1,.822-1.3549l4.8161-2.6462a1.73,1.73,0,0,1,.8234-.2091m.3077-1.1429a3.308,3.308,0,0,0-1.5394.3759l-4.9226,2.5955a2.7735,2.7735,0,0,0-1.538,2.4324v5.19a2.7738,2.7738,0,0,0,1.538,2.4337l4.9226,2.5955a3.327,3.327,0,0,0,3.0774,0l4.924-2.5955a2.7738,2.7738,0,0,0,1.538-2.4337v-5.19a2.7735,2.7735,0,0,0-1.538-2.4324l-4.924-2.5955a3.3024,3.3024,0,0,0-1.538-.3759" fill="none" clip-rule="evenodd"/></clipPath></defs><g clip-path="url(#a)"><rect x="55.8531" y="-0.8426" width="81" height="61" fill="#819fb3"/></g><g clip-path="url(#b)"><g clip-path="url(#c)"><rect x="55.8531" y="16.1574" width="81" height="44" fill="#eef8ff" opacity="0.73"/></g></g><g clip-path="url(#d)"><g clip-path="url(#c)"><rect x="78.8531" y="10.1574" width="21" height="22" fill="#fefefe"/></g></g><g clip-path="url(#f)"><g clip-path="url(#c)"><rect x="78.8531" y="10.1574" width="22" height="22" fill="#c8282c"/></g></g><g clip-path="url(#h)"><rect x="86.8531" y="101.1574" width="102" height="75" fill="#819fb3"/></g><g clip-path="url(#i)"><g clip-path="url(#c)"><rect x="86.8531" y="124.1574" width="102" height="52" fill="#eef8ff" opacity="0.73"/></g></g><g clip-path="url(#k)"><g clip-path="url(#c)"><rect x="117.8531" y="115.1574" width="24" height="26" fill="#fefefe"/></g></g><g clip-path="url(#m)"><g clip-path="url(#c)"><rect x="116.8531" y="115.1574" width="26" height="26" fill="#c8282c"/></g></g><g clip-path="url(#c)"><line x1="153.8531" y1="11.6574" x2="219.6785" y2="11.6574" fill="none" stroke="#121212" stroke-linecap="square" stroke-miterlimit="10"/><line x1="153.8531" y1="59.6574" x2="219.6785" y2="59.6574" fill="none" stroke="#121212" stroke-linecap="square" stroke-miterlimit="10"/><line x1="153.8531" y1="30.6574" x2="219.6785" y2="30.6574" fill="none" stroke="#121212" stroke-linecap="square" stroke-miterlimit="10"/><line x1="153.8531" y1="78.6574" x2="219.6785" y2="78.6574" fill="none" stroke="#121212" stroke-linecap="square" stroke-miterlimit="10"/><line x1="153.8531" y1="5.6574" x2="219.6785" y2="5.6574" fill="none" stroke="#121212" stroke-linecap="square" stroke-miterlimit="10"/><line x1="153.8531" y1="53.6574" x2="219.6785" y2="53.6574" fill="none" stroke="#121212" stroke-linecap="square" stroke-miterlimit="10"/><line x1="153.8531" y1="23.6574" x2="219.6785" y2="23.6574" fill="none" stroke="#121212" stroke-linecap="square" stroke-miterlimit="10"/><line x1="153.8531" y1="17.6574" x2="219.5781" y2="17.6574" fill="none" stroke="#121212" stroke-linecap="square" stroke-miterlimit="10"/><line x1="153.8531" y1="65.6574" x2="219.5781" y2="65.6574" fill="none" stroke="#121212" stroke-linecap="square" stroke-miterlimit="10"/><line x1="153.8531" y1="36.6574" x2="219.5781" y2="36.6574" fill="none" stroke="#121212" stroke-linecap="square" stroke-miterlimit="10"/><line x1="153.8531" y1="84.6574" x2="219.5781" y2="84.6574" fill="none" stroke="#121212" stroke-linecap="square" stroke-miterlimit="10"/><line x1="152.8531" y1="42.4448" x2="197.5531" y2="42.6948" fill="none" stroke="#121212" stroke-linecap="square" stroke-miterlimit="10"/><line x1="152.8531" y1="90.4448" x2="197.5531" y2="90.6948" fill="none" stroke="#121212" stroke-linecap="square" stroke-miterlimit="10"/><line x1="104.061" y1="201.5765" x2="181.4989" y2="201.5765" fill="none" stroke="#121212" stroke-linecap="square" stroke-miterlimit="10"/><line x1="104.061" y1="208.8019" x2="181.4989" y2="208.8019" fill="none" stroke="#121212" stroke-linecap="square" stroke-miterlimit="10"/><line x1="104.061" y1="216.0273" x2="181.4989" y2="216.0273" fill="none" stroke="#121212" stroke-linecap="square" stroke-miterlimit="10"/><line x1="97.7579" y1="199.7701" x2="97.7579" y2="217.8337" fill="none" stroke="#121212" stroke-linecap="square" stroke-miterlimit="10" stroke-width="3.4485"/><path d="M88.8672,200.9248a2.6435,2.6435,0,0,1,.522-1.73,2.5157,2.5157,0,0,1,1.521-.831v.7587a1.511,1.511,0,0,0-1,.8028,1.2992,1.2992,0,0,0-.1093.62h1.1455v1.9189h-2.08Zm3.4585,0a2.3516,2.3516,0,0,1,2.0434-2.5605v.7587a1.4746,1.4746,0,0,0-.9926.8165,1.1544,1.1544,0,0,0-.1167.6064h1.1455v1.9189h-2.08Z" fill="#121212"/><line x1="92.8531" y1="177.6574" x2="182.615" y2="177.6574" fill="none" stroke="#121212" stroke-linecap="square" stroke-miterlimit="10"/><line x1="92.8531" y1="183.4074" x2="182.4781" y2="183.4074" fill="none" stroke="#121212" stroke-linecap="square" stroke-miterlimit="10"/><line x1="92.8531" y1="188.4448" x2="154.4397" y2="188.6948" fill="none" stroke="#121212" stroke-linecap="square" stroke-miterlimit="10"/></g></svg>