<svg xmlns="http://www.w3.org/2000/svg" xmlns:xlink="http://www.w3.org/1999/xlink" width="279" height="227" viewBox="0 0 279 227"><defs><clipPath id="a"><rect x="-7.9397" y="-7.3311" width="294.8794" height="241.6622" fill="none"/></clipPath></defs><g clip-path="url(#a)"><rect x="-13.2243" y="-31.8167" width="305.4486" height="290.6333" fill="#dfdfdf"/></g><rect x="14.8291" y="102.292" width="14.774" height="15.3772" rx="3.2115" fill="none" stroke="#231f20" stroke-linecap="round" stroke-miterlimit="10" stroke-width="0.25"/><path d="M24.9737,115.656a1.1046,1.1046,0,0,1-.5556.1483h-4.311a1.1133,1.1133,0,0,1-1.1134-1.1133v-9.5554a1.1134,1.1134,0,0,1,1.1134-1.1113H24.42a1.1133,1.1133,0,0,1,1.1134,1.1113v7.6036" fill="none" stroke="#000" stroke-miterlimit="10" stroke-width="0.25"/><circle cx="21.2857" cy="104.93" r="0.2155" fill="none" stroke="#000" stroke-miterlimit="10" stroke-width="0.25"/><line x1="21.8868" y1="104.93" x2="23.5361" y2="104.93" fill="none" stroke="#000" stroke-linecap="round" stroke-miterlimit="10" stroke-width="0.25"/><polyline points="23.684 112.878 19.498 112.878 19.498 105.761 25.025 105.761 25.025 112.079" fill="none" stroke="#000" stroke-miterlimit="10" stroke-width="0.25"/><circle cx="22.2626" cy="114.3074" r="0.7515" fill="none" stroke="#000" stroke-miterlimit="10" stroke-width="0.25"/><path d="M26.9908,109.9054l-1.4554-2.5708v5.4975l-1.5109-2.0882a.791.791,0,0,0-1.1865,1.0144l1.675,2.27c-.0613.3105-.2769,1.79,1.226,1.79h1.45V110.6A1.4083,1.4083,0,0,0,26.9908,109.9054Z" fill="none" stroke="#000" stroke-miterlimit="10" stroke-width="0.25"/><path d="M23.0872,112.0807H21.0879a.631.631,0,0,1-.6229-.6387v-1.3092a.6309.6309,0,0,1,.6229-.6229h2.3434a.6308.6308,0,0,1,.6308.6308v.74" fill="none" stroke="#000" stroke-miterlimit="10" stroke-width="0.25"/><line x1="21.0365" y1="111.3154" x2="22.6937" y2="111.3154" fill="none" stroke="#000" stroke-miterlimit="10" stroke-width="0.25"/><line x1="21.08" y1="110.2594" x2="23.3996" y2="110.2594" fill="none" stroke="#000" stroke-miterlimit="10" stroke-width="0.25"/><line x1="21.8097" y1="107.9042" x2="23.6132" y2="107.9042" fill="none" stroke="#000" stroke-miterlimit="10" stroke-width="0.25"/><line x1="21.8414" y1="107.2437" x2="23.6132" y2="107.2437" fill="none" stroke="#000" stroke-miterlimit="10" stroke-width="0.25"/><path d="M23.6172,106.601h-1.73a.447.447,0,0,0-.4469.4429l-.0118.884-.3955,1.0145.961-.4707,1.6354-.0138a.445.445,0,0,0,.445-.445v-.963a.4489.4489,0,0,0-.4488-.449Z" fill="none" stroke="#000" stroke-linecap="round" stroke-miterlimit="10" stroke-width="0.25"/><path d="M10.6081,121.6989H12.704v.5168H11.2183v.6758h1.3022v.5105H11.2183v1.2325h-.61Z" fill="#5c5c5c"/><path d="M14.4124,122.5046a.8886.8886,0,0,1,.3756.3218,1.0631,1.0631,0,0,1,.173.4493,2.7634,2.7634,0,0,1,.0189.4317H13.3967a.5206.5206,0,0,0,.2273.4582.5733.5733,0,0,0,.3133.082.4816.4816,0,0,0,.3156-.1.4748.4748,0,0,0,.117-.15h.58a.7089.7089,0,0,1-.2107.3931,1.0565,1.0565,0,0,1-.8179.3168,1.1853,1.1853,0,0,1-.7656-.2672,1.0537,1.0537,0,0,1-.3317-.87,1.1761,1.1761,0,0,1,.2994-.8659,1.0474,1.0474,0,0,1,.7773-.3018A1.2406,1.2406,0,0,1,14.4124,122.5046Zm-.85.491a.5917.5917,0,0,0-.1514.3368H14.39a.4753.4753,0,0,0-.1513-.3438.4989.4989,0,0,0-.3373-.117A.4507.4507,0,0,0,13.562,122.9956Z" fill="#5c5c5c"/><path d="M16.0667,123.3121a.8824.8824,0,0,0,.2272-.05.1707.1707,0,0,0,.1225-.1613.1914.1914,0,0,0-.094-.1848.5967.5967,0,0,0-.276-.0509.362.362,0,0,0-.289.1.4091.4091,0,0,0-.0809.1994h-.5484a.8322.8322,0,0,1,.16-.4688.934.934,0,0,1,.7771-.2872,1.3864,1.3864,0,0,1,.6371.1418.5434.5434,0,0,1,.2783.5345v.9971c0,.0691.0013.1529.004.2508a.3113.3113,0,0,0,.0339.1516.2008.2008,0,0,0,.0837.066v.0838h-.6182a.6357.6357,0,0,1-.0359-.1237q-.01-.0577-.016-.1316a1.1622,1.1622,0,0,1-.2727.2172.8254.8254,0,0,1-.4173.1059.7206.7206,0,0,1-.49-.1684.6.6,0,0,1-.1937-.4778.6185.6185,0,0,1,.3113-.58,1.4014,1.4014,0,0,1,.5024-.14Zm.3477.2654a.6463.6463,0,0,1-.11.055.9233.9233,0,0,1-.1527.0385l-.1294.024a.8616.8616,0,0,0-.2612.078.26.26,0,0,0-.1343.241.251.251,0,0,0,.082.2105.31.31,0,0,0,.1994.0652.5947.5947,0,0,0,.3432-.1081.4558.4558,0,0,0,.1631-.3927Z" fill="#5c5c5c"/><path d="M17.1928,122.8857v-.405h.3031v-.6063h.5624v.6063h.353v.405h-.353v1.1487a.2571.2571,0,0,0,.0339.1662.37.37,0,0,0,.2074.0332c.0173,0,.0355,0,.055-.0013s.0381-.0013.0567-.0031v.425l-.2692.01a.7222.7222,0,0,1-.55-.14.4144.4144,0,0,1-.0958-.3009v-1.338Z" fill="#5c5c5c"/><path d="M19.2812,122.4607v1.31a.6921.6921,0,0,0,.0437.2792.3019.3019,0,0,0,.3036.1653.3965.3965,0,0,0,.3968-.2353.8568.8568,0,0,0,.0556-.3368v-1.1829h.5764v2.1738h-.5524v-.3071c-.0054.0066-.0187.0265-.04.06a.4035.4035,0,0,1-.0756.0877.79.79,0,0,1-.2577.1636.8761.8761,0,0,1-.2913.0438.6489.6489,0,0,1-.6482-.347,1.3266,1.3266,0,0,1-.0935-.5641v-1.31Z" fill="#5c5c5c"/><path d="M22.3559,122.41c.0073.0009.0237.0018.049.0031v.5823c-.0359-.004-.0678-.0066-.0957-.008s-.0506-.0022-.0678-.0022a.4721.4721,0,0,0-.4607.2234.8718.8718,0,0,0-.0658.3873v1.0388h-.5724v-2.1738h.5425v.3789a1.2,1.2,0,0,1,.2293-.2969.6248.6248,0,0,1,.4148-.1338Z" fill="#5c5c5c"/><path d="M24.0931,122.5046a.8886.8886,0,0,1,.3756.3218,1.0645,1.0645,0,0,1,.1731.4493,2.7659,2.7659,0,0,1,.0188.4317H23.0774a.5209.5209,0,0,0,.2273.4582.5736.5736,0,0,0,.3134.082.4814.4814,0,0,0,.3155-.1.4748.4748,0,0,0,.117-.15h.58a.7089.7089,0,0,1-.2107.3931,1.0563,1.0563,0,0,1-.8179.3168,1.1851,1.1851,0,0,1-.7655-.2672,1.0534,1.0534,0,0,1-.3318-.87,1.1765,1.1765,0,0,1,.2994-.8659,1.0474,1.0474,0,0,1,.7773-.3018A1.2406,1.2406,0,0,1,24.0931,122.5046Zm-.85.491a.5924.5924,0,0,0-.1514.3368h.9792a.4753.4753,0,0,0-.1513-.3438.4987.4987,0,0,0-.3373-.117A.4507.4507,0,0,0,23.2427,122.9956Z" fill="#5c5c5c"/><path d="M28.1419,121.695v.5207h-.88v2.4188h-.6182v-2.4188h-.8834v-.5207Z" fill="#5c5c5c"/><path d="M28.9781,122.2015h-.5763v-.5247h.5763Zm-.5763.2592h.5763v2.1738h-.5763Z" fill="#5c5c5c"/><path d="M29.2438,122.8857v-.405h.3031v-.6063h.5624v.6063h.353v.405h-.353v1.1487a.2571.2571,0,0,0,.0339.1662.37.37,0,0,0,.2074.0332c.0173,0,.0355,0,.055-.0013s.0381-.0013.0567-.0031v.425l-.2692.01a.7221.7221,0,0,1-.55-.14.414.414,0,0,1-.0958-.3009v-1.338Z" fill="#5c5c5c"/><path d="M31.3464,124.6345h-.5683v-2.94h.5683Z" fill="#5c5c5c"/><path d="M33.256,122.5046a.8886.8886,0,0,1,.3756.3218,1.0631,1.0631,0,0,1,.173.4493,2.7634,2.7634,0,0,1,.0189.4317H32.24a.5206.5206,0,0,0,.2273.4582.5733.5733,0,0,0,.3133.082.4816.4816,0,0,0,.3156-.1.4748.4748,0,0,0,.117-.15h.58a.7089.7089,0,0,1-.2107.3931,1.0565,1.0565,0,0,1-.8179.3168A1.1853,1.1853,0,0,1,32,124.4408a1.0537,1.0537,0,0,1-.3317-.87,1.1761,1.1761,0,0,1,.2994-.8659,1.0474,1.0474,0,0,1,.7773-.3018A1.2406,1.2406,0,0,1,33.256,122.5046Zm-.85.491a.5917.5917,0,0,0-.1514.3368h.9792a.4753.4753,0,0,0-.1513-.3438.4989.4989,0,0,0-.3373-.117A.4507.4507,0,0,0,32.4056,122.9956Z" fill="#5c5c5c"/><path d="M57.1216,121.8778h2.096v.5167H57.7318v.6758h1.3023v.51H57.7318v1.2325h-.61Z" fill="#5c5c5c"/><path d="M60.926,122.6834a.889.889,0,0,1,.3755.3218,1.0645,1.0645,0,0,1,.1731.4493,2.7659,2.7659,0,0,1,.0188.4317H59.91a.5209.5209,0,0,0,.2274.4582.573.573,0,0,0,.3133.082.4808.4808,0,0,0,.3155-.1.4748.4748,0,0,0,.117-.15h.58a.7083.7083,0,0,1-.2107.3931,1.0562,1.0562,0,0,1-.8178.3168,1.1851,1.1851,0,0,1-.7656-.2672,1.0534,1.0534,0,0,1-.3317-.87,1.1764,1.1764,0,0,1,.2993-.8659,1.0475,1.0475,0,0,1,.7773-.3018A1.2407,1.2407,0,0,1,60.926,122.6834Zm-.8505.4911a.591.591,0,0,0-.1513.3368h.9792a.4758.4758,0,0,0-.1514-.3439.4987.4987,0,0,0-.3372-.117A.4508.4508,0,0,0,60.0755,123.1745Z" fill="#5c5c5c"/><path d="M62.58,123.4909a.8814.8814,0,0,0,.2271-.05.1706.1706,0,0,0,.1226-.1613.1918.1918,0,0,0-.094-.1848.5972.5972,0,0,0-.2761-.0509.3619.3619,0,0,0-.2889.1.4082.4082,0,0,0-.0809.1994h-.5484a.8307.8307,0,0,1,.16-.4688.934.934,0,0,1,.7771-.2872,1.386,1.386,0,0,1,.637.1418.5432.5432,0,0,1,.2783.5345v.9971c0,.0691.0014.1529.004.2508a.3137.3137,0,0,0,.0339.1516.2005.2005,0,0,0,.0838.066v.0838h-.6182a.6288.6288,0,0,1-.0359-.1237q-.01-.0577-.016-.1316a1.1628,1.1628,0,0,1-.2728.2172.8247.8247,0,0,1-.4172.1059.7209.7209,0,0,1-.49-.1684.6.6,0,0,1-.1936-.4778.6185.6185,0,0,1,.3113-.58,1.4014,1.4014,0,0,1,.5023-.14Zm.3477.2654a.6508.6508,0,0,1-.11.055.9191.9191,0,0,1-.1526.0385l-.1294.024a.8633.8633,0,0,0-.2613.078.26.26,0,0,0-.1343.241.2516.2516,0,0,0,.082.2106.3111.3111,0,0,0,.1994.0651.5941.5941,0,0,0,.3433-.1081.4558.4558,0,0,0,.1631-.3927Z" fill="#5c5c5c"/><path d="M63.7064,123.0645v-.405H64.01v-.6063h.5624v.6063h.353v.405h-.353v1.1487a.2571.2571,0,0,0,.0339.1662.3694.3694,0,0,0,.2074.0333c.0173,0,.0354-.0005.0549-.0014s.0382-.0013.0568-.0031v.425l-.2693.01a.7223.7223,0,0,1-.55-.14.4144.4144,0,0,1-.0957-.3009v-1.338Z" fill="#5c5c5c"/><path d="M65.7948,122.64v1.31a.6924.6924,0,0,0,.0436.2792.302.302,0,0,0,.3036.1653.3967.3967,0,0,0,.3969-.2353.8568.8568,0,0,0,.0556-.3368V122.64h.5763v2.1737h-.5524v-.3071c-.0053.0066-.0186.0266-.04.06a.4063.4063,0,0,1-.0756.0877.79.79,0,0,1-.2577.1636.8768.8768,0,0,1-.2914.0438.6487.6487,0,0,1-.6481-.347,1.3266,1.3266,0,0,1-.0935-.5641v-1.31Z" fill="#5c5c5c"/><path d="M68.87,122.5886c.0073.0009.0237.0018.0489.0031v.5823c-.0359-.004-.0678-.0066-.0957-.008s-.05-.0022-.0678-.0022a.4722.4722,0,0,0-.4607.2234.8732.8732,0,0,0-.0658.3873v1.0388h-.5723V122.64h.5424v.3789a1.1989,1.1989,0,0,1,.2294-.297.6247.6247,0,0,1,.4148-.1338Z" fill="#5c5c5c"/><path d="M70.6067,122.6834a.89.89,0,0,1,.3756.3218,1.0644,1.0644,0,0,1,.173.4493,2.7759,2.7759,0,0,1,.0189.4317H69.5909a.5209.5209,0,0,0,.2274.4582.5733.5733,0,0,0,.3133.082.4806.4806,0,0,0,.3155-.1.472.472,0,0,0,.117-.15h.58a.7092.7092,0,0,1-.2108.3931,1.0561,1.0561,0,0,1-.8178.3168,1.1853,1.1853,0,0,1-.7656-.2672,1.0537,1.0537,0,0,1-.3317-.87,1.1761,1.1761,0,0,1,.2994-.8659,1.0474,1.0474,0,0,1,.7773-.3018A1.2406,1.2406,0,0,1,70.6067,122.6834Zm-.85.4911a.59.59,0,0,0-.1514.3368h.9792a.475.475,0,0,0-.1514-.3439.4985.4985,0,0,0-.3372-.117A.45.45,0,0,0,69.7563,123.1745Z" fill="#5c5c5c"/><path d="M74.6554,121.8738v.5207H73.776v2.4188h-.6182v-2.4188h-.8835v-.5207Z" fill="#5c5c5c"/><path d="M75.4917,122.38h-.5763v-.5247h.5763Zm-.5763.2593h.5763v2.1737h-.5763Z" fill="#5c5c5c"/><path d="M75.7574,123.0645v-.405h.3031v-.6063h.5624v.6063h.353v.405h-.353v1.1487a.2571.2571,0,0,0,.0339.1662.3694.3694,0,0,0,.2074.0333c.0173,0,.0354-.0005.0549-.0014s.0381-.0013.0568-.0031v.425l-.2693.01a.7223.7223,0,0,1-.55-.14.4144.4144,0,0,1-.0957-.3009v-1.338Z" fill="#5c5c5c"/><path d="M77.86,124.8133h-.5684v-2.9395H77.86Z" fill="#5c5c5c"/><path d="M79.77,122.6834a.89.89,0,0,1,.3756.3218,1.0657,1.0657,0,0,1,.173.4493,2.7659,2.7659,0,0,1,.0188.4317H78.7538a.5209.5209,0,0,0,.2274.4582.573.573,0,0,0,.3133.082.4806.4806,0,0,0,.3155-.1.4748.4748,0,0,0,.117-.15h.58a.7083.7083,0,0,1-.2107.3931,1.0561,1.0561,0,0,1-.8178.3168,1.1851,1.1851,0,0,1-.7656-.2672,1.0537,1.0537,0,0,1-.3317-.87,1.1764,1.1764,0,0,1,.2993-.8659,1.0476,1.0476,0,0,1,.7774-.3018A1.2406,1.2406,0,0,1,79.77,122.6834Zm-.85.4911a.591.591,0,0,0-.1513.3368h.9792a.475.475,0,0,0-.1514-.3439.4985.4985,0,0,0-.3372-.117A.4508.4508,0,0,0,78.9191,123.1745Z" fill="#5c5c5c"/><path d="M73.4947,118.1245H63.08a2.7907,2.7907,0,0,1-2.7928-2.7885v-10.43a2.7906,2.7906,0,0,1,2.7884-2.7928H73.4947a2.7928,2.7928,0,0,1,2.7928,2.7928v10.4278a2.7907,2.7907,0,0,1-2.7907,2.7907Z" fill="none" stroke="#231f20" stroke-miterlimit="10" stroke-width="0.25"/><path d="M66.3851,113.3193a1.8989,1.8989,0,0,1-1.3932-1.8313v-3.0937a1.7442,1.7442,0,0,1,1.7442-1.7442h3.1024a1.899,1.899,0,0,1,1.8946,1.8946v2.9433a1.9013,1.9013,0,0,1-1.2755,1.7943c-.3531.1221-.218,1.1053-2.0166,1.077A2.4246,2.4246,0,0,1,66.3851,113.3193Z" fill="none" stroke="#000" stroke-miterlimit="10" stroke-width="0.25"/><path d="M69.0885,112.4691a2.9662,2.9662,0,0,1-.7609.109,1.343,1.343,0,0,1-1.5261-1.2057,3.9862,3.9862,0,0,1,.7391-.2114,1.62,1.62,0,0,1,.8.2049,2.4166,2.4166,0,0,1,.7979-.1919,3.2073,3.2073,0,0,1,.7827.1919,1.2318,1.2318,0,0,1-.4164.8851" fill="none" stroke="#000" stroke-miterlimit="10" stroke-width="0.25"/><line x1="69.0122" y1="108.5796" x2="70.5449" y2="109.0091" fill="none" stroke="#000" stroke-miterlimit="10" stroke-width="0.25"/><path d="M68.8748,109.8528a.6933.6933,0,1,1-1.3866.0109l-.0131-1.186-1.4389.48" fill="none" stroke="#000" stroke-miterlimit="10" stroke-width="0.25"/><circle cx="69.7447" cy="109.1072" r="0.2725"/><circle cx="66.7099" cy="109.1072" r="0.2725"/><path d="M63.8844,111.416a1.7964,1.7964,0,0,0,.436.2835,13.93,13.93,0,0,0-.593,1.9774,2.814,2.814,0,0,1-.157.4687.218.218,0,0,1-.218.1483H63.335a.3053.3053,0,0,1-.2181-.218.5173.5173,0,0,1,0-.1832,24.48,24.48,0,0,1,.7631-2.4745m0-.218h-.0371a.2179.2179,0,0,0-.1613.1243c-.1155.255-.5494,1.6177-.7761,2.5094a.7205.7205,0,0,0-.0131.2725.5143.5143,0,0,0,.436.4011h.0327a.4359.4359,0,0,0,.4186-.2943c.0153-.037.0284-.0763.0436-.1155a2.0954,2.0954,0,0,0,.1243-.39,13.9,13.9,0,0,1,.5908-1.93.218.218,0,0,0-.1112-.2747,1.6235,1.6235,0,0,1-.3706-.2376.2176.2176,0,0,0-.157-.0676Z"/><path d="M65.1031,107.7882l-.0262.0785Z" fill="none"/><path d="M65.4105,112.5977c-.05-.1395-.0959-.2791-.1373-.4208C65.3233,112.3186,65.3691,112.4691,65.4105,112.5977Z" fill="none"/><path d="M71.6851,107.3979a.0462.0462,0,0,0,.0174.0436h0C71.696,107.4285,71.6916,107.4132,71.6851,107.3979Z" fill="none"/><path d="M65.6045,113.0643c-.061-.14-.1177-.2813-.17-.423C65.4868,112.783,65.5435,112.9247,65.6045,113.0643Z" fill="none"/><path d="M71.7025,107.4415a1.2191,1.2191,0,0,1,.0524.1374A1.2191,1.2191,0,0,0,71.7025,107.4415Z"/><path d="M71.4257,107.9125v.0414h0A.0549.0549,0,0,0,71.4257,107.9125Z" fill="none"/><path d="M65.1925,107.5375a2.053,2.053,0,0,0-.0938.2507A2.46,2.46,0,0,1,65.1925,107.5375Z" fill="none"/><path d="M65.4345,112.6413c0-.0153-.0109-.0283-.0153-.0436A.2724.2724,0,0,1,65.4345,112.6413Z" fill="none"/><path d="M71.8115,107.7533h0c-.0174-.0589-.0348-.1177-.0566-.1744C71.7745,107.6356,71.7941,107.6944,71.8115,107.7533Z"/><path d="M64.691,107.7206l.0327-.109Z"/><path d="M64.1547,107.7926h0v0Z" fill="none"/><path d="M73.4772,108.8347l.0785.0654A.1871.1871,0,0,0,73.4772,108.8347Z"/><path d="M65.8465,105.5034c1.2013-.0851,1.705.2376,1.9491,1.2274" fill="none" stroke="#000" stroke-miterlimit="10" stroke-width="0.25"/><path d="M67.5449,104.5114c.2813.1766.53.51.569,1.3081l.07.7914" fill="none" stroke="#000" stroke-miterlimit="10" stroke-width="0.25"/><path d="M68.7309,106.7308c.2442-.99.7478-1.3081,1.9491-1.2274l.218.0414" fill="none" stroke="#000" stroke-miterlimit="10" stroke-width="0.25"/><path d="M68.9947,104.5288c-.2877.17-.5494.4666-.5908,1.2841l-.07.7915" fill="none" stroke="#000" stroke-miterlimit="10" stroke-width="0.25"/><path d="M66.4156,106.7046a1.221,1.221,0,0,0-1.1948-.3532" fill="none" stroke="#000" stroke-miterlimit="10" stroke-width="0.25"/><path d="M70.46,106.7134a1.5829,1.5829,0,0,1,1.0378-.2529" fill="none" stroke="#000" stroke-miterlimit="10" stroke-width="0.25"/><path d="M64,112.34a.3429.3429,0,0,1-.0152.0676,11.0908,11.0908,0,0,0-.2181,1.4651c0,.1352-.0436.7783-.037.8721a.6766.6766,0,0,0,.0458.1962.2354.2354,0,0,0,.2311.1461.266.266,0,0,0,.2354-.1962.4073.4073,0,0,0,.0175-.1352,10.177,10.177,0,0,1,.0719-1.5022c.0327-.2529.0763-.5058.1221-.7587a1.0029,1.0029,0,0,1-.3663-.1068A.6794.6794,0,0,1,64,112.34Z" fill="none"/><path d="M72.6466,113.1885c-.0436-.2594-.096-.5167-.1483-.7739a1.09,1.09,0,0,1-.4578.0828c.0392.2333.0872.4666.109.702.0392.4535.0567.9092.0828,1.3648a2.6908,2.6908,0,0,0,.0131.3031.2594.2594,0,0,0,.2573.218.2725.2725,0,0,0,.2463-.218,2.9234,2.9234,0,0,0,0-.34,1.1773,1.1773,0,0,1,0-.1526A11.0823,11.0823,0,0,0,72.6466,113.1885Z" fill="none"/><path d="M72.6466,113.1885c-.0436-.2594-.096-.5167-.1483-.7739a1.09,1.09,0,0,1-.4578.0828c.0392.2333.0872.4666.109.702.0392.4535.0567.9092.0828,1.3648a2.6908,2.6908,0,0,0,.0131.3031.2594.2594,0,0,0,.2573.218.2725.2725,0,0,0,.2463-.218,2.9234,2.9234,0,0,0,0-.34,1.1773,1.1773,0,0,1,0-.1526A11.0823,11.0823,0,0,0,72.6466,113.1885Z" fill="none"/><path d="M65.8705,113.2452c.0262.02.0524.0393.0807.0567.1177.07.2071.1264.3357.1984-.0675.2485-.0981.5123-.1526.7631a10.3765,10.3765,0,0,0-.1918,1.4912.4845.4845,0,0,1-.0284.133.2724.2724,0,0,1-.24.1766h0a.2333.2333,0,0,1-.218-.1657.5569.5569,0,0,1-.0284-.1984c0-.0959.0982-.7347.1047-.8721a12.9006,12.9006,0,0,1,.327-1.5261.2579.2579,0,0,1,.0218-.0654m-.1155-.3554-.0916.29v.024l-.0131.0436a12.5227,12.5227,0,0,0-.3335,1.5479v.024c0,.0567-.0284.2442-.05.412a3.3732,3.3732,0,0,0-.085.4753.7677.7677,0,0,0,.0414.2747.4534.4534,0,0,0,.4142.31h.02a.4861.4861,0,0,0,.436-.3205.6711.6711,0,0,0,.0414-.194,10.0694,10.0694,0,0,1,.1875-1.4607c.0218-.0981.0393-.1984.0567-.3009.0284-.157.0545-.3052.0916-.4491l.0436-.1635-.1461-.0829c-.085-.0479-.15-.0872-.218-.1308l-.0959-.0567-.0524-.0349h-.013l-.2442-.1787Z"/><path d="M72.361,108.4684a2.0557,2.0557,0,0,1-.0153.3118C72.3544,108.6755,72.3588,108.5731,72.361,108.4684Zm-.2333.7914h0Z" fill="none"/><path d="M70.1437,112.94a.2049.2049,0,1,1-.3336-.218c.0742-.1069.2377-.1832.3314-.12S70.2178,112.8332,70.1437,112.94Z"/><path d="M68.332,111.97l1.55,1.0094c.0567.0349.02-.0545.061-.1068l.1134-.1461c.0327-.0414.1025-.0458.0567-.0763l-1.2733-.8612" fill="none" stroke="#000" stroke-miterlimit="10" stroke-width="0.25"/><path d="M62.6983,105.4925c-.0109-.0611-.02-.1221-.0305-.181-.0567-.3183-.1112-.6388-.1678-.9571l-.1418-.8241v-.0218c0-.0066,0-.0589.048-.0654l.3881-.0785.7173-.1265.0828-.013a.7017.7017,0,0,1-.1461.5908.75.75,0,0,1-.545.2747.8765.8765,0,0,0,.0261.157c.0371.218.072.4164.1091.6235s.0763.436.1133.6541.0829.436.1112.6649a.7111.7111,0,0,1-.0806.4361.8109.8109,0,0,1-1.2013.2965.7742.7742,0,0,1-.3227-.5146.7912.7912,0,0,1,.2006-.6976.78.78,0,0,1,.5232-.26.755.755,0,0,1,.2791.0218H62.69Z" fill="none" stroke="#000" stroke-miterlimit="10" stroke-width="0.25"/><path d="M68.2273,113.6158s-.1308.8242.4775.7369" fill="none" stroke="#000" stroke-miterlimit="10" stroke-width="0.25"/><path d="M66.8821,111.4248a11.9848,11.9848,0,0,0,1.2144.4534,1.0734,1.0734,0,0,0,.5625,0,7.13,7.13,0,0,0,1.1686-.4164" fill="none" stroke="#000" stroke-miterlimit="10" stroke-width="0.25"/><path d="M71.82,111.658a1.5268,1.5268,0,0,0,.63-.17,1.0028,1.0028,0,0,0,.5538-.8721v-.7282h0v-.061h0v-.7282a1.0028,1.0028,0,0,0-.5538-.883,1.5253,1.5253,0,0,0-.63-.17,5.4347,5.4347,0,0,0-.375-1.718,1.84,1.84,0,0,0-.2507-.399,3.3838,3.3838,0,0,0-2.8343-1.4847h-.05a3.3859,3.3859,0,0,0-2.8343,1.4847,1.7415,1.7415,0,0,0-.2485.399,3.9044,3.9044,0,0,0-.266,1.6918,2.1344,2.1344,0,0,0-.7413.1962,1.0029,1.0029,0,0,0-.5537.8721v.7282h0v.061h0v.7282a1.0029,1.0029,0,0,0,.5537.8721,2.2743,2.2743,0,0,0,.8481.17" fill="none" stroke="#000" stroke-miterlimit="10" stroke-width="0.25"/><path d="M65.3778,112.6391a23.8072,23.8072,0,0,0-.53,2.4244.7936.7936,0,0,1-.0458.1788.3291.3291,0,0,1-.3074.218.3859.3859,0,0,1-.2943-.2725.9625.9625,0,0,1-.0131-.2747,5.9687,5.9687,0,0,1,.1679-1.1577,20.9334,20.9334,0,0,1,.5145-2.0843" fill="none" stroke="#000" stroke-miterlimit="10" stroke-width="0.25"/><path d="M72.7032,111.416c.1.2181.532,1.5589.7631,2.4745a.4352.4352,0,0,1,0,.1832.3009.3009,0,0,1-.2289.218H73.22a.2181.2181,0,0,1-.2181-.1482,2.8239,2.8239,0,0,1-.1569-.4688,13.734,13.734,0,0,0-.5909-1.9774,1.8015,1.8015,0,0,0,.4361-.2834m0-.2181a.2184.2184,0,0,0-.157.0676,1.6206,1.6206,0,0,1-.3641.24.2181.2181,0,0,0-.1112.2747,13.7685,13.7685,0,0,1,.5821,1.9361,1.9457,1.9457,0,0,0,.1221.39c.0153.0393.03.0785.0436.1156a.436.436,0,0,0,.4164.2921h.0371a.5144.5144,0,0,0,.436-.4012.7227.7227,0,0,0-.013-.2725,23.0876,23.0876,0,0,0-.7762-2.5094.2179.2179,0,0,0-.1613-.1242h-.0371Z"/><path d="M70.7934,113.2823l.0218.0654a12.0053,12.0053,0,0,1,.327,1.5261c0,.1352.1069.7718.1069.8721a.5678.5678,0,0,1-.0306.2006.231.231,0,0,1-.218.1635h0a.2748.2748,0,0,1-.242-.1788.53.53,0,0,1-.0283-.133,10.1136,10.1136,0,0,0-.1919-1.4912c-.0523-.2508-.07-.4361-.1352-.6759a.8968.8968,0,0,1,.31-.29l.0807-.0545m.1155-.3553-.2441.1787-.0218.0131-.05.0371a1.09,1.09,0,0,0-.3859.3423l-.0545.0806.024.096a3.7819,3.7819,0,0,1,.0807.39c.0152.0851.0305.1744.0523.2747a9.9881,9.9881,0,0,1,.19,1.4586.6814.6814,0,0,0,.0392.1962.4907.4907,0,0,0,.447.32h.02a.4491.4491,0,0,0,.412-.3074.7737.7737,0,0,0,.0436-.2747c0-.0589-.0174-.1875-.0545-.4688-.024-.1657-.0479-.3553-.0523-.412v-.0218a12.86,12.86,0,0,0-.3336-1.548l-.0152-.0457v-.024l-.0916-.2878Z"/><path d="M71.7331,111.68a20.9714,20.9714,0,0,1,.5167,2.0843,5.8453,5.8453,0,0,1,.1657,1.1577.89.89,0,0,1-.0284.2747.3816.3816,0,0,1-.2943.2725.3337.3337,0,0,1-.3074-.218.7936.7936,0,0,1-.0458-.1788,21.0869,21.0869,0,0,0-.5014-2.2521" fill="none" stroke="#000" stroke-miterlimit="10" stroke-width="0.25"/><path d="M64.39,108.0825c-.024-2.7078,1.6853-4.3342,3.9679-4.3342s3.9244,1.888,3.9244,4.4214" fill="none" stroke="#000" stroke-linejoin="round" stroke-width="0.25"/><path d="M60.3961,115.9857a3.7192,3.7192,0,0,1,2.699-3.0675l.1745-.0327" fill="none" stroke="#000" stroke-linecap="round" stroke-linejoin="round" stroke-width="0.25"/><path d="M76.2286,115.8658a3.59,3.59,0,0,0-2.7209-2.9476l-.1744-.0327" fill="none" stroke="#000" stroke-linecap="round" stroke-linejoin="round" stroke-width="0.25"/><path d="M66.2564,114.39a6.1547,6.1547,0,0,0,2.1039,1.16,6.744,6.744,0,0,0,2.1017-.8721" fill="none" stroke="#000" stroke-linejoin="round" stroke-width="0.25"/><line x1="65.5806" y1="113.9429" x2="65.0966" y2="113.5439" fill="none" stroke="#000" stroke-linejoin="round" stroke-width="0.25"/><line x1="64.5166" y1="113.0468" x2="64.0697" y2="112.674" fill="none" stroke="#000" stroke-linejoin="round" stroke-width="0.25"/><line x1="71.1139" y1="114.3157" x2="71.478" y2="114.0628" fill="none" stroke="#000" stroke-linejoin="round" stroke-width="0.25"/><line x1="72.2389" y1="113.7641" x2="72.6727" y2="113.3913" fill="none" stroke="#000" stroke-linejoin="round" stroke-width="0.25"/><path d="M196.6623,121.45h2.0959v.5168h-1.4857v.6758h1.3023v.5105h-1.3023v1.2325h-.61Z" fill="#5c5c5c"/><path d="M200.4666,122.2556a.8891.8891,0,0,1,.3756.3217,1.0655,1.0655,0,0,1,.1731.4494,2.7659,2.7659,0,0,1,.0188.4317h-1.5832a.5212.5212,0,0,0,.2273.4582.5745.5745,0,0,0,.3134.082.4814.4814,0,0,0,.3155-.1.4748.4748,0,0,0,.117-.15h.58a.7089.7089,0,0,1-.2107.3931,1.0567,1.0567,0,0,1-.8179.3168,1.1856,1.1856,0,0,1-.7655-.2672,1.0535,1.0535,0,0,1-.3317-.87,1.1764,1.1764,0,0,1,.2993-.8659,1.0475,1.0475,0,0,1,.7773-.3018A1.24,1.24,0,0,1,200.4666,122.2556Zm-.85.491a.5916.5916,0,0,0-.1513.3368h.9791a.4757.4757,0,0,0-.1513-.3439.4987.4987,0,0,0-.3373-.117A.4508.4508,0,0,0,199.6162,122.7466Z" fill="#5c5c5c"/><path d="M202.121,123.0631a.8814.8814,0,0,0,.2271-.05.1705.1705,0,0,0,.1225-.1613.1916.1916,0,0,0-.0939-.1848.597.597,0,0,0-.2761-.051.3621.3621,0,0,0-.289.1.4091.4091,0,0,0-.0808.1994h-.5484a.8307.8307,0,0,1,.16-.4688.9339.9339,0,0,1,.777-.2872,1.3864,1.3864,0,0,1,.6371.1418.5431.5431,0,0,1,.2783.5345v.9971c0,.0691.0013.1529.004.2508a.3137.3137,0,0,0,.0339.1516.2005.2005,0,0,0,.0838.066v.0838h-.6183a.6428.6428,0,0,1-.0359-.1237q-.01-.0577-.0159-.1316a1.1619,1.1619,0,0,1-.2728.2171.824.824,0,0,1-.4172.106.7209.7209,0,0,1-.49-.1684.6.6,0,0,1-.1936-.4778.6185.6185,0,0,1,.3113-.58,1.3994,1.3994,0,0,1,.5023-.14Zm.3476.2654a.6463.6463,0,0,1-.11.055.9207.9207,0,0,1-.1527.0385l-.1294.0239a.8683.8683,0,0,0-.2612.078.26.26,0,0,0-.1343.2411.2514.2514,0,0,0,.082.21.31.31,0,0,0,.1994.0652.5944.5944,0,0,0,.3433-.1082.4555.4555,0,0,0,.163-.3926Z" fill="#5c5c5c"/><path d="M203.2471,122.6367v-.405h.3031v-.6063h.5624v.6063h.3529v.405h-.3529v1.1487a.2571.2571,0,0,0,.0339.1662.37.37,0,0,0,.2074.0332c.0172,0,.0354,0,.0549-.0013s.0381-.0013.0567-.0031v.425l-.2692.01a.7223.7223,0,0,1-.55-.14.4147.4147,0,0,1-.0957-.301v-1.3379Z" fill="#5c5c5c"/><path d="M205.3355,122.2117v1.3105a.6924.6924,0,0,0,.0436.2792.302.302,0,0,0,.3036.1653.3964.3964,0,0,0,.3968-.2354.8542.8542,0,0,0,.0557-.3368v-1.1828h.5763v2.1738h-.5524v-.3072c-.0053.0067-.0186.0266-.04.06a.4031.4031,0,0,1-.0755.0877.7894.7894,0,0,1-.2577.1635.8745.8745,0,0,1-.2914.0439.6487.6487,0,0,1-.6481-.347,1.3266,1.3266,0,0,1-.0935-.5641v-1.3105Z" fill="#5c5c5c"/><path d="M208.41,122.1608c.0073.0009.0237.0017.0489.0031v.5823q-.0538-.006-.0957-.008c-.0279-.0013-.05-.0022-.0678-.0022a.4722.4722,0,0,0-.4607.2234.8732.8732,0,0,0-.0658.3873v1.0388h-.5723v-2.1738h.5424v.3789a1.2,1.2,0,0,1,.2293-.2969.6245.6245,0,0,1,.4148-.1338Z" fill="#5c5c5c"/><path d="M210.1474,122.2556a.8894.8894,0,0,1,.3755.3217,1.0655,1.0655,0,0,1,.1731.4494,2.7659,2.7659,0,0,1,.0188.4317h-1.5832a.5211.5211,0,0,0,.2274.4582.5739.5739,0,0,0,.3133.082.4814.4814,0,0,0,.3155-.1.4748.4748,0,0,0,.117-.15h.58a.7083.7083,0,0,1-.2107.3931,1.0566,1.0566,0,0,1-.8178.3168,1.1857,1.1857,0,0,1-.7656-.2672,1.0535,1.0535,0,0,1-.3317-.87,1.1764,1.1764,0,0,1,.2993-.8659,1.0476,1.0476,0,0,1,.7774-.3018A1.2406,1.2406,0,0,1,210.1474,122.2556Zm-.8505.491a.5916.5916,0,0,0-.1513.3368h.9792a.4761.4761,0,0,0-.1514-.3439.4985.4985,0,0,0-.3372-.117A.4512.4512,0,0,0,209.2969,122.7466Z" fill="#5c5c5c"/><path d="M214.1961,121.4459v.5208h-.8794v2.4188h-.6183v-2.4188h-.8834v-.5208Z" fill="#5c5c5c"/><path d="M215.0324,121.9525h-.5764v-.5247h.5764Zm-.5764.2592h.5764v2.1738h-.5764Z" fill="#5c5c5c"/><path d="M215.2981,122.6367v-.405h.3031v-.6063h.5624v.6063h.3529v.405h-.3529v1.1487a.2571.2571,0,0,0,.0339.1662.37.37,0,0,0,.2074.0332c.0172,0,.0354,0,.0549-.0013s.0381-.0013.0567-.0031v.425l-.2692.01a.7223.7223,0,0,1-.55-.14.4147.4147,0,0,1-.0957-.301v-1.3379Z" fill="#5c5c5c"/><path d="M217.4006,124.3855h-.5683v-2.94h.5683Z" fill="#5c5c5c"/><path d="M219.31,122.2556a.8891.8891,0,0,1,.3756.3217,1.0655,1.0655,0,0,1,.1731.4494,2.7659,2.7659,0,0,1,.0188.4317h-1.5832a.5211.5211,0,0,0,.2274.4582.5739.5739,0,0,0,.3133.082.4814.4814,0,0,0,.3155-.1.4748.4748,0,0,0,.117-.15h.58a.7089.7089,0,0,1-.2107.3931,1.0567,1.0567,0,0,1-.8179.3168,1.1856,1.1856,0,0,1-.7655-.2672,1.0535,1.0535,0,0,1-.3317-.87,1.1764,1.1764,0,0,1,.2993-.8659,1.0475,1.0475,0,0,1,.7773-.3018A1.24,1.24,0,0,1,219.31,122.2556Zm-.85.491a.5916.5916,0,0,0-.1513.3368h.9791a.4757.4757,0,0,0-.1513-.3439.4987.4987,0,0,0-.3372-.117A.451.451,0,0,0,218.46,122.7466Z" fill="#5c5c5c"/><rect x="200.2511" y="102.541" width="15.01" height="15.6228" rx="3.2628" fill="none" stroke="#231f20" stroke-linecap="round" stroke-miterlimit="10" stroke-width="0.25"/><path d="M211.1485,107.0615a4.8881,4.8881,0,1,1-8.5306,3.2547" fill="none" stroke="#231f20" stroke-linecap="round" stroke-miterlimit="10" stroke-width="0.25"/><polyline points="211.046 108.936 211.078 106.973 212.911 107.431" fill="none" stroke="#231f20" stroke-linecap="round" stroke-miterlimit="10" stroke-width="0.25"/><circle cx="207.6045" cy="110.1475" r="2.8148" fill="none" stroke="#231f20" stroke-linecap="round" stroke-miterlimit="10" stroke-width="0.25"/><polyline points="207.576 108.381 207.576 110.147 206.431 111.293" fill="none" stroke="#231f20" stroke-linecap="round" stroke-miterlimit="10" stroke-width="0.25"/><path d="M202.6018,110.3122a4.8118,4.8118,0,0,1,7.08-4.2432" fill="none" stroke="#231f20" stroke-linecap="round" stroke-miterlimit="10" stroke-width="0.25" stroke-dasharray="5 5 5 5 5 5"/><path d="M150.1487,121.5272h2.096v.5168H150.759v.6758h1.3022v.51H150.759v1.2325h-.61Z" fill="#5c5c5c"/><path d="M153.9531,122.3329a.89.89,0,0,1,.3756.3217,1.0654,1.0654,0,0,1,.173.4494,2.7759,2.7759,0,0,1,.0189.4317h-1.5833a.5211.5211,0,0,0,.2274.4582.5741.5741,0,0,0,.3133.082.4812.4812,0,0,0,.3155-.1.472.472,0,0,0,.117-.15h.58a.7092.7092,0,0,1-.2108.3931,1.0564,1.0564,0,0,1-.8178.3168,1.1857,1.1857,0,0,1-.7656-.2672,1.0538,1.0538,0,0,1-.3317-.87,1.1761,1.1761,0,0,1,.2994-.8659,1.0474,1.0474,0,0,1,.7773-.3018A1.2406,1.2406,0,0,1,153.9531,122.3329Zm-.8505.491a.5916.5916,0,0,0-.1513.3368h.9792a.4754.4754,0,0,0-.1514-.3439.4985.4985,0,0,0-.3372-.117A.4512.4512,0,0,0,153.1026,122.8239Z" fill="#5c5c5c"/><path d="M155.6074,123.14a.8814.8814,0,0,0,.2271-.05.1707.1707,0,0,0,.1226-.1613.1916.1916,0,0,0-.094-.1848.5968.5968,0,0,0-.2761-.051.3619.3619,0,0,0-.2889.1.4082.4082,0,0,0-.0809.1994h-.5484a.8322.8322,0,0,1,.16-.4688.934.934,0,0,1,.7771-.2872,1.3857,1.3857,0,0,1,.637.1418.5431.5431,0,0,1,.2783.5345v.9971c0,.0691.0014.1529.004.2508a.3137.3137,0,0,0,.0339.1516.2012.2012,0,0,0,.0838.066v.0838h-.6182a.6288.6288,0,0,1-.0359-.1237q-.01-.0577-.016-.1316a1.1613,1.1613,0,0,1-.2727.2171.8244.8244,0,0,1-.4173.106.72.72,0,0,1-.49-.1684.6.6,0,0,1-.1937-.4778.6185.6185,0,0,1,.3113-.58,1.3994,1.3994,0,0,1,.5023-.14Zm.3477.2654a.65.65,0,0,1-.11.055.9233.9233,0,0,1-.1527.0385l-.1294.0239a.8691.8691,0,0,0-.2613.078.26.26,0,0,0-.1342.2411.2514.2514,0,0,0,.0819.2105.3107.3107,0,0,0,.2.0652.5941.5941,0,0,0,.3432-.1082.4556.4556,0,0,0,.1631-.3926Z" fill="#5c5c5c"/><path d="M156.7335,122.714v-.405h.3031v-.6063h.5624v.6063h.353v.405h-.353v1.1487a.2571.2571,0,0,0,.0339.1662.37.37,0,0,0,.2074.0332c.0173,0,.0355,0,.055-.0013s.0381-.0013.0567-.0031v.425l-.2692.01a.7225.7225,0,0,1-.55-.14.4147.4147,0,0,1-.0957-.301V122.714Z" fill="#5c5c5c"/><path d="M158.8219,122.289V123.6a.69.69,0,0,0,.0437.2792.3019.3019,0,0,0,.3035.1653.3966.3966,0,0,0,.3969-.2354.8562.8562,0,0,0,.0556-.3368V122.289h.5763v2.1738h-.5524v-.3072c-.0053.0067-.0186.0266-.04.06a.4063.4063,0,0,1-.0756.0877.7873.7873,0,0,1-.2577.1635.8741.8741,0,0,1-.2914.0439.6487.6487,0,0,1-.6481-.347,1.3266,1.3266,0,0,1-.0935-.5641V122.289Z" fill="#5c5c5c"/><path d="M161.8966,122.2381c.0073.0009.0237.0017.049.0031v.5823q-.0539-.006-.0958-.008c-.0279-.0013-.05-.0022-.0678-.0022a.472.472,0,0,0-.4606.2234.8718.8718,0,0,0-.0658.3873v1.0388h-.5724V122.289h.5424v.3789a1.2,1.2,0,0,1,.2294-.2969.6241.6241,0,0,1,.4148-.1338Z" fill="#5c5c5c"/><path d="M163.6338,122.3329a.8891.8891,0,0,1,.3756.3217,1.064,1.064,0,0,1,.173.4494,2.7634,2.7634,0,0,1,.0189.4317h-1.5832a.5208.5208,0,0,0,.2273.4582.5741.5741,0,0,0,.3133.082.4816.4816,0,0,0,.3156-.1.4748.4748,0,0,0,.117-.15h.58a.7089.7089,0,0,1-.2107.3931,1.0568,1.0568,0,0,1-.8179.3168,1.1859,1.1859,0,0,1-.7656-.2672,1.0538,1.0538,0,0,1-.3317-.87,1.1761,1.1761,0,0,1,.2994-.8659,1.0474,1.0474,0,0,1,.7773-.3018A1.2406,1.2406,0,0,1,163.6338,122.3329Zm-.85.491a.5917.5917,0,0,0-.1514.3368h.9792a.4757.4757,0,0,0-.1513-.3439.4989.4989,0,0,0-.3373-.117A.4508.4508,0,0,0,162.7834,122.8239Z" fill="#5c5c5c"/><path d="M167.6826,121.5232v.5208h-.88v2.4188h-.6182V122.044h-.8835v-.5208Z" fill="#5c5c5c"/><path d="M168.5188,122.03h-.5763v-.5247h.5763Zm-.5763.2592h.5763v2.1738h-.5763Z" fill="#5c5c5c"/><path d="M168.7845,122.714v-.405h.3031v-.6063h.5624v.6063h.353v.405h-.353v1.1487a.2571.2571,0,0,0,.0339.1662.37.37,0,0,0,.2074.0332c.0173,0,.0354,0,.0549-.0013s.0382-.0013.0568-.0031v.425l-.2692.01a.7225.7225,0,0,1-.55-.14.4147.4147,0,0,1-.0957-.301V122.714Z" fill="#5c5c5c"/><path d="M170.8871,124.4628h-.5684v-2.94h.5684Z" fill="#5c5c5c"/><path d="M172.7967,122.3329a.89.89,0,0,1,.3756.3217,1.0654,1.0654,0,0,1,.173.4494,2.7759,2.7759,0,0,1,.0189.4317H171.781a.5208.5208,0,0,0,.2273.4582.5741.5741,0,0,0,.3133.082.4812.4812,0,0,0,.3155-.1.472.472,0,0,0,.117-.15h.58a.7092.7092,0,0,1-.2108.3931,1.0564,1.0564,0,0,1-.8178.3168,1.1859,1.1859,0,0,1-.7656-.2672,1.0538,1.0538,0,0,1-.3317-.87,1.1761,1.1761,0,0,1,.2994-.8659,1.0474,1.0474,0,0,1,.7773-.3018A1.2406,1.2406,0,0,1,172.7967,122.3329Zm-.85.491a.5911.5911,0,0,0-.1514.3368h.9792a.4754.4754,0,0,0-.1514-.3439.4985.4985,0,0,0-.3372-.117A.4508.4508,0,0,0,171.9463,122.8239Z" fill="#5c5c5c"/><rect x="154.536" y="102.4637" width="15.3967" height="15.932" rx="2.7317" fill="none" stroke="#231f20" stroke-miterlimit="10" stroke-width="0.25"/><path d="M161.4908,105.31a.419.419,0,0,1,.238.0948.0793.0793,0,0,0,.0925.011c.2621-.13.5265-.2578.7909-.3833a.0837.0837,0,0,0,.055-.086.5111.5111,0,0,1,1.0112-.0374.4846.4846,0,0,1-.2511.5133.4714.4714,0,0,1-.5618-.04.1123.1123,0,0,0-.141-.0132c-.2423.1234-.4868.2423-.7292.3613-.0374.0176-.04.04-.0462.0749-.0221.0969.0374.1212.1057.1542.22.11.4516.22.6763.3371a.0992.0992,0,0,0,.1234,0,.5044.5044,0,0,1,.6961.0529.5153.5153,0,0,1,0,.6895.4538.4538,0,0,1-.3987.1454.5067.5067,0,0,1-.4538-.3239.4757.4757,0,0,1-.0353-.1542.0837.0837,0,0,0-.055-.0815c-.2622-.1255-.5266-.2555-.7865-.3855a.0726.0726,0,0,0-.0925,0,.5046.5046,0,0,1-.6808-.0859.5111.5111,0,0,1,0-.6609A.5466.5466,0,0,1,161.4908,105.31Z" fill="none" stroke="#000" stroke-miterlimit="10" stroke-width="0.25"/><path d="M157.49,107.5856a1.1014,1.1014,0,0,1-.1652,1.2469c-.1851.163-.7755.7556-.7755.7556.0485-.293.0793-.4692.1388-.72-.1586.055-.3635.2753-.5353.348.0661-.207.1961-.5683.2688-.738-.1212.0727-.28.141-.4406.2314a5.7514,5.7514,0,0,0,.304-.61,3.6719,3.6719,0,0,1-.3833.1278,8.5086,8.5086,0,0,0,.8173-1.0618,8.7,8.7,0,0,0,.6476-1.3681" fill="none" stroke="#000" stroke-miterlimit="10" stroke-width="0.25"/><ellipse cx="166.2023" cy="106.8473" rx="1.8065" ry="1.2447" transform="translate(21.1914 241.0539) rotate(-75.52)" fill="none" stroke="#000" stroke-miterlimit="10" stroke-width="0.25"/><path d="M168.7453,117.31c-.3128-.8569-.6323-1.7381-.9583-2.5973a3.62,3.62,0,0,0,.3987-1.7051,15.0229,15.0229,0,0,0-.5728-3.1084,1.0418,1.0418,0,0,0-1.0376-.8944,1.1872,1.1872,0,0,0-1.0133.5485c-.3525.4979-.7094.9935-1.0663,1.4892a.1736.1736,0,0,1-.1035.0793c-.17.0287-.3437.0441-.5155.0661-.2688.0331-.5375.0639-.8041.1014a.6168.6168,0,0,0-.24,1.1411.7315.7315,0,0,0,.5044.0661c.4891-.0551.976-.119,1.4628-.1762a.7335.7335,0,0,0,.5486-.3239c.06-.0859.1211-.17.1828-.2533h.0243c.0264.4406.055.8657.0705,1.2975a.6051.6051,0,0,1-.0749.2864q-.4627.8944-.9407,1.7822a1.01,1.01,0,0,0-.1146.423c-.0286.5794-.0661,1.1566-.0969,1.7338h-.59a.3833.3833,0,0,0-.3833.3833v.2974a.3833.3833,0,0,0,.3833.3833h1.6853a.391.391,0,0,0,.152-.0308c.0661.0154.11,0,.13-.0948a.3856.3856,0,0,0,.1057-.2489v-.0441a.2686.2686,0,0,1,.011-.0859c.0529-.5177.119-1.0354.1564-1.5531a1.5424,1.5424,0,0,1,.3261-.8812c.0793-.0991.1564-.2005.2335-.3018a6.7915,6.7915,0,0,0,.3657,1.82.342.342,0,0,1,.0242.0595c.1256.304.2445.61.3745.912" fill="none" stroke="#000" stroke-miterlimit="10" stroke-width="0.25"/><path d="M167.5645,118.3428l-.1961-.4648c-.13-.3018-.2489-.608-.3745-.912a.342.342,0,0,0-.0242-.0595,6.9691,6.9691,0,0,1-.3657-1.82c-.0771.1013-.1542.2027-.2335.3018a1.5424,1.5424,0,0,0-.3261.8812c-.0374.5177-.1035,1.0354-.1564,1.5531a.1987.1987,0,0,1-.011.0859v.0441a.3862.3862,0,0,1-.1013.2622c-.02.0969-.0639.11-.13.0947a.391.391,0,0,1-.152.0308h-1.6853a.3833.3833,0,0,1-.3833-.3833V117.66a.3832.3832,0,0,1,.3811-.3855h.5926c.0308-.5772.0683-1.1544.0969-1.7338a1.01,1.01,0,0,1,.1146-.423q.4758-.8811.9407-1.7822a.6051.6051,0,0,0,.0749-.2864c-.0155-.4406-.0441-.8657-.0705-1.2975h-.0243c-.0617.0837-.1233.1674-.1828.2533a.7335.7335,0,0,1-.5486.3239c-.4868.0572-.9737.1211-1.4628.1762a.7309.7309,0,0,1-.5044-.0661.6168.6168,0,0,1,.24-1.1411c.2665-.0375.5353-.0683.8041-.1014.1718-.022.3458-.0374.5155-.0661a.1736.1736,0,0,0,.1035-.0793c.3569-.4956.7138-.9913,1.0663-1.4892a1.1872,1.1872,0,0,1,1.0133-.5485,1.0418,1.0418,0,0,1,1.0376.8944,15.0229,15.0229,0,0,1,.5728,3.1084,3.62,3.62,0,0,1-.3987,1.7051c.326.85.6455,1.7316.9583,2.5885l.1872.4649" fill="none" stroke="#000" stroke-miterlimit="10" stroke-width="0.25"/><ellipse cx="158.539" cy="106.856" rx="1.2468" ry="1.8095" transform="translate(-21.6518 42.949) rotate(-14.4524)" fill="none" stroke="#000" stroke-miterlimit="10.017" stroke-width="0.25"/><path d="M155.7476,117.8053c.32-.8658.8812-2.2272,1.2007-3.0842a3.62,3.62,0,0,1-.3988-1.7051,15.0361,15.0361,0,0,1,.5728-3.1084,1.0419,1.0419,0,0,1,1.0376-.8944,1.1874,1.1874,0,0,1,1.0134.5485c.3525.4979.7094.9936,1.0662,1.4892a.1741.1741,0,0,0,.1036.0793c.17.0287.3437.0441.5155.0661.2687.0331.5375.0639.8041.1014a.6168.6168,0,0,1,.24,1.1411.7311.7311,0,0,1-.5045.0661c-.489-.0551-.9759-.119-1.4628-.1762a.7335.7335,0,0,1-.5485-.3239c-.06-.0859-.1212-.17-.1829-.2533H159.18c-.0264.4406-.0551.8658-.0705,1.2975a.6039.6039,0,0,0,.0749.2864q.4626.8944.9407,1.7822a1.0086,1.0086,0,0,1,.1145.423c.0287.5794.0661,1.1566.0992,1.7338h.586a.3833.3833,0,0,1,.3833.3833v.2974a.3833.3833,0,0,1-.3833.3833h-1.6831a.3906.3906,0,0,1-.1542-.0308c-.0661.0154-.11,0-.13-.0948a.3856.3856,0,0,1-.1013-.2577v-.0441a.2686.2686,0,0,0-.011-.0859c-.0529-.5177-.119-1.0354-.1565-1.5531a1.5416,1.5416,0,0,0-.326-.8812c-.0793-.0991-.1564-.2005-.2335-.3018a6.7954,6.7954,0,0,1-.3657,1.82.327.327,0,0,0-.0242.0595c-.1234.304-.2424.61-.3746.912l-.2026.5552" fill="none" stroke="#000" stroke-miterlimit="10" stroke-width="0.25"/><path d="M157.8757,105.1227s.82-1.1456,1.2623-1.0068c.3305.11.0551.3745.0551.3745s.3569-.1277.4957,0-.22.3657-.22.3657.6036-.0352.6146.22c.0177.4781-.9759.3613-.98.33A1.1015,1.1015,0,0,0,157.8757,105.1227Z" fill="none" stroke="#000" stroke-miterlimit="10" stroke-width="0.25"/><path d="M166.5137,105.0346a2.0938,2.0938,0,0,0-.1829-1.2645,3.1077,3.1077,0,0,1,.5486.91,4.1941,4.1941,0,0,0,.0727-.8812s.337.7094.2643.9473a1.6937,1.6937,0,0,0,.163-.7645,2.0031,2.0031,0,0,1,.2027.8548.9913.9913,0,0,0,.304-.5838s.1476.1961.0441.7688a1.0358,1.0358,0,0,0,.3745-.5,1.846,1.846,0,0,1-.0749.6961.7423.7423,0,0,0,.456-.5067,1.81,1.81,0,0,1-.1057.8195.3219.3219,0,0,1-.0221.0287s.4208-.152.4759-.4076a1.1232,1.1232,0,0,1-.3591.9209s.4406-.1344.5243-.2688a.9255.9255,0,0,1-.6168.6962,1.2582,1.2582,0,0,0,.6036-.0177s-.0485.4208-.727.3481a.8677.8677,0,0,0,.5992.17,1.1389,1.1389,0,0,1-.8614.152,1.2942,1.2942,0,0,0,.5508.22,1.3216,1.3216,0,0,1-.8129.0375,3.5382,3.5382,0,0,0,.4406.3591s-.5794.0484-.694-.0661c0,0,.238.3657.3657.4031,0,0-.6785.0419-.934-.2026" fill="none" stroke="#000" stroke-linejoin="round" stroke-width="0.25"/><path d="M243.1758,121.29h2.096v.5167h-1.4857v.6759h1.3022v.51h-1.3022v1.2324h-.61Z" fill="#5c5c5c"/><path d="M246.98,122.0952a.8884.8884,0,0,1,.3756.3217,1.064,1.064,0,0,1,.173.4494,2.762,2.762,0,0,1,.0189.4316h-1.5832a.5208.5208,0,0,0,.2273.4583.5741.5741,0,0,0,.3133.0819.4811.4811,0,0,0,.3156-.1.4737.4737,0,0,0,.117-.15h.58a.7086.7086,0,0,1-.2107.3931,1.0565,1.0565,0,0,1-.8179.3169,1.1859,1.1859,0,0,1-.7656-.2672,1.054,1.054,0,0,1-.3317-.87,1.1763,1.1763,0,0,1,.2994-.866,1.0473,1.0473,0,0,1,.7773-.3017A1.2406,1.2406,0,0,1,246.98,122.0952Zm-.85.491a.5917.5917,0,0,0-.1514.3368h.9792a.4757.4757,0,0,0-.1513-.3439.4989.4989,0,0,0-.3373-.117A.45.45,0,0,0,246.13,122.5862Z" fill="#5c5c5c"/><path d="M248.6345,122.9026a.8833.8833,0,0,0,.2272-.05.1707.1707,0,0,0,.1225-.1613.1916.1916,0,0,0-.094-.1848.5966.5966,0,0,0-.276-.051.362.362,0,0,0-.289.1.4091.4091,0,0,0-.0809.1994h-.5484a.8325.8325,0,0,1,.16-.4689.9343.9343,0,0,1,.7771-.2871,1.3864,1.3864,0,0,1,.6371.1418.5432.5432,0,0,1,.2783.5344v.9971q0,.1038.004.2509a.3105.3105,0,0,0,.0339.1515.2.2,0,0,0,.0837.0661v.0837h-.6182a.628.628,0,0,1-.0359-.1236q-.01-.0579-.016-.1316a1.1619,1.1619,0,0,1-.2727.2171.8243.8243,0,0,1-.4173.1059.72.72,0,0,1-.49-.1684.5992.5992,0,0,1-.1937-.4777.6185.6185,0,0,1,.3113-.58,1.3994,1.3994,0,0,1,.5024-.14Zm.3477.2655a.6384.6384,0,0,1-.11.0549.912.912,0,0,1-.1527.0386l-.1294.0239a.8616.8616,0,0,0-.2612.078.26.26,0,0,0-.1343.2411.2511.2511,0,0,0,.082.21.3109.3109,0,0,0,.1994.0651.594.594,0,0,0,.3432-.1081.4556.4556,0,0,0,.1631-.3926Z" fill="#5c5c5c"/><path d="M249.7606,122.4763v-.4051h.3031v-.6062h.5624v.6062h.353v.4051h-.353v1.1487a.2571.2571,0,0,0,.0339.1662.3709.3709,0,0,0,.2074.0332c.0173,0,.0355,0,.055-.0013s.0381-.0013.0567-.0031v.425l-.2692.01a.7224.7224,0,0,1-.55-.14.4144.4144,0,0,1-.0958-.3009v-1.3379Z" fill="#5c5c5c"/><path d="M251.849,122.0513v1.31a.6918.6918,0,0,0,.0437.2792.3018.3018,0,0,0,.3036.1653.3963.3963,0,0,0,.3968-.2353.8565.8565,0,0,0,.0556-.3368v-1.1828h.5764v2.1737h-.5524v-.3071c-.0054.0067-.0187.0266-.04.06a.4041.4041,0,0,1-.0756.0878.7873.7873,0,0,1-.2577.1635.8735.8735,0,0,1-.2913.0439.649.649,0,0,1-.6482-.347,1.3268,1.3268,0,0,1-.0935-.5642v-1.31Z" fill="#5c5c5c"/><path d="M254.9237,122c.0073.0009.0237.0018.049.0031v.5824q-.0538-.006-.0957-.008c-.028-.0013-.0506-.0022-.0678-.0022a.4722.4722,0,0,0-.4607.2233.8723.8723,0,0,0-.0658.3874v1.0387H253.71v-2.1737h.5425v.3789a1.2,1.2,0,0,1,.2293-.2969.6243.6243,0,0,1,.4148-.1338Z" fill="#5c5c5c"/><path d="M256.6609,122.0952a.8884.8884,0,0,1,.3756.3217,1.0655,1.0655,0,0,1,.1731.4494,2.777,2.777,0,0,1,.0188.4316h-1.5832a.5211.5211,0,0,0,.2273.4583.5743.5743,0,0,0,.3133.0819.4809.4809,0,0,0,.3156-.1.4737.4737,0,0,0,.117-.15h.58a.7086.7086,0,0,1-.2107.3931,1.0564,1.0564,0,0,1-.8179.3169,1.1861,1.1861,0,0,1-.7656-.2672,1.054,1.054,0,0,1-.3317-.87,1.1767,1.1767,0,0,1,.2994-.866,1.0473,1.0473,0,0,1,.7773-.3017A1.2406,1.2406,0,0,1,256.6609,122.0952Zm-.85.491a.5924.5924,0,0,0-.1514.3368h.9792a.4757.4757,0,0,0-.1513-.3439.4987.4987,0,0,0-.3373-.117A.45.45,0,0,0,255.8105,122.5862Z" fill="#5c5c5c"/><path d="M260.71,121.2855v.5207h-.88v2.4188h-.6182v-2.4188h-.8834v-.5207Z" fill="#5c5c5c"/><path d="M261.5459,121.7921H260.97v-.5248h.5763Zm-.5763.2592h.5763v2.1737H260.97Z" fill="#5c5c5c"/><path d="M261.8116,122.4763v-.4051h.3031v-.6062h.5624v.6062h.353v.4051h-.353v1.1487a.2571.2571,0,0,0,.0339.1662.3707.3707,0,0,0,.2074.0332c.0173,0,.0355,0,.055-.0013s.0381-.0013.0567-.0031v.425l-.2692.01a.7224.7224,0,0,1-.55-.14.414.414,0,0,1-.0958-.3009v-1.3379Z" fill="#5c5c5c"/><path d="M263.9142,124.225h-.5684v-2.9395h.5684Z" fill="#5c5c5c"/><path d="M265.8238,122.0952a.8884.8884,0,0,1,.3756.3217,1.064,1.064,0,0,1,.173.4494,2.762,2.762,0,0,1,.0189.4316h-1.5832a.5208.5208,0,0,0,.2273.4583.5741.5741,0,0,0,.3133.0819.4811.4811,0,0,0,.3156-.1.4737.4737,0,0,0,.117-.15h.58a.7086.7086,0,0,1-.2107.3931,1.0565,1.0565,0,0,1-.8179.3169,1.1859,1.1859,0,0,1-.7656-.2672,1.054,1.054,0,0,1-.3317-.87,1.1763,1.1763,0,0,1,.2994-.866,1.0473,1.0473,0,0,1,.7773-.3017A1.2406,1.2406,0,0,1,265.8238,122.0952Zm-.85.491a.5917.5917,0,0,0-.1514.3368h.9792a.4757.4757,0,0,0-.1513-.3439.4989.4989,0,0,0-.3373-.117A.45.45,0,0,0,264.9734,122.5862Z" fill="#5c5c5c"/><rect x="246.666" y="102.7014" width="15.351" height="15.3615" rx="2.6795" fill="none" stroke="#231f20" stroke-miterlimit="10" stroke-width="0.25"/><rect x="249.6027" y="106.8764" width="8.4777" height="8.5718" fill="none" stroke="#231f20" stroke-miterlimit="10" stroke-width="0.25"/><polyline points="257.825 105.316 259.681 105.316 259.681 107.266" fill="none" stroke="#231f20" stroke-linecap="round" stroke-miterlimit="10" stroke-width="0.25"/><rect x="249.6027" y="110.1102" width="5.338" height="5.338" fill="none" stroke="#231f20" stroke-miterlimit="10" stroke-width="0.25"/><line x1="259.4756" y1="105.588" x2="257.9738" y2="107.0061" fill="none" stroke="#231f20" stroke-linecap="round" stroke-miterlimit="10" stroke-width="0.25"/><path d="M103.6352,121.5248h2.0959v.5167h-1.4857v.6758h1.3022v.5106h-1.3022V124.46h-.61Z" fill="#5c5c5c"/><path d="M107.44,122.33a.8886.8886,0,0,1,.3756.3218,1.0644,1.0644,0,0,1,.1731.4494,2.777,2.777,0,0,1,.0188.4316h-1.5832a.5206.5206,0,0,0,.2273.4582.5735.5735,0,0,0,.3133.082.4809.4809,0,0,0,.3156-.1.4748.4748,0,0,0,.117-.15h.58a.7086.7086,0,0,1-.2107.3931,1.0564,1.0564,0,0,1-.8179.3169,1.1856,1.1856,0,0,1-.7656-.2673,1.0536,1.0536,0,0,1-.3317-.87,1.1767,1.1767,0,0,1,.2994-.866,1.0474,1.0474,0,0,1,.7773-.3018A1.2406,1.2406,0,0,1,107.44,122.33Zm-.85.4911a.5921.5921,0,0,0-.1514.3368h.9792a.4755.4755,0,0,0-.1513-.3439.4987.4987,0,0,0-.3373-.117A.45.45,0,0,0,106.5891,122.8215Z" fill="#5c5c5c"/><path d="M109.0939,123.1379a.8877.8877,0,0,0,.2271-.05.1708.1708,0,0,0,.1225-.1614.1918.1918,0,0,0-.0939-.1848.5985.5985,0,0,0-.2761-.0509.3623.3623,0,0,0-.289.1.4094.4094,0,0,0-.0808.1995h-.5485a.8322.8322,0,0,1,.16-.4689.9341.9341,0,0,1,.7771-.2872,1.3864,1.3864,0,0,1,.6371.1418.5434.5434,0,0,1,.2783.5345v.9971c0,.0691.0013.1529.004.2508a.3133.3133,0,0,0,.0339.1516.2.2,0,0,0,.0837.066v.0838h-.6182a.6369.6369,0,0,1-.0359-.1236q-.01-.0579-.0159-.1317a1.1648,1.1648,0,0,1-.2728.2172.825.825,0,0,1-.4172.1059.7209.7209,0,0,1-.49-.1684.6.6,0,0,1-.1937-.4777.6182.6182,0,0,1,.3114-.58,1.3992,1.3992,0,0,1,.5023-.14Zm.3476.2654a.6463.6463,0,0,1-.11.055.9294.9294,0,0,1-.1527.0386l-.1294.0239a.8616.8616,0,0,0-.2612.078.26.26,0,0,0-.1343.2411.2511.2511,0,0,0,.082.21.3109.3109,0,0,0,.1994.0651.594.594,0,0,0,.3432-.1081.4557.4557,0,0,0,.1631-.3927Z" fill="#5c5c5c"/><path d="M110.22,122.7116v-.4051h.3032V121.7h.5623v.6062h.353v.4051h-.353V123.86a.2569.2569,0,0,0,.0339.1661.37.37,0,0,0,.2074.0333c.0173,0,.0355-.0005.055-.0014s.0381-.0013.0567-.0031v.425l-.2692.01a.7222.7222,0,0,1-.55-.14.4144.4144,0,0,1-.0957-.3009v-1.3379Z" fill="#5c5c5c"/><path d="M112.3084,122.2866v1.31a.6924.6924,0,0,0,.0436.2792.3018.3018,0,0,0,.3036.1653.3963.3963,0,0,0,.3968-.2353.8568.8568,0,0,0,.0556-.3368v-1.1828h.5764V124.46h-.5524v-.3071c-.0053.0066-.0186.0266-.04.06a.4088.4088,0,0,1-.0755.0878.7927.7927,0,0,1-.2577.1635.877.877,0,0,1-.2914.0439.649.649,0,0,1-.6482-.347,1.329,1.329,0,0,1-.0935-.5642v-1.31Z" fill="#5c5c5c"/><path d="M115.383,122.2356c.0073.0009.0237.0018.049.0031v.5823q-.0538-.006-.0957-.0079c-.0279-.0014-.05-.0023-.0678-.0023a.4721.4721,0,0,0-.4607.2234.8721.8721,0,0,0-.0658.3873V124.46H114.17v-2.1737h.5425v.3789a1.1981,1.1981,0,0,1,.2293-.2969.6244.6244,0,0,1,.4148-.1339Z" fill="#5c5c5c"/><path d="M117.12,122.33a.8886.8886,0,0,1,.3756.3218,1.0644,1.0644,0,0,1,.1731.4494,2.7645,2.7645,0,0,1,.0188.4316h-1.5832a.5209.5209,0,0,0,.2274.4582.573.573,0,0,0,.3133.082.4808.4808,0,0,0,.3155-.1.4748.4748,0,0,0,.117-.15h.58a.7086.7086,0,0,1-.2107.3931,1.0564,1.0564,0,0,1-.8179.3169,1.1852,1.1852,0,0,1-.7655-.2673,1.0533,1.0533,0,0,1-.3317-.87,1.1767,1.1767,0,0,1,.2993-.866,1.0475,1.0475,0,0,1,.7773-.3018A1.24,1.24,0,0,1,117.12,122.33Zm-.85.4911a.5913.5913,0,0,0-.1513.3368h.9791a.4755.4755,0,0,0-.1513-.3439.4987.4987,0,0,0-.3372-.117A.4506.4506,0,0,0,116.27,122.8215Z" fill="#5c5c5c"/><path d="M121.169,121.5208v.5207H120.29V124.46h-.6182v-2.4188h-.8834v-.5207Z" fill="#5c5c5c"/><path d="M122.0053,122.0273h-.5764v-.5247h.5764Zm-.5764.2593h.5764V124.46h-.5764Z" fill="#5c5c5c"/><path d="M122.2709,122.7116v-.4051h.3032V121.7h.5623v.6062h.353v.4051h-.353V123.86a.2569.2569,0,0,0,.0339.1661.37.37,0,0,0,.2074.0333c.0173,0,.0355-.0005.055-.0014s.0381-.0013.0567-.0031v.425l-.2692.01a.7222.7222,0,0,1-.55-.14.4144.4144,0,0,1-.0957-.3009v-1.3379Z" fill="#5c5c5c"/><path d="M124.3735,124.46h-.5683v-2.94h.5683Z" fill="#5c5c5c"/><path d="M126.2831,122.33a.8886.8886,0,0,1,.3756.3218,1.0644,1.0644,0,0,1,.1731.4494,2.7645,2.7645,0,0,1,.0188.4316h-1.5832a.5209.5209,0,0,0,.2273.4582.5736.5736,0,0,0,.3134.082.4808.4808,0,0,0,.3155-.1.4748.4748,0,0,0,.117-.15h.58a.7086.7086,0,0,1-.2107.3931,1.0564,1.0564,0,0,1-.8179.3169,1.1852,1.1852,0,0,1-.7655-.2673,1.0533,1.0533,0,0,1-.3318-.87,1.1767,1.1767,0,0,1,.2994-.866,1.0474,1.0474,0,0,1,.7773-.3018A1.2406,1.2406,0,0,1,126.2831,122.33Zm-.85.4911a.5913.5913,0,0,0-.1513.3368h.9791a.4755.4755,0,0,0-.1513-.3439.4987.4987,0,0,0-.3373-.117A.45.45,0,0,0,125.4327,122.8215Z" fill="#5c5c5c"/><path d="M119.9057,114.7159c0,.1717-.3525.3118-.7908.3118s-.7907-.14-.7907-.3118" fill="none" stroke="#000" stroke-miterlimit="10" stroke-width="0.25"/><path d="M119.5012,113.9a.4225.4225,0,1,1-.8449,0" fill="none" stroke="#000" stroke-miterlimit="10" stroke-width="0.25"/><path d="M120.179,112.1449l.9037,1.4978a1.0553,1.0553,0,0,1,.1017.8789,1.86,1.86,0,0,1-1.5815,1.3352H118.532a1.899,1.899,0,0,1-1.6221-1.4346,1.017,1.017,0,0,1,.1061-.7591l.8-1.4663a.7458.7458,0,0,1,.6349-.3886l1.0709-.0271A.75.75,0,0,1,120.179,112.1449Z" fill="none" stroke="#000" stroke-miterlimit="10" stroke-width="0.25"/><path d="M120.362,113.1163a.8878.8878,0,0,1-.8879.4s.0249-.3434.2689-.436A.84.84,0,0,1,120.362,113.1163Z"/><path d="M117.7842,113.1028a.8879.8879,0,0,0,.8879.3976s-.0249-.3411-.2689-.436A.8491.8491,0,0,0,117.7842,113.1028Z"/><polygon points="120.068 116.587 119.113 116.905 118.114 116.587 118.114 115.861 120.068 115.861 120.068 116.587" fill="none" stroke="#000" stroke-miterlimit="10" stroke-width="0.25"/><path d="M111.1962,117.3841s-.8337-.1265-1.1026-.1469a3.8628,3.8628,0,0,0-.985.0272,4.4439,4.4439,0,0,0,.2078-.6372,5.08,5.08,0,0,0,.0814-.6167s.5309.079.7049.0768.7952-.0972.7952-.0972.0159.488.0384.6371A3.054,3.054,0,0,0,111.1962,117.3841Z" fill="none" stroke="#000" stroke-miterlimit="10" stroke-width="0.25"/><path d="M112.8025,114.44a1.867,1.867,0,0,1-.8811.1649" fill="none" stroke="#000" stroke-miterlimit="10" stroke-width="0.25"/><path d="M115.6266,114.44a3.0941,3.0941,0,0,0,1.3556.21" fill="none" stroke="#000" stroke-miterlimit="10" stroke-width="0.25"/><path d="M115.5611,119v-.6778a1.7509,1.7509,0,0,1,1.7509-1.7509h.802" fill="none" stroke="#000" stroke-linecap="round" stroke-miterlimit="10" stroke-width="0.25"/><path d="M120.0683,116.5708h.9579a1.7486,1.7486,0,0,1,1.55.933" fill="none" stroke="#000" stroke-linecap="round" stroke-miterlimit="10" stroke-width="0.25"/><path d="M107.186,117.9105a5.2458,5.2458,0,0,1,2.6275-.6461c1.7441,0,3.2172.73,3.6826,1.726" fill="none" stroke="#000" stroke-linecap="round" stroke-miterlimit="10" stroke-width="0.25"/><path d="M114.924,113.3829a2.3809,2.3809,0,0,0,.7026,1.0574v.1129a1.403,1.403,0,1,1-2.8038.1126c-.0015-.0375-.0015-.0751,0-.1126l-.0226-.1084a2.3813,2.3813,0,0,0,.7027-1.0573" fill="none" stroke="#231f20" stroke-miterlimit="10" stroke-width="0.25"/><path d="M116.1123,112.7774a.5536.5536,0,0,0,.8337.0972.5648.5648,0,0,0,.1649-.5422.4948.4948,0,0,0,.5829-.1491.5424.5424,0,0,0,.0723-.5965.4926.4926,0,0,0,.5219-.3231.5353.5353,0,0,0-.1423-.6054.5108.5108,0,0,0,.3547-.3977.5331.5331,0,0,0-.1582-.5083.51.51,0,0,0,.3615-.5038.52.52,0,0,0-.3931-.5242.531.531,0,0,0,.1785-.5784.5016.5016,0,0,0-.4632-.37.5332.5332,0,0,0,.12-.6281.4971.4971,0,0,0-.6078-.2914.5422.5422,0,0,0-.07-.662.4972.4972,0,0,0-.6778-.0339.54.54,0,0,0-.1852-.6077.4882.4882,0,0,0-.6259.0158.5151.5151,0,0,0-.9986-.1423,1.1531,1.1531,0,0,1-.0271-.1378.504.504,0,0,0-.732-.3706.5243.5243,0,0,0-.2756.4519.1853.1853,0,0,1-.0136.0587.52.52,0,0,0-1.0053.1446.479.479,0,0,0-.5852-.0406.5354.5354,0,0,0-.2259.6326.49.49,0,0,0-.6552,0,.54.54,0,0,0-.1085.6777.4881.4881,0,0,0-.56.2056.977.977,0,0,1-.4164,1.3139.5373.5373,0,0,0,.1972.367.52.52,0,0,0-.3863.5106.5129.5129,0,0,0,.3592.52.5376.5376,0,0,0-.1582.506l.0769.2508" fill="none" stroke="#231f20" stroke-miterlimit="10" stroke-width="0.25"/><path d="M114.7568,113.5388a1.0142,1.0142,0,0,1-1.0009,0l-.2485-.1468c-.558-.348-1.2358-.8021-1.2358-1.0325v-2.3723a1.367,1.367,0,0,1,.5942-1.13,5.4244,5.4244,0,0,1,.802-.4677,1.5821,1.5821,0,0,1,1.2584,0,5.1615,5.1615,0,0,1,.7953.4655,1.3668,1.3668,0,0,1,.59,1.13V112.36C116.3134,112.6283,115.3645,113.1977,114.7568,113.5388Z" fill="none" stroke="#231f20" stroke-miterlimit="10" stroke-width="0.25"/><path d="M115.3487,111.9076c0,.3344-.497.7908-1.08.7908a1.0033,1.0033,0,0,1-1.03-.7908" fill="none" stroke="#000" stroke-miterlimit="10" stroke-width="0.25"/><path d="M114.8743,111.39a.58.58,0,0,1-1.1319,0" fill="none" stroke="#000" stroke-miterlimit="10" stroke-width="0.25"/><path d="M116.3224,109.9647v.0474h-4.0508v.7184a1.0979,1.0979,0,0,0,1.06.4926,1.2066,1.2066,0,0,0,.9692-.6778,1.13,1.13,0,0,0,2.02.113v-.6936Zm-.488.2575a.0994.0994,0,0,1,.0777.1172.0957.0957,0,0,1-.01.0274.1373.1373,0,0,1-.0271.0362l-.4857.4834a.2261.2261,0,0,1-.0656.0407.1061.1061,0,0,1-.1152-.0565.0926.0926,0,0,1,0-.0994.1159.1159,0,0,1,.0226-.0248l.5016-.4858A.1083.1083,0,0,1,115.8344,110.2222Zm-1.0076.3389c.0407-.0452.0836-.0881.1288-.131s.1175-.122.1785-.1785a.0994.0994,0,0,1,.1694.0474.0928.0928,0,0,1-.0271.0927l-.2937.305a.2237.2237,0,0,1-.0542.0293.1105.1105,0,0,1-.1062-.0565A.0926.0926,0,0,1,114.8268,110.5611Zm-1.2177-.3a.1016.1016,0,0,1,.1626.122.1033.1033,0,0,1-.02.02l-.4993.497a.0972.0972,0,0,1-.113.0271.1175.1175,0,0,1-.0677-.0971.2616.2616,0,0,1,.0384-.07Zm-.92.3141a.3909.3909,0,0,1,.043-.0452l.26-.2689a.1039.1039,0,0,1,.1468-.0068l.0068.0068a.1.1,0,0,1,.0112.14l-.0112.0112-.2869.2869a.224.224,0,0,1-.0633.0384.1.1,0,0,1-.1039-.0565.0926.0926,0,0,1-.0023-.1129Z"/><rect x="106.5104" y="102.4661" width="16.5808" height="16.5921" rx="2.8941" fill="none" stroke="#231f20" stroke-miterlimit="10" stroke-width="0.25"/><path d="M110.071,113.6156h-.253a.592.592,0,0,0,.1559.4044.5313.5313,0,0,0,.3908.1718h0a.56.56,0,0,0,.5514-.5692l0-.0024h-.253a.31.31,0,0,1-.296.3208h0a.2848.2848,0,0,1-.2056-.0927.3365.3365,0,0,1-.0881-.2259Z"/><path d="M110.3286,115.0412a.8287.8287,0,0,1-.4835-.1491.402.402,0,0,1-.1785-.314h-.253a.644.644,0,0,0,.28.5151,1.051,1.051,0,0,0,.6326.2011h0a.8205.8205,0,0,0,.9038-.7094h-.235C110.9928,114.8334,110.69,115.039,110.3286,115.0412Z"/><path d="M109.8564,112.9559c.02.1243-.0135.1559-.0135.1559h.2666a.3621.3621,0,0,0,0-.2078.3337.3337,0,0,0-.0317-.0949h0a.5941.5941,0,0,0-.6394-.2892.6639.6639,0,0,0-.3931.1988.6057.6057,0,0,0-.0949.1469h0a.4158.4158,0,0,0-.0338.131.1025.1025,0,0,0,0,.0271.6009.6009,0,0,0,0,.1039h.2643a.0862.0862,0,0,1,0-.02v-.0316a.2258.2258,0,0,1,.0655-.1808.4177.4177,0,0,1,.244-.12A.3207.3207,0,0,1,109.8564,112.9559Z"/><path d="M111.5938,112.9537c.02.122-.0136.1536-.0136.1536h.2666a.3591.3591,0,0,0,0-.2079.5073.5073,0,0,0-.0293-.0948h0a.5853.5853,0,0,0-.63-.2915.6612.6612,0,0,0-.3908.1966.4929.4929,0,0,0-.0949.1468h0a.4166.4166,0,0,0-.0339.1311v.0248a.6009.6009,0,0,0,0,.1039h.2643a.0984.0984,0,0,1,0-.02v-.0339a.2126.2126,0,0,1,.0655-.1785.4047.4047,0,0,1,.2418-.12C111.4063,112.73,111.58,112.8181,111.5938,112.9537Z"/><path d="M111.8672,110.9768a1.3928,1.3928,0,0,0-.7049-.479,4.4583,4.4583,0,0,0-1.1929-.1875c-1.3127.0317-2.0695.8405-2.3022,2.4965,0,.09-.02.183-.0226.2757l-.1695,4.7715.2531-.2259.1694-4.5456a2.3376,2.3376,0,0,1,.02-.2508,2.9054,2.9054,0,0,1,.8246-1.8639,1.828,1.828,0,0,0-.4858,1.2561v1.74a6.2749,6.2749,0,0,0,1.0122,1.99,1.6135,1.6135,0,0,0,.9037.2259h.2418a1.55,1.55,0,0,0,.9037-.2259,6.2414,6.2414,0,0,0,1.0144-1.99v-1.74A1.8081,1.8081,0,0,0,111.8672,110.9768Zm-3.3551,1.2539a1.4776,1.4776,0,0,1,1.4211-1.5182h.5445c-.2847.2824-.6642.6484-.967.9037a11.8986,11.8986,0,0,0-.9963.9692Zm3.5833,1.6809a5.9614,5.9614,0,0,1-.9264,1.8526,1.5079,1.5079,0,0,1-.8653.1695,1.3161,1.3161,0,0,1-.863-.1695,6.0348,6.0348,0,0,1-.9263-1.8526v-.9647a13.4793,13.4793,0,0,1,1.1613-1.15c.3728-.3163.863-.7952,1.1522-1.0844a1.3779,1.3779,0,0,1,.854.4383,1.5564,1.5564,0,0,1,.4157,1.08Z"/><path d="M118.6789,111.0717l-.0814-.1333c-.2033.2576-.59.8043-.7365,1.0122.1288-.1695.35-.38.5287-.38h1.2923a.6056.6056,0,0,1,.497.2847l.6417,1.0279a.79.79,0,0,0,.2869-.9986,2.938,2.938,0,0,0-.54-1.0212,6.5075,6.5075,0,0,1,.9692.6778.197.197,0,0,0,.1311.0475.2082.2082,0,0,0,.1581-.0723.1966.1966,0,0,0-.0208-.2772l-.0063-.0052c-.85-.6981-1.2381-.8224-1.4075-.8224h-.0429a.6565.6565,0,0,0-.2011.0655c-.0407-.0294-.0836-.0565-.1288-.0836a1.1559,1.1559,0,0,1,.2689-.2259.9329.9329,0,0,1,.4767-.1175,2.3308,2.3308,0,0,1,.9421.253.1829.1829,0,0,0,.0971.0249.2056.2056,0,0,0,.1808-.1039.2012.2012,0,0,0-.0788-.2733l0,0a2.6906,2.6906,0,0,0-1.1409-.3027,1.3384,1.3384,0,0,0-.6778.1717,1.581,1.581,0,0,0-.4519.3863c-.061-.0226-.122-.0407-.1875-.0587a1.0686,1.0686,0,0,1,.7591-.6778,1.1406,1.1406,0,0,1,.3-.0362,2.3982,2.3982,0,0,1,.49.0543h.0474a.2011.2011,0,0,0,.0452-.3977,2.8477,2.8477,0,0,0-.5806-.0632,1.5119,1.5119,0,0,0-.418.0519,1.4844,1.4844,0,0,0-.8721.6213v-.6461a.2056.2056,0,0,0-.4112,0v.6529a.0261.0261,0,0,0-.0225-.0249c-.0046,0,0,.226-.0407.226a.05.05,0,0,1-.0271-.0136,1.0958,1.0958,0,0,0-.174-.1378.7168.7168,0,0,0,.09.1288c.0745.0926.3163.5535.2553.5761l-.113.2078.1378.0859Z" fill="none"/><path d="M117.85,111.9528a.8348.8348,0,0,0-.0587.0859Z"/><path d="M118.6179,108.9864a.3615.3615,0,0,1,.4066-.3592.4316.4316,0,0,1,.4316.427v.0926a1.8709,1.8709,0,0,1,.5851-.28,1.78,1.78,0,0,1,.479-.0588,3.1047,3.1047,0,0,1,.628.0678.4227.4227,0,0,1,.2712.192.416.416,0,0,1,.0542.3231.48.48,0,0,1-.052.1265,3.2312,3.2312,0,0,1,.5987.2259.4293.4293,0,0,1,.2056.26.42.42,0,0,1-.0384.3253.436.436,0,0,1-.5829.1649,2.0853,2.0853,0,0,0-.8043-.2259,5.2836,5.2836,0,0,1,1.1477.77.4247.4247,0,0,1,.0633.5973l-.0068.0082a.4271.4271,0,0,1-.33.1514.42.42,0,0,1-.2734-.0972c-.05-.0407-.0994-.0813-.1514-.12.0316.0813.0588.16.0813.2259a1.0241,1.0241,0,0,1-.4,1.2675l-.1379.0745" fill="none" stroke="#000" stroke-miterlimit="10" stroke-width="0.25"/><line x1="108.8714" y1="115.2129" x2="108.8714" y2="116.7086" fill="none" stroke="#231f20" stroke-linecap="round" stroke-miterlimit="10" stroke-width="0.25"/><line x1="108.3834" y1="112.608" x2="108.3834" y2="116.2093" fill="none" stroke="#231f20" stroke-linecap="round" stroke-miterlimit="10" stroke-width="0.25"/><path d="M121.4216,109.5173a2.4355,2.4355,0,0,0-1.5431.0859" fill="none" stroke="#000" stroke-linecap="round" stroke-miterlimit="10" stroke-width="0.25"/></svg>