<svg xmlns="http://www.w3.org/2000/svg" xmlns:xlink="http://www.w3.org/1999/xlink" width="279" height="227" viewBox="0 0 279 227"><defs><clipPath id="a"><rect x="-7.9397" y="-7.3311" width="294.8794" height="241.6622" fill="none"/></clipPath><clipPath id="b"><path d="M29.6665,132.4363H69.899a2.8738,2.8738,0,0,1,2.8738,2.8738v2.299a2.8737,2.8737,0,0,1-2.8737,2.8737H29.6665a2.8737,2.8737,0,0,1-2.8737-2.8737V135.31A2.8737,2.8737,0,0,1,29.6665,132.4363Z" fill="none"/></clipPath><clipPath id="c"><rect x="-20.2072" y="0.4363" width="279" height="227" fill="none"/></clipPath><clipPath id="d"><rect x="-1" y="13.4798" width="279" height="227" fill="none"/></clipPath><clipPath id="f"><path d="M117.8013,134.1735h40.2325a2.8738,2.8738,0,0,1,2.8738,2.8738v2.299a2.8737,2.8737,0,0,1-2.8737,2.8737H117.8013a2.8737,2.8737,0,0,1-2.8737-2.8737v-2.299A2.8737,2.8737,0,0,1,117.8013,134.1735Z" fill="none"/></clipPath><clipPath id="g"><rect x="67.9276" y="2.1735" width="279" height="227" fill="none"/></clipPath><clipPath id="h"><rect x="87.1348" y="15.2169" width="279" height="227" fill="none"/></clipPath><clipPath id="j"><path d="M206.7706,134.1735h40.2325a2.8738,2.8738,0,0,1,2.8738,2.8738v2.299a2.8737,2.8737,0,0,1-2.8737,2.8737H206.7706a2.8737,2.8737,0,0,1-2.8737-2.8737v-2.299A2.8737,2.8737,0,0,1,206.7706,134.1735Z" fill="none"/></clipPath><clipPath id="k"><rect x="156.8969" y="2.1735" width="279" height="227" fill="none"/></clipPath><clipPath id="l"><rect x="176.1041" y="15.2169" width="279" height="227" fill="none"/></clipPath></defs><g clip-path="url(#a)"><rect x="-13.2243" y="-31.8167" width="305.4486" height="290.6333" fill="#dfdfdf"/></g><rect x="13.7611" y="65.7822" width="75.2082" height="82.4346" fill="#fff"/><rect x="101.8959" y="65.7822" width="75.2082" height="82.4346" fill="#fff"/><rect x="190.0307" y="65.7822" width="75.2082" height="82.4346" fill="#fff"/><g clip-path="url(#b)"><g clip-path="url(#c)"><rect x="21.7928" y="127.4363" width="55.98" height="18.0465"/></g></g><g clip-path="url(#d)"><path d="M24.7856,98.0519h4.6187v1.1386H26.13V100.68H29v1.125H26.13v2.7158H24.7856Z" fill="#5c5c5c"/><path d="M33.1689,99.8273a1.9588,1.9588,0,0,1,.8277.709,2.347,2.347,0,0,1,.3813.99,6.0922,6.0922,0,0,1,.0415.9512H30.9306a1.148,1.148,0,0,0,.501,1.01,1.264,1.264,0,0,0,.69.1807,1.0607,1.0607,0,0,0,.6954-.22,1.0455,1.0455,0,0,0,.2578-.33H34.354a1.5621,1.5621,0,0,1-.4644.8662,2.3278,2.3278,0,0,1-1.8022.6982,2.6127,2.6127,0,0,1-1.687-.5888,2.322,2.322,0,0,1-.731-1.918,2.5921,2.5921,0,0,1,.66-1.9082,2.3079,2.3079,0,0,1,1.7129-.665A2.7335,2.7335,0,0,1,33.1689,99.8273Zm-1.874,1.082a1.3031,1.3031,0,0,0-.3335.7422h2.1577a1.0476,1.0476,0,0,0-.3335-.7578,1.0986,1.0986,0,0,0-.7431-.2578A.9931.9931,0,0,0,31.2949,100.9093Z" fill="#5c5c5c"/><path d="M36.8144,101.6066a1.9511,1.9511,0,0,0,.5005-.1094.376.376,0,0,0,.27-.3555.4222.4222,0,0,0-.207-.4072,1.3164,1.3164,0,0,0-.6084-.1123.7976.7976,0,0,0-.6367.2207.9006.9006,0,0,0-.1782.4394H34.7461a1.8328,1.8328,0,0,1,.353-1.0332,2.0588,2.0588,0,0,1,1.7124-.6328,3.0548,3.0548,0,0,1,1.4038.3125,1.1971,1.1971,0,0,1,.6133,1.1778v2.1972q0,.2286.0088.5528a.69.69,0,0,0,.0747.3339.4416.4416,0,0,0,.1846.1456v.1845H37.7344a1.3918,1.3918,0,0,1-.0791-.2724q-.022-.1275-.0352-.29a2.5616,2.5616,0,0,1-.6011.4785,1.8163,1.8163,0,0,1-.9194.2334,1.5881,1.5881,0,0,1-1.0806-.3711,1.321,1.321,0,0,1-.4267-1.0527,1.3628,1.3628,0,0,1,.686-1.2783,3.0834,3.0834,0,0,1,1.1069-.3086Zm.7661.5849a1.4183,1.4183,0,0,1-.2426.1211,2.0241,2.0241,0,0,1-.3365.085l-.2851.0527a1.9037,1.9037,0,0,0-.5757.1719.5721.5721,0,0,0-.2959.5312.5538.5538,0,0,0,.1807.4639.685.685,0,0,0,.4394.1436,1.31,1.31,0,0,0,.7564-.2383,1.004,1.004,0,0,0,.3593-.8653Z" fill="#5c5c5c"/><path d="M39.2959,100.6671v-.8926h.6679V98.4386h1.2393v1.3359h.7778v.8926h-.7778v2.5313a.5666.5666,0,0,0,.0747.3662.816.816,0,0,0,.457.0732c.0381,0,.0782-.001.1211-.0029s.084-.0029.125-.0069v.9366l-.5932.0224a1.5913,1.5913,0,0,1-1.2129-.3086.9128.9128,0,0,1-.211-.663v-2.9483Z" fill="#5c5c5c"/><path d="M43.8979,99.7306v2.8877a1.5251,1.5251,0,0,0,.0962.6152.6652.6652,0,0,0,.669.3643.8738.8738,0,0,0,.8745-.5186,1.8882,1.8882,0,0,0,.1225-.7422V99.7306h1.27v4.79H45.7129v-.6767q-.0177.0219-.0874.1318a.8978.8978,0,0,1-.1665.1934,1.7405,1.7405,0,0,1-.5679.36,1.9277,1.9277,0,0,1-.6421.0967,1.43,1.43,0,0,1-1.4282-.7647,2.9239,2.9239,0,0,1-.2061-1.2431V99.7306Z" fill="#5c5c5c"/><path d="M50.6733,99.6183c.0161.0019.0523.0039.1079.0068v1.2832q-.1186-.0132-.2109-.0176c-.0615-.0029-.1113-.0048-.1494-.0048a1.0406,1.0406,0,0,0-1.0152.4921,1.9241,1.9241,0,0,0-.145.8536v2.289H48v-4.79h1.1953v.8349a2.6412,2.6412,0,0,1,.5054-.6542,1.3757,1.3757,0,0,1,.914-.295C50.6377,99.6163,50.6572,99.6173,50.6733,99.6183Z" fill="#5c5c5c"/><path d="M54.5014,99.8273a1.9588,1.9588,0,0,1,.8277.709,2.3456,2.3456,0,0,1,.3813.99,6.0922,6.0922,0,0,1,.0415.9512H52.2632a1.1477,1.1477,0,0,0,.5009,1.01,1.2641,1.2641,0,0,0,.6905.1807,1.06,1.06,0,0,0,.6953-.22,1.0455,1.0455,0,0,0,.2578-.33h1.2788a1.5621,1.5621,0,0,1-.4644.8662,2.3276,2.3276,0,0,1-1.8022.6982,2.6127,2.6127,0,0,1-1.687-.5888,2.322,2.322,0,0,1-.731-1.918,2.5925,2.5925,0,0,1,.66-1.9082,2.3079,2.3079,0,0,1,1.7129-.665A2.7332,2.7332,0,0,1,54.5014,99.8273Zm-1.874,1.082a1.3038,1.3038,0,0,0-.3335.7422h2.1577a1.0476,1.0476,0,0,0-.3335-.7578,1.0986,1.0986,0,0,0-.7431-.2578A.9933.9933,0,0,0,52.6274,100.9093Z" fill="#5c5c5c"/><path d="M63.4233,98.0431v1.1474h-1.938v5.33H60.123v-5.33H58.1762V98.0431Z" fill="#5c5c5c"/><path d="M65.2661,99.1593h-1.27V98.003h1.27Zm-1.27.5713h1.27v4.79h-1.27Z" fill="#5c5c5c"/><path d="M65.8515,100.6671v-.8926h.668V98.4386h1.2393v1.3359h.7778v.8926h-.7778v2.5313a.5666.5666,0,0,0,.0747.3662.8158.8158,0,0,0,.457.0732c.0381,0,.0781-.001.1211-.0029s.084-.0029.125-.0069v.9366l-.5933.0224a1.5913,1.5913,0,0,1-1.2129-.3086.9128.9128,0,0,1-.2109-.663v-2.9483Z" fill="#5c5c5c"/><path d="M70.4848,104.5206H69.2324V98.0431h1.2524Z" fill="#5c5c5c"/><path d="M74.6928,99.8273a1.9588,1.9588,0,0,1,.8277.709,2.3456,2.3456,0,0,1,.3813.99,6.0922,6.0922,0,0,1,.0415.9512H72.4546a1.1477,1.1477,0,0,0,.5009,1.01,1.2641,1.2641,0,0,0,.6905.1807,1.06,1.06,0,0,0,.6953-.22,1.0455,1.0455,0,0,0,.2578-.33h1.2788a1.5625,1.5625,0,0,1-.4643.8662,2.3279,2.3279,0,0,1-1.8023.6982,2.6127,2.6127,0,0,1-1.687-.5888,2.322,2.322,0,0,1-.731-1.918,2.5925,2.5925,0,0,1,.66-1.9082,2.3079,2.3079,0,0,1,1.7129-.665A2.7332,2.7332,0,0,1,74.6928,99.8273Zm-1.874,1.082a1.3038,1.3038,0,0,0-.3335.7422H74.643a1.0472,1.0472,0,0,0-.3335-.7578,1.0986,1.0986,0,0,0-.7431-.2578A.9933.9933,0,0,0,72.8188,100.9093Z" fill="#5c5c5c"/></g><g clip-path="url(#d)"><line x1="23.196" y1="118.0461" x2="77.0395" y2="118.3008" fill="none" stroke="#5c5c5c" stroke-linecap="square" stroke-miterlimit="10"/><line x1="23.6909" y1="112.7718" x2="77.5345" y2="113.0266" fill="none" stroke="#5c5c5c" stroke-linecap="square" stroke-miterlimit="10"/><line x1="23.196" y1="123.1414" x2="77.0395" y2="123.3962" fill="none" stroke="#5c5c5c" stroke-linecap="square" stroke-miterlimit="10"/></g><rect x="42.9778" y="76.5368" width="14.774" height="15.3772" rx="3.2115" fill="none" stroke="#231f20" stroke-linecap="round" stroke-miterlimit="10" stroke-width="0.25"/><path d="M53.1224,89.9008a1.1046,1.1046,0,0,1-.5556.1483h-4.311a1.1133,1.1133,0,0,1-1.1134-1.1133V79.38a1.1134,1.1134,0,0,1,1.1134-1.1113h4.3129A1.1133,1.1133,0,0,1,53.6821,79.38V86.984" fill="none" stroke="#000" stroke-miterlimit="10" stroke-width="0.25"/><circle cx="49.4344" cy="79.1748" r="0.2155" fill="none" stroke="#000" stroke-miterlimit="10" stroke-width="0.25"/><line x1="50.0355" y1="79.1748" x2="51.6848" y2="79.1748" fill="none" stroke="#000" stroke-linecap="round" stroke-miterlimit="10" stroke-width="0.25"/><polyline points="51.833 87.122 47.647 87.122 47.647 80.005 53.174 80.005 53.174 86.323" fill="none" stroke="#000" stroke-miterlimit="10" stroke-width="0.25"/><circle cx="50.4113" cy="88.5521" r="0.7515" fill="none" stroke="#000" stroke-miterlimit="10" stroke-width="0.25"/><path d="M55.14,84.15l-1.4554-2.5708v5.4975l-1.5109-2.0882a.791.791,0,0,0-1.1865,1.0144l1.675,2.27c-.0613.31-.2769,1.79,1.226,1.79h1.45V84.8443A1.408,1.408,0,0,0,55.14,84.15Z" fill="none" stroke="#000" stroke-miterlimit="10" stroke-width="0.25"/><path d="M51.2359,86.3255H49.2366a.631.631,0,0,1-.6229-.6387V84.3776a.6309.6309,0,0,1,.6229-.6229H51.58a.6308.6308,0,0,1,.6308.6308v.74" fill="none" stroke="#000" stroke-miterlimit="10" stroke-width="0.25"/><line x1="49.1852" y1="85.5602" x2="50.8424" y2="85.5602" fill="none" stroke="#000" stroke-miterlimit="10" stroke-width="0.25"/><line x1="49.2287" y1="84.5042" x2="51.5483" y2="84.5042" fill="none" stroke="#000" stroke-miterlimit="10" stroke-width="0.25"/><line x1="49.9584" y1="82.1489" x2="51.7619" y2="82.1489" fill="none" stroke="#000" stroke-miterlimit="10" stroke-width="0.25"/><line x1="49.9901" y1="81.4885" x2="51.7619" y2="81.4885" fill="none" stroke="#000" stroke-miterlimit="10" stroke-width="0.25"/><path d="M51.7659,80.8458h-1.73a.4469.4469,0,0,0-.4469.4429l-.0118.884-.3955,1.0144.961-.4706,1.6354-.0139a.4449.4449,0,0,0,.445-.4449v-.963a.4489.4489,0,0,0-.4488-.449Z" fill="none" stroke="#000" stroke-linecap="round" stroke-miterlimit="10" stroke-width="0.25"/><g clip-path="url(#f)"><g clip-path="url(#g)"><rect x="109.9276" y="129.1735" width="55.98" height="18.0465"/></g></g><g clip-path="url(#h)"><path d="M112.92,99.789h4.6187v1.1387h-3.274v1.4892h2.87v1.125h-2.87v2.7158H112.92Z" fill="#5c5c5c"/><path d="M121.3037,101.5644a1.9579,1.9579,0,0,1,.8276.709,2.3458,2.3458,0,0,1,.3814.99,6.1047,6.1047,0,0,1,.0415.9512h-3.4888a1.1478,1.1478,0,0,0,.501,1.01,1.264,1.264,0,0,0,.69.1807,1.06,1.06,0,0,0,.6953-.22,1.0457,1.0457,0,0,0,.2579-.33h1.2788a1.5618,1.5618,0,0,1-.4644.8662,2.3278,2.3278,0,0,1-1.8022.6982,2.6121,2.6121,0,0,1-1.687-.5888,2.3216,2.3216,0,0,1-.731-1.918,2.5921,2.5921,0,0,1,.66-1.9082,2.3079,2.3079,0,0,1,1.7129-.665A2.7338,2.7338,0,0,1,121.3037,101.5644Zm-1.874,1.082a1.3031,1.3031,0,0,0-.3335.7422h2.1577a1.0476,1.0476,0,0,0-.3335-.7578,1.0989,1.0989,0,0,0-.7432-.2578A.9931.9931,0,0,0,119.43,102.6464Z" fill="#5c5c5c"/><path d="M124.9492,103.3437a1.9468,1.9468,0,0,0,.5005-.1094.376.376,0,0,0,.27-.3555.4222.4222,0,0,0-.207-.4072,1.3164,1.3164,0,0,0-.6084-.1123.7976.7976,0,0,0-.6367.2207.9006.9006,0,0,0-.1783.4395h-1.2084a1.8322,1.8322,0,0,1,.353-1.0332,2.0585,2.0585,0,0,1,1.7124-.6329,3.0551,3.0551,0,0,1,1.4038.3125,1.1971,1.1971,0,0,1,.6133,1.1778v2.1972c0,.1524.0029.337.0088.5528a.6906.6906,0,0,0,.0747.334.4426.4426,0,0,0,.1845.1455v.1845h-1.3623a1.3967,1.3967,0,0,1-.0791-.2724q-.0219-.1275-.0351-.29a2.5666,2.5666,0,0,1-.6011.4786,1.8173,1.8173,0,0,1-.9194.2334,1.5884,1.5884,0,0,1-1.0806-.3711,1.3211,1.3211,0,0,1-.4268-1.0528,1.3629,1.3629,0,0,1,.6861-1.2783,3.0834,3.0834,0,0,1,1.1069-.3086Zm.7661.5849a1.422,1.422,0,0,1-.2426.1211,2.0241,2.0241,0,0,1-.3365.085l-.2851.0527a1.9037,1.9037,0,0,0-.5757.1719.5723.5723,0,0,0-.2959.5313.5535.5535,0,0,0,.1807.4638.6848.6848,0,0,0,.4394.1436,1.31,1.31,0,0,0,.7564-.2383,1.0042,1.0042,0,0,0,.3593-.8652Z" fill="#5c5c5c"/><path d="M127.4307,102.4042v-.8926h.6679v-1.3359h1.2393v1.3359h.7778v.8926h-.7778v2.5313a.5666.5666,0,0,0,.0747.3662.8158.8158,0,0,0,.457.0732c.0381,0,.0781-.001.1211-.0029s.084-.0029.125-.0068v.9365l-.5932.0224a1.5918,1.5918,0,0,1-1.2129-.3085.9128.9128,0,0,1-.211-.6631v-2.9483Z" fill="#5c5c5c"/><path d="M132.0327,101.4677v2.8877a1.5234,1.5234,0,0,0,.0962.6152.6651.6651,0,0,0,.6689.3643.8739.8739,0,0,0,.8746-.5186,1.8882,1.8882,0,0,0,.1225-.7422v-2.6064h1.27v4.79h-1.2172v-.6767c-.0118.0146-.0411.0586-.0875.1318a.89.89,0,0,1-.1665.1934,1.7385,1.7385,0,0,1-.5678.36,1.9277,1.9277,0,0,1-.6421.0967,1.43,1.43,0,0,1-1.4282-.7646,2.9247,2.9247,0,0,1-.2061-1.2432v-2.8877Z" fill="#5c5c5c"/><path d="M138.8081,101.3554c.0161.0019.0522.0039.1079.0068v1.2832q-.1186-.0132-.2109-.0175c-.0616-.003-.1114-.0049-.1494-.0049a1.0405,1.0405,0,0,0-1.0152.4922,1.9219,1.9219,0,0,0-.145.8535v2.289h-1.2612v-4.79H137.33v.835a2.64,2.64,0,0,1,.5054-.6543,1.3757,1.3757,0,0,1,.914-.295C138.7725,101.3534,138.792,101.3544,138.8081,101.3554Z" fill="#5c5c5c"/><path d="M142.6362,101.5644a1.9588,1.9588,0,0,1,.8277.709,2.3456,2.3456,0,0,1,.3813.99,6.0922,6.0922,0,0,1,.0415.9512h-3.4888a1.148,1.148,0,0,0,.501,1.01,1.264,1.264,0,0,0,.69.1807,1.06,1.06,0,0,0,.6954-.22,1.0455,1.0455,0,0,0,.2578-.33h1.2788a1.5618,1.5618,0,0,1-.4644.8662,2.3278,2.3278,0,0,1-1.8022.6982,2.6121,2.6121,0,0,1-1.687-.5888,2.3219,2.3219,0,0,1-.731-1.918,2.5921,2.5921,0,0,1,.66-1.9082,2.3079,2.3079,0,0,1,1.7129-.665A2.7332,2.7332,0,0,1,142.6362,101.5644Zm-1.874,1.082a1.3031,1.3031,0,0,0-.3335.7422h2.1577a1.0476,1.0476,0,0,0-.3335-.7578,1.0986,1.0986,0,0,0-.7431-.2578A.9931.9931,0,0,0,140.7622,102.6464Z" fill="#5c5c5c"/><path d="M151.5581,99.78v1.1475H149.62v5.33h-1.3623v-5.33H146.311V99.78Z" fill="#5c5c5c"/><path d="M153.4009,100.8964h-1.27V99.74h1.27Zm-1.27.5713h1.27v4.79h-1.27Z" fill="#5c5c5c"/><path d="M153.9863,102.4042v-.8926h.668v-1.3359h1.2392v1.3359h.7779v.8926h-.7779v2.5313a.5664.5664,0,0,0,.0748.3662.8158.8158,0,0,0,.457.0732c.0381,0,.0781-.001.1211-.0029s.084-.0029.125-.0068v.9365l-.5933.0224a1.5918,1.5918,0,0,1-1.2129-.3085.9133.9133,0,0,1-.2109-.6631v-2.9483Z" fill="#5c5c5c"/><path d="M158.62,106.2577h-1.2524V99.78H158.62Z" fill="#5c5c5c"/><path d="M162.8276,101.5644a1.9588,1.9588,0,0,1,.8277.709,2.3456,2.3456,0,0,1,.3813.99,6.0922,6.0922,0,0,1,.0415.9512h-3.4888a1.148,1.148,0,0,0,.501,1.01,1.2641,1.2641,0,0,0,.69.1807,1.06,1.06,0,0,0,.6953-.22,1.0455,1.0455,0,0,0,.2578-.33h1.2788a1.5618,1.5618,0,0,1-.4644.8662,2.3278,2.3278,0,0,1-1.8022.6982,2.6121,2.6121,0,0,1-1.687-.5888,2.3219,2.3219,0,0,1-.731-1.918,2.5921,2.5921,0,0,1,.66-1.9082,2.3079,2.3079,0,0,1,1.7129-.665A2.7332,2.7332,0,0,1,162.8276,101.5644Zm-1.874,1.082a1.3031,1.3031,0,0,0-.3335.7422h2.1577a1.0476,1.0476,0,0,0-.3335-.7578,1.0986,1.0986,0,0,0-.7431-.2578A.9933.9933,0,0,0,160.9536,102.6464Z" fill="#5c5c5c"/></g><g clip-path="url(#h)"><line x1="111.3308" y1="119.7832" x2="165.1743" y2="120.0379" fill="none" stroke="#5c5c5c" stroke-linecap="square" stroke-miterlimit="10"/><line x1="111.8257" y1="114.5089" x2="165.6692" y2="114.7637" fill="none" stroke="#5c5c5c" stroke-linecap="square" stroke-miterlimit="10"/><line x1="111.3308" y1="124.8785" x2="165.1743" y2="125.1333" fill="none" stroke="#5c5c5c" stroke-linecap="square" stroke-miterlimit="10"/></g><g clip-path="url(#j)"><g clip-path="url(#k)"><rect x="198.8969" y="129.1735" width="55.98" height="18.0465"/></g></g><g clip-path="url(#l)"><path d="M201.89,99.789h4.6187v1.1387h-3.274v1.4892h2.87v1.125h-2.87v2.7158H201.89Z" fill="#5c5c5c"/><path d="M210.273,101.5644a1.9588,1.9588,0,0,1,.8277.709,2.347,2.347,0,0,1,.3813.99,6.0922,6.0922,0,0,1,.0415.9512h-3.4888a1.148,1.148,0,0,0,.501,1.01,1.264,1.264,0,0,0,.69.1807,1.06,1.06,0,0,0,.6954-.22,1.0469,1.0469,0,0,0,.2578-.33h1.2788a1.5618,1.5618,0,0,1-.4644.8662,2.3278,2.3278,0,0,1-1.8022.6982,2.6121,2.6121,0,0,1-1.687-.5888,2.3219,2.3219,0,0,1-.731-1.918,2.5921,2.5921,0,0,1,.66-1.9082,2.3079,2.3079,0,0,1,1.7129-.665A2.7335,2.7335,0,0,1,210.273,101.5644Zm-1.874,1.082a1.3031,1.3031,0,0,0-.3335.7422h2.1577a1.0476,1.0476,0,0,0-.3335-.7578,1.0986,1.0986,0,0,0-.7431-.2578A.9931.9931,0,0,0,208.399,102.6464Z" fill="#5c5c5c"/><path d="M213.9185,103.3437a1.9468,1.9468,0,0,0,.5005-.1094.376.376,0,0,0,.27-.3555.4222.4222,0,0,0-.207-.4072,1.3164,1.3164,0,0,0-.6084-.1123.7976.7976,0,0,0-.6367.2207.9.9,0,0,0-.1782.4395H211.85a1.8322,1.8322,0,0,1,.353-1.0332,2.0585,2.0585,0,0,1,1.7124-.6329,3.0548,3.0548,0,0,1,1.4038.3125,1.1971,1.1971,0,0,1,.6133,1.1778v2.1972c0,.1524.0029.337.0088.5528a.6906.6906,0,0,0,.0747.334.4423.4423,0,0,0,.1846.1455v.1845h-1.3624a1.4037,1.4037,0,0,1-.0791-.2724q-.0219-.1275-.0351-.29a2.5646,2.5646,0,0,1-.6011.4786,1.8173,1.8173,0,0,1-.9194.2334,1.5884,1.5884,0,0,1-1.0806-.3711,1.3211,1.3211,0,0,1-.4267-1.0528,1.3629,1.3629,0,0,1,.686-1.2783,3.0834,3.0834,0,0,1,1.1069-.3086Zm.7661.5849a1.4183,1.4183,0,0,1-.2426.1211,2.0241,2.0241,0,0,1-.3365.085l-.2851.0527a1.9037,1.9037,0,0,0-.5757.1719.5723.5723,0,0,0-.2959.5313.5538.5538,0,0,0,.1807.4638.685.685,0,0,0,.4394.1436,1.31,1.31,0,0,0,.7564-.2383,1.0042,1.0042,0,0,0,.3593-.8652Z" fill="#5c5c5c"/><path d="M216.4,102.4042v-.8926h.6679v-1.3359h1.2393v1.3359h.7778v.8926h-.7778v2.5313a.5666.5666,0,0,0,.0747.3662.816.816,0,0,0,.457.0732c.0381,0,.0782-.001.1211-.0029s.084-.0029.125-.0068v.9365l-.5932.0224a1.5918,1.5918,0,0,1-1.2129-.3085.9133.9133,0,0,1-.211-.6631v-2.9483Z" fill="#5c5c5c"/><path d="M221.002,101.4677v2.8877a1.5234,1.5234,0,0,0,.0962.6152.6652.6652,0,0,0,.669.3643.8738.8738,0,0,0,.8745-.5186,1.8882,1.8882,0,0,0,.1225-.7422v-2.6064h1.27v4.79H222.817v-.6767c-.0118.0146-.0411.0586-.0874.1318a.8955.8955,0,0,1-.1665.1934,1.7389,1.7389,0,0,1-.5679.36,1.9277,1.9277,0,0,1-.6421.0967,1.43,1.43,0,0,1-1.4282-.7646,2.9247,2.9247,0,0,1-.2061-1.2432v-2.8877Z" fill="#5c5c5c"/><path d="M227.7774,101.3554c.0161.0019.0523.0039.1079.0068v1.2832q-.1187-.0132-.2109-.0175c-.0615-.003-.1113-.0049-.1494-.0049a1.0405,1.0405,0,0,0-1.0152.4922,1.9233,1.9233,0,0,0-.145.8535v2.289h-1.2612v-4.79h1.1953v.835a2.6422,2.6422,0,0,1,.5054-.6543,1.3757,1.3757,0,0,1,.914-.295C227.7418,101.3534,227.7613,101.3544,227.7774,101.3554Z" fill="#5c5c5c"/><path d="M231.6055,101.5644a1.9588,1.9588,0,0,1,.8277.709,2.3456,2.3456,0,0,1,.3813.99,6.0922,6.0922,0,0,1,.0415.9512h-3.4887a1.1477,1.1477,0,0,0,.5009,1.01,1.2641,1.2641,0,0,0,.69.1807,1.06,1.06,0,0,0,.6953-.22,1.0455,1.0455,0,0,0,.2578-.33h1.2788a1.5618,1.5618,0,0,1-.4644.8662,2.3276,2.3276,0,0,1-1.8022.6982,2.6121,2.6121,0,0,1-1.687-.5888,2.3219,2.3219,0,0,1-.731-1.918,2.5925,2.5925,0,0,1,.66-1.9082,2.3079,2.3079,0,0,1,1.7129-.665A2.7332,2.7332,0,0,1,231.6055,101.5644Zm-1.874,1.082a1.3038,1.3038,0,0,0-.3335.7422h2.1577a1.0476,1.0476,0,0,0-.3335-.7578,1.0986,1.0986,0,0,0-.7431-.2578A.9933.9933,0,0,0,229.7315,102.6464Z" fill="#5c5c5c"/><path d="M240.5274,99.78v1.1475h-1.938v5.33h-1.3623v-5.33H235.28V99.78Z" fill="#5c5c5c"/><path d="M242.37,100.8964H241.1V99.74h1.27Zm-1.27.5713h1.27v4.79H241.1Z" fill="#5c5c5c"/><path d="M242.9556,102.4042v-.8926h.668v-1.3359h1.2393v1.3359h.7778v.8926h-.7778v2.5313a.5666.5666,0,0,0,.0747.3662.8158.8158,0,0,0,.457.0732c.0381,0,.0781-.001.1211-.0029s.084-.0029.125-.0068v.9365l-.5933.0224a1.5918,1.5918,0,0,1-1.2129-.3085.9133.9133,0,0,1-.2109-.6631v-2.9483Z" fill="#5c5c5c"/><path d="M247.5889,106.2577h-1.2524V99.78h1.2524Z" fill="#5c5c5c"/><path d="M251.7969,101.5644a1.9588,1.9588,0,0,1,.8277.709,2.3456,2.3456,0,0,1,.3813.99,6.0922,6.0922,0,0,1,.0415.9512h-3.4887a1.1477,1.1477,0,0,0,.5009,1.01,1.2641,1.2641,0,0,0,.6905.1807,1.06,1.06,0,0,0,.6953-.22,1.0455,1.0455,0,0,0,.2578-.33h1.2788a1.5618,1.5618,0,0,1-.4644.8662,2.3276,2.3276,0,0,1-1.8022.6982,2.6121,2.6121,0,0,1-1.687-.5888,2.3219,2.3219,0,0,1-.731-1.918,2.5925,2.5925,0,0,1,.66-1.9082,2.3079,2.3079,0,0,1,1.7129-.665A2.7332,2.7332,0,0,1,251.7969,101.5644Zm-1.874,1.082a1.3038,1.3038,0,0,0-.3335.7422h2.1577a1.0476,1.0476,0,0,0-.3335-.7578,1.0986,1.0986,0,0,0-.7431-.2578A.9933.9933,0,0,0,249.9229,102.6464Z" fill="#5c5c5c"/></g><g clip-path="url(#l)"><line x1="200.3001" y1="119.7832" x2="254.1436" y2="120.0379" fill="none" stroke="#5c5c5c" stroke-linecap="square" stroke-miterlimit="10"/><line x1="200.795" y1="114.5089" x2="254.6386" y2="114.7637" fill="none" stroke="#5c5c5c" stroke-linecap="square" stroke-miterlimit="10"/><line x1="200.3001" y1="124.8785" x2="254.1436" y2="125.1333" fill="none" stroke="#5c5c5c" stroke-linecap="square" stroke-miterlimit="10"/></g><path d="M231.6094,91.5858h-9.4451a2.5309,2.5309,0,0,1-2.5328-2.5289V79.598a2.5309,2.5309,0,0,1,2.5289-2.5329h9.449a2.5329,2.5329,0,0,1,2.5329,2.5329v9.4569a2.5309,2.5309,0,0,1-2.5309,2.5309Z" fill="none" stroke="#231f20" stroke-miterlimit="10" stroke-width="0.25"/><path d="M225.1618,87.228a1.7223,1.7223,0,0,1-1.2635-1.6609V82.7615A1.5818,1.5818,0,0,1,225.48,81.18h2.8136a1.7222,1.7222,0,0,1,1.7182,1.7182v2.6692a1.7243,1.7243,0,0,1-1.1567,1.6273c-.32.1107-.1977,1.0024-1.8289.9767A2.199,2.199,0,0,1,225.1618,87.228Z" fill="none" stroke="#000" stroke-miterlimit="10" stroke-width="0.25"/><path d="M227.6135,86.4569a2.6921,2.6921,0,0,1-.69.0989,1.218,1.218,0,0,1-1.3841-1.0934,3.6059,3.6059,0,0,1,.67-.1918,1.4687,1.4687,0,0,1,.7256.1858,2.1926,2.1926,0,0,1,.7237-.174,2.9071,2.9071,0,0,1,.71.174,1.1175,1.1175,0,0,1-.3776.8028" fill="none" stroke="#000" stroke-miterlimit="10" stroke-width="0.25"/><line x1="227.5443" y1="82.9295" x2="228.9343" y2="83.3191" fill="none" stroke="#000" stroke-miterlimit="10" stroke-width="0.25"/><path d="M227.42,84.0842a.6288.6288,0,0,1-1.2575.01l-.0118-1.0756-1.305.435" fill="none" stroke="#000" stroke-miterlimit="10" stroke-width="0.25"/><circle cx="228.2086" cy="83.408" r="0.2472"/><circle cx="225.4564" cy="83.408" r="0.2472"/><path d="M222.8939,85.5019a1.6289,1.6289,0,0,0,.3955.257,12.6228,12.6228,0,0,0-.5378,1.7934,2.5667,2.5667,0,0,1-.1424.4251.1977.1977,0,0,1-.1977.1344h-.0158a.2769.2769,0,0,1-.1978-.1977.4682.4682,0,0,1,0-.1661,22.1847,22.1847,0,0,1,.6921-2.2441m0-.1977h-.0337a.1975.1975,0,0,0-.1463.1127c-.1048.2313-.4982,1.467-.7039,2.2757a.6553.6553,0,0,0-.0118.2472.4665.4665,0,0,0,.3954.3638h.03a.3955.3955,0,0,0,.38-.2669c.0138-.0337.0257-.0692.04-.1048a1.8938,1.8938,0,0,0,.1127-.354,12.6026,12.6026,0,0,1,.5359-1.75.1978.1978,0,0,0-.1009-.2491,1.4758,1.4758,0,0,1-.3361-.2155.1974.1974,0,0,0-.1424-.0613Z"/><path d="M223.9992,82.2118l-.0238.0712Z" fill="none"/><path d="M224.278,86.5735c-.0455-.1265-.087-.253-.1246-.3816C224.1989,86.3205,224.24,86.4569,224.278,86.5735Z" fill="none"/><path d="M229.9684,81.8579a.0419.0419,0,0,0,.0158.04h0C229.9783,81.8856,229.9743,81.8717,229.9684,81.8579Z" fill="none"/><path d="M224.4539,86.9967c-.0553-.1266-.1067-.2551-.1542-.3836C224.3472,86.7416,224.3986,86.87,224.4539,86.9967Z" fill="none"/><path d="M229.9842,81.8974a1.0948,1.0948,0,0,1,.0474.1246A1.0948,1.0948,0,0,0,229.9842,81.8974Z"/><path d="M229.7331,82.3245v.0376h0A.05.05,0,0,0,229.7331,82.3245Z" fill="none"/><path d="M224.08,81.9844a1.8445,1.8445,0,0,0-.085.2274A2.2426,2.2426,0,0,1,224.08,81.9844Z" fill="none"/><path d="M224.3,86.6131c0-.0139-.01-.0257-.0138-.04A.261.261,0,0,1,224.3,86.6131Z" fill="none"/><path d="M230.083,82.18h0c-.0158-.0534-.0316-.1068-.0514-.1582C230.0494,82.0734,230.0672,82.1268,230.083,82.18Z"/><path d="M223.6255,82.1505l.03-.0988Z"/><path d="M223.1391,82.2158h0v0Z" fill="none"/><path d="M231.5936,83.1609l.0712.0593A.17.17,0,0,0,231.5936,83.1609Z"/><path d="M224.6734,80.14c1.0894-.0771,1.5462.2155,1.7676,1.1132" fill="none" stroke="#000" stroke-miterlimit="10" stroke-width="0.25"/><path d="M226.2136,79.24c.2551.16.48.4626.5161,1.1863l.0633.7177" fill="none" stroke="#000" stroke-miterlimit="10" stroke-width="0.25"/><path d="M227.2892,81.2529c.2215-.8977.6782-1.1864,1.7677-1.1132l.1977.0376" fill="none" stroke="#000" stroke-miterlimit="10" stroke-width="0.25"/><path d="M227.5285,79.2559c-.261.1542-.4983.4231-.5358,1.1646l-.0633.7177" fill="none" stroke="#000" stroke-miterlimit="10" stroke-width="0.25"/><path d="M225.1894,81.2291a1.1069,1.1069,0,0,0-1.0835-.32" fill="none" stroke="#000" stroke-miterlimit="10" stroke-width="0.25"/><path d="M228.8572,81.2371a1.4353,1.4353,0,0,1,.9411-.2294" fill="none" stroke="#000" stroke-miterlimit="10" stroke-width="0.25"/><path d="M222.9987,86.34a.3092.3092,0,0,1-.0138.0613,10.0616,10.0616,0,0,0-.1978,1.3287c0,.1226-.04.7059-.0336.7909a.6149.6149,0,0,0,.0415.1779.2136.2136,0,0,0,.21.1325.2411.2411,0,0,0,.2136-.1779.3689.3689,0,0,0,.0158-.1226,9.2289,9.2289,0,0,1,.0652-1.3623c.03-.2294.0692-.4587.1108-.6881a.908.908,0,0,1-.3322-.0969A.597.597,0,0,1,222.9987,86.34Z" fill="none"/><path d="M230.84,87.1094c-.04-.2353-.087-.4686-.1344-.7019a.99.99,0,0,1-.4153.0751c.0356.2116.0791.4231.0989.6367.0356.4112.0514.8245.0751,1.2377a2.4485,2.4485,0,0,0,.0119.2748.2352.2352,0,0,0,.2333.1977.247.247,0,0,0,.2234-.1977,2.6442,2.6442,0,0,0,0-.3084,1.0653,1.0653,0,0,1,0-.1384A10.0545,10.0545,0,0,0,230.84,87.1094Z" fill="none"/><path d="M230.84,87.1094c-.04-.2353-.087-.4686-.1344-.7019a.99.99,0,0,1-.4153.0751c.0356.2116.0791.4231.0989.6367.0356.4112.0514.8245.0751,1.2377a2.4485,2.4485,0,0,0,.0119.2748.2352.2352,0,0,0,.2333.1977.247.247,0,0,0,.2234-.1977,2.6442,2.6442,0,0,0,0-.3084,1.0653,1.0653,0,0,1,0-.1384A10.0545,10.0545,0,0,0,230.84,87.1094Z" fill="none"/><path d="M224.6951,87.1608c.0238.0178.0475.0356.0732.0514.1068.0633.1878.1147.3045.18-.0613.2254-.089.4647-.1384.692a9.3974,9.3974,0,0,0-.174,1.3524.4408.4408,0,0,1-.0257.1207.2472.2472,0,0,1-.2175.16h0a.2116.2116,0,0,1-.1977-.15.4993.4993,0,0,1-.0257-.18c0-.087.0889-.6663.0949-.7909a11.6911,11.6911,0,0,1,.2966-1.384.2321.2321,0,0,1,.02-.0593m-.1048-.3223-.083.263v.0217l-.0119.0395a11.38,11.38,0,0,0-.3025,1.4039V88.58c0,.0514-.0257.2215-.0455.3737a3.0638,3.0638,0,0,0-.0771.431.6966.6966,0,0,0,.0376.2492.4112.4112,0,0,0,.3757.2807h.0178a.4409.4409,0,0,0,.3954-.2906.61.61,0,0,0,.0376-.176,9.1273,9.1273,0,0,1,.17-1.3247c.02-.089.0356-.18.0514-.2729.0257-.1423.05-.2768.0831-.4073l.04-.1483-.1325-.0751c-.0771-.0435-.1364-.0791-.1977-.1186l-.087-.0514-.0474-.0317h-.0119l-.2214-.1621Z"/><path d="M230.5813,82.8287a1.8753,1.8753,0,0,1-.0138.2828C230.5754,83.0165,230.5793,82.9236,230.5813,82.8287Zm-.2116.7177h0Z" fill="none"/><path d="M228.5705,86.884a.1859.1859,0,1,1-.3025-.1978c.0672-.0968.2155-.166.3-.1087S228.6377,86.7871,228.5705,86.884Z"/><path d="M226.9274,86.0041l1.4058.9155c.0514.0316.0178-.05.0554-.0969l.1028-.1325c.03-.0376.0929-.0415.0514-.0692l-1.1547-.781" fill="none" stroke="#000" stroke-miterlimit="10" stroke-width="0.25"/><path d="M221.8183,80.13c-.01-.0553-.0178-.1107-.0277-.1641-.0514-.2887-.1008-.5793-.1522-.868L221.51,78.35v-.02c0-.006,0-.0534.0435-.0594l.3519-.0711.65-.1147.0751-.0119a.6365.6365,0,0,1-.1324.5358.68.68,0,0,1-.4943.2492.7914.7914,0,0,0,.0237.1423c.0336.1978.0652.3777.0989.5655s.0692.3955.1028.5932.0751.3954.1008.603a.6444.6444,0,0,1-.0732.3955.7356.7356,0,0,1-1.0894.2689.7021.7021,0,0,1-.2926-.4667.7177.7177,0,0,1,.1819-.6327.7075.7075,0,0,1,.4745-.2352.6837.6837,0,0,1,.2531.02h.0257Z" fill="none" stroke="#000" stroke-miterlimit="10" stroke-width="0.25"/><path d="M226.8325,87.4969s-.1186.7474.433.6683" fill="none" stroke="#000" stroke-miterlimit="10" stroke-width="0.25"/><path d="M225.6126,85.51a10.848,10.848,0,0,0,1.1013.4113.9764.9764,0,0,0,.51,0,6.4722,6.4722,0,0,0,1.06-.3777" fill="none" stroke="#000" stroke-miterlimit="10" stroke-width="0.25"/><path d="M230.091,85.7214a1.3832,1.3832,0,0,0,.5714-.1543.91.91,0,0,0,.5022-.7908v-.66h0v-.0554h0V83.4a.91.91,0,0,0-.5022-.8007,1.3832,1.3832,0,0,0-.5714-.1543,4.93,4.93,0,0,0-.34-1.558,1.6665,1.6665,0,0,0-.2274-.3618,3.0686,3.0686,0,0,0-2.57-1.3465h-.0455a3.07,3.07,0,0,0-2.57,1.3465,1.5787,1.5787,0,0,0-.2254.3618,3.5393,3.5393,0,0,0-.2412,1.5343,1.9351,1.9351,0,0,0-.6723.178.91.91,0,0,0-.5022.7908v.66h0v.0554h0v.66a.91.91,0,0,0,.5022.7909,2.0622,2.0622,0,0,0,.7691.1542" fill="none" stroke="#000" stroke-miterlimit="10" stroke-width="0.25"/><path d="M224.2483,86.6111a21.5714,21.5714,0,0,0-.4805,2.1987.72.72,0,0,1-.0415.1621.2986.2986,0,0,1-.2788.1977.35.35,0,0,1-.2669-.2471.8717.8717,0,0,1-.0119-.2492,5.4181,5.4181,0,0,1,.1523-1.05,18.9772,18.9772,0,0,1,.4666-1.89" fill="none" stroke="#000" stroke-miterlimit="10" stroke-width="0.25"/><path d="M230.8917,85.5019c.091.1977.4825,1.4137.692,2.2441a.3941.3941,0,0,1,0,.1661.2727.2727,0,0,1-.2076.1977H231.36a.1976.1976,0,0,1-.1977-.1344,2.5667,2.5667,0,0,1-.1424-.4251,12.4446,12.4446,0,0,0-.5358-1.7933A1.6322,1.6322,0,0,0,230.88,85.5m0-.1977a.1974.1974,0,0,0-.1424.0613,1.4734,1.4734,0,0,1-.33.2175.1976.1976,0,0,0-.1008.2491,12.51,12.51,0,0,1,.5279,1.7558,1.757,1.757,0,0,0,.1107.3539c.0138.0356.0277.0712.04.1048a.3952.3952,0,0,0,.3776.2649h.0336a.4668.4668,0,0,0,.3955-.3638.6569.6569,0,0,0-.0119-.2471,20.9216,20.9216,0,0,0-.7039-2.2758.1979.1979,0,0,0-.1463-.1127h-.0336Z"/><path d="M229.16,87.1944l.02.0593a10.8942,10.8942,0,0,1,.2965,1.3841c0,.1225.0969.7.0969.7908a.5134.5134,0,0,1-.0277.1819.2093.2093,0,0,1-.1977.1483h0a.2491.2491,0,0,1-.22-.1621.4877.4877,0,0,1-.0257-.1206,9.1721,9.1721,0,0,0-.1739-1.3524c-.0475-.2274-.0633-.3955-.1226-.613a.8126.8126,0,0,1,.2807-.2629l.0732-.0495m.1048-.3222-.2215.1621-.02.0119-.0455.0336a.9892.9892,0,0,0-.35.31l-.0494.0731.0217.087a3.44,3.44,0,0,1,.0732.354c.0138.0771.0277.1581.0474.2491a9.0609,9.0609,0,0,1,.1721,1.3227.6155.6155,0,0,0,.0356.178.4447.4447,0,0,0,.4053.2906h.0178a.4073.4073,0,0,0,.3737-.2787.7019.7019,0,0,0,.04-.2492c0-.0534-.0158-.17-.0494-.4251-.0218-.15-.0435-.3223-.0475-.3737v-.02a11.6557,11.6557,0,0,0-.3025-1.4039l-.0138-.0415v-.0217l-.0831-.261Z"/><path d="M230.0119,85.7411a19.0093,19.0093,0,0,1,.4686,1.89,5.2916,5.2916,0,0,1,.15,1.05.8049.8049,0,0,1-.0257.2491.3459.3459,0,0,1-.2669.2471.3024.3024,0,0,1-.2788-.1977.72.72,0,0,1-.0415-.1621,19.1122,19.1122,0,0,0-.4548-2.0425" fill="none" stroke="#000" stroke-miterlimit="10" stroke-width="0.25"/><path d="M223.3526,82.4787c-.0217-2.4556,1.5284-3.9306,3.5985-3.9306s3.559,1.7122,3.559,4.01" fill="none" stroke="#000" stroke-linejoin="round" stroke-width="0.25"/><path d="M219.73,89.6461a3.373,3.373,0,0,1,2.4478-2.7819l.1581-.03" fill="none" stroke="#000" stroke-linecap="round" stroke-linejoin="round" stroke-width="0.25"/><path d="M234.0889,89.5374a3.2559,3.2559,0,0,0-2.4676-2.6732l-.1582-.03" fill="none" stroke="#000" stroke-linecap="round" stroke-linejoin="round" stroke-width="0.25"/><path d="M225.0451,88.1988a5.5811,5.5811,0,0,0,1.908,1.0519,6.1157,6.1157,0,0,0,1.906-.7909" fill="none" stroke="#000" stroke-linejoin="round" stroke-width="0.25"/><line x1="224.4322" y1="87.7935" x2="223.9932" y2="87.4317" fill="none" stroke="#000" stroke-linejoin="round" stroke-width="0.25"/><line x1="223.4673" y1="86.9809" x2="223.062" y2="86.6427" fill="none" stroke="#000" stroke-linejoin="round" stroke-width="0.25"/><line x1="229.4503" y1="88.1316" x2="229.7805" y2="87.9022" fill="none" stroke="#000" stroke-linejoin="round" stroke-width="0.25"/><line x1="230.4706" y1="87.6314" x2="230.864" y2="87.2932" fill="none" stroke="#000" stroke-linejoin="round" stroke-width="0.25"/><rect x="131.9019" y="76.8199" width="15.01" height="15.6228" rx="3.2628" fill="none" stroke="#231f20" stroke-linecap="round" stroke-miterlimit="10" stroke-width="0.25"/><path d="M142.7993,81.34a4.8882,4.8882,0,1,1-8.5307,3.2548" fill="none" stroke="#231f20" stroke-linecap="round" stroke-miterlimit="10" stroke-width="0.25"/><polyline points="142.697 83.215 142.729 81.252 144.561 81.71" fill="none" stroke="#231f20" stroke-linecap="round" stroke-miterlimit="10" stroke-width="0.25"/><circle cx="139.2552" cy="84.4264" r="2.8148" fill="none" stroke="#231f20" stroke-linecap="round" stroke-miterlimit="10" stroke-width="0.25"/><polyline points="139.227 82.66 139.227 84.426 138.082 85.572" fill="none" stroke="#231f20" stroke-linecap="round" stroke-miterlimit="10" stroke-width="0.25"/><path d="M134.2525,84.5912a4.8119,4.8119,0,0,1,7.08-4.2433" fill="none" stroke="#231f20" stroke-linecap="round" stroke-miterlimit="10" stroke-width="0.25" stroke-dasharray="5 5 5 5 5 5"/></svg>