<svg xmlns="http://www.w3.org/2000/svg" xmlns:xlink="http://www.w3.org/1999/xlink" width="279" height="227" viewBox="0 0 279 227"><defs><clipPath id="a"><rect x="-9.5049" y="-6.3117" width="298.0099" height="240.9983" fill="none"/></clipPath><clipPath id="b"><rect x="30" y="72.3748" width="219" height="84" fill="none"/></clipPath><clipPath id="c"><rect x="30.1056" y="72.4839" width="218.7888" height="83.7818" fill="none"/></clipPath><clipPath id="d"><rect y="10.3748" width="279" height="207" fill="none"/></clipPath><clipPath id="e"><rect x="123.8358" y="72.4839" width="125.0222" height="83.7818" fill="none"/></clipPath><clipPath id="g"><rect x="157.2736" y="97.4128" width="57.3259" height="5.7049" fill="none"/></clipPath><clipPath id="i"><path d="M76.2554,116.5412c.0719-.0849.1259-.1486.1824-.2122q.9479-1.1464,1.8958-2.298c.7449-.9076,1.495-1.8124,2.2246-2.7332.7527-.9474,1.4951-1.9053,2.2143-2.8818.66-.8969,1.2922-1.82,1.9241-2.7412.6628-.9659,1.2613-1.9716,1.8264-3.0012a25.8215,25.8215,0,0,0,1.86-4.1661,15.0018,15.0018,0,0,0,.7295-3.3461,14.122,14.122,0,0,0-.0256-2.9641,11.8678,11.8678,0,0,0-.9094-3.4284,10.6946,10.6946,0,0,0-1.6235-2.6244,11.9063,11.9063,0,0,0-3.4859-2.8128,14.6493,14.6493,0,0,0-3.6375-1.3029,12.0913,12.0913,0,0,0-2.2426-.2972,14.8866,14.8866,0,0,0-4.5161.406,13.5512,13.5512,0,0,0-3.5938,1.417,12.1784,12.1784,0,0,0-2.2837,1.7036A11.4024,11.4024,0,0,0,64.8292,87.79,11.57,11.57,0,0,0,63.3418,93.24a14.7286,14.7286,0,0,0,.5266,4.389,21.84,21.84,0,0,0,1.7263,4.28c.4675.8943.9607,1.7726,1.49,2.63.6063.9712,1.2433,1.9212,1.9009,2.8553s1.3461,1.8468,2.0423,2.7517c.73.942,1.4822,1.8708,2.2323,2.7995.5472.6741,1.1123,1.34,1.67,2.0115.1978.2388.393.4829.5908.7217C75.76,115.9628,76.0011,116.244,76.2554,116.5412Zm9.5869,24.6359c.0514-.4246.0334-12.8327-.0154-13.0185-.3622-.053-18.9606-.0318-19.14.0186-.0488.3636-.0308,12.8035.0232,13Zm3.1828-13.0317c-.0514.3237-.0411,12.83.0077,13.0264h18.84c-.5471-4.3519-1.0943-8.6852-1.6389-13.0264Zm-42.7327.0026q-.8169,6.504-1.6389,13.0211h18.86V128.148Zm39.5859-19.1217h17.9511c-.2158-1.7116-.4316-3.3992-.6423-5.09-.2132-1.7036-.4161-3.4045-.637-5.1054-.2184-1.6877-.4136-3.3781-.6448-5.0578H91.7044c-.0077.1274-.018.2389-.0205.35a14.5379,14.5379,0,0,1-.1824,2.1414,21.3518,21.3518,0,0,1-1.6775,5.5168,33.9226,33.9226,0,0,1-2.2914,4.2378c-.4778.7642-.9864,1.5125-1.5,2.25A.95.95,0,0,0,85.8783,109.0263ZM60.8192,93.808c-.19-.0663-9.9877-.069-10.2112,0q-.9439,7.515-1.8881,15.0432a1.06,1.06,0,0,0,0,.1273.04.04,0,0,0,.01.0239.1951.1951,0,0,0,.0257.0292.6986.6986,0,0,0,.09.0106H66.55a.3374.3374,0,0,0,.0745-.0132c.0051-.0027.0128-.0107.0205-.016.0052-.0053.01-.0132.0232-.0265a.952.952,0,0,0-.0951-.5917c-.614-.91-1.2253-1.8284-1.8136-2.7545a30.0145,30.0145,0,0,1-1.6081-2.8924A24.1907,24.1907,0,0,1,61.51,98.5155a17.9515,17.9515,0,0,1-.6448-3.7655C60.8475,94.4369,60.8346,94.1211,60.8192,93.808Zm28.2085,18.5273c-.054.276-.0463,12.2888.0077,12.4931.0642.0026.131.0106.1978.0106l16.5382-.0159a.046.046,0,0,0,.0206-.0133c.0051-.0079.0077-.0159.0179-.0318q-.7821-6.2055-1.5644-12.4427Zm-40.747,0c-.5241,4.1768-1.0507,8.3217-1.567,12.48H63.5011c.0565-.3741.0385-12.302-.0154-12.48Zm18.4006,12.4984H85.6137c.0668,0,.1361-.008.2029-.0133.0077-.0026.0129-.0106.0206-.0159a.15.15,0,0,0,.0154-.0212c.0488-.6687.0282-12.2437-.0283-12.4453a.32.32,0,0,0-.0693-.0133c-.858-.0026-1.7135.0027-2.5715-.0054-.1335-.0026-.1952.0744-.2671.1646-.4881.6156-.971,1.2392-1.4643,1.8469q-1.1483,1.4091-2.3068,2.8022c-.6011.7244-1.21,1.4436-1.8136,2.1653-.149.1778-.2928.3662-.4392.544-.203.2441-.4111.4856-.6243.7377-.0745-.0822-.1335-.1406-.19-.207-.5754-.6979-1.1508-1.4011-1.7314-2.099-.55-.6633-1.1071-1.3268-1.662-1.9875-.17-.207-.3468-.4087-.5138-.6156q-1.287-1.5961-2.5637-3.1949a.3649.3649,0,0,0-.3237-.1567c-.7989.0054-1.5952.0028-2.3941.0028-.0642,0-.131.0106-.2081.0185Z" fill="none" clip-rule="evenodd"/></clipPath><clipPath id="k"><path d="M76.2543,116.54c-.2543-.2972-.4932-.5758-.7321-.8624-.1978-.2388-.393-.4829-.5934-.7191-.5548-.6713-1.12-1.3374-1.67-2.0141-.75-.9287-1.5028-1.8548-2.23-2.7995-.6987-.9049-1.3846-1.815-2.0422-2.7517-.66-.9341-1.2973-1.8841-1.9009-2.8553-.5292-.8544-1.025-1.7328-1.49-2.627A21.7705,21.7705,0,0,1,63.87,97.6284a14.5548,14.5548,0,0,1-.5267-4.389,11.3512,11.3512,0,0,1,3.45-7.982,12.2092,12.2092,0,0,1,2.2837-1.7009,13.5737,13.5737,0,0,1,3.5964-1.42,14.96,14.96,0,0,1,4.5134-.406,12.0912,12.0912,0,0,1,2.2427.2972,14.617,14.617,0,0,1,3.6374,1.3056,11.94,11.94,0,0,1,3.4885,2.81,10.6586,10.6586,0,0,1,1.6235,2.627,11.9214,11.9214,0,0,1,.9068,3.4285,14.2925,14.2925,0,0,1,.0283,2.964,15.1523,15.1523,0,0,1-.73,3.3435,26.1885,26.1885,0,0,1-1.8624,4.1688c-.5651,1.0269-1.1637,2.0326-1.8264,3.0012-.632.9181-1.2613,1.8416-1.9241,2.7411-.7167.9739-1.4591,1.9318-2.2118,2.8818-.73.9182-1.48,1.823-2.2246,2.7306q-.9479,1.1543-1.8984,2.298c-.0539.0663-.11.1273-.1824.2122m7.9249-21.8548c-.0334-.2919-.0642-.7828-.1413-1.2684a8.3754,8.3754,0,0,0-2.2143-4.4846,7.7867,7.7867,0,0,0-1.7365-1.3639,6.9752,6.9752,0,0,0-2.7256-.9474,7.5307,7.5307,0,0,0-5.4048,1.2631,8.16,8.16,0,0,0-2.5021,2.7491,8.6842,8.6842,0,0,0,.8837,9.7466,7.4626,7.4626,0,0,0,2.4738,1.98,7.9685,7.9685,0,0,0,2.669.8041,6.965,6.965,0,0,0,2.6459-.21,8.0294,8.0294,0,0,0,2.8643-1.417,8.4292,8.4292,0,0,0,2.3608-2.98,9.0714,9.0714,0,0,0,.8271-3.8715" fill="none" clip-rule="evenodd"/></clipPath><clipPath id="m"><path d="M85.8423,141.1776H66.71c-.054-.1963-.072-12.6363-.0232-13,.18-.05,18.7783-.0716,19.14-.0185.0488.1857.0668,12.5938.0154,13.0184" fill="none" clip-rule="evenodd"/></clipPath><clipPath id="o"><path d="M89.0259,128.1454h17.2087c.5446,4.3412,1.0917,8.6745,1.6389,13.0264h-18.84c-.0514-.1964-.0617-12.7027-.0077-13.0264" fill="none" clip-rule="evenodd"/></clipPath><clipPath id="q"><path d="M46.2911,128.148H63.5126v13.0211h-18.86q.8246-6.5277,1.6389-13.0211" fill="none" clip-rule="evenodd"/></clipPath><clipPath id="s"><path d="M85.8775,109.0263a.9416.9416,0,0,1,.1567-.7563c.5138-.735,1.02-1.486,1.5-2.25a34.063,34.063,0,0,0,2.2888-4.2351,21.302,21.302,0,0,0,1.6775-5.52,14.54,14.54,0,0,0,.185-2.1414c.0025-.1114.0128-.2229.02-.35h10.1983c.2312,1.68.4264,3.37.6448,5.0578.2209,1.7009.4239,3.4018.6371,5.1054.2106,1.69.4264,3.378.6422,5.09Z" fill="none" clip-rule="evenodd"/></clipPath><clipPath id="u"><path d="M60.8187,93.807c.0154.3131.0308.6289.0488.942a17.5576,17.5576,0,0,0,.6448,3.7654,24.1773,24.1773,0,0,0,1.6389,4.2325,30.5747,30.5747,0,0,0,1.6081,2.8924c.5908.9287,1.2,1.8442,1.8136,2.7544a.9573.9573,0,0,1,.095.5944c-.0128.0133-.0154.0212-.02.0239a.1226.1226,0,0,1-.0231.0159.3374.3374,0,0,1-.0745.0133H48.8453a.617.617,0,0,1-.0873-.0106c-.018-.016-.0232-.0213-.0283-.0266a.04.04,0,0,1-.01-.0239,1.1053,1.1053,0,0,1,0-.13q.9441-7.5268,1.8881-15.0431c.2235-.0664,10.0211-.0637,10.2112,0" fill="none" clip-rule="evenodd"/></clipPath><clipPath id="w"><path d="M89.0284,112.3353h15.2179q.7822,6.2332,1.5644,12.44c-.0128.0186-.0154.0266-.02.0345-.0052.0053-.0129.0133-.018.0133l-16.5383.0159c-.0667,0-.1361-.008-.1978-.0106-.0565-.2043-.0616-12.2171-.0077-12.4931" fill="none" clip-rule="evenodd"/></clipPath><clipPath id="y"><path d="M48.2807,112.3353h15.205c.0539.1778.0719,12.1057.0154,12.48H46.7137c.5163-4.1581,1.0429-8.303,1.567-12.48" fill="none" clip-rule="evenodd"/></clipPath><clipPath id="aa"><path d="M66.6813,124.8337V112.3406c.0771-.0079.1439-.0185.2081-.0185.7989,0,1.5952.0026,2.3941-.0028a.3649.3649,0,0,1,.3237.1567q1.2754,1.6,2.5637,3.1949c.167.2069.3442.4086.5138.6156.5549.6607,1.1123,1.3242,1.662,1.9875.5806.6979,1.156,1.4011,1.7314,2.099.0566.0664.1156.1248.19.207.2132-.2521.4213-.4936.6243-.7377.1464-.1778.29-.3662.4392-.544.6037-.7217,1.2125-1.4409,1.8136-2.1653q1.156-1.3971,2.3068-2.8022c.4933-.6077.9762-1.2313,1.4643-1.8469.0719-.09.1336-.1672.2671-.1646.858.0081,1.7135.0028,2.5715.0054a.32.32,0,0,1,.0693.0133c.0565.2016.0771,11.7766.0283,12.4453a.15.15,0,0,1-.0154.0212c-.0077.0053-.0129.0133-.0206.0159-.0668.0053-.1361.0133-.2029.0133Z" fill="none" clip-rule="evenodd"/></clipPath><clipPath id="ac"><path d="M84.1782,94.6866a9.0408,9.0408,0,0,1-.8272,3.8716,8.4,8.4,0,0,1-2.3607,2.98,8.1194,8.1194,0,0,1-2.8643,1.417,6.9576,6.9576,0,0,1-2.6433.21,7.9562,7.9562,0,0,1-2.6691-.8067,7.4286,7.4286,0,0,1-2.4737-1.9769,8.6833,8.6833,0,0,1-.8863-9.7492,8.1326,8.1326,0,0,1,2.5046-2.7465A7.5232,7.5232,0,0,1,77.3605,86.62a7.0068,7.0068,0,0,1,2.7281.95,7.6993,7.6993,0,0,1,1.734,1.364A8.3877,8.3877,0,0,1,84.04,93.4182c.0745.4856.1079.9739.1387,1.2684M71.48,94.7477a5.2029,5.2029,0,0,0,1.96,4.1793,4.3558,4.3558,0,0,0,2.8951.9606,4.479,4.479,0,0,0,3.1674-1.3347,4.9359,4.9359,0,0,0,.94-1.2631,5.1246,5.1246,0,0,0,.4881-3.4576,4.783,4.783,0,0,0-2.6-3.4921,4.3661,4.3661,0,0,0-4.4877.2043,4.7858,4.7858,0,0,0-1.6467,1.68,5.0773,5.0773,0,0,0-.7168,2.5236" fill="none" clip-rule="evenodd"/></clipPath><clipPath id="af"><path d="M71.48,94.7477a5.0773,5.0773,0,0,1,.7168-2.5236,4.7858,4.7858,0,0,1,1.6467-1.68,4.3661,4.3661,0,0,1,4.4877-.2043,4.783,4.783,0,0,1,2.6,3.4921,5.1246,5.1246,0,0,1-.4881,3.4576,4.9359,4.9359,0,0,1-.94,1.2631,4.479,4.479,0,0,1-3.1674,1.3347A4.3558,4.3558,0,0,1,73.44,98.927a5.2029,5.2029,0,0,1-1.96-4.1793" fill="none" clip-rule="evenodd"/></clipPath><clipPath id="ah"><rect x="173" y="129.3748" width="28.98" height="8.0465" rx="4" fill="none"/></clipPath><clipPath id="aj"><rect x="161" y="117.3748" width="53" height="32" fill="none"/></clipPath><clipPath id="al"><rect x="173" y="129.3748" width="29" height="9" fill="none"/></clipPath></defs><g clip-path="url(#a)"><rect x="-16.9819" y="-20.2827" width="324.7133" height="265.4474" fill="#eee"/></g><g clip-path="url(#b)"><rect x="25" y="67.3748" width="229" height="94" fill="#fefefe"/></g><g clip-path="url(#c)"><rect x="25.1056" y="67.4839" width="228.7888" height="93.7818" fill="#e1e1e1"/></g><g clip-path="url(#d)"><rect x="30.1056" y="72.4839" width="218.7888" height="83.7818" fill="none" stroke="#e1e1e1" stroke-miterlimit="10" stroke-width="1.1495"/></g><g clip-path="url(#e)"><rect x="118.8358" y="67.4839" width="135.0221" height="93.7818" fill="#fff"/></g><g clip-path="url(#d)"><line x1="161.8586" y1="116.3748" x2="211.1622" y2="116.3748" fill="none" stroke="#121212" stroke-miterlimit="10"/><line x1="161.8586" y1="109.3748" x2="211.1622" y2="109.3748" fill="none" stroke="#121212" stroke-miterlimit="10"/></g><g clip-path="url(#g)"><g clip-path="url(#d)"><rect x="152.2723" y="92.3885" width="67.3298" height="15.7534" fill="#121212"/></g></g><g clip-path="url(#i)"><g clip-path="url(#d)"><rect x="39.6535" y="76.7096" width="73.2192" height="69.4675" fill="#fefefe"/></g></g><g clip-path="url(#k)"><g clip-path="url(#d)"><rect x="58.336" y="76.7098" width="35.8419" height="44.8306" fill="#731012"/></g></g><g clip-path="url(#m)"><g clip-path="url(#d)"><rect x="61.658" y="123.1282" width="29.2152" height="23.0494" fill="#819fb3"/></g></g><g clip-path="url(#o)"><g clip-path="url(#d)"><rect x="83.99" y="123.1454" width="28.8835" height="23.0264" fill="#819fb3"/></g></g><g clip-path="url(#q)"><g clip-path="url(#d)"><rect x="39.6522" y="123.148" width="28.8604" height="23.0211" fill="#819fb3"/></g></g><g clip-path="url(#s)"><g clip-path="url(#d)"><rect x="80.8586" y="88.7735" width="27.97" height="25.2528" fill="#819fb3"/></g></g><g clip-path="url(#u)"><g clip-path="url(#d)"><rect x="43.7172" y="88.7582" width="27.9544" height="25.283" fill="#819fb3"/></g></g><g clip-path="url(#w)"><g clip-path="url(#d)"><rect x="83.9907" y="107.3353" width="26.82" height="22.5037" fill="#819fb3"/></g></g><g clip-path="url(#y)"><g clip-path="url(#d)"><rect x="41.7137" y="107.3353" width="26.822" height="22.4798" fill="#819fb3"/></g></g><g clip-path="url(#aa)"><g clip-path="url(#d)"><rect x="61.6813" y="107.3192" width="29.1987" height="22.5145" fill="#819fb3"/></g></g><g clip-path="url(#ac)"><g clip-path="url(#d)"><rect x="63.3559" y="81.5475" width="25.8223" height="26.659" fill="#fff"/></g></g><g clip-path="url(#d)"><path d="M84.1782,94.6866a9.0408,9.0408,0,0,1-.8272,3.8716,8.4,8.4,0,0,1-2.3607,2.98,8.1194,8.1194,0,0,1-2.8643,1.417,6.9576,6.9576,0,0,1-2.6433.21,7.9555,7.9555,0,0,1-2.6691-.8067,7.43,7.43,0,0,1-2.4738-1.9769,8.6835,8.6835,0,0,1-.8862-9.7492,8.1326,8.1326,0,0,1,2.5046-2.7465A7.5225,7.5225,0,0,1,77.3605,86.62a7.0051,7.0051,0,0,1,2.7281.95,7.7022,7.7022,0,0,1,1.734,1.364A8.3877,8.3877,0,0,1,84.04,93.4182c.0745.4856.1079.9739.1387,1.2684M71.48,94.7477a5.2029,5.2029,0,0,0,1.96,4.1793,4.3564,4.3564,0,0,0,2.8951.9607,4.48,4.48,0,0,0,3.1674-1.3348,4.9359,4.9359,0,0,0,.94-1.2631,5.1246,5.1246,0,0,0,.4881-3.4576,4.783,4.783,0,0,0-2.6-3.4921,4.3663,4.3663,0,0,0-4.4878.2043,4.7864,4.7864,0,0,0-1.6466,1.68,5.0773,5.0773,0,0,0-.7168,2.5236" fill="none" stroke="#819fb3" stroke-miterlimit="10" stroke-width="1.1495"/></g><g clip-path="url(#af)"><g clip-path="url(#d)"><rect x="66.4802" y="84.8164" width="19.5593" height="20.0725" fill="#819fb3"/></g></g><g clip-path="url(#ah)"><g clip-path="url(#d)"><g style="isolation:isolate"><g clip-path="url(#aj)"><g clip-path="url(#ah)"><g clip-path="url(#al)"><rect x="173" y="129.3748" width="28.98" height="8.0465" rx="4" fill="#121212"/></g></g><g clip-path="url(#al)"><rect x="173" y="129.3748" width="28.98" height="8.0465" rx="4" fill="none" stroke="#121212" stroke-miterlimit="10" stroke-width="2.299"/></g></g></g></g></g></svg>