<svg xmlns="http://www.w3.org/2000/svg" xmlns:xlink="http://www.w3.org/1999/xlink" width="279" height="227" viewBox="0 0 279 227"><defs><clipPath id="a"><rect x="-7.9397" y="-7.3311" width="294.8794" height="241.6622" fill="none"/></clipPath></defs><g clip-path="url(#a)"><rect x="-13.2243" y="-31.8167" width="305.4486" height="290.6333" fill="#dfdfdf"/></g><rect x="27.4371" y="102.4836" width="14.774" height="15.3772" rx="3.2115" fill="none" stroke="#231f20" stroke-linecap="round" stroke-miterlimit="10" stroke-width="0.25"/><path d="M37.5818,115.8477a1.105,1.105,0,0,1-.5557.1483h-4.311a1.1133,1.1133,0,0,1-1.1133-1.1133v-9.5554a1.1134,1.1134,0,0,1,1.1133-1.1114h4.313a1.1134,1.1134,0,0,1,1.1133,1.1114v7.6035" fill="none" stroke="#000" stroke-miterlimit="10" stroke-width="0.25"/><circle cx="33.8937" cy="105.1216" r="0.2155" fill="none" stroke="#000" stroke-miterlimit="10" stroke-width="0.25"/><line x1="34.4949" y1="105.1216" x2="36.1441" y2="105.1216" fill="none" stroke="#000" stroke-linecap="round" stroke-miterlimit="10" stroke-width="0.25"/><polyline points="36.292 113.069 32.106 113.069 32.106 105.952 37.633 105.952 37.633 112.27" fill="none" stroke="#000" stroke-miterlimit="10" stroke-width="0.25"/><circle cx="34.8706" cy="114.499" r="0.7515" fill="none" stroke="#000" stroke-miterlimit="10" stroke-width="0.25"/><path d="M39.5989,110.0971l-1.4555-2.5708v5.4975l-1.5108-2.0883a.791.791,0,0,0-1.1865,1.0145l1.6749,2.27c-.0613.31-.2768,1.79,1.2261,1.79h1.45v-5.2186A1.4079,1.4079,0,0,0,39.5989,110.0971Z" fill="none" stroke="#000" stroke-miterlimit="10" stroke-width="0.25"/><path d="M35.6952,112.2723H33.696a.6307.6307,0,0,1-.6229-.6386v-1.3092a.6306.6306,0,0,1,.6229-.6229h2.3433a.6309.6309,0,0,1,.6309.6308v.74" fill="none" stroke="#000" stroke-miterlimit="10" stroke-width="0.25"/><line x1="33.6446" y1="111.507" x2="35.3017" y2="111.507" fill="none" stroke="#000" stroke-miterlimit="10" stroke-width="0.25"/><line x1="33.6881" y1="110.451" x2="36.0077" y2="110.451" fill="none" stroke="#000" stroke-miterlimit="10" stroke-width="0.25"/><line x1="34.4178" y1="108.0958" x2="36.2213" y2="108.0958" fill="none" stroke="#000" stroke-miterlimit="10" stroke-width="0.25"/><line x1="34.4494" y1="107.4353" x2="36.2213" y2="107.4353" fill="none" stroke="#000" stroke-miterlimit="10" stroke-width="0.25"/><path d="M36.2252,106.7926h-1.73a.4469.4469,0,0,0-.4469.443l-.0119.884-.3955,1.0144.9611-.4706,1.6354-.0139a.4449.4449,0,0,0,.4449-.4449v-.9631a.4488.4488,0,0,0-.4488-.4489Z" fill="none" stroke="#000" stroke-linecap="round" stroke-miterlimit="10" stroke-width="0.25"/><path d="M23.2161,121.8906h2.096v.5167H23.8263v.6759h1.3023v.51H23.8263v1.2324h-.61Z" fill="#5c5c5c"/><path d="M27.0205,122.6963a.8887.8887,0,0,1,.3755.3217,1.0655,1.0655,0,0,1,.1731.4494,2.7645,2.7645,0,0,1,.0188.4316H26.0047a.5211.5211,0,0,0,.2274.4583.5738.5738,0,0,0,.3133.0819.4808.4808,0,0,0,.3155-.1.4737.4737,0,0,0,.117-.15h.58a.7086.7086,0,0,1-.2107.3931,1.0564,1.0564,0,0,1-.8179.3169,1.1856,1.1856,0,0,1-.7655-.2672,1.0537,1.0537,0,0,1-.3317-.87,1.1767,1.1767,0,0,1,.2993-.866,1.0475,1.0475,0,0,1,.7773-.3017A1.2407,1.2407,0,0,1,27.0205,122.6963Zm-.85.491a.5916.5916,0,0,0-.1513.3368h.9792a.4761.4761,0,0,0-.1514-.3439.4987.4987,0,0,0-.3372-.117A.4508.4508,0,0,0,26.17,123.1873Z" fill="#5c5c5c"/><path d="M28.6748,123.5037a.8823.8823,0,0,0,.2271-.05.1706.1706,0,0,0,.1225-.1613.1916.1916,0,0,0-.0939-.1848.597.597,0,0,0-.2761-.051.3619.3619,0,0,0-.2889.1.4082.4082,0,0,0-.0809.1994h-.5484a.831.831,0,0,1,.16-.4689.9343.9343,0,0,1,.7771-.2871,1.3863,1.3863,0,0,1,.637.1418.5431.5431,0,0,1,.2783.5344v.9971q0,.1038.004.2509a.3128.3128,0,0,0,.0339.1515.2.2,0,0,0,.0838.0661v.0837h-.6182a.628.628,0,0,1-.0359-.1236q-.01-.0579-.016-.1316a1.1644,1.1644,0,0,1-.2728.2171.8237.8237,0,0,1-.4172.1059.72.72,0,0,1-.49-.1684.5992.5992,0,0,1-.1936-.4777.6185.6185,0,0,1,.3113-.58,1.3994,1.3994,0,0,1,.5023-.14Zm.3477.2655a.6428.6428,0,0,1-.11.0549.9079.9079,0,0,1-.1526.0386l-.1294.0239a.8624.8624,0,0,0-.2613.078.26.26,0,0,0-.1343.2411.2514.2514,0,0,0,.082.2105.3109.3109,0,0,0,.1994.0651.5943.5943,0,0,0,.3433-.1081.4556.4556,0,0,0,.1631-.3926Z" fill="#5c5c5c"/><path d="M29.8009,123.0774v-.4051h.3031v-.6062h.5624v.6062h.353v.4051h-.353v1.1487a.2571.2571,0,0,0,.0339.1662.3707.3707,0,0,0,.2074.0332c.0173,0,.0354,0,.0549-.0013s.0381-.0014.0568-.0031v.425l-.2693.01a.7227.7227,0,0,1-.55-.14.4144.4144,0,0,1-.0957-.3009v-1.3379Z" fill="#5c5c5c"/><path d="M31.8893,122.6524v1.31a.6921.6921,0,0,0,.0436.2792.3019.3019,0,0,0,.3036.1653.3966.3966,0,0,0,.3969-.2353.8565.8565,0,0,0,.0556-.3368v-1.1828h.5763v2.1737h-.5524v-.3071c-.0053.0067-.0186.0266-.04.06a.4037.4037,0,0,1-.0755.0878.7884.7884,0,0,1-.2577.1635.8741.8741,0,0,1-.2914.0439.6489.6489,0,0,1-.6481-.347,1.3268,1.3268,0,0,1-.0935-.5642v-1.31Z" fill="#5c5c5c"/><path d="M34.964,122.6014c.0073.0009.0237.0018.0489.0031v.5824q-.0539-.006-.0957-.008c-.0279-.0013-.05-.0022-.0678-.0022a.4723.4723,0,0,0-.4607.2233.8737.8737,0,0,0-.0658.3874v1.0387h-.5723v-2.1737h.5424v.3789a1.2,1.2,0,0,1,.2294-.2969.6241.6241,0,0,1,.4148-.1338Z" fill="#5c5c5c"/><path d="M36.7012,122.6963a.89.89,0,0,1,.3756.3217,1.0667,1.0667,0,0,1,.173.4494,2.7645,2.7645,0,0,1,.0188.4316H35.6854a.5211.5211,0,0,0,.2274.4583.5738.5738,0,0,0,.3133.0819.4806.4806,0,0,0,.3155-.1.4709.4709,0,0,0,.117-.15h.58a.7088.7088,0,0,1-.2108.3931,1.0561,1.0561,0,0,1-.8178.3169,1.1857,1.1857,0,0,1-.7656-.2672,1.054,1.054,0,0,1-.3317-.87,1.1763,1.1763,0,0,1,.2994-.866,1.0471,1.0471,0,0,1,.7773-.3017A1.2406,1.2406,0,0,1,36.7012,122.6963Zm-.85.491a.5916.5916,0,0,0-.1513.3368h.9792a.4754.4754,0,0,0-.1514-.3439.4985.4985,0,0,0-.3372-.117A.4508.4508,0,0,0,35.8507,123.1873Z" fill="#5c5c5c"/><path d="M40.75,121.8866v.5207h-.8794v2.4188h-.6182v-2.4188h-.8835v-.5207Z" fill="#5c5c5c"/><path d="M41.5862,122.3932H41.01v-.5248h.5764Zm-.5764.2592h.5764v2.1737H41.01Z" fill="#5c5c5c"/><path d="M41.8519,123.0774v-.4051h.3031v-.6062h.5624v.6062H43.07v.4051h-.3529v1.1487a.2571.2571,0,0,0,.0339.1662.3707.3707,0,0,0,.2074.0332c.0173,0,.0354,0,.0549-.0013s.0381-.0014.0567-.0031v.425l-.2692.01a.7227.7227,0,0,1-.55-.14.4144.4144,0,0,1-.0957-.3009v-1.3379Z" fill="#5c5c5c"/><path d="M43.9545,124.8261h-.5684v-2.9395h.5684Z" fill="#5c5c5c"/><path d="M45.8641,122.6963a.8887.8887,0,0,1,.3755.3217,1.0655,1.0655,0,0,1,.1731.4494,2.7645,2.7645,0,0,1,.0188.4316H44.8483a.5211.5211,0,0,0,.2274.4583.5738.5738,0,0,0,.3133.0819.4808.4808,0,0,0,.3155-.1.4737.4737,0,0,0,.117-.15h.58a.708.708,0,0,1-.2107.3931,1.0563,1.0563,0,0,1-.8178.3169,1.1857,1.1857,0,0,1-.7656-.2672,1.0537,1.0537,0,0,1-.3317-.87,1.1767,1.1767,0,0,1,.2993-.866,1.0475,1.0475,0,0,1,.7773-.3017A1.2407,1.2407,0,0,1,45.8641,122.6963Zm-.8505.491a.5916.5916,0,0,0-.1513.3368h.9792a.4761.4761,0,0,0-.1514-.3439.4987.4987,0,0,0-.3372-.117A.4508.4508,0,0,0,45.0136,123.1873Z" fill="#5c5c5c"/><path d="M76.3168,121.8649h2.0959v.5167H76.927v.6759h1.3022v.51H76.927V124.8h-.61Z" fill="#5c5c5c"/><path d="M80.1211,122.6706a.8884.8884,0,0,1,.3756.3217,1.064,1.064,0,0,1,.173.4494,2.762,2.762,0,0,1,.0189.4316H79.1054a.5208.5208,0,0,0,.2273.4583.5741.5741,0,0,0,.3133.0819.4811.4811,0,0,0,.3156-.1.4737.4737,0,0,0,.117-.15h.58a.7086.7086,0,0,1-.2107.3931,1.0565,1.0565,0,0,1-.8179.3169,1.1859,1.1859,0,0,1-.7656-.2672,1.054,1.054,0,0,1-.3317-.87,1.1763,1.1763,0,0,1,.2994-.866,1.0474,1.0474,0,0,1,.7773-.3018A1.2406,1.2406,0,0,1,80.1211,122.6706Zm-.85.491a.5917.5917,0,0,0-.1514.3368h.9792a.4757.4757,0,0,0-.1513-.3439.4989.4989,0,0,0-.3373-.117A.45.45,0,0,0,79.2707,123.1616Z" fill="#5c5c5c"/><path d="M81.7754,123.478a.8833.8833,0,0,0,.2272-.05.1707.1707,0,0,0,.1225-.1613.1916.1916,0,0,0-.0939-.1848.5973.5973,0,0,0-.2761-.051.362.362,0,0,0-.289.1.41.41,0,0,0-.0809.1994h-.5484a.8325.8325,0,0,1,.16-.4689.9344.9344,0,0,1,.7771-.2871,1.3864,1.3864,0,0,1,.6371.1418.5432.5432,0,0,1,.2783.5344v.9971q0,.1038.004.2509a.3128.3128,0,0,0,.0339.1515.2.2,0,0,0,.0837.0661V124.8h-.6182a.6349.6349,0,0,1-.0359-.1236c-.0066-.0386-.012-.0824-.0159-.1316a1.1644,1.1644,0,0,1-.2728.2171.8241.8241,0,0,1-.4173.1059.7206.7206,0,0,1-.49-.1684.5992.5992,0,0,1-.1937-.4777.6184.6184,0,0,1,.3113-.58,1.3979,1.3979,0,0,1,.5024-.14Zm.3477.2655a.6456.6456,0,0,1-.11.0549.9094.9094,0,0,1-.1527.0386l-.1294.0239a.8616.8616,0,0,0-.2612.078.26.26,0,0,0-.1343.2411.2511.2511,0,0,0,.082.21.3109.3109,0,0,0,.1994.0651.594.594,0,0,0,.3432-.1081.4556.4556,0,0,0,.1631-.3926Z" fill="#5c5c5c"/><path d="M82.9015,123.0517v-.4051h.3032V122.04h.5623v.6062h.353v.4051h-.353V124.2a.2571.2571,0,0,0,.0339.1662.3709.3709,0,0,0,.2074.0332c.0173,0,.0355,0,.055-.0013s.0381-.0014.0567-.0031v.425l-.2692.01a.7226.7226,0,0,1-.55-.14.4144.4144,0,0,1-.0957-.3009v-1.3379Z" fill="#5c5c5c"/><path d="M84.99,122.6267v1.31a.6921.6921,0,0,0,.0437.2792.3018.3018,0,0,0,.3036.1653.3963.3963,0,0,0,.3968-.2353.8565.8565,0,0,0,.0556-.3368v-1.1828h.5764V124.8h-.5524v-.3071c-.0053.0067-.0186.0266-.04.06a.4041.4041,0,0,1-.0756.0878.7873.7873,0,0,1-.2577.1635.8735.8735,0,0,1-.2913.0439.649.649,0,0,1-.6482-.347,1.3268,1.3268,0,0,1-.0935-.5642v-1.31Z" fill="#5c5c5c"/><path d="M88.0646,122.5757c.0073.0009.0237.0018.049.0031v.5824q-.0539-.006-.0957-.008c-.0279-.0013-.05-.0022-.0678-.0022a.4722.4722,0,0,0-.4607.2233.8721.8721,0,0,0-.0658.3873V124.8h-.5724v-2.1737h.5425v.3789a1.2,1.2,0,0,1,.2293-.2969.6243.6243,0,0,1,.4148-.1338Z" fill="#5c5c5c"/><path d="M89.8018,122.6706a.8884.8884,0,0,1,.3756.3217,1.0655,1.0655,0,0,1,.1731.4494,2.7645,2.7645,0,0,1,.0188.4316H88.7861a.5211.5211,0,0,0,.2273.4583.5744.5744,0,0,0,.3134.0819.4808.4808,0,0,0,.3155-.1.4737.4737,0,0,0,.117-.15h.58a.7086.7086,0,0,1-.2107.3931,1.0564,1.0564,0,0,1-.8179.3169,1.1856,1.1856,0,0,1-.7655-.2672,1.0537,1.0537,0,0,1-.3317-.87,1.1767,1.1767,0,0,1,.2993-.866,1.0475,1.0475,0,0,1,.7773-.3018A1.24,1.24,0,0,1,89.8018,122.6706Zm-.85.491a.5916.5916,0,0,0-.1513.3368h.9791a.4757.4757,0,0,0-.1513-.3439.4987.4987,0,0,0-.3373-.117A.45.45,0,0,0,88.9514,123.1616Z" fill="#5c5c5c"/><path d="M93.8506,121.8609v.5207h-.8795V124.8h-.6182v-2.4188H91.47v-.5207Z" fill="#5c5c5c"/><path d="M94.6868,122.3674h-.5763v-.5247h.5763Zm-.5763.2593h.5763V124.8h-.5763Z" fill="#5c5c5c"/><path d="M94.9525,123.0517v-.4051h.3031V122.04h.5624v.6062h.353v.4051h-.353V124.2a.2571.2571,0,0,0,.0339.1662.3709.3709,0,0,0,.2074.0332c.0173,0,.0355,0,.055-.0013s.0381-.0014.0567-.0031v.425l-.2692.01a.7226.7226,0,0,1-.55-.14.4144.4144,0,0,1-.0958-.3009v-1.3379Z" fill="#5c5c5c"/><path d="M97.0551,124.8h-.5683v-2.9395h.5683Z" fill="#5c5c5c"/><path d="M98.9647,122.6706a.8884.8884,0,0,1,.3756.3217,1.0655,1.0655,0,0,1,.1731.4494,2.777,2.777,0,0,1,.0188.4316H97.949a.5208.5208,0,0,0,.2273.4583.5743.5743,0,0,0,.3133.0819.4811.4811,0,0,0,.3156-.1.4737.4737,0,0,0,.117-.15h.58a.7086.7086,0,0,1-.2107.3931,1.0564,1.0564,0,0,1-.8179.3169,1.1859,1.1859,0,0,1-.7656-.2672,1.054,1.054,0,0,1-.3317-.87,1.1763,1.1763,0,0,1,.2994-.866,1.0474,1.0474,0,0,1,.7773-.3018A1.2406,1.2406,0,0,1,98.9647,122.6706Zm-.85.491a.5917.5917,0,0,0-.1514.3368h.9792a.4757.4757,0,0,0-.1513-.3439.4989.4989,0,0,0-.3373-.117A.45.45,0,0,0,98.1143,123.1616Z" fill="#5c5c5c"/><path d="M92.69,118.1116H82.275a2.7906,2.7906,0,0,1-2.7928-2.7884v-10.43A2.7906,2.7906,0,0,1,82.2707,102.1H92.69a2.7928,2.7928,0,0,1,2.7928,2.7928V115.321a2.7906,2.7906,0,0,1-2.7906,2.7906Z" fill="none" stroke="#231f20" stroke-miterlimit="10" stroke-width="0.25"/><path d="M85.58,113.3065a1.8989,1.8989,0,0,1-1.3931-1.8314v-3.0937a1.7441,1.7441,0,0,1,1.7441-1.7441h3.1024a1.8989,1.8989,0,0,1,1.8946,1.8946v2.9432a1.9011,1.9011,0,0,1-1.2754,1.7943c-.3532.1221-.218,1.1054-2.0167,1.077A2.4246,2.4246,0,0,1,85.58,113.3065Z" fill="none" stroke="#000" stroke-miterlimit="10" stroke-width="0.25"/><path d="M88.2836,112.4562a2.9617,2.9617,0,0,1-.7608.109,1.343,1.343,0,0,1-1.5262-1.2056,3.981,3.981,0,0,1,.7391-.2115,1.62,1.62,0,0,1,.8.2049,2.414,2.414,0,0,1,.798-.1918,3.2037,3.2037,0,0,1,.7827.1918,1.232,1.232,0,0,1-.4164.8852" fill="none" stroke="#000" stroke-miterlimit="10" stroke-width="0.25"/><line x1="88.2073" y1="108.5668" x2="89.74" y2="108.9962" fill="none" stroke="#000" stroke-miterlimit="10" stroke-width="0.25"/><path d="M88.07,109.84a.6933.6933,0,0,1-1.3866.0109l-.0131-1.186-1.4389.48" fill="none" stroke="#000" stroke-miterlimit="10" stroke-width="0.25"/><circle cx="88.9399" cy="109.0944" r="0.2725"/><circle cx="85.905" cy="109.0944" r="0.2725"/><path d="M83.08,111.4032a1.7966,1.7966,0,0,0,.4361.2834,13.947,13.947,0,0,0-.5931,1.9774,2.8147,2.8147,0,0,1-.1569.4688.218.218,0,0,1-.218.1482H82.53a.3052.3052,0,0,1-.218-.218.5167.5167,0,0,1,0-.1831,24.4718,24.4718,0,0,1,.7631-2.4745m0-.2181h-.0371a.2182.2182,0,0,0-.1613.1243c-.1156.2551-.5494,1.6177-.7762,2.5094a.7228.7228,0,0,0-.0131.2725.5146.5146,0,0,0,.4361.4012h.0327a.4361.4361,0,0,0,.4186-.2943c.0152-.0371.0283-.0763.0436-.1156a2.0941,2.0941,0,0,0,.1242-.39,13.8967,13.8967,0,0,1,.5909-1.9295.218.218,0,0,0-.1112-.2747,1.62,1.62,0,0,1-.3706-.2377.2183.2183,0,0,0-.157-.0675Z"/><path d="M84.2982,107.7753l-.0261.0785Z" fill="none"/><path d="M84.6057,112.5848c-.05-.1395-.096-.279-.1374-.4207C84.5184,112.3058,84.5642,112.4562,84.6057,112.5848Z" fill="none"/><path d="M90.88,107.3851a.0462.0462,0,0,0,.0175.0436h0C90.8911,107.4156,90.8868,107.4,90.88,107.3851Z" fill="none"/><path d="M84.8,113.0514c-.0611-.1395-.1177-.2812-.17-.423C84.682,112.77,84.7386,112.9119,84.8,113.0514Z" fill="none"/><path d="M90.8977,107.4287a1.21,1.21,0,0,1,.0523.1373A1.21,1.21,0,0,0,90.8977,107.4287Z"/><path d="M90.6208,107.9v.0414h0A.0544.0544,0,0,0,90.6208,107.9Z" fill="none"/><path d="M84.3876,107.5246a2.0361,2.0361,0,0,0-.0937.2507A2.4836,2.4836,0,0,1,84.3876,107.5246Z" fill="none"/><path d="M84.63,112.6284c0-.0152-.0109-.0283-.0152-.0436A.2928.2928,0,0,1,84.63,112.6284Z" fill="none"/><path d="M91.0067,107.7405h0c-.0174-.0589-.0349-.1178-.0567-.1745C90.97,107.6227,90.9893,107.6816,91.0067,107.7405Z"/><path d="M83.8862,107.7078l.0327-.1091Z"/><path d="M83.35,107.78h0v0Z" fill="none"/><path d="M92.6724,108.8218l.0785.0654A.1892.1892,0,0,0,92.6724,108.8218Z"/><path d="M85.0417,105.4905c1.2013-.085,1.7049.2376,1.9491,1.2274" fill="none" stroke="#000" stroke-miterlimit="10" stroke-width="0.25"/><path d="M86.74,104.4985c.2812.1766.53.51.569,1.3081l.07.7914" fill="none" stroke="#000" stroke-miterlimit="10" stroke-width="0.25"/><path d="M87.9261,106.7179c.2442-.99.7478-1.3081,1.9491-1.2274l.218.0414" fill="none" stroke="#000" stroke-miterlimit="10" stroke-width="0.25"/><path d="M88.19,104.516c-.2878.17-.5494.4665-.5908,1.2841l-.07.7914" fill="none" stroke="#000" stroke-miterlimit="10" stroke-width="0.25"/><path d="M85.6107,106.6918a1.2205,1.2205,0,0,0-1.1947-.3532" fill="none" stroke="#000" stroke-miterlimit="10" stroke-width="0.25"/><path d="M89.655,106.7005a1.5826,1.5826,0,0,1,1.0377-.2529" fill="none" stroke="#000" stroke-miterlimit="10" stroke-width="0.25"/><path d="M83.1951,112.3276a.336.336,0,0,1-.0153.0676,11.1048,11.1048,0,0,0-.218,1.4651c0,.1351-.0436.7783-.0371.872a.68.68,0,0,0,.0458.1963.2354.2354,0,0,0,.2311.146.266.266,0,0,0,.2355-.1962.404.404,0,0,0,.0174-.1352,10.1751,10.1751,0,0,1,.072-1.5021c.0327-.2529.0763-.5058.1221-.7587a1.0019,1.0019,0,0,1-.3663-.1069A.6721.6721,0,0,1,83.1951,112.3276Z" fill="none"/><path d="M91.8417,113.1757c-.0436-.26-.0959-.5167-.1482-.774a1.09,1.09,0,0,1-.4579.0829c.0393.2332.0872.4665.109.702.0393.4535.0567.9091.0829,1.3648a2.6657,2.6657,0,0,0,.0131.303.2593.2593,0,0,0,.2572.218.2725.2725,0,0,0,.2464-.218,2.9683,2.9683,0,0,0,0-.34,1.1428,1.1428,0,0,1,0-.1526A11.0875,11.0875,0,0,0,91.8417,113.1757Z" fill="none"/><path d="M91.8417,113.1757c-.0436-.26-.0959-.5167-.1482-.774a1.09,1.09,0,0,1-.4579.0829c.0393.2332.0872.4665.109.702.0393.4535.0567.9091.0829,1.3648a2.6657,2.6657,0,0,0,.0131.303.2593.2593,0,0,0,.2572.218.2725.2725,0,0,0,.2464-.218,2.9683,2.9683,0,0,0,0-.34,1.1428,1.1428,0,0,1,0-.1526A11.0875,11.0875,0,0,0,91.8417,113.1757Z" fill="none"/><path d="M85.0657,113.2324c.0261.02.0523.0392.0806.0566.1178.07.2072.1265.3358.1984-.0676.2486-.0981.5124-.1526.7631a10.3658,10.3658,0,0,0-.1919,1.4913.4851.4851,0,0,1-.0283.133.2725.2725,0,0,1-.24.1765h0a.2332.2332,0,0,1-.2181-.1656.5546.5546,0,0,1-.0283-.1984c0-.096.0981-.7348.1046-.8721a12.9225,12.9225,0,0,1,.3271-1.5262.254.254,0,0,1,.0218-.0654m-.1156-.3553-.0915.29v.024l-.0131.0436a12.5245,12.5245,0,0,0-.3336,1.548v.0239c0,.0567-.0283.2442-.05.4121a3.3652,3.3652,0,0,0-.0851.4753.7681.7681,0,0,0,.0415.2747.4535.4535,0,0,0,.4142.31h.02a.4863.4863,0,0,0,.4361-.3205.6724.6724,0,0,0,.0414-.1941,10.0574,10.0574,0,0,1,.1875-1.4607c.0218-.0981.0392-.1984.0567-.3009.0283-.1569.0545-.3052.0915-.4491l.0436-.1635-.146-.0828c-.0851-.048-.1505-.0872-.2181-.1308L85.26,113.11l-.0523-.0349h-.0131l-.2442-.1788Z"/><path d="M91.5561,108.4556a2.0543,2.0543,0,0,1-.0153.3117C91.55,108.6627,91.5539,108.56,91.5561,108.4556Zm-.2333.7914h0Z" fill="none"/><path d="M89.3389,112.9271a.205.205,0,1,1-.3336-.218c.0741-.1068.2376-.1831.3314-.12S89.413,112.82,89.3389,112.9271Z"/><path d="M87.5271,111.9569l1.55,1.0095c.0567.0349.02-.0545.0611-.1069l.1133-.146c.0327-.0414.1025-.0458.0567-.0763l-1.2732-.8612" fill="none" stroke="#000" stroke-miterlimit="10" stroke-width="0.25"/><path d="M81.8935,105.48c-.0109-.061-.02-.1221-.0305-.181-.0567-.3183-.1112-.6388-.1679-.9571l-.1417-.8241v-.0218c0-.0065,0-.0588.048-.0654l.388-.0785.7173-.1264.0829-.0131a.702.702,0,0,1-.1461.5908.75.75,0,0,1-.5451.2747.8749.8749,0,0,0,.0262.157c.0371.218.0719.4164.109.6235s.0763.4361.1134.6541.0828.436.1112.665a.7107.7107,0,0,1-.0807.436.8112.8112,0,0,1-1.2013.2965.774.774,0,0,1-.3227-.5145.7918.7918,0,0,1,.2006-.6977.7808.7808,0,0,1,.5233-.2594.7545.7545,0,0,1,.279.0218h.0284Z" fill="none" stroke="#000" stroke-miterlimit="10" stroke-width="0.25"/><path d="M87.4225,113.603s-.1308.8241.4774.7369" fill="none" stroke="#000" stroke-miterlimit="10" stroke-width="0.25"/><path d="M86.0773,111.4119a11.9615,11.9615,0,0,0,1.2144.4535,1.0751,1.0751,0,0,0,.5624,0,7.13,7.13,0,0,0,1.1686-.4164" fill="none" stroke="#000" stroke-miterlimit="10" stroke-width="0.25"/><path d="M91.0154,111.6452a1.5258,1.5258,0,0,0,.63-.17,1.0029,1.0029,0,0,0,.5538-.872v-.7282h0v-.0611h0v-.7282a1.003,1.003,0,0,0-.5538-.8829,1.5258,1.5258,0,0,0-.63-.17,5.4326,5.4326,0,0,0-.375-1.718,1.836,1.836,0,0,0-.2507-.399,3.3838,3.3838,0,0,0-2.8342-1.4847h-.05a3.3859,3.3859,0,0,0-2.8342,1.4847,1.7454,1.7454,0,0,0-.2486.399,3.9061,3.9061,0,0,0-.266,1.6918,2.134,2.134,0,0,0-.7412.1963,1.0027,1.0027,0,0,0-.5538.872v.7282h0v.0611h0v.7281a1.0027,1.0027,0,0,0,.5538.8721,2.2724,2.2724,0,0,0,.8481.17" fill="none" stroke="#000" stroke-miterlimit="10" stroke-width="0.25"/><path d="M84.573,112.6263a23.7784,23.7784,0,0,0-.53,2.4243.7989.7989,0,0,1-.0458.1788.3291.3291,0,0,1-.3074.218.386.386,0,0,1-.2944-.2725.9589.9589,0,0,1-.013-.2747,5.97,5.97,0,0,1,.1678-1.1577,20.932,20.932,0,0,1,.5146-2.0842" fill="none" stroke="#000" stroke-miterlimit="10" stroke-width="0.25"/><path d="M91.8984,111.4032c.1.218.532,1.5588.7631,2.4745a.438.438,0,0,1,0,.1831.3008.3008,0,0,1-.229.2181h-.0174a.2181.2181,0,0,1-.218-.1483,2.8171,2.8171,0,0,1-.157-.4687,13.7438,13.7438,0,0,0-.5908-1.9775,1.796,1.796,0,0,0,.436-.2834m0-.218a.218.218,0,0,0-.157.0676,1.624,1.624,0,0,1-.3641.24.2179.2179,0,0,0-.1111.2747,13.7938,13.7938,0,0,1,.5821,1.936,1.9358,1.9358,0,0,0,.1221.39c.0152.0392.03.0784.0436.1155a.436.436,0,0,0,.4164.2922h.037a.5148.5148,0,0,0,.4361-.4012.7207.7207,0,0,0-.0131-.2725,23.0926,23.0926,0,0,0-.7761-2.5094.2181.2181,0,0,0-.1614-.1243h-.037Z"/><path d="M89.9885,113.2694l.0218.0654a12.0071,12.0071,0,0,1,.3271,1.5262c0,.1351.1068.7718.1068.872a.5674.5674,0,0,1-.03.2006.2311.2311,0,0,1-.218.1635h0a.2745.2745,0,0,1-.242-.1787.5368.5368,0,0,1-.0284-.133,10.113,10.113,0,0,0-.1918-1.4913c-.0524-.2507-.07-.436-.1352-.6758a.8959.8959,0,0,1,.31-.29l.0806-.0545m.1156-.3554-.2442.1788-.0218.0131-.05.037a1.09,1.09,0,0,0-.3859.3423l-.0545.0807.024.0959a3.7888,3.7888,0,0,1,.0806.39c.0153.085.03.1744.0523.2747a9.985,9.985,0,0,1,.19,1.4585.6815.6815,0,0,0,.0393.1962.49.49,0,0,0,.4469.32h.02a.4491.4491,0,0,0,.4121-.3074.7733.7733,0,0,0,.0436-.2747c0-.0588-.0175-.1875-.0545-.4687-.024-.1657-.048-.3554-.0523-.4121v-.0218a12.8584,12.8584,0,0,0-.3336-1.5479L90.2,113.228v-.024l-.0915-.2878Z"/><path d="M90.9282,111.667a20.9074,20.9074,0,0,1,.5167,2.0842,5.8317,5.8317,0,0,1,.1657,1.1577.8894.8894,0,0,1-.0283.2747.3817.3817,0,0,1-.2944.2726.3337.3337,0,0,1-.3074-.2181.7939.7939,0,0,1-.0457-.1787,21.1136,21.1136,0,0,0-.5015-2.2522" fill="none" stroke="#000" stroke-miterlimit="10" stroke-width="0.25"/><path d="M83.5853,108.07c-.024-2.7078,1.6853-4.3343,3.968-4.3343s3.9243,1.8881,3.9243,4.4215" fill="none" stroke="#000" stroke-linejoin="round" stroke-width="0.25"/><path d="M79.5912,115.9729a3.7194,3.7194,0,0,1,2.6991-3.0676l.1744-.0327" fill="none" stroke="#000" stroke-linecap="round" stroke-linejoin="round" stroke-width="0.25"/><path d="M95.4238,115.853a3.59,3.59,0,0,0-2.7209-2.9477l-.1744-.0327" fill="none" stroke="#000" stroke-linecap="round" stroke-linejoin="round" stroke-width="0.25"/><path d="M85.4516,114.377a6.1544,6.1544,0,0,0,2.1039,1.16,6.7415,6.7415,0,0,0,2.1017-.8721" fill="none" stroke="#000" stroke-linejoin="round" stroke-width="0.25"/><line x1="84.7757" y1="113.93" x2="84.2917" y2="113.531" fill="none" stroke="#000" stroke-linejoin="round" stroke-width="0.25"/><line x1="83.7118" y1="113.034" x2="83.2648" y2="112.6612" fill="none" stroke="#000" stroke-linejoin="round" stroke-width="0.25"/><line x1="90.309" y1="114.3028" x2="90.6731" y2="114.0499" fill="none" stroke="#000" stroke-linejoin="round" stroke-width="0.25"/><line x1="91.434" y1="113.7512" x2="91.8679" y2="113.3784" fill="none" stroke="#000" stroke-linejoin="round" stroke-width="0.25"/><path d="M235.6187,121.303h2.096v.5167H236.229v.6759h1.3022v.5105H236.229v1.2324h-.61Z" fill="#5c5c5c"/><path d="M239.4231,122.1087a.89.89,0,0,1,.3756.3217,1.0654,1.0654,0,0,1,.173.4494,2.7745,2.7745,0,0,1,.0189.4316h-1.5832a.5208.5208,0,0,0,.2273.4583.5741.5741,0,0,0,.3133.0819.4806.4806,0,0,0,.3155-.1.4709.4709,0,0,0,.117-.15h.58a.7088.7088,0,0,1-.2108.3931,1.0561,1.0561,0,0,1-.8178.3169,1.1859,1.1859,0,0,1-.7656-.2672,1.054,1.054,0,0,1-.3317-.87,1.1763,1.1763,0,0,1,.2994-.866,1.0473,1.0473,0,0,1,.7773-.3017A1.2406,1.2406,0,0,1,239.4231,122.1087Zm-.85.491a.5911.5911,0,0,0-.1514.3368h.9792a.4754.4754,0,0,0-.1514-.3439.4985.4985,0,0,0-.3372-.117A.45.45,0,0,0,238.5727,122.6Z" fill="#5c5c5c"/><path d="M241.0774,122.9161a.8823.8823,0,0,0,.2271-.05.1707.1707,0,0,0,.1226-.1613.1916.1916,0,0,0-.094-.1848.5968.5968,0,0,0-.2761-.051.3619.3619,0,0,0-.2889.1.4082.4082,0,0,0-.0809.1994h-.5484a.8325.8325,0,0,1,.16-.4689.9343.9343,0,0,1,.7771-.2871,1.3857,1.3857,0,0,1,.637.1418.5431.5431,0,0,1,.2783.5344v.9971q0,.1038.004.2509a.3128.3128,0,0,0,.0339.1515.2012.2012,0,0,0,.0838.0661v.0837h-.6182a.628.628,0,0,1-.0359-.1236q-.01-.0579-.016-.1316a1.1639,1.1639,0,0,1-.2727.2171.8243.8243,0,0,1-.4173.1059.72.72,0,0,1-.49-.1684.5992.5992,0,0,1-.1937-.4777.6185.6185,0,0,1,.3113-.58,1.3994,1.3994,0,0,1,.5024-.14Zm.3477.2655a.6419.6419,0,0,1-.11.0549.912.912,0,0,1-.1527.0386l-.1294.0239a.8633.8633,0,0,0-.2613.078.26.26,0,0,0-.1342.2411.2514.2514,0,0,0,.0819.21.3112.3112,0,0,0,.2.0651.594.594,0,0,0,.3432-.1081.4556.4556,0,0,0,.1631-.3926Z" fill="#5c5c5c"/><path d="M242.2035,122.49v-.4051h.3031v-.6062h.5624v.6062h.353v.4051h-.353v1.1487a.2571.2571,0,0,0,.0339.1662.3707.3707,0,0,0,.2074.0332c.0173,0,.0355,0,.055-.0013s.0381-.0013.0567-.0031v.425l-.2692.01a.7224.7224,0,0,1-.55-.14.414.414,0,0,1-.0958-.3009V122.49Z" fill="#5c5c5c"/><path d="M244.2919,122.0648v1.31a.69.69,0,0,0,.0437.2792.3017.3017,0,0,0,.3035.1653.3965.3965,0,0,0,.3969-.2353.8565.8565,0,0,0,.0556-.3368v-1.1828h.5763v2.1737h-.5524v-.3071c-.0053.0067-.0186.0266-.04.06a.4068.4068,0,0,1-.0756.0878.7873.7873,0,0,1-.2577.1635.8741.8741,0,0,1-.2914.0439.6489.6489,0,0,1-.6481-.347,1.3268,1.3268,0,0,1-.0935-.5642v-1.31Z" fill="#5c5c5c"/><path d="M247.3666,122.0138c.0073.0009.0237.0018.049.0031v.5824q-.0538-.006-.0958-.008c-.0279-.0013-.05-.0022-.0678-.0022a.4722.4722,0,0,0-.4606.2233.8723.8723,0,0,0-.0658.3874v1.0387h-.5724v-2.1737h.5424v.3789a1.2,1.2,0,0,1,.2294-.2969.6241.6241,0,0,1,.4148-.1338Z" fill="#5c5c5c"/><path d="M249.1038,122.1087a.8884.8884,0,0,1,.3756.3217,1.064,1.064,0,0,1,.173.4494,2.762,2.762,0,0,1,.0189.4316h-1.5832a.5208.5208,0,0,0,.2273.4583.5741.5741,0,0,0,.3133.0819.4811.4811,0,0,0,.3156-.1.4737.4737,0,0,0,.117-.15h.58a.7086.7086,0,0,1-.2107.3931,1.0565,1.0565,0,0,1-.8179.3169,1.1859,1.1859,0,0,1-.7656-.2672,1.054,1.054,0,0,1-.3317-.87,1.1763,1.1763,0,0,1,.2994-.866,1.0473,1.0473,0,0,1,.7773-.3017A1.2406,1.2406,0,0,1,249.1038,122.1087Zm-.85.491a.5917.5917,0,0,0-.1514.3368h.9792a.4757.4757,0,0,0-.1513-.3439.4989.4989,0,0,0-.3373-.117A.45.45,0,0,0,248.2534,122.6Z" fill="#5c5c5c"/><path d="M253.1526,121.299v.5207h-.88v2.4188h-.6182V121.82h-.8835v-.5207Z" fill="#5c5c5c"/><path d="M253.9888,121.8056h-.5763v-.5248h.5763Zm-.5763.2592h.5763v2.1737h-.5763Z" fill="#5c5c5c"/><path d="M254.2545,122.49v-.4051h.3031v-.6062h.5624v.6062h.353v.4051h-.353v1.1487a.2571.2571,0,0,0,.0339.1662.3707.3707,0,0,0,.2074.0332c.0173,0,.0355,0,.055-.0013s.0381-.0013.0567-.0031v.425l-.2692.01a.7228.7228,0,0,1-.55-.14.4144.4144,0,0,1-.0957-.3009V122.49Z" fill="#5c5c5c"/><path d="M256.3571,124.2385h-.5684V121.299h.5684Z" fill="#5c5c5c"/><path d="M258.2667,122.1087a.889.889,0,0,1,.3756.3217,1.064,1.064,0,0,1,.173.4494,2.7745,2.7745,0,0,1,.0189.4316H257.251a.5208.5208,0,0,0,.2273.4583.5741.5741,0,0,0,.3133.0819.4811.4811,0,0,0,.3156-.1.4721.4721,0,0,0,.1169-.15h.58a.7088.7088,0,0,1-.2108.3931,1.0561,1.0561,0,0,1-.8178.3169,1.1859,1.1859,0,0,1-.7656-.2672,1.054,1.054,0,0,1-.3317-.87,1.1763,1.1763,0,0,1,.2994-.866,1.0473,1.0473,0,0,1,.7773-.3017A1.2406,1.2406,0,0,1,258.2667,122.1087Zm-.85.491a.5911.5911,0,0,0-.1514.3368h.9792a.4754.4754,0,0,0-.1514-.3439.4985.4985,0,0,0-.3372-.117A.45.45,0,0,0,257.4163,122.6Z" fill="#5c5c5c"/><rect x="239.2076" y="102.3941" width="15.01" height="15.6228" rx="3.2628" fill="none" stroke="#231f20" stroke-linecap="round" stroke-miterlimit="10" stroke-width="0.25"/><path d="M250.105,106.9145a4.8882,4.8882,0,1,1-8.5307,3.2548" fill="none" stroke="#231f20" stroke-linecap="round" stroke-miterlimit="10" stroke-width="0.25"/><polyline points="250.003 108.789 250.035 106.826 251.867 107.284" fill="none" stroke="#231f20" stroke-linecap="round" stroke-miterlimit="10" stroke-width="0.25"/><circle cx="246.5609" cy="110.0005" r="2.8148" fill="none" stroke="#231f20" stroke-linecap="round" stroke-miterlimit="10" stroke-width="0.25"/><polyline points="246.533 108.235 246.533 110.001 245.388 111.146" fill="none" stroke="#231f20" stroke-linecap="round" stroke-miterlimit="10" stroke-width="0.25"/><path d="M241.5582,110.1653a4.8119,4.8119,0,0,1,7.08-4.2433" fill="none" stroke="#231f20" stroke-linecap="round" stroke-miterlimit="10" stroke-width="0.25" stroke-dasharray="5 5 5 5 5 5"/><path d="M182.5181,121.303h2.0959v.5167h-1.4857v.6759h1.3023v.5105h-1.3023v1.2324h-.61Z" fill="#5c5c5c"/><path d="M186.3224,122.1087a.8884.8884,0,0,1,.3756.3217,1.0655,1.0655,0,0,1,.1731.4494,2.7645,2.7645,0,0,1,.0188.4316h-1.5832a.5211.5211,0,0,0,.2273.4583.5744.5744,0,0,0,.3134.0819.4808.4808,0,0,0,.3155-.1.4737.4737,0,0,0,.117-.15h.58a.7086.7086,0,0,1-.2107.3931,1.0564,1.0564,0,0,1-.8179.3169,1.1856,1.1856,0,0,1-.7655-.2672,1.0537,1.0537,0,0,1-.3318-.87,1.1767,1.1767,0,0,1,.2994-.866,1.0473,1.0473,0,0,1,.7773-.3017A1.2406,1.2406,0,0,1,186.3224,122.1087Zm-.85.491a.5916.5916,0,0,0-.1513.3368H186.3a.4757.4757,0,0,0-.1513-.3439.4987.4987,0,0,0-.3373-.117A.45.45,0,0,0,185.472,122.6Z" fill="#5c5c5c"/><path d="M187.9768,122.9161a.8834.8834,0,0,0,.2271-.05.1707.1707,0,0,0,.1225-.1613.1916.1916,0,0,0-.0939-.1848.597.597,0,0,0-.2761-.051.362.362,0,0,0-.289.1.4091.4091,0,0,0-.0808.1994h-.5485a.8325.8325,0,0,1,.16-.4689.9344.9344,0,0,1,.7771-.2871,1.3864,1.3864,0,0,1,.6371.1418.5432.5432,0,0,1,.2783.5344v.9971q0,.1038.004.2509a.3128.3128,0,0,0,.0339.1515.2.2,0,0,0,.0837.0661v.0837h-.6182a.6349.6349,0,0,1-.0359-.1236q-.01-.0579-.0159-.1316a1.1644,1.1644,0,0,1-.2728.2171.824.824,0,0,1-.4172.1059.72.72,0,0,1-.49-.1684.5992.5992,0,0,1-.1937-.4777.6184.6184,0,0,1,.3114-.58,1.3994,1.3994,0,0,1,.5023-.14Zm.3476.2655a.6384.6384,0,0,1-.11.0549.9094.9094,0,0,1-.1527.0386l-.1294.0239a.8616.8616,0,0,0-.2612.078.26.26,0,0,0-.1343.2411.2514.2514,0,0,0,.082.21.3109.3109,0,0,0,.1994.0651.5938.5938,0,0,0,.3432-.1081.4556.4556,0,0,0,.1631-.3926Z" fill="#5c5c5c"/><path d="M189.1028,122.49v-.4051h.3032v-.6062h.5623v.6062h.353v.4051h-.353v1.1487a.2571.2571,0,0,0,.0339.1662.3714.3714,0,0,0,.2075.0332c.0172,0,.0354,0,.0549-.0013s.0381-.0013.0567-.0031v.425l-.2692.01a.7226.7226,0,0,1-.55-.14.4144.4144,0,0,1-.0957-.3009V122.49Z" fill="#5c5c5c"/><path d="M191.1913,122.0648v1.31a.6921.6921,0,0,0,.0436.2792.3018.3018,0,0,0,.3036.1653.3963.3963,0,0,0,.3968-.2353.8563.8563,0,0,0,.0557-.3368v-1.1828h.5763v2.1737h-.5524v-.3071c-.0053.0067-.0186.0266-.04.06a.4064.4064,0,0,1-.0755.0878.7894.7894,0,0,1-.2577.1635.8745.8745,0,0,1-.2914.0439.6488.6488,0,0,1-.6481-.347,1.3266,1.3266,0,0,1-.0936-.5642v-1.31Z" fill="#5c5c5c"/><path d="M194.2659,122.0138c.0074.0009.0238.0018.049.0031v.5824q-.0538-.006-.0957-.008c-.0279-.0013-.05-.0022-.0678-.0022a.4723.4723,0,0,0-.4607.2233.8723.8723,0,0,0-.0658.3874v1.0387h-.5723v-2.1737h.5424v.3789a1.2,1.2,0,0,1,.2293-.2969.6245.6245,0,0,1,.4148-.1338Z" fill="#5c5c5c"/><path d="M196.0031,122.1087a.8884.8884,0,0,1,.3756.3217,1.0655,1.0655,0,0,1,.1731.4494,2.7645,2.7645,0,0,1,.0188.4316h-1.5832a.5211.5211,0,0,0,.2274.4583.5738.5738,0,0,0,.3133.0819.4808.4808,0,0,0,.3155-.1.4737.4737,0,0,0,.117-.15h.58a.7086.7086,0,0,1-.2107.3931,1.0564,1.0564,0,0,1-.8179.3169,1.1856,1.1856,0,0,1-.7655-.2672,1.0537,1.0537,0,0,1-.3317-.87,1.1767,1.1767,0,0,1,.2993-.866,1.0475,1.0475,0,0,1,.7773-.3017A1.24,1.24,0,0,1,196.0031,122.1087Zm-.85.491a.5916.5916,0,0,0-.1513.3368h.9791a.4757.4757,0,0,0-.1513-.3439.4987.4987,0,0,0-.3372-.117A.4508.4508,0,0,0,195.1527,122.6Z" fill="#5c5c5c"/><path d="M200.0519,121.299v.5207h-.8795v2.4188h-.6182V121.82h-.8834v-.5207Z" fill="#5c5c5c"/><path d="M200.8882,121.8056h-.5764v-.5248h.5764Zm-.5764.2592h.5764v2.1737h-.5764Z" fill="#5c5c5c"/><path d="M201.1538,122.49v-.4051h.3032v-.6062h.5623v.6062h.353v.4051h-.353v1.1487a.2571.2571,0,0,0,.0339.1662.3709.3709,0,0,0,.2074.0332c.0173,0,.0355,0,.055-.0013s.0381-.0013.0567-.0031v.425l-.2692.01a.7226.7226,0,0,1-.55-.14.4144.4144,0,0,1-.0957-.3009V122.49Z" fill="#5c5c5c"/><path d="M203.2564,124.2385h-.5683V121.299h.5683Z" fill="#5c5c5c"/><path d="M205.166,122.1087a.8884.8884,0,0,1,.3756.3217,1.0655,1.0655,0,0,1,.1731.4494,2.7645,2.7645,0,0,1,.0188.4316H204.15a.5211.5211,0,0,0,.2273.4583.5744.5744,0,0,0,.3134.0819.4808.4808,0,0,0,.3155-.1.4737.4737,0,0,0,.117-.15h.58a.7086.7086,0,0,1-.2107.3931,1.0564,1.0564,0,0,1-.8179.3169,1.1856,1.1856,0,0,1-.7655-.2672,1.0537,1.0537,0,0,1-.3317-.87,1.1767,1.1767,0,0,1,.2993-.866,1.0475,1.0475,0,0,1,.7773-.3017A1.24,1.24,0,0,1,205.166,122.1087Zm-.85.491a.5916.5916,0,0,0-.1513.3368h.9791a.4757.4757,0,0,0-.1513-.3439.4987.4987,0,0,0-.3373-.117A.45.45,0,0,0,204.3156,122.6Z" fill="#5c5c5c"/><rect x="186.9054" y="102.2395" width="15.3967" height="15.932" rx="2.7317" fill="none" stroke="#231f20" stroke-miterlimit="10" stroke-width="0.25"/><path d="M193.86,105.0857a.42.42,0,0,1,.2379.0947.0792.0792,0,0,0,.0925.0111c.2622-.13.5266-.2578.7909-.3834a.0837.0837,0,0,0,.0551-.0859.5111.5111,0,0,1,1.0112-.0374.4848.4848,0,0,1-.2512.5133.4714.4714,0,0,1-.5617-.04.1124.1124,0,0,0-.141-.0132c-.2424.1234-.4869.2423-.7292.3613-.0375.0176-.04.04-.0463.0749-.022.0969.0375.1212.1058.1542.22.11.4516.22.6763.3371a.099.099,0,0,0,.1233,0,.5045.5045,0,0,1,.6962.0528.5157.5157,0,0,1,0,.69.4541.4541,0,0,1-.3988.1454.5068.5068,0,0,1-.4538-.3239.4761.4761,0,0,1-.0352-.1542.0838.0838,0,0,0-.0551-.0815c-.2622-.1256-.5265-.2555-.7865-.3855a.0726.0726,0,0,0-.0925,0,.5046.5046,0,0,1-.6807-.0859.5111.5111,0,0,1,0-.6609A.5465.5465,0,0,1,193.86,105.0857Z" fill="none" stroke="#000" stroke-miterlimit="10" stroke-width="0.25"/><path d="M189.86,107.3614a1.1016,1.1016,0,0,1-.1653,1.2469c-.185.163-.7754.7556-.7754.7556.0484-.293.0793-.4692.1388-.72-.1586.0551-.3635.2754-.5354.3481.0661-.2071.1961-.5684.2688-.738-.1212.0727-.28.141-.4406.2313a5.712,5.712,0,0,0,.304-.61,3.6641,3.6641,0,0,1-.3833.1278,8.4833,8.4833,0,0,0,.8173-1.0619,8.6868,8.6868,0,0,0,.6477-1.368" fill="none" stroke="#000" stroke-miterlimit="10" stroke-width="0.25"/><ellipse cx="198.5717" cy="106.6231" rx="1.8065" ry="1.2447" transform="translate(45.6842 272.2269) rotate(-75.52)" fill="none" stroke="#000" stroke-miterlimit="10" stroke-width="0.25"/><path d="M201.1146,117.0854c-.3128-.857-.6322-1.7382-.9583-2.5973a3.62,3.62,0,0,0,.3988-1.7051,15.0383,15.0383,0,0,0-.5728-3.1085,1.0421,1.0421,0,0,0-1.0376-.8944,1.1875,1.1875,0,0,0-1.0134.5486q-.5287.7467-1.0662,1.4892a.1741.1741,0,0,1-.1036.0793c-.17.0286-.3436.0441-.5155.0661-.2687.033-.5375.0639-.8041.1013a.6169.6169,0,0,0-.24,1.1412.7317.7317,0,0,0,.5045.0661c.4891-.0551.9759-.119,1.4628-.1763a.7337.7337,0,0,0,.5485-.3238c.0595-.0859.1212-.17.1829-.2534h.0242c.0264.4406.0551.8658.0705,1.2976a.6042.6042,0,0,1-.0749.2864q-.4626.8944-.9407,1.7822a1.0086,1.0086,0,0,0-.1145.423c-.0287.5794-.0661,1.1566-.097,1.7337h-.59a.3833.3833,0,0,0-.3833.3833v.2975a.3833.3833,0,0,0,.3833.3833h1.6853a.3893.3893,0,0,0,.152-.0309c.0661.0155.11,0,.13-.0947a.3851.3851,0,0,0,.1057-.2489v-.0441a.266.266,0,0,1,.0111-.0859c.0528-.5177.1189-1.0354.1564-1.5531a1.5416,1.5416,0,0,1,.326-.8812c.0793-.0991.1564-.2005.2335-.3018a6.7954,6.7954,0,0,0,.3657,1.82.3369.3369,0,0,1,.0243.0594c.1255.304.2445.61.3745.9121" fill="none" stroke="#000" stroke-miterlimit="10" stroke-width="0.25"/><path d="M199.9338,118.1186l-.196-.4648c-.13-.3018-.249-.6081-.3745-.9121a.3369.3369,0,0,0-.0243-.0594,6.9733,6.9733,0,0,1-.3657-1.82c-.0771.1013-.1542.2027-.2335.3018a1.5416,1.5416,0,0,0-.326.8812c-.0375.5177-.1036,1.0354-.1564,1.5531a.1973.1973,0,0,1-.0111.0859v.0441a.3848.3848,0,0,1-.1013.2621c-.02.097-.0639.11-.13.0948a.391.391,0,0,1-.152.0308h-1.6853a.3833.3833,0,0,1-.3833-.3833v-.2974a.3833.3833,0,0,1,.3811-.3855h.5926c.0309-.5772.0683-1.1544.097-1.7338a1.0086,1.0086,0,0,1,.1145-.423q.4759-.8811.9407-1.7822a.6042.6042,0,0,0,.0749-.2864c-.0154-.4406-.0441-.8658-.0705-1.2975h-.0242c-.0617.0837-.1234.1674-.1829.2533a.7334.7334,0,0,1-.5485.3238c-.4869.0573-.9737.1212-1.4628.1763a.7317.7317,0,0,1-.5045-.0661.6169.6169,0,0,1,.24-1.1412c.2666-.0374.5354-.0683.8041-.1013.1719-.022.3459-.0374.5155-.0661a.1741.1741,0,0,0,.1036-.0793c.3568-.4957.7137-.9913,1.0662-1.4892a1.1875,1.1875,0,0,1,1.0134-.5486,1.0421,1.0421,0,0,1,1.0376.8945,15.0361,15.0361,0,0,1,.5728,3.1084,3.62,3.62,0,0,1-.3988,1.7051c.3261.85.6455,1.7315.9583,2.5885l.1873.4648" fill="none" stroke="#000" stroke-miterlimit="10" stroke-width="0.25"/><ellipse cx="190.9084" cy="106.6318" rx="1.2468" ry="1.8095" transform="translate(-20.5715 51.0205) rotate(-14.4524)" fill="none" stroke="#000" stroke-miterlimit="10.017" stroke-width="0.25"/><path d="M188.117,117.5811c.3194-.8658.8812-2.2273,1.2006-3.0842a3.6216,3.6216,0,0,1-.3987-1.7051,15.03,15.03,0,0,1,.5728-3.1084,1.042,1.042,0,0,1,1.0376-.8945,1.1872,1.1872,0,0,1,1.0133.5486c.3525.4979.7094.9935,1.0663,1.4892a.1736.1736,0,0,0,.1035.0793c.17.0287.3437.0441.5155.0661.2688.033.5376.0639.8041.1013a.6169.6169,0,0,1,.24,1.1412.7315.7315,0,0,1-.5044.0661c-.4891-.0551-.976-.119-1.4628-.1763a.7336.7336,0,0,1-.5486-.3238c-.0594-.0859-.1211-.17-.1828-.2533h-.0242c-.0265.4406-.0551.8657-.07,1.2975a.6031.6031,0,0,0,.0749.2864q.4626.8945.9406,1.7822a1.0087,1.0087,0,0,1,.1146.423c.0286.5794.0661,1.1566.0991,1.7337h.586a.3834.3834,0,0,1,.3833.3834v.2974a.3833.3833,0,0,1-.3833.3833h-1.6831a.3928.3928,0,0,1-.1542-.0309c-.0661.0155-.11,0-.13-.0947a.3852.3852,0,0,1-.1014-.2577v-.0441a.2682.2682,0,0,0-.011-.0859c-.0529-.5177-.119-1.0354-.1564-1.5531a1.5424,1.5424,0,0,0-.3261-.8812c-.0793-.0991-.1564-.2005-.2335-.3018a6.7915,6.7915,0,0,1-.3657,1.82.3442.3442,0,0,0-.0242.0594c-.1234.304-.2423.61-.3745.9121l-.2027.5551" fill="none" stroke="#000" stroke-miterlimit="10" stroke-width="0.25"/><path d="M190.2451,104.8985s.82-1.1456,1.2623-1.0068c.33.11.0551.3745.0551.3745s.3569-.1278.4956,0-.22.3657-.22.3657.6037-.0352.6147.22c.0176.478-.9759.3613-.98.33A1.1012,1.1012,0,0,0,190.2451,104.8985Z" fill="none" stroke="#000" stroke-miterlimit="10" stroke-width="0.25"/><path d="M198.883,104.81a2.0935,2.0935,0,0,0-.1828-1.2645,3.1066,3.1066,0,0,1,.5485.91,4.1879,4.1879,0,0,0,.0727-.8812s.3371.7093.2644.9472a1.6949,1.6949,0,0,0,.163-.7644,2.0031,2.0031,0,0,1,.2027.8548.9919.9919,0,0,0,.304-.5838s.1476.196.044.7688a1.0344,1.0344,0,0,0,.3745-.5,1.8448,1.8448,0,0,1-.0749.6962.7425.7425,0,0,0,.4561-.5067,1.8106,1.8106,0,0,1-.1058.8195.3407.3407,0,0,1-.022.0287s.4207-.1521.4758-.4076a1.123,1.123,0,0,1-.3591.9208s.4406-.1343.5243-.2687a.9253.9253,0,0,1-.6168.6961,1.2569,1.2569,0,0,0,.6036-.0176s-.0484.4208-.727.3481a.8683.8683,0,0,0,.5993.17,1.139,1.139,0,0,1-.8614.152,1.2943,1.2943,0,0,0,.5507.22,1.3216,1.3216,0,0,1-.8129.0375,3.5545,3.5545,0,0,0,.4406.3591s-.5794.0484-.6939-.0661c0,0,.2379.3657.3657.4031,0,0-.6785.0419-.9341-.2027" fill="none" stroke="#000" stroke-linejoin="round" stroke-width="0.25"/><path d="M129.4174,121.1589h2.096v.5168h-1.4857v.6758H131.33v.51h-1.3022v1.2325h-.61Z" fill="#5c5c5c"/><path d="M133.2218,121.9646a.89.89,0,0,1,.3756.3218,1.0657,1.0657,0,0,1,.173.4493,2.7659,2.7659,0,0,1,.0188.4317H132.206a.5211.5211,0,0,0,.2274.4582.5739.5739,0,0,0,.3133.082.4812.4812,0,0,0,.3155-.1.4748.4748,0,0,0,.117-.15h.58a.7092.7092,0,0,1-.2108.3931,1.0561,1.0561,0,0,1-.8178.3168,1.1851,1.1851,0,0,1-.7656-.2672,1.0538,1.0538,0,0,1-.3317-.87,1.1764,1.1764,0,0,1,.2993-.8659,1.0476,1.0476,0,0,1,.7774-.3018A1.2406,1.2406,0,0,1,133.2218,121.9646Zm-.8505.491a.5916.5916,0,0,0-.1513.3368h.9792a.4754.4754,0,0,0-.1514-.3439.4989.4989,0,0,0-.3372-.1169A.4511.4511,0,0,0,132.3713,122.4556Z" fill="#5c5c5c"/><path d="M134.8761,122.7721a.8814.8814,0,0,0,.2271-.05.1706.1706,0,0,0,.1226-.1613.1916.1916,0,0,0-.094-.1848.597.597,0,0,0-.2761-.051.3619.3619,0,0,0-.2889.1.4082.4082,0,0,0-.0809.1994h-.5484a.8307.8307,0,0,1,.16-.4688.934.934,0,0,1,.7771-.2872,1.386,1.386,0,0,1,.637.1418.5431.5431,0,0,1,.2783.5345v.9971c0,.0691.0014.1529.004.2508a.3137.3137,0,0,0,.0339.1516.2012.2012,0,0,0,.0838.066v.0838h-.6182a.6288.6288,0,0,1-.0359-.1237q-.01-.0577-.016-.1316a1.1628,1.1628,0,0,1-.2728.2172.8247.8247,0,0,1-.4172.1059.7209.7209,0,0,1-.49-.1684.6.6,0,0,1-.1936-.4778.6185.6185,0,0,1,.3113-.58,1.4014,1.4014,0,0,1,.5023-.14Zm.3477.2654a.6508.6508,0,0,1-.11.055.9191.9191,0,0,1-.1526.0385l-.1294.024a.8633.8633,0,0,0-.2613.078.26.26,0,0,0-.1343.241.2514.2514,0,0,0,.082.21.3107.3107,0,0,0,.2.0652.5941.5941,0,0,0,.3432-.1082.4555.4555,0,0,0,.1631-.3926Z" fill="#5c5c5c"/><path d="M136.0022,122.3457v-.405h.3031v-.6063h.5624v.6063h.353v.405h-.353v1.1487a.2571.2571,0,0,0,.0339.1662.37.37,0,0,0,.2074.0332c.0173,0,.0354,0,.0549-.0013s.0382-.0013.0568-.0031v.425l-.2693.01a.7223.7223,0,0,1-.55-.14.4144.4144,0,0,1-.0957-.3009v-1.338Z" fill="#5c5c5c"/><path d="M138.0906,121.9207v1.3105a.69.69,0,0,0,.0437.2792.3018.3018,0,0,0,.3035.1653.3967.3967,0,0,0,.3969-.2353.857.857,0,0,0,.0556-.3369v-1.1828h.5763v2.1738h-.5524v-.3071c-.0053.0066-.0186.0265-.04.06a.4063.4063,0,0,1-.0756.0877.79.79,0,0,1-.2577.1636.8768.8768,0,0,1-.2914.0438.6487.6487,0,0,1-.6481-.347,1.3266,1.3266,0,0,1-.0935-.5641v-1.3105Z" fill="#5c5c5c"/><path d="M141.1653,121.87c.0073.0009.0237.0017.049.0031v.5823c-.0359-.004-.0679-.0067-.0958-.008s-.05-.0022-.0678-.0022a.472.472,0,0,0-.4606.2234.8716.8716,0,0,0-.0659.3873v1.0388h-.5723v-2.1738h.5424V122.3a1.2,1.2,0,0,1,.2294-.2969.6241.6241,0,0,1,.4148-.1338Z" fill="#5c5c5c"/><path d="M142.9025,121.9646a.8892.8892,0,0,1,.3756.3218,1.0631,1.0631,0,0,1,.173.4493,2.7759,2.7759,0,0,1,.0189.4317h-1.5832a.5208.5208,0,0,0,.2273.4582.5741.5741,0,0,0,.3133.082.4816.4816,0,0,0,.3156-.1.4732.4732,0,0,0,.1169-.15h.58a.7092.7092,0,0,1-.2108.3931,1.0561,1.0561,0,0,1-.8178.3168,1.1853,1.1853,0,0,1-.7656-.2672,1.0538,1.0538,0,0,1-.3317-.87,1.1761,1.1761,0,0,1,.2994-.8659,1.0474,1.0474,0,0,1,.7773-.3018A1.2406,1.2406,0,0,1,142.9025,121.9646Zm-.85.491a.5911.5911,0,0,0-.1514.3368h.9792a.4754.4754,0,0,0-.1514-.3439.4989.4989,0,0,0-.3372-.1169A.4507.4507,0,0,0,142.0521,122.4556Z" fill="#5c5c5c"/><path d="M146.9512,121.1549v.5208h-.8794v2.4188h-.6182v-2.4188H144.57v-.5208Z" fill="#5c5c5c"/><path d="M147.7875,121.6615h-.5763v-.5247h.5763Zm-.5763.2592h.5763v2.1738h-.5763Z" fill="#5c5c5c"/><path d="M148.0532,122.3457v-.405h.3031v-.6063h.5624v.6063h.353v.405h-.353v1.1487a.2571.2571,0,0,0,.0339.1662.37.37,0,0,0,.2074.0332c.0173,0,.0354,0,.0549-.0013s.0381-.0013.0568-.0031v.425l-.2693.01a.7223.7223,0,0,1-.55-.14.4144.4144,0,0,1-.0957-.3009v-1.338Z" fill="#5c5c5c"/><path d="M150.1558,124.0945h-.5684v-2.94h.5684Z" fill="#5c5c5c"/><path d="M152.0654,121.9646a.89.89,0,0,1,.3756.3218,1.0657,1.0657,0,0,1,.173.4493,2.7659,2.7659,0,0,1,.0188.4317H151.05a.5211.5211,0,0,0,.2274.4582.5739.5739,0,0,0,.3133.082.4812.4812,0,0,0,.3155-.1.472.472,0,0,0,.117-.15h.58a.7092.7092,0,0,1-.2108.3931,1.0561,1.0561,0,0,1-.8178.3168,1.1851,1.1851,0,0,1-.7656-.2672,1.0538,1.0538,0,0,1-.3317-.87,1.1761,1.1761,0,0,1,.2994-.8659,1.0472,1.0472,0,0,1,.7773-.3018A1.2406,1.2406,0,0,1,152.0654,121.9646Zm-.8505.491a.5916.5916,0,0,0-.1513.3368h.9792a.4754.4754,0,0,0-.1514-.3439.4989.4989,0,0,0-.3372-.1169A.4511.4511,0,0,0,151.2149,122.4556Z" fill="#5c5c5c"/><path d="M145.6879,114.35c0,.1717-.3524.3118-.7907.3118s-.7908-.14-.7908-.3118" fill="none" stroke="#000" stroke-miterlimit="10" stroke-width="0.25"/><path d="M145.2835,113.5345a.4225.4225,0,1,1-.845,0" fill="none" stroke="#000" stroke-miterlimit="10" stroke-width="0.25"/><path d="M145.9613,111.779l.9037,1.4979a1.0552,1.0552,0,0,1,.1016.8789,1.86,1.86,0,0,1-1.5814,1.3352h-1.0709a1.8993,1.8993,0,0,1-1.6222-1.4346,1.0165,1.0165,0,0,1,.1062-.7591l.8-1.4663a.7455.7455,0,0,1,.6348-.3886l1.0709-.0271A.75.75,0,0,1,145.9613,111.779Z" fill="none" stroke="#000" stroke-miterlimit="10" stroke-width="0.25"/><path d="M146.1443,112.7505a.8878.8878,0,0,1-.8879.4s.0248-.3434.2688-.436A.8407.8407,0,0,1,146.1443,112.7505Z"/><path d="M143.5664,112.737a.888.888,0,0,0,.8879.3976s-.0248-.3412-.2688-.4361A.85.85,0,0,0,143.5664,112.737Z"/><polygon points="145.851 116.221 144.895 116.539 143.896 116.221 143.896 115.496 145.851 115.496 145.851 116.221" fill="none" stroke="#000" stroke-miterlimit="10" stroke-width="0.25"/><path d="M136.9784,117.0183s-.8337-.1265-1.1025-.1469a3.8681,3.8681,0,0,0-.9851.0271,4.4515,4.4515,0,0,0,.2079-.6371,5.0786,5.0786,0,0,0,.0813-.6168s.531.0791.7049.0768.7953-.0971.7953-.0971.0158.488.0384.6371A3.0537,3.0537,0,0,0,136.9784,117.0183Z" fill="none" stroke="#000" stroke-miterlimit="10" stroke-width="0.25"/><path d="M138.5848,114.0744a1.8663,1.8663,0,0,1-.8812.165" fill="none" stroke="#000" stroke-miterlimit="10" stroke-width="0.25"/><path d="M141.4088,114.0744a3.0937,3.0937,0,0,0,1.3556.21" fill="none" stroke="#000" stroke-miterlimit="10" stroke-width="0.25"/><path d="M141.3433,118.6336v-.6777a1.751,1.751,0,0,1,1.751-1.751h.802" fill="none" stroke="#000" stroke-linecap="round" stroke-miterlimit="10" stroke-width="0.25"/><path d="M145.8506,116.2049h.9579a1.7489,1.7489,0,0,1,1.55.9331" fill="none" stroke="#000" stroke-linecap="round" stroke-miterlimit="10" stroke-width="0.25"/><path d="M132.9682,117.5447a5.2454,5.2454,0,0,1,2.6275-.6462c1.7442,0,3.2172.73,3.6826,1.7261" fill="none" stroke="#000" stroke-linecap="round" stroke-miterlimit="10" stroke-width="0.25"/><path d="M140.7062,113.0171a2.3814,2.3814,0,0,0,.7026,1.0573v.113a1.403,1.403,0,1,1-2.8037.1126c-.0015-.0375-.0015-.0751,0-.1126l-.0226-.1084a2.3809,2.3809,0,0,0,.7026-1.0574" fill="none" stroke="#231f20" stroke-miterlimit="10" stroke-width="0.25"/><path d="M141.8946,112.4116a.5539.5539,0,0,0,.8337.0972.5651.5651,0,0,0,.1649-.5423.4948.4948,0,0,0,.5829-.1491.5422.5422,0,0,0,.0723-.5964.4926.4926,0,0,0,.5219-.3231.5357.5357,0,0,0-.1424-.6055.51.51,0,0,0,.3547-.3976.5331.5331,0,0,0-.1581-.5083.5108.5108,0,0,0,.3615-.5039.52.52,0,0,0-.3931-.5241.5309.5309,0,0,0,.1784-.5784.5015.5015,0,0,0-.4631-.3705.5332.5332,0,0,0,.12-.6281.4969.4969,0,0,0-.6077-.2914.5422.5422,0,0,0-.07-.662.4969.4969,0,0,0-.6777-.0339.54.54,0,0,0-.1853-.6077.4879.4879,0,0,0-.6258.0158.5151.5151,0,0,0-.9986-.1424,1.1112,1.1112,0,0,1-.0271-.1378.5037.5037,0,0,0-.732-.3705.5242.5242,0,0,0-.2757.4519.1825.1825,0,0,1-.0135.0587.52.52,0,0,0-1.0054.1446.4789.4789,0,0,0-.5851-.0407.5356.5356,0,0,0-.226.6326.49.49,0,0,0-.6552,0,.54.54,0,0,0-.1084.6778.4879.4879,0,0,0-.56.2056.9768.9768,0,0,1-.4164,1.3139.538.538,0,0,0,.1973.367.52.52,0,0,0-.3864.5106.5128.5128,0,0,0,.3592.52.5377.5377,0,0,0-.1581.5061l.0768.2508" fill="none" stroke="#231f20" stroke-miterlimit="10" stroke-width="0.25"/><path d="M140.539,113.173a1.0145,1.0145,0,0,1-1.0008,0l-.2486-.1469c-.558-.3479-1.2358-.802-1.2358-1.0324v-2.3723a1.3668,1.3668,0,0,1,.5942-1.13,5.4166,5.4166,0,0,1,.8021-.4677,1.5812,1.5812,0,0,1,1.2584,0,5.16,5.16,0,0,1,.7952.4654,1.367,1.367,0,0,1,.59,1.13v2.3745C142.0957,112.2625,141.1468,112.8318,140.539,113.173Z" fill="none" stroke="#231f20" stroke-miterlimit="10" stroke-width="0.25"/><path d="M141.1309,111.5418c0,.3344-.497.7907-1.08.7907a1.0031,1.0031,0,0,1-1.03-.7907" fill="none" stroke="#000" stroke-miterlimit="10" stroke-width="0.25"/><path d="M140.6565,111.0244a.58.58,0,0,1-1.1319,0" fill="none" stroke="#000" stroke-miterlimit="10" stroke-width="0.25"/><path d="M142.1047,109.5988v.0475h-4.0509v.7184a1.0979,1.0979,0,0,0,1.06.4925,1.2062,1.2062,0,0,0,.9692-.6777,1.13,1.13,0,0,0,2.02.1129v-.6936Zm-.488.2576a.1.1,0,0,1,.0678.1446.1407.1407,0,0,1-.0271.0361l-.4858.4835a.2256.2256,0,0,1-.0655.0407.1063.1063,0,0,1-.1152-.0565.0926.0926,0,0,1,0-.0994.1188.1188,0,0,1,.0226-.0249l.5015-.4857A.1086.1086,0,0,1,141.6167,109.8564Zm-1.0076.3389c.0406-.0452.0836-.0881.1287-.1311s.1175-.122.1785-.1784a.0995.0995,0,0,1,.1695.0474.0928.0928,0,0,1-.0271.0926l-.2938.305a.2222.2222,0,0,1-.0542.0294.1108.1108,0,0,1-.1062-.0565A.0926.0926,0,0,1,140.6091,110.1953Zm-1.2178-.3a.1017.1017,0,1,1,.1423.1423l-.4993.4971a.0972.0972,0,0,1-.1129.0271.1174.1174,0,0,1-.0678-.0972.2654.2654,0,0,1,.0384-.07Zm-.9195.314a.3983.3983,0,0,1,.0429-.0452l.26-.2688a.1039.1039,0,0,1,.1468-.0068l.0069.0068a.0994.0994,0,0,1,.0112.14l-.0112.0113-.287.2869a.2248.2248,0,0,1-.0632.0384.1.1,0,0,1-.104-.0565.0927.0927,0,0,1-.0022-.113Z"/><rect x="132.2927" y="102.1003" width="16.5808" height="16.5921" rx="2.8941" fill="none" stroke="#231f20" stroke-miterlimit="10" stroke-width="0.25"/><path d="M135.8533,113.25H135.6a.5915.5915,0,0,0,.1558.4044.531.531,0,0,0,.3909.1717h0a.56.56,0,0,0,.5513-.5691v-.0025h-.2531a.3094.3094,0,0,1-.2959.3208h0a.2841.2841,0,0,1-.2056-.0926.3357.3357,0,0,1-.0881-.2259Z"/><path d="M136.1108,114.6754a.8286.8286,0,0,1-.4834-.1491.4022.4022,0,0,1-.1785-.314h-.2531a.6441.6441,0,0,0,.28.5151,1.0506,1.0506,0,0,0,.6326.201h0a.8205.8205,0,0,0,.9037-.7094h-.235C136.7751,114.4676,136.4723,114.6731,136.1108,114.6754Z"/><path d="M135.6387,112.59c.02.1243-.0136.1559-.0136.1559h.2666a.3625.3625,0,0,0,0-.2079.3356.3356,0,0,0-.0316-.0949h0a.5943.5943,0,0,0-.6394-.2891.6639.6639,0,0,0-.3931.1988.6022.6022,0,0,0-.0949.1468h0a.4166.4166,0,0,0-.0339.1311.1117.1117,0,0,0,0,.0271.6215.6215,0,0,0,0,.1039h.2643a.0984.0984,0,0,1,0-.02V112.71a.226.226,0,0,1,.0656-.1807.4177.4177,0,0,1,.244-.12A.3208.3208,0,0,1,135.6387,112.59Z"/><path d="M137.376,112.5878c.02.122-.0135.1537-.0135.1537h.2666a.3591.3591,0,0,0,0-.2079.5086.5086,0,0,0-.0294-.0949h0a.5851.5851,0,0,0-.63-.2914.6621.6621,0,0,0-.3909.1965.4966.4966,0,0,0-.0949.1469h0a.4187.4187,0,0,0-.0339.131v.0249a.6009.6009,0,0,0,0,.1039h.2644a.0862.0862,0,0,1,0-.02v-.0339a.2126.2126,0,0,1,.0655-.1785.4039.4039,0,0,1,.2417-.12C137.1885,112.3642,137.3625,112.4523,137.376,112.5878Z"/><path d="M137.6494,110.611a1.3912,1.3912,0,0,0-.7049-.479,4.45,4.45,0,0,0-1.1929-.1875c-1.3126.0316-2.07.84-2.3022,2.4965,0,.09-.02.183-.0226.2756l-.1694,4.7716.253-.2259.1695-4.5457a2.34,2.34,0,0,1,.02-.2508,2.9066,2.9066,0,0,1,.8246-1.8639,1.8279,1.8279,0,0,0-.4857,1.2562v1.74a6.2762,6.2762,0,0,0,1.0122,1.99,1.6133,1.6133,0,0,0,.9037.2259h.2417a1.55,1.55,0,0,0,.9037-.2259,6.2406,6.2406,0,0,0,1.0144-1.99v-1.74A1.8068,1.8068,0,0,0,137.6494,110.611Zm-3.355,1.2539a1.4777,1.4777,0,0,1,1.4211-1.5183h.5445c-.2847.2825-.6643.6485-.967.9038a11.883,11.883,0,0,0-.9963.9692Zm3.5832,1.6809a5.96,5.96,0,0,1-.9263,1.8526,1.5089,1.5089,0,0,1-.8653.1694,1.3155,1.3155,0,0,1-.863-.1694,6.0359,6.0359,0,0,1-.9263-1.8526v-.9647a13.4639,13.4639,0,0,1,1.1612-1.15c.3728-.3163.8631-.7953,1.1522-1.0845a1.3789,1.3789,0,0,1,.8541.4383,1.5575,1.5575,0,0,1,.4157,1.08Z"/><path d="M144.4611,110.7059l-.0813-.1333c-.2034.2575-.59.8043-.7365,1.0121.1287-.1694.35-.3795.5286-.3795h1.2923a.6053.6053,0,0,1,.4971.2846l.6416,1.028a.79.79,0,0,0,.2869-.9986,2.9368,2.9368,0,0,0-.54-1.0212,6.5,6.5,0,0,1,.9692.6778.1959.1959,0,0,0,.131.0474.2076.2076,0,0,0,.1582-.0723.1966.1966,0,0,0-.0208-.2772l-.0063-.0052c-.85-.6981-1.2381-.8223-1.4076-.8223h-.0429a.6555.6555,0,0,0-.2011.0655c-.0406-.0294-.0836-.0565-.1287-.0836a1.151,1.151,0,0,1,.2688-.2259.9324.9324,0,0,1,.4767-.1175,2.3287,2.3287,0,0,1,.9421.253.1832.1832,0,0,0,.0972.0249.2057.2057,0,0,0,.1807-.104.201.201,0,0,0-.0788-.2732l0,0a2.6926,2.6926,0,0,0-1.141-.3028,1.3409,1.3409,0,0,0-.6778.1717,1.5825,1.5825,0,0,0-.4518.3864c-.061-.0226-.122-.0407-.1875-.0588a1.0688,1.0688,0,0,1,.7591-.6778,1.14,1.14,0,0,1,.3-.0361,2.4049,2.4049,0,0,1,.49.0542h.0475a.2011.2011,0,0,0,.0452-.3976,2.8558,2.8558,0,0,0-.5807-.0633,1.5156,1.5156,0,0,0-.4179.052,1.4841,1.4841,0,0,0-.8721.6213v-.6462a.2056.2056,0,0,0-.4112,0v.653a.0262.0262,0,0,0-.0226-.0249c-.0045,0,0,.2259-.0407.2259a.0493.0493,0,0,1-.0271-.0135,1.0951,1.0951,0,0,0-.1739-.1378.721.721,0,0,0,.09.1287c.0746.0927.3163.5536.2553.5762l-.1129.2078.1378.0859Z" fill="none"/><path d="M143.632,111.587a.8237.8237,0,0,0-.0588.0858Z"/><path d="M144.4,108.6206a.3616.3616,0,0,1,.4067-.3593.4315.4315,0,0,1,.4315.427v.0927a1.8749,1.8749,0,0,1,.5852-.28,1.7785,1.7785,0,0,1,.4789-.0587,3.1057,3.1057,0,0,1,.6281.0678.4221.4221,0,0,1,.2711.192.4159.4159,0,0,1,.0542.3231.4832.4832,0,0,1-.0519.1265,3.2339,3.2339,0,0,1,.5987.2259.4294.4294,0,0,1,.2056.26.4209.4209,0,0,1-.0384.3254.436.436,0,0,1-.5829.1649,2.0853,2.0853,0,0,0-.8043-.2259,5.2825,5.2825,0,0,1,1.1477.77.4247.4247,0,0,1,.0632.5973l-.0067.0082a.4271.4271,0,0,1-.33.1513.42.42,0,0,1-.2734-.0971c-.05-.0407-.0994-.0813-.1513-.12.0316.0814.0587.16.0813.226a1.0239,1.0239,0,0,1-.4,1.2674l-.1378.0746" fill="none" stroke="#000" stroke-miterlimit="10" stroke-width="0.25"/><line x1="134.6536" y1="114.8471" x2="134.6536" y2="116.3427" fill="none" stroke="#231f20" stroke-linecap="round" stroke-miterlimit="10" stroke-width="0.25"/><line x1="134.1656" y1="112.2422" x2="134.1656" y2="115.8434" fill="none" stroke="#231f20" stroke-linecap="round" stroke-miterlimit="10" stroke-width="0.25"/><path d="M147.2039,109.1515a2.4352,2.4352,0,0,0-1.5431.0858" fill="none" stroke="#000" stroke-linecap="round" stroke-miterlimit="10" stroke-width="0.25"/></svg>