<?xml version="1.0" encoding="utf-8"?><svg height="227" viewBox="0 0 279 227" width="279" xmlns="http://www.w3.org/2000/svg" xmlns:xlink="http://www.w3.org/1999/xlink"><clipPath id="a"><path d="m59.8531 107h82v58h-82z"/></clipPath><clipPath id="b"><path clip-rule="evenodd" d="m77.056 148.778 16.222 7.784 23.4-28.562 25.175 36.812-82 .188z"/></clipPath><clipPath id="c"><path d="m-.1469 0h279v227h-279z"/></clipPath><clipPath id="d"><path clip-rule="evenodd" d="m93.8531 134a1.8852 1.8852 0 0 1 -.9783-.2762l-4.0448-2.4678a2.0927 2.0927 0 0 1 -.977-1.7882v-4.9344a2.0948 2.0948 0 0 1 .977-1.7894l4.0447-2.4678a1.8684 1.8684 0 0 1 1.9553 0l4.0459 2.4678a2.0949 2.0949 0 0 1 .9771 1.7894v4.9344a2.0928 2.0928 0 0 1 -.9771 1.7882l-4.0459 2.4678a1.8807 1.8807 0 0 1 -.977.2762"/></clipPath><clipPath id="e"><path clip-rule="evenodd" d="m93.5838 121a1.5056 1.5056 0 0 1 .7193.183l4.2153 2.3154a1.3635 1.3635 0 0 1 .7193 1.1856v4.63a1.3624 1.3624 0 0 1 -.7193 1.1867l-4.2153 2.3155a1.4994 1.4994 0 0 1 -1.44 0l-4.2138-2.3162a1.36 1.36 0 0 1 -.7193-1.1867v-4.63a1.3611 1.3611 0 0 1 .7193-1.1856l4.2141-2.3154a1.5133 1.5133 0 0 1 .72-.183m.2693-1a2.8948 2.8948 0 0 0 -1.347.3289l-4.3069 2.2718a2.4268 2.4268 0 0 0 -1.3457 2.1284v4.541a2.4272 2.4272 0 0 0 1.3457 2.13l4.3073 2.2711a2.9115 2.9115 0 0 0 2.6927 0l4.3085-2.2711a2.4271 2.4271 0 0 0 1.3458-2.13v-4.541a2.4267 2.4267 0 0 0 -1.3458-2.1284l-4.3085-2.2711a2.89 2.89 0 0 0 -1.3457-.3289"/></clipPath><clipPath id="f"><path d="m152.8531 173h55v39h-55z"/></clipPath><clipPath id="g"><path clip-rule="evenodd" d="m164.392 201.039 10.88 5.26 15.695-19.299 16.886 24.873-55 .127z"/></clipPath><clipPath id="h"><path clip-rule="evenodd" d="m176.3531 192a1.4673 1.4673 0 0 1 -.7337-.1973l-3.0335-1.7627a1.4793 1.4793 0 0 1 -.7328-1.2773v-3.5246a1.4808 1.4808 0 0 1 .7328-1.2781l3.0335-1.7627a1.4612 1.4612 0 0 1 1.4665 0l3.0341 1.7627a1.4808 1.4808 0 0 1 .7328 1.2781v3.5246a1.4793 1.4793 0 0 1 -.7328 1.2773l-3.0344 1.7627a1.464 1.464 0 0 1 -.7328.1973"/></clipPath><clipPath id="i"><path clip-rule="evenodd" d="m176.18 182.7143a.8924.8924 0 0 1 .4624.1307l2.71 1.6539a.993.993 0 0 1 .4624.8468v3.307a.9925.9925 0 0 1 -.4624.8476l-2.71 1.6539a.88.88 0 0 1 -.9255 0l-2.7091-1.6542a.9909.9909 0 0 1 -.4624-.8476v-3.307a.9914.9914 0 0 1 .4624-.8468l2.7091-1.6539a.8973.8973 0 0 1 .4631-.1307m.1731-.7143a1.7127 1.7127 0 0 0 -.8659.2349l-2.769 1.6222a1.76 1.76 0 0 0 -.8651 1.52v3.2436a1.76 1.76 0 0 0 .8651 1.5211l2.769 1.6222a1.7069 1.7069 0 0 0 1.731 0l2.77-1.6222a1.76 1.76 0 0 0 .8651-1.5211v-3.2436a1.76 1.76 0 0 0 -.8651-1.52l-2.77-1.6222a1.71 1.71 0 0 0 -.8651-.2349"/></clipPath><clipPath id="j"><path d="m152.6163 5.9836h56.4737v88.5242h-56.4737z"/></clipPath><clipPath id="k"><path d="m151.8531 5h58v89.2241h-58z"/></clipPath><clipPath id="l"><path clip-rule="evenodd" d="m154.143 94.777 12.882-28.966 10.866 13.036 13.95-34.501 16.486 50.431z"/></clipPath><clipPath id="m"><path clip-rule="evenodd" d="m161.9877 23.6345v5.0085a5.3136 5.3136 0 0 0 2.707 4.6151l4.4064 2.5023a5.488 5.488 0 0 0 5.414 0l4.4064-2.5023a5.3136 5.3136 0 0 0 2.707-4.6151v-5.0085a5.3074 5.3074 0 0 0 -2.707-4.6111l-4.4064-2.5062a5.488 5.488 0 0 0 -5.414 0l-4.4064 2.5062a5.3074 5.3074 0 0 0 -2.707 4.6111"/></clipPath><clipPath id="n"><ellipse cx="69.3531" cy="52.6087" rx="2.5" ry="2.6087"/></clipPath><clipPath id="o"><ellipse cx="69.3531" cy="60.4348" rx="2.5" ry="2.6087"/></clipPath><clipPath id="p"><ellipse cx="69.3531" cy="67.3913" rx="2.5" ry="2.6087"/></clipPath><clipPath id="q"><path d="m152.8531 158.25h55.7667"/></clipPath><g clip-path="url(#a)"><path d="m54.8531 102h92v68h-92z" fill="#819fb3"/></g><g clip-path="url(#b)"><g clip-path="url(#c)"><path d="m54.8531 123h92v47h-92z" fill="#eef8ff" opacity=".73"/></g></g><g clip-path="url(#d)"><g clip-path="url(#c)"><path d="m82.8531 115h22v24h-22z" fill="#fefefe"/></g></g><g clip-path="url(#e)"><g clip-path="url(#c)"><path d="m81.8531 115h24v24h-24z" fill="#c8282c"/></g></g><g clip-path="url(#f)"><path d="m147.8531 168h65v49h-65z" fill="#819fb3"/></g><g clip-path="url(#g)"><g clip-path="url(#c)"><path d="m147.8531 182h65v35h-65z" fill="#eef8ff" opacity=".73"/></g></g><g clip-path="url(#h)"><g clip-path="url(#c)"><path d="m166.8531 177h19v20h-19z" fill="#fefefe"/></g></g><g clip-path="url(#i)"><g clip-path="url(#c)"><path d="m166.8531 177h19v20h-19z" fill="#c8282c"/></g></g><g clip-path="url(#c)"><g fill="none" stroke="#121212" stroke-linecap="square" stroke-miterlimit="10"><path d="m62.3531 11.5h65.8254"/><path d="m62.3531 30.5h65.8254"/><path d="m62.3531 5.5h65.8254"/><path d="m62.3531 23.5h65.8254"/><path d="m62.3531 17.5h65.725"/><path d="m62.3531 36.5h65.725"/><path d="m61.3531 42.2874 44.7.25"/><path d="m73.0137 195.4917h67.6563"/><path d="m73.0137 201.8139h67.6563"/><path d="m73.0137 208.1362h67.6563"/><path d="m67.5068 193.9111v15.8056" stroke-width="3.4485"/></g><path d="m59.8672 194.6338a2.6435 2.6435 0 0 1 .522-1.73 2.5158 2.5158 0 0 1 1.521-.8311v.7588a1.511 1.511 0 0 0 -1 .8028 1.299 1.299 0 0 0 -.1093.62h1.1455v1.9189h-2.08zm3.4585 0a2.3518 2.3518 0 0 1 2.0434-2.5606v.7588a1.4748 1.4748 0 0 0 -.9926.8164 1.155 1.155 0 0 0 -.1167.6065h1.1455v1.9189h-2.08z" fill="#121212"/><path d="m60.8531 169.5h28.9232" fill="none" stroke="#121212" stroke-linecap="square" stroke-miterlimit="10"/><path d="m110.8531 169.5h28.9232" fill="none" stroke="#121212" stroke-linecap="square" stroke-miterlimit="10"/><path d="m60.8531 175.25h28.8791" fill="none" stroke="#121212" stroke-linecap="square" stroke-miterlimit="10"/><path d="m110.8531 175.25h28.8791" fill="none" stroke="#121212" stroke-linecap="square" stroke-miterlimit="10"/><path d="m60.8531 180.2874 19.8666.25" fill="none" stroke="#121212" stroke-linecap="square" stroke-miterlimit="10"/><path d="m110.8531 180.2874 19.8666.25" fill="none" stroke="#121212" stroke-linecap="square" stroke-miterlimit="10"/></g><g clip-path="url(#j)"><path d="m147.6163.9836h66.4736v98.5242h-66.4736z" fill="#63cae4"/></g><g clip-path="url(#k)"><path d="m146.8531 0h68v99.2241h-68z" fill="#819fb3"/></g><g clip-path="url(#l)"><g clip-path="url(#c)"><path d="m149.1426 39.346h64.1842v60.431h-64.1842z" fill="#d0e0ea"/></g></g><g clip-path="url(#m)"><g clip-path="url(#c)"><path d="m156.9877 10.8031h29.6408v30.6714h-29.6408z" fill="#fefefe"/></g></g><g clip-path="url(#c)" fill="none" stroke-miterlimit="10"><path d="m161.9877 23.6346v5.0085a5.3135 5.3135 0 0 0 2.7069 4.615l4.4064 2.5019a5.488 5.488 0 0 0 5.414 0l4.4064-2.5023a5.3134 5.3134 0 0 0 2.707-4.615v-5.0081a5.3072 5.3072 0 0 0 -2.707-4.6112l-4.4064-2.5062a5.488 5.488 0 0 0 -5.414 0l-4.4064 2.5062a5.3073 5.3073 0 0 0 -2.7069 4.6112z" stroke="#c8282c" stroke-width="2.0691"/><g stroke="#121212" stroke-linecap="square"><path d="m78.8531 68.4479h29"/><path d="m78.8531 60.7979h29"/><path d="m78.8531 53.1479h29"/></g></g><g clip-path="url(#n)"><g clip-path="url(#c)"><path d="m61.8531 45h15v15.2174h-15z" fill="#121212"/></g></g><g clip-path="url(#o)"><g clip-path="url(#c)"><path d="m61.8531 52.8261h15v15.2174h-15z" fill="#121212"/></g></g><g clip-path="url(#p)"><g clip-path="url(#c)"><path d="m61.8531 59.7826h15v15.2174h-15z" fill="#121212"/></g></g><g clip-path="url(#c)" fill="none" stroke="#121212" stroke-linecap="square" stroke-miterlimit="10"><path d="m62.3531 79.5h65.725"/><path d="m61.3531 85.2874 44.7.25"/><path d="m152.8531 108.5h55.8518"/><path d="m152.8531 136.5h55.8518"/><path d="m152.8531 131h55.8518"/><path d="m152.8531 114.25h55.7666"/><path d="m152.8531 119.2874 38.7399.25"/><path d="m152.8531 152.5h55.8518"/></g><g clip-path="url(#q)"><g clip-path="url(#c)"><path d="m147.8531 153.25h65.7667v10h-65.7667z" fill="#d8d8d8"/></g></g><g clip-path="url(#c)" fill="none" stroke="#121212" stroke-linecap="square" stroke-miterlimit="10"><path d="m152.8531 158.25h55.7666"/><path d="m152.8531 163.2874 38.7399.25"/><path d="m153.3531 216.5h55"/><path d="m153.3531 220.875 43-.375"/><path d="m152.8531 141.2874 38.7399.25"/></g></svg>
