<svg xmlns="http://www.w3.org/2000/svg" xmlns:xlink="http://www.w3.org/1999/xlink" width="279" height="227" viewBox="0 0 279 227"><defs><clipPath id="a"><rect x="-7.9397" y="-7.3311" width="294.8794" height="241.6622" fill="none"/></clipPath><clipPath id="b"><path d="M43.754,135.3489H63.87c.7936,0,1.4369,1.0191,1.4369,2.2763v1.821c0,1.2572-.6433,2.2764-1.4369,2.2764H43.754c-.7936,0-1.4369-1.0192-1.4369-2.2764v-1.821C42.3171,136.368,42.96,135.3489,43.754,135.3489Z" fill="none" clip-rule="evenodd"/></clipPath><clipPath id="c"><rect x="18.8171" y="30.7903" width="139.5" height="179.809" fill="none"/></clipPath><clipPath id="d"><rect x="3.7848" y="22.6818" width="204.3747" height="166.2833" fill="none"/></clipPath><clipPath id="e"><rect x="3" y="-0.6542" width="218.0268" height="227" fill="none"/></clipPath></defs><g clip-path="url(#a)"><rect x="-13.2243" y="-31.8167" width="305.4486" height="290.6333" fill="#dfdfdf"/></g><rect x="13.7611" y="70.8496" width="81.5703" height="83.739" fill="#fff"/><g clip-path="url(#b)"><g clip-path="url(#c)"><rect x="39.8171" y="131.3883" width="27.99" height="14.2948"/></g></g><g clip-path="url(#d)"><path d="M22.6734,84.633h3.3833v.8341H23.6584v1.091h2.1021v.8241H23.6584v1.9894h-.985Z" fill="#5c5c5c"/><path d="M28.8144,85.9336a1.434,1.434,0,0,1,.6062.5193,1.72,1.72,0,0,1,.2794.7254,4.4709,4.4709,0,0,1,.03.6967H27.1748a.8406.8406,0,0,0,.367.74.9258.9258,0,0,0,.5057.1324.7762.7762,0,0,0,.5093-.161.7645.7645,0,0,0,.1889-.2418h.9368a1.1441,1.1441,0,0,1-.34.6345,1.7048,1.7048,0,0,1-1.32.5115,1.914,1.914,0,0,1-1.2358-.4313,1.7012,1.7012,0,0,1-.5354-1.405,1.8987,1.8987,0,0,1,.4832-1.3978,1.6909,1.6909,0,0,1,1.2548-.4872A2.0016,2.0016,0,0,1,28.8144,85.9336Zm-1.3728.7926a.9545.9545,0,0,0-.2443.5436h1.5806a.7675.7675,0,0,0-.2443-.5551.805.805,0,0,0-.5444-.1888A.7274.7274,0,0,0,27.4416,86.7262Z" fill="#5c5c5c"/><path d="M31.4848,87.2369a1.4228,1.4228,0,0,0,.3666-.08.2754.2754,0,0,0,.1978-.26.3093.3093,0,0,0-.1516-.2983.9655.9655,0,0,0-.4457-.0822.5843.5843,0,0,0-.4664.1616.6594.6594,0,0,0-.1306.3219H29.97a1.3426,1.3426,0,0,1,.2586-.7568,1.5081,1.5081,0,0,1,1.2544-.4636,2.2376,2.2376,0,0,1,1.0283.229.8767.8767,0,0,1,.4492.8627V88.48c0,.1116.0022.2468.0065.4049a.5044.5044,0,0,0,.0547.2447.3238.3238,0,0,0,.1352.1066v.1352h-.9979a1.03,1.03,0,0,1-.058-.2q-.016-.0934-.0257-.2125a1.8782,1.8782,0,0,1-.44.35,1.33,1.33,0,0,1-.6735.171,1.1634,1.1634,0,0,1-.7916-.2718.9678.9678,0,0,1-.3126-.7712.9984.9984,0,0,1,.5025-.9364,2.2616,2.2616,0,0,1,.8109-.226Zm.5612.4285a1.0342,1.0342,0,0,1-.1778.0887,1.48,1.48,0,0,1-.2464.0623l-.2089.0386a1.3976,1.3976,0,0,0-.4217.1259.4192.4192,0,0,0-.2167.3892.4057.4057,0,0,0,.1323.34.5016.5016,0,0,0,.3219.1051.9586.9586,0,0,0,.554-.1745.7352.7352,0,0,0,.2633-.6338Z" fill="#5c5c5c"/><path d="M33.3025,86.5488v-.6539h.4893v-.9786H34.7v.9786h.57v.6539H34.7V88.403a.4152.4152,0,0,0,.0547.2682.5971.5971,0,0,0,.3348.0537c.0279,0,.0573-.0007.0887-.0022s.0616-.0021.0916-.005v.6861l-.4346.0164a1.1665,1.1665,0,0,1-.8885-.226.6692.6692,0,0,1-.1545-.4858v-2.16Z" fill="#5c5c5c"/><path d="M36.6736,85.8627V87.978a1.1172,1.1172,0,0,0,.0705.4507.4873.4873,0,0,0,.49.2669.64.64,0,0,0,.6406-.38,1.3818,1.3818,0,0,0,.09-.5437V85.8627h.93v3.5089h-.8917v-.4958c-.0085.0108-.03.0429-.064.0966a.6515.6515,0,0,1-.122.1416,1.2741,1.2741,0,0,1-.4159.264,1.4139,1.4139,0,0,1-.47.0708,1.0475,1.0475,0,0,1-1.0462-.56,2.1417,2.1417,0,0,1-.1509-.9107V85.8627Z" fill="#5c5c5c"/><path d="M41.6368,85.7805c.0118.0014.0383.0028.079.005v.94q-.0869-.01-.1545-.0129c-.045-.0022-.0815-.0036-.1094-.0036a.7621.7621,0,0,0-.7436.3605,1.4073,1.4073,0,0,0-.1063.6253v1.6768h-.9239V85.8627h.8756v.6117a1.9368,1.9368,0,0,1,.37-.4793,1.008,1.008,0,0,1,.67-.2161C41.6107,85.779,41.625,85.78,41.6368,85.7805Z" fill="#5c5c5c"/><path d="M44.441,85.9336a1.4348,1.4348,0,0,1,.6063.5193,1.7208,1.7208,0,0,1,.2793.7254,4.4584,4.4584,0,0,1,.03.6967H42.8014a.8406.8406,0,0,0,.367.74.9258.9258,0,0,0,.5057.1324.7767.7767,0,0,0,.5094-.161.7643.7643,0,0,0,.1888-.2418h.9368a1.1441,1.1441,0,0,1-.34.6345,1.7048,1.7048,0,0,1-1.32.5115,1.9138,1.9138,0,0,1-1.2357-.4313,1.7009,1.7009,0,0,1-.5355-1.405,1.8992,1.8992,0,0,1,.4832-1.3978,1.6909,1.6909,0,0,1,1.2548-.4872A2.0016,2.0016,0,0,1,44.441,85.9336Zm-1.3728.7926a.9545.9545,0,0,0-.2443.5436h1.5806a.7675.7675,0,0,0-.2443-.5551.805.805,0,0,0-.5444-.1888A.7275.7275,0,0,0,43.0682,86.7262Z" fill="#5c5c5c"/><path d="M50.9765,84.6266v.8405h-1.42v3.9045h-.998V85.4671h-1.426v-.8405Z" fill="#5c5c5c"/><path d="M52.3264,85.4443h-.93v-.847h.93Zm-.93.4184h.93v3.5089h-.93Z" fill="#5c5c5c"/><path d="M52.7552,86.5488v-.6539h.4893v-.9786h.9078v.9786h.57v.6539h-.57V88.403a.4152.4152,0,0,0,.0547.2682.5971.5971,0,0,0,.3348.0537c.0279,0,.0573-.0007.0887-.0022s.0616-.0021.0916-.005v.6861l-.4346.0164a1.1661,1.1661,0,0,1-.8884-.226.6687.6687,0,0,1-.1546-.4858v-2.16Z" fill="#5c5c5c"/><path d="M56.1492,89.3716h-.9174v-4.745h.9174Z" fill="#5c5c5c"/><path d="M59.2317,85.9336a1.4336,1.4336,0,0,1,.6063.5193,1.7182,1.7182,0,0,1,.2793.7254,4.4584,4.4584,0,0,1,.03.6967H57.5921a.8408.8408,0,0,0,.367.74.9261.9261,0,0,0,.5058.1324.7766.7766,0,0,0,.5093-.161.7643.7643,0,0,0,.1888-.2418H60.1a1.1445,1.1445,0,0,1-.34.6345,1.705,1.705,0,0,1-1.32.5115,1.9138,1.9138,0,0,1-1.2358-.4313,1.7009,1.7009,0,0,1-.5355-1.405,1.8988,1.8988,0,0,1,.4833-1.3978,1.6905,1.6905,0,0,1,1.2547-.4872A2.0013,2.0013,0,0,1,59.2317,85.9336Zm-1.3728.7926a.9545.9545,0,0,0-.2442.5436h1.5805a.7675.7675,0,0,0-.2443-.5551.8049.8049,0,0,0-.5443-.1888A.7276.7276,0,0,0,57.8589,86.7262Z" fill="#5c5c5c"/></g><g clip-path="url(#e)"><line x1="21.9081" y1="103.9121" x2="87.4616" y2="104.1668" fill="none" stroke="#5c5c5c" stroke-linecap="square" stroke-miterlimit="10"/><line x1="22.5107" y1="98.6378" x2="88.0642" y2="98.8926" fill="none" stroke="#5c5c5c" stroke-linecap="square" stroke-miterlimit="10"/><line x1="21.9081" y1="109.0074" x2="87.4616" y2="109.2622" fill="none" stroke="#5c5c5c" stroke-linecap="square" stroke-miterlimit="10"/><line x1="21.9081" y1="118.3541" x2="87.4616" y2="118.6088" fill="none" stroke="#5c5c5c" stroke-linecap="square" stroke-miterlimit="10"/><line x1="21.9081" y1="123.8799" x2="77.6674" y2="124.0823" fill="none" stroke="#5c5c5c" stroke-linecap="square" stroke-miterlimit="10"/></g><rect x="122.774" y="83.0135" width="14.774" height="15.3772" rx="3.2115" fill="none" stroke="#231f20" stroke-linecap="round" stroke-miterlimit="10" stroke-width="0.25"/><path d="M132.9186,96.3776a1.1046,1.1046,0,0,1-.5556.1483h-4.311a1.1133,1.1133,0,0,1-1.1134-1.1133V85.8572a1.1134,1.1134,0,0,1,1.1134-1.1114h4.3129a1.1134,1.1134,0,0,1,1.1134,1.1114v7.6036" fill="none" stroke="#000" stroke-miterlimit="10" stroke-width="0.25"/><circle cx="129.2306" cy="85.6516" r="0.2155" fill="none" stroke="#000" stroke-miterlimit="10" stroke-width="0.25"/><line x1="129.8317" y1="85.6516" x2="131.481" y2="85.6516" fill="none" stroke="#000" stroke-linecap="round" stroke-miterlimit="10" stroke-width="0.25"/><polyline points="131.629 93.599 127.443 93.599 127.443 86.482 132.97 86.482 132.97 92.8" fill="none" stroke="#000" stroke-miterlimit="10" stroke-width="0.25"/><circle cx="130.2075" cy="95.0289" r="0.7515" fill="none" stroke="#000" stroke-miterlimit="10" stroke-width="0.25"/><path d="M134.9357,90.627,133.48,88.0562v5.4975l-1.5109-2.0883a.791.791,0,0,0-1.1865,1.0145l1.675,2.27c-.0613.31-.2769,1.79,1.226,1.79h1.45V91.3211A1.408,1.408,0,0,0,134.9357,90.627Z" fill="none" stroke="#000" stroke-miterlimit="10" stroke-width="0.25"/><path d="M131.0321,92.8023h-1.9993a.631.631,0,0,1-.6229-.6387V90.8544a.6308.6308,0,0,1,.6229-.6229h2.3434a.6308.6308,0,0,1,.6308.6308v.74" fill="none" stroke="#000" stroke-miterlimit="10" stroke-width="0.25"/><line x1="128.9814" y1="92.037" x2="130.6386" y2="92.037" fill="none" stroke="#000" stroke-miterlimit="10" stroke-width="0.25"/><line x1="129.0249" y1="90.981" x2="131.3445" y2="90.981" fill="none" stroke="#000" stroke-miterlimit="10" stroke-width="0.25"/><line x1="129.7546" y1="88.6257" x2="131.5581" y2="88.6257" fill="none" stroke="#000" stroke-miterlimit="10" stroke-width="0.25"/><line x1="129.7863" y1="87.9652" x2="131.5581" y2="87.9652" fill="none" stroke="#000" stroke-miterlimit="10" stroke-width="0.25"/><path d="M131.5621,87.3226h-1.73a.4469.4469,0,0,0-.4469.4429l-.0118.884-.3955,1.0144.961-.4706,1.6354-.0139a.4449.4449,0,0,0,.445-.4449v-.9631a.4488.4488,0,0,0-.4488-.4489Z" fill="none" stroke="#000" stroke-linecap="round" stroke-miterlimit="10" stroke-width="0.25"/><path d="M118.553,102.4205h2.0959v.5168h-1.4857v.6758h1.3022v.51h-1.3022v1.2324h-.61Z" fill="#5c5c5c"/><path d="M122.3573,103.2262a.8884.8884,0,0,1,.3756.3217,1.064,1.064,0,0,1,.173.4494,2.762,2.762,0,0,1,.0189.4316h-1.5832a.5208.5208,0,0,0,.2273.4583.5741.5741,0,0,0,.3133.082.4816.4816,0,0,0,.3156-.1.4748.4748,0,0,0,.117-.15h.58a.7084.7084,0,0,1-.2107.393,1.0565,1.0565,0,0,1-.8179.3169,1.1859,1.1859,0,0,1-.7656-.2672,1.0538,1.0538,0,0,1-.3317-.87,1.1761,1.1761,0,0,1,.2994-.8659,1.0474,1.0474,0,0,1,.7773-.3018A1.2406,1.2406,0,0,1,122.3573,103.2262Zm-.85.491a.5917.5917,0,0,0-.1514.3368h.9792a.4757.4757,0,0,0-.1513-.3439.4989.4989,0,0,0-.3373-.117A.45.45,0,0,0,121.5069,103.7172Z" fill="#5c5c5c"/><path d="M124.0116,104.0336a.8833.8833,0,0,0,.2272-.05.1707.1707,0,0,0,.1225-.1613.1914.1914,0,0,0-.094-.1848.5966.5966,0,0,0-.276-.051.362.362,0,0,0-.289.1.4091.4091,0,0,0-.0809.1994h-.5484a.8328.8328,0,0,1,.16-.4689.9343.9343,0,0,1,.7771-.2871,1.3864,1.3864,0,0,1,.6371.1418.5432.5432,0,0,1,.2783.5344v.9972c0,.0691.0013.1529.004.2508a.3113.3113,0,0,0,.0339.1516.2008.2008,0,0,0,.0837.066v.0837h-.6182a.6329.6329,0,0,1-.0359-.1236c-.0066-.0386-.012-.0824-.0159-.1316a1.1644,1.1644,0,0,1-.2728.2171.8241.8241,0,0,1-.4173.106.72.72,0,0,1-.49-.1685.5992.5992,0,0,1-.1937-.4777.6185.6185,0,0,1,.3113-.58,1.4,1.4,0,0,1,.5024-.14Zm.3477.2655a.6384.6384,0,0,1-.11.0549.9094.9094,0,0,1-.1527.0386l-.1294.0239a.8674.8674,0,0,0-.2612.078.26.26,0,0,0-.1343.2411.2511.2511,0,0,0,.082.21.311.311,0,0,0,.1994.0652.5941.5941,0,0,0,.3432-.1082.4556.4556,0,0,0,.1631-.3926Z" fill="#5c5c5c"/><path d="M125.1377,103.6073v-.405h.3031v-.6063h.5624v.6063h.353v.405h-.353v1.1487a.2571.2571,0,0,0,.0339.1662.3709.3709,0,0,0,.2074.0332c.0173,0,.0355,0,.055-.0013s.0381-.0013.0567-.0031v.425l-.2692.01a.7222.7222,0,0,1-.55-.14.4144.4144,0,0,1-.0958-.3009v-1.3379Z" fill="#5c5c5c"/><path d="M127.2261,103.1823v1.3105a.6921.6921,0,0,0,.0437.2792.3019.3019,0,0,0,.3036.1653.3964.3964,0,0,0,.3968-.2354.8565.8565,0,0,0,.0556-.3368v-1.1828h.5764v2.1737H128.05v-.3071c-.0054.0067-.0187.0266-.04.06a.4059.4059,0,0,1-.0756.0877.7873.7873,0,0,1-.2577.1635.8735.8735,0,0,1-.2913.0439.649.649,0,0,1-.6482-.347,1.3266,1.3266,0,0,1-.0935-.5641v-1.3105Z" fill="#5c5c5c"/><path d="M130.3008,103.1314c.0073.0008.0237.0017.049.0031v.5823q-.0538-.006-.0957-.008c-.028-.0013-.0506-.0022-.0678-.0022a.4722.4722,0,0,0-.4607.2233.8723.8723,0,0,0-.0658.3874v1.0387h-.5724v-2.1737h.5425v.3789a1.2,1.2,0,0,1,.2293-.2969.6243.6243,0,0,1,.4148-.1338Z" fill="#5c5c5c"/><path d="M132.038,103.2262a.8884.8884,0,0,1,.3756.3217,1.0655,1.0655,0,0,1,.1731.4494,2.7645,2.7645,0,0,1,.0188.4316h-1.5832a.5211.5211,0,0,0,.2273.4583.5745.5745,0,0,0,.3134.082.4814.4814,0,0,0,.3155-.1.4748.4748,0,0,0,.117-.15h.58a.7084.7084,0,0,1-.2107.393,1.0564,1.0564,0,0,1-.8179.3169,1.1856,1.1856,0,0,1-.7655-.2672,1.0536,1.0536,0,0,1-.3318-.87,1.1765,1.1765,0,0,1,.2994-.8659,1.0474,1.0474,0,0,1,.7773-.3018A1.2406,1.2406,0,0,1,132.038,103.2262Zm-.85.491a.5916.5916,0,0,0-.1513.3368h.9791a.4757.4757,0,0,0-.1513-.3439.4987.4987,0,0,0-.3373-.117A.45.45,0,0,0,131.1876,103.7172Z" fill="#5c5c5c"/><path d="M136.0868,102.4165v.5208h-.88v2.4187h-.6182v-2.4187h-.8834v-.5208Z" fill="#5c5c5c"/><path d="M136.923,102.9231h-.5763v-.5247h.5763Zm-.5763.2592h.5763v2.1737h-.5763Z" fill="#5c5c5c"/><path d="M137.1887,103.6073v-.405h.3031v-.6063h.5624v.6063h.353v.405h-.353v1.1487a.2571.2571,0,0,0,.0339.1662.3709.3709,0,0,0,.2074.0332c.0173,0,.0355,0,.055-.0013s.0381-.0013.0567-.0031v.425l-.2692.01a.722.722,0,0,1-.55-.14.414.414,0,0,1-.0958-.3009v-1.3379Z" fill="#5c5c5c"/><path d="M139.2913,105.356h-.5683v-2.9395h.5683Z" fill="#5c5c5c"/><path d="M141.2009,103.2262a.8884.8884,0,0,1,.3756.3217,1.064,1.064,0,0,1,.173.4494,2.762,2.762,0,0,1,.0189.4316h-1.5832a.5208.5208,0,0,0,.2273.4583.5741.5741,0,0,0,.3133.082.4816.4816,0,0,0,.3156-.1.4748.4748,0,0,0,.117-.15h.58a.7084.7084,0,0,1-.2107.393,1.0565,1.0565,0,0,1-.8179.3169,1.1859,1.1859,0,0,1-.7656-.2672,1.0538,1.0538,0,0,1-.3317-.87,1.1761,1.1761,0,0,1,.2994-.8659,1.0474,1.0474,0,0,1,.7773-.3018A1.2406,1.2406,0,0,1,141.2009,103.2262Zm-.85.491a.5917.5917,0,0,0-.1514.3368h.9792a.4757.4757,0,0,0-.1513-.3439.4989.4989,0,0,0-.3373-.117A.45.45,0,0,0,140.3505,103.7172Z" fill="#5c5c5c"/><path d="M118.553,139.7988h2.0959v.5167h-1.4857v.6758h1.3022v.5105h-1.3022v1.2325h-.61Z" fill="#5c5c5c"/><path d="M122.3573,140.6044a.8886.8886,0,0,1,.3756.3218,1.0631,1.0631,0,0,1,.173.4493,2.7641,2.7641,0,0,1,.0189.4317h-1.5832a.5206.5206,0,0,0,.2273.4582.5733.5733,0,0,0,.3133.082.4811.4811,0,0,0,.3156-.1.4748.4748,0,0,0,.117-.15h.58a.7089.7089,0,0,1-.2107.3931,1.0565,1.0565,0,0,1-.8179.3169,1.1854,1.1854,0,0,1-.7656-.2673,1.0537,1.0537,0,0,1-.3317-.87,1.1762,1.1762,0,0,1,.2994-.8659,1.0474,1.0474,0,0,1,.7773-.3018A1.2406,1.2406,0,0,1,122.3573,140.6044Zm-.85.4911a.5914.5914,0,0,0-.1514.3368h.9792a.4753.4753,0,0,0-.1513-.3439.4989.4989,0,0,0-.3373-.117A.45.45,0,0,0,121.5069,141.0955Z" fill="#5c5c5c"/><path d="M124.0116,141.4119a.8824.8824,0,0,0,.2272-.05.1706.1706,0,0,0,.1225-.1613.1916.1916,0,0,0-.094-.1848.598.598,0,0,0-.276-.0509.3623.3623,0,0,0-.289.1.4091.4091,0,0,0-.0809.1994h-.5484a.8322.8322,0,0,1,.16-.4688.934.934,0,0,1,.7771-.2872,1.3864,1.3864,0,0,1,.6371.1418.5434.5434,0,0,1,.2783.5345v.9971c0,.0691.0013.1529.004.2508a.3113.3113,0,0,0,.0339.1516.2008.2008,0,0,0,.0837.066v.0838h-.6182a.6357.6357,0,0,1-.0359-.1237c-.0066-.0385-.012-.0824-.0159-.1316a1.1648,1.1648,0,0,1-.2728.2172.8251.8251,0,0,1-.4173.1059.7206.7206,0,0,1-.49-.1684.6.6,0,0,1-.1937-.4777.6183.6183,0,0,1,.3113-.58,1.4,1.4,0,0,1,.5024-.14Zm.3477.2654a.6463.6463,0,0,1-.11.055.9207.9207,0,0,1-.1527.0385l-.1294.024a.8616.8616,0,0,0-.2612.078.26.26,0,0,0-.1343.2411.2511.2511,0,0,0,.082.21.3109.3109,0,0,0,.1994.0651.594.594,0,0,0,.3432-.1081.4558.4558,0,0,0,.1631-.3927Z" fill="#5c5c5c"/><path d="M125.1377,140.9856v-.4051h.3031v-.6062h.5624v.6062h.353v.4051h-.353v1.1486a.2571.2571,0,0,0,.0339.1662.37.37,0,0,0,.2074.0333c.0173,0,.0355,0,.055-.0014s.0381-.0013.0567-.0031v.425l-.2692.01a.7222.7222,0,0,1-.55-.14.4144.4144,0,0,1-.0958-.3009v-1.3379Z" fill="#5c5c5c"/><path d="M127.2261,140.5606v1.31a.6921.6921,0,0,0,.0437.2792.3019.3019,0,0,0,.3036.1653.3963.3963,0,0,0,.3968-.2353.8568.8568,0,0,0,.0556-.3368v-1.1828h.5764v2.1737H128.05v-.3071c-.0054.0066-.0187.0266-.04.06a.4035.4035,0,0,1-.0756.0877.79.79,0,0,1-.2577.1636.8761.8761,0,0,1-.2913.0438.6489.6489,0,0,1-.6482-.347,1.3266,1.3266,0,0,1-.0935-.5641v-1.31Z" fill="#5c5c5c"/><path d="M130.3008,140.51c.0073.0009.0237.0018.049.0031v.5823c-.0359-.004-.0678-.0066-.0957-.008s-.0506-.0022-.0678-.0022a.4721.4721,0,0,0-.4607.2234.8718.8718,0,0,0-.0658.3873v1.0388h-.5724v-2.1737h.5425v.3789a1.201,1.201,0,0,1,.2293-.297.6248.6248,0,0,1,.4148-.1338Z" fill="#5c5c5c"/><path d="M132.038,140.6044a.8886.8886,0,0,1,.3756.3218,1.0645,1.0645,0,0,1,.1731.4493,2.7666,2.7666,0,0,1,.0188.4317h-1.5832a.5209.5209,0,0,0,.2273.4582.5736.5736,0,0,0,.3134.082.4808.4808,0,0,0,.3155-.1.4748.4748,0,0,0,.117-.15h.58a.7089.7089,0,0,1-.2107.3931,1.0564,1.0564,0,0,1-.8179.3169,1.1852,1.1852,0,0,1-.7655-.2673,1.0534,1.0534,0,0,1-.3318-.87,1.1766,1.1766,0,0,1,.2994-.8659,1.0474,1.0474,0,0,1,.7773-.3018A1.2406,1.2406,0,0,1,132.038,140.6044Zm-.85.4911a.5913.5913,0,0,0-.1513.3368h.9791a.4753.4753,0,0,0-.1513-.3439.4987.4987,0,0,0-.3373-.117A.45.45,0,0,0,131.1876,141.0955Z" fill="#5c5c5c"/><path d="M136.0868,139.7948v.5207h-.88v2.4188h-.6182v-2.4188h-.8834v-.5207Z" fill="#5c5c5c"/><path d="M136.923,140.3013h-.5763v-.5247h.5763Zm-.5763.2593h.5763v2.1737h-.5763Z" fill="#5c5c5c"/><path d="M137.1887,140.9856v-.4051h.3031v-.6062h.5624v.6062h.353v.4051h-.353v1.1486a.2571.2571,0,0,0,.0339.1662.37.37,0,0,0,.2074.0333c.0173,0,.0355,0,.055-.0014s.0381-.0013.0567-.0031v.425l-.2692.01a.7221.7221,0,0,1-.55-.14.414.414,0,0,1-.0958-.3009v-1.3379Z" fill="#5c5c5c"/><path d="M139.2913,142.7343h-.5683v-2.9395h.5683Z" fill="#5c5c5c"/><path d="M141.2009,140.6044a.8886.8886,0,0,1,.3756.3218,1.0631,1.0631,0,0,1,.173.4493,2.7641,2.7641,0,0,1,.0189.4317h-1.5832a.5206.5206,0,0,0,.2273.4582.5733.5733,0,0,0,.3133.082.4811.4811,0,0,0,.3156-.1.4748.4748,0,0,0,.117-.15h.58a.7089.7089,0,0,1-.2107.3931,1.0565,1.0565,0,0,1-.8179.3169,1.1854,1.1854,0,0,1-.7656-.2673,1.0537,1.0537,0,0,1-.3317-.87,1.1762,1.1762,0,0,1,.2994-.8659,1.0474,1.0474,0,0,1,.7773-.3018A1.2406,1.2406,0,0,1,141.2009,140.6044Zm-.85.4911a.5914.5914,0,0,0-.1514.3368h.9792a.4753.4753,0,0,0-.1513-.3439.4989.4989,0,0,0-.3373-.117A.45.45,0,0,0,140.3505,141.0955Z" fill="#5c5c5c"/><path d="M179.6184,139.7988h2.0959v.5167h-1.4857v.6758h1.3022v.5105h-1.3022v1.2325h-.61Z" fill="#5c5c5c"/><path d="M183.4227,140.6044a.8886.8886,0,0,1,.3756.3218,1.0645,1.0645,0,0,1,.1731.4493,2.7791,2.7791,0,0,1,.0188.4317H182.407a.5206.5206,0,0,0,.2273.4582.5735.5735,0,0,0,.3133.082.4809.4809,0,0,0,.3156-.1.4748.4748,0,0,0,.117-.15h.58a.7089.7089,0,0,1-.2107.3931,1.0564,1.0564,0,0,1-.8179.3169,1.1854,1.1854,0,0,1-.7656-.2673,1.0537,1.0537,0,0,1-.3317-.87,1.1762,1.1762,0,0,1,.2994-.8659,1.0474,1.0474,0,0,1,.7773-.3018A1.2406,1.2406,0,0,1,183.4227,140.6044Zm-.85.4911a.5921.5921,0,0,0-.1514.3368H183.4a.4753.4753,0,0,0-.1513-.3439.4989.4989,0,0,0-.3373-.117A.45.45,0,0,0,182.5723,141.0955Z" fill="#5c5c5c"/><path d="M185.0771,141.4119a.8825.8825,0,0,0,.2271-.05.1706.1706,0,0,0,.1225-.1613.1918.1918,0,0,0-.0939-.1848.5985.5985,0,0,0-.2761-.0509.3623.3623,0,0,0-.289.1.41.41,0,0,0-.0809.1994h-.5484a.8322.8322,0,0,1,.16-.4688.9341.9341,0,0,1,.7771-.2872,1.3864,1.3864,0,0,1,.6371.1418.5434.5434,0,0,1,.2783.5345v.9971c0,.0691.0013.1529.004.2508a.3137.3137,0,0,0,.0339.1516.2008.2008,0,0,0,.0837.066v.0838h-.6182a.6357.6357,0,0,1-.0359-.1237q-.01-.0577-.0159-.1316a1.1648,1.1648,0,0,1-.2728.2172.825.825,0,0,1-.4172.1059.7209.7209,0,0,1-.49-.1684.6.6,0,0,1-.1937-.4777.6182.6182,0,0,1,.3114-.58,1.3985,1.3985,0,0,1,.5023-.14Zm.3476.2654a.6463.6463,0,0,1-.11.055.9207.9207,0,0,1-.1527.0385l-.1294.024a.8616.8616,0,0,0-.2612.078.26.26,0,0,0-.1343.2411.2511.2511,0,0,0,.082.21.3109.3109,0,0,0,.1994.0651.594.594,0,0,0,.3432-.1081.4558.4558,0,0,0,.1631-.3927Z" fill="#5c5c5c"/><path d="M186.2031,140.9856v-.4051h.3032v-.6062h.5623v.6062h.353v.4051h-.353v1.1486a.2571.2571,0,0,0,.0339.1662.37.37,0,0,0,.2074.0333c.0173,0,.0355,0,.055-.0014s.0381-.0013.0567-.0031v.425l-.2692.01a.7222.7222,0,0,1-.55-.14.4144.4144,0,0,1-.0957-.3009v-1.3379Z" fill="#5c5c5c"/><path d="M188.2916,140.5606v1.31a.6924.6924,0,0,0,.0436.2792.3019.3019,0,0,0,.3036.1653.3963.3963,0,0,0,.3968-.2353.8568.8568,0,0,0,.0556-.3368v-1.1828h.5764v2.1737h-.5524v-.3071c-.0053.0066-.0186.0266-.04.06a.4058.4058,0,0,1-.0755.0877.7915.7915,0,0,1-.2577.1636.8772.8772,0,0,1-.2914.0438.6489.6489,0,0,1-.6482-.347,1.3282,1.3282,0,0,1-.0935-.5641v-1.31Z" fill="#5c5c5c"/><path d="M191.3662,140.51c.0073.0009.0237.0018.049.0031v.5823c-.0359-.004-.0678-.0066-.0957-.008s-.05-.0022-.0678-.0022a.4721.4721,0,0,0-.4607.2234.8718.8718,0,0,0-.0658.3873v1.0388h-.5724v-2.1737h.5425v.3789a1.201,1.201,0,0,1,.2293-.297.6248.6248,0,0,1,.4148-.1338Z" fill="#5c5c5c"/><path d="M193.1034,140.6044a.8886.8886,0,0,1,.3756.3218,1.0645,1.0645,0,0,1,.1731.4493,2.7666,2.7666,0,0,1,.0188.4317h-1.5832a.5209.5209,0,0,0,.2274.4582.573.573,0,0,0,.3133.082.4808.4808,0,0,0,.3155-.1.4748.4748,0,0,0,.117-.15h.58a.7089.7089,0,0,1-.2107.3931,1.0564,1.0564,0,0,1-.8179.3169,1.1852,1.1852,0,0,1-.7655-.2673,1.0534,1.0534,0,0,1-.3317-.87,1.1766,1.1766,0,0,1,.2993-.8659,1.0475,1.0475,0,0,1,.7773-.3018A1.24,1.24,0,0,1,193.1034,140.6044Zm-.85.4911a.5913.5913,0,0,0-.1513.3368h.9791a.4753.4753,0,0,0-.1513-.3439.4987.4987,0,0,0-.3372-.117A.45.45,0,0,0,192.253,141.0955Z" fill="#5c5c5c"/><path d="M197.1522,139.7948v.5207h-.88v2.4188h-.6182v-2.4188h-.8834v-.5207Z" fill="#5c5c5c"/><path d="M197.9885,140.3013h-.5764v-.5247h.5764Zm-.5764.2593h.5764v2.1737h-.5764Z" fill="#5c5c5c"/><path d="M198.2541,140.9856v-.4051h.3032v-.6062h.5623v.6062h.353v.4051h-.353v1.1486a.2571.2571,0,0,0,.0339.1662.37.37,0,0,0,.2074.0333c.0173,0,.0355,0,.055-.0014s.0381-.0013.0567-.0031v.425l-.2692.01a.7222.7222,0,0,1-.55-.14.4144.4144,0,0,1-.0957-.3009v-1.3379Z" fill="#5c5c5c"/><path d="M200.3567,142.7343h-.5683v-2.9395h.5683Z" fill="#5c5c5c"/><path d="M202.2663,140.6044a.8886.8886,0,0,1,.3756.3218,1.0645,1.0645,0,0,1,.1731.4493,2.7666,2.7666,0,0,1,.0188.4317h-1.5832a.5209.5209,0,0,0,.2273.4582.5736.5736,0,0,0,.3134.082.4808.4808,0,0,0,.3155-.1.4748.4748,0,0,0,.117-.15h.58a.7089.7089,0,0,1-.2107.3931,1.0564,1.0564,0,0,1-.8179.3169,1.1852,1.1852,0,0,1-.7655-.2673,1.0534,1.0534,0,0,1-.3318-.87,1.1766,1.1766,0,0,1,.2994-.8659,1.0474,1.0474,0,0,1,.7773-.3018A1.2406,1.2406,0,0,1,202.2663,140.6044Zm-.85.4911a.5913.5913,0,0,0-.1513.3368h.9791a.4753.4753,0,0,0-.1513-.3439.4987.4987,0,0,0-.3373-.117A.45.45,0,0,0,201.4159,141.0955Z" fill="#5c5c5c"/><path d="M179.6184,102.3948h2.0959v.5167h-1.4857v.6759h1.3022v.51h-1.3022V105.33h-.61Z" fill="#5c5c5c"/><path d="M183.4227,103.2005a.8884.8884,0,0,1,.3756.3217,1.0655,1.0655,0,0,1,.1731.4494,2.777,2.777,0,0,1,.0188.4316H182.407a.5208.5208,0,0,0,.2273.4583.5743.5743,0,0,0,.3133.082.4809.4809,0,0,0,.3156-.1.4732.4732,0,0,0,.117-.15h.58a.7084.7084,0,0,1-.2107.393,1.0564,1.0564,0,0,1-.8179.3169,1.1859,1.1859,0,0,1-.7656-.2672,1.0538,1.0538,0,0,1-.3317-.87,1.1761,1.1761,0,0,1,.2994-.8659,1.0474,1.0474,0,0,1,.7773-.3018A1.2406,1.2406,0,0,1,183.4227,103.2005Zm-.85.491a.5924.5924,0,0,0-.1514.3368H183.4a.4757.4757,0,0,0-.1513-.3439.4989.4989,0,0,0-.3373-.117A.45.45,0,0,0,182.5723,103.6915Z" fill="#5c5c5c"/><path d="M185.0771,104.0079a.8834.8834,0,0,0,.2271-.05.1707.1707,0,0,0,.1225-.1613.1916.1916,0,0,0-.0939-.1848.597.597,0,0,0-.2761-.051.362.362,0,0,0-.289.1.41.41,0,0,0-.0809.1994h-.5484a.8328.8328,0,0,1,.16-.4689.9344.9344,0,0,1,.7771-.2871,1.3864,1.3864,0,0,1,.6371.1418.5432.5432,0,0,1,.2783.5344v.9972c0,.0691.0013.1529.004.2508a.3137.3137,0,0,0,.0339.1516.2008.2008,0,0,0,.0837.066v.0837h-.6182a.6329.6329,0,0,1-.0359-.1236q-.01-.0579-.0159-.1316a1.1644,1.1644,0,0,1-.2728.2171.824.824,0,0,1-.4172.1059.72.72,0,0,1-.49-.1684.5992.5992,0,0,1-.1937-.4777.6184.6184,0,0,1,.3114-.58,1.3987,1.3987,0,0,1,.5023-.14Zm.3476.2655a.6384.6384,0,0,1-.11.0549.9094.9094,0,0,1-.1527.0386l-.1294.0239a.8644.8644,0,0,0-.2612.078.26.26,0,0,0-.1343.2411.2511.2511,0,0,0,.082.21.311.311,0,0,0,.1994.0652.5941.5941,0,0,0,.3432-.1082.4556.4556,0,0,0,.1631-.3926Z" fill="#5c5c5c"/><path d="M186.2031,103.5816v-.405h.3032V102.57h.5623v.6063h.353v.405h-.353V104.73a.2571.2571,0,0,0,.0339.1662.3709.3709,0,0,0,.2074.0332c.0173,0,.0355,0,.055-.0013s.0381-.0013.0567-.0031v.425l-.2692.01a.7222.7222,0,0,1-.55-.14.4144.4144,0,0,1-.0957-.3009v-1.3379Z" fill="#5c5c5c"/><path d="M188.2916,103.1566v1.3105a.6924.6924,0,0,0,.0436.2792.3019.3019,0,0,0,.3036.1653.3964.3964,0,0,0,.3968-.2354.8565.8565,0,0,0,.0556-.3368v-1.1828h.5764V105.33h-.5524v-.3071c-.0053.0067-.0186.0266-.04.06a.4082.4082,0,0,1-.0755.0877.7894.7894,0,0,1-.2577.1635.8745.8745,0,0,1-.2914.0439.649.649,0,0,1-.6482-.347,1.3282,1.3282,0,0,1-.0935-.5641v-1.3105Z" fill="#5c5c5c"/><path d="M191.3662,103.1057c.0073.0008.0237.0017.049.0031v.5823q-.0538-.006-.0957-.008c-.0279-.0013-.05-.0022-.0678-.0022a.4722.4722,0,0,0-.4607.2233.8723.8723,0,0,0-.0658.3874V105.33h-.5724v-2.1737h.5425v.3789a1.2,1.2,0,0,1,.2293-.2969.6243.6243,0,0,1,.4148-.1338Z" fill="#5c5c5c"/><path d="M193.1034,103.2005a.8884.8884,0,0,1,.3756.3217,1.0655,1.0655,0,0,1,.1731.4494,2.7645,2.7645,0,0,1,.0188.4316h-1.5832a.5211.5211,0,0,0,.2274.4583.5739.5739,0,0,0,.3133.082.4808.4808,0,0,0,.3155-.1.4732.4732,0,0,0,.117-.15h.58a.7084.7084,0,0,1-.2107.393,1.0564,1.0564,0,0,1-.8179.3169,1.1856,1.1856,0,0,1-.7655-.2672,1.0535,1.0535,0,0,1-.3317-.87,1.1764,1.1764,0,0,1,.2993-.8659,1.0475,1.0475,0,0,1,.7773-.3018A1.24,1.24,0,0,1,193.1034,103.2005Zm-.85.491a.5916.5916,0,0,0-.1513.3368h.9791a.4757.4757,0,0,0-.1513-.3439.4987.4987,0,0,0-.3372-.117A.45.45,0,0,0,192.253,103.6915Z" fill="#5c5c5c"/><path d="M197.1522,102.3908v.5207h-.88V105.33h-.6182v-2.4188h-.8834v-.5207Z" fill="#5c5c5c"/><path d="M197.9885,102.8974h-.5764v-.5247h.5764Zm-.5764.2592h.5764V105.33h-.5764Z" fill="#5c5c5c"/><path d="M198.2541,103.5816v-.405h.3032V102.57h.5623v.6063h.353v.405h-.353V104.73a.2571.2571,0,0,0,.0339.1662.3709.3709,0,0,0,.2074.0332c.0173,0,.0355,0,.055-.0013s.0381-.0013.0567-.0031v.425l-.2692.01a.7222.7222,0,0,1-.55-.14.4144.4144,0,0,1-.0957-.3009v-1.3379Z" fill="#5c5c5c"/><path d="M200.3567,105.33h-.5683v-2.9395h.5683Z" fill="#5c5c5c"/><path d="M202.2663,103.2005a.8884.8884,0,0,1,.3756.3217,1.0655,1.0655,0,0,1,.1731.4494,2.7645,2.7645,0,0,1,.0188.4316h-1.5832a.5211.5211,0,0,0,.2273.4583.5745.5745,0,0,0,.3134.082.4808.4808,0,0,0,.3155-.1.4732.4732,0,0,0,.117-.15h.58a.7084.7084,0,0,1-.2107.393,1.0564,1.0564,0,0,1-.8179.3169,1.1856,1.1856,0,0,1-.7655-.2672,1.0536,1.0536,0,0,1-.3318-.87,1.1765,1.1765,0,0,1,.2994-.8659,1.0474,1.0474,0,0,1,.7773-.3018A1.2406,1.2406,0,0,1,202.2663,103.2005Zm-.85.491a.5916.5916,0,0,0-.1513.3368h.9791a.4757.4757,0,0,0-.1513-.3439.4987.4987,0,0,0-.3373-.117A.45.45,0,0,0,201.4159,103.6915Z" fill="#5c5c5c"/><path d="M195.9914,98.6415H185.5766a2.7906,2.7906,0,0,1-2.7928-2.7884V85.423a2.7906,2.7906,0,0,1,2.7885-2.7928h10.4191a2.7928,2.7928,0,0,1,2.7928,2.7928V95.8509a2.7906,2.7906,0,0,1-2.7906,2.7906Z" fill="none" stroke="#231f20" stroke-miterlimit="10" stroke-width="0.25"/><path d="M188.8818,93.8364a1.8989,1.8989,0,0,1-1.3931-1.8314V88.9114a1.7442,1.7442,0,0,1,1.7441-1.7442h3.1024a1.8989,1.8989,0,0,1,1.8946,1.8946V92.005a1.901,1.901,0,0,1-1.2754,1.7943c-.3532.1221-.218,1.1054-2.0167,1.0771A2.4248,2.4248,0,0,1,188.8818,93.8364Z" fill="none" stroke="#000" stroke-miterlimit="10" stroke-width="0.25"/><path d="M191.5852,92.9861a2.9617,2.9617,0,0,1-.7608.109,1.343,1.343,0,0,1-1.5262-1.2056,3.981,3.981,0,0,1,.7391-.2115,1.6186,1.6186,0,0,1,.8.205,2.4166,2.4166,0,0,1,.798-.1919,3.2039,3.2039,0,0,1,.7827.1919,1.232,1.232,0,0,1-.4164.8851" fill="none" stroke="#000" stroke-miterlimit="10" stroke-width="0.25"/><line x1="191.5089" y1="89.0967" x2="193.0416" y2="89.5262" fill="none" stroke="#000" stroke-miterlimit="10" stroke-width="0.25"/><path d="M191.3716,90.37a.6933.6933,0,1,1-1.3866.0109l-.0131-1.186-1.4389.48" fill="none" stroke="#000" stroke-miterlimit="10" stroke-width="0.25"/><circle cx="192.2415" cy="89.6243" r="0.2725"/><circle cx="189.2067" cy="89.6243" r="0.2725"/><path d="M186.3811,91.9331a1.7966,1.7966,0,0,0,.4361.2834,13.9348,13.9348,0,0,0-.593,1.9775,2.8263,2.8263,0,0,1-.157.4687.218.218,0,0,1-.218.1482h-.0175a.305.305,0,0,1-.218-.218.5167.5167,0,0,1,0-.1831,24.48,24.48,0,0,1,.7631-2.4745m0-.218H186.34a.2179.2179,0,0,0-.1613.1242c-.1156.2551-.5494,1.6177-.7762,2.5094a.7232.7232,0,0,0-.0131.2726.5147.5147,0,0,0,.4361.4011h.0327a.436.436,0,0,0,.4186-.2943c.0152-.0371.0283-.0763.0436-.1156a2.0944,2.0944,0,0,0,.1243-.39,13.8827,13.8827,0,0,1,.5908-1.93.218.218,0,0,0-.1112-.2747,1.6247,1.6247,0,0,1-.3706-.2376.218.218,0,0,0-.157-.0676Z"/><path d="M187.6,88.3053l-.0262.0784Z" fill="none"/><path d="M187.9073,93.1148c-.05-.14-.096-.2791-.1374-.4208C187.82,92.8357,187.8658,92.9861,187.9073,93.1148Z" fill="none"/><path d="M194.1819,87.915a.0463.0463,0,0,0,.0174.0436h0C194.1928,87.9455,194.1884,87.93,194.1819,87.915Z" fill="none"/><path d="M188.1013,93.5813c-.061-.1395-.1177-.2812-.17-.4229C187.9836,93.3,188.04,93.4418,188.1013,93.5813Z" fill="none"/><path d="M194.1993,87.9586a1.2111,1.2111,0,0,1,.0523.1374A1.2111,1.2111,0,0,0,194.1993,87.9586Z"/><path d="M193.9224,88.43v.0415h0A.0542.0542,0,0,0,193.9224,88.43Z" fill="none"/><path d="M187.6892,88.0545a2.0375,2.0375,0,0,0-.0937.2508A2.4853,2.4853,0,0,1,187.6892,88.0545Z" fill="none"/><path d="M187.9312,93.1584c0-.0153-.0109-.0284-.0152-.0436A.2813.2813,0,0,1,187.9312,93.1584Z" fill="none"/><path d="M194.3083,88.27h0c-.0174-.0589-.0349-.1178-.0567-.1744C194.2712,88.1526,194.2909,88.2115,194.3083,88.27Z"/><path d="M187.1878,88.2377l.0327-.109Z"/><path d="M186.6515,88.31h0v0Z" fill="none"/><path d="M195.974,89.3518l.0785.0654A.1871.1871,0,0,0,195.974,89.3518Z"/><path d="M188.3433,86.02c1.2013-.085,1.7049.2377,1.9491,1.2275" fill="none" stroke="#000" stroke-miterlimit="10" stroke-width="0.25"/><path d="M190.0417,85.0284c.2812.1766.53.51.569,1.3081l.07.7915" fill="none" stroke="#000" stroke-miterlimit="10" stroke-width="0.25"/><path d="M191.2277,87.2479c.2442-.99.7478-1.3081,1.9491-1.2275l.218.0414" fill="none" stroke="#000" stroke-miterlimit="10" stroke-width="0.25"/><path d="M191.4915,85.0459c-.2878.17-.5494.4665-.5908,1.2841l-.07.7914" fill="none" stroke="#000" stroke-miterlimit="10" stroke-width="0.25"/><path d="M188.9123,87.2217a1.2205,1.2205,0,0,0-1.1947-.3532" fill="none" stroke="#000" stroke-miterlimit="10" stroke-width="0.25"/><path d="M192.9566,87.23a1.5829,1.5829,0,0,1,1.0378-.2529" fill="none" stroke="#000" stroke-miterlimit="10" stroke-width="0.25"/><path d="M186.4967,92.8575a.336.336,0,0,1-.0153.0676,11.1048,11.1048,0,0,0-.218,1.4651c0,.1351-.0436.7783-.0371.872a.68.68,0,0,0,.0458.1963.2354.2354,0,0,0,.2311.146.2659.2659,0,0,0,.2355-.1962.404.404,0,0,0,.0174-.1352,10.1757,10.1757,0,0,1,.072-1.5021c.0327-.2529.0763-.5058.1221-.7587a1.0043,1.0043,0,0,1-.3663-.1068A.685.685,0,0,1,186.4967,92.8575Z" fill="none"/><path d="M195.1433,93.7056c-.0436-.26-.0959-.5167-.1482-.774a1.09,1.09,0,0,1-.4579.0829c.0393.2333.0872.4665.109.702.0393.4535.0567.9091.0829,1.3648a2.6647,2.6647,0,0,0,.0131.303.26.26,0,0,0,.2572.2181.2727.2727,0,0,0,.2464-.2181,2.9683,2.9683,0,0,0,0-.34,1.1428,1.1428,0,0,1,0-.1526A11.0875,11.0875,0,0,0,195.1433,93.7056Z" fill="none"/><path d="M195.1433,93.7056c-.0436-.26-.0959-.5167-.1482-.774a1.09,1.09,0,0,1-.4579.0829c.0393.2333.0872.4665.109.702.0393.4535.0567.9091.0829,1.3648a2.6647,2.6647,0,0,0,.0131.303.26.26,0,0,0,.2572.2181.2727.2727,0,0,0,.2464-.2181,2.9683,2.9683,0,0,0,0-.34,1.1428,1.1428,0,0,1,0-.1526A11.0875,11.0875,0,0,0,195.1433,93.7056Z" fill="none"/><path d="M188.3673,93.7623c.0261.02.0523.0392.0807.0567.1177.07.2071.1264.3357.1984-.0676.2485-.0981.5123-.1526.763a10.3658,10.3658,0,0,0-.1919,1.4913.4851.4851,0,0,1-.0283.133.2728.2728,0,0,1-.24.1766h0a.2334.2334,0,0,1-.2181-.1657.5546.5546,0,0,1-.0283-.1984c0-.096.0981-.7348.1047-.8721a12.9006,12.9006,0,0,1,.327-1.5261.254.254,0,0,1,.0218-.0654m-.1156-.3554-.0915.29v.0239l-.0131.0436a12.5468,12.5468,0,0,0-.3336,1.548v.024c0,.0566-.0283.2441-.05.412a3.3652,3.3652,0,0,0-.0851.4753.7681.7681,0,0,0,.0415.2747.4535.4535,0,0,0,.4142.31h.02a.4863.4863,0,0,0,.4361-.32.6725.6725,0,0,0,.0414-.194,10.057,10.057,0,0,1,.1875-1.4608c.0218-.0981.0392-.1984.0567-.3008.0283-.157.0545-.3053.0915-.4492l.0436-.1635-.146-.0828c-.0851-.048-.1505-.0872-.218-.1308l-.096-.0567-.0523-.0349h-.0131l-.2442-.1788Z"/><path d="M194.8577,88.9855a2.0677,2.0677,0,0,1-.0152.3117C194.8512,89.1926,194.8555,89.09,194.8577,88.9855Zm-.2333.7914h0Z" fill="none"/><path d="M192.6405,93.4571a.205.205,0,1,1-.3336-.2181c.0741-.1068.2376-.1831.3314-.12S192.7146,93.35,192.6405,93.4571Z"/><path d="M190.8287,92.4869l1.55,1.0094c.0567.0349.02-.0545.0611-.1068l.1134-.1461c.0327-.0414.1024-.0458.0566-.0763l-1.2732-.8612" fill="none" stroke="#000" stroke-miterlimit="10" stroke-width="0.25"/><path d="M185.1951,86.01c-.0109-.061-.02-.1221-.03-.1809-.0567-.3183-.1112-.6388-.1679-.9571l-.1417-.8242v-.0218c0-.0065,0-.0588.048-.0654l.388-.0784.7173-.1265.0829-.0131a.7023.7023,0,0,1-.1461.5909.75.75,0,0,1-.5451.2747.8752.8752,0,0,0,.0262.1569c.0371.218.072.4164.109.6236s.0763.436.1134.654.0828.4361.1112.665a.7107.7107,0,0,1-.0807.436.8112.8112,0,0,1-1.2013.2965.7739.7739,0,0,1-.3226-.5145.7914.7914,0,0,1,.2005-.6977.7808.7808,0,0,1,.5233-.2594.7545.7545,0,0,1,.279.0218h.0284Z" fill="none" stroke="#000" stroke-miterlimit="10" stroke-width="0.25"/><path d="M190.7241,94.1329s-.1308.8241.4774.7369" fill="none" stroke="#000" stroke-miterlimit="10" stroke-width="0.25"/><path d="M189.3789,91.9418a11.9615,11.9615,0,0,0,1.2144.4535,1.0751,1.0751,0,0,0,.5624,0,7.13,7.13,0,0,0,1.1686-.4164" fill="none" stroke="#000" stroke-miterlimit="10" stroke-width="0.25"/><path d="M194.317,92.1751a1.5254,1.5254,0,0,0,.63-.17,1.0029,1.0029,0,0,0,.5538-.872v-.7282h0v-.0611h0v-.7281a1.003,1.003,0,0,0-.5538-.883,1.5254,1.5254,0,0,0-.63-.17,5.4326,5.4326,0,0,0-.375-1.718,1.833,1.833,0,0,0-.2507-.3989,3.3837,3.3837,0,0,0-2.8342-1.4848h-.05a3.3858,3.3858,0,0,0-2.8342,1.4848,1.7426,1.7426,0,0,0-.2486.3989,3.9063,3.9063,0,0,0-.266,1.6919,2.1339,2.1339,0,0,0-.7412.1962,1.0029,1.0029,0,0,0-.5538.8721v.7281h0v.0611h0v.7282a1.0029,1.0029,0,0,0,.5538.872,2.2724,2.2724,0,0,0,.8481.17" fill="none" stroke="#000" stroke-miterlimit="10" stroke-width="0.25"/><path d="M187.8746,93.1562a23.7744,23.7744,0,0,0-.53,2.4244.8.8,0,0,1-.0458.1787.3293.3293,0,0,1-.3074.2181.386.386,0,0,1-.2943-.2726.9623.9623,0,0,1-.0131-.2747,5.9633,5.9633,0,0,1,.1679-1.1577,20.9039,20.9039,0,0,1,.5145-2.0842" fill="none" stroke="#000" stroke-miterlimit="10" stroke-width="0.25"/><path d="M195.2,91.9331c.1.218.532,1.5588.7631,2.4745a.438.438,0,0,1,0,.1831.3009.3009,0,0,1-.2289.2181h-.0175a.218.218,0,0,1-.218-.1483,2.814,2.814,0,0,1-.157-.4687,13.7438,13.7438,0,0,0-.5908-1.9775,1.796,1.796,0,0,0,.436-.2834m0-.218a.218.218,0,0,0-.157.0676,1.6257,1.6257,0,0,1-.364.24.2179.2179,0,0,0-.1112.2747,13.7938,13.7938,0,0,1,.5821,1.936,1.9422,1.9422,0,0,0,.1221.39c.0152.0392.03.0785.0436.1155a.436.436,0,0,0,.4164.2922h.0371a.5146.5146,0,0,0,.436-.4012.7207.7207,0,0,0-.0131-.2725,23.07,23.07,0,0,0-.7761-2.5094.2181.2181,0,0,0-.1614-.1243h-.037Z"/><path d="M193.29,93.7993l.0218.0654a12.0068,12.0068,0,0,1,.327,1.5262c0,.1352.1068.7718.1068.8721a.5669.5669,0,0,1-.03.2.2311.2311,0,0,1-.218.1635h0a.2743.2743,0,0,1-.242-.1787.5368.5368,0,0,1-.0284-.133,10.1013,10.1013,0,0,0-.1918-1.4913c-.0524-.2507-.07-.436-.1352-.6758a.8959.8959,0,0,1,.31-.29l.0807-.0545m.1155-.3554-.2442.1788-.0218.0131-.05.037a1.09,1.09,0,0,0-.3859.3423l-.0545.0807.024.0959a3.7888,3.7888,0,0,1,.0806.39c.0153.085.0306.1744.0524.2747a9.9747,9.9747,0,0,1,.19,1.4585.6828.6828,0,0,0,.0393.1963.49.49,0,0,0,.4469.32h.02a.449.449,0,0,0,.4121-.3074.773.773,0,0,0,.0436-.2747c0-.0588-.0174-.1875-.0545-.4687-.024-.1657-.048-.3554-.0523-.4121v-.0218a12.8584,12.8584,0,0,0-.3336-1.5479l-.0153-.0458v-.024l-.0915-.2878Z"/><path d="M194.23,92.1969a20.9093,20.9093,0,0,1,.5167,2.0843,5.83,5.83,0,0,1,.1657,1.1576.8894.8894,0,0,1-.0283.2747.3817.3817,0,0,1-.2944.2726.3337.3337,0,0,1-.3074-.218.7961.7961,0,0,1-.0457-.1788,21.1136,21.1136,0,0,0-.5015-2.2522" fill="none" stroke="#000" stroke-miterlimit="10" stroke-width="0.25"/><path d="M186.8869,88.6c-.0239-2.7078,1.6853-4.3342,3.968-4.3342s3.9243,1.888,3.9243,4.4214" fill="none" stroke="#000" stroke-linejoin="round" stroke-width="0.25"/><path d="M182.8928,96.5028a3.7194,3.7194,0,0,1,2.6991-3.0676l.1744-.0327" fill="none" stroke="#000" stroke-linecap="round" stroke-linejoin="round" stroke-width="0.25"/><path d="M198.7254,96.3829a3.59,3.59,0,0,0-2.7209-2.9477l-.1744-.0327" fill="none" stroke="#000" stroke-linecap="round" stroke-linejoin="round" stroke-width="0.25"/><path d="M188.7532,94.9069a6.1544,6.1544,0,0,0,2.1039,1.16,6.7432,6.7432,0,0,0,2.1017-.872" fill="none" stroke="#000" stroke-linejoin="round" stroke-width="0.25"/><line x1="188.0773" y1="94.4599" x2="187.5933" y2="94.061" fill="none" stroke="#000" stroke-linejoin="round" stroke-width="0.25"/><line x1="187.0134" y1="93.5639" x2="186.5664" y2="93.1911" fill="none" stroke="#000" stroke-linejoin="round" stroke-width="0.25"/><line x1="193.6106" y1="94.8328" x2="193.9747" y2="94.5798" fill="none" stroke="#000" stroke-linejoin="round" stroke-width="0.25"/><line x1="194.7356" y1="94.2812" x2="195.1695" y2="93.9083" fill="none" stroke="#000" stroke-linejoin="round" stroke-width="0.25"/><rect x="183.2072" y="120.8898" width="15.01" height="15.6228" rx="3.2628" fill="none" stroke="#231f20" stroke-linecap="round" stroke-miterlimit="10" stroke-width="0.25"/><path d="M194.1046,125.41a4.8882,4.8882,0,1,1-8.5307,3.2548" fill="none" stroke="#231f20" stroke-linecap="round" stroke-miterlimit="10" stroke-width="0.25"/><polyline points="194.002 127.285 194.034 125.322 195.867 125.78" fill="none" stroke="#231f20" stroke-linecap="round" stroke-miterlimit="10" stroke-width="0.25"/><circle cx="190.5606" cy="128.4963" r="2.8148" fill="none" stroke="#231f20" stroke-linecap="round" stroke-miterlimit="10" stroke-width="0.25"/><polyline points="190.532 126.73 190.532 128.496 189.387 129.641" fill="none" stroke="#231f20" stroke-linecap="round" stroke-miterlimit="10" stroke-width="0.25"/><path d="M185.5579,128.661a4.8118,4.8118,0,0,1,7.08-4.2432" fill="none" stroke="#231f20" stroke-linecap="round" stroke-miterlimit="10" stroke-width="0.25" stroke-dasharray="5 5 5 5 5 5"/><rect x="122.9402" y="120.7352" width="15.3967" height="15.932" rx="2.7317" fill="none" stroke="#231f20" stroke-miterlimit="10" stroke-width="0.25"/><path d="M129.8951,123.5815a.4181.4181,0,0,1,.2379.0947.0792.0792,0,0,0,.0925.011c.2622-.13.5265-.2577.7909-.3833a.0838.0838,0,0,0,.0551-.0859.5111.5111,0,0,1,1.0111-.0375.4846.4846,0,0,1-.2511.5133.4714.4714,0,0,1-.5618-.04.1123.1123,0,0,0-.141-.0132c-.2423.1233-.4868.2423-.7292.3612-.0374.0177-.04.04-.0462.0749-.022.097.0374.1212.1057.1543.22.11.4516.22.6763.337a.0992.0992,0,0,0,.1234,0,.5045.5045,0,0,1,.6962.0529.5155.5155,0,0,1,0,.6895.4539.4539,0,0,1-.3988.1454.5067.5067,0,0,1-.4538-.3238.4735.4735,0,0,1-.0352-.1542.0837.0837,0,0,0-.0551-.0815c-.2622-.1256-.5265-.2556-.7865-.3856a.0728.0728,0,0,0-.0925,0,.5044.5044,0,0,1-.6807-.0859.5111.5111,0,0,1,0-.6609A.5462.5462,0,0,1,129.8951,123.5815Z" fill="none" stroke="#000" stroke-miterlimit="10" stroke-width="0.25"/><path d="M125.8944,125.8572a1.1013,1.1013,0,0,1-.1652,1.2468c-.185.1631-.7754.7557-.7754.7557.0484-.293.0793-.4693.1387-.72-.1586.0551-.3634.2754-.5353.3481.0661-.2071.1961-.5684.2688-.738-.1212.0727-.28.141-.4406.2313a5.7214,5.7214,0,0,0,.304-.61,3.6635,3.6635,0,0,1-.3833.1277,8.4823,8.4823,0,0,0,.8173-1.0618,8.6878,8.6878,0,0,0,.6477-1.3681" fill="none" stroke="#000" stroke-miterlimit="10" stroke-width="0.25"/><ellipse cx="134.6065" cy="125.1189" rx="1.8065" ry="1.2447" transform="translate(-20.1952 224.1646) rotate(-75.52)" fill="none" stroke="#000" stroke-miterlimit="10" stroke-width="0.25"/><path d="M137.15,135.5812c-.3128-.857-.6322-1.7382-.9583-2.5974a3.6185,3.6185,0,0,0,.3987-1.7051,15.0293,15.0293,0,0,0-.5727-3.1084,1.0421,1.0421,0,0,0-1.0376-.8944,1.1873,1.1873,0,0,0-1.0134.5485c-.3525.4979-.7094.9936-1.0663,1.4892a.1741.1741,0,0,1-.1035.0794c-.17.0286-.3437.044-.5155.066-.2688.0331-.5375.0639-.8041.1014a.6168.6168,0,0,0-.24,1.1411.7311.7311,0,0,0,.5045.0661c.489-.0551.9759-.1189,1.4628-.1762a.7335.7335,0,0,0,.5485-.3239c.06-.0859.1212-.17.1828-.2533h.0243c.0264.4406.0551.8658.0705,1.2976a.6036.6036,0,0,1-.0749.2863q-.4626.8945-.9407,1.7823a1.01,1.01,0,0,0-.1146.4229c-.0286.5794-.066,1.1566-.0969,1.7338h-.59a.3833.3833,0,0,0-.3833.3833v.2974a.3833.3833,0,0,0,.3833.3833h1.6853a.391.391,0,0,0,.152-.0308c.0661.0154.11,0,.13-.0947a.3856.3856,0,0,0,.1057-.249v-.044a.2679.2679,0,0,1,.011-.0859c.0529-.5177.119-1.0355.1564-1.5532a1.5424,1.5424,0,0,1,.3261-.8812c.0793-.0991.1564-.2.2335-.3018a6.7937,6.7937,0,0,0,.3657,1.82.327.327,0,0,1,.0242.0595c.1256.304.2446.61.3745.912" fill="none" stroke="#000" stroke-miterlimit="10" stroke-width="0.25"/><path d="M135.9687,136.6144l-.1961-.4649c-.13-.3018-.2489-.608-.3745-.912a.327.327,0,0,0-.0242-.06,6.9723,6.9723,0,0,1-.3657-1.82c-.0771.1014-.1542.2027-.2335.3018a1.5424,1.5424,0,0,0-.3261.8812c-.0374.5177-.1035,1.0354-.1564,1.5531a.2.2,0,0,1-.011.086v.044a.386.386,0,0,1-.1013.2622c-.02.0969-.0639.11-.13.0947a.3893.3893,0,0,1-.152.0309h-1.6853a.3834.3834,0,0,1-.3833-.3834v-.2974a.3833.3833,0,0,1,.3811-.3855h.5926c.0309-.5772.0683-1.1544.0969-1.7337a1.01,1.01,0,0,1,.1146-.423q.4758-.8812.9407-1.7822a.6042.6042,0,0,0,.0749-.2864c-.0154-.4406-.0441-.8658-.0705-1.2976h-.0243c-.0616.0837-.1233.1674-.1828.2534a.7337.7337,0,0,1-.5485.3238c-.4869.0573-.9738.1212-1.4628.1762a.7311.7311,0,0,1-.5045-.0661.6168.6168,0,0,1,.24-1.1411c.2666-.0375.5353-.0683.8041-.1013.1718-.0221.3459-.0375.5155-.0661a.174.174,0,0,0,.1035-.0793c.3569-.4957.7138-.9914,1.0663-1.4893a1.1875,1.1875,0,0,1,1.0134-.5485,1.0421,1.0421,0,0,1,1.0376.8944,15.0293,15.0293,0,0,1,.5727,3.1084,3.618,3.618,0,0,1-.3987,1.7051c.3261.85.6455,1.7316.9583,2.5886l.1873.4648" fill="none" stroke="#000" stroke-miterlimit="10" stroke-width="0.25"/><ellipse cx="126.9432" cy="125.1275" rx="1.2468" ry="1.8095" transform="translate(-27.2117 35.6416) rotate(-14.4524)" fill="none" stroke="#000" stroke-miterlimit="10.017" stroke-width="0.25"/><path d="M124.1519,136.0768c.3194-.8657.8812-2.2272,1.2006-3.0842a3.618,3.618,0,0,1-.3987-1.7051,15.0293,15.0293,0,0,1,.5727-3.1084,1.0421,1.0421,0,0,1,1.0376-.8944,1.1875,1.1875,0,0,1,1.0134.5485c.3525.4979.7094.9936,1.0663,1.4893a.174.174,0,0,0,.1035.0793c.17.0286.3437.044.5155.0661.2688.033.5375.0638.8041.1013a.6168.6168,0,0,1,.24,1.1411.7311.7311,0,0,1-.5045.0661c-.489-.055-.9759-.1189-1.4627-.1762a.7337.7337,0,0,1-.5486-.3238c-.0595-.086-.1212-.17-.1828-.2534h-.0243c-.0264.4406-.055.8658-.0705,1.2976a.6042.6042,0,0,0,.0749.2864q.4628.8943.9407,1.7822a1.01,1.01,0,0,1,.1146.423c.0286.5793.0661,1.1565.0991,1.7337h.586a.3833.3833,0,0,1,.3833.3833v.2974a.3833.3833,0,0,1-.3833.3833h-1.6831a.391.391,0,0,1-.1542-.0308c-.0661.0154-.11,0-.13-.0947a.3859.3859,0,0,1-.1013-.2578v-.044a.2679.2679,0,0,0-.011-.0859c-.0529-.5178-.119-1.0355-.1564-1.5532a1.5424,1.5424,0,0,0-.3261-.8812c-.0793-.0991-.1564-.2-.2335-.3018a6.7945,6.7945,0,0,1-.3657,1.82.3344.3344,0,0,0-.0242.0595c-.1234.304-.2424.61-.3745.912l-.2027.5552" fill="none" stroke="#000" stroke-miterlimit="10" stroke-width="0.25"/><path d="M126.28,123.3942s.82-1.1455,1.2623-1.0068c.33.11.055.3746.055.3746s.3569-.1278.4957,0-.22.3657-.22.3657.6036-.0353.6147.22c.0176.478-.976.3612-.98.33A1.1015,1.1015,0,0,0,126.28,123.3942Z" fill="none" stroke="#000" stroke-miterlimit="10" stroke-width="0.25"/><path d="M134.9179,123.3061a2.0931,2.0931,0,0,0-.1829-1.2645,3.1077,3.1077,0,0,1,.5486.91,4.1868,4.1868,0,0,0,.0727-.8812s.337.7094.2643.9473a1.695,1.695,0,0,0,.1631-.7644,2.0026,2.0026,0,0,1,.2026.8547.9911.9911,0,0,0,.304-.5838s.1476.1961.0441.7689a1.0354,1.0354,0,0,0,.3745-.5,1.844,1.844,0,0,1-.0749.6961.7422.7422,0,0,0,.456-.5066,1.81,1.81,0,0,1-.1057.82.3392.3392,0,0,1-.022.0286s.4207-.152.4758-.4075a1.123,1.123,0,0,1-.3591.9208s.4406-.1344.5243-.2688a.9255.9255,0,0,1-.6168.6962,1.2582,1.2582,0,0,0,.6036-.0176s-.0485.4207-.727.348a.8678.8678,0,0,0,.5992.17,1.1387,1.1387,0,0,1-.8613.152,1.2963,1.2963,0,0,0,.5507.22,1.3223,1.3223,0,0,1-.8129.0374,3.5455,3.5455,0,0,0,.4406.3591s-.5794.0485-.6939-.0661c0,0,.2379.3657.3657.4032,0,0-.6786.0418-.9341-.2027" fill="none" stroke="#000" stroke-linejoin="round" stroke-width="0.25"/><path d="M235.3013,101.6889h2.096v.5167h-1.4857v.6758h1.3022v.5105h-1.3022v1.2325h-.61Z" fill="#5c5c5c"/><path d="M239.1057,102.4945a.8886.8886,0,0,1,.3756.3218,1.0631,1.0631,0,0,1,.173.4493,2.7759,2.7759,0,0,1,.0189.4317H238.09a.5206.5206,0,0,0,.2273.4582.5733.5733,0,0,0,.3133.082.4811.4811,0,0,0,.3156-.1.4748.4748,0,0,0,.117-.15h.58a.7092.7092,0,0,1-.2108.3931,1.0561,1.0561,0,0,1-.8178.3168,1.1853,1.1853,0,0,1-.7656-.2672,1.0537,1.0537,0,0,1-.3317-.87,1.1761,1.1761,0,0,1,.2994-.8659,1.0474,1.0474,0,0,1,.7773-.3018A1.2406,1.2406,0,0,1,239.1057,102.4945Zm-.85.4911a.59.59,0,0,0-.1514.3368h.9792a.4753.4753,0,0,0-.1513-.3439.4989.4989,0,0,0-.3373-.117A.45.45,0,0,0,238.2553,102.9856Z" fill="#5c5c5c"/><path d="M240.76,103.302a.8835.8835,0,0,0,.2272-.05.1706.1706,0,0,0,.1225-.1613.1918.1918,0,0,0-.094-.1848.5969.5969,0,0,0-.2761-.0509.3619.3619,0,0,0-.2889.1.4091.4091,0,0,0-.0809.1994h-.5484a.8322.8322,0,0,1,.16-.4688.934.934,0,0,1,.7771-.2872,1.3864,1.3864,0,0,1,.6371.1418.5434.5434,0,0,1,.2783.5345v.9971c0,.0691.0013.1529.0039.2508a.3137.3137,0,0,0,.0339.1516.2018.2018,0,0,0,.0838.066v.0838h-.6182a.6288.6288,0,0,1-.0359-.1237q-.01-.0577-.016-.1316a1.1622,1.1622,0,0,1-.2727.2172.8254.8254,0,0,1-.4173.1059.7206.7206,0,0,1-.49-.1684.6.6,0,0,1-.1937-.4778.6185.6185,0,0,1,.3113-.58,1.4014,1.4014,0,0,1,.5024-.14Zm.3477.2654a.6463.6463,0,0,1-.11.055.9233.9233,0,0,1-.1527.0385l-.1294.024a.8633.8633,0,0,0-.2613.078.26.26,0,0,0-.1342.241.2514.2514,0,0,0,.082.2106.3109.3109,0,0,0,.1994.0651.594.594,0,0,0,.3432-.1081.4558.4558,0,0,0,.1631-.3927Z" fill="#5c5c5c"/><path d="M241.8861,102.8757v-.4051h.3031v-.6063h.5624v.6063h.353v.4051h-.353v1.1486a.2571.2571,0,0,0,.0339.1662.37.37,0,0,0,.2074.0333c.0173,0,.0355-.0005.055-.0014s.0381-.0013.0567-.0031v.425l-.2692.01a.7221.7221,0,0,1-.55-.14.414.414,0,0,1-.0958-.3009v-1.3379Z" fill="#5c5c5c"/><path d="M243.9745,102.4507v1.31a.6921.6921,0,0,0,.0437.2792.3019.3019,0,0,0,.3035.1653.3965.3965,0,0,0,.3969-.2353.8568.8568,0,0,0,.0556-.3368v-1.1828h.5764v2.1737h-.5524v-.3071c-.0054.0066-.0187.0266-.04.06a.4035.4035,0,0,1-.0756.0877.79.79,0,0,1-.2577.1636.8763.8763,0,0,1-.2914.0438.6488.6488,0,0,1-.6481-.347,1.3266,1.3266,0,0,1-.0935-.5641v-1.31Z" fill="#5c5c5c"/><path d="M247.0492,102.4c.0073.0009.0237.0018.049.0031v.5823c-.0359-.004-.0678-.0066-.0957-.008s-.0506-.0022-.0678-.0022a.4721.4721,0,0,0-.4607.2234.8718.8718,0,0,0-.0658.3873v1.0388h-.5724v-2.1737h.5425v.3789a1.1967,1.1967,0,0,1,.2293-.297.6248.6248,0,0,1,.4148-.1338Z" fill="#5c5c5c"/><path d="M248.7864,102.4945a.8886.8886,0,0,1,.3756.3218,1.0645,1.0645,0,0,1,.1731.4493,2.7784,2.7784,0,0,1,.0188.4317h-1.5832a.5206.5206,0,0,0,.2273.4582.5735.5735,0,0,0,.3133.082.4811.4811,0,0,0,.3156-.1.4748.4748,0,0,0,.117-.15h.58a.7089.7089,0,0,1-.2107.3931,1.0563,1.0563,0,0,1-.8179.3168,1.1853,1.1853,0,0,1-.7656-.2672,1.0537,1.0537,0,0,1-.3317-.87,1.1761,1.1761,0,0,1,.2994-.8659,1.0474,1.0474,0,0,1,.7773-.3018A1.2406,1.2406,0,0,1,248.7864,102.4945Zm-.85.4911a.5911.5911,0,0,0-.1514.3368h.9792a.4753.4753,0,0,0-.1513-.3439.4989.4989,0,0,0-.3373-.117A.45.45,0,0,0,247.936,102.9856Z" fill="#5c5c5c"/><path d="M252.8352,101.6849v.5207h-.8795v2.4188h-.6182v-2.4188h-.8835v-.5207Z" fill="#5c5c5c"/><path d="M253.6714,102.1914h-.5763v-.5247h.5763Zm-.5763.2593h.5763v2.1737h-.5763Z" fill="#5c5c5c"/><path d="M253.9371,102.8757v-.4051h.3031v-.6063h.5624v.6063h.353v.4051h-.353v1.1486a.2571.2571,0,0,0,.0339.1662.3694.3694,0,0,0,.2074.0333c.0173,0,.0355-.0005.055-.0014s.0381-.0013.0567-.0031v.425l-.2692.01a.7221.7221,0,0,1-.55-.14.414.414,0,0,1-.0958-.3009v-1.3379Z" fill="#5c5c5c"/><path d="M256.04,104.6244h-.5684v-2.9395h.5684Z" fill="#5c5c5c"/><path d="M257.9493,102.4945a.8886.8886,0,0,1,.3756.3218,1.0631,1.0631,0,0,1,.173.4493,2.7634,2.7634,0,0,1,.0189.4317h-1.5832a.5206.5206,0,0,0,.2273.4582.5733.5733,0,0,0,.3133.082.4811.4811,0,0,0,.3156-.1.4748.4748,0,0,0,.117-.15h.58a.7089.7089,0,0,1-.2107.3931,1.0565,1.0565,0,0,1-.8179.3168,1.1853,1.1853,0,0,1-.7656-.2672,1.0537,1.0537,0,0,1-.3317-.87,1.1761,1.1761,0,0,1,.2994-.8659,1.0474,1.0474,0,0,1,.7773-.3018A1.2406,1.2406,0,0,1,257.9493,102.4945Zm-.85.4911a.5911.5911,0,0,0-.1514.3368h.9792a.4753.4753,0,0,0-.1513-.3439.4989.4989,0,0,0-.3373-.117A.45.45,0,0,0,257.0989,102.9856Z" fill="#5c5c5c"/><path d="M235.3013,139.4779h2.096v.5167h-1.4857v.6759h1.3022v.5105h-1.3022v1.2324h-.61Z" fill="#5c5c5c"/><path d="M239.1057,140.2836a.8884.8884,0,0,1,.3756.3217,1.064,1.064,0,0,1,.173.4494,2.7745,2.7745,0,0,1,.0189.4316H238.09a.5208.5208,0,0,0,.2273.4583.5741.5741,0,0,0,.3133.082.4811.4811,0,0,0,.3156-.1.4737.4737,0,0,0,.117-.15h.58a.7085.7085,0,0,1-.2108.3931,1.0561,1.0561,0,0,1-.8178.3169,1.1859,1.1859,0,0,1-.7656-.2672,1.054,1.054,0,0,1-.3317-.87,1.1763,1.1763,0,0,1,.2994-.866,1.0477,1.0477,0,0,1,.7773-.3017A1.2406,1.2406,0,0,1,239.1057,140.2836Zm-.85.491a.5911.5911,0,0,0-.1514.3368h.9792a.4757.4757,0,0,0-.1513-.3439.4989.4989,0,0,0-.3373-.117A.45.45,0,0,0,238.2553,140.7746Z" fill="#5c5c5c"/><path d="M240.76,141.091a.8844.8844,0,0,0,.2272-.05.1707.1707,0,0,0,.1225-.1613.1916.1916,0,0,0-.094-.1848.5968.5968,0,0,0-.2761-.051.3619.3619,0,0,0-.2889.1.4091.4091,0,0,0-.0809.1994h-.5484a.8325.8325,0,0,1,.16-.4689.9343.9343,0,0,1,.7771-.2871,1.3864,1.3864,0,0,1,.6371.1418.5432.5432,0,0,1,.2783.5344v.9972q0,.1036.0039.2508a.3128.3128,0,0,0,.0339.1515.2012.2012,0,0,0,.0838.0661v.0837h-.6182a.628.628,0,0,1-.0359-.1236q-.01-.0579-.016-.1316a1.1619,1.1619,0,0,1-.2727.2171.8243.8243,0,0,1-.4173.1059.72.72,0,0,1-.49-.1684.5992.5992,0,0,1-.1937-.4777.6185.6185,0,0,1,.3113-.58,1.3994,1.3994,0,0,1,.5024-.14Zm.3477.2655a.6384.6384,0,0,1-.11.0549.912.912,0,0,1-.1527.0386l-.1294.0239a.8633.8633,0,0,0-.2613.078.26.26,0,0,0-.1342.2411.2511.2511,0,0,0,.082.21.311.311,0,0,0,.1994.0652.5941.5941,0,0,0,.3432-.1082.4556.4556,0,0,0,.1631-.3926Z" fill="#5c5c5c"/><path d="M241.8861,140.6647v-.405h.3031v-.6063h.5624v.6063h.353v.405h-.353v1.1487a.2571.2571,0,0,0,.0339.1662.3709.3709,0,0,0,.2074.0332c.0173,0,.0355,0,.055-.0013s.0381-.0013.0567-.0031v.425l-.2692.01a.7224.7224,0,0,1-.55-.14.414.414,0,0,1-.0958-.3009v-1.3379Z" fill="#5c5c5c"/><path d="M243.9745,140.24v1.31a.6918.6918,0,0,0,.0437.2792.3017.3017,0,0,0,.3035.1653.3964.3964,0,0,0,.3969-.2353.8565.8565,0,0,0,.0556-.3368V140.24h.5764v2.1737h-.5524v-.3071c-.0054.0067-.0187.0266-.04.06a.4041.4041,0,0,1-.0756.0878.7873.7873,0,0,1-.2577.1635.8737.8737,0,0,1-.2914.0439.649.649,0,0,1-.6481-.347,1.3268,1.3268,0,0,1-.0935-.5642v-1.31Z" fill="#5c5c5c"/><path d="M247.0492,140.1887c.0073.0009.0237.0018.049.0031v.5824q-.0538-.006-.0957-.008c-.028-.0013-.0506-.0022-.0678-.0022a.4722.4722,0,0,0-.4607.2233.8723.8723,0,0,0-.0658.3874v1.0387h-.5724V140.24h.5425v.3789a1.1977,1.1977,0,0,1,.2293-.2969.6243.6243,0,0,1,.4148-.1338Z" fill="#5c5c5c"/><path d="M248.7864,140.2836a.8884.8884,0,0,1,.3756.3217,1.0655,1.0655,0,0,1,.1731.4494,2.777,2.777,0,0,1,.0188.4316h-1.5832a.5208.5208,0,0,0,.2273.4583.5743.5743,0,0,0,.3133.082.4811.4811,0,0,0,.3156-.1.4737.4737,0,0,0,.117-.15h.58a.7083.7083,0,0,1-.2107.3931,1.0564,1.0564,0,0,1-.8179.3169,1.1859,1.1859,0,0,1-.7656-.2672,1.054,1.054,0,0,1-.3317-.87,1.1763,1.1763,0,0,1,.2994-.866,1.0477,1.0477,0,0,1,.7773-.3017A1.2406,1.2406,0,0,1,248.7864,140.2836Zm-.85.491a.5917.5917,0,0,0-.1514.3368h.9792a.4757.4757,0,0,0-.1513-.3439.4989.4989,0,0,0-.3373-.117A.45.45,0,0,0,247.936,140.7746Z" fill="#5c5c5c"/><path d="M252.8352,139.4739v.5207h-.8795v2.4188h-.6182v-2.4188h-.8835v-.5207Z" fill="#5c5c5c"/><path d="M253.6714,139.9805h-.5763v-.5248h.5763Zm-.5763.2592h.5763v2.1737h-.5763Z" fill="#5c5c5c"/><path d="M253.9371,140.6647v-.405h.3031v-.6063h.5624v.6063h.353v.405h-.353v1.1487a.2571.2571,0,0,0,.0339.1662.3707.3707,0,0,0,.2074.0332c.0173,0,.0355,0,.055-.0013s.0381-.0013.0567-.0031v.425l-.2692.01a.7224.7224,0,0,1-.55-.14.414.414,0,0,1-.0958-.3009v-1.3379Z" fill="#5c5c5c"/><path d="M256.04,142.4134h-.5684v-2.94h.5684Z" fill="#5c5c5c"/><path d="M257.9493,140.2836a.8884.8884,0,0,1,.3756.3217,1.064,1.064,0,0,1,.173.4494,2.762,2.762,0,0,1,.0189.4316h-1.5832a.5208.5208,0,0,0,.2273.4583.5741.5741,0,0,0,.3133.082.4811.4811,0,0,0,.3156-.1.4737.4737,0,0,0,.117-.15h.58a.7083.7083,0,0,1-.2107.3931,1.0565,1.0565,0,0,1-.8179.3169,1.1859,1.1859,0,0,1-.7656-.2672,1.054,1.054,0,0,1-.3317-.87,1.1763,1.1763,0,0,1,.2994-.866,1.0477,1.0477,0,0,1,.7773-.3017A1.2406,1.2406,0,0,1,257.9493,140.2836Zm-.85.491a.5917.5917,0,0,0-.1514.3368h.9792a.4757.4757,0,0,0-.1513-.3439.4989.4989,0,0,0-.3373-.117A.45.45,0,0,0,257.0989,140.7746Z" fill="#5c5c5c"/><rect x="238.7915" y="120.8898" width="15.351" height="15.3615" rx="2.6795" fill="none" stroke="#231f20" stroke-miterlimit="10" stroke-width="0.25"/><rect x="241.7282" y="125.0649" width="8.4777" height="8.5718" fill="none" stroke="#231f20" stroke-miterlimit="10" stroke-width="0.25"/><polyline points="249.951 123.504 251.806 123.504 251.806 125.454" fill="none" stroke="#231f20" stroke-linecap="round" stroke-miterlimit="10" stroke-width="0.25"/><rect x="241.7282" y="128.2986" width="5.338" height="5.338" fill="none" stroke="#231f20" stroke-miterlimit="10" stroke-width="0.25"/><line x1="251.6011" y1="123.7764" x2="250.0992" y2="125.1945" fill="none" stroke="#231f20" stroke-linecap="round" stroke-miterlimit="10" stroke-width="0.25"/><path d="M251.5718,94.88c0,.1717-.3524.3118-.7907.3118s-.7908-.14-.7908-.3118" fill="none" stroke="#000" stroke-miterlimit="10" stroke-width="0.25"/><path d="M251.1674,94.0644a.4225.4225,0,0,1-.845,0" fill="none" stroke="#000" stroke-miterlimit="10" stroke-width="0.25"/><path d="M251.8452,92.3089l.9037,1.4979a1.0552,1.0552,0,0,1,.1017.8789,1.8606,1.8606,0,0,1-1.5815,1.3352h-1.0709a1.8993,1.8993,0,0,1-1.6222-1.4346,1.0166,1.0166,0,0,1,.1062-.7591l.8-1.4663a.7456.7456,0,0,1,.6349-.3886l1.0708-.0271A.75.75,0,0,1,251.8452,92.3089Z" fill="none" stroke="#000" stroke-miterlimit="10" stroke-width="0.25"/><path d="M252.0282,93.28a.8878.8878,0,0,1-.8879.4s.0249-.3434.2689-.436A.84.84,0,0,1,252.0282,93.28Z"/><path d="M249.45,93.2669a.8879.8879,0,0,0,.8879.3976s-.0249-.3412-.2689-.436A.8491.8491,0,0,0,249.45,93.2669Z"/><polygon points="251.734 96.751 250.779 97.069 249.78 96.751 249.78 96.025 251.734 96.025 251.734 96.751" fill="none" stroke="#000" stroke-miterlimit="10" stroke-width="0.25"/><path d="M242.8623,97.5482s-.8336-.1265-1.1025-.1469a3.8673,3.8673,0,0,0-.985.0271,4.4386,4.4386,0,0,0,.2078-.6371,5.0986,5.0986,0,0,0,.0814-.6168s.5309.0791.7048.0769.7953-.0972.7953-.0972.0158.488.0384.6371A3.0537,3.0537,0,0,0,242.8623,97.5482Z" fill="none" stroke="#000" stroke-miterlimit="10" stroke-width="0.25"/><path d="M244.4687,94.6044a1.8673,1.8673,0,0,1-.8811.1649" fill="none" stroke="#000" stroke-miterlimit="10" stroke-width="0.25"/><path d="M247.2928,94.6044a3.0938,3.0938,0,0,0,1.3555.21" fill="none" stroke="#000" stroke-miterlimit="10" stroke-width="0.25"/><path d="M247.2272,99.1636v-.6778a1.7511,1.7511,0,0,1,1.751-1.751h.802" fill="none" stroke="#000" stroke-linecap="round" stroke-miterlimit="10" stroke-width="0.25"/><path d="M251.7345,96.7348h.9579a1.7489,1.7489,0,0,1,1.55.9331" fill="none" stroke="#000" stroke-linecap="round" stroke-miterlimit="10" stroke-width="0.25"/><path d="M238.8521,98.0746a5.2476,5.2476,0,0,1,2.6276-.6462c1.7441,0,3.2172.73,3.6826,1.7261" fill="none" stroke="#000" stroke-linecap="round" stroke-miterlimit="10" stroke-width="0.25"/><path d="M246.59,93.547a2.3811,2.3811,0,0,0,.7027,1.0574v.1129a1.403,1.403,0,0,1-2.8038.1126c-.0015-.0375-.0015-.0751,0-.1126l-.0226-.1084a2.3809,2.3809,0,0,0,.7026-1.0574" fill="none" stroke="#231f20" stroke-miterlimit="10" stroke-width="0.25"/><path d="M247.7785,92.9415a.5536.5536,0,0,0,.8337.0972.5648.5648,0,0,0,.1649-.5422.4948.4948,0,0,0,.5829-.1492.5422.5422,0,0,0,.0723-.5964.4926.4926,0,0,0,.5219-.3231.5356.5356,0,0,0-.1423-.6055.5106.5106,0,0,0,.3547-.3976.5331.5331,0,0,0-.1582-.5083.5107.5107,0,0,0,.3615-.5038.52.52,0,0,0-.3931-.5242.5311.5311,0,0,0,.1785-.5784.5016.5016,0,0,0-.4632-.3705.5332.5332,0,0,0,.12-.6281.4972.4972,0,0,0-.6078-.2914.5424.5424,0,0,0-.07-.662.497.497,0,0,0-.6778-.0339.54.54,0,0,0-.1853-.6077.4879.4879,0,0,0-.6258.0158.5151.5151,0,0,0-.9986-.1423,1.1352,1.1352,0,0,1-.0271-.1379.504.504,0,0,0-.732-.37.5241.5241,0,0,0-.2756.4519.1853.1853,0,0,1-.0136.0587.52.52,0,0,0-1.0054.1446.4787.4787,0,0,0-.5851-.0406.5352.5352,0,0,0-.2259.6325.49.49,0,0,0-.6552,0,.54.54,0,0,0-.1085.6778.4882.4882,0,0,0-.56.2056.5423.5423,0,0,0,.0678.7275.5377.5377,0,0,0-.2869.9534.52.52,0,0,0-.3864.5106.5128.5128,0,0,0,.3593.52.5379.5379,0,0,0-.1582.5061l.0768.2508" fill="none" stroke="#231f20" stroke-miterlimit="10" stroke-width="0.25"/><path d="M246.4229,93.7029a1.0145,1.0145,0,0,1-1.0008,0l-.2485-.1468c-.5581-.348-1.2359-.8021-1.2359-1.0325V90.1513a1.367,1.367,0,0,1,.5942-1.13,5.4254,5.4254,0,0,1,.8021-.4677,1.5821,1.5821,0,0,1,1.2584,0,5.1657,5.1657,0,0,1,.7953.4654,1.3671,1.3671,0,0,1,.59,1.13v2.3745C247.98,92.7924,247.0307,93.3618,246.4229,93.7029Z" fill="none" stroke="#231f20" stroke-miterlimit="10" stroke-width="0.25"/><path d="M247.0149,92.0717c0,.3344-.4971.7908-1.08.7908a1.0033,1.0033,0,0,1-1.03-.7908" fill="none" stroke="#000" stroke-miterlimit="10" stroke-width="0.25"/><path d="M246.54,91.5543a.58.58,0,0,1-1.1319,0" fill="none" stroke="#000" stroke-miterlimit="10" stroke-width="0.25"/><path d="M247.9886,90.1287v.0475h-4.0509v.7184a1.0983,1.0983,0,0,0,1.06.4926,1.2068,1.2068,0,0,0,.9693-.6778,1.13,1.13,0,0,0,2.02.1129v-.6936Zm-.488.2576a.0995.0995,0,0,1,.0678.1446.139.139,0,0,1-.0271.0361l-.4858.4835a.2256.2256,0,0,1-.0655.0407.1063.1063,0,0,1-.1152-.0565.0926.0926,0,0,1,0-.0994.1188.1188,0,0,1,.0226-.0249l.5015-.4857A.1086.1086,0,0,1,247.5006,90.3863Zm-1.0076.3389c.0406-.0452.0836-.0881.1288-.1311s.1174-.122.1784-.1784a.0994.0994,0,0,1,.1695.0474.0926.0926,0,0,1-.0271.0926l-.2937.305a.2247.2247,0,0,1-.0543.0294.1106.1106,0,0,1-.1061-.0565A.0924.0924,0,0,1,246.493,90.7252Zm-1.2178-.3a.1017.1017,0,0,1,.1627.122.1.1,0,0,1-.02.02l-.4993.4971a.0973.0973,0,0,1-.113.0271.1174.1174,0,0,1-.0678-.0972.2683.2683,0,0,1,.0384-.07Zm-.9195.314a.4064.4064,0,0,1,.0429-.0451l.26-.2689a.1039.1039,0,0,1,.1468-.0068l.0068.0068a.0994.0994,0,0,1,.0112.14l-.0112.0113-.2869.2869a.2254.2254,0,0,1-.0633.0384.1.1,0,0,1-.1039-.0565.0926.0926,0,0,1-.0023-.1129Z"/><rect x="238.1766" y="82.6302" width="16.5808" height="16.5921" rx="2.8941" fill="none" stroke="#231f20" stroke-miterlimit="10" stroke-width="0.25"/><path d="M241.7372,93.78h-.253a.5911.5911,0,0,0,.1559.4044.5308.5308,0,0,0,.3908.1717h0a.56.56,0,0,0,.5513-.5691v-.0025h-.2531a.31.31,0,0,1-.2959.3209h0a.2846.2846,0,0,1-.2056-.0927.3367.3367,0,0,1-.0881-.2259Z"/><path d="M241.9948,95.2053a.8287.8287,0,0,1-.4835-.1491.4022.4022,0,0,1-.1785-.314h-.253a.6438.6438,0,0,0,.28.5151,1.051,1.051,0,0,0,.6326.2011h0a.8205.8205,0,0,0,.9037-.7095h-.2349C242.659,94.9975,242.3563,95.2031,241.9948,95.2053Z"/><path d="M241.5226,93.12c.02.1243-.0136.1559-.0136.1559h.2666a.36.36,0,0,0,0-.2078.3335.3335,0,0,0-.0316-.0949h0a.5942.5942,0,0,0-.6394-.2892.6639.6639,0,0,0-.3931.1988.6022.6022,0,0,0-.0949.1468h0a.4166.4166,0,0,0-.0339.1311.1117.1117,0,0,0,0,.0271.6215.6215,0,0,0,0,.1039h.2644a.0862.0862,0,0,1,0-.02V93.24a.2258.2258,0,0,1,.0655-.1808.4177.4177,0,0,1,.244-.12A.3208.3208,0,0,1,241.5226,93.12Z"/><path d="M243.26,93.1178c.02.122-.0136.1536-.0136.1536h.2666a.3591.3591,0,0,0,0-.2079.5086.5086,0,0,0-.0294-.0949h0a.5851.5851,0,0,0-.63-.2914.6617.6617,0,0,0-.3909.1966.4926.4926,0,0,0-.0948.1468h0a.4133.4133,0,0,0-.0339.131v.0249a.5816.5816,0,0,0,0,.1039h.2643a.0984.0984,0,0,1,0-.02v-.0339a.2126.2126,0,0,1,.0655-.1785.4042.4042,0,0,1,.2418-.12C243.0724,92.8941,243.2464,92.9822,243.26,93.1178Z"/><path d="M243.5333,91.1409a1.3918,1.3918,0,0,0-.7049-.479,4.4531,4.4531,0,0,0-1.1929-.1875c-1.3126.0316-2.0694.84-2.3021,2.4965,0,.09-.02.183-.0226.2756l-.1695,4.7716.2531-.2259.1694-4.5457a2.3616,2.3616,0,0,1,.02-.2507,2.9059,2.9059,0,0,1,.8247-1.8639,1.8275,1.8275,0,0,0-.4858,1.2561v1.74a6.2762,6.2762,0,0,0,1.0122,1.99,1.6133,1.6133,0,0,0,.9037.2259h.2417a1.55,1.55,0,0,0,.9037-.2259,6.2386,6.2386,0,0,0,1.0144-1.99v-1.74A1.807,1.807,0,0,0,243.5333,91.1409Zm-3.355,1.2539a1.4775,1.4775,0,0,1,1.4211-1.5182h.5445c-.2847.2824-.6642.6484-.967.9037a11.883,11.883,0,0,0-.9963.9692Zm3.5832,1.6809a5.96,5.96,0,0,1-.9263,1.8526,1.5083,1.5083,0,0,1-.8653.1694,1.3155,1.3155,0,0,1-.863-.1694,6.0348,6.0348,0,0,1-.9263-1.8526V93.111a13.4925,13.4925,0,0,1,1.1612-1.15c.3728-.3163.8631-.7953,1.1523-1.0844a1.3777,1.3777,0,0,1,.854.4383,1.5566,1.5566,0,0,1,.4157,1.08Z"/><path d="M250.345,91.2358l-.0813-.1333c-.2033.2575-.59.8043-.7365,1.0121.1288-.1694.35-.3795.5287-.3795h1.2923a.6053.6053,0,0,1,.497.2846l.6416,1.028a.79.79,0,0,0,.287-.9986,2.9387,2.9387,0,0,0-.54-1.0212,6.5,6.5,0,0,1,.9692.6778.1966.1966,0,0,0,.1311.0475.2082.2082,0,0,0,.1581-.0723.1966.1966,0,0,0-.0208-.2772l-.0063-.0052c-.85-.6982-1.2381-.8224-1.4075-.8224h-.043a.6541.6541,0,0,0-.201.0655c-.0407-.0294-.0836-.0565-.1288-.0836a1.153,1.153,0,0,1,.2688-.2259.9334.9334,0,0,1,.4767-.1175,2.33,2.33,0,0,1,.9422.253.1826.1826,0,0,0,.0971.0249.206.206,0,0,0,.1808-.1039.2012.2012,0,0,0-.0789-.2733l0,0a2.6922,2.6922,0,0,0-1.141-.3028,1.34,1.34,0,0,0-.6777.1717,1.5829,1.5829,0,0,0-.4519.3864c-.061-.0226-.122-.0407-.1875-.0588a1.0685,1.0685,0,0,1,.7591-.6777,1.1406,1.1406,0,0,1,.3-.0362,2.4066,2.4066,0,0,1,.49.0542h.0474a.2011.2011,0,0,0,.0452-.3976,2.8558,2.8558,0,0,0-.5807-.0633,1.5156,1.5156,0,0,0-.4179.052,1.4844,1.4844,0,0,0-.8721.6213v-.6461a.2056.2056,0,0,0-.4112,0v.6529a.0262.0262,0,0,0-.0226-.0249c-.0045,0,0,.226-.0406.226a.05.05,0,0,1-.0272-.0136,1.0906,1.0906,0,0,0-.1739-.1378.7216.7216,0,0,0,.09.1288c.0745.0926.3163.5535.2553.5761l-.113.2078.1378.0859Z" fill="none"/><path d="M249.5159,92.1169a.825.825,0,0,0-.0588.0859Z"/><path d="M250.284,89.1505a.3616.3616,0,0,1,.4067-.3592.4313.4313,0,0,1,.4315.427v.0926a1.8749,1.8749,0,0,1,.5852-.28,1.779,1.779,0,0,1,.4789-.0587,3.1049,3.1049,0,0,1,.6281.0678.4225.4225,0,0,1,.2711.192.4155.4155,0,0,1,.0543.3231.4869.4869,0,0,1-.052.1265,3.2339,3.2339,0,0,1,.5987.2259.4294.4294,0,0,1,.2056.26.42.42,0,0,1-.0384.3254.436.436,0,0,1-.5829.1649,2.0853,2.0853,0,0,0-.8043-.2259,5.2825,5.2825,0,0,1,1.1477.77.4247.4247,0,0,1,.0632.5973l-.0067.0082a.4267.4267,0,0,1-.33.1513.42.42,0,0,1-.2733-.0971c-.05-.0407-.0994-.0813-.1514-.12.0316.0813.0587.16.0813.2259a1.0239,1.0239,0,0,1-.4,1.2674l-.1378.0746" fill="none" stroke="#000" stroke-miterlimit="10" stroke-width="0.25"/><line x1="240.5375" y1="95.377" x2="240.5375" y2="96.8727" fill="none" stroke="#231f20" stroke-linecap="round" stroke-miterlimit="10" stroke-width="0.25"/><line x1="240.0495" y1="92.7721" x2="240.0495" y2="96.3734" fill="none" stroke="#231f20" stroke-linecap="round" stroke-miterlimit="10" stroke-width="0.25"/><path d="M253.0878,89.6814a2.4356,2.4356,0,0,0-1.5431.0859" fill="none" stroke="#000" stroke-linecap="round" stroke-miterlimit="10" stroke-width="0.25"/></svg>