<svg xmlns="http://www.w3.org/2000/svg" xmlns:xlink="http://www.w3.org/1999/xlink" width="279" height="227" viewBox="0 0 279 227"><defs><clipPath id="a"><rect x="-7.9397" y="-7.3311" width="294.8794" height="241.6622" fill="none"/></clipPath><clipPath id="b"><path d="M45.1909,135.3489H85.4234a2.8738,2.8738,0,0,1,2.8738,2.8738v2.299a2.8737,2.8737,0,0,1-2.8737,2.8737H45.1909a2.8737,2.8737,0,0,1-2.8737-2.8737v-2.299A2.8737,2.8737,0,0,1,45.1909,135.3489Z" fill="none"/></clipPath><clipPath id="c"><rect x="-4.6829" y="3.3489" width="279" height="227" fill="none"/></clipPath><clipPath id="d"><rect x="-1" y="-0.6542" width="279" height="227" fill="none"/></clipPath></defs><g clip-path="url(#a)"><rect x="-13.2243" y="-31.8167" width="305.4486" height="290.6333" fill="#dfdfdf"/></g><rect x="13.7611" y="70.8496" width="103.092" height="83.739" fill="#fff"/><g clip-path="url(#b)"><g clip-path="url(#c)"><rect x="37.3171" y="130.3489" width="55.98" height="18.0465"/></g></g><g clip-path="url(#d)"><path d="M24.7856,83.9179h4.6187v1.1387H26.13v1.4892H29v1.125H26.13v2.7158H24.7856Z" fill="#5c5c5c"/><path d="M33.1689,85.6933a1.9588,1.9588,0,0,1,.8277.709,2.347,2.347,0,0,1,.3813.99,6.0922,6.0922,0,0,1,.0415.9512H30.9306a1.148,1.148,0,0,0,.501,1.01,1.264,1.264,0,0,0,.69.1807,1.0607,1.0607,0,0,0,.6954-.22,1.0455,1.0455,0,0,0,.2578-.33H34.354a1.5621,1.5621,0,0,1-.4644.8662,2.3278,2.3278,0,0,1-1.8022.6982A2.6121,2.6121,0,0,1,30.4,89.96a2.322,2.322,0,0,1-.731-1.918,2.5921,2.5921,0,0,1,.66-1.9082,2.3079,2.3079,0,0,1,1.7129-.665A2.7335,2.7335,0,0,1,33.1689,85.6933Zm-1.874,1.082a1.3031,1.3031,0,0,0-.3335.7422h2.1577a1.0476,1.0476,0,0,0-.3335-.7578,1.0986,1.0986,0,0,0-.7431-.2578A.9931.9931,0,0,0,31.2949,86.7753Z" fill="#5c5c5c"/><path d="M36.8144,87.4726a1.9511,1.9511,0,0,0,.5005-.1094.376.376,0,0,0,.27-.3555.4222.4222,0,0,0-.207-.4072,1.3164,1.3164,0,0,0-.6084-.1123.7976.7976,0,0,0-.6367.2207.9006.9006,0,0,0-.1782.4394H34.7461a1.8328,1.8328,0,0,1,.353-1.0332,2.0588,2.0588,0,0,1,1.7124-.6328,3.0548,3.0548,0,0,1,1.4038.3125,1.1971,1.1971,0,0,1,.6133,1.1778V89.17q0,.2286.0088.5528a.6906.6906,0,0,0,.0747.334.4423.4423,0,0,0,.1846.1455v.1845H37.7344a1.39,1.39,0,0,1-.0791-.2724q-.022-.1275-.0352-.29a2.5616,2.5616,0,0,1-.6011.4785,1.8163,1.8163,0,0,1-.9194.2334,1.5886,1.5886,0,0,1-1.0806-.371,1.3214,1.3214,0,0,1-.4267-1.0528,1.3628,1.3628,0,0,1,.686-1.2783,3.0834,3.0834,0,0,1,1.1069-.3086Zm.7661.5849a1.4183,1.4183,0,0,1-.2426.1211,2.0241,2.0241,0,0,1-.3365.085l-.2851.0527a1.9037,1.9037,0,0,0-.5757.1719.5722.5722,0,0,0-.2959.5312.5538.5538,0,0,0,.1807.4639.685.685,0,0,0,.4394.1436,1.31,1.31,0,0,0,.7564-.2383,1.004,1.004,0,0,0,.3593-.8653Z" fill="#5c5c5c"/><path d="M39.2959,86.5331v-.8926h.6679V84.3046h1.2393v1.3359h.7778v.8926h-.7778v2.5313a.5666.5666,0,0,0,.0747.3662.816.816,0,0,0,.457.0732c.0381,0,.0782-.001.1211-.0029s.084-.0029.125-.0068v.9365l-.5932.0224a1.5913,1.5913,0,0,1-1.2129-.3086.9128.9128,0,0,1-.211-.663V86.5331Z" fill="#5c5c5c"/><path d="M43.8979,85.5966v2.8877a1.5251,1.5251,0,0,0,.0962.6152.6652.6652,0,0,0,.669.3643.8738.8738,0,0,0,.8745-.5186,1.8882,1.8882,0,0,0,.1225-.7422V85.5966h1.27v4.79H45.7129V89.71q-.0177.0219-.0874.1318a.8955.8955,0,0,1-.1665.1934,1.7405,1.7405,0,0,1-.5679.36,1.9277,1.9277,0,0,1-.6421.0967,1.43,1.43,0,0,1-1.4282-.7646,2.9247,2.9247,0,0,1-.2061-1.2432V85.5966Z" fill="#5c5c5c"/><path d="M50.6733,85.4843c.0161.0019.0523.0039.1079.0068v1.2832q-.1186-.0132-.2109-.0176c-.0615-.0029-.1113-.0048-.1494-.0048a1.0405,1.0405,0,0,0-1.0152.4922,1.9233,1.9233,0,0,0-.145.8535v2.289H48v-4.79h1.1953v.835a2.64,2.64,0,0,1,.5054-.6543,1.3757,1.3757,0,0,1,.914-.295C50.6377,85.4823,50.6572,85.4833,50.6733,85.4843Z" fill="#5c5c5c"/><path d="M54.5014,85.6933a1.9588,1.9588,0,0,1,.8277.709,2.3456,2.3456,0,0,1,.3813.99,6.0922,6.0922,0,0,1,.0415.9512H52.2632a1.1477,1.1477,0,0,0,.5009,1.01,1.2641,1.2641,0,0,0,.6905.1807,1.06,1.06,0,0,0,.6953-.22,1.0455,1.0455,0,0,0,.2578-.33h1.2788a1.5621,1.5621,0,0,1-.4644.8662,2.3276,2.3276,0,0,1-1.8022.6982,2.6121,2.6121,0,0,1-1.687-.5888,2.322,2.322,0,0,1-.731-1.918,2.5925,2.5925,0,0,1,.66-1.9082,2.3079,2.3079,0,0,1,1.7129-.665A2.7332,2.7332,0,0,1,54.5014,85.6933Zm-1.874,1.082a1.3038,1.3038,0,0,0-.3335.7422h2.1577a1.0476,1.0476,0,0,0-.3335-.7578,1.0986,1.0986,0,0,0-.7431-.2578A.9933.9933,0,0,0,52.6274,86.7753Z" fill="#5c5c5c"/><path d="M63.4233,83.9091v1.1475h-1.938v5.33H60.123v-5.33H58.1762V83.9091Z" fill="#5c5c5c"/><path d="M65.2661,85.0253h-1.27V83.8691h1.27Zm-1.27.5713h1.27v4.79h-1.27Z" fill="#5c5c5c"/><path d="M65.8515,86.5331v-.8926h.668V84.3046h1.2393v1.3359h.7778v.8926h-.7778v2.5313a.5666.5666,0,0,0,.0747.3662.8158.8158,0,0,0,.457.0732c.0381,0,.0781-.001.1211-.0029s.084-.0029.125-.0068v.9365l-.5933.0224a1.5913,1.5913,0,0,1-1.2129-.3086.9128.9128,0,0,1-.2109-.663V86.5331Z" fill="#5c5c5c"/><path d="M70.4848,90.3866H69.2324V83.9091h1.2524Z" fill="#5c5c5c"/><path d="M74.6928,85.6933a1.9588,1.9588,0,0,1,.8277.709,2.3456,2.3456,0,0,1,.3813.99,6.0922,6.0922,0,0,1,.0415.9512H72.4546a1.1477,1.1477,0,0,0,.5009,1.01,1.2641,1.2641,0,0,0,.6905.1807,1.06,1.06,0,0,0,.6953-.22,1.0455,1.0455,0,0,0,.2578-.33h1.2788a1.5625,1.5625,0,0,1-.4643.8662,2.3279,2.3279,0,0,1-1.8023.6982,2.6121,2.6121,0,0,1-1.687-.5888,2.322,2.322,0,0,1-.731-1.918,2.5925,2.5925,0,0,1,.66-1.9082,2.3079,2.3079,0,0,1,1.7129-.665A2.7332,2.7332,0,0,1,74.6928,85.6933Zm-1.874,1.082a1.3038,1.3038,0,0,0-.3335.7422H74.643A1.0472,1.0472,0,0,0,74.31,86.76a1.0986,1.0986,0,0,0-.7431-.2578A.9933.9933,0,0,0,72.8188,86.7753Z" fill="#5c5c5c"/></g><g clip-path="url(#d)"><line x1="23.196" y1="103.9121" x2="107.082" y2="104.1668" fill="none" stroke="#5c5c5c" stroke-linecap="square" stroke-miterlimit="10"/><line x1="23.9671" y1="98.6378" x2="107.8531" y2="98.8926" fill="none" stroke="#5c5c5c" stroke-linecap="square" stroke-miterlimit="10"/><line x1="23.196" y1="109.0074" x2="107.082" y2="109.2622" fill="none" stroke="#5c5c5c" stroke-linecap="square" stroke-miterlimit="10"/><line x1="23.196" y1="118.3541" x2="107.082" y2="118.6088" fill="none" stroke="#5c5c5c" stroke-linecap="square" stroke-miterlimit="10"/><line x1="23.196" y1="123.8799" x2="94.5488" y2="124.0823" fill="none" stroke="#5c5c5c" stroke-linecap="square" stroke-miterlimit="10"/></g><rect x="154.9177" y="77.0702" width="14.774" height="15.3772" rx="3.2115" fill="none" stroke="#231f20" stroke-linecap="round" stroke-miterlimit="10" stroke-width="0.25"/><path d="M165.0623,90.4342a1.1049,1.1049,0,0,1-.5556.1483h-4.311a1.1133,1.1133,0,0,1-1.1134-1.1133V79.9138a1.1134,1.1134,0,0,1,1.1134-1.1113h4.3129a1.1134,1.1134,0,0,1,1.1134,1.1113v7.6036" fill="none" stroke="#000" stroke-miterlimit="10" stroke-width="0.25"/><circle cx="161.3743" cy="79.7082" r="0.2155" fill="none" stroke="#000" stroke-miterlimit="10" stroke-width="0.25"/><line x1="161.9754" y1="79.7082" x2="163.6247" y2="79.7082" fill="none" stroke="#000" stroke-linecap="round" stroke-miterlimit="10" stroke-width="0.25"/><polyline points="163.773 87.656 159.587 87.656 159.587 80.539 165.114 80.539 165.114 86.857" fill="none" stroke="#000" stroke-miterlimit="10" stroke-width="0.25"/><circle cx="162.3512" cy="89.0856" r="0.7515" fill="none" stroke="#000" stroke-miterlimit="10" stroke-width="0.25"/><path d="M167.0794,84.6836l-1.4555-2.5708V87.61l-1.5108-2.0882a.791.791,0,0,0-1.1865,1.0144l1.675,2.27c-.0613.31-.2769,1.79,1.226,1.79h1.45V85.3777A1.4083,1.4083,0,0,0,167.0794,84.6836Z" fill="none" stroke="#000" stroke-miterlimit="10" stroke-width="0.25"/><path d="M163.1758,86.8589h-1.9993a.6309.6309,0,0,1-.6229-.6387V84.911a.6309.6309,0,0,1,.6229-.6229H163.52a.6308.6308,0,0,1,.6308.6308v.74" fill="none" stroke="#000" stroke-miterlimit="10" stroke-width="0.25"/><line x1="161.1251" y1="86.0936" x2="162.7823" y2="86.0936" fill="none" stroke="#000" stroke-miterlimit="10" stroke-width="0.25"/><line x1="161.1686" y1="85.0376" x2="163.4882" y2="85.0376" fill="none" stroke="#000" stroke-miterlimit="10" stroke-width="0.25"/><line x1="161.8983" y1="82.6824" x2="163.7018" y2="82.6824" fill="none" stroke="#000" stroke-miterlimit="10" stroke-width="0.25"/><line x1="161.9299" y1="82.0219" x2="163.7018" y2="82.0219" fill="none" stroke="#000" stroke-miterlimit="10" stroke-width="0.25"/><path d="M163.7058,81.3792h-1.73a.4469.4469,0,0,0-.4469.4429l-.0119.884-.3955,1.0145.9611-.4707,1.6354-.0138a.445.445,0,0,0,.445-.445v-.963a.4489.4489,0,0,0-.4489-.449Z" fill="none" stroke="#000" stroke-linecap="round" stroke-miterlimit="10" stroke-width="0.25"/><path d="M150.6966,96.4771h2.096v.5168h-1.4857V97.67h1.3022v.51h-1.3022v1.2325h-.61Z" fill="#5c5c5c"/><path d="M154.501,97.2828a.8892.8892,0,0,1,.3756.3218,1.0644,1.0644,0,0,1,.173.4493,2.7759,2.7759,0,0,1,.0189.4317h-1.5832a.5206.5206,0,0,0,.2273.4582.5733.5733,0,0,0,.3133.082.4806.4806,0,0,0,.3155-.1.472.472,0,0,0,.117-.15h.58a.7092.7092,0,0,1-.2108.3931,1.0561,1.0561,0,0,1-.8178.3168,1.1853,1.1853,0,0,1-.7656-.2672,1.0537,1.0537,0,0,1-.3317-.87,1.1761,1.1761,0,0,1,.2994-.8659,1.0474,1.0474,0,0,1,.7773-.3018A1.2406,1.2406,0,0,1,154.501,97.2828Zm-.85.491a.5911.5911,0,0,0-.1514.3369h.9792a.475.475,0,0,0-.1514-.3439.4985.4985,0,0,0-.3372-.117A.4507.4507,0,0,0,153.6506,97.7738Z" fill="#5c5c5c"/><path d="M156.1553,98.09a.8814.8814,0,0,0,.2271-.05.1706.1706,0,0,0,.1226-.1613.1916.1916,0,0,0-.094-.1848.5969.5969,0,0,0-.2761-.0509.3619.3619,0,0,0-.2889.1.4082.4082,0,0,0-.0809.1994h-.5484a.8322.8322,0,0,1,.16-.4688.934.934,0,0,1,.7771-.2872,1.3857,1.3857,0,0,1,.637.1418.5433.5433,0,0,1,.2784.5345v.9971c0,.0691.0013.1529.0039.2508a.3137.3137,0,0,0,.0339.1516.2018.2018,0,0,0,.0838.066v.0838h-.6182a.6288.6288,0,0,1-.0359-.1237q-.01-.0577-.016-.1316a1.1622,1.1622,0,0,1-.2727.2172.8254.8254,0,0,1-.4173.1059.7206.7206,0,0,1-.49-.1684.6.6,0,0,1-.1937-.4778.6185.6185,0,0,1,.3113-.58,1.4014,1.4014,0,0,1,.5024-.14Zm.3477.2654a.65.65,0,0,1-.11.055.9233.9233,0,0,1-.1527.0385l-.1294.024a.8633.8633,0,0,0-.2613.078.26.26,0,0,0-.1342.241.2513.2513,0,0,0,.0819.2105.3109.3109,0,0,0,.2.0652.5947.5947,0,0,0,.3432-.1081.4558.4558,0,0,0,.1631-.3927Z" fill="#5c5c5c"/><path d="M157.2814,97.6639v-.405h.3031v-.6063h.5624v.6063h.353v.405h-.353v1.1487a.2571.2571,0,0,0,.0339.1662.37.37,0,0,0,.2074.0332c.0173,0,.0355,0,.055-.0013s.0381-.0013.0567-.0031v.425l-.2692.01a.7221.7221,0,0,1-.55-.14.414.414,0,0,1-.0958-.3009v-1.338Z" fill="#5c5c5c"/><path d="M159.37,97.2389v1.3105a.69.69,0,0,0,.0437.2792.3019.3019,0,0,0,.3035.1653.3966.3966,0,0,0,.3969-.2353.8568.8568,0,0,0,.0556-.3368V97.2389h.5764v2.1738h-.5525v-.3071c-.0053.0066-.0186.0265-.04.06a.4035.4035,0,0,1-.0756.0877.79.79,0,0,1-.2577.1636.8763.8763,0,0,1-.2914.0438.6487.6487,0,0,1-.6481-.347,1.3266,1.3266,0,0,1-.0935-.5641V97.2389Z" fill="#5c5c5c"/><path d="M162.4445,97.188c.0073.0009.0237.0018.049.0031v.5823c-.0359-.004-.0678-.0066-.0958-.008s-.05-.0022-.0678-.0022a.472.472,0,0,0-.4606.2234.8718.8718,0,0,0-.0658.3873v1.0388h-.5724V97.2389h.5425v.379a1.1967,1.1967,0,0,1,.2293-.297.6247.6247,0,0,1,.4148-.1338Z" fill="#5c5c5c"/><path d="M164.1817,97.2828a.8886.8886,0,0,1,.3756.3218,1.0631,1.0631,0,0,1,.173.4493,2.7634,2.7634,0,0,1,.0189.4317H163.166a.5206.5206,0,0,0,.2273.4582.5733.5733,0,0,0,.3133.082.4811.4811,0,0,0,.3156-.1.4748.4748,0,0,0,.117-.15h.58a.7089.7089,0,0,1-.2107.3931,1.0565,1.0565,0,0,1-.8179.3168,1.1853,1.1853,0,0,1-.7656-.2672,1.0537,1.0537,0,0,1-.3317-.87,1.1761,1.1761,0,0,1,.2994-.8659,1.0474,1.0474,0,0,1,.7773-.3018A1.2406,1.2406,0,0,1,164.1817,97.2828Zm-.85.491a.5917.5917,0,0,0-.1514.3369h.9792a.4753.4753,0,0,0-.1513-.3439.4989.4989,0,0,0-.3373-.117A.4507.4507,0,0,0,163.3313,97.7738Z" fill="#5c5c5c"/><path d="M168.2305,96.4732v.5207h-.88v2.4188h-.6182V96.9939h-.8835v-.5207Z" fill="#5c5c5c"/><path d="M169.0667,96.98H168.49V96.455h.5763Zm-.5763.2592h.5763v2.1738H168.49Z" fill="#5c5c5c"/><path d="M169.3324,97.6639v-.405h.3031v-.6063h.5624v.6063h.353v.405h-.353v1.1487a.2571.2571,0,0,0,.0339.1662.37.37,0,0,0,.2074.0332c.0173,0,.0355,0,.055-.0013s.0381-.0013.0567-.0031v.425l-.2692.01a.7225.7225,0,0,1-.55-.14.4144.4144,0,0,1-.0957-.3009v-1.338Z" fill="#5c5c5c"/><path d="M171.435,99.4127h-.5684V96.4732h.5684Z" fill="#5c5c5c"/><path d="M173.3446,97.2828a.8886.8886,0,0,1,.3756.3218,1.0631,1.0631,0,0,1,.173.4493,2.7759,2.7759,0,0,1,.0189.4317h-1.5832a.5206.5206,0,0,0,.2273.4582.5733.5733,0,0,0,.3133.082.4811.4811,0,0,0,.3156-.1.4748.4748,0,0,0,.117-.15h.58a.71.71,0,0,1-.2107.3931,1.0565,1.0565,0,0,1-.8179.3168,1.1853,1.1853,0,0,1-.7656-.2672,1.0537,1.0537,0,0,1-.3317-.87,1.1761,1.1761,0,0,1,.2994-.8659,1.0474,1.0474,0,0,1,.7773-.3018A1.2406,1.2406,0,0,1,173.3446,97.2828Zm-.85.491a.5911.5911,0,0,0-.1514.3369h.9792a.4753.4753,0,0,0-.1513-.3439.4989.4989,0,0,0-.3373-.117A.4507.4507,0,0,0,172.4942,97.7738Z" fill="#5c5c5c"/><path d="M150.6966,133.8554h2.096v.5167h-1.4857v.6758h1.3022v.5106h-1.3022v1.2324h-.61Z" fill="#5c5c5c"/><path d="M154.501,134.6611a.889.889,0,0,1,.3756.3217,1.0648,1.0648,0,0,1,.173.4494,2.7745,2.7745,0,0,1,.0189.4316h-1.5832a.5206.5206,0,0,0,.2273.4582.5733.5733,0,0,0,.3133.082.4806.4806,0,0,0,.3155-.1.472.472,0,0,0,.117-.15h.58a.7088.7088,0,0,1-.2108.3931,1.0561,1.0561,0,0,1-.8178.3169,1.1854,1.1854,0,0,1-.7656-.2673,1.0536,1.0536,0,0,1-.3317-.87,1.1763,1.1763,0,0,1,.2994-.866,1.0474,1.0474,0,0,1,.7773-.3018A1.2406,1.2406,0,0,1,154.501,134.6611Zm-.85.491a.5911.5911,0,0,0-.1514.3368h.9792a.4752.4752,0,0,0-.1514-.3439.4985.4985,0,0,0-.3372-.117A.45.45,0,0,0,153.6506,135.1521Z" fill="#5c5c5c"/><path d="M156.1553,135.4685a.8823.8823,0,0,0,.2271-.05.1707.1707,0,0,0,.1226-.1613.1916.1916,0,0,0-.094-.1848.5968.5968,0,0,0-.2761-.051.3619.3619,0,0,0-.2889.1.4077.4077,0,0,0-.0809.1994h-.5484a.8325.8325,0,0,1,.16-.4689.9343.9343,0,0,1,.7771-.2872,1.387,1.387,0,0,1,.637.1418.5433.5433,0,0,1,.2784.5345v.9971q0,.1038.0039.2509a.3128.3128,0,0,0,.0339.1515.2012.2012,0,0,0,.0838.0661v.0837h-.6182a.63.63,0,0,1-.0359-.1236q-.01-.0579-.016-.1317a1.1622,1.1622,0,0,1-.2727.2172.8243.8243,0,0,1-.4173.1059.7206.7206,0,0,1-.49-.1684.5994.5994,0,0,1-.1937-.4777.6184.6184,0,0,1,.3113-.58,1.3991,1.3991,0,0,1,.5024-.14Zm.3477.2655a.6493.6493,0,0,1-.11.0549.9219.9219,0,0,1-.1527.0386l-.1294.0239a.8633.8633,0,0,0-.2613.078.26.26,0,0,0-.1342.2411.2514.2514,0,0,0,.0819.21.3114.3114,0,0,0,.2.0651.594.594,0,0,0,.3432-.1081.4556.4556,0,0,0,.1631-.3926Z" fill="#5c5c5c"/><path d="M157.2814,135.0422v-.4051h.3031v-.6062h.5624v.6062h.353v.4051h-.353v1.1487a.2575.2575,0,0,0,.0339.1662.3707.3707,0,0,0,.2074.0332c.0173,0,.0355,0,.055-.0013s.0381-.0014.0567-.0031v.425l-.2692.01a.7221.7221,0,0,1-.55-.14.414.414,0,0,1-.0958-.3009v-1.3379Z" fill="#5c5c5c"/><path d="M159.37,134.6172v1.31a.69.69,0,0,0,.0437.2792.3017.3017,0,0,0,.3035.1653.3965.3965,0,0,0,.3969-.2353.8568.8568,0,0,0,.0556-.3368v-1.1828h.5764v2.1737h-.5525v-.3071c-.0053.0066-.0186.0266-.04.06a.4041.4041,0,0,1-.0756.0878.789.789,0,0,1-.2577.1635.8762.8762,0,0,1-.2914.0439.6489.6489,0,0,1-.6481-.347,1.3274,1.3274,0,0,1-.0935-.5642v-1.31Z" fill="#5c5c5c"/><path d="M162.4445,134.5662c.0073.0009.0237.0018.049.0031v.5823c-.0359-.0039-.0678-.0066-.0958-.0079s-.05-.0023-.0678-.0023a.472.472,0,0,0-.4606.2234.8721.8721,0,0,0-.0658.3873v1.0388h-.5724v-2.1737h.5425v.3789a1.1977,1.1977,0,0,1,.2293-.2969.6242.6242,0,0,1,.4148-.1339Z" fill="#5c5c5c"/><path d="M164.1817,134.6611a.8884.8884,0,0,1,.3756.3217,1.0635,1.0635,0,0,1,.173.4494,2.762,2.762,0,0,1,.0189.4316H163.166a.5206.5206,0,0,0,.2273.4582.5733.5733,0,0,0,.3133.082.4811.4811,0,0,0,.3156-.1.4748.4748,0,0,0,.117-.15h.58a.7086.7086,0,0,1-.2107.3931,1.0565,1.0565,0,0,1-.8179.3169,1.1854,1.1854,0,0,1-.7656-.2673,1.0536,1.0536,0,0,1-.3317-.87,1.1763,1.1763,0,0,1,.2994-.866,1.0474,1.0474,0,0,1,.7773-.3018A1.2406,1.2406,0,0,1,164.1817,134.6611Zm-.85.491a.5917.5917,0,0,0-.1514.3368h.9792a.4755.4755,0,0,0-.1513-.3439.4989.4989,0,0,0-.3373-.117A.45.45,0,0,0,163.3313,135.1521Z" fill="#5c5c5c"/><path d="M168.2305,133.8514v.5207h-.88v2.4188h-.6182v-2.4188h-.8835v-.5207Z" fill="#5c5c5c"/><path d="M169.0667,134.3579H168.49v-.5247h.5763Zm-.5763.2593h.5763v2.1737H168.49Z" fill="#5c5c5c"/><path d="M169.3324,135.0422v-.4051h.3031v-.6062h.5624v.6062h.353v.4051h-.353v1.1487a.2575.2575,0,0,0,.0339.1662.3707.3707,0,0,0,.2074.0332c.0173,0,.0355,0,.055-.0013s.0381-.0014.0567-.0031v.425l-.2692.01a.7225.7225,0,0,1-.55-.14.4144.4144,0,0,1-.0957-.3009v-1.3379Z" fill="#5c5c5c"/><path d="M171.435,136.7909h-.5684v-2.9395h.5684Z" fill="#5c5c5c"/><path d="M173.3446,134.6611a.8884.8884,0,0,1,.3756.3217,1.0635,1.0635,0,0,1,.173.4494,2.7745,2.7745,0,0,1,.0189.4316h-1.5832a.5206.5206,0,0,0,.2273.4582.5733.5733,0,0,0,.3133.082.4811.4811,0,0,0,.3156-.1.4748.4748,0,0,0,.117-.15h.58a.7093.7093,0,0,1-.2107.3931,1.0565,1.0565,0,0,1-.8179.3169,1.1854,1.1854,0,0,1-.7656-.2673,1.0536,1.0536,0,0,1-.3317-.87,1.1763,1.1763,0,0,1,.2994-.866,1.0474,1.0474,0,0,1,.7773-.3018A1.2406,1.2406,0,0,1,173.3446,134.6611Zm-.85.491a.5911.5911,0,0,0-.1514.3368h.9792a.4755.4755,0,0,0-.1513-.3439.4989.4989,0,0,0-.3373-.117A.45.45,0,0,0,172.4942,135.1521Z" fill="#5c5c5c"/><path d="M224.9289,133.8554h2.096v.5167h-1.4857v.6758h1.3022v.5106h-1.3022v1.2324h-.61Z" fill="#5c5c5c"/><path d="M228.7333,134.6611a.889.889,0,0,1,.3756.3217,1.0635,1.0635,0,0,1,.173.4494,2.7745,2.7745,0,0,1,.0189.4316h-1.5832a.5206.5206,0,0,0,.2273.4582.5733.5733,0,0,0,.3133.082.4811.4811,0,0,0,.3156-.1.4732.4732,0,0,0,.1169-.15h.58a.7088.7088,0,0,1-.2108.3931,1.0561,1.0561,0,0,1-.8178.3169,1.1854,1.1854,0,0,1-.7656-.2673,1.0536,1.0536,0,0,1-.3317-.87,1.1763,1.1763,0,0,1,.2994-.866,1.0474,1.0474,0,0,1,.7773-.3018A1.2406,1.2406,0,0,1,228.7333,134.6611Zm-.85.491a.5911.5911,0,0,0-.1514.3368h.9792a.4752.4752,0,0,0-.1514-.3439.4985.4985,0,0,0-.3372-.117A.45.45,0,0,0,227.8829,135.1521Z" fill="#5c5c5c"/><path d="M230.3876,135.4685a.8823.8823,0,0,0,.2271-.05.1707.1707,0,0,0,.1226-.1613.1916.1916,0,0,0-.094-.1848.5968.5968,0,0,0-.2761-.051.3619.3619,0,0,0-.2889.1.4077.4077,0,0,0-.0809.1994h-.5484a.8325.8325,0,0,1,.16-.4689.9343.9343,0,0,1,.7771-.2872,1.387,1.387,0,0,1,.637.1418.5433.5433,0,0,1,.2784.5345v.9971q0,.1038.0039.2509a.3128.3128,0,0,0,.0339.1515.2012.2012,0,0,0,.0838.0661v.0837h-.6182a.63.63,0,0,1-.0359-.1236q-.01-.0579-.016-.1317a1.1622,1.1622,0,0,1-.2727.2172.8243.8243,0,0,1-.4173.1059.7206.7206,0,0,1-.49-.1684.5994.5994,0,0,1-.1937-.4777.6184.6184,0,0,1,.3113-.58,1.3991,1.3991,0,0,1,.5024-.14Zm.3477.2655a.6456.6456,0,0,1-.11.0549.9219.9219,0,0,1-.1527.0386l-.1294.0239a.8633.8633,0,0,0-.2613.078.26.26,0,0,0-.1342.2411.2514.2514,0,0,0,.0819.21.3114.3114,0,0,0,.2.0651.594.594,0,0,0,.3432-.1081.4556.4556,0,0,0,.1631-.3926Z" fill="#5c5c5c"/><path d="M231.5137,135.0422v-.4051h.3031v-.6062h.5624v.6062h.353v.4051h-.353v1.1487a.2575.2575,0,0,0,.0339.1662.3707.3707,0,0,0,.2074.0332c.0173,0,.0355,0,.055-.0013s.0381-.0014.0567-.0031v.425l-.2692.01a.7221.7221,0,0,1-.55-.14.414.414,0,0,1-.0958-.3009v-1.3379Z" fill="#5c5c5c"/><path d="M233.6021,134.6172v1.31a.6921.6921,0,0,0,.0437.2792.3017.3017,0,0,0,.3035.1653.3964.3964,0,0,0,.3969-.2353.8568.8568,0,0,0,.0556-.3368v-1.1828h.5764v2.1737h-.5525v-.3071c-.0053.0066-.0186.0266-.04.06a.4041.4041,0,0,1-.0756.0878.789.789,0,0,1-.2577.1635.8762.8762,0,0,1-.2914.0439.6489.6489,0,0,1-.6481-.347,1.3274,1.3274,0,0,1-.0935-.5642v-1.31Z" fill="#5c5c5c"/><path d="M236.6768,134.5662c.0073.0009.0237.0018.049.0031v.5823c-.0359-.0039-.0678-.0066-.0957-.0079s-.0506-.0023-.0679-.0023a.472.472,0,0,0-.4606.2234.8721.8721,0,0,0-.0658.3873v1.0388h-.5724v-2.1737h.5425v.3789a1.1977,1.1977,0,0,1,.2293-.2969.6244.6244,0,0,1,.4148-.1339Z" fill="#5c5c5c"/><path d="M238.414,134.6611a.8884.8884,0,0,1,.3756.3217,1.0649,1.0649,0,0,1,.1731.4494,2.777,2.777,0,0,1,.0188.4316h-1.5832a.5206.5206,0,0,0,.2273.4582.5733.5733,0,0,0,.3133.082.4811.4811,0,0,0,.3156-.1.4748.4748,0,0,0,.117-.15h.58a.7086.7086,0,0,1-.2107.3931,1.0564,1.0564,0,0,1-.8179.3169,1.1854,1.1854,0,0,1-.7656-.2673,1.0536,1.0536,0,0,1-.3317-.87,1.1763,1.1763,0,0,1,.2994-.866,1.0474,1.0474,0,0,1,.7773-.3018A1.2406,1.2406,0,0,1,238.414,134.6611Zm-.85.491a.5917.5917,0,0,0-.1514.3368h.9792a.4755.4755,0,0,0-.1513-.3439.4989.4989,0,0,0-.3373-.117A.45.45,0,0,0,237.5636,135.1521Z" fill="#5c5c5c"/><path d="M242.4628,133.8514v.5207h-.8795v2.4188h-.6182v-2.4188h-.8835v-.5207Z" fill="#5c5c5c"/><path d="M243.299,134.3579h-.5763v-.5247h.5763Zm-.5763.2593h.5763v2.1737h-.5763Z" fill="#5c5c5c"/><path d="M243.5647,135.0422v-.4051h.3031v-.6062h.5624v.6062h.353v.4051h-.353v1.1487a.2575.2575,0,0,0,.0339.1662.3707.3707,0,0,0,.2074.0332c.0173,0,.0355,0,.055-.0013s.0381-.0014.0567-.0031v.425l-.2692.01a.7221.7221,0,0,1-.55-.14.414.414,0,0,1-.0958-.3009v-1.3379Z" fill="#5c5c5c"/><path d="M245.6673,136.7909h-.5684v-2.9395h.5684Z" fill="#5c5c5c"/><path d="M247.5769,134.6611a.8884.8884,0,0,1,.3756.3217,1.0635,1.0635,0,0,1,.173.4494,2.762,2.762,0,0,1,.0189.4316h-1.5832a.5206.5206,0,0,0,.2273.4582.5733.5733,0,0,0,.3133.082.4811.4811,0,0,0,.3156-.1.4748.4748,0,0,0,.117-.15h.58a.7093.7093,0,0,1-.2107.3931,1.0565,1.0565,0,0,1-.8179.3169,1.1854,1.1854,0,0,1-.7656-.2673,1.0536,1.0536,0,0,1-.3317-.87,1.1763,1.1763,0,0,1,.2994-.866,1.0474,1.0474,0,0,1,.7773-.3018A1.2406,1.2406,0,0,1,247.5769,134.6611Zm-.85.491a.5917.5917,0,0,0-.1514.3368h.9792a.4755.4755,0,0,0-.1513-.3439.4989.4989,0,0,0-.3373-.117A.45.45,0,0,0,246.7265,135.1521Z" fill="#5c5c5c"/><path d="M224.9289,96.4514h2.096v.5168h-1.4857v.6758h1.3022v.51h-1.3022V99.387h-.61Z" fill="#5c5c5c"/><path d="M228.7333,97.2571a.8892.8892,0,0,1,.3756.3218,1.0631,1.0631,0,0,1,.173.4493,2.7759,2.7759,0,0,1,.0189.4317h-1.5832a.5206.5206,0,0,0,.2273.4582.5733.5733,0,0,0,.3133.082.4816.4816,0,0,0,.3156-.1.4732.4732,0,0,0,.1169-.15h.58a.7092.7092,0,0,1-.2108.3931,1.0561,1.0561,0,0,1-.8178.3168,1.1853,1.1853,0,0,1-.7656-.2672,1.0537,1.0537,0,0,1-.3317-.87,1.1761,1.1761,0,0,1,.2994-.8659,1.0474,1.0474,0,0,1,.7773-.3018A1.2406,1.2406,0,0,1,228.7333,97.2571Zm-.85.491a.5911.5911,0,0,0-.1514.3368h.9792a.475.475,0,0,0-.1514-.3438.4985.4985,0,0,0-.3372-.117A.4507.4507,0,0,0,227.8829,97.7481Z" fill="#5c5c5c"/><path d="M230.3876,98.0646a.8814.8814,0,0,0,.2271-.05.1706.1706,0,0,0,.1226-.1613.1916.1916,0,0,0-.094-.1848.5969.5969,0,0,0-.2761-.0509.3619.3619,0,0,0-.2889.1.4082.4082,0,0,0-.0809.1994h-.5484a.8322.8322,0,0,1,.16-.4688.934.934,0,0,1,.7771-.2872,1.3857,1.3857,0,0,1,.637.1418.5433.5433,0,0,1,.2784.5345v.9971c0,.0691.0013.1529.0039.2508a.3137.3137,0,0,0,.0339.1516.2018.2018,0,0,0,.0838.066v.0838h-.6182a.6288.6288,0,0,1-.0359-.1237q-.01-.0577-.016-.1316a1.1622,1.1622,0,0,1-.2727.2172.8254.8254,0,0,1-.4173.1059.7206.7206,0,0,1-.49-.1684.6.6,0,0,1-.1937-.4778.6185.6185,0,0,1,.3113-.58,1.4014,1.4014,0,0,1,.5024-.14Zm.3477.2654a.6463.6463,0,0,1-.11.055.9233.9233,0,0,1-.1527.0385l-.1294.024a.8633.8633,0,0,0-.2613.078.26.26,0,0,0-.1342.241.2513.2513,0,0,0,.0819.2105.3109.3109,0,0,0,.2.0652.5947.5947,0,0,0,.3432-.1081.4558.4558,0,0,0,.1631-.3927Z" fill="#5c5c5c"/><path d="M231.5137,97.6382v-.405h.3031v-.6063h.5624v.6063h.353v.405h-.353v1.1487a.2571.2571,0,0,0,.0339.1662.37.37,0,0,0,.2074.0332c.0173,0,.0355,0,.055-.0013s.0381-.0013.0567-.0031v.425l-.2692.01a.7221.7221,0,0,1-.55-.14.414.414,0,0,1-.0958-.3009v-1.338Z" fill="#5c5c5c"/><path d="M233.6021,97.2132v1.3105a.6921.6921,0,0,0,.0437.2792.3019.3019,0,0,0,.3035.1653.3965.3965,0,0,0,.3969-.2353.8568.8568,0,0,0,.0556-.3368V97.2132h.5764V99.387h-.5525V99.08c-.0053.0066-.0186.0265-.04.06a.4035.4035,0,0,1-.0756.0877.79.79,0,0,1-.2577.1636.8763.8763,0,0,1-.2914.0438.6487.6487,0,0,1-.6481-.347,1.3266,1.3266,0,0,1-.0935-.5641V97.2132Z" fill="#5c5c5c"/><path d="M236.6768,97.1623c.0073.0009.0237.0018.049.0031v.5823c-.0359-.004-.0678-.0066-.0957-.008s-.0506-.0022-.0679-.0022a.472.472,0,0,0-.4606.2234.8718.8718,0,0,0-.0658.3873V99.387h-.5724V97.2132h.5425v.3789a1.1977,1.1977,0,0,1,.2293-.2969.6248.6248,0,0,1,.4148-.1338Z" fill="#5c5c5c"/><path d="M238.414,97.2571a.8886.8886,0,0,1,.3756.3218,1.0645,1.0645,0,0,1,.1731.4493,2.7784,2.7784,0,0,1,.0188.4317h-1.5832a.5206.5206,0,0,0,.2273.4582.5733.5733,0,0,0,.3133.082.4816.4816,0,0,0,.3156-.1.4748.4748,0,0,0,.117-.15h.58a.7089.7089,0,0,1-.2107.3931,1.0563,1.0563,0,0,1-.8179.3168,1.1853,1.1853,0,0,1-.7656-.2672,1.0537,1.0537,0,0,1-.3317-.87,1.1761,1.1761,0,0,1,.2994-.8659,1.0474,1.0474,0,0,1,.7773-.3018A1.2406,1.2406,0,0,1,238.414,97.2571Zm-.85.491a.5917.5917,0,0,0-.1514.3368h.9792a.4753.4753,0,0,0-.1513-.3438.4989.4989,0,0,0-.3373-.117A.4507.4507,0,0,0,237.5636,97.7481Z" fill="#5c5c5c"/><path d="M242.4628,96.4475v.5207h-.8795V99.387h-.6182V96.9682h-.8835v-.5207Z" fill="#5c5c5c"/><path d="M243.299,96.954h-.5763v-.5247h.5763Zm-.5763.2592h.5763V99.387h-.5763Z" fill="#5c5c5c"/><path d="M243.5647,97.6382v-.405h.3031v-.6063h.5624v.6063h.353v.405h-.353v1.1487a.2571.2571,0,0,0,.0339.1662.37.37,0,0,0,.2074.0332c.0173,0,.0355,0,.055-.0013s.0381-.0013.0567-.0031v.425l-.2692.01a.7221.7221,0,0,1-.55-.14.414.414,0,0,1-.0958-.3009v-1.338Z" fill="#5c5c5c"/><path d="M245.6673,99.387h-.5684V96.4475h.5684Z" fill="#5c5c5c"/><path d="M247.5769,97.2571a.8886.8886,0,0,1,.3756.3218,1.0631,1.0631,0,0,1,.173.4493,2.7634,2.7634,0,0,1,.0189.4317h-1.5832a.5206.5206,0,0,0,.2273.4582.5733.5733,0,0,0,.3133.082.4816.4816,0,0,0,.3156-.1.4748.4748,0,0,0,.117-.15h.58a.71.71,0,0,1-.2107.3931,1.0565,1.0565,0,0,1-.8179.3168,1.1853,1.1853,0,0,1-.7656-.2672,1.0537,1.0537,0,0,1-.3317-.87,1.1761,1.1761,0,0,1,.2994-.8659,1.0474,1.0474,0,0,1,.7773-.3018A1.2406,1.2406,0,0,1,247.5769,97.2571Zm-.85.491a.5917.5917,0,0,0-.1514.3368h.9792a.4753.4753,0,0,0-.1513-.3438.4989.4989,0,0,0-.3373-.117A.4507.4507,0,0,0,246.7265,97.7481Z" fill="#5c5c5c"/><path d="M241.302,92.6982H230.8872a2.7907,2.7907,0,0,1-2.7928-2.7885V79.48a2.7907,2.7907,0,0,1,2.7884-2.7929H241.302a2.7928,2.7928,0,0,1,2.7928,2.7929V89.9075a2.7906,2.7906,0,0,1-2.7906,2.7907Z" fill="none" stroke="#231f20" stroke-miterlimit="10" stroke-width="0.25"/><path d="M234.1924,87.893a1.8989,1.8989,0,0,1-1.3932-1.8313V82.968a1.7442,1.7442,0,0,1,1.7442-1.7442h3.1024a1.899,1.899,0,0,1,1.8946,1.8946v2.9433a1.9012,1.9012,0,0,1-1.2754,1.7943c-.3532.1221-.218,1.1053-2.0167,1.077A2.4248,2.4248,0,0,1,234.1924,87.893Z" fill="none" stroke="#000" stroke-miterlimit="10" stroke-width="0.25"/><path d="M236.8958,87.0428a2.9662,2.9662,0,0,1-.7609.109,1.343,1.343,0,0,1-1.5261-1.2057,3.9964,3.9964,0,0,1,.7391-.2115,1.6207,1.6207,0,0,1,.8.205,2.4166,2.4166,0,0,1,.798-.1919,3.2039,3.2039,0,0,1,.7827.1919,1.2315,1.2315,0,0,1-.4165.8851" fill="none" stroke="#000" stroke-miterlimit="10" stroke-width="0.25"/><line x1="236.8195" y1="83.1533" x2="238.3522" y2="83.5828" fill="none" stroke="#000" stroke-miterlimit="10" stroke-width="0.25"/><path d="M236.6822,84.4265a.6933.6933,0,1,1-1.3866.0109l-.0131-1.186-1.4389.48" fill="none" stroke="#000" stroke-miterlimit="10" stroke-width="0.25"/><circle cx="237.5521" cy="83.6809" r="0.2725"/><circle cx="234.5172" cy="83.6809" r="0.2725"/><path d="M231.6917,85.99a1.796,1.796,0,0,0,.436.2834,13.9479,13.9479,0,0,0-.593,1.9775,2.8228,2.8228,0,0,1-.1569.4687.2181.2181,0,0,1-.2181.1483h-.0174a.3054.3054,0,0,1-.218-.218.5173.5173,0,0,1,0-.1832,24.4869,24.4869,0,0,1,.763-2.4745m0-.218h-.037a.2181.2181,0,0,0-.1614.1243c-.1155.255-.5494,1.6177-.7761,2.5094a.7205.7205,0,0,0-.0131.2725.5145.5145,0,0,0,.4361.4011h.0327a.4361.4361,0,0,0,.4186-.2943c.0152-.0371.0283-.0763.0436-.1155a2.1049,2.1049,0,0,0,.1242-.39,13.8873,13.8873,0,0,1,.5909-1.9295.2182.2182,0,0,0-.1112-.2747,1.622,1.622,0,0,1-.3707-.2376.2176.2176,0,0,0-.1569-.0676Z"/><path d="M232.91,82.3619l-.0261.0785Z" fill="none"/><path d="M233.2178,87.1714c-.05-.14-.0959-.2791-.1373-.4208C233.1306,86.8923,233.1764,87.0428,233.2178,87.1714Z" fill="none"/><path d="M239.4924,81.9716a.0461.0461,0,0,0,.0175.0436h0C239.5033,82.0022,239.499,81.9869,239.4924,81.9716Z" fill="none"/><path d="M233.4119,87.6379c-.0611-.1395-.1178-.2812-.17-.4229C233.2941,87.3567,233.3508,87.4984,233.4119,87.6379Z" fill="none"/><path d="M239.51,82.0152a1.2184,1.2184,0,0,1,.0523.1374A1.2184,1.2184,0,0,0,239.51,82.0152Z"/><path d="M239.233,82.4862v.0414h0A.0549.0549,0,0,0,239.233,82.4862Z" fill="none"/><path d="M233,82.1112a2.03,2.03,0,0,0-.0937.2507A2.4836,2.4836,0,0,1,233,82.1112Z" fill="none"/><path d="M233.2418,87.215c0-.0153-.0109-.0284-.0152-.0436A.2813.2813,0,0,1,233.2418,87.215Z" fill="none"/><path d="M239.6189,82.327h0c-.0175-.0589-.0349-.1177-.0567-.1744C239.5818,82.2093,239.6014,82.2681,239.6189,82.327Z"/><path d="M232.4984,82.2943l.0327-.109Z"/><path d="M231.962,82.3662h0v0Z" fill="none"/><path d="M241.2845,83.4084l.0785.0654A.1865.1865,0,0,0,241.2845,83.4084Z"/><path d="M233.6539,80.077c1.2013-.085,1.7049.2377,1.9491,1.2275" fill="none" stroke="#000" stroke-miterlimit="10" stroke-width="0.25"/><path d="M235.3522,79.0851c.2813.1766.53.51.5691,1.3081l.07.7914" fill="none" stroke="#000" stroke-miterlimit="10" stroke-width="0.25"/><path d="M236.5383,81.3045c.2441-.99.7478-1.3081,1.9491-1.2275l.218.0415" fill="none" stroke="#000" stroke-miterlimit="10" stroke-width="0.25"/><path d="M236.8021,79.1025c-.2878.17-.5494.4666-.5909,1.2841l-.07.7914" fill="none" stroke="#000" stroke-miterlimit="10" stroke-width="0.25"/><path d="M234.2229,81.2783a1.2207,1.2207,0,0,0-1.1947-.3532" fill="none" stroke="#000" stroke-miterlimit="10" stroke-width="0.25"/><path d="M238.2672,81.287a1.5832,1.5832,0,0,1,1.0377-.2529" fill="none" stroke="#000" stroke-miterlimit="10" stroke-width="0.25"/><path d="M231.8073,86.9141a.336.336,0,0,1-.0153.0676,11.0906,11.0906,0,0,0-.218,1.4651c0,.1352-.0436.7783-.0371.8721a.6766.6766,0,0,0,.0458.1962.2355.2355,0,0,0,.2311.1461.2662.2662,0,0,0,.2355-.1963.4063.4063,0,0,0,.0174-.1351,10.1907,10.1907,0,0,1,.0719-1.5022c.0327-.2529.0763-.5058.1221-.7587a1.0019,1.0019,0,0,1-.3662-.1068A.6663.6663,0,0,1,231.8073,86.9141Z" fill="none"/><path d="M240.4539,87.7622c-.0436-.2594-.0959-.5167-.1483-.774a1.0881,1.0881,0,0,1-.4578.0829c.0392.2333.0872.4666.109.702.0393.4535.0567.9092.0829,1.3648a2.6674,2.6674,0,0,0,.013.3031.26.26,0,0,0,.2573.218.2726.2726,0,0,0,.2464-.218,2.9683,2.9683,0,0,0,0-.34,1.1443,1.1443,0,0,1,0-.1527A11.1138,11.1138,0,0,0,240.4539,87.7622Z" fill="none"/><path d="M240.4539,87.7622c-.0436-.2594-.0959-.5167-.1483-.774a1.0881,1.0881,0,0,1-.4578.0829c.0392.2333.0872.4666.109.702.0393.4535.0567.9092.0829,1.3648a2.6674,2.6674,0,0,0,.013.3031.26.26,0,0,0,.2573.218.2726.2726,0,0,0,.2464-.218,2.9683,2.9683,0,0,0,0-.34,1.1443,1.1443,0,0,1,0-.1527A11.1138,11.1138,0,0,0,240.4539,87.7622Z" fill="none"/><path d="M233.6779,87.8189c.0261.02.0523.0392.0806.0567.1178.07.2071.1264.3358.1984-.0676.2485-.0981.5123-.1526.7631a10.3626,10.3626,0,0,0-.1919,1.4912.4851.4851,0,0,1-.0283.133.2726.2726,0,0,1-.24.1766h0a.2333.2333,0,0,1-.218-.1657.5546.5546,0,0,1-.0283-.1984c0-.0959.0981-.7347.1046-.8721a12.9209,12.9209,0,0,1,.3271-1.5261.254.254,0,0,1,.0218-.0654m-.1156-.3554-.0916.29v.024l-.013.0436a12.5047,12.5047,0,0,0-.3336,1.5479v.024c0,.0567-.0284.2442-.05.412a3.3732,3.3732,0,0,0-.085.4753.768.768,0,0,0,.0414.2747.4534.4534,0,0,0,.4143.31h.02a.4861.4861,0,0,0,.436-.3205.6719.6719,0,0,0,.0415-.194,10.0538,10.0538,0,0,1,.1875-1.4607c.0218-.0982.0392-.1984.0566-.3009.0284-.157.0545-.3052.0916-.4491l.0436-.1635-.1461-.0829c-.085-.048-.15-.0872-.218-.1308l-.0959-.0567-.0523-.0349h-.0131l-.2442-.1787Z"/><path d="M240.1683,83.0421a2.0557,2.0557,0,0,1-.0153.3118C240.1617,83.2492,240.1661,83.1468,240.1683,83.0421Zm-.2333.7914h0Z" fill="none"/><path d="M237.951,87.5137a.2049.2049,0,1,1-.3335-.218c.0741-.1069.2376-.1832.3314-.12S238.0252,87.4068,237.951,87.5137Z"/><path d="M236.1393,86.5435l1.55,1.0094c.0567.0349.02-.0545.0611-.1068l.1133-.1461c.0327-.0414.1025-.0458.0567-.0763l-1.2732-.8612" fill="none" stroke="#000" stroke-miterlimit="10" stroke-width="0.25"/><path d="M230.5057,80.0661c-.0109-.061-.02-.122-.03-.1809-.0567-.3183-.1112-.6388-.1679-.9571l-.1417-.8241v-.0218c0-.0066,0-.0589.0479-.0654l.3881-.0785.7173-.1265.0828-.0131a.7021.7021,0,0,1-.146.5909.75.75,0,0,1-.5451.2747.8764.8764,0,0,0,.0262.157c.037.218.0719.4164.109.6235s.0763.436.1134.654.0828.4361.1111.665a.7106.7106,0,0,1-.0806.436.8107.8107,0,0,1-1.2013.2965.7738.7738,0,0,1-.3227-.5145.7912.7912,0,0,1,.2006-.6976.78.78,0,0,1,.5233-.26.7545.7545,0,0,1,.279.0218h.0284Z" fill="none" stroke="#000" stroke-miterlimit="10" stroke-width="0.25"/><path d="M236.0346,88.19s-.1308.8241.4775.7369" fill="none" stroke="#000" stroke-miterlimit="10" stroke-width="0.25"/><path d="M234.69,85.9984a11.9687,11.9687,0,0,0,1.2143.4535,1.0734,1.0734,0,0,0,.5625,0,7.13,7.13,0,0,0,1.1686-.4164" fill="none" stroke="#000" stroke-miterlimit="10" stroke-width="0.25"/><path d="M239.6276,86.2317a1.5273,1.5273,0,0,0,.63-.17,1.0029,1.0029,0,0,0,.5537-.8721v-.7282h0V84.4h0v-.7282a1.0029,1.0029,0,0,0-.5537-.883,1.5258,1.5258,0,0,0-.63-.17,5.432,5.432,0,0,0-.375-1.7179,1.84,1.84,0,0,0-.2507-.399,3.3834,3.3834,0,0,0-2.8343-1.4847h-.05a3.3856,3.3856,0,0,0-2.8343,1.4847,1.7463,1.7463,0,0,0-.2485.399,3.9044,3.9044,0,0,0-.266,1.6918,2.1339,2.1339,0,0,0-.7412.1962,1.0028,1.0028,0,0,0-.5538.8721V84.39h0v.061h0v.7282a1.0028,1.0028,0,0,0,.5538.8721,2.2741,2.2741,0,0,0,.848.17" fill="none" stroke="#000" stroke-miterlimit="10" stroke-width="0.25"/><path d="M233.1851,87.2128a23.8341,23.8341,0,0,0-.53,2.4244.7961.7961,0,0,1-.0457.1788.33.33,0,0,1-.3074.218.3859.3859,0,0,1-.2944-.2725.963.963,0,0,1-.0131-.2748,5.9765,5.9765,0,0,1,.1679-1.1576,20.9611,20.9611,0,0,1,.5145-2.0843" fill="none" stroke="#000" stroke-miterlimit="10" stroke-width="0.25"/><path d="M240.5106,85.99c.1.218.5319,1.5589.763,2.4745a.4352.4352,0,0,1,0,.1832.3009.3009,0,0,1-.2289.218h-.0174a.2179.2179,0,0,1-.218-.1483,2.814,2.814,0,0,1-.157-.4687,13.7463,13.7463,0,0,0-.5908-1.9774,1.8013,1.8013,0,0,0,.436-.2835m0-.218a.2184.2184,0,0,0-.157.0676,1.624,1.624,0,0,1-.3641.24.2182.2182,0,0,0-.1112.2747,13.7809,13.7809,0,0,1,.5822,1.936,1.9379,1.9379,0,0,0,.122.39c.0153.0392.0306.0785.0436.1155a.4361.4361,0,0,0,.4165.2922h.037a.5146.5146,0,0,0,.4361-.4012.7228.7228,0,0,0-.0131-.2725,23.0648,23.0648,0,0,0-.7762-2.5094.2182.2182,0,0,0-.1613-.1243h-.0371Z"/><path d="M238.6007,87.856l.0218.0654a12.0056,12.0056,0,0,1,.3271,1.5261c0,.1352.1068.7718.1068.8721a.5678.5678,0,0,1-.03.2006.2312.2312,0,0,1-.2181.1635h0a.2748.2748,0,0,1-.242-.1788.5347.5347,0,0,1-.0283-.133,10.0984,10.0984,0,0,0-.1919-1.4912c-.0523-.2508-.07-.4361-.1351-.6759a.896.896,0,0,1,.31-.29l.0806-.0545m.1156-.3553-.2442.1787-.0218.0131-.05.0371a1.0893,1.0893,0,0,0-.3859.3423l-.0545.0806.0239.096a3.7557,3.7557,0,0,1,.0807.39c.0153.085.03.1744.0523.2747a9.9881,9.9881,0,0,1,.19,1.4586.6854.6854,0,0,0,.0392.1962.4907.4907,0,0,0,.447.32h.02a.4494.4494,0,0,0,.4121-.3074.7759.7759,0,0,0,.0436-.2747c0-.0589-.0175-.1875-.0545-.4688-.024-.1657-.048-.3554-.0524-.412v-.0218a12.84,12.84,0,0,0-.3335-1.548l-.0153-.0458v-.0239l-.0916-.2878Z"/><path d="M239.54,86.2535a20.9437,20.9437,0,0,1,.5167,2.0843,5.8453,5.8453,0,0,1,.1657,1.1577.89.89,0,0,1-.0284.2747.3814.3814,0,0,1-.2943.2725.3337.3337,0,0,1-.3074-.218.7989.7989,0,0,1-.0458-.1788,21.0869,21.0869,0,0,0-.5014-2.2521" fill="none" stroke="#000" stroke-miterlimit="10" stroke-width="0.25"/><path d="M232.1975,82.6562c-.024-2.7078,1.6853-4.3342,3.968-4.3342s3.9243,1.888,3.9243,4.4214" fill="none" stroke="#000" stroke-linejoin="round" stroke-width="0.25"/><path d="M228.2034,90.5594a3.7191,3.7191,0,0,1,2.6991-3.0675l.1744-.0327" fill="none" stroke="#000" stroke-linecap="round" stroke-linejoin="round" stroke-width="0.25"/><path d="M244.0359,90.44a3.59,3.59,0,0,0-2.7208-2.9476l-.1744-.0327" fill="none" stroke="#000" stroke-linecap="round" stroke-linejoin="round" stroke-width="0.25"/><path d="M234.0638,88.9635a6.1542,6.1542,0,0,0,2.1038,1.16,6.7431,6.7431,0,0,0,2.1017-.8721" fill="none" stroke="#000" stroke-linejoin="round" stroke-width="0.25"/><line x1="233.3879" y1="88.5166" x2="232.9039" y2="88.1176" fill="none" stroke="#000" stroke-linejoin="round" stroke-width="0.25"/><line x1="232.324" y1="87.6205" x2="231.877" y2="87.2477" fill="none" stroke="#000" stroke-linejoin="round" stroke-width="0.25"/><line x1="238.9212" y1="88.8894" x2="239.2853" y2="88.6365" fill="none" stroke="#000" stroke-linejoin="round" stroke-width="0.25"/><line x1="240.0462" y1="88.3378" x2="240.4801" y2="87.965" fill="none" stroke="#000" stroke-linejoin="round" stroke-width="0.25"/><rect x="228.5178" y="114.9464" width="15.01" height="15.6228" rx="3.2628" fill="none" stroke="#231f20" stroke-linecap="round" stroke-miterlimit="10" stroke-width="0.25"/><path d="M239.4152,119.4669a4.8882,4.8882,0,1,1-8.5307,3.2548" fill="none" stroke="#231f20" stroke-linecap="round" stroke-miterlimit="10" stroke-width="0.25"/><polyline points="239.313 121.341 239.345 119.379 241.177 119.837" fill="none" stroke="#231f20" stroke-linecap="round" stroke-miterlimit="10" stroke-width="0.25"/><circle cx="235.8711" cy="122.5529" r="2.8148" fill="none" stroke="#231f20" stroke-linecap="round" stroke-miterlimit="10" stroke-width="0.25"/><polyline points="235.843 120.787 235.843 122.553 234.698 123.698" fill="none" stroke="#231f20" stroke-linecap="round" stroke-miterlimit="10" stroke-width="0.25"/><path d="M230.8684,122.7177a4.8118,4.8118,0,0,1,7.08-4.2433" fill="none" stroke="#231f20" stroke-linecap="round" stroke-miterlimit="10" stroke-width="0.25" stroke-dasharray="5 5 5 5 5 5"/><rect x="155.0839" y="114.7918" width="15.3967" height="15.932" rx="2.7317" fill="none" stroke="#231f20" stroke-miterlimit="10" stroke-width="0.25"/><path d="M162.0387,117.6381a.4188.4188,0,0,1,.238.0947.0792.0792,0,0,0,.0925.011c.2622-.13.5265-.2577.7909-.3833a.0835.0835,0,0,0,.055-.0859.5111.5111,0,0,1,1.0112-.0374.4845.4845,0,0,1-.2511.5132.4714.4714,0,0,1-.5618-.04.1123.1123,0,0,0-.141-.0132c-.2423.1233-.4868.2423-.7292.3613-.0374.0176-.04.04-.0462.0749-.0221.0969.0374.1211.1057.1542.22.11.4516.22.6763.337a.0992.0992,0,0,0,.1234,0,.5044.5044,0,0,1,.6961.0529.5153.5153,0,0,1,0,.69.4536.4536,0,0,1-.3987.1454.5066.5066,0,0,1-.4538-.3238.4763.4763,0,0,1-.0353-.1542.0837.0837,0,0,0-.055-.0815c-.2622-.1256-.5265-.2556-.7865-.3855a.0726.0726,0,0,0-.0925,0,.5046.5046,0,0,1-.6808-.086.5113.5113,0,0,1,0-.6609A.5465.5465,0,0,1,162.0387,117.6381Z" fill="none" stroke="#000" stroke-miterlimit="10" stroke-width="0.25"/><path d="M158.0381,119.9138a1.1015,1.1015,0,0,1-.1652,1.2469c-.1851.163-.7755.7556-.7755.7556.0485-.293.0794-.4692.1388-.72-.1586.0551-.3635.2754-.5353.3481.0661-.2071.1961-.5684.2688-.738-.1212.0727-.28.141-.4406.2313a5.74,5.74,0,0,0,.304-.61,3.6876,3.6876,0,0,1-.3833.1278,8.5,8.5,0,0,0,.8173-1.0619,8.7,8.7,0,0,0,.6477-1.368" fill="none" stroke="#000" stroke-miterlimit="10" stroke-width="0.25"/><ellipse cx="166.7502" cy="119.1755" rx="1.8065" ry="1.2447" transform="translate(9.6658 250.83) rotate(-75.52)" fill="none" stroke="#000" stroke-miterlimit="10" stroke-width="0.25"/><path d="M169.2932,129.6378c-.3128-.857-.6323-1.7382-.9583-2.5973a3.62,3.62,0,0,0,.3987-1.7052,15.0318,15.0318,0,0,0-.5727-3.1084,1.0422,1.0422,0,0,0-1.0376-.8944,1.1874,1.1874,0,0,0-1.0134.5486c-.3525.4978-.7094.9935-1.0663,1.4892a.174.174,0,0,1-.1035.0793c-.17.0286-.3437.044-.5155.0661-.2688.033-.5375.0639-.8041.1013a.6169.6169,0,0,0-.24,1.1412.7311.7311,0,0,0,.5045.066c.489-.055.9759-.1189,1.4627-.1762a.7337.7337,0,0,0,.5486-.3238c.06-.0859.1211-.17.1828-.2534h.0243c.0264.4406.055.8658.0705,1.2976a.6042.6042,0,0,1-.0749.2864q-.4627.8943-.9407,1.7822a1.01,1.01,0,0,0-.1146.423c-.0286.5794-.0661,1.1565-.0969,1.7337h-.59a.3833.3833,0,0,0-.3833.3833v.2974a.3834.3834,0,0,0,.3833.3834h1.6853a.3893.3893,0,0,0,.152-.0309c.0661.0154.11,0,.13-.0947a.3856.3856,0,0,0,.1057-.2489v-.0441a.2682.2682,0,0,1,.011-.0859c.0529-.5177.119-1.0354.1564-1.5531a1.5422,1.5422,0,0,1,.3261-.8812c.0793-.0992.1564-.2.2335-.3018a6.7937,6.7937,0,0,0,.3657,1.82.3374.3374,0,0,1,.0242.06c.1256.304.2446.61.3745.9121" fill="none" stroke="#000" stroke-miterlimit="10" stroke-width="0.25"/><path d="M168.1124,130.671l-.1961-.4649c-.13-.3018-.2489-.608-.3745-.912a.3374.3374,0,0,0-.0242-.0595,6.9673,6.9673,0,0,1-.3657-1.82c-.0771.1013-.1542.2026-.2335.3018a1.5422,1.5422,0,0,0-.3261.8812c-.0374.5177-.1035,1.0354-.1564,1.5531a.199.199,0,0,1-.011.0859v.044a.3858.3858,0,0,1-.1013.2622c-.02.0969-.0639.11-.13.0947a.3893.3893,0,0,1-.152.0309h-1.6853a.3833.3833,0,0,1-.3833-.3833v-.2974a.3834.3834,0,0,1,.3811-.3856h.5926c.0308-.5772.0683-1.1543.0969-1.7337a1.01,1.01,0,0,1,.1146-.423q.4758-.8813.9407-1.7822a.6042.6042,0,0,0,.0749-.2864c-.0155-.4406-.0441-.8658-.0705-1.2976h-.0243c-.0617.0838-.1233.1675-.1828.2534a.7337.7337,0,0,1-.5486.3238c-.4868.0573-.9737.1212-1.4627.1763a.7317.7317,0,0,1-.5045-.0661.6169.6169,0,0,1,.24-1.1412c.2666-.0374.5353-.0683.8041-.1013.1718-.022.3459-.0375.5155-.0661a.174.174,0,0,0,.1035-.0793c.3569-.4957.7138-.9914,1.0663-1.4892a1.1873,1.1873,0,0,1,1.0133-.5486,1.0422,1.0422,0,0,1,1.0377.8944,15.0315,15.0315,0,0,1,.5727,3.1085,3.62,3.62,0,0,1-.3987,1.7051c.326.85.6455,1.7315.9583,2.5885l.1872.4648" fill="none" stroke="#000" stroke-miterlimit="10" stroke-width="0.25"/><ellipse cx="159.0869" cy="119.1842" rx="1.2468" ry="1.8095" transform="translate(-24.7112 43.4758) rotate(-14.4524)" fill="none" stroke="#000" stroke-miterlimit="10.017" stroke-width="0.25"/><path d="M156.2956,130.1334c.3194-.8657.8812-2.2272,1.2006-3.0841a3.62,3.62,0,0,1-.3988-1.7051,15.0383,15.0383,0,0,1,.5728-3.1085,1.0421,1.0421,0,0,1,1.0376-.8944,1.1874,1.1874,0,0,1,1.0134.5486c.3525.4978.7094.9935,1.0663,1.4892a.174.174,0,0,0,.1035.0793c.17.0286.3437.0441.5155.0661.2688.033.5375.0639.8041.1013a.6169.6169,0,0,1,.24,1.1412.7317.7317,0,0,1-.5045.0661c-.489-.0551-.9759-.119-1.4628-.1763a.7337.7337,0,0,1-.5485-.3238c-.0595-.0859-.1212-.17-.1829-.2534h-.0242c-.0264.4406-.0551.8658-.0705,1.2976a.6042.6042,0,0,0,.0749.2864q.4626.8945.9407,1.7822a1.01,1.01,0,0,1,.1146.423c.0286.5794.066,1.1565.0991,1.7337h.586a.3833.3833,0,0,1,.3833.3833v.2975a.3833.3833,0,0,1-.3833.3833H159.79a.3925.3925,0,0,1-.1542-.0309c-.0661.0155-.11,0-.13-.0947a.3856.3856,0,0,1-.1013-.2577v-.0441a.2682.2682,0,0,0-.011-.0859c-.0529-.5177-.119-1.0354-.1565-1.5531a1.5413,1.5413,0,0,0-.326-.8812c-.0793-.0992-.1564-.2-.2335-.3018a6.7937,6.7937,0,0,1-.3657,1.82.33.33,0,0,0-.0242.06c-.1234.304-.2424.61-.3745.9121l-.2027.5551" fill="none" stroke="#000" stroke-miterlimit="10" stroke-width="0.25"/><path d="M158.4236,117.4508s.82-1.1455,1.2624-1.0067c.33.11.055.3745.055.3745s.3569-.1278.4957,0-.22.3657-.22.3657.6036-.0353.6146.22c.0177.478-.9759.3613-.98.33A1.1016,1.1016,0,0,0,158.4236,117.4508Z" fill="none" stroke="#000" stroke-miterlimit="10" stroke-width="0.25"/><path d="M167.0616,117.3627a2.0939,2.0939,0,0,0-.1829-1.2645,3.1091,3.1091,0,0,1,.5486.91,4.1935,4.1935,0,0,0,.0727-.8812s.337.7094.2643.9473a1.6936,1.6936,0,0,0,.163-.7644,2.0013,2.0013,0,0,1,.2027.8548.9913.9913,0,0,0,.304-.5838s.1476.196.0441.7688a1.0361,1.0361,0,0,0,.3745-.5,1.8468,1.8468,0,0,1-.0749.6962.7425.7425,0,0,0,.456-.5067,1.81,1.81,0,0,1-.1057.82.3205.3205,0,0,1-.0221.0286s.4208-.152.4759-.4075a1.123,1.123,0,0,1-.3591.9208s.4406-.1344.5243-.2687a.9253.9253,0,0,1-.6168.6961,1.2582,1.2582,0,0,0,.6036-.0176s-.0485.4208-.727.3481a.8682.8682,0,0,0,.5992.17,1.1389,1.1389,0,0,1-.8614.152,1.2967,1.2967,0,0,0,.5508.22,1.3208,1.3208,0,0,1-.8129.0374,3.5382,3.5382,0,0,0,.4406.3591s-.5794.0485-.694-.0661c0,0,.238.3657.3657.4032,0,0-.6785.0418-.934-.2027" fill="none" stroke="#000" stroke-linejoin="round" stroke-width="0.25"/></svg>