<?xml version="1.0" encoding="utf-8"?><svg height="227" viewBox="0 0 279 227" width="279" xmlns="http://www.w3.org/2000/svg" xmlns:xlink="http://www.w3.org/1999/xlink"><clipPath id="a"><path d="m-4.0924-4.1032h287.2823v233.7387h-287.2823z"/></clipPath><clipPath id="b"><path d="m21.0487 19.2661h237v185h-237z"/></clipPath><clipPath id="c"><path d="m.0487-.7339h279v227h-279z"/></clipPath><clipPath id="d"><path d="m186.0487 34.1307h56v80.1469h-56z"/></clipPath><clipPath id="e"><path d="m185.0487 33.2661h58v81.876h-58z"/></clipPath><clipPath id="f"><path clip-rule="evenodd" d="m186.004 115.275 13.564-31.73 11.384 14.265 14.694-37.696 17.358 55.161z"/></clipPath><clipPath id="g"><path clip-rule="evenodd" d="m194.5145 50.1227v4.4959a4.7352 4.7352 0 0 0 2.5184 4.15l4.0816 2.2479a5.2146 5.2146 0 0 0 5.0368 0l4.0816-2.2479a4.735 4.735 0 0 0 2.5184-4.15v-4.4959a4.735 4.735 0 0 0 -2.5184-4.15l-4.0816-2.2479a5.2146 5.2146 0 0 0 -5.0368 0l-4.0816 2.2479a4.7352 4.7352 0 0 0 -2.5184 4.15"/></clipPath><clipPath id="h"><ellipse cx="43.5487" cy="112.8748" rx="2.5" ry="2.6087"/></clipPath><clipPath id="i"><ellipse cx="43.5487" cy="120.7009" rx="2.5" ry="2.6087"/></clipPath><clipPath id="j"><ellipse cx="43.5487" cy="127.6574" rx="2.5" ry="2.6087"/></clipPath><clipPath id="k"><circle cx="53.7487" cy="177.6661" r="7.4"/></clipPath><clipPath id="l"><path d="m56.7487 176.4661-.6.6v.2a3.7513 3.7513 0 0 1 -.1 1 3.5521 3.5521 0 0 1 -.4.9 2.6957 2.6957 0 0 1 -.7.8 3.1281 3.1281 0 0 1 -1 .5 5.0194 5.0194 0 0 1 -1.2.2 3.4533 3.4533 0 0 1 -1.8-.5h.3a2.6945 2.6945 0 0 0 1.5-.5 1.4453 1.4453 0 0 1 -.7-.2 2.092 2.092 0 0 1 -.4-.6h.5a1.6118 1.6118 0 0 1 -.7-.4 1.1355 1.1355 0 0 1 -.3-.8c.2.1.3.1.5.2-.2-.1-.3-.3-.4-.4a1.2683 1.2683 0 0 1 -.1-.6 1.4213 1.4213 0 0 1 .2-.6 3.1259 3.1259 0 0 0 1.1.9 5.7323 5.7323 0 0 0 1.4.4v-.3a1.0324 1.0324 0 0 1 1.1-1.1 1.2215 1.2215 0 0 1 .9.4 2.6139 2.6139 0 0 0 .8-.3 1.7937 1.7937 0 0 1 -.5.7c.1-.3.3-.4.6-.5z"/></clipPath><clipPath id="m"><circle cx="70.8237" cy="177.6661" r="7.4"/></clipPath><clipPath id="n"><path d="m72.4237 175.0661v1h-.6c-.2 0-.4 0-.4.1-.1.1-.1.2-.1.4v.7h1l-.1 1.1h-.9v2.8h-1.1v-2.8h-.9v-1.1h.9v-.8a1.3658 1.3658 0 0 1 .4-1.1 1.2839 1.2839 0 0 1 1-.4c.3 0 .6.1.8.1z"/></clipPath><clipPath id="o"><circle cx="87.8987" cy="177.6661" r="7.4"/></clipPath><clipPath id="p"><path d="m85.8987 177.1661a2.2018 2.2018 0 0 1 .1-.8 2.092 2.092 0 0 1 .4-.6 3.171 3.171 0 0 1 .6-.5 4.8752 4.8752 0 0 1 .7-.3 1.7018 1.7018 0 0 1 .7-.1 3.5949 3.5949 0 0 1 1.1.2 2.6957 2.6957 0 0 1 .8.7 2.0158 2.0158 0 0 1 .3 1.1 1.7018 1.7018 0 0 1 -.1.7 6.3729 6.3729 0 0 0 -.2.7 1.2749 1.2749 0 0 1 -.4.6 1.7556 1.7556 0 0 1 -.5.4 1.4828 1.4828 0 0 1 -.7.1.9015.9015 0 0 1 -.5-.1 1.38 1.38 0 0 1 -.4-.3c0 .1-.1.2-.1.4s-.1.3-.1.4 0 .1-.1.3c0 .1-.1.2-.1.3s-.1.1-.1.2c-.1.1-.1.2-.2.3s-.1.2-.2.3h-.1a3.5483 3.5483 0 0 0 -.1-.7 2.4852 2.4852 0 0 1 .1-.8c.1-.3.1-.6.2-1.1.1-.4.2-.7.2-.8a1.2683 1.2683 0 0 1 -.1-.6 1.4213 1.4213 0 0 1 .2-.6.55.55 0 0 1 .5-.3c.2 0 .3 0 .4.1s.1.2.1.4a2.5439 2.5439 0 0 1 -.2.7 2.5439 2.5439 0 0 0 -.2.7.7071.7071 0 0 0 .6.6.6012.6012 0 0 0 .4-.1c.1-.1.2-.1.3-.3.1-.1.1-.2.2-.4a.6012.6012 0 0 0 .1-.4c0-.1.1-.3.1-.4v-.4a1.16 1.16 0 0 0 -.4-1 1.82 1.82 0 0 0 -1.1-.4 1.7072 1.7072 0 0 0 -1.7 1.7v.3a.3491.3491 0 0 0 .1.2c0 .1.1.1.1.2v.1a.3674.3674 0 0 1 -.1.3.3491.3491 0 0 1 -.1.2h-.1c-.1 0-.2-.1-.3-.2s-.2-.2-.2-.3a.6012.6012 0 0 1 -.1-.4c.3 0 .2-.1.2-.3z"/></clipPath><clipPath id="q"><circle cx="104.9737" cy="177.6661" r="7.4"/></clipPath><clipPath id="r"><path d="m105.6737 177.3661c0-.1.1-.1.1-.2l.2-.2c.1-.1.2-.1.3-.2.1 0 .3-.1.4-.1a1.16 1.16 0 0 1 1 .4 1.594 1.594 0 0 1 .4 1.2v2.1h-1.2v-2c0-.3 0-.5-.1-.6a.7638.7638 0 0 0 -.5-.2c-.2 0-.3 0-.4.1s-.2.2-.2.3v2.3h-1.2v-3.7h1.2zm-1.9-1.7c0 .2-.1.3-.2.5s-.3.2-.5.2a.6835.6835 0 0 1 -.7-.7c0-.2.1-.3.2-.5a.725.725 0 0 1 1 0 .5505.5505 0 0 1 .2.5zm0 1.2v3.7h-1.2v-3.7z"/></clipPath><clipPath id="s"><circle cx="122.0487" cy="177.6661" r="7.4"/></clipPath><clipPath id="t"><path d="m123.2487 178.7661a.5.5 0 1 0 -.2-.4.52.52 0 0 0 .2.4zm.4.9v-.2h-.2a.7581.7581 0 0 1 -.4.2c-.2 0-.4.1-.6.1a1.2683 1.2683 0 0 1 -.6-.1.52.52 0 0 1 -.4-.2h-.2v.2c.1.1.3.2.4.3a.7494.7494 0 0 0 .5.1h.6a1.0873 1.0873 0 0 0 .5-.1c.1-.1.3-.2.4-.3zm-3-1.3a.7071.7071 0 1 0 .2-.4.3992.3992 0 0 0 -.2.4zm5-.7a.6012.6012 0 0 1 -.1.4l-.3.3v.4a1.6661 1.6661 0 0 1 -.4 1.1 3.134 3.134 0 0 1 -1.1.8 3.6532 3.6532 0 0 1 -1.5.3 4.0126 4.0126 0 0 1 -1.5-.3 2.2584 2.2584 0 0 1 -1.1-.8 1.5039 1.5039 0 0 1 -.4-1.1v-.3l-.3-.3a.6012.6012 0 0 1 -.1-.4.7072.7072 0 0 1 1.2-.5 3.0771 3.0771 0 0 1 1.9-.6l.4-1.9a.0979.0979 0 0 1 .1-.1h.1l1.4.3a.2151.2151 0 0 1 .2-.2.3674.3674 0 0 1 .3-.1.5676.5676 0 1 1 -.6.6l-1.2-.3-.4 1.7a3.0771 3.0771 0 0 1 1.9.6c.1-.2.3-.2.5-.2a.7638.7638 0 0 1 .5.2c.5 0 .5.2.5.4z"/></clipPath><clipPath id="u"><path d="m32.0487 153.2661h61v15h-61z"/></clipPath><clipPath id="v"><path d="m74.0487 153.2661h72v12h-72z"/></clipPath><g clip-path="url(#a)"><path d="m-36.5275-19.5485h352.1525v264.6292h-352.1525z" fill="#fff"/></g><g clip-path="url(#b)"><path d="m16.0487 14.2661h247v195h-247z" fill="#eaeaea" opacity=".47"/></g><g clip-path="url(#c)"><g fill="#121212"><path d="m40.6484 40.1587h-4.57v1.834h4.1953v1.5h-4.1956v2.2207h4.7813v1.5527h-6.5449v-8.6367h6.3339z"/><path d="m46.1372 40.8794h1.7928l-2.306 6.3867h-1.7607l-2.2905-6.3867h1.875l1.33 4.7109z"/><path d="m53.11 41.0083a2.602 2.602 0 0 1 1.104.9453 3.1442 3.1442 0 0 1 .5087 1.32 8.1528 8.1528 0 0 1 .0547 1.2676h-4.6509a1.5322 1.5322 0 0 0 .6679 1.3477 1.6969 1.6969 0 0 0 .9209.24 1.4115 1.4115 0 0 0 .9268-.293 1.3949 1.3949 0 0 0 .3437-.4394h1.7051a2.086 2.086 0 0 1 -.6191 1.1543 3.104 3.104 0 0 1 -2.4029.9316 3.4785 3.4785 0 0 1 -2.2495-.7861 3.0945 3.0945 0 0 1 -.9746-2.5567 3.4575 3.4575 0 0 1 .88-2.5449 3.0768 3.0768 0 0 1 2.2837-.8857 3.6393 3.6393 0 0 1 1.5015.2993zm-2.4981 1.4434a1.7336 1.7336 0 0 0 -.4448.9882h2.8769a1.3916 1.3916 0 0 0 -.444-1.0087 1.4632 1.4632 0 0 0 -.99-.3448 1.3251 1.3251 0 0 0 -.9977.3653z"/><path d="m60.8442 41.2456a2.1124 2.1124 0 0 1 .6275 1.72v4.3008h-1.711v-3.8851a1.7825 1.7825 0 0 0 -.1337-.7734.94.94 0 0 0 -.9307-.4922 1.1527 1.1527 0 0 0 -1.1572.7207 2.4858 2.4858 0 0 0 -.1631.9727v3.457h-1.67v-6.375h1.6171v.9317a2.8227 2.8227 0 0 1 .607-.709 2.1025 2.1025 0 0 1 1.3012-.3867 2.4464 2.4464 0 0 1 1.6129.5185z"/><path d="m62.44 42.1274v-1.1894h.8907v-1.7813h1.6523v1.7813h1.0371v1.1894h-1.0367v3.375a.76.76 0 0 0 .1.4893 1.0962 1.0962 0 0 0 .6094.0967q.0762 0 .1611-.003t.167-.0087v1.248l-.791.0293a2.1229 2.1229 0 0 1 -1.6172-.41 1.2211 1.2211 0 0 1 -.2812-.8847v-3.9319z"/><path d="m72.3521 47.2661h-1.793v-8.6367h1.793z"/><path d="m79.1265 41.2456a2.1127 2.1127 0 0 1 .6274 1.72v4.3008h-1.7109v-3.8851a1.7824 1.7824 0 0 0 -.1338-.7734.94.94 0 0 0 -.9307-.4922 1.1527 1.1527 0 0 0 -1.1572.7207 2.4858 2.4858 0 0 0 -.1631.9727v3.457h-1.67v-6.375h1.6172v.9317a2.8206 2.8206 0 0 1 .6069-.709 2.1026 2.1026 0 0 1 1.3013-.3867 2.4468 2.4468 0 0 1 1.6129.5185z"/><path d="m84.0215 38.55q.1288.0088.3515.0264v1.3596q-.1406-.0175-.4716-.0263a.5426.5426 0 0 0 -.4571.1465.5316.5316 0 0 0 -.1259.3427v.5391h1.0957v1.1777h-1.0957v5.15h-1.6584v-5.15h-.9375v-1.1777h.914v-.41a2.1583 2.1583 0 0 1 .3457-1.4121q.3633-.5742 1.752-.5742.1583-.0002.2873.0083z"/><path d="m90.7729 46.4849a3.5187 3.5187 0 0 1 -4.91 0 3.9629 3.9629 0 0 1 0-4.7979 3.4822 3.4822 0 0 1 4.91 0 3.9629 3.9629 0 0 1 0 4.7979zm-1.3359-.9229a2.9821 2.9821 0 0 0 0-2.958 1.4845 1.4845 0 0 0 -2.2529 0 2.9632 2.9632 0 0 0 0 2.958 1.4792 1.4792 0 0 0 2.2529 0z"/><path d="m96.397 40.73q.0322.0029.1435.0088v1.7112q-.1581-.0175-.2812-.0234t-.1993-.0066a1.3852 1.3852 0 0 0 -1.3536.6563 2.5531 2.5531 0 0 0 -.1933 1.1367v3.0527h-1.6816v-6.3863h1.5938v1.1133a3.5316 3.5316 0 0 1 .6738-.8731 1.8346 1.8346 0 0 1 1.2188-.3925c.0312 0 .0576.0009.0791.0029z"/><path d="m105.56 40.9028a1.8559 1.8559 0 0 1 .7441.5743 1.8339 1.8339 0 0 1 .3633.82 5.6649 5.6649 0 0 1 .0586.9433l-.0117 4.0254h-1.711v-4.0658a1.3332 1.3332 0 0 0 -.1172-.5976.8326.8326 0 0 0 -.82-.4454.96.96 0 0 0 -.955.5743 1.8019 1.8019 0 0 0 -.1348.7324v3.8027h-1.6817v-3.803a2.1368 2.1368 0 0 0 -.1171-.8262.8182.8182 0 0 0 -.8262-.4629.9861.9861 0 0 0 -.961.4629 1.7845 1.7845 0 0 0 -.1347.7852v3.8437h-1.6941v-6.375h1.6231v.9317a2.6852 2.6852 0 0 1 .5859-.709 2.3187 2.3187 0 0 1 2.4434-.0528 1.8749 1.8749 0 0 1 .5507.7676 2.1242 2.1242 0 0 1 .8145-.8262 2.4865 2.4865 0 0 1 1.1484-.2636 2.2249 2.2249 0 0 1 .8325.164z"/><path d="m110.8623 43.3813a2.6484 2.6484 0 0 0 .667-.1464.5028.5028 0 0 0 .36-.4746.5612.5612 0 0 0 -.2764-.542 1.7445 1.7445 0 0 0 -.8106-.1495 1.0635 1.0635 0 0 0 -.8491.293 1.206 1.206 0 0 0 -.2378.586h-1.6114a2.4451 2.4451 0 0 1 .4707-1.377 2.745 2.745 0 0 1 2.2832-.8437 4.0719 4.0719 0 0 1 1.8716.416 1.5952 1.5952 0 0 1 .8179 1.57v2.93q0 .3047.0117.7382a.9285.9285 0 0 0 .1.4454.5989.5989 0 0 0 .2461.1933v.2461h-1.8164a1.8564 1.8564 0 0 1 -.1055-.3633q-.0293-.17-.0469-.3867a3.4475 3.4475 0 0 1 -.8017.6387 2.4215 2.4215 0 0 1 -1.2256.31 2.1143 2.1143 0 0 1 -1.4409-.4951 1.76 1.76 0 0 1 -.5689-1.4033 1.8186 1.8186 0 0 1 .9151-1.7051 4.0824 4.0824 0 0 1 1.4756-.41zm1.021.7793a1.8415 1.8415 0 0 1 -.3237.1612 2.7278 2.7278 0 0 1 -.4488.1142l-.38.07a2.495 2.495 0 0 0 -.7676.2286.7622.7622 0 0 0 -.3946.7089.7393.7393 0 0 0 .2413.6182.9133.9133 0 0 0 .5859.19 1.7452 1.7452 0 0 0 1.0083-.3164 1.34 1.34 0 0 0 .479-1.1543z"/><path d="m114.4224 42.1274v-1.1894h.8906v-1.7813h1.6523v1.7813h1.0371v1.1894h-1.0371v3.375a.76.76 0 0 0 .1.4893 1.0965 1.0965 0 0 0 .6094.0967q.0762 0 .1611-.003t.167-.0087v1.248l-.791.0293a2.123 2.123 0 0 1 -1.6172-.41 1.2211 1.2211 0 0 1 -.2812-.8847v-3.9319z"/><path d="m120.8633 40.1177h-1.6933v-1.541h1.6934zm-1.6934.7617h1.6934v6.3867h-1.6933z"/><path d="m127.8789 46.4849a3.5187 3.5187 0 0 1 -4.91 0 3.9629 3.9629 0 0 1 0-4.7979 3.4822 3.4822 0 0 1 4.91 0 3.9629 3.9629 0 0 1 0 4.7979zm-1.3359-.9229a2.9828 2.9828 0 0 0 0-2.958 1.4847 1.4847 0 0 0 -2.253 0 2.9632 2.9632 0 0 0 0 2.958 1.4793 1.4793 0 0 0 2.253 0z"/><path d="m135.1045 41.2456a2.1127 2.1127 0 0 1 .6274 1.72v4.3008h-1.7109v-3.8851a1.7809 1.7809 0 0 0 -.1338-.7734.94.94 0 0 0 -.9307-.4922 1.1527 1.1527 0 0 0 -1.1572.7207 2.4858 2.4858 0 0 0 -.1631.9727v3.457h-1.67v-6.375h1.6172v.9317a2.8227 2.8227 0 0 1 .6069-.709 2.1026 2.1026 0 0 1 1.3013-.3867 2.4468 2.4468 0 0 1 1.6129.5185z"/></g><path d="m34.1487 64.1661h98.9" fill="none" stroke="#121212" stroke-linecap="square" stroke-miterlimit="10"/><path d="m34.1487 80.1661h70.1" fill="none" stroke="#121212" stroke-linecap="square" stroke-miterlimit="10"/><path d="m34.1487 72.1661h98.9" fill="none" stroke="#121212" stroke-linecap="square" stroke-miterlimit="10"/><path d="m34.1487 98.7661h70.1" fill="none" stroke="#121212" stroke-linecap="square" stroke-miterlimit="10"/><path d="m34.1487 90.7661h98.9" fill="none" stroke="#121212" stroke-linecap="square" stroke-miterlimit="10"/><path d="m34.1487 56.2661h98.9" fill="none" stroke="#121212" stroke-linecap="square" stroke-miterlimit="10"/></g><g clip-path="url(#d)"><path d="m181.0487 29.1307h66v90.1469h-66z" fill="#63cae4"/></g><g clip-path="url(#e)"><path d="m180.0487 28.2661h68v91.876h-68z" fill="#819fb3"/></g><g clip-path="url(#f)"><g clip-path="url(#c)"><path d="m181.004 55.1144h67v65.1604h-67z" fill="#d0e0ea"/></g></g><g clip-path="url(#g)"><g clip-path="url(#c)"><path d="m189.5145 38.0764h28.2368v28.5885h-28.2368z" fill="#fefefe"/></g></g><g clip-path="url(#c)" fill="none" stroke-miterlimit="10"><path d="m194.5145 50.1228v4.4958a4.7351 4.7351 0 0 0 2.5184 4.15l4.0816 2.2479a5.2146 5.2146 0 0 0 5.0368 0l4.0816-2.2479a4.7349 4.7349 0 0 0 2.5184-4.15v-4.4958a4.7348 4.7348 0 0 0 -2.5184-4.15l-4.0816-2.248a5.2151 5.2151 0 0 0 -5.0368 0l-4.0816 2.248a4.735 4.735 0 0 0 -2.5184 4.15z" stroke="#c8282c" stroke-width="2.0691"/><g stroke="#121212" stroke-linecap="square"><path d="m186.2487 134.3661h36.8"/><path d="m186.2487 140.3661h36.8"/><path d="m186.2487 155.2661h36.8"/><path d="m186.2487 161.2661 18.3.5"/><path d="m53.0487 128.714h29"/><path d="m53.0487 121.064h29"/><path d="m53.0487 113.414h29"/></g></g><g clip-path="url(#h)"><g clip-path="url(#c)"><path d="m36.0487 105.2661h15v15.2174h-15z" fill="#121212"/></g></g><g clip-path="url(#i)"><g clip-path="url(#c)"><path d="m36.0487 113.0922h15v15.2174h-15z" fill="#121212"/></g></g><g clip-path="url(#j)"><g clip-path="url(#c)"><path d="m36.0487 120.0487h15v15.2174h-15z" fill="#121212"/></g></g><g clip-path="url(#k)"><g clip-path="url(#c)"><path d="m41.3487 165.2661h24.8v24.8h-24.8z" fill="#1da1f3"/></g></g><g clip-path="url(#l)"><g clip-path="url(#c)"><path d="m45.9487 171.1661h15.8v14.5h-15.8z" fill="#fff"/></g></g><g clip-path="url(#m)"><g clip-path="url(#c)"><path d="m58.4237 165.2661h24.8v24.8h-24.8z" fill="#3a5899"/></g></g><g clip-path="url(#n)"><g clip-path="url(#c)"><path d="m64.3237 169.9661h13.1v16.2h-13.1z" fill="#fff"/></g></g><g clip-path="url(#o)"><g clip-path="url(#c)"><path d="m75.4987 165.2661h24.8v24.8h-24.8z" fill="#bd091b"/></g></g><g clip-path="url(#p)"><g clip-path="url(#c)"><path d="m80.6987 169.8661h14.9v16.3h-14.9z" fill="#fff"/></g></g><g clip-path="url(#q)"><g clip-path="url(#c)"><path d="m92.5737 165.2661h24.8v24.8h-24.8z" fill="#1377b5"/></g></g><g clip-path="url(#r)"><g clip-path="url(#c)"><path d="m97.3737 169.9661h15.7v15.6h-15.7z" fill="#fff"/></g></g><g clip-path="url(#s)"><g clip-path="url(#c)"><path d="m109.6487 165.2661h24.8v24.8h-24.8z" fill="#fb4402"/></g></g><g clip-path="url(#t)"><g clip-path="url(#c)"><path d="m113.8487 169.6661h16.8v16.3h-16.8z" fill="#fff"/></g></g><g clip-path="url(#u)" fill="#121212"><path d="m36.2427 154.2285v.8906h-1.5073v4.1465h-1.06v-4.1465h-1.5138v-.8906z"/><path d="m38.7451 155.6152a1.5163 1.5163 0 0 1 .6436.5528 1.8123 1.8123 0 0 1 .2968.7695 4.7218 4.7218 0 0 1 .0323.7383h-2.7134a.894.894 0 0 0 .39.7871.9878.9878 0 0 0 .5372.1406.7588.7588 0 0 0 .7412-.4277h.9946a1.2205 1.2205 0 0 1 -.3613.6738 1.813 1.813 0 0 1 -1.4014.543 2.0266 2.0266 0 0 1 -1.3125-.459 1.8038 1.8038 0 0 1 -.5684-1.49 2.0213 2.0213 0 0 1 .5132-1.4864 1.7984 1.7984 0 0 1 1.3325-.5156 2.1383 2.1383 0 0 1 .8756.1736zm-1.4575.8418a1.0126 1.0126 0 0 0 -.2593.5762h1.6782a.8133.8133 0 0 0 -.2592-.5879.8612.8612 0 0 0 -.5782-.2012.7778.7778 0 0 0 -.5815.2129z"/><path d="m41.2471 159.2656h-.9742v-5.0371h.9742z"/><path d="m43.2407 159.2656h-.9741v-5.0371h.9741z"/><path d="m47.71 157a1.527 1.527 0 0 0 .3891-.0859.2914.2914 0 0 0 .21-.2774.3234.3234 0 0 0 -.1611-.3144 1.0111 1.0111 0 0 0 -.4727-.0879.6227.6227 0 0 0 -.4956.17.7148.7148 0 0 0 -.1387.3418h-.94a1.4338 1.4338 0 0 1 .2744-.8027 1.6013 1.6013 0 0 1 1.332-.4922 2.3961 2.3961 0 0 1 1.0918.2422.9328.9328 0 0 1 .4771.916v1.709c0 .1191.0024.2636.0068.4316a.545.545 0 0 0 .0581.26.35.35 0 0 0 .1436.1132v.1426h-1.06a1.0275 1.0275 0 0 1 -.0615-.2109c-.0112-.0664-.0205-.1426-.0274-.2266a2.0165 2.0165 0 0 1 -.4677.3731 1.4088 1.4088 0 0 1 -.7149.1816 1.24 1.24 0 0 1 -.8408-.289 1.0272 1.0272 0 0 1 -.3315-.8184 1.0618 1.0618 0 0 1 .5336-.9961 2.3743 2.3743 0 0 1 .8609-.2383zm.5957.4551a1.0309 1.0309 0 0 1 -.189.0937 1.7522 1.7522 0 0 1 -.2617.0664l-.2217.041a1.474 1.474 0 0 0 -.4477.1329.4458.4458 0 0 0 -.23.414.4346.4346 0 0 0 .1406.3614.5321.5321 0 0 0 .3418.1093 1.0179 1.0179 0 0 0 .5884-.1836.7824.7824 0 0 0 .2793-.6738z"/><path d="m53.7041 154.1816c.05.0039.1187.0079.2051.0157v.7929c-.0547-.0078-.1465-.0117-.2754-.0156a.3156.3156 0 0 0 -.2666.0859.3108.3108 0 0 0 -.0733.1993v.3144h.6392v.6875h-.6392v3.0039h-.9672v-3.0039h-.5467v-.6875h.5332v-.2383a1.2625 1.2625 0 0 1 .2016-.8242c.1412-.2226.482-.3359 1.022-.3359.0613 0 .117.0019.1673.0058z"/><path d="m56.6055 155.4531c.0122.002.04.0039.0835.0059v.998c-.0616-.0078-.1162-.0117-.1641-.0136s-.0864-.0039-.1162-.0039a.8065.8065 0 0 0 -.79.3828 1.4859 1.4859 0 0 0 -.1128.6621v1.7812h-.9809v-3.7246h.93v.6485a2.08 2.08 0 0 1 .393-.51 1.0716 1.0716 0 0 1 .711-.2285c.0181.0002.0338.0021.0465.0021z"/><path d="m58.3032 155.0957h-.9878v-.8984h.9878zm-.9878.4453h.9878v3.7246h-.9878z"/><path d="m61.7236 155.6152a1.5163 1.5163 0 0 1 .6436.5528 1.8137 1.8137 0 0 1 .2969.7695 4.7367 4.7367 0 0 1 .0322.7383h-2.7134a.8939.8939 0 0 0 .39.7871.9872.9872 0 0 0 .5371.1406.7588.7588 0 0 0 .7412-.4277h.9946a1.2205 1.2205 0 0 1 -.3613.6738 1.813 1.813 0 0 1 -1.4014.543 2.0266 2.0266 0 0 1 -1.3125-.459 1.8038 1.8038 0 0 1 -.5683-1.49 2.0217 2.0217 0 0 1 .5131-1.4864 1.7984 1.7984 0 0 1 1.3326-.5156 2.1382 2.1382 0 0 1 .8756.1736zm-1.4575.8418a1.0126 1.0126 0 0 0 -.2593.5762h1.6783a.8133.8133 0 0 0 -.2593-.5879.8611.8611 0 0 0 -.5781-.2012.778.778 0 0 0 -.5816.2129z"/><path d="m66.2354 155.7539a1.2352 1.2352 0 0 1 .3657 1.0039v2.5078h-.9981v-2.2656a1.0422 1.0422 0 0 0 -.0781-.4512.5478.5478 0 0 0 -.543-.2871.6736.6736 0 0 0 -.6748.42 1.4576 1.4576 0 0 0 -.0952.5684v2.0156h-.9741v-3.7187h.9434v.5429a1.6247 1.6247 0 0 1 .354-.4121 1.2264 1.2264 0 0 1 .7587-.2265 1.4317 1.4317 0 0 1 .9415.3026z"/><path d="m69.5312 155.6a1.1866 1.1866 0 0 1 .4273.4121v-1.7773h.9878v5.0312h-.9463v-.516a1.39 1.39 0 0 1 -.4751.4824 1.3412 1.3412 0 0 1 -.6631.15 1.3829 1.3829 0 0 1 -1.0991-.5293 2.0274 2.0274 0 0 1 -.4458-1.3555 2.336 2.336 0 0 1 .439-1.5 1.4334 1.4334 0 0 1 1.1743-.5468 1.2165 1.2165 0 0 1 .601.1492zm.2393 2.6543a1.36 1.36 0 0 0 .2153-.7969 1.22 1.22 0 0 0 -.3452-.9765.7388.7388 0 0 0 -.4922-.1778.6858.6858 0 0 0 -.6274.3223 1.5057 1.5057 0 0 0 -.2.8027 1.476 1.476 0 0 0 .2036.8243.6863.6863 0 0 0 .6167.31.72.72 0 0 0 .6292-.3085z"/></g><g clip-path="url(#v)" fill="#707b87"><path d="m75.7168 159.35a1.6065 1.6065 0 0 1 -.561-.1074 1.2536 1.2536 0 0 1 -.4561-.3067 1.45 1.45 0 0 1 -.3091-.51 2.04 2.04 0 0 1 -.1137-.7129 2.2042 2.2042 0 0 1 .09-.6406 1.495 1.495 0 0 1 .27-.5176 1.2771 1.2771 0 0 1 .45-.3516 1.4474 1.4474 0 0 1 .63-.1289 1.4637 1.4637 0 0 1 .6362.1289 1.293 1.293 0 0 1 .45.3477 1.4479 1.4479 0 0 1 .2671.5195 2.2891 2.2891 0 0 1 .0869.6426 2.0867 2.0867 0 0 1 -.102.6719 1.5233 1.5233 0 0 1 -.291.5156 1.2727 1.2727 0 0 1 -.4561.332 1.4539 1.4539 0 0 1 -.5912.1175zm1.0561-1.6367a2.1277 2.1277 0 0 0 -.06-.5176 1.2278 1.2278 0 0 0 -.186-.416.9034.9034 0 0 0 -.3243-.2793 1.0462 1.0462 0 0 0 -.4858-.1016.981.981 0 0 0 -.4829.1114.9513.9513 0 0 0 -.3272.2929 1.3035 1.3035 0 0 0 -.186.42 1.9956 1.9956 0 0 0 -.06.49 1.9046 1.9046 0 0 0 .0694.5293 1.2422 1.2422 0 0 0 .2007.418.9152.9152 0 0 0 .33.2695 1.0293 1.0293 0 0 0 .4561.0957 1.0032 1.0032 0 0 0 .4829-.1094.93.93 0 0 0 .3272-.2988 1.3225 1.3225 0 0 0 .186-.42 1.9265 1.9265 0 0 0 .0599-.4845z"/><path d="m78.333 159.2656h-.36v-3.1074h.36v.582h.0117a1.0418 1.0418 0 0 1 .3872-.5195 1.1818 1.1818 0 0 1 .627-.1465v.3906a1.0474 1.0474 0 0 0 -.5039.0957.84.84 0 0 0 -.315.2754 1.1 1.1 0 0 0 -.1621.4121 2.6451 2.6451 0 0 0 -.0449.4942z"/><path d="m83.1328 159.35a1.6065 1.6065 0 0 1 -.561-.1074 1.2536 1.2536 0 0 1 -.4561-.3067 1.45 1.45 0 0 1 -.3091-.51 2.0428 2.0428 0 0 1 -.1137-.7129 2.2076 2.2076 0 0 1 .09-.6406 1.495 1.495 0 0 1 .27-.5176 1.2789 1.2789 0 0 1 .45-.3516 1.4474 1.4474 0 0 1 .63-.1289 1.4634 1.4634 0 0 1 .6362.1289 1.2943 1.2943 0 0 1 .45.3477 1.4494 1.4494 0 0 1 .267.5195 2.2891 2.2891 0 0 1 .087.6426 2.0867 2.0867 0 0 1 -.1021.6719 1.5216 1.5216 0 0 1 -.291.5156 1.2718 1.2718 0 0 1 -.4561.332 1.4539 1.4539 0 0 1 -.5911.1175zm1.0562-1.6367a2.1276 2.1276 0 0 0 -.06-.5176 1.2259 1.2259 0 0 0 -.186-.416.9039.9039 0 0 0 -.3242-.2793 1.047 1.047 0 0 0 -.4859-.1016.981.981 0 0 0 -.4829.1114.95.95 0 0 0 -.3271.2929 1.3036 1.3036 0 0 0 -.1861.42 1.9956 1.9956 0 0 0 -.06.49 1.9046 1.9046 0 0 0 .0693.5293 1.2422 1.2422 0 0 0 .2007.418.9147.9147 0 0 0 .33.2695 1.0286 1.0286 0 0 0 .456.0957 1.0032 1.0032 0 0 0 .4829-.1094.93.93 0 0 0 .3272-.2988 1.32 1.32 0 0 0 .186-.42 1.9266 1.9266 0 0 0 .0601-.4845z"/><path d="m87.4771 156.1582h.36v3.1074h-.36v-.4316c-.0479.0566-.1021.1133-.1622.1738a1.24 1.24 0 0 1 -.207.166 1.201 1.201 0 0 1 -.2729.125 1.125 1.125 0 0 1 -.36.0508 1.3969 1.3969 0 0 1 -.522-.0859.8478.8478 0 0 1 -.3393-.2442.9572.9572 0 0 1 -.1861-.3633 1.6979 1.6979 0 0 1 -.0566-.4511v-2.0469h.36v2.0391a.9033.9033 0 0 0 .186.6152.7726.7726 0 0 0 .6118.2129.8839.8839 0 0 0 .3989-.0859.8282.8282 0 0 0 .2974-.2442 1.149 1.149 0 0 0 .186-.3711 1.6233 1.6233 0 0 0 .066-.4746z"/><path d="m89.2227 159.2656h-.36v-3.1074h.36v.582h.0117a1.0418 1.0418 0 0 1 .3872-.5195 1.1817 1.1817 0 0 1 .6269-.1465v.3906a1.0477 1.0477 0 0 0 -.5039.0957.84.84 0 0 0 -.3149.2754 1.1 1.1 0 0 0 -.1621.4121 2.6451 2.6451 0 0 0 -.0449.4942z"/><path d="m93.1885 159.2656h-.36v-4.32h.36v1.7109a1.1178 1.1178 0 0 1 .477-.4355 1.4356 1.4356 0 0 1 .6328-.1465 1.3239 1.3239 0 0 1 .6153.1348 1.2813 1.2813 0 0 1 .4321.3594 1.5664 1.5664 0 0 1 .2549.5254 2.3282 2.3282 0 0 1 .084.625 2.5456 2.5456 0 0 1 -.0782.6406 1.3959 1.3959 0 0 1 -.249.5195 1.1882 1.1882 0 0 1 -.435.3457 1.4808 1.4808 0 0 1 -.6421.125 1.2024 1.2024 0 0 1 -.3057-.041 1.49 1.49 0 0 1 -.3032-.1211 1.1767 1.1767 0 0 1 -.27-.1953.9418.9418 0 0 1 -.2007-.2715h-.0122zm0-1.5664a1.9149 1.9149 0 0 0 .0688.5254 1.2708 1.2708 0 0 0 .2012.42.9346.9346 0 0 0 .33.2793.9615.9615 0 0 0 .45.1016 1.0592 1.0592 0 0 0 .42-.08.9777.9777 0 0 0 .3359-.2363 1.133 1.133 0 0 0 .2251-.3828 1.5247 1.5247 0 0 0 .0806-.5176 2.0067 2.0067 0 0 0 -.0479-.5488 1.3053 1.3053 0 0 0 -.1919-.4473.9432.9432 0 0 0 -.3388-.3027 1.0055 1.0055 0 0 0 -.4834-.1114.9109.9109 0 0 0 -.4409.1055 1.01 1.01 0 0 0 -.33.2813 1.294 1.294 0 0 0 -.207.414 1.7129 1.7129 0 0 0 -.0717.4998z"/><path d="m97.8267 159.35a1.6075 1.6075 0 0 1 -.5611-.1074 1.2541 1.2541 0 0 1 -.456-.3067 1.45 1.45 0 0 1 -.3091-.51 2.04 2.04 0 0 1 -.1138-.7129 2.2042 2.2042 0 0 1 .09-.6406 1.4933 1.4933 0 0 1 .27-.5176 1.2771 1.2771 0 0 1 .45-.3516 1.4471 1.4471 0 0 1 .63-.1289 1.4641 1.4641 0 0 1 .6362.1289 1.293 1.293 0 0 1 .45.3477 1.45 1.45 0 0 1 .2671.5195 2.2891 2.2891 0 0 1 .0869.6426 2.09 2.09 0 0 1 -.102.6719 1.5218 1.5218 0 0 1 -.2911.5156 1.2714 1.2714 0 0 1 -.456.332 1.4543 1.4543 0 0 1 -.5911.1175zm1.0561-1.6367a2.1277 2.1277 0 0 0 -.06-.5176 1.2279 1.2279 0 0 0 -.1861-.416.9039.9039 0 0 0 -.3242-.2793 1.0462 1.0462 0 0 0 -.4858-.1016.9807.9807 0 0 0 -.4829.1114.9513.9513 0 0 0 -.3272.2929 1.3013 1.3013 0 0 0 -.186.42 1.9908 1.9908 0 0 0 -.06.49 1.9084 1.9084 0 0 0 .0693.5293 1.2422 1.2422 0 0 0 .2007.418.9155.9155 0 0 0 .33.2695 1.029 1.029 0 0 0 .4561.0957 1.0034 1.0034 0 0 0 .4829-.1094.93.93 0 0 0 .3271-.2988 1.3227 1.3227 0 0 0 .1861-.42 1.9265 1.9265 0 0 0 .06-.4845z"/><path d="m100.2749 158.2949a.91.91 0 0 0 .3027.5664 1.0309 1.0309 0 0 0 .627.1641 1.11 1.11 0 0 0 .3423-.0469.7329.7329 0 0 0 .2368-.1289.5646.5646 0 0 0 .1411-.1836.5093.5093 0 0 0 .0479-.2168.3973.3973 0 0 0 -.147-.3379 1.0865 1.0865 0 0 0 -.3687-.1738 4.3617 4.3617 0 0 0 -.48-.1074 2.3964 2.3964 0 0 1 -.48-.1367.93.93 0 0 1 -.3687-.2579.6929.6929 0 0 1 -.1469-.4726.8109.8109 0 0 1 .2846-.6406 1.1877 1.1877 0 0 1 .8072-.2481 1.3741 1.3741 0 0 1 .8188.2246 1.0287 1.0287 0 0 1 .3813.7539h-.3662a.6746.6746 0 0 0 -.2729-.5078 1.0194 1.0194 0 0 0 -.5669-.1465.81.81 0 0 0 -.522.1465.474.474 0 0 0 -.18.3867.3793.3793 0 0 0 .147.3223 1.2171 1.2171 0 0 0 .3692.18q.2219.0673.48.123a2.291 2.291 0 0 1 .48.1524 1.0435 1.0435 0 0 1 .3692.2676.686.686 0 0 1 .1469.4668.7971.7971 0 0 1 -.0962.3945.84.84 0 0 1 -.2641.2851 1.2391 1.2391 0 0 1 -.3989.17 2.0643 2.0643 0 0 1 -.5069.0566 1.3936 1.3936 0 0 1 -.4887-.08 1.0776 1.0776 0 0 1 -.3633-.2246 1.0585 1.0585 0 0 1 -.2339-.3359 1.199 1.199 0 0 1 -.0962-.4141z"/><path d="m103.4126 158.2949a.91.91 0 0 0 .3027.5664 1.0309 1.0309 0 0 0 .627.1641 1.11 1.11 0 0 0 .3423-.0469.7329.7329 0 0 0 .2368-.1289.5646.5646 0 0 0 .1411-.1836.5093.5093 0 0 0 .0479-.2168.3973.3973 0 0 0 -.147-.3379 1.0865 1.0865 0 0 0 -.3687-.1738 4.3585 4.3585 0 0 0 -.48-.1074 2.3973 2.3973 0 0 1 -.48-.1367.93.93 0 0 1 -.3687-.2579.6929.6929 0 0 1 -.1469-.4726.8109.8109 0 0 1 .2846-.6406 1.1876 1.1876 0 0 1 .8071-.2481 1.3742 1.3742 0 0 1 .8189.2246 1.0291 1.0291 0 0 1 .3813.7539h-.3662a.6746.6746 0 0 0 -.2729-.5078 1.0194 1.0194 0 0 0 -.5669-.1465.81.81 0 0 0 -.522.1465.474.474 0 0 0 -.18.3867.3793.3793 0 0 0 .147.3223 1.2171 1.2171 0 0 0 .3692.18q.2218.0673.48.123a2.291 2.291 0 0 1 .48.1524 1.0435 1.0435 0 0 1 .3692.2676.686.686 0 0 1 .1469.4668.7971.7971 0 0 1 -.0962.3945.84.84 0 0 1 -.2641.2851 1.24 1.24 0 0 1 -.3989.17 2.0643 2.0643 0 0 1 -.5069.0566 1.3942 1.3942 0 0 1 -.4888-.08 1.0782 1.0782 0 0 1 -.3632-.2246 1.0585 1.0585 0 0 1 -.2339-.3359 1.199 1.199 0 0 1 -.0962-.4141z"/><path d="m110.7749 158.7852.8159-2.627h.3662l-1.0083 3.1074h-.3838l-.6782-2.6094h-.0117l-.69 2.6094h-.4322l-.9482-3.1074h.36l.8038 2.6523.72-2.6523h.4018z"/><path d="m112.6523 155.4805v-.5352h.396v.5352zm.0181 3.7851v-3.1074h.36v3.1074z"/><path d="m114.14 159.2656v-4.32h.36v4.32z"/><path d="m115.61 159.2656v-4.32h.36v4.32z"/><path d="m118.8086 160.1055c.0478.0078.0967.0156.147.0254a.9848.9848 0 0 0 .1528.0117.3389.3389 0 0 0 .2461-.0957.81.81 0 0 0 .1587-.2305 1.9074 1.9074 0 0 0 .105-.2832 1.3076 1.3076 0 0 1 .0962-.248l-1.2061-3.127h.4019l.996 2.67.9961-2.67h.39l-1.1582 3.0664q-.1077.293-.2071.5274a2.3147 2.3147 0 0 1 -.21.3984.8318.8318 0 0 1 -.2461.2519.5743.5743 0 0 1 -.3208.0879 1.3759 1.3759 0 0 1 -.1831-.0117 1.1351 1.1351 0 0 1 -.1587-.0312z"/><path d="m122.1919 157.7969a1.6713 1.6713 0 0 0 .0664.4765 1.1648 1.1648 0 0 0 .1948.3907.9528.9528 0 0 0 .3272.2636 1.0248 1.0248 0 0 0 .456.0977.9856.9856 0 0 0 .606-.1856.89.89 0 0 0 .3359-.5273h.4019a1.9112 1.9112 0 0 1 -.1739.41 1.2546 1.2546 0 0 1 -.27.33 1.15 1.15 0 0 1 -.3842.2188 1.5364 1.5364 0 0 1 -.5157.0781 1.5049 1.5049 0 0 1 -.6421-.125 1.209 1.209 0 0 1 -.4443-.3457 1.4712 1.4712 0 0 1 -.2578-.5156 2.333 2.333 0 0 1 -.084-.6387 2.0369 2.0369 0 0 1 .0991-.6426 1.6451 1.6451 0 0 1 .2818-.5254 1.3032 1.3032 0 0 1 .4472-.3535 1.35 1.35 0 0 1 .6-.1289 1.2368 1.2368 0 0 1 1.0078.4414 1.9377 1.9377 0 0 1 .36 1.2813zm2.0283-.3008a1.4336 1.4336 0 0 0 -.063-.43 1.0079 1.0079 0 0 0 -.186-.3476.8976.8976 0 0 0 -.3091-.2344 1.0142 1.0142 0 0 0 -.4258-.086.94.94 0 0 0 -.4233.09.9838.9838 0 0 0 -.312.24 1.1964 1.1964 0 0 0 -.2071.3477 1.633 1.633 0 0 0 -.102.42z"/><path d="m125.498 159.2656v-4.32h.36v4.32z"/><path d="m126.9683 159.2656v-4.32h.36v4.32z"/><path d="m131.6182 157.4551c.0678-.01.1489-.0215.2431-.0371a.8578.8578 0 0 0 .231-.0664.1878.1878 0 0 0 .1108-.1407.8759.8759 0 0 0 .021-.1836.6177.6177 0 0 0 -.1767-.4531.83.83 0 0 0 -.5972-.1758 1.5609 1.5609 0 0 0 -.3418.0332.7218.7218 0 0 0 -.273.1133.643.643 0 0 0 -.1923.2168.9153.9153 0 0 0 -.0987.3379h-.3662a1.1217 1.1217 0 0 1 .126-.4707.9693.9693 0 0 1 .2793-.3184 1.17 1.17 0 0 1 .396-.18 1.9773 1.9773 0 0 1 .477-.0567 1.8826 1.8826 0 0 1 .441.0508 1.0063 1.0063 0 0 1 .36.1621.755.755 0 0 1 .24.2969 1.0732 1.0732 0 0 1 .0874.457v1.6914c0 .1406.0249.2285.0747.2676.05.0371.1509.0273.3032-.0273v.2812c-.0283.0078-.0693.02-.123.0371a.5728.5728 0 0 1 -.1592.0235.7368.7368 0 0 1 -.1621-.0176.2822.2822 0 0 1 -.1436-.0586.331.331 0 0 1 -.0874-.1074.4449.4449 0 0 1 -.0449-.1387 1.0045 1.0045 0 0 1 -.0117-.1582 1.57 1.57 0 0 1 -.522.3848 1.5391 1.5391 0 0 1 -.6362.1308 1.4568 1.4568 0 0 1 -.3931-.0527.9682.9682 0 0 1 -.333-.168.8483.8483 0 0 1 -.228-.2793.8608.8608 0 0 1 -.084-.3926q0-.7939 1.0859-.9375zm.6059.18a1.8 1.8 0 0 1 -.4619.125c-.1558.0195-.312.0371-.4678.0488a1.3177 1.3177 0 0 0 -.645.1855.532.532 0 0 0 -.2309.4747.5.5 0 0 0 .207.4218.6076.6076 0 0 0 .2158.1016.901.901 0 0 0 .249.0332 1.6722 1.6722 0 0 0 .42-.0527 1.1658 1.1658 0 0 0 .3632-.1661.8519.8519 0 0 0 .2549-.2812.8217.8217 0 0 0 .0957-.4063z"/><path d="m134.7559 159.2773c-.044.0079-.1021.0235-.1739.043a.9206.9206 0 0 1 -.24.0293.5712.5712 0 0 1 -.4106-.1348.6533.6533 0 0 1 -.1412-.4824v-2.2734h-.4379v-.3008h.4379v-.8633h.36v.8633h.582v.3008h-.582v2.1289c0 .0762.002.1426.0059.1973a.3271.3271 0 0 0 .0361.1386.1675.1675 0 0 0 .0933.0782.5246.5246 0 0 0 .1767.0234.952.952 0 0 0 .147-.0117c.05-.0078.0991-.0176.147-.0293z"/><path d="m139.3823 156.1582h.36v3.1074h-.36v-.4316c-.0478.0566-.102.1133-.1621.1738a1.24 1.24 0 0 1 -.207.166 1.2019 1.2019 0 0 1 -.273.125 1.1244 1.1244 0 0 1 -.36.0508 1.3965 1.3965 0 0 1 -.522-.0859.8488.8488 0 0 1 -.3394-.2442.9584.9584 0 0 1 -.186-.3633 1.6979 1.6979 0 0 1 -.0566-.4511v-2.0469h.36v2.0391a.9028.9028 0 0 0 .1861.6152.7726.7726 0 0 0 .6118.2129.8844.8844 0 0 0 .3989-.0859.8282.8282 0 0 0 .2974-.2442 1.151 1.151 0 0 0 .186-.3711 1.6234 1.6234 0 0 0 .0659-.4746z"/><path d="m140.96 158.2949a.9114.9114 0 0 0 .3027.5664 1.0328 1.0328 0 0 0 .6269.1641 1.1125 1.1125 0 0 0 .3428-.0469.7265.7265 0 0 0 .2364-.1289.5622.5622 0 0 0 .1416-.1836.5167.5167 0 0 0 .0478-.2168.3961.3961 0 0 0 -.1475-.3379 1.0832 1.0832 0 0 0 -.3681-.1738 4.3734 4.3734 0 0 0 -.48-.1074 2.4174 2.4174 0 0 1 -.4805-.1367.9313.9313 0 0 1 -.3681-.2579.69.69 0 0 1 -.1475-.4726.81.81 0 0 1 .2852-.6406 1.186 1.186 0 0 1 .8066-.2481 1.3753 1.3753 0 0 1 .8193.2246 1.0285 1.0285 0 0 1 .3809.7539h-.3662a.6755.6755 0 0 0 -.2725-.5078 1.0208 1.0208 0 0 0 -.5673-.1465.81.81 0 0 0 -.5215.1465.4744.4744 0 0 0 -.1807.3867.3781.3781 0 0 0 .1475.3223 1.2051 1.2051 0 0 0 .3691.18q.2212.0673.48.123a2.3068 2.3068 0 0 1 .4805.1524 1.0521 1.0521 0 0 1 .3691.2676.6853.6853 0 0 1 .1465.4668.8022.8022 0 0 1 -.0957.3945.8473.8473 0 0 1 -.2647.2851 1.2314 1.2314 0 0 1 -.3984.17 2.0685 2.0685 0 0 1 -.5068.0566 1.3951 1.3951 0 0 1 -.4893-.08 1.0876 1.0876 0 0 1 -.3633-.2246 1.0667 1.0667 0 0 1 -.2334-.3359 1.1994 1.1994 0 0 1 -.0966-.4141z"/></g></svg>
