<?xml version="1.0" encoding="utf-8"?><svg height="227" viewBox="0 0 279 227" width="279" xmlns="http://www.w3.org/2000/svg" xmlns:xlink="http://www.w3.org/1999/xlink"><clipPath id="a"><path d="m91.8531 3.0704h92v65h-92z"/></clipPath><clipPath id="b"><path clip-rule="evenodd" d="m111.154 49.656 18.2 8.836 26.253-32.422 28.246 41.787-92 .213z"/></clipPath><clipPath id="c"><path d="m-.1469.0704h279v227h-279z"/></clipPath><clipPath id="d"><path clip-rule="evenodd" d="m129.8531 33.07a2.2331 2.2331 0 0 1 -1.1413-.3157l-4.7188-2.82a2.38 2.38 0 0 1 -1.14-2.0436v-5.6393a2.3827 2.3827 0 0 1 1.14-2.045l4.7188-2.82a2.2183 2.2183 0 0 1 2.2812 0l4.72 2.82a2.3829 2.3829 0 0 1 1.14 2.045v5.6394a2.3807 2.3807 0 0 1 -1.14 2.0436l-4.72 2.82a2.2287 2.2287 0 0 1 -1.14.3157"/></clipPath><clipPath id="e"><path clip-rule="evenodd" d="m129.5454 18.2133a1.72 1.72 0 0 1 .822.2091l4.8175 2.6462a1.5581 1.5581 0 0 1 .822 1.3549v5.2912a1.557 1.557 0 0 1 -.822 1.3562l-4.8175 2.6462a1.7136 1.7136 0 0 1 -1.6454 0l-4.8161-2.6462a1.5544 1.5544 0 0 1 -.8221-1.3562v-5.2912a1.5554 1.5554 0 0 1 .8221-1.3549l4.8161-2.6462a1.7289 1.7289 0 0 1 .8234-.2091m.3077-1.1429a3.3084 3.3084 0 0 0 -1.54.3759l-4.9225 2.5955a2.7733 2.7733 0 0 0 -1.538 2.4324v5.19a2.7736 2.7736 0 0 0 1.538 2.4337l4.9225 2.5955a3.3272 3.3272 0 0 0 3.0775 0l4.9239-2.5955a2.7737 2.7737 0 0 0 1.5381-2.4337v-5.19a2.7734 2.7734 0 0 0 -1.5381-2.4324l-4.9239-2.5955a3.3027 3.3027 0 0 0 -1.538-.3759"/></clipPath><clipPath id="f"><path d="m160.8531 183.0704h56v40h-56z"/></clipPath><clipPath id="g"><path clip-rule="evenodd" d="m172.601 211.671 11.079 5.47 15.98-20.071 17.193 25.868-56 .132z"/></clipPath><clipPath id="h"><path clip-rule="evenodd" d="m185.3531 201.07a1.4663 1.4663 0 0 1 -.7337-.1973l-3.0335-1.7627a1.4793 1.4793 0 0 1 -.7328-1.2772v-3.5246a1.4806 1.4806 0 0 1 .7328-1.2781l3.0335-1.7628a1.4612 1.4612 0 0 1 1.4665 0l3.0344 1.7628a1.4806 1.4806 0 0 1 .7328 1.2781v3.5246a1.4793 1.4793 0 0 1 -.7328 1.2772l-3.0344 1.7627a1.463 1.463 0 0 1 -.7328.1973"/></clipPath><clipPath id="i"><path clip-rule="evenodd" d="m185.18 191.7847a.8924.8924 0 0 1 .4624.1307l2.71 1.6539a.9933.9933 0 0 1 .4624.8469v3.3069a.9924.9924 0 0 1 -.4624.8476l-2.71 1.6539a.8794.8794 0 0 1 -.9255 0l-2.7091-1.6539a.9908.9908 0 0 1 -.4624-.8476v-3.3069a.9917.9917 0 0 1 .4624-.8469l2.7091-1.6539a.8973.8973 0 0 1 .4631-.1307m.1731-.7143a1.7128 1.7128 0 0 0 -.8659.235l-2.769 1.6222a1.76 1.76 0 0 0 -.8651 1.52v3.2437a1.76 1.76 0 0 0 .8651 1.521l2.769 1.6222a1.7069 1.7069 0 0 0 1.731 0l2.77-1.6222a1.76 1.76 0 0 0 .8651-1.521v-3.2437a1.76 1.76 0 0 0 -.8651-1.52l-2.77-1.6222a1.71 1.71 0 0 0 -.8651-.235"/></clipPath><g clip-path="url(#a)"><path d="m86.8531-1.9296h102v75h-102z" fill="#819fb3"/></g><g clip-path="url(#b)"><g clip-path="url(#c)"><path d="m86.8531 21.0704h102v52h-102z" fill="#eef8ff" opacity=".73"/></g></g><g clip-path="url(#d)"><g clip-path="url(#c)"><path d="m117.8531 12.0704h24v26h-24z" fill="#fefefe"/></g></g><g clip-path="url(#e)"><g clip-path="url(#c)"><path d="m116.8531 12.0704h26v26h-26z" fill="#c8282c"/></g></g><g clip-path="url(#f)"><path d="m155.8531 178.0704h66v50h-66z" fill="#819fb3"/></g><g clip-path="url(#g)"><g clip-path="url(#c)"><path d="m155.8531 192.0704h66v36h-66z" fill="#eef8ff" opacity=".73"/></g></g><g clip-path="url(#h)"><g clip-path="url(#c)"><path d="m175.8531 186.0704h19v20h-19z" fill="#fefefe"/></g></g><g clip-path="url(#i)"><g clip-path="url(#c)"><path d="m175.8531 186.0704h19v20h-19z" fill="#c8282c"/></g></g><g clip-path="url(#c)"><path d="m93.8531 78.5704h87.7672" fill="none" stroke="#121212" stroke-linecap="square" stroke-miterlimit="10"/><path d="m93.8531 72.5704h87.7672" fill="none" stroke="#121212" stroke-linecap="square" stroke-miterlimit="10"/><path d="m93.8531 90.5704h87.7672" fill="none" stroke="#121212" stroke-linecap="square" stroke-miterlimit="10"/><path d="m93.8531 84.5704h87.6333" fill="none" stroke="#121212" stroke-linecap="square" stroke-miterlimit="10"/><path d="m92.8531 96.9828 59.6.25" fill="none" stroke="#121212" stroke-linecap="square" stroke-miterlimit="10"/><path d="m65.8531 191.5704h72.8068" fill="none" stroke="#121212" stroke-linecap="square" stroke-miterlimit="10"/><path d="m65.8531 185.5704h72.8068" fill="none" stroke="#121212" stroke-linecap="square" stroke-miterlimit="10"/><path d="m65.8531 202.5704h72.8068" fill="none" stroke="#121212" stroke-linecap="square" stroke-miterlimit="10"/><path d="m65.8531 196.5704h72.6958" fill="none" stroke="#121212" stroke-linecap="square" stroke-miterlimit="10"/><path d="m64.8531 208.3578 49.6666.25" fill="none" stroke="#121212" stroke-linecap="square" stroke-miterlimit="10"/><path d="m104.061 109.4895h77.438" fill="none" stroke="#121212" stroke-linecap="square" stroke-miterlimit="10"/><path d="m104.061 116.7149h77.438" fill="none" stroke="#121212" stroke-linecap="square" stroke-miterlimit="10"/><path d="m104.061 123.9403h77.438" fill="none" stroke="#121212" stroke-linecap="square" stroke-miterlimit="10"/><path d="m97.7579 107.6831v18.0636" fill="none" stroke="#121212" stroke-linecap="square" stroke-miterlimit="10" stroke-width="3.4485"/><g fill="#121212"><path d="m88.8672 108.8379a2.6435 2.6435 0 0 1 .522-1.73 2.5158 2.5158 0 0 1 1.521-.8311v.7588a1.511 1.511 0 0 0 -1 .8028 1.299 1.299 0 0 0 -.1093.62h1.1455v1.9189h-2.08zm3.4585 0a2.3518 2.3518 0 0 1 2.0434-2.5606v.7588a1.4748 1.4748 0 0 0 -.9926.8164 1.155 1.155 0 0 0 -.1167.6065h1.1455v1.9189h-2.08z"/><path d="m85.4346 148.0674a2.5655 2.5655 0 0 1 .4624 1.5381 2.2447 2.2447 0 0 1 -.4668 1.4834 2.3964 2.3964 0 0 1 -.7686.5742 2.2444 2.2444 0 0 1 1.1641.8887 2.6641 2.6641 0 0 1 .3926 1.4765 2.9454 2.9454 0 0 1 -.4488 1.6065 2.773 2.773 0 0 1 -1.852 1.2988 6.9993 6.9993 0 0 1 -1.4238.1367h-4.54v-10.0762h4.87a3.09 3.09 0 0 1 2.6109 1.0733zm-5.4712.6767v2.2217h2.4492a2.0278 2.0278 0 0 0 1.0654-.249.9538.9538 0 0 0 .4092-.8857.902.902 0 0 0 -.541-.93 3.806 3.806 0 0 0 -1.1909-.1573zm0 3.89v2.6859h2.4466a2.3848 2.3848 0 0 0 1.02-.1777 1.2684 1.2684 0 0 0 .6621-1.2578 1.0817 1.0817 0 0 0 -.6421-1.08 2.5507 2.5507 0 0 0 -1.0068-.1709z"/><path d="m89.96 148.7305h-1.9761v-1.7979h1.9761zm-1.9756.8886h1.9756v7.4509h-1.9761z"/><path d="m95.6162 149.6123a2.3406 2.3406 0 0 1 1.147 1.08v-1.0733h1.9v7.0684a3.955 3.955 0 0 1 -.4854 2.1738q-.8341 1.2583-3.1992 1.2578a4.3566 4.3566 0 0 1 -2.3311-.56 2.0686 2.0686 0 0 1 -.998-1.6748h2.1195a.88.88 0 0 0 .2666.4922 1.6469 1.6469 0 0 0 1.06.2666 1.4229 1.4229 0 0 0 1.4082-.7041 3.5689 3.5689 0 0 0 .2324-1.5176v-.4785a2.3691 2.3691 0 0 1 -.6015.7178 2.421 2.421 0 0 1 -1.5108.4443 2.8569 2.8569 0 0 1 -2.2934-1.0088 4.0753 4.0753 0 0 1 -.8579-2.7305 4.61 4.61 0 0 1 .8261-2.7929 2.7284 2.7284 0 0 1 2.3418-1.1309 2.5533 2.5533 0 0 1 .9757.1705zm.6636 5.3428a2.4 2.4 0 0 0 .47-1.6446 2.5229 2.5229 0 0 0 -.4458-1.6132 1.4555 1.4555 0 0 0 -1.1948-.5537 1.4082 1.4082 0 0 0 -1.4092.9638 3.4316 3.4316 0 0 0 -.2041 1.2647 2.9 2.9 0 0 0 .2178 1.1552 1.42 1.42 0 0 0 1.416.9434 1.4969 1.4969 0 0 0 1.1503-.5156z"/><path d="m106.5288 157.07h-1.9482v-10.0759h1.9482z"/><path d="m114.7271 156.1592a4.1061 4.1061 0 0 1 -5.7286 0 4.6239 4.6239 0 0 1 0-5.5977 4.0625 4.0625 0 0 1 5.7286 0 4.6239 4.6239 0 0 1 0 5.5977zm-1.5586-1.0772a3.4779 3.4779 0 0 0 0-3.45 1.7309 1.7309 0 0 0 -2.6285 0 3.4556 3.4556 0 0 0 0 3.45 1.7254 1.7254 0 0 0 2.6285 0z"/><path d="m123.1572 150.0469a2.4628 2.4628 0 0 1 .732 2.0058v5.0173h-1.9961v-4.5322a2.0842 2.0842 0 0 0 -.1563-.9024 1.0957 1.0957 0 0 0 -1.0854-.5742 1.3457 1.3457 0 0 0 -1.3506.8408 2.91 2.91 0 0 0 -.19 1.1348v4.0332h-1.9482v-7.4375h1.8867v1.0875a3.3015 3.3015 0 0 1 .708-.8271 2.453 2.453 0 0 1 1.5181-.4512 2.8506 2.8506 0 0 1 1.8818.6052z"/><path d="m129.4707 149.6123a2.3411 2.3411 0 0 1 1.147 1.08v-1.0733h1.9v7.0684a3.9559 3.9559 0 0 1 -.4854 2.1738q-.8342 1.2583-3.1992 1.2578a4.3566 4.3566 0 0 1 -2.3311-.56 2.0686 2.0686 0 0 1 -.998-1.6748h2.1191a.88.88 0 0 0 .2666.4922 1.6469 1.6469 0 0 0 1.06.2666 1.4229 1.4229 0 0 0 1.4082-.7041 3.5689 3.5689 0 0 0 .2324-1.5176v-.4785a2.3691 2.3691 0 0 1 -.6015.7178 2.421 2.421 0 0 1 -1.5108.4443 2.8568 2.8568 0 0 1 -2.2934-1.0088 4.0753 4.0753 0 0 1 -.8579-2.7305 4.61 4.61 0 0 1 .8261-2.7929 2.7284 2.7284 0 0 1 2.3418-1.1309 2.5533 2.5533 0 0 1 .9761.1705zm.6636 5.3428a2.4 2.4 0 0 0 .47-1.6446 2.5229 2.5229 0 0 0 -.4458-1.6132 1.4555 1.4555 0 0 0 -1.1948-.5537 1.4082 1.4082 0 0 0 -1.4092.9638 3.4316 3.4316 0 0 0 -.2041 1.2647 2.9 2.9 0 0 0 .2178 1.1552 1.42 1.42 0 0 0 1.416.9434 1.4969 1.4969 0 0 0 1.1501-.5156z"/><path d="m141.3457 152.5381a3.1066 3.1066 0 0 0 .7783-.1709.5864.5864 0 0 0 .42-.5537.6527.6527 0 0 0 -.3222-.6319 2.0261 2.0261 0 0 0 -.9463-.1748 1.2415 1.2415 0 0 0 -.99.3418 1.408 1.408 0 0 0 -.2774.6836h-1.88a2.8488 2.8488 0 0 1 .5494-1.6064 3.2021 3.2021 0 0 1 2.664-.9844 4.7557 4.7557 0 0 1 2.1836.4854 1.8619 1.8619 0 0 1 .9541 1.832v3.418c0 .2373.0039.5244.0137.8613a1.0748 1.0748 0 0 0 .1162.52.7.7 0 0 0 .2871.2256v.2871h-2.1191a2.1336 2.1336 0 0 1 -.1231-.4238c-.0234-.1319-.041-.2822-.0547-.4512a4.0033 4.0033 0 0 1 -.9355.7451 2.8292 2.8292 0 0 1 -1.43.3623 2.4644 2.4644 0 0 1 -1.6816-.5781 2.0532 2.0532 0 0 1 -.6636-1.6367 2.1217 2.1217 0 0 1 1.0674-1.9893 4.76 4.76 0 0 1 1.7221-.4785zm1.1914.9092a2.1307 2.1307 0 0 1 -.3779.1875 3.1054 3.1054 0 0 1 -.5235.1338l-.4433.082a2.9329 2.9329 0 0 0 -.8955.2666.8889.8889 0 0 0 -.46.8271.8639.8639 0 0 0 .2818.7217 1.0693 1.0693 0 0 0 .6836.2217 2.0391 2.0391 0 0 0 1.1767-.3691 1.5665 1.5665 0 0 0 .5586-1.3467z"/><path d="m150.4033 149.4453c.0254.002.0811.0049.168.01v1.9961c-.1231-.0137-.2324-.0225-.3281-.0274s-.1739-.0068-.2325-.0068a1.6148 1.6148 0 0 0 -1.5791.7656 2.98 2.98 0 0 0 -.2255 1.3262v3.561h-1.962v-7.4512h1.8594v1.2989a4.112 4.112 0 0 1 .7861-1.0186 2.137 2.137 0 0 1 1.4219-.458.8213.8213 0 0 1 .0918.0042z"/><path d="m151.0312 151.0752v-1.3877h1.0388v-2.0781h1.9277v2.0781h1.21v1.3877h-1.21v3.9375a.885.885 0 0 0 .1163.5713 1.29 1.29 0 0 0 .7109.1123c.0586 0 .1221-.001.1875-.0029s.1309-.0059.1953-.0108v1.4561l-.9228.0342a2.476 2.476 0 0 1 -1.8868-.4786 1.4252 1.4252 0 0 1 -.3281-1.0322v-4.5869z"/><path d="m158.5459 148.7305h-1.9759v-1.7979h1.9756zm-1.9756.8886h1.9756v7.4509h-1.9759z"/><path d="m164.9736 152.292a1.7388 1.7388 0 0 0 -.2812-.752 1.1794 1.1794 0 0 0 -1.02-.4511 1.3451 1.3451 0 0 0 -1.3506.9775 4.06 4.06 0 0 0 -.1914 1.377 3.7348 3.7348 0 0 0 .1914 1.3164 1.3031 1.3031 0 0 0 1.3154.93 1.1632 1.1632 0 0 0 .9737-.3692 1.84 1.84 0 0 0 .35-.957h1.9892a3.2613 3.2613 0 0 1 -.6435 1.6816 3.1269 3.1269 0 0 1 -2.7168 1.2783 3.1781 3.1781 0 0 1 -2.6475-1.0664 4.3031 4.3031 0 0 1 -.8486-2.7656 4.369 4.369 0 0 1 .9375-2.9834 3.2631 3.2631 0 0 1 2.5859-1.0664 3.8985 3.8985 0 0 1 2.2959.6289 2.9226 2.9226 0 0 1 1.0576 2.2217z"/><path d="m170.376 157.07h-1.9483v-10.0759h1.9483z"/><path d="m177.2158 149.7705a3.022 3.022 0 0 1 1.2871 1.1016 3.66 3.66 0 0 1 .5938 1.541 9.4532 9.4532 0 0 1 .0644 1.4785h-5.4267a1.788 1.788 0 0 0 .7793 1.5723 1.9794 1.9794 0 0 0 1.0742.28 1.5145 1.5145 0 0 0 1.4824-.8545h1.9897a2.4321 2.4321 0 0 1 -.7227 1.3467 3.6193 3.6193 0 0 1 -2.8027 1.0869 4.06 4.06 0 0 1 -2.625-.917 3.6118 3.6118 0 0 1 -1.1367-2.9824 4.0339 4.0339 0 0 1 1.0263-2.97 3.5931 3.5931 0 0 1 2.6641-1.0332 4.234 4.234 0 0 1 1.7525.3501zm-2.915 1.6826a2.0216 2.0216 0 0 0 -.5186 1.1533h3.3565a1.63 1.63 0 0 0 -.52-1.1777 1.7068 1.7068 0 0 0 -1.1552-.4014 1.5443 1.5443 0 0 0 -1.1627.4258z"/><path d="m83.1172 166.66a2.1939 2.1939 0 0 1 .9224.7324 1.9512 1.9512 0 0 1 .374.8584 10.613 10.613 0 0 1 .0683 1.44v4.3792h-1.9892v-4.5371a2.0091 2.0091 0 0 0 -.2036-.9717 1.02 1.02 0 0 0 -1.0044-.52 1.3763 1.3763 0 0 0 -1.1636.5166 2.3789 2.3789 0 0 0 -.397 1.4746v4.0376h-1.9482v-10.042h1.9482v3.5547a2.3781 2.3781 0 0 1 .9766-.9053 2.7382 2.7382 0 0 1 1.1675-.2568 3.1606 3.1606 0 0 1 1.249.2394z"/><path d="m91.2534 166.7705a3.0268 3.0268 0 0 1 1.2876 1.1016 3.6679 3.6679 0 0 1 .5938 1.541 9.5283 9.5283 0 0 1 .0639 1.4785h-5.4267a1.788 1.788 0 0 0 .7793 1.5723 1.9806 1.9806 0 0 0 1.0742.28 1.65 1.65 0 0 0 1.0815-.3418 1.6307 1.6307 0 0 0 .4009-.5127h1.9893a2.431 2.431 0 0 1 -.7222 1.3467 3.6213 3.6213 0 0 1 -2.8032 1.0869 4.06 4.06 0 0 1 -2.6245-.917 3.6105 3.6105 0 0 1 -1.1372-2.9824 4.0355 4.0355 0 0 1 1.0263-2.97 3.5942 3.5942 0 0 1 2.6646-1.0332 4.2316 4.2316 0 0 1 1.7524.3501zm-2.9145 1.6826a2.0252 2.0252 0 0 0 -.5191 1.1533h3.3565a1.6282 1.6282 0 0 0 -.5191-1.1777 1.7077 1.7077 0 0 0 -1.1552-.4014 1.5435 1.5435 0 0 0 -1.1631.4258z"/><path d="m97.2192 169.5381a3.1032 3.1032 0 0 0 .7784-.1709.5859.5859 0 0 0 .42-.5537.6526.6526 0 0 0 -.3223-.6319 2.0249 2.0249 0 0 0 -.9458-.1748 1.2427 1.2427 0 0 0 -.9907.3418 1.408 1.408 0 0 0 -.2774.6836h-1.88a2.848 2.848 0 0 1 .5493-1.6064 3.2013 3.2013 0 0 1 2.6636-.9844 4.7541 4.7541 0 0 1 2.1835.4854 1.8611 1.8611 0 0 1 .9542 1.832v3.418q0 .356.0136.8613a1.0819 1.0819 0 0 0 .1162.52.7069.7069 0 0 0 .2871.2256v.2871h-2.1189a2.195 2.195 0 0 1 -.123-.4238q-.0345-.1979-.0547-.4512a4.0115 4.0115 0 0 1 -.9351.7451 2.8294 2.8294 0 0 1 -1.43.3623 2.4641 2.4641 0 0 1 -1.6811-.5781 2.0532 2.0532 0 0 1 -.6636-1.6367 2.1219 2.1219 0 0 1 1.0674-1.9893 4.76 4.76 0 0 1 1.7217-.4785zm1.1914.9092a2.1274 2.1274 0 0 1 -.3779.1875 3.0962 3.0962 0 0 1 -.5229.1338l-.4434.082a2.9292 2.9292 0 0 0 -.8955.2666.8891.8891 0 0 0 -.46.8271.8651.8651 0 0 0 .2813.7217 1.07 1.07 0 0 0 .6836.2217 2.038 2.038 0 0 0 1.1768-.3691 1.5654 1.5654 0 0 0 .5585-1.3467z"/><path d="m106.0894 166.7383a2.3769 2.3769 0 0 1 .8544.8242v-3.5547h1.9756v10.0622h-1.8935v-1.0322a2.7415 2.7415 0 0 1 -.95.9639 2.6719 2.6719 0 0 1 -1.3262.3007 2.7661 2.7661 0 0 1 -2.1977-1.0566 4.0528 4.0528 0 0 1 -.8921-2.71 4.6657 4.6657 0 0 1 .8784-3.0009 2.8563 2.8563 0 0 1 2.3481-1.0938 2.4135 2.4135 0 0 1 1.203.2972zm.4785 5.3086a2.7189 2.7189 0 0 0 .4306-1.5928 2.4422 2.4422 0 0 0 -.69-1.9551 1.4847 1.4847 0 0 0 -.9844-.3554 1.37 1.37 0 0 0 -1.2544.6455 2.9976 2.9976 0 0 0 -.4 1.6035 2.9641 2.9641 0 0 0 .4068 1.65 1.3749 1.3749 0 0 0 1.2339.6191 1.4388 1.4388 0 0 0 1.2575-.6148z"/><path d="m112.7632 174.07h-1.9483v-10.0759h1.9483z"/><path d="m116.7505 165.7305h-1.9756v-1.7979h1.9756zm-1.9756.8886h1.9756v7.4509h-1.9756z"/><path d="m124.73 167.0469a2.4628 2.4628 0 0 1 .7319 2.0058v5.0173h-1.9961v-4.5322a2.0844 2.0844 0 0 0 -.1562-.9024 1.0959 1.0959 0 0 0 -1.0855-.5742 1.3459 1.3459 0 0 0 -1.3506.8408 2.9123 2.9123 0 0 0 -.19 1.1348v4.0332h-1.9482v-7.4375h1.8867v1.0875a3.3 3.3 0 0 1 .708-.8271 2.453 2.453 0 0 1 1.5181-.4512 2.8506 2.8506 0 0 1 1.8819.6052z"/><path d="m132.2124 166.7705a3.0268 3.0268 0 0 1 1.2876 1.1016 3.6679 3.6679 0 0 1 .5938 1.541 9.5283 9.5283 0 0 1 .0639 1.4785h-5.4267a1.788 1.788 0 0 0 .7793 1.5723 1.9806 1.9806 0 0 0 1.0742.28 1.65 1.65 0 0 0 1.0815-.3418 1.6307 1.6307 0 0 0 .4009-.5127h1.9893a2.431 2.431 0 0 1 -.7222 1.3467 3.6213 3.6213 0 0 1 -2.8032 1.0869 4.06 4.06 0 0 1 -2.6246-.917 3.6105 3.6105 0 0 1 -1.1372-2.9824 4.0356 4.0356 0 0 1 1.0264-2.97 3.5942 3.5942 0 0 1 2.6646-1.0332 4.2316 4.2316 0 0 1 1.7524.3501zm-2.9145 1.6826a2.0252 2.0252 0 0 0 -.5191 1.1533h3.3565a1.6282 1.6282 0 0 0 -.5191-1.1777 1.7077 1.7077 0 0 0 -1.1553-.4014 1.5431 1.5431 0 0 0 -1.163.4258z"/><path d="m138.4351 168.0752v-1.3877h1.039v-2.0781h1.9282v2.0781h1.21v1.3877h-1.21v3.9375a.885.885 0 0 0 .1163.5713 1.29 1.29 0 0 0 .7109.1123c.0586 0 .1221-.001.1875-.0029s.1309-.0059.1953-.0108v1.4561l-.9228.0342a2.4779 2.4779 0 0 1 -1.8873-.4786 1.4252 1.4252 0 0 1 -.3281-1.0322v-4.5869z"/><path d="m148.8027 166.7705a3.0214 3.0214 0 0 1 1.2871 1.1016 3.66 3.66 0 0 1 .5938 1.541 9.4532 9.4532 0 0 1 .0644 1.4785h-5.4267a1.7882 1.7882 0 0 0 .7793 1.5723 1.98 1.98 0 0 0 1.0742.28 1.5141 1.5141 0 0 0 1.4824-.8545h1.9893a2.4315 2.4315 0 0 1 -.7227 1.3467 3.6193 3.6193 0 0 1 -2.8027 1.0869 4.06 4.06 0 0 1 -2.625-.917 3.6118 3.6118 0 0 1 -1.1367-2.9824 4.0339 4.0339 0 0 1 1.0263-2.97 3.5931 3.5931 0 0 1 2.6641-1.0332 4.234 4.234 0 0 1 1.7529.3501zm-2.915 1.6826a2.0222 2.0222 0 0 0 -.5186 1.1533h3.3565a1.63 1.63 0 0 0 -.5195-1.1777 1.7072 1.7072 0 0 0 -1.1553-.4014 1.5443 1.5443 0 0 0 -1.1631.4258z"/><path d="m151.0752 174.07 2.543-3.7734-2.4336-3.6641h2.3854l1.2451 2.1582 1.2158-2.1582h2.3174l-2.4472 3.63 2.5429 3.8076h-2.4267l-1.2822-2.24-1.295 2.24z"/><path d="m158.9219 168.0752v-1.3877h1.039v-2.0781h1.9278v2.0781h1.21v1.3877h-1.21v3.9375a.8858.8858 0 0 0 .1162.5713 1.29 1.29 0 0 0 .7109.1123c.0586 0 .1221-.001.1875-.0029s.1309-.0059.1953-.0108v1.4561l-.9228.0342a2.4756 2.4756 0 0 1 -1.8867-.4786 1.4248 1.4248 0 0 1 -.3282-1.0322v-4.5869z"/></g></g></svg>
