<svg xmlns="http://www.w3.org/2000/svg" xmlns:xlink="http://www.w3.org/1999/xlink" width="279" height="227" viewBox="0 0 279 227"><defs><clipPath id="a"><rect x="-7.9397" y="-7.3311" width="294.8794" height="241.6622" fill="none"/></clipPath><clipPath id="b"><path d="M25.0132,110.7749l-2.7251,2.7256,2.7251,2.7246a.322.322,0,0,1,0,.4619l-.8521.8516a.3222.3222,0,0,1-.462,0l-3.8075-3.8076a.3146.3146,0,0,1-.0978-.23.3184.3184,0,0,1,.0978-.2315l3.8075-3.8076a.3222.3222,0,0,1,.462,0l.8521.8516a.3187.3187,0,0,1,.0976.2314A.3148.3148,0,0,1,25.0132,110.7749Z"/></clipPath><clipPath id="c"><rect x="-57.9961" y="-5.8872" width="279" height="227"/></clipPath><clipPath id="d"><path d="M261.4564,113.7308l-3.8077,3.8075a.322.322,0,0,1-.4619,0l-.8515-.8515a.3219.3219,0,0,1,0-.462L259.06,113.5l-2.7246-2.7256a.3122.3122,0,0,1-.0977-.23.3161.3161,0,0,1,.0977-.2314l.8515-.8516a.3223.3223,0,0,1,.4619,0l3.8077,3.8076a.3168.3168,0,0,1,.0976.2315A.3127.3127,0,0,1,261.4564,113.7308Z"/></clipPath><clipPath id="e"><rect x="56.7757" y="-5.8875" width="279" height="227"/></clipPath></defs><g clip-path="url(#a)"><rect x="-13.2243" y="-31.8167" width="305.4486" height="290.6333" fill="#dfdfdf"/></g><rect x="38.2919" y="100.6901" width="17.1793" height="17.8806" rx="3.7343" fill="none" stroke="#231f20" stroke-linecap="round" stroke-miterlimit="10" stroke-width="0.25"/><path d="M50.0881,116.23a1.2856,1.2856,0,0,1-.6461.1725H44.4291a1.2946,1.2946,0,0,1-1.2945-1.2946V103.9967a1.2944,1.2944,0,0,1,1.2945-1.2922h5.0152a1.2945,1.2945,0,0,1,1.2946,1.2922v8.8415" fill="none" stroke="#000" stroke-miterlimit="10" stroke-width="0.25"/><circle cx="45.7996" cy="103.7576" r="0.2506" fill="none" stroke="#000" stroke-miterlimit="10" stroke-width="0.25"/><line x1="46.4987" y1="103.7576" x2="48.4164" y2="103.7576" fill="none" stroke="#000" stroke-linecap="round" stroke-miterlimit="10" stroke-width="0.25"/><polyline points="48.589 112.999 43.721 112.999 43.721 104.723 50.148 104.723 50.148 112.07" fill="none" stroke="#000" stroke-miterlimit="10" stroke-width="0.25"/><circle cx="46.9356" cy="114.6617" r="0.8738" fill="none" stroke="#000" stroke-miterlimit="10" stroke-width="0.25"/><path d="M52.4336,109.5431l-1.6924-2.9893v6.3925l-1.7568-2.4283a.92.92,0,0,0-1.38,1.18l1.9477,2.64c-.0713.3611-.322,2.0811,1.4256,2.0811h1.6855V110.35A1.6362,1.6362,0,0,0,52.4336,109.5431Z" fill="none" stroke="#000" stroke-miterlimit="10" stroke-width="0.25"/><path d="M47.8944,112.0725H45.57a.7335.7335,0,0,1-.7243-.7426v-1.5224a.7333.7333,0,0,1,.7243-.7243h2.7248a.7335.7335,0,0,1,.7336.7335v.86" fill="none" stroke="#000" stroke-miterlimit="10" stroke-width="0.25"/><line x1="45.5099" y1="111.1826" x2="47.4368" y2="111.1826" fill="none" stroke="#000" stroke-miterlimit="10" stroke-width="0.25"/><line x1="45.5605" y1="109.9547" x2="48.2578" y2="109.9547" fill="none" stroke="#000" stroke-miterlimit="10" stroke-width="0.25"/><line x1="46.409" y1="107.216" x2="48.5061" y2="107.216" fill="none" stroke="#000" stroke-miterlimit="10" stroke-width="0.25"/><line x1="46.4458" y1="106.448" x2="48.5061" y2="106.448" fill="none" stroke="#000" stroke-miterlimit="10" stroke-width="0.25"/><path d="M48.5107,105.7007h-2.012a.52.52,0,0,0-.52.515l-.0138,1.0279-.46,1.18,1.1175-.5473,1.9017-.0161a.5173.5173,0,0,0,.5174-.5173v-1.12a.5219.5219,0,0,0-.5219-.522Z" fill="none" stroke="#000" stroke-linecap="round" stroke-miterlimit="10" stroke-width="0.25"/><path d="M33.3836,123.2566h2.4372v.6009H34.0932v.7858h1.5143v.5937H34.0932V126.67h-.71Z" fill="#5c5c5c"/><path d="M37.8074,124.1935a1.0328,1.0328,0,0,1,.4367.3741,1.2367,1.2367,0,0,1,.2012.5225,3.21,3.21,0,0,1,.0219.5019H36.6263a.6058.6058,0,0,0,.2643.5329.6671.6671,0,0,0,.3643.0953.56.56,0,0,0,.3669-.1159.5517.5517,0,0,0,.1361-.1742h.6748a.825.825,0,0,1-.245.4571,1.2284,1.2284,0,0,1-.9511.3684,1.379,1.379,0,0,1-.89-.3107,1.2254,1.2254,0,0,1-.3857-1.0121,1.368,1.368,0,0,1,.3481-1.0069,1.2179,1.2179,0,0,1,.9039-.351A1.4418,1.4418,0,0,1,37.8074,124.1935Zm-.9889.5709a.6882.6882,0,0,0-.176.3917h1.1386a.5529.5529,0,0,0-.176-.4.58.58,0,0,0-.3922-.1361A.5241.5241,0,0,0,36.8185,124.7644Z" fill="#5c5c5c"/><path d="M39.731,125.1324a1.0329,1.0329,0,0,0,.2641-.0577.1985.1985,0,0,0,.1425-.1876.2228.2228,0,0,0-.1092-.2149.6945.6945,0,0,0-.3211-.0593.421.421,0,0,0-.336.1165.4758.4758,0,0,0-.094.2319H38.64a.9669.9669,0,0,1,.1863-.5452,1.0861,1.0861,0,0,1,.9036-.3339,1.6112,1.6112,0,0,1,.7407.1649.6315.6315,0,0,1,.3237.6214v1.16c0,.08.0015.1778.0046.2917a.3642.3642,0,0,0,.0394.1762.2339.2339,0,0,0,.0974.0768v.0974h-.7188a.7348.7348,0,0,1-.0418-.1438q-.0115-.0672-.0185-.1531a1.356,1.356,0,0,1-.3172.2526.959.959,0,0,1-.4852.1231.8379.8379,0,0,1-.57-.1958.6971.6971,0,0,1-.2252-.5555.7192.7192,0,0,1,.362-.6746,1.63,1.63,0,0,1,.5841-.1628Zm.4043.3086a.7426.7426,0,0,1-.1281.0639,1.0657,1.0657,0,0,1-.1775.0449l-.1505.0278a1.0032,1.0032,0,0,0-.3037.0907.302.302,0,0,0-.1562.28.2921.2921,0,0,0,.0954.2448.3613.3613,0,0,0,.2318.0758.6911.6911,0,0,0,.3992-.1258.53.53,0,0,0,.19-.4566Z" fill="#5c5c5c"/><path d="M41.04,124.6366v-.471h.3525v-.7049h.6539v.7049h.41v.471h-.41v1.3357a.299.299,0,0,0,.04.1933.4306.4306,0,0,0,.2411.0386c.02,0,.0413-.0005.0639-.0015s.0444-.0016.066-.0036v.4942l-.3131.0118a.84.84,0,0,1-.64-.1628.4819.4819,0,0,1-.1113-.35v-1.5558Z" fill="#5c5c5c"/><path d="M43.4689,124.1425v1.5237a.8057.8057,0,0,0,.0507.3247.351.351,0,0,0,.353.1922.4611.4611,0,0,0,.4615-.2736.9972.9972,0,0,0,.0646-.3917v-1.3753h.67V126.67h-.6423v-.3571c-.0062.0077-.0217.0309-.0462.0695a.4714.4714,0,0,1-.0878.1021.9183.9183,0,0,1-.3.19,1.0178,1.0178,0,0,1-.3388.051.7544.7544,0,0,1-.7536-.4035,1.5423,1.5423,0,0,1-.1088-.656v-1.5237Z" fill="#5c5c5c"/><path d="M47.0441,124.0832c.0085.001.0276.0021.0569.0036v.6771q-.0626-.0069-.1113-.0093c-.0324-.0015-.0587-.0025-.0788-.0025a.5491.5491,0,0,0-.5357.26,1.0148,1.0148,0,0,0-.0765.45V126.67h-.6655v-2.5276h.6307v.4405a1.3941,1.3941,0,0,1,.2667-.3452.7259.7259,0,0,1,.4823-.1556Z" fill="#5c5c5c"/><path d="M49.0641,124.1935a1.0325,1.0325,0,0,1,.4368.3741,1.2393,1.2393,0,0,1,.2012.5225,3.2223,3.2223,0,0,1,.0219.5019H47.883a.6059.6059,0,0,0,.2644.5329.6671.6671,0,0,0,.3643.0953.56.56,0,0,0,.3669-.1159.5517.5517,0,0,0,.1361-.1742H49.69a.8246.8246,0,0,1-.2451.4571,1.2282,1.2282,0,0,1-.951.3684,1.379,1.379,0,0,1-.89-.3107,1.2254,1.2254,0,0,1-.3857-1.0121,1.368,1.368,0,0,1,.3481-1.0069,1.2179,1.2179,0,0,1,.9039-.351A1.4413,1.4413,0,0,1,49.0641,124.1935Zm-.9889.5709a.6881.6881,0,0,0-.1759.3917h1.1386a.5533.5533,0,0,0-.176-.4.58.58,0,0,0-.3922-.1361A.5245.5245,0,0,0,48.0752,124.7644Z" fill="#5c5c5c"/><path d="M53.772,123.252v.6055H52.7494V126.67h-.7189v-2.8126H51.0033v-.6055Z" fill="#5c5c5c"/><path d="M54.7444,123.841h-.67v-.61h.67Zm-.67.3015h.67V126.67h-.67Z" fill="#5c5c5c"/><path d="M55.0534,124.6366v-.471h.3525v-.7049H56.06v.7049h.41v.471h-.41v1.3357a.2991.2991,0,0,0,.0394.1933.4313.4313,0,0,0,.2412.0386c.02,0,.0412-.0005.0639-.0015s.0443-.0016.0659-.0036v.4942l-.313.0118a.84.84,0,0,1-.64-.1628.4819.4819,0,0,1-.1113-.35v-1.5558Z" fill="#5c5c5c"/><path d="M57.4983,126.67h-.6609V123.252h.6609Z" fill="#5c5c5c"/><path d="M59.7188,124.1935a1.0328,1.0328,0,0,1,.4367.3741,1.2367,1.2367,0,0,1,.2012.5225,3.21,3.21,0,0,1,.0219.5019H58.5377a.6058.6058,0,0,0,.2643.5329.6672.6672,0,0,0,.3644.0953.56.56,0,0,0,.3669-.1159.5529.5529,0,0,0,.136-.1742h.6748a.8244.8244,0,0,1-.245.4571,1.2283,1.2283,0,0,1-.951.3684,1.3786,1.3786,0,0,1-.89-.3107,1.2252,1.2252,0,0,1-.3858-1.0121,1.368,1.368,0,0,1,.3481-1.0069,1.2179,1.2179,0,0,1,.9039-.351A1.4418,1.4418,0,0,1,59.7188,124.1935Zm-.9889.5709a.6882.6882,0,0,0-.176.3917h1.1386a.5529.5529,0,0,0-.176-.4.58.58,0,0,0-.3921-.1361A.5242.5242,0,0,0,58.73,124.7644Z" fill="#5c5c5c"/><path d="M95.1293,123.2267h2.4372v.6009H95.8389v.7858h1.5142v.5937H95.8389V126.64h-.71Z" fill="#5c5c5c"/><path d="M99.553,124.1636a1.0328,1.0328,0,0,1,.4367.3741,1.2386,1.2386,0,0,1,.2013.5225,3.2349,3.2349,0,0,1,.0219.5019h-1.841a.6057.6057,0,0,0,.2644.5329.6668.6668,0,0,0,.3643.0953.5593.5593,0,0,0,.3669-.1159.5515.5515,0,0,0,.136-.1742h.6748a.8234.8234,0,0,1-.245.4571,1.2283,1.2283,0,0,1-.951.3684,1.3788,1.3788,0,0,1-.89-.3107,1.2251,1.2251,0,0,1-.3857-1.0121,1.3676,1.3676,0,0,1,.3481-1.0069,1.2176,1.2176,0,0,1,.9038-.3509A1.4414,1.4414,0,0,1,99.553,124.1636Zm-.9889.5709a.6882.6882,0,0,0-.176.3917h1.1386a.5529.5529,0,0,0-.176-.4.58.58,0,0,0-.3921-.136A.5243.5243,0,0,0,98.5641,124.7345Z" fill="#5c5c5c"/><path d="M101.4767,125.1025a1.03,1.03,0,0,0,.2641-.0577.1986.1986,0,0,0,.1425-.1876.2229.2229,0,0,0-.1093-.2149.6937.6937,0,0,0-.321-.0593.421.421,0,0,0-.336.1165.4758.4758,0,0,0-.0941.2319h-.6377a.9676.9676,0,0,1,.1863-.5452,1.0864,1.0864,0,0,1,.9036-.3339,1.6116,1.6116,0,0,1,.7408.1649.6314.6314,0,0,1,.3236.6214v1.1595c0,.08.0016.1778.0046.2917a.3636.3636,0,0,0,.04.1762.2332.2332,0,0,0,.0974.0768v.0974h-.7189a.7341.7341,0,0,1-.0417-.1438q-.0117-.0672-.0186-.153a1.3541,1.3541,0,0,1-.3172.2525.9589.9589,0,0,1-.4851.1231.8378.8378,0,0,1-.57-.1958.6971.6971,0,0,1-.2252-.5555.7193.7193,0,0,1,.362-.6746,1.6287,1.6287,0,0,1,.5841-.1628Zm.4042.3087a.7565.7565,0,0,1-.128.0639,1.0771,1.0771,0,0,1-.1775.0448l-.1505.0278a1.0069,1.0069,0,0,0-.3038.0907.3019.3019,0,0,0-.1561.28.2924.2924,0,0,0,.0953.2448.3613.3613,0,0,0,.2319.0758.6908.6908,0,0,0,.3991-.1258.53.53,0,0,0,.19-.4565Z" fill="#5c5c5c"/><path d="M102.7861,124.6067v-.4709h.3525v-.705h.6539v.705h.41v.4709h-.41v1.3357a.2991.2991,0,0,0,.0394.1933.43.43,0,0,0,.2412.0386c.02,0,.0412-.0005.0639-.0015s.0443-.0016.0659-.0036v.4942l-.313.0118a.84.84,0,0,1-.64-.1628.4819.4819,0,0,1-.1113-.35v-1.5558Z" fill="#5c5c5c"/><path d="M105.2145,124.1126v1.5237a.8037.8037,0,0,0,.0508.3247.3509.3509,0,0,0,.353.1922.461.461,0,0,0,.4614-.2736.997.997,0,0,0,.0647-.3917v-1.3753h.67V126.64h-.6424v-.3571q-.0093.0115-.0461.0695a.4691.4691,0,0,1-.0879.1021.919.919,0,0,1-.3.19,1.0182,1.0182,0,0,1-.3388.051.7546.7546,0,0,1-.7537-.4035,1.5441,1.5441,0,0,1-.1087-.656v-1.5237Z" fill="#5c5c5c"/><path d="M108.79,124.0533c.0085.001.0275.0021.0569.0036v.6771q-.0625-.0069-.1113-.0092c-.0325-.0016-.0588-.0026-.0789-.0026a.5489.5489,0,0,0-.5356.26,1.0148,1.0148,0,0,0-.0765.45V126.64h-.6656v-2.5276h.6308v.4406a1.3932,1.3932,0,0,1,.2666-.3453.7262.7262,0,0,1,.4824-.1556Z" fill="#5c5c5c"/><path d="M110.81,124.1636a1.0328,1.0328,0,0,1,.4367.3741,1.2372,1.2372,0,0,1,.2012.5225,3.21,3.21,0,0,1,.0219.5019h-1.8409a.6058.6058,0,0,0,.2643.5329.6672.6672,0,0,0,.3644.0953.56.56,0,0,0,.3669-.1159.5515.5515,0,0,0,.136-.1742h.6748a.824.824,0,0,1-.245.4571,1.2283,1.2283,0,0,1-.951.3684,1.3786,1.3786,0,0,1-.89-.3107,1.2251,1.2251,0,0,1-.3857-1.0121,1.3676,1.3676,0,0,1,.3481-1.0069,1.2176,1.2176,0,0,1,.9038-.3509A1.4414,1.4414,0,0,1,110.81,124.1636Zm-.9889.5709a.6882.6882,0,0,0-.176.3917h1.1386a.5529.5529,0,0,0-.176-.4.58.58,0,0,0-.3921-.136A.5242.5242,0,0,0,109.8209,124.7345Z" fill="#5c5c5c"/><path d="M115.5177,123.2221v.6055h-1.0226V126.64h-.7189v-2.8126h-1.0273v-.6055Z" fill="#5c5c5c"/><path d="M116.49,123.8111h-.67v-.61h.67Zm-.67.3015h.67V126.64h-.67Z" fill="#5c5c5c"/><path d="M116.799,124.6067v-.4709h.3525v-.705h.6539v.705h.41v.4709h-.41v1.3357a.299.299,0,0,0,.0395.1933.43.43,0,0,0,.2411.0386c.02,0,.0412-.0005.0639-.0015s.0443-.0016.066-.0036v.4942l-.3131.0118a.84.84,0,0,1-.64-.1628.4819.4819,0,0,1-.1113-.35v-1.5558Z" fill="#5c5c5c"/><path d="M119.2439,126.64h-.6609v-3.4181h.6609Z" fill="#5c5c5c"/><path d="M121.4644,124.1636a1.0331,1.0331,0,0,1,.4368.3741,1.24,1.24,0,0,1,.2012.5225,3.2223,3.2223,0,0,1,.0219.5019h-1.841a.6057.6057,0,0,0,.2644.5329.6668.6668,0,0,0,.3643.0953.5591.5591,0,0,0,.3669-.1159.5531.5531,0,0,0,.1361-.1742h.6748a.8243.8243,0,0,1-.2451.4571,1.2283,1.2283,0,0,1-.951.3684,1.3788,1.3788,0,0,1-.89-.3107,1.2254,1.2254,0,0,1-.3857-1.0121,1.3676,1.3676,0,0,1,.3481-1.0069,1.2176,1.2176,0,0,1,.9038-.3509A1.4414,1.4414,0,0,1,121.4644,124.1636Zm-.9889.5709a.6881.6881,0,0,0-.1759.3917h1.1385a.5532.5532,0,0,0-.1759-.4.58.58,0,0,0-.3922-.136A.5245.5245,0,0,0,120.4755,124.7345Z" fill="#5c5c5c"/><path d="M114.1679,118.8624h-12.11A3.2449,3.2449,0,0,1,98.81,115.62V103.4919a3.245,3.245,0,0,1,3.2424-3.2475h12.1154a3.2475,3.2475,0,0,1,3.2475,3.2475v12.1255a3.2449,3.2449,0,0,1-3.2449,3.245Z" fill="none" stroke="#231f20" stroke-miterlimit="10" stroke-width="0.25"/><path d="M105.9009,113.275a2.2081,2.2081,0,0,1-1.62-2.13v-3.5974a2.0281,2.0281,0,0,1,2.0281-2.0281h3.6075a2.208,2.208,0,0,1,2.203,2.203v3.4225a2.2105,2.2105,0,0,1-1.483,2.0864c-.4107.142-.2535,1.2853-2.345,1.2523A2.8193,2.8193,0,0,1,105.9009,113.275Z" fill="none" stroke="#000" stroke-miterlimit="10" stroke-width="0.25"/><path d="M109.0444,112.2863a3.4463,3.4463,0,0,1-.8847.1267,1.5615,1.5615,0,0,1-1.7746-1.4019,4.6319,4.6319,0,0,1,.8594-.2459,1.8837,1.8837,0,0,1,.93.2383,2.81,2.81,0,0,1,.9278-.2231,3.7245,3.7245,0,0,1,.91.2231,1.4323,1.4323,0,0,1-.4842,1.0293" fill="none" stroke="#000" stroke-miterlimit="10" stroke-width="0.25"/><line x1="108.9557" y1="107.7636" x2="110.7379" y2="108.263" fill="none" stroke="#000" stroke-miterlimit="10" stroke-width="0.25"/><path d="M108.796,109.2441a.8062.8062,0,0,1-1.6124.0127l-.0152-1.3791-1.6732.5577" fill="none" stroke="#000" stroke-miterlimit="10" stroke-width="0.25"/><circle cx="109.8075" cy="108.3771" r="0.3169"/><circle cx="106.2786" cy="108.3771" r="0.3169"/><path d="M102.9931,111.0618a2.0879,2.0879,0,0,0,.507.33,16.2036,16.2036,0,0,0-.69,2.2993,3.2708,3.2708,0,0,1-.1825.5451.2536.2536,0,0,1-.2535.1724h-.02a.355.355,0,0,1-.2535-.2535.6.6,0,0,1,0-.213,28.4551,28.4551,0,0,1,.8873-2.8774m0-.2535h-.0431a.2534.2534,0,0,0-.1876.1445c-.1344.2966-.6389,1.8811-.9025,2.918a.8371.8371,0,0,0-.0152.3169.5982.5982,0,0,0,.507.4664h.038a.5069.5069,0,0,0,.4868-.3422c.0177-.0431.0329-.0887.0507-.1344a2.4453,2.4453,0,0,0,.1445-.4538,16.1549,16.1549,0,0,1,.687-2.2436.2535.2535,0,0,0-.1293-.3194,1.8913,1.8913,0,0,1-.431-.2763.2534.2534,0,0,0-.1825-.0786Z"/><path d="M104.41,106.8433l-.03.0913Z" fill="none"/><path d="M104.7677,112.4359c-.0584-.1623-.1116-.3245-.16-.4893C104.6662,112.1114,104.72,112.2863,104.7677,112.4359Z" fill="none"/><path d="M112.0638,106.39a.054.054,0,0,0,.02.0507h0C112.0764,106.425,112.0714,106.4073,112.0638,106.39Z" fill="none"/><path d="M104.9933,112.9784c-.071-.1623-.1369-.3271-.1978-.4918C104.8564,112.6513,104.9223,112.8161,104.9933,112.9784Z" fill="none"/><path d="M112.084,106.44a1.4,1.4,0,0,1,.0609.16A1.4,1.4,0,0,0,112.084,106.44Z"/><path d="M111.7621,106.9878v.0482h0A.0633.0633,0,0,0,111.7621,106.9878Z" fill="none"/><path d="M104.5141,106.5518a2.37,2.37,0,0,0-.109.2915A2.8844,2.8844,0,0,1,104.5141,106.5518Z" fill="none"/><path d="M104.7955,112.4866c0-.0178-.0126-.033-.0177-.0507A.3216.3216,0,0,1,104.7955,112.4866Z" fill="none"/><path d="M112.2108,106.8028h0c-.02-.0685-.0406-.1369-.0659-.2028C112.1677,106.6659,112.1905,106.7343,112.2108,106.8028Z"/><path d="M103.9311,106.7648l.038-.1268Z"/><path d="M103.3074,106.8484h0v-.0228a.0273.0273,0,0,0,0,.0127Z" fill="none"/><path d="M114.1476,108.06l.0913.0761A.2181.2181,0,0,0,114.1476,108.06Z"/><path d="M105.2747,104.1865c1.3968-.0988,1.9825.2764,2.2664,1.4273" fill="none" stroke="#000" stroke-miterlimit="10" stroke-width="0.25"/><path d="M107.25,103.033c.3271.2054.6161.5933.6617,1.5211l.0811.92" fill="none" stroke="#000" stroke-miterlimit="10" stroke-width="0.25"/><path d="M108.6287,105.6138c.2839-1.1509.87-1.5211,2.2664-1.4273l.2535.0482" fill="none" stroke="#000" stroke-miterlimit="10" stroke-width="0.25"/><path d="M108.9354,103.0533c-.3346.1978-.6388.5425-.687,1.4932l-.0811.92" fill="none" stroke="#000" stroke-miterlimit="10" stroke-width="0.25"/><path d="M105.9363,105.5834a1.4193,1.4193,0,0,0-1.3892-.4107" fill="none" stroke="#000" stroke-miterlimit="10" stroke-width="0.25"/><path d="M110.639,105.5935a1.8408,1.8408,0,0,1,1.2067-.2941" fill="none" stroke="#000" stroke-miterlimit="10" stroke-width="0.25"/><path d="M103.1274,112.1367a.4.4,0,0,1-.0177.0786,12.884,12.884,0,0,0-.2535,1.7036c0,.1572-.0507.9051-.0431,1.0141a.7864.7864,0,0,0,.0532.2281.2738.2738,0,0,0,.2687.17.3093.3093,0,0,0,.2738-.2282.47.47,0,0,0,.02-.1572,11.8416,11.8416,0,0,1,.0837-1.7467c.038-.294.0887-.5881.1419-.8822a1.1662,1.1662,0,0,1-.4259-.1242A.7881.7881,0,0,1,103.1274,112.1367Z" fill="none"/><path d="M113.1818,113.1229c-.0507-.3017-.1116-.6009-.1724-.9a1.2667,1.2667,0,0,1-.5324.0963c.0456.2713.1014.5426.1268.8164.0456.5273.0659,1.0571.0963,1.5869a3.1175,3.1175,0,0,0,.0152.3524.3015.3015,0,0,0,.2991.2535.3169.3169,0,0,0,.2865-.2535,3.4331,3.4331,0,0,0,0-.3955,1.3464,1.3464,0,0,1,0-.1774A12.91,12.91,0,0,0,113.1818,113.1229Z" fill="none"/><path d="M113.1818,113.1229c-.0507-.3017-.1116-.6009-.1724-.9a1.2667,1.2667,0,0,1-.5324.0963c.0456.2713.1014.5426.1268.8164.0456.5273.0659,1.0571.0963,1.5869a3.1175,3.1175,0,0,0,.0152.3524.3015.3015,0,0,0,.2991.2535.3169.3169,0,0,0,.2865-.2535,3.4331,3.4331,0,0,0,0-.3955,1.3464,1.3464,0,0,1,0-.1774A12.91,12.91,0,0,0,113.1818,113.1229Z" fill="none"/><path d="M105.3026,113.1888c.03.0228.0608.0456.0938.0659.1369.0811.2408.147.39.2307-.0786.289-.1141.5958-.1775.8873a12.06,12.06,0,0,0-.2231,1.734.5615.5615,0,0,1-.0329.1547.317.317,0,0,1-.2789.2053h0a.2711.2711,0,0,1-.2535-.1927.6451.6451,0,0,1-.033-.2307c0-.1115.1141-.8543.1217-1.014a15.0253,15.0253,0,0,1,.38-1.7746.3.3,0,0,1,.0253-.0761m-.1343-.4132-.1065.3372v.0279l-.0152.0507a14.5711,14.5711,0,0,0-.3879,1.8v.0279c0,.0659-.0329.284-.0583.4792a3.9261,3.9261,0,0,0-.0989.5526.8936.8936,0,0,0,.0482.3194.5272.5272,0,0,0,.4817.36h.0228a.5652.5652,0,0,0,.507-.3726.7793.7793,0,0,0,.0482-.2257,11.6976,11.6976,0,0,1,.218-1.6985c.0254-.1141.0456-.2307.0659-.35.033-.1825.0634-.3549.1065-.5222l.0507-.19-.17-.0964c-.0989-.0557-.175-.1014-.2536-.1521l-.1115-.0659-.0609-.0405h-.0152l-.2839-.2079Z"/><path d="M112.85,107.6343a2.3881,2.3881,0,0,1-.0178.3625C112.8421,107.8751,112.8471,107.756,112.85,107.6343Zm-.2713.92h0Z" fill="none"/><path d="M110.2714,112.8339a.2383.2383,0,1,1-.3878-.2535c.0861-.1243.2763-.213.3853-.1395S110.3576,112.71,110.2714,112.8339Z"/><path d="M108.1647,111.7057l1.8025,1.1738c.0659.0406.0228-.0634.071-.1242l.1318-.17c.0381-.0481.1192-.0532.0659-.0887l-1.4805-1.0014" fill="none" stroke="#000" stroke-miterlimit="10" stroke-width="0.25"/><path d="M101.6139,104.1738c-.0126-.0709-.0228-.1419-.0354-.21-.066-.37-.1293-.7428-.1953-1.1129l-.1647-.9583v-.0253c0-.0076,0-.0685.0557-.0761l.4513-.0912.834-.1471.0964-.0152a.8165.8165,0,0,1-.17.687.8722.8722,0,0,1-.6338.32,1.01,1.01,0,0,0,.0305.1825c.0431.2535.0836.4842.1267.725s.0888.5071.1319.7606.0963.507.1292.7732a.826.826,0,0,1-.0938.507.943.943,0,0,1-1.3968.3448.9.9,0,0,1-.3752-.5983.92.92,0,0,1,.2332-.8112.9074.9074,0,0,1,.6084-.3017.8768.8768,0,0,1,.3245.0253h.033Z" fill="none" stroke="#000" stroke-miterlimit="10" stroke-width="0.25"/><path d="M108.043,113.62s-.1521.9582.5552.8568" fill="none" stroke="#000" stroke-miterlimit="10" stroke-width="0.25"/><path d="M106.4789,111.072a13.9483,13.9483,0,0,0,1.412.5273,1.2512,1.2512,0,0,0,.6541,0,8.2941,8.2941,0,0,0,1.3588-.4843" fill="none" stroke="#000" stroke-miterlimit="10" stroke-width="0.25"/><path d="M112.2209,111.3432a1.7753,1.7753,0,0,0,.7327-.1977,1.1661,1.1661,0,0,0,.6439-1.0141v-.8467h0v-.071h0v-.8467a1.1662,1.1662,0,0,0-.6439-1.0268,1.7753,1.7753,0,0,0-.7327-.1977,6.316,6.316,0,0,0-.436-1.9977,2.1415,2.1415,0,0,0-.2915-.4639,3.9344,3.9344,0,0,0-3.2957-1.7264h-.0583a3.9369,3.9369,0,0,0-3.2957,1.7264,2.03,2.03,0,0,0-.289.4639,4.5414,4.5414,0,0,0-.3093,1.9673,2.4833,2.4833,0,0,0-.8619.2281,1.1664,1.1664,0,0,0-.644,1.0141v.8467h0v.071h0v.8467a1.1664,1.1664,0,0,0,.644,1.0141,2.6436,2.6436,0,0,0,.9861.1977" fill="none" stroke="#000" stroke-miterlimit="10" stroke-width="0.25"/><path d="M104.73,112.484a27.6892,27.6892,0,0,0-.616,2.8191.922.922,0,0,1-.0533.2079.3827.3827,0,0,1-.3574.2535.4487.4487,0,0,1-.3422-.3169,1.1184,1.1184,0,0,1-.0153-.3194,6.9449,6.9449,0,0,1,.1952-1.3462,24.3685,24.3685,0,0,1,.5983-2.4236" fill="none" stroke="#000" stroke-miterlimit="10" stroke-width="0.25"/><path d="M113.2477,111.0618c.1166.2535.6185,1.8126.8873,2.8774a.5093.5093,0,0,1,0,.2129.35.35,0,0,1-.2662.2536h-.02a.2536.2536,0,0,1-.2535-.1724,3.2708,3.2708,0,0,1-.1825-.5451,15.9779,15.9779,0,0,0-.6871-2.2994,2.093,2.093,0,0,0,.5071-.33m0-.2535a.2532.2532,0,0,0-.1826.0786,1.889,1.889,0,0,1-.4233.2788.2535.2535,0,0,0-.1293.3194,16.0344,16.0344,0,0,1,.6769,2.2512,2.2584,2.2584,0,0,0,.1419.4538c.0178.0457.0355.0913.0507.1344a.5071.5071,0,0,0,.4842.34h.0431a.5984.5984,0,0,0,.5071-.4665.8412.8412,0,0,0-.0152-.3169,26.84,26.84,0,0,0-.9026-2.9179.2534.2534,0,0,0-.1876-.1445h-.0431Z"/><path d="M111.0269,113.2319l.0253.076a13.9437,13.9437,0,0,1,.38,1.7746c0,.1572.1242.8975.1242,1.0141a.6581.6581,0,0,1-.0355.2332.2687.2687,0,0,1-.2535.19h0a.32.32,0,0,1-.2814-.2079.62.62,0,0,1-.0329-.1547,11.7541,11.7541,0,0,0-.2231-1.734c-.0609-.2915-.0811-.507-.1572-.7859a1.042,1.042,0,0,1,.36-.3372l.0938-.0633m.1344-.4133-.284.2079-.0253.0152-.0583.0431a1.2686,1.2686,0,0,0-.4488.398l-.0633.0938.0279.1116a4.4108,4.4108,0,0,1,.0938.4538c.0177.0988.0354.2028.0608.3194a11.6218,11.6218,0,0,1,.2206,1.696.791.791,0,0,0,.0456.2282.57.57,0,0,0,.52.3726h.0228a.522.522,0,0,0,.4791-.3574.8977.8977,0,0,0,.0507-.32c0-.0684-.02-.218-.0633-.545-.0279-.1927-.0558-.4132-.0609-.4791v-.0254a14.94,14.94,0,0,0-.3878-1.8l-.0178-.0533v-.0279l-.1065-.3346Z"/><path d="M112.12,111.3686a24.3117,24.3117,0,0,1,.6009,2.4236,6.7889,6.7889,0,0,1,.1926,1.3461,1.036,1.036,0,0,1-.0329.3194.4438.4438,0,0,1-.3423.3169.3877.3877,0,0,1-.3574-.2535.9259.9259,0,0,1-.0533-.2079,24.5208,24.5208,0,0,0-.583-2.6188" fill="none" stroke="#000" stroke-miterlimit="10" stroke-width="0.25"/><path d="M103.5812,107.1856c-.0279-3.1486,1.96-5.04,4.614-5.04s4.5632,2.1955,4.5632,5.1413" fill="none" stroke="#000" stroke-linejoin="round" stroke-width="0.25"/><path d="M98.9368,116.3755a4.325,4.325,0,0,1,3.1385-3.567l.2028-.038" fill="none" stroke="#000" stroke-linecap="round" stroke-linejoin="round" stroke-width="0.25"/><path d="M117.347,116.236a4.1748,4.1748,0,0,0-3.1639-3.4275l-.2028-.038" fill="none" stroke="#000" stroke-linecap="round" stroke-linejoin="round" stroke-width="0.25"/><path d="M105.7513,114.52a7.1556,7.1556,0,0,0,2.4464,1.3487,7.8414,7.8414,0,0,0,2.4439-1.014" fill="none" stroke="#000" stroke-linejoin="round" stroke-width="0.25"/><line x1="104.9654" y1="114" x2="104.4026" y2="113.5361" fill="none" stroke="#000" stroke-linejoin="round" stroke-width="0.25"/><line x1="103.7282" y1="112.9581" x2="103.2085" y2="112.5246" fill="none" stroke="#000" stroke-linejoin="round" stroke-width="0.25"/><line x1="111.3996" y1="114.4335" x2="111.8229" y2="114.1395" fill="none" stroke="#000" stroke-linejoin="round" stroke-width="0.25"/><line x1="112.7077" y1="113.7922" x2="113.2122" y2="113.3586" fill="none" stroke="#000" stroke-linejoin="round" stroke-width="0.25"/><path d="M218.6206,122.5734h2.4372v.6008H219.33v.7859h1.5142v.5936H219.33v1.4331h-.71Z" fill="#5c5c5c"/><path d="M223.0443,123.51a1.0342,1.0342,0,0,1,.4367.3741,1.2391,1.2391,0,0,1,.2013.5226,3.2342,3.2342,0,0,1,.0219.5019h-1.841a.6055.6055,0,0,0,.2644.5328.6668.6668,0,0,0,.3643.0953.5593.5593,0,0,0,.3669-.1159.5515.5515,0,0,0,.136-.1742h.6748a.8234.8234,0,0,1-.245.4571,1.2283,1.2283,0,0,1-.951.3684,1.378,1.378,0,0,1-.89-.3107,1.225,1.225,0,0,1-.3857-1.0121,1.3676,1.3676,0,0,1,.3481-1.0069,1.218,1.218,0,0,1,.9038-.3509A1.443,1.443,0,0,1,223.0443,123.51Zm-.9889.571a.6876.6876,0,0,0-.176.3916h1.1386a.5529.5529,0,0,0-.176-.4.58.58,0,0,0-.3921-.136A.5238.5238,0,0,0,222.0554,124.0812Z" fill="#5c5c5c"/><path d="M224.968,124.4491a1.0253,1.0253,0,0,0,.2641-.0577.1986.1986,0,0,0,.1425-.1876.2229.2229,0,0,0-.1093-.2149.6952.6952,0,0,0-.321-.0592.421.421,0,0,0-.336.1164.4758.4758,0,0,0-.0941.2319h-.6377a.9671.9671,0,0,1,.1863-.5452,1.0864,1.0864,0,0,1,.9036-.3339,1.6116,1.6116,0,0,1,.7408.1649.6318.6318,0,0,1,.3236.6215v1.1594c0,.08.0016.1778.0046.2917a.3636.3636,0,0,0,.04.1762.2325.2325,0,0,0,.0974.0768v.0974h-.7189a.7322.7322,0,0,1-.0417-.1438q-.0117-.0672-.0186-.153a1.3541,1.3541,0,0,1-.3172.2525.9589.9589,0,0,1-.4851.1231.8378.8378,0,0,1-.57-.1958.6971.6971,0,0,1-.2252-.5555.7191.7191,0,0,1,.362-.6745,1.6264,1.6264,0,0,1,.5841-.1629Zm.4042.3087a.7491.7491,0,0,1-.128.0639,1.067,1.067,0,0,1-.1775.0448l-.15.0278a1.0069,1.0069,0,0,0-.3038.0907.302.302,0,0,0-.1561.28.2922.2922,0,0,0,.0953.2447.3613.3613,0,0,0,.2319.0758.6914.6914,0,0,0,.3991-.1257.53.53,0,0,0,.19-.4566Z" fill="#5c5c5c"/><path d="M226.2774,123.9534v-.471h.3525v-.705h.6539v.705h.41v.471h-.41v1.3357a.2988.2988,0,0,0,.0394.1932.43.43,0,0,0,.2412.0387c.02,0,.0412-.0006.0639-.0016s.0443-.0015.0659-.0036v.4942l-.313.0118a.8393.8393,0,0,1-.64-.1628.4817.4817,0,0,1-.1113-.35v-1.5557Z" fill="#5c5c5c"/><path d="M228.7058,123.4592v1.5238a.8031.8031,0,0,0,.0508.3246.3508.3508,0,0,0,.3529.1922.4611.4611,0,0,0,.4615-.2736.9962.9962,0,0,0,.0647-.3916v-1.3754h.67v2.5276h-.6424V125.63q-.0093.0115-.0461.07a.4709.4709,0,0,1-.0879.102.919.919,0,0,1-.3.19,1.0155,1.0155,0,0,1-.3388.0511.7546.7546,0,0,1-.7537-.4035,1.5441,1.5441,0,0,1-.1087-.656v-1.5238Z" fill="#5c5c5c"/><path d="M232.2811,123.4c.0085.0011.0275.0021.0569.0036v.6772c-.0417-.0047-.0789-.0078-.1113-.0093s-.0588-.0026-.0789-.0026a.5489.5489,0,0,0-.5356.26,1.0146,1.0146,0,0,0-.0766.45v1.2079H230.87v-2.5276h.6308V123.9a1.3972,1.3972,0,0,1,.2666-.3453.7262.7262,0,0,1,.4824-.1556Z" fill="#5c5c5c"/><path d="M234.3011,123.51a1.0342,1.0342,0,0,1,.4367.3741,1.2376,1.2376,0,0,1,.2012.5226,3.2091,3.2091,0,0,1,.0219.5019H233.12a.6056.6056,0,0,0,.2643.5328.6672.6672,0,0,0,.3644.0953.56.56,0,0,0,.3669-.1159.5529.5529,0,0,0,.136-.1742h.6748a.824.824,0,0,1-.245.4571,1.2283,1.2283,0,0,1-.951.3684,1.378,1.378,0,0,1-.89-.3107,1.225,1.225,0,0,1-.3857-1.0121,1.368,1.368,0,0,1,.348-1.0069,1.2184,1.2184,0,0,1,.9039-.3509A1.4434,1.4434,0,0,1,234.3011,123.51Zm-.9889.571a.6876.6876,0,0,0-.176.3916h1.1386a.5529.5529,0,0,0-.176-.4.58.58,0,0,0-.3921-.136A.5238.5238,0,0,0,233.3122,124.0812Z" fill="#5c5c5c"/><path d="M239.009,122.5687v.6055h-1.0226v2.8126h-.7189v-2.8126H236.24v-.6055Z" fill="#5c5c5c"/><path d="M239.9814,123.1577h-.67v-.61h.67Zm-.67.3015h.67v2.5276h-.67Z" fill="#5c5c5c"/><path d="M240.29,123.9534v-.471h.3525v-.705h.6539v.705h.4105v.471h-.4105v1.3357a.2986.2986,0,0,0,.04.1932.4294.4294,0,0,0,.2411.0387c.02,0,.0412-.0006.0639-.0016s.0443-.0015.066-.0036v.4942l-.3131.0118a.8393.8393,0,0,1-.64-.1628.4817.4817,0,0,1-.1113-.35v-1.5557Z" fill="#5c5c5c"/><path d="M242.7352,125.9868h-.6609v-3.4181h.6609Z" fill="#5c5c5c"/><path d="M244.9557,123.51a1.0336,1.0336,0,0,1,.4367.3741,1.2391,1.2391,0,0,1,.2013.5226,3.2216,3.2216,0,0,1,.0219.5019h-1.841a.6055.6055,0,0,0,.2644.5328.6668.6668,0,0,0,.3643.0953.5591.5591,0,0,0,.3669-.1159.5515.5515,0,0,0,.136-.1742h.6749a.8243.8243,0,0,1-.2451.4571,1.2283,1.2283,0,0,1-.951.3684,1.3782,1.3782,0,0,1-.89-.3107,1.2253,1.2253,0,0,1-.3857-1.0121,1.3676,1.3676,0,0,1,.3481-1.0069,1.218,1.218,0,0,1,.9038-.3509A1.443,1.443,0,0,1,244.9557,123.51Zm-.9889.571a.6875.6875,0,0,0-.1759.3916h1.1385a.5532.5532,0,0,0-.1759-.4.58.58,0,0,0-.3922-.136A.5241.5241,0,0,0,243.9668,124.0812Z" fill="#5c5c5c"/><rect x="223.7221" y="100.4062" width="17.9033" height="18.5258" rx="3.1764" fill="none" stroke="#231f20" stroke-miterlimit="10" stroke-width="0.25"/><path d="M231.8092,103.7158a.487.487,0,0,1,.2767.11.0922.0922,0,0,0,.1076.0128c.3048-.1511.6122-.3.92-.4457a.0976.0976,0,0,0,.0641-.1.5943.5943,0,0,1,1.1758-.0436.5637.5637,0,0,1-.2921.5969.5483.5483,0,0,1-.6532-.0461.1305.1305,0,0,0-.1639-.0154c-.2818.1435-.5662.2818-.8479.42-.0436.02-.0462.0461-.0538.0871-.0257.1127.0435.1409.1229.1793.2562.1281.5252.2562.7864.392a.1156.1156,0,0,0,.1435,0,.5866.5866,0,0,1,.8095.0614.6.6,0,0,1,0,.8018.528.528,0,0,1-.4637.1691.5893.5893,0,0,1-.5277-.3766.5527.5527,0,0,1-.041-.1793.0973.0973,0,0,0-.064-.0948c-.3048-.146-.6122-.2971-.9145-.4482a.0845.0845,0,0,0-.1076,0,.5867.5867,0,0,1-.7916-.1.5942.5942,0,0,1,0-.7684A.6355.6355,0,0,1,231.8092,103.7158Z" fill="none" stroke="#000" stroke-miterlimit="10" stroke-width="0.25"/><path d="M227.1573,106.362a1.2809,1.2809,0,0,1-.1921,1.45c-.2152.19-.9017.8787-.9017.8787.0563-.3407.0922-.5457.1614-.8377-.1845.064-.4227.32-.6225.4047.0768-.2408.228-.6609.3125-.8581-.1409.0845-.3253.1639-.5123.269a6.679,6.679,0,0,0,.3535-.71,4.2663,4.2663,0,0,1-.4458.1486,9.8582,9.8582,0,0,0,.95-1.2348,10.1075,10.1075,0,0,0,.7531-1.5907" fill="none" stroke="#000" stroke-miterlimit="10" stroke-width="0.25"/><ellipse cx="237.2878" cy="105.5035" rx="2.1005" ry="1.4473" transform="translate(75.8036 308.8735) rotate(-75.52)" fill="none" stroke="#000" stroke-miterlimit="10" stroke-width="0.25"/><path d="M240.2447,117.6691c-.3637-.9965-.7352-2.0211-1.1143-3.02a4.209,4.209,0,0,0,.4637-1.9827,17.4758,17.4758,0,0,0-.6661-3.6145,1.2116,1.2116,0,0,0-1.2065-1.04,1.38,1.38,0,0,0-1.1783.6379c-.41.5789-.8249,1.1553-1.24,1.7316a.2023.2023,0,0,1-.12.0923c-.1972.0333-.4.0512-.5994.0768-.3125.0384-.625.0743-.935.1178a.7173.7173,0,0,0-.2792,1.327.85.85,0,0,0,.5866.0768c.5687-.064,1.1348-.1383,1.7009-.2049a.8533.8533,0,0,0,.6379-.3766c.0691-.1.1409-.1972.2126-.2946h.0282c.0307.5124.064,1.0068.0819,1.5088a.7018.7018,0,0,1-.087.3331q-.538,1.04-1.0939,2.0723a1.1741,1.1741,0,0,0-.1332.4919c-.0333.6737-.0768,1.3448-.1127,2.016h-.6865a.4456.4456,0,0,0-.4457.4457v.3458a.4457.4457,0,0,0,.4457.4458h1.96a.4528.4528,0,0,0,.1768-.0359c.0768.0179.1281,0,.1511-.11a.4482.4482,0,0,0,.123-.2894v-.0513a.3119.3119,0,0,1,.0128-.1c.0615-.6019.1383-1.2039.1819-1.8059a1.793,1.793,0,0,1,.3791-1.0247c.0922-.1153.1819-.2331.2715-.3509a7.9,7.9,0,0,0,.4253,2.1159.392.392,0,0,1,.0281.0692c.1461.3535.2844.71.4355,1.0605" fill="none" stroke="#000" stroke-miterlimit="10" stroke-width="0.25"/><path d="M238.8717,118.8705l-.228-.5405c-.1511-.3509-.29-.707-.4355-1.0605a.385.385,0,0,0-.0282-.0692,8.1067,8.1067,0,0,1-.4252-2.1159c-.09.1179-.1793.2357-.2715.351a1.7927,1.7927,0,0,0-.3791,1.0246c-.0436.602-.12,1.204-.1819,1.806a.2312.2312,0,0,1-.0128.1v.0512a.4478.4478,0,0,1-.1179.3048c-.023.1128-.0743.1281-.1511.11a.4528.4528,0,0,1-.1768.0359h-1.96a.4457.4457,0,0,1-.4457-.4458v-.3458a.4458.4458,0,0,1,.4431-.4483h.6891c.0359-.6711.0794-1.3423.1127-2.016a1.1741,1.1741,0,0,1,.1332-.4918q.5533-1.0246,1.0938-2.0724a.7.7,0,0,0,.0871-.333c-.0179-.5123-.0512-1.0067-.0819-1.5088h-.0282c-.0717.0973-.1435.1947-.2126.2946a.8529.8529,0,0,1-.6379.3765c-.5661.0666-1.1322.1409-1.7009.205a.85.85,0,0,1-.5866-.0769.7172.7172,0,0,1,.2792-1.3269c.31-.0436.6225-.0794.935-.1178.2-.0257.4022-.0436.5994-.0769a.2021.2021,0,0,0,.12-.0922c.415-.5764.83-1.1528,1.24-1.7317a1.3806,1.3806,0,0,1,1.1783-.6378,1.2115,1.2115,0,0,1,1.2065,1.04,17.4824,17.4824,0,0,1,.6661,3.6145,4.2094,4.2094,0,0,1-.4637,1.9827c.3791.9888.7506,2.0134,1.1143,3.01l.2178.54" fill="none" stroke="#000" stroke-miterlimit="10" stroke-width="0.25"/><ellipse cx="228.3768" cy="105.5136" rx="1.4498" ry="2.1041" transform="translate(-19.1067 60.3364) rotate(-14.4524)" fill="none" stroke="#000" stroke-miterlimit="10.017" stroke-width="0.25"/><path d="M225.131,118.2455c.3715-1.0067,1.0247-2.59,1.3961-3.5863a4.21,4.21,0,0,1-.4636-1.9827,17.4822,17.4822,0,0,1,.666-3.6145,1.2116,1.2116,0,0,1,1.2065-1.04,1.3807,1.3807,0,0,1,1.1784.6378q.6149.8683,1.24,1.7317a.2027.2027,0,0,0,.12.0922c.1973.0333.4.0512.5994.0769.3126.0384.6251.0742.935.1178a.7172.7172,0,0,1,.2793,1.3269.8508.8508,0,0,1-.5867.0769c-.5686-.0641-1.1348-.1384-1.7009-.205a.8529.8529,0,0,1-.6378-.3765c-.0692-.1-.1409-.1973-.2126-.2946h-.0282c-.0308.5123-.0641,1.0067-.082,1.5088a.7015.7015,0,0,0,.0871.333q.5379,1.04,1.0938,2.0724a1.1726,1.1726,0,0,1,.1332.4918c.0333.6737.0769,1.3449.1153,2.016h.6814a.4457.4457,0,0,1,.4457.4457v.3459a.4457.4457,0,0,1-.4457.4457h-1.9571a.4543.4543,0,0,1-.1793-.0359c-.0769.018-.1281,0-.1512-.11a.4486.4486,0,0,1-.1178-.3v-.0513a.3119.3119,0,0,0-.0128-.1c-.0615-.6019-.1383-1.2039-.1819-1.8059a1.793,1.793,0,0,0-.3791-1.0247c-.0922-.1153-.1819-.2331-.2715-.3509a7.9,7.9,0,0,1-.4253,2.1159.392.392,0,0,0-.0281.0692c-.1435.3535-.2818.71-.4355,1.0605l-.2357.6455" fill="none" stroke="#000" stroke-miterlimit="10" stroke-width="0.25"/><path d="M227.6056,103.4981s.9529-1.3321,1.4678-1.1707c.3842.1281.064.4355.064.4355s.415-.1486.5764,0-.2562.4252-.2562.4252.7019-.0409.7147.2562c.02.5559-1.1348.42-1.14.3842A1.2807,1.2807,0,0,0,227.6056,103.4981Z" fill="none" stroke="#000" stroke-miterlimit="10" stroke-width="0.25"/><path d="M237.65,103.3956a2.4343,2.4343,0,0,0-.2126-1.47,3.6125,3.6125,0,0,1,.6378,1.058,4.8709,4.8709,0,0,0,.0846-1.0247s.3919.8249.3074,1.1016a1.97,1.97,0,0,0,.1895-.8889,2.327,2.327,0,0,1,.2357.9939,1.1528,1.1528,0,0,0,.3535-.6789s.1716.228.0512.8941a1.2041,1.2041,0,0,0,.4355-.5815,2.1457,2.1457,0,0,1-.0871.8094.8632.8632,0,0,0,.53-.5891,2.1043,2.1043,0,0,1-.123.9529.3771.3771,0,0,1-.0256.0333s.4893-.1768.5533-.4739a1.306,1.306,0,0,1-.4175,1.0708s.5123-.1563.61-.3126a1.0762,1.0762,0,0,1-.7172.81,1.4613,1.4613,0,0,0,.7019-.0205s-.0564.4893-.8454.4048a1.01,1.01,0,0,0,.6968.1972,1.3244,1.3244,0,0,1-1.0016.1768,1.5071,1.5071,0,0,0,.64.2561,1.5372,1.5372,0,0,1-.9453.0436,4.12,4.12,0,0,0,.5124.4175s-.6737.0564-.8069-.0768c0,0,.2766.4252.4252.4688,0,0-.789.0486-1.0861-.2357" fill="none" stroke="#000" stroke-linejoin="round" stroke-width="0.25"/><path d="M156.8749,122.4058h2.4372v.6009h-1.7276v.7859h1.5143v.5936h-1.5143v1.4331h-.71Z" fill="#5c5c5c"/><path d="M161.2987,123.3427a1.0328,1.0328,0,0,1,.4367.3741,1.2372,1.2372,0,0,1,.2012.5225,3.2105,3.2105,0,0,1,.0219.5019h-1.8409a.6058.6058,0,0,0,.2643.5329.6671.6671,0,0,0,.3643.0953.5591.5591,0,0,0,.3669-.1159.5517.5517,0,0,0,.1361-.1742h.6748a.8247.8247,0,0,1-.245.4571,1.2284,1.2284,0,0,1-.9511.3684,1.379,1.379,0,0,1-.89-.3107,1.2254,1.2254,0,0,1-.3857-1.0121,1.368,1.368,0,0,1,.3481-1.0069,1.2179,1.2179,0,0,1,.9039-.3509A1.4418,1.4418,0,0,1,161.2987,123.3427Zm-.9889.571a.6869.6869,0,0,0-.176.3916h1.1386a.5529.5529,0,0,0-.176-.4.58.58,0,0,0-.3922-.136A.5237.5237,0,0,0,160.31,123.9137Z" fill="#5c5c5c"/><path d="M163.2223,124.2816a1.0286,1.0286,0,0,0,.2641-.0577.1985.1985,0,0,0,.1425-.1876.2228.2228,0,0,0-.1092-.2149.6945.6945,0,0,0-.3211-.0593.421.421,0,0,0-.336.1165.4758.4758,0,0,0-.094.2319h-.6377a.9669.9669,0,0,1,.1863-.5452,1.0861,1.0861,0,0,1,.9036-.3339,1.6112,1.6112,0,0,1,.7407.1649.6315.6315,0,0,1,.3237.6214v1.1595c0,.08.0015.1778.0046.2917a.3639.3639,0,0,0,.0394.1762.2339.2339,0,0,0,.0974.0768v.0974h-.7189a.7341.7341,0,0,1-.0417-.1438q-.0115-.0672-.0185-.153a1.3582,1.3582,0,0,1-.3172.2525.959.959,0,0,1-.4852.1231.8379.8379,0,0,1-.57-.1958.6971.6971,0,0,1-.2252-.5555.7191.7191,0,0,1,.362-.6745,1.6277,1.6277,0,0,1,.5841-.1629Zm.4043.3087a.7573.7573,0,0,1-.1281.0639,1.0771,1.0771,0,0,1-.1775.0448l-.15.0278a1.0061,1.0061,0,0,0-.3037.0907.302.302,0,0,0-.1562.28.2924.2924,0,0,0,.0953.2448.3617.3617,0,0,0,.2319.0758.6906.6906,0,0,0,.3991-.1258.53.53,0,0,0,.19-.4565Z" fill="#5c5c5c"/><path d="M164.5317,123.7859v-.471h.3525v-.705h.6539v.705h.4105v.471h-.4105v1.3356a.299.299,0,0,0,.04.1933.43.43,0,0,0,.2411.0386c.02,0,.0413,0,.0639-.0015s.0443-.0016.066-.0036v.4942l-.3131.0118a.84.84,0,0,1-.64-.1628.4817.4817,0,0,1-.1113-.35v-1.5557Z" fill="#5c5c5c"/><path d="M166.96,123.2917v1.5238a.8055.8055,0,0,0,.0507.3246.351.351,0,0,0,.353.1922.4611.4611,0,0,0,.4615-.2736.9969.9969,0,0,0,.0646-.3917v-1.3753h.67v2.5276h-.6423v-.3571c-.0062.0077-.0217.0309-.0462.07a.4714.4714,0,0,1-.0878.1021.9183.9183,0,0,1-.3.19,1.0178,1.0178,0,0,1-.3388.051.7544.7544,0,0,1-.7536-.4035,1.5421,1.5421,0,0,1-.1088-.6559v-1.5238Z" fill="#5c5c5c"/><path d="M170.5354,123.2324c.0085.001.0276.0021.0569.0036v.6771q-.0625-.0069-.1113-.0092c-.0324-.0016-.0587-.0026-.0788-.0026a.5491.5491,0,0,0-.5357.26,1.0148,1.0148,0,0,0-.0765.45v1.2079h-.6655v-2.5276h.6307v.4406a1.3926,1.3926,0,0,1,.2667-.3453.7259.7259,0,0,1,.4823-.1556Z" fill="#5c5c5c"/><path d="M172.5554,123.3427a1.0331,1.0331,0,0,1,.4368.3741,1.24,1.24,0,0,1,.2012.5225,3.223,3.223,0,0,1,.0219.5019h-1.841a.6059.6059,0,0,0,.2644.5329.6668.6668,0,0,0,.3643.0953.5591.5591,0,0,0,.3669-.1159.5517.5517,0,0,0,.1361-.1742h.6748a.8243.8243,0,0,1-.2451.4571,1.2282,1.2282,0,0,1-.951.3684,1.379,1.379,0,0,1-.89-.3107,1.2254,1.2254,0,0,1-.3857-1.0121,1.368,1.368,0,0,1,.3481-1.0069,1.2177,1.2177,0,0,1,.9039-.3509A1.4413,1.4413,0,0,1,172.5554,123.3427Zm-.9889.571a.6875.6875,0,0,0-.1759.3916h1.1386a.5533.5533,0,0,0-.176-.4.58.58,0,0,0-.3922-.136A.5241.5241,0,0,0,171.5665,123.9137Z" fill="#5c5c5c"/><path d="M177.2633,122.4012v.6055h-1.0226v2.8126h-.7189v-2.8126h-1.0272v-.6055Z" fill="#5c5c5c"/><path d="M178.2357,122.99h-.67v-.61h.67Zm-.67.3015h.67v2.5276h-.67Z" fill="#5c5c5c"/><path d="M178.5447,123.7859v-.471h.3524v-.705h.654v.705h.41v.471h-.41v1.3356a.2991.2991,0,0,0,.0394.1933.43.43,0,0,0,.2412.0386c.02,0,.0412,0,.0639-.0015s.0443-.0016.0659-.0036v.4942l-.313.0118a.84.84,0,0,1-.64-.1628.4818.4818,0,0,1-.1114-.35v-1.5557Z" fill="#5c5c5c"/><path d="M180.99,125.8193h-.6609v-3.4181h.6609Z" fill="#5c5c5c"/><path d="M183.21,123.3427a1.0328,1.0328,0,0,1,.4367.3741,1.2372,1.2372,0,0,1,.2012.5225,3.2105,3.2105,0,0,1,.0219.5019H182.029a.6058.6058,0,0,0,.2643.5329.6672.6672,0,0,0,.3644.0953.56.56,0,0,0,.3669-.1159.5529.5529,0,0,0,.136-.1742h.6748a.8247.8247,0,0,1-.245.4571,1.2283,1.2283,0,0,1-.951.3684,1.3786,1.3786,0,0,1-.89-.3107,1.2252,1.2252,0,0,1-.3858-1.0121,1.368,1.368,0,0,1,.3481-1.0069,1.2179,1.2179,0,0,1,.9039-.3509A1.4418,1.4418,0,0,1,183.21,123.3427Zm-.9889.571a.6876.6876,0,0,0-.176.3916h1.1386a.5529.5529,0,0,0-.176-.4.58.58,0,0,0-.3921-.136A.5238.5238,0,0,0,182.2212,123.9137Z" fill="#5c5c5c"/><path d="M175.7943,114.4885c0,.2-.41.3625-.9195.3625s-.9194-.1629-.9194-.3625" fill="none" stroke="#000" stroke-miterlimit="10" stroke-width="0.25"/><path d="M175.3241,113.54a.4913.4913,0,1,1-.9826,0" fill="none" stroke="#000" stroke-miterlimit="10" stroke-width="0.25"/><path d="M176.1122,111.4988l1.0508,1.7418a1.2265,1.2265,0,0,1,.1182,1.0219,2.1633,2.1633,0,0,1-1.8389,1.5526H174.197a2.2084,2.2084,0,0,1-1.8862-1.6682,1.1819,1.1819,0,0,1,.1235-.8827l.93-1.7049a.8667.8667,0,0,1,.7382-.4519l1.2452-.0315A.8723.8723,0,0,1,176.1122,111.4988Z" fill="none" stroke="#000" stroke-miterlimit="10" stroke-width="0.25"/><path d="M176.325,112.6285a1.0325,1.0325,0,0,1-1.0325.465s.0289-.3993.3127-.507A.9767.9767,0,0,1,176.325,112.6285Z"/><path d="M173.3275,112.6127a1.0324,1.0324,0,0,0,1.0324.4624s-.0289-.3967-.3126-.507A.9874.9874,0,0,0,173.3275,112.6127Z"/><polygon points="175.983 116.664 174.872 117.034 173.711 116.664 173.711 115.82 175.983 115.82 175.983 116.664" fill="none" stroke="#000" stroke-miterlimit="10" stroke-width="0.25"/><path d="M165.6669,117.5911s-.9694-.1472-1.282-.1708a4.4961,4.4961,0,0,0-1.1454.0315,5.19,5.19,0,0,0,.2417-.7408,5.9069,5.9069,0,0,0,.0945-.7172s.6174.0919.82.0893.9247-.113.9247-.113.0184.5675.0447.7409A3.5486,3.5486,0,0,0,165.6669,117.5911Z" fill="none" stroke="#000" stroke-miterlimit="10" stroke-width="0.25"/><path d="M167.5347,114.168a2.1694,2.1694,0,0,1-1.0245.1917" fill="none" stroke="#000" stroke-miterlimit="10" stroke-width="0.25"/><path d="M170.8186,114.168a3.5976,3.5976,0,0,0,1.5763.2443" fill="none" stroke="#000" stroke-miterlimit="10" stroke-width="0.25"/><path d="M170.7424,119.4694v-.7881a2.0361,2.0361,0,0,1,2.036-2.036h.9326" fill="none" stroke="#000" stroke-linecap="round" stroke-miterlimit="10" stroke-width="0.25"/><path d="M175.9835,116.6453h1.1139A2.0334,2.0334,0,0,1,178.9,117.73" fill="none" stroke="#000" stroke-linecap="round" stroke-miterlimit="10" stroke-width="0.25"/><path d="M161.0038,118.2032a6.1,6.1,0,0,1,3.0553-.7514c2.0281,0,3.741.8486,4.2822,2.0071" fill="none" stroke="#000" stroke-linecap="round" stroke-miterlimit="10" stroke-width="0.25"/><path d="M170.0016,112.9385a2.7694,2.7694,0,0,0,.817,1.23v.1313a1.6314,1.6314,0,1,1-3.26.1309q-.0027-.0654,0-.1309l-.0263-.1261a2.7681,2.7681,0,0,0,.817-1.2295" fill="none" stroke="#231f20" stroke-miterlimit="10" stroke-width="0.25"/><path d="M171.3834,112.2344a.6436.6436,0,0,0,.9694.113.6567.6567,0,0,0,.1918-.63.5753.5753,0,0,0,.6778-.1734.6307.6307,0,0,0,.0841-.6936.5726.5726,0,0,0,.6068-.3756.6226.6226,0,0,0-.1655-.7041.5937.5937,0,0,0,.4125-.4624.62.62,0,0,0-.1839-.591.5938.5938,0,0,0,.42-.5859.6043.6043,0,0,0-.4571-.6095.6173.6173,0,0,0,.2075-.6725.5832.5832,0,0,0-.5385-.4309.62.62,0,0,0,.1392-.73.578.578,0,0,0-.7067-.3389.63.63,0,0,0-.0814-.77.5778.5778,0,0,0-.7881-.0394.6279.6279,0,0,0-.2155-.7067.5674.5674,0,0,0-.7277.0184.5989.5989,0,0,0-1.1611-.1655,1.3051,1.3051,0,0,1-.0316-.16.5858.5858,0,0,0-.8511-.4308.6091.6091,0,0,0-.32.5254.2172.2172,0,0,1-.0158.0683.6043.6043,0,0,0-1.1691.1681.5571.5571,0,0,0-.68-.0473.6228.6228,0,0,0-.2627.7356.57.57,0,0,0-.7618,0,.6279.6279,0,0,0-.1261.7882.5675.5675,0,0,0-.6516.239.63.63,0,0,0,.0789.8459.6253.6253,0,0,0-.3337,1.1087.6041.6041,0,0,0-.4492.5937.5962.5962,0,0,0,.4177.6042.6253.6253,0,0,0-.1839.5885l.0893.2916" fill="none" stroke="#231f20" stroke-miterlimit="10" stroke-width="0.25"/><path d="M169.8072,113.12a1.18,1.18,0,0,1-1.1638,0l-.289-.1708c-.6489-.4046-1.437-.9326-1.437-1.2006V108.99a1.59,1.59,0,0,1,.6909-1.3136,6.3121,6.3121,0,0,1,.9326-.5438,1.8391,1.8391,0,0,1,1.4633,0,5.9985,5.9985,0,0,1,.9247.5412,1.5892,1.5892,0,0,1,.6857,1.3135v2.7611C171.6172,112.061,170.5139,112.7231,169.8072,113.12Z" fill="none" stroke="#231f20" stroke-miterlimit="10" stroke-width="0.25"/><path d="M170.4955,111.223c0,.3888-.578.9195-1.2558.9195a1.1664,1.1664,0,0,1-1.1979-.9195" fill="none" stroke="#000" stroke-miterlimit="10" stroke-width="0.25"/><path d="M169.9438,110.6214a.6749.6749,0,0,1-1.3162,0" fill="none" stroke="#000" stroke-miterlimit="10" stroke-width="0.25"/><path d="M171.6278,108.9637v.0552h-4.71v.8354a1.2769,1.2769,0,0,0,1.2321.5727,1.4029,1.4029,0,0,0,1.127-.7881,1.3135,1.3135,0,0,0,2.3486.1313v-.8065Zm-.5675.2995a.1154.1154,0,0,1,.0788.1681.1605.1605,0,0,1-.0315.0421l-.5648.5621a.26.26,0,0,1-.0762.0473.1234.1234,0,0,1-.134-.0656.1078.1078,0,0,1,0-.1156.1339.1339,0,0,1,.0263-.0289l.5832-.5649A.126.126,0,0,1,171.06,109.2632Zm-1.1717.394c.0473-.0525.0972-.1024.15-.1523s.1366-.1419.2075-.2076a.1156.1156,0,0,1,.197.0552.1076.1076,0,0,1-.0315.1077l-.3415.3547a.262.262,0,0,1-.0631.0341.1284.1284,0,0,1-.1234-.0657A.1076.1076,0,0,1,169.8886,109.6572Zm-1.416-.3494a.1183.1183,0,0,1,.1892.1419.1209.1209,0,0,1-.0237.0237l-.5806.5779a.1129.1129,0,0,1-.1313.0315.1363.1363,0,0,1-.0788-.1129.3065.3065,0,0,1,.0446-.0815Zm-1.0692.3652a.45.45,0,0,1,.05-.0525l.3021-.3127a.1209.1209,0,0,1,.1707-.0079l.008.0079a.1156.1156,0,0,1,.013.163l-.013.0131-.3337.3336a.2647.2647,0,0,1-.0735.0447.1161.1161,0,0,1-.1209-.0657.1079.1079,0,0,1-.0026-.1314Z"/><rect x="160.2183" y="100.2444" width="19.2802" height="19.2933" rx="3.3653" fill="none" stroke="#231f20" stroke-miterlimit="10" stroke-width="0.25"/><path d="M164.3586,113.2091h-.2942a.6882.6882,0,0,0,.1812.47.6178.6178,0,0,0,.4545.2h0a.6516.6516,0,0,0,.6411-.6618l0-.0029h-.2942a.36.36,0,0,1-.3442.3731h0a.3312.3312,0,0,1-.239-.1077.3919.3919,0,0,1-.1025-.2627Z"/><path d="M164.6581,114.8668a.9643.9643,0,0,1-.5622-.1734.468.468,0,0,1-.2076-.3652h-.2942a.7488.7488,0,0,0,.3258.599,1.2215,1.2215,0,0,0,.7356.2338h0a.9541.9541,0,0,0,1.0508-.8249h-.2732C165.4305,114.6251,165.0784,114.8641,164.6581,114.8668Z"/><path d="M164.109,112.442c.0237.1445-.0157.1812-.0157.1812h.31a.4214.4214,0,0,0,0-.2417.3905.3905,0,0,0-.0368-.11h0a.691.691,0,0,0-.7435-.3363.7729.7729,0,0,0-.4571.2312.7014.7014,0,0,0-.11.1708h0a.4815.4815,0,0,0-.0394.1524.1277.1277,0,0,0,0,.0315.7166.7166,0,0,0,0,.1208h.3073a.1163.1163,0,0,1,0-.0236v-.0368a.2631.2631,0,0,1,.0762-.21.4861.4861,0,0,1,.2837-.1392A.373.373,0,0,1,164.109,112.442Z"/><path d="M166.1293,112.4393c.0236.1419-.0158.1787-.0158.1787h.31a.418.418,0,0,0,0-.2417.5928.5928,0,0,0-.0342-.11h0a.68.68,0,0,0-.7329-.3388.7692.7692,0,0,0-.4545.2285.5749.5749,0,0,0-.11.1708h0a.4816.4816,0,0,0-.0394.1523v.0289a.6781.6781,0,0,0,0,.1209h.3073a.1173.1173,0,0,1,0-.0237v-.0394a.2469.2469,0,0,1,.0762-.2075.47.47,0,0,1,.2811-.1392C165.9112,112.1793,166.1135,112.2817,166.1293,112.4393Z"/><path d="M166.4471,110.1406a1.6181,1.6181,0,0,0-.82-.5569,5.1806,5.1806,0,0,0-1.3871-.2181c-1.5264.0368-2.4064.9773-2.677,2.903,0,.1051-.0237.2128-.0263.32l-.197,5.5484.2942-.2627.197-5.2857a2.7351,2.7351,0,0,1,.0237-.2916,3.3791,3.3791,0,0,1,.9589-2.1674,2.1254,2.1254,0,0,0-.5649,1.4607v2.0228a7.2971,7.2971,0,0,0,1.177,2.3145,1.8753,1.8753,0,0,0,1.0508.2627h.2811a1.8018,1.8018,0,0,0,1.0509-.2627,7.2569,7.2569,0,0,0,1.18-2.3145v-2.0228A2.1018,2.1018,0,0,0,166.4471,110.1406Zm-3.9012,1.4581a1.7181,1.7181,0,0,1,1.6524-1.7654h.6332c-.331.3284-.7724.7539-1.1244,1.0508a13.848,13.848,0,0,0-1.1586,1.127Zm4.1666,1.9545a6.9328,6.9328,0,0,1-1.0771,2.1542,1.7541,1.7541,0,0,1-1.0062.1971,1.5294,1.5294,0,0,1-1.0036-.1971,7.02,7.02,0,0,1-1.0771-2.1542v-1.1217a15.6628,15.6628,0,0,1,1.35-1.3372c.4334-.3678,1.0035-.9248,1.34-1.261a1.6023,1.6023,0,0,1,.993.51,1.81,1.81,0,0,1,.4834,1.2558Z"/><path d="M174.3678,110.251l-.0946-.155c-.2364.2995-.6856.9352-.8564,1.1769.15-.197.4072-.4413.6147-.4413h1.5027a.7038.7038,0,0,1,.578.331l.7461,1.1953a.9181.9181,0,0,0,.3336-1.1612,3.4144,3.4144,0,0,0-.6278-1.1874,7.5629,7.5629,0,0,1,1.127.7881.2285.2285,0,0,0,.1523.0552.2414.2414,0,0,0,.1839-.0841.2285.2285,0,0,0-.0241-.3223l-.0074-.0061c-.9878-.8117-1.44-.9562-1.6367-.9562h-.05a.7654.7654,0,0,0-.2338.0761c-.0473-.0341-.0972-.0656-.15-.0972a1.3442,1.3442,0,0,1,.3126-.2627,1.0858,1.0858,0,0,1,.5543-.1366,2.71,2.71,0,0,1,1.0955.2943.2141.2141,0,0,0,.113.0289.239.239,0,0,0,.21-.1209.2338.2338,0,0,0-.0916-.3177l0,0a3.1288,3.1288,0,0,0-1.3267-.352,1.5571,1.5571,0,0,0-.7881.2,1.8363,1.8363,0,0,0-.5254.4492c-.071-.0263-.1419-.0473-.2181-.0683a1.2426,1.2426,0,0,1,.8827-.7881,1.3282,1.3282,0,0,1,.3494-.0421,2.7953,2.7953,0,0,1,.57.0631h.0552a.2338.2338,0,0,0,.0525-.4624,3.3169,3.3169,0,0,0-.6752-.0735,1.76,1.76,0,0,0-.486.06,1.7254,1.7254,0,0,0-1.014.7224v-.7513a.2391.2391,0,0,0-.4781,0v.7592a.0305.0305,0,0,0-.0263-.0289c-.0053,0,0,.2627-.0473.2627a.0573.0573,0,0,1-.0315-.0157,1.2763,1.2763,0,0,0-.2023-.16.839.839,0,0,0,.1051.15c.0867.1078.3678.6437.2968.67l-.1313.2416.16.1Z" fill="none"/><path d="M173.4037,111.2755a.9526.9526,0,0,0-.0683.1Z"/><path d="M174.2969,107.8262a.42.42,0,0,1,.4729-.4177.5017.5017,0,0,1,.5017.4965v.1077a2.18,2.18,0,0,1,.68-.3258,2.0727,2.0727,0,0,1,.557-.0683,3.6284,3.6284,0,0,1,.73.0788.4917.4917,0,0,1,.3153.2233.4836.4836,0,0,1,.063.3757.5591.5591,0,0,1-.06.1471,3.755,3.755,0,0,1,.6962.2627.499.499,0,0,1,.239.3022.4889.4889,0,0,1-.0446.3783.507.507,0,0,1-.6778.1917,2.4261,2.4261,0,0,0-.9353-.2627,6.1428,6.1428,0,0,1,1.3346.8959.4939.4939,0,0,1,.0735.6946l-.0078.0094a.4964.4964,0,0,1-.3836.176.4885.4885,0,0,1-.3179-.1129c-.0577-.0473-.1155-.0946-.176-.1393.0368.0946.0683.1866.0946.2627a1.1907,1.1907,0,0,1-.465,1.4738l-.16.0867" fill="none" stroke="#000" stroke-miterlimit="10" stroke-width="0.25"/><line x1="162.9636" y1="115.0664" x2="162.9636" y2="116.8056" fill="none" stroke="#231f20" stroke-linecap="round" stroke-miterlimit="10" stroke-width="0.25"/><line x1="162.3962" y1="112.0374" x2="162.3962" y2="116.225" fill="none" stroke="#231f20" stroke-linecap="round" stroke-miterlimit="10" stroke-width="0.25"/><path d="M177.5571,108.4435a2.8318,2.8318,0,0,0-1.7943.1" fill="none" stroke="#000" stroke-linecap="round" stroke-miterlimit="10" stroke-width="0.25"/><g opacity="0.3"><path d="M25.0132,110.7749l-2.7251,2.7256,2.7251,2.7246a.322.322,0,0,1,0,.4619l-.8521.8516a.3222.3222,0,0,1-.462,0l-3.8075-3.8076a.3146.3146,0,0,1-.0978-.23.3184.3184,0,0,1,.0978-.2315l3.8075-3.8076a.3222.3222,0,0,1,.462,0l.8521.8516a.3187.3187,0,0,1,.0976.2314A.3148.3148,0,0,1,25.0132,110.7749Z"/><g clip-path="url(#b)"><rect x="-57.9961" y="-5.8872" width="279" height="227"/><g clip-path="url(#c)"><rect x="14.7938" y="104.3638" width="15.317" height="18.2724"/></g></g></g><g opacity="0.3"><path d="M261.4564,113.7308l-3.8077,3.8075a.322.322,0,0,1-.4619,0l-.8515-.8515a.3219.3219,0,0,1,0-.462L259.06,113.5l-2.7246-2.7256a.3122.3122,0,0,1-.0977-.23.3161.3161,0,0,1,.0977-.2314l.8515-.8516a.3223.3223,0,0,1,.4619,0l3.8077,3.8076a.3168.3168,0,0,1,.0976.2315A.3127.3127,0,0,1,261.4564,113.7308Z"/><g clip-path="url(#d)"><rect x="56.7757" y="-5.8875" width="279" height="227"/><g clip-path="url(#e)"><rect x="251.2376" y="104.3641" width="15.3164" height="18.2719"/></g></g></g></svg>