<?xml version="1.0" encoding="utf-8"?><svg height="227" viewBox="0 0 279 227" width="279" xmlns="http://www.w3.org/2000/svg" xmlns:xlink="http://www.w3.org/1999/xlink"><clipPath id="a"><path d="m60.8531 4.1574h71v51h-71z"/></clipPath><clipPath id="b"><path clip-rule="evenodd" d="m75.748 40.251 14.046 7.153 20.261-26.247 21.798 33.828-71 .172z"/></clipPath><clipPath id="c"><path d="m-.1469.1574h279v227h-279z"/></clipPath><clipPath id="d"><path clip-rule="evenodd" d="m89.3531 27.1574a1.8171 1.8171 0 0 1 -.8967-.2368l-3.7077-2.1152a1.7694 1.7694 0 0 1 -.8956-1.5327v-4.23a1.771 1.771 0 0 1 .8956-1.5338l3.7077-2.1152a1.8141 1.8141 0 0 1 1.7923 0l3.7087 2.1152a1.7709 1.7709 0 0 1 .8957 1.5338v4.23a1.7693 1.7693 0 0 1 -.8957 1.5327l-3.7087 2.1152a1.8136 1.8136 0 0 1 -.8956.2368"/></clipPath><clipPath id="e"><path clip-rule="evenodd" d="m89.6223 16.0145a1.29 1.29 0 0 1 .6165.1569l3.6131 1.9847a1.1685 1.1685 0 0 1 .6165 1.0162v3.9683a1.1678 1.1678 0 0 1 -.6165 1.0172l-3.6131 1.9846a1.2846 1.2846 0 0 1 -1.2341 0l-3.612-1.9846a1.1659 1.1659 0 0 1 -.6166-1.0172v-3.9683a1.1666 1.1666 0 0 1 .6166-1.0162l3.612-1.9847a1.2974 1.2974 0 0 1 .6176-.1569m.2308-.8571a2.4817 2.4817 0 0 0 -1.1546.2819l-3.6919 1.9467a2.08 2.08 0 0 0 -1.1535 1.824v3.8923a2.08 2.08 0 0 0 1.1535 1.8253l3.6919 1.9466a2.4953 2.4953 0 0 0 2.3081 0l3.6934-1.9463a2.08 2.08 0 0 0 1.1536-1.8253v-3.8926a2.08 2.08 0 0 0 -1.1536-1.824l-3.6929-1.9467a2.4779 2.4779 0 0 0 -1.1535-.2819"/></clipPath><clipPath id="f"><path d="m91.8531 106.1574h92v65h-92z"/></clipPath><clipPath id="g"><path clip-rule="evenodd" d="m111.154 152.743 18.2 8.836 26.253-32.422 28.246 41.787-92 .213z"/></clipPath><clipPath id="h"><path clip-rule="evenodd" d="m129.8531 136.1574a2.233 2.233 0 0 1 -1.1412-.3157l-4.7189-2.82a2.3805 2.3805 0 0 1 -1.14-2.0436v-5.6394a2.3829 2.3829 0 0 1 1.14-2.045l4.7189-2.82a2.2181 2.2181 0 0 1 2.2811 0l4.72 2.82a2.3829 2.3829 0 0 1 1.14 2.045v5.6394a2.3805 2.3805 0 0 1 -1.14 2.0436l-4.72 2.82a2.2284 2.2284 0 0 1 -1.14.3157"/></clipPath><clipPath id="i"><path clip-rule="evenodd" d="m129.5454 121.3a1.72 1.72 0 0 1 .822.2091l4.8175 2.6462a1.5581 1.5581 0 0 1 .822 1.3549v5.2912a1.557 1.557 0 0 1 -.822 1.3562l-4.8175 2.6462a1.7136 1.7136 0 0 1 -1.6454 0l-4.8161-2.6462a1.5543 1.5543 0 0 1 -.822-1.3562v-5.2912a1.5553 1.5553 0 0 1 .822-1.3549l4.8161-2.6462a1.73 1.73 0 0 1 .8234-.2091m.3077-1.1429a3.308 3.308 0 0 0 -1.5394.3759l-4.9226 2.5955a2.7735 2.7735 0 0 0 -1.538 2.4324v5.19a2.7738 2.7738 0 0 0 1.538 2.4337l4.9226 2.5955a3.327 3.327 0 0 0 3.0774 0l4.924-2.5955a2.7738 2.7738 0 0 0 1.538-2.4337v-5.19a2.7735 2.7735 0 0 0 -1.538-2.4324l-4.924-2.5955a3.3024 3.3024 0 0 0 -1.538-.3759"/></clipPath><g clip-path="url(#a)"><path d="m55.8531-.8426h81v61h-81z" fill="#819fb3"/></g><g clip-path="url(#b)"><g clip-path="url(#c)"><path d="m55.8531 16.1574h81v44h-81z" fill="#eef8ff" opacity=".73"/></g></g><g clip-path="url(#d)"><g clip-path="url(#c)"><path d="m78.8531 10.1574h21v22h-21z" fill="#fefefe"/></g></g><g clip-path="url(#e)"><g clip-path="url(#c)"><path d="m78.8531 10.1574h22v22h-22z" fill="#c8282c"/></g></g><g clip-path="url(#f)"><path d="m86.8531 101.1574h102v75h-102z" fill="#819fb3"/></g><g clip-path="url(#g)"><g clip-path="url(#c)"><path d="m86.8531 124.1574h102v52h-102z" fill="#eef8ff" opacity=".73"/></g></g><g clip-path="url(#h)"><g clip-path="url(#c)"><path d="m117.8531 115.1574h24v26h-24z" fill="#fefefe"/></g></g><g clip-path="url(#i)"><g clip-path="url(#c)"><path d="m116.8531 115.1574h26v26h-26z" fill="#c8282c"/></g></g><g clip-path="url(#c)"><g fill="none" stroke="#121212" stroke-linecap="square" stroke-miterlimit="10"><path d="m153.8531 11.6574h65.8254"/><path d="m153.8531 59.6574h65.8254"/><path d="m153.8531 30.6574h65.8254"/><path d="m153.8531 78.6574h65.8254"/><path d="m153.8531 5.6574h65.8254"/><path d="m153.8531 53.6574h65.8254"/><path d="m153.8531 23.6574h65.8254"/><path d="m153.8531 17.6574h65.725"/><path d="m153.8531 65.6574h65.725"/><path d="m153.8531 36.6574h65.725"/><path d="m153.8531 84.6574h65.725"/><path d="m152.8531 42.4448 44.7.25"/><path d="m152.8531 90.4448 44.7.25"/><path d="m104.061 201.5765h77.4379"/><path d="m104.061 208.8019h77.4379"/><path d="m104.061 216.0273h77.4379"/><path d="m97.7579 199.7701v18.0636" stroke-width="3.4485"/></g><path d="m88.8672 200.9248a2.6435 2.6435 0 0 1 .522-1.73 2.5157 2.5157 0 0 1 1.521-.831v.7587a1.511 1.511 0 0 0 -1 .8028 1.2992 1.2992 0 0 0 -.1093.62h1.1455v1.9189h-2.08zm3.4585 0a2.3516 2.3516 0 0 1 2.0434-2.5605v.7587a1.4746 1.4746 0 0 0 -.9926.8165 1.1544 1.1544 0 0 0 -.1167.6064h1.1455v1.9189h-2.08z" fill="#121212"/><path d="m92.8531 177.6574h89.7619" fill="none" stroke="#121212" stroke-linecap="square" stroke-miterlimit="10"/><path d="m92.8531 183.4074h89.625" fill="none" stroke="#121212" stroke-linecap="square" stroke-miterlimit="10"/><path d="m92.8531 188.4448 61.5866.25" fill="none" stroke="#121212" stroke-linecap="square" stroke-miterlimit="10"/></g></svg>
