<?xml version="1.0" encoding="utf-8"?><svg height="227" viewBox="0 0 279 227" width="279" xmlns="http://www.w3.org/2000/svg" xmlns:xlink="http://www.w3.org/1999/xlink"><clipPath id="a"><path d="m-.5165-.0475h279v207h-279z"/></clipPath><clipPath id="b"><rect height="8.0465" rx="4" width="45.98" x="88.4835" y="135.9525"/></clipPath><clipPath id="c"><path d="m76.4835 123.9525h70v32h-70z"/></clipPath><clipPath id="d"><path d="m87.4835 135.9525h47v9h-47z"/></clipPath><clipPath id="e"><rect height="8.0465" rx="4" width="45.98" x="23.4835" y="135.9525"/></clipPath><clipPath id="f"><path d="m11.4835 123.9525h70v32h-70z"/></clipPath><clipPath id="g"><path d="m22.4835 135.9525h47v9h-47z"/></clipPath><clipPath id="h"><path d="m178.9835 30.9525h76v110h-76z"/></clipPath><clipPath id="i"><circle cx="217.4835" cy="95.9525" r="16"/></clipPath><clipPath id="j"><path clip-rule="evenodd" d="m242.4779 127.0954h.0056v12.8571h-52v-12.8571h.0053q-.0053-.178-.0053-.3572a11.7206 11.7206 0 0 1 3.49-8.3338 11.984 11.984 0 0 1 8.4264-3.4519h28.1667a11.8517 11.8517 0 0 1 11.9166 11.7856q.0003.1794-.0053.3573z"/></clipPath><g clip-path="url(#a)"><g fill="#121212"><path d="m46.6753 50.313h6.2881v.6953h-2.7359v7.9443h-.8159v-7.9443h-2.7363z"/><path d="m54.0913 58.9526v-8.64h.72v3.2881a4.5291 4.5291 0 0 1 .8941-.7442 2.0521 2.0521 0 0 1 1.11-.2881 2.8175 2.8175 0 0 1 1.0679.1983 1.8192 1.8192 0 0 1 .8281.6894 1.55 1.55 0 0 1 .27.6905 6.2661 6.2661 0 0 1 .042.7373v4.0683h-.72v-4.0552a1.8557 1.8557 0 0 0 -.3721-1.2608 1.5826 1.5826 0 0 0 -1.2363-.42 1.7479 1.7479 0 0 0 -.6118.1025 1.9267 1.9267 0 0 0 -.4981.27 1.826 1.826 0 0 0 -.3779.3838 1.79 1.79 0 0 0 -.24.456 2.293 2.293 0 0 0 -.1324.5762c-.0161.1846-.0239.3838-.0239.6006v3.3476z"/><path d="m61.2793 56.0122a3.3717 3.3717 0 0 0 .1318.9541 2.2873 2.2873 0 0 0 .39.78 1.8906 1.8906 0 0 0 .6538.5283 2.0154 2.0154 0 0 0 .9121.1973 1.9826 1.9826 0 0 0 1.2119-.3711 1.7928 1.7928 0 0 0 .6719-1.0567h.8042a3.8716 3.8716 0 0 1 -.3482.8223 2.54 2.54 0 0 1 -.54.66 2.3367 2.3367 0 0 1 -.7676.4375 3.1028 3.1028 0 0 1 -1.0322.1562 3.0168 3.0168 0 0 1 -1.2842-.2519 2.4111 2.4111 0 0 1 -.8877-.6905 2.9022 2.9022 0 0 1 -.5161-1.0312 4.6718 4.6718 0 0 1 -.168-1.2783 4.0777 4.0777 0 0 1 .1978-1.2842 3.2861 3.2861 0 0 1 .5639-1.05 2.6224 2.6224 0 0 1 .8941-.708 2.7 2.7 0 0 1 1.2-.2579 2.4793 2.4793 0 0 1 2.0161.8819 3.8771 3.8771 0 0 1 .72 2.5615zm4.0557-.6a2.86 2.86 0 0 0 -.126-.8584 2.014 2.014 0 0 0 -.3716-.6953 1.7578 1.7578 0 0 0 -.6182-.4678 1.9869 1.9869 0 0 0 -.852-.1748 1.8945 1.8945 0 0 0 -.8462.1807 1.9573 1.9573 0 0 0 -.624.48 2.4126 2.4126 0 0 0 -.4136.6963 3.1912 3.1912 0 0 0 -.2041.84z"/><path d="m71.06 58.9526v-8.64h1.248l2.832 7.62h.024l2.7842-7.62h1.2358v8.64h-.8159v-7.7041h-.0239l-2.8321 7.7041h-.768l-2.8443-7.7041h-.0239v7.7041z"/><path d="m81.1274 51.38v-1.067h.792v1.067zm.0362 7.5722v-6.2154h.72v6.2158z"/><path d="m84.2114 57.0083a1.8278 1.8278 0 0 0 .606 1.1348 2.0553 2.0553 0 0 0 1.2539.3291 2.16 2.16 0 0 0 .6841-.0957 1.3578 1.3578 0 0 0 .4736-.2578 1.1091 1.1091 0 0 0 .2822-.3663.9987.9987 0 0 0 .0962-.4316.7945.7945 0 0 0 -.2939-.6777 2.2151 2.2151 0 0 0 -.7383-.3487 9.4028 9.4028 0 0 0 -.96-.2158 4.7213 4.7213 0 0 1 -.96-.27 1.9169 1.9169 0 0 1 -.7378-.5166 1.3924 1.3924 0 0 1 -.2945-.9483 1.6185 1.6185 0 0 1 .57-1.2773 2.3755 2.3755 0 0 1 1.6137-.4981 2.7506 2.7506 0 0 1 1.6382.45 2.0568 2.0568 0 0 1 .7617 1.5059h-.7319a1.3471 1.3471 0 0 0 -.5459-1.0146 2.0371 2.0371 0 0 0 -1.1338-.294 1.6181 1.6181 0 0 0 -1.0439.294.9506.9506 0 0 0 -.36.7744.7544.7544 0 0 0 .294.6416 2.3828 2.3828 0 0 0 .7382.36q.4439.1377.96.2461a4.7552 4.7552 0 0 1 .96.3057 2.1012 2.1012 0 0 1 .7378.5342 1.3754 1.3754 0 0 1 .2944.9365 1.5748 1.5748 0 0 1 -.1924.7851 1.6639 1.6639 0 0 1 -.5278.57 2.4342 2.4342 0 0 1 -.7979.3417 4.2235 4.2235 0 0 1 -1.0141.1143 2.7294 2.7294 0 0 1 -.9781-.1621 2.11 2.11 0 0 1 -.726-.45 2.0628 2.0628 0 0 1 -.4678-.6719 2.3576 2.3576 0 0 1 -.1924-.8281z"/><path d="m90.2832 57.0083a1.8278 1.8278 0 0 0 .606 1.1348 2.0553 2.0553 0 0 0 1.2539.3291 2.1586 2.1586 0 0 0 .684-.0957 1.3583 1.3583 0 0 0 .4737-.2578 1.11 1.11 0 0 0 .2822-.3663.9987.9987 0 0 0 .0962-.4316.7945.7945 0 0 0 -.2939-.6777 2.2151 2.2151 0 0 0 -.7383-.3487 9.4028 9.4028 0 0 0 -.96-.2158 4.72 4.72 0 0 1 -.96-.27 1.9169 1.9169 0 0 1 -.7378-.5166 1.3924 1.3924 0 0 1 -.2945-.9483 1.6187 1.6187 0 0 1 .57-1.2773 2.376 2.376 0 0 1 1.6138-.4981 2.7506 2.7506 0 0 1 1.6382.45 2.0568 2.0568 0 0 1 .7617 1.5059h-.7319a1.3471 1.3471 0 0 0 -.5455-1.0142 2.0373 2.0373 0 0 0 -1.1338-.294 1.6184 1.6184 0 0 0 -1.044.294.9508.9508 0 0 0 -.36.7744.7543.7543 0 0 0 .2939.6416 2.3834 2.3834 0 0 0 .7383.36q.4439.1377.96.2461a4.7563 4.7563 0 0 1 .96.3057 2.1012 2.1012 0 0 1 .7378.5342 1.3749 1.3749 0 0 1 .2945.9365 1.5748 1.5748 0 0 1 -.1924.7851 1.6639 1.6639 0 0 1 -.5278.57 2.4351 2.4351 0 0 1 -.7979.3417 4.2237 4.2237 0 0 1 -1.0142.1143 2.7292 2.7292 0 0 1 -.978-.1621 2.1091 2.1091 0 0 1 -.7261-.45 2.0625 2.0625 0 0 1 -.4677-.6719 2.3576 2.3576 0 0 1 -.1924-.8281z"/><path d="m96.0073 51.38v-1.067h.792v1.067zm.0362 7.5722v-6.2154h.72v6.2158z"/><path d="m101.1431 59.1206a3.2392 3.2392 0 0 1 -1.1221-.2158 2.5108 2.5108 0 0 1 -.9121-.6123 2.9389 2.9389 0 0 1 -.6177-1.02 4.0766 4.0766 0 0 1 -.228-1.4287 4.3724 4.3724 0 0 1 .18-1.2773 3.01 3.01 0 0 1 .54-1.0381 2.5616 2.5616 0 0 1 .9-.7021 2.893 2.893 0 0 1 1.26-.2579 2.9238 2.9238 0 0 1 1.2719.2579 2.5913 2.5913 0 0 1 .9.6962 2.8688 2.8688 0 0 1 .5342 1.0381 4.5925 4.5925 0 0 1 .1738 1.2832 4.1708 4.1708 0 0 1 -.2036 1.3448 3.0224 3.0224 0 0 1 -.582 1.0312 2.5515 2.5515 0 0 1 -.9121.666 2.9089 2.9089 0 0 1 -1.1823.2348zm2.1123-3.2764a4.2645 4.2645 0 0 0 -.12-1.0312 2.439 2.439 0 0 0 -.3721-.834 1.7947 1.7947 0 0 0 -.648-.5586 2.1086 2.1086 0 0 0 -.9721-.2041 1.9634 1.9634 0 0 0 -.9659.2227 1.8835 1.8835 0 0 0 -.6543.5879 2.5744 2.5744 0 0 0 -.3715.84 3.9638 3.9638 0 0 0 -.12.9775 3.8858 3.8858 0 0 0 .1377 1.0625 2.491 2.491 0 0 0 .4024.834 1.8012 1.8012 0 0 0 .66.54 2.067 2.067 0 0 0 .9121.1914 1.9656 1.9656 0 0 0 .9658-.2217 1.8622 1.8622 0 0 0 .6543-.5938 2.67 2.67 0 0 0 .3721-.84 3.93 3.93 0 0 0 .1195-.9726z"/><path d="m106.1348 58.9526h-.72v-6.2158h.72v.8643a4.5286 4.5286 0 0 1 .894-.7442 2.0522 2.0522 0 0 1 1.11-.2881 2.8174 2.8174 0 0 1 1.0678.1983 1.8194 1.8194 0 0 1 .8282.6894 1.5508 1.5508 0 0 1 .27.6905 6.2877 6.2877 0 0 1 .042.7373v4.0683h-.72v-4.0556a1.8562 1.8562 0 0 0 -.3721-1.2608 1.5829 1.5829 0 0 0 -1.2363-.42 1.7481 1.7481 0 0 0 -.6119.1025 1.926 1.926 0 0 0 -.498.27 1.8236 1.8236 0 0 0 -.3779.3838 1.7931 1.7931 0 0 0 -.24.456 2.2926 2.2926 0 0 0 -.1323.5762c-.0161.1846-.0239.3838-.0239.6006z"/></g><path d="m44.4463 172.4941a1.3682 1.3682 0 0 0 .4546.8506 1.5381 1.5381 0 0 0 .94.2471 1.6327 1.6327 0 0 0 .5132-.0713 1.0308 1.0308 0 0 0 .3555-.1943.8224.8224 0 0 0 .2114-.2744.7523.7523 0 0 0 .0718-.3233.5966.5966 0 0 0 -.22-.5088 1.6467 1.6467 0 0 0 -.5537-.2607 6.9488 6.9488 0 0 0 -.72-.1621 3.4664 3.4664 0 0 1 -.72-.2031 1.437 1.437 0 0 1 -.5532-.3868 1.043 1.043 0 0 1 -.2207-.7109 1.2141 1.2141 0 0 1 .4277-.958 1.7819 1.7819 0 0 1 1.21-.374 2.0622 2.0622 0 0 1 1.2285.3379 1.5425 1.5425 0 0 1 .5713 1.1289h-.5489a1.0087 1.0087 0 0 0 -.41-.76 1.521 1.521 0 0 0 -.8506-.2207 1.2074 1.2074 0 0 0 -.7827.2207.7105.7105 0 0 0 -.27.58.5668.5668 0 0 0 .22.4814 1.7951 1.7951 0 0 0 .5537.27q.3324.1026.72.1836a3.6162 3.6162 0 0 1 .72.23 1.5928 1.5928 0 0 1 .5537.4014 1.0286 1.0286 0 0 1 .22.7012 1.1808 1.1808 0 0 1 -.144.59 1.2537 1.2537 0 0 1 -.396.4277 1.83 1.83 0 0 1 -.5986.2559 3.1408 3.1408 0 0 1 -.76.0859 2.0521 2.0521 0 0 1 -.7334-.1211 1.5942 1.5942 0 0 1 -.5444-.3379 1.5406 1.5406 0 0 1 -.3511-.5039 1.7722 1.7722 0 0 1 -.144-.6211z" fill="#819fb3"/><path d="m50.8276 171.2344c.1021-.0117.2237-.03.3643-.0547a1.36 1.36 0 0 0 .3467-.0986.2869.2869 0 0 0 .1665-.211 1.3355 1.3355 0 0 0 .0317-.2754.92.92 0 0 0 -.2656-.6787 1.2359 1.2359 0 0 0 -.8955-.2656 2.5427 2.5427 0 0 0 -.5132.0488 1.1174 1.1174 0 0 0 -.4092.1719.93.93 0 0 0 -.2881.3232 1.3752 1.3752 0 0 0 -.1484.5088h-.5493a1.6629 1.6629 0 0 1 .1889-.706 1.434 1.434 0 0 1 .4185-.4776 1.7313 1.7313 0 0 1 .5942-.2695 2.8755 2.8755 0 0 1 .7154-.0859 2.7748 2.7748 0 0 1 .6616.0761 1.5573 1.5573 0 0 1 .54.2432 1.1332 1.1332 0 0 1 .36.4453 1.6126 1.6126 0 0 1 .13.6846v2.5381c0 .21.0376.3437.1128.4s.2265.0439.4546-.0411v.4239c-.042.0117-.1036.0293-.1846.0537a.8609.8609 0 0 1 -.2388.0361 1.045 1.045 0 0 1 -.2427-.0273.4146.4146 0 0 1 -.2163-.085.5437.5437 0 0 1 -.13-.1621.6608.6608 0 0 1 -.0674-.207 1.4889 1.4889 0 0 1 -.0181-.2393 2.3457 2.3457 0 0 1 -.7832.5762 2.3038 2.3038 0 0 1 -.9536.1982 2.149 2.149 0 0 1 -.59-.081 1.4181 1.4181 0 0 1 -.4995-.252 1.2445 1.2445 0 0 1 -.3418-.4189 1.2825 1.2825 0 0 1 -.1259-.5889q0-1.188 1.6289-1.4043zm.9092.2695a2.6376 2.6376 0 0 1 -.6933.19c-.2339.03-.4678.0537-.7017.0722a1.981 1.981 0 0 0 -.9678.2783.8005.8005 0 0 0 -.3462.711.7726.7726 0 0 0 .0855.374.7925.7925 0 0 0 .2246.2607.952.952 0 0 0 .3242.1534 1.4272 1.4272 0 0 0 .3735.0488 2.4217 2.4217 0 0 0 .63-.0811 1.6859 1.6859 0 0 0 .5445-.247 1.2692 1.2692 0 0 0 .3828-.4229 1.2255 1.2255 0 0 0 .144-.6074z" fill="#819fb3"/><path d="m53.8242 173.9521v-6.48h.54v6.48z" fill="#819fb3"/><path d="m56.1284 171.7471a2.5211 2.5211 0 0 0 .0991.7158 1.7257 1.7257 0 0 0 .2925.585 1.4119 1.4119 0 0 0 .49.3955 1.6352 1.6352 0 0 0 1.5932-.13 1.3457 1.3457 0 0 0 .5039-.792h.603a2.8973 2.8973 0 0 1 -.2612.6162 1.9 1.9 0 0 1 -.4048.4951 1.7589 1.7589 0 0 1 -.5761.3281 2.3265 2.3265 0 0 1 -.774.1172 2.2463 2.2463 0 0 1 -.9629-.1894 1.8163 1.8163 0 0 1 -.666-.5166 2.1976 2.1976 0 0 1 -.3872-.7744 3.5084 3.5084 0 0 1 -.126-.959 3.0553 3.0553 0 0 1 .149-.9629 2.438 2.438 0 0 1 .4228-.7871 1.97 1.97 0 0 1 .67-.5313 2.0257 2.0257 0 0 1 .9-.1933 1.8607 1.8607 0 0 1 1.5122.6611 2.91 2.91 0 0 1 .54 1.9219zm3.042-.45a2.1433 2.1433 0 0 0 -.0942-.6436 1.5047 1.5047 0 0 0 -.2793-.5215 1.3357 1.3357 0 0 0 -.4634-.3515 1.4932 1.4932 0 0 0 -.6392-.13 1.42 1.42 0 0 0 -.6342.1348 1.45 1.45 0 0 0 -.4683.36 1.8042 1.8042 0 0 0 -.3106.5215 2.4364 2.4364 0 0 0 -.1528.63z" fill="#819fb3"/><path d="m61.168 172.4941a1.3682 1.3682 0 0 0 .4546.8506 1.5381 1.5381 0 0 0 .94.2471 1.6332 1.6332 0 0 0 .5132-.0713 1.0294 1.0294 0 0 0 .3554-.1943.8215.8215 0 0 0 .2115-.2744.7522.7522 0 0 0 .0717-.3233.5966.5966 0 0 0 -.22-.5088 1.6467 1.6467 0 0 0 -.5537-.2607 6.9547 6.9547 0 0 0 -.72-.1621 3.4647 3.4647 0 0 1 -.72-.2031 1.437 1.437 0 0 1 -.5532-.3868 1.043 1.043 0 0 1 -.2207-.7109 1.2141 1.2141 0 0 1 .4277-.958 1.7817 1.7817 0 0 1 1.21-.374 2.0625 2.0625 0 0 1 1.2286.3379 1.5421 1.5421 0 0 1 .5712 1.1289h-.5488a1.0088 1.0088 0 0 0 -.41-.76 1.5209 1.5209 0 0 0 -.85-.2207 1.2078 1.2078 0 0 0 -.7828.2207.7107.7107 0 0 0 -.27.58.567.567 0 0 0 .22.4814 1.7974 1.7974 0 0 0 .5537.27q.3325.1026.72.1836a3.6162 3.6162 0 0 1 .72.23 1.5937 1.5937 0 0 1 .5537.4014 1.0286 1.0286 0 0 1 .22.7012 1.1808 1.1808 0 0 1 -.144.59 1.2547 1.2547 0 0 1 -.396.4277 1.83 1.83 0 0 1 -.5987.2559 3.1394 3.1394 0 0 1 -.76.0859 2.0521 2.0521 0 0 1 -.7334-.1211 1.5942 1.5942 0 0 1 -.5444-.3379 1.5406 1.5406 0 0 1 -.3511-.5039 1.7745 1.7745 0 0 1 -.1441-.6211z" fill="#819fb3"/><path d="m29.2358 172.2764h-.8808v1.6757h-1.4986v-1.6757h-3.083v-1.3379l2.8628-4.7266h1.7188v4.8672h.8808zm-2.3794-1.1973v-3.3555l-1.9438 3.3555z" fill="#121212"/><path d="m31.4609 171.5615a1.7483 1.7483 0 0 0 .15.7735 1.027 1.027 0 0 0 1.0127.5644 1.12 1.12 0 0 0 .7852-.3086 1.1492 1.1492 0 0 0 .335-.8887 1.0019 1.0019 0 0 0 -.6211-1.0263 3.1432 3.1432 0 0 0 -1.1138-.1455v-1.0957a2.8682 2.8682 0 0 0 1.0386-.1446.8966.8966 0 0 0 .5083-.913 1.0239 1.0239 0 0 0 -.26-.7256.9519.9519 0 0 0 -.7314-.2793.9262.9262 0 0 0 -.7955.3437 1.4647 1.4647 0 0 0 -.2436.919h-1.4286a3.8418 3.8418 0 0 1 .1982-1.1006 2.4842 2.4842 0 0 1 .59-.8438 2.0508 2.0508 0 0 1 .7138-.4189 3.0833 3.0833 0 0 1 1.0142-.1455 2.6978 2.6978 0 0 1 1.8.5781 1.9235 1.9235 0 0 1 .6841 1.5488 1.7121 1.7121 0 0 1 -.4082 1.16 1.39 1.39 0 0 1 -.5371.4033 1.1036 1.1036 0 0 1 .6015.36 1.9211 1.9211 0 0 1 .5855 1.4824 2.5 2.5 0 0 1 -.6841 1.7373 2.6086 2.6086 0 0 1 -2.0259.749 2.4481 2.4481 0 0 1 -2.2964-1.08 3.205 3.205 0 0 1 -.3755-1.5039z" fill="#121212"/><path d="m37.666 171.8682a1.477 1.477 0 0 0 .3482.77.9866.9866 0 0 0 .75.2715 1.0122 1.0122 0 0 0 .8653-.4 1.6423 1.6423 0 0 0 .2973-1.0069 1.7481 1.7481 0 0 0 -.2788-1.0068.9739.9739 0 0 0 -.8681-.4111 1.48 1.48 0 0 0 -.482.07.961.961 0 0 0 -.5415.4775l-1.372-.0644.5464-4.3018h4.2851v1.2988h-3.1803l-.2788 1.7032a3.2411 3.2411 0 0 1 .5528-.3067 2.3452 2.3452 0 0 1 .81-.123 2.3505 2.3505 0 0 1 2.4029 2.541 2.9683 2.9683 0 0 1 -.6924 1.9277 2.5165 2.5165 0 0 1 -2.0708.8486 2.7454 2.7454 0 0 1 -1.8247-.5966 2.315 2.315 0 0 1 -.794-1.6914z" fill="#121212"/><path d="m111.7314 169.29h.54v4.212a4.1426 4.1426 0 0 1 -.0947.8955 1.9274 1.9274 0 0 1 -.3374.7519 1.7 1.7 0 0 1 -.6661.5176 3.1045 3.1045 0 0 1 -1.9707.0625 1.91 1.91 0 0 1 -.603-.3281 1.4054 1.4054 0 0 1 -.3555-.4366 1.0935 1.0935 0 0 1 -.1308-.4453h.5762a1.0607 1.0607 0 0 0 .1977.4268.9972.9972 0 0 0 .32.2617 1.3572 1.3572 0 0 0 .4092.13 2.9145 2.9145 0 0 0 .4683.0361 1.7823 1.7823 0 0 0 .8818-.1885 1.2866 1.2866 0 0 0 .5039-.4951 1.902 1.902 0 0 0 .2207-.6933 5.3549 5.3549 0 0 0 .04-.792 1.67 1.67 0 0 1 -.7153.6523 2.1439 2.1439 0 0 1 -.95.2207 1.9853 1.9853 0 0 1 -.9224-.2021 1.9052 1.9052 0 0 1 -.6479-.54 2.3144 2.3144 0 0 1 -.3828-.788 3.4506 3.4506 0 0 1 -.126-.9356 3.81 3.81 0 0 1 .1172-.9629 2.1047 2.1047 0 0 1 .3735-.7783 1.7838 1.7838 0 0 1 .6524-.5176 2.2223 2.2223 0 0 1 .9629-.1894 1.76 1.76 0 0 1 .4589.0634 2.158 2.158 0 0 1 .4546.18 1.7624 1.7624 0 0 1 .4053.2969 1.5906 1.5906 0 0 1 .3013.4053h.018zm0 2.3487a2.878 2.878 0 0 0 -.1035-.7871 1.9046 1.9046 0 0 0 -.3017-.63 1.4307 1.4307 0 0 0 -.4947-.419 1.46 1.46 0 0 0 -.6753-.1523 1.6011 1.6011 0 0 0 -.63.1211 1.4517 1.4517 0 0 0 -.5039.3555 1.6614 1.6614 0 0 0 -.3374.5712 2.2981 2.2981 0 0 0 -.1216.7793 3.03 3.03 0 0 0 .0718.8233 1.962 1.962 0 0 0 .288.67 1.4357 1.4357 0 0 0 .5039.4551 1.5016 1.5016 0 0 0 .729.166 1.3684 1.3684 0 0 0 .6617-.1572 1.5271 1.5271 0 0 0 .4951-.4229 1.9484 1.9484 0 0 0 .3105-.6211 2.58 2.58 0 0 0 .1081-.7519z" fill="#809fb4"/><path d="m114.251 173.9521h-.54v-4.6621h.54v.8731h.018a1.5616 1.5616 0 0 1 .5806-.7783 1.7612 1.7612 0 0 1 .94-.2207v.5849a1.5706 1.5706 0 0 0 -.7558.1446 1.2323 1.2323 0 0 0 -.4727.414 1.64 1.64 0 0 0 -.2427.6162 3.9408 3.9408 0 0 0 -.0678.7422z" fill="#809fb4"/><path d="m118.436 174.0781a2.4073 2.4073 0 0 1 -.8413-.1621 1.8751 1.8751 0 0 1 -.6841-.459 2.1968 2.1968 0 0 1 -.4633-.7646 3.0584 3.0584 0 0 1 -.1714-1.0713 3.2936 3.2936 0 0 1 .1352-.958 2.2674 2.2674 0 0 1 .4048-.7793 1.9271 1.9271 0 0 1 .6753-.5264 2.1707 2.1707 0 0 1 .9448-.1933 2.1946 2.1946 0 0 1 .9541.1933 1.9428 1.9428 0 0 1 .6748.5225 2.1567 2.1567 0 0 1 .4009.7783 3.4642 3.4642 0 0 1 .13.9629 3.1164 3.1164 0 0 1 -.1533 1.0078 2.2554 2.2554 0 0 1 -.4366.7744 1.9144 1.9144 0 0 1 -.6835.499 2.1828 2.1828 0 0 1 -.8864.1758zm1.584-2.457a3.2171 3.2171 0 0 0 -.09-.7744 1.8367 1.8367 0 0 0 -.2793-.625 1.3463 1.3463 0 0 0 -.4859-.419 1.5839 1.5839 0 0 0 -.729-.1523 1.4858 1.4858 0 0 0 -.7246.166 1.4143 1.4143 0 0 0 -.49.4414 1.9345 1.9345 0 0 0 -.2793.63 2.9732 2.9732 0 0 0 -.09.7334 2.9153 2.9153 0 0 0 .1035.7969 1.8535 1.8535 0 0 0 .3017.625 1.3532 1.3532 0 0 0 .4947.4052 1.5548 1.5548 0 0 0 .684.1436 1.4742 1.4742 0 0 0 .7246-.166 1.41 1.41 0 0 0 .49-.4453 2.0122 2.0122 0 0 0 .2793-.63 2.954 2.954 0 0 0 .0903-.7295z" fill="#809fb4"/><path d="m125.582 173.2324 1.2242-3.9424h.5488l-1.5117 4.6621h-.5762l-1.0171-3.915h-.0176l-1.0351 3.915h-.648l-1.4223-4.6621h.54l1.206 3.9786 1.08-3.9786h.6031z" fill="#809fb4"/><path d="m129.83 173.97c-.0664.0127-.1533.0332-.2613.0635a1.3309 1.3309 0 0 1 -.36.0449.86.86 0 0 1 -.6167-.2021.9876.9876 0 0 1 -.2114-.7246v-3.4117h-.6568v-.45h.6568v-1.2959h.54v1.2959h.873v.45h-.873v3.1953c0 .1133.0029.2129.0093.2969a.494.494 0 0 0 .0537.2071.2556.2556 0 0 0 .14.1162.7634.7634 0 0 0 .2657.0361 1.4307 1.4307 0 0 0 .22-.0176c.0752-.0117.1484-.0273.2207-.0449z" fill="#809fb4"/><path d="m130.748 173.9521v-6.48h.54v2.4668a3.4273 3.4273 0 0 1 .67-.5586 1.5466 1.5466 0 0 1 .8325-.2158 2.135 2.135 0 0 1 .8013.1484 1.3711 1.3711 0 0 1 .6206.5176 1.1594 1.1594 0 0 1 .2026.5176 4.6915 4.6915 0 0 1 .0318.5537v3.0507h-.54v-3.0425a1.39 1.39 0 0 0 -.2793-.9454 1.1841 1.1841 0 0 0 -.9267-.3144 1.319 1.319 0 0 0 -.459.0762 1.4279 1.4279 0 0 0 -.3735.2021 1.3887 1.3887 0 0 0 -.2837.2881 1.3232 1.3232 0 0 0 -.18.3428 1.69 1.69 0 0 0 -.0991.4316c-.0123.1377-.0181.2881-.0181.45v2.5107z" fill="#809fb4"/><path d="m78.2461 168.5811v-1.042a6.7554 6.7554 0 0 0 1.0127-.0967 1.43 1.43 0 0 0 .75-.4082 1.3518 1.3518 0 0 0 .3-.5586 1.2751 1.2751 0 0 0 .0591-.3115h1.2781v7.788h-1.5684v-5.371z" fill="#121212"/><path d="m88.7832 167.1572a7.6829 7.6829 0 0 1 0 5.9463 2.6108 2.6108 0 0 1 -4.1738 0 7.6817 7.6817 0 0 1 0-5.9463 2.6036 2.6036 0 0 1 4.1738 0zm-2.9893 5.03a.8869.8869 0 0 0 .9024.7119.8749.8749 0 0 0 .8945-.7119 7.6149 7.6149 0 0 0 .2119-2.0537 7.53 7.53 0 0 0 -.2119-2.084.8679.8679 0 0 0 -.8945-.6777.88.88 0 0 0 -.9024.6777 7.25 7.25 0 0 0 -.22 2.084 7.3307 7.3307 0 0 0 .22 2.054z" fill="#121212"/><path d="m90.437 170.6064a1.8731 1.8731 0 0 1 .8672-.8007 1.82 1.82 0 0 1 -.7358-.8135 2.2744 2.2744 0 0 1 -.17-.8193 1.9091 1.9091 0 0 1 .6407-1.4473 3.0273 3.0273 0 0 1 3.6171 0 1.9091 1.9091 0 0 1 .6407 1.4473 2.2932 2.2932 0 0 1 -.169.8193 1.5663 1.5663 0 0 1 -.7334.76 2.16 2.16 0 0 1 .8687.8544 2.4251 2.4251 0 0 1 .2915 1.1866 2.2183 2.2183 0 0 1 -.7285 1.6728 2.8426 2.8426 0 0 1 -2.0352.69 2.6415 2.6415 0 0 1 -1.9785-.69 2.31 2.31 0 0 1 -.6719-1.6728 2.3917 2.3917 0 0 1 .2964-1.1868zm1.5913 1.9766a1.233 1.233 0 0 0 1.6494 0 1.2553 1.2553 0 0 0 .2979-.8926 1.2386 1.2386 0 0 0 -.3037-.9043 1.2407 1.2407 0 0 0 -1.6377 0 1.2382 1.2382 0 0 0 -.3037.9043 1.2557 1.2557 0 0 0 .2978.8926zm.0977-3.5449a.9648.9648 0 0 0 .7246.2676.9533.9533 0 0 0 .7241-.2676.9659.9659 0 0 0 .2559-.6934.9886.9886 0 0 0 -.2559-.7226.9678.9678 0 0 0 -.7241-.26.9032.9032 0 0 0 -.9859.9824.9533.9533 0 0 0 .2613.6936z" fill="#121212"/><path d="m99.7007 169.6123a2.0005 2.0005 0 1 1 .5825-1.4121 1.9223 1.9223 0 0 1 -.5825 1.4121zm-.8115-.8086a.8546.8546 0 1 0 -.604.25.819.819 0 0 0 .604-.25zm3.7627-2.64h.8129l-4.3374 7.9921h-.8315zm2.2666 7.3584a1.997 1.997 0 1 1 .5854-1.4121 1.9244 1.9244 0 0 1 -.5854 1.4125zm-.8086-2.0166a.8546.8546 0 1 0 .25.6045.82.82 0 0 0 -.2499-.6041z" fill="#121212"/></g><g clip-path="url(#b)"><g clip-path="url(#a)"><g clip-path="url(#c)"><g clip-path="url(#b)"><g clip-path="url(#d)"><rect fill="#121212" height="8.0465" rx="4" width="45.98" x="88.4835" y="135.9525"/></g></g><g clip-path="url(#d)"><rect fill="none" height="8.0465" rx="4" stroke="#121212" stroke-miterlimit="10" stroke-width="2.299" width="45.98" x="88.4835" y="135.9525"/></g></g></g></g><g clip-path="url(#e)"><g clip-path="url(#a)"><g clip-path="url(#f)"><g clip-path="url(#e)"><g clip-path="url(#g)"><rect fill="#121212" height="8.0465" opacity="0" rx="4" width="45.98" x="23.4835" y="135.9525"/></g></g><g clip-path="url(#g)"><rect fill="none" height="8.0465" rx="4" stroke="#121212" stroke-miterlimit="10" stroke-width="2.299" width="45.98" x="23.4835" y="135.9525"/></g></g></g></g><g clip-path="url(#a)" fill="none" stroke="#121212" stroke-linecap="square" stroke-miterlimit="10"><path d="m29.4835 69.9525h98.857"/><path d="m29.4835 76.9525h98.857"/><path d="m51.324 82.9525h56.3255"/><path d="m49.2396 35.2025h60.4878" stroke-width="3"/><path d="m49.2396 103.2025h60.4878" stroke-width="3"/><path d="m94.6156 127.4525h33.7157"/><path d="m29.6157 127.4525h33.7156"/></g><g clip-path="url(#h)"><path d="m173.9835 25.9525h86v120h-86z" fill="#819fb3"/></g><g clip-path="url(#i)"><g clip-path="url(#a)"><path d="m196.4835 74.9525h42v42h-42z" fill="#d0e0ea"/></g></g><g clip-path="url(#j)"><g clip-path="url(#a)"><path d="m185.4835 109.9525h62v35h-62z" fill="#d0e0ea"/></g></g><g clip-path="url(#a)"><path d="m150.8027 175.2256h-.52v-1.0694a3.6572 3.6572 0 0 1 -1.5791-.4619 2.3162 2.3162 0 0 1 -.9023-2.1054h1.45a2.6468 2.6468 0 0 0 .209.9082 1.1078 1.1078 0 0 0 .8222.4668v-2.293l-.4355-.1289a2.7928 2.7928 0 0 1 -1.4473-.8379 2.0339 2.0339 0 0 1 -.4219-1.2949 2.417 2.417 0 0 1 .1641-.9082 2.0936 2.0936 0 0 1 .459-.7031 2.0623 2.0623 0 0 1 .8486-.5264 3.9035 3.9035 0 0 1 .833-.1338v-.7148h.52v.7246a2.685 2.685 0 0 1 1.3692.43 2.1132 2.1132 0 0 1 .9355 1.8643h-1.4131a1.9341 1.9341 0 0 0 -.1591-.6982.8254.8254 0 0 0 -.7325-.419v2.0454a6.7347 6.7347 0 0 1 1.7119.7793 1.9036 1.9036 0 0 1 .7217 1.59 2.1342 2.1342 0 0 1 -.9941 1.9658 3.1464 3.1464 0 0 1 -1.44.44zm-.52-7.8906a.9428.9428 0 0 0 -.6933.25.9117.9117 0 0 0 -.2256.6523.8585.8585 0 0 0 .3388.7148 1.9252 1.9252 0 0 0 .58.2676zm.52 5.6132a1.36 1.36 0 0 0 .6114-.1933.9968.9968 0 0 0 .3339-.8545.9118.9118 0 0 0 -.3134-.73 2.2634 2.2634 0 0 0 -.6319-.3222z" fill="#121212"/><path d="m154.43 168.5811v-1.042a6.74 6.74 0 0 0 1.0127-.0967 1.426 1.426 0 0 0 .75-.4082 1.3461 1.3461 0 0 0 .3-.5586 1.2575 1.2575 0 0 0 .06-.3115h1.2773v7.788h-1.5684v-5.371z" fill="#121212"/><path d="m165.6035 172.2764h-.8808v1.6757h-1.4991v-1.6757h-3.083v-1.3379l2.8633-4.7266h1.7188v4.8672h.8808zm-2.38-1.1973v-3.3555l-1.9433 3.3555z" fill="#121212"/><g fill="#7e9eb6"><path d="m169.6 173.9521h-.54v-4.6621h.54v.7022h.0176a1.4171 1.4171 0 0 1 .5947-.6162 1.7286 1.7286 0 0 1 .8457-.2119 1.8208 1.8208 0 0 1 .5488.0722 1.2368 1.2368 0 0 1 .3829.1934 1.1363 1.1363 0 0 1 .2607.2832 1.9117 1.9117 0 0 1 .1758.3516 1.57 1.57 0 0 1 .625-.68 1.79 1.79 0 0 1 .8955-.2207 1.5719 1.5719 0 0 1 .7607.1572 1.1378 1.1378 0 0 1 .4366.4141 1.5929 1.5929 0 0 1 .2021.59 4.6168 4.6168 0 0 1 .05.6836v2.9433h-.54v-3.2216a1.3145 1.3145 0 0 0 -.211-.792.9224.9224 0 0 0 -.7881-.2881 1.3011 1.3011 0 0 0 -1.0527.53 1.0267 1.0267 0 0 0 -.1484.2754 2.3206 2.3206 0 0 0 -.0948.3281 2.78 2.78 0 0 0 -.05.3418c-.0087.1142-.0127.22-.0127.3154v2.5107h-.54v-3.2216a1.3151 1.3151 0 0 0 -.2119-.792.919.919 0 0 0 -.7871-.2881 1.321 1.321 0 0 0 -.5723.13 1.3413 1.3413 0 0 0 -.4814.4 1.0556 1.0556 0 0 0 -.1485.2754 2.1933 2.1933 0 0 0 -.0937.3281 2.6008 2.6008 0 0 0 -.05.3418c-.0088.1142-.0137.22-.0137.3154z"/><path d="m176.7363 168.2734v-.8017h.5938v.8017zm.0274 5.6787v-4.6621h.54v4.6621z"/><path d="m178.8154 173.9521v-6.48h.54v6.48z"/><path d="m180.8672 173.9521v-6.48h.54v6.48z"/><path d="m182.8926 168.2734v-.8017h.5937v.8017zm.0263 5.6787v-4.6621h.54v4.6621z"/><path d="m186.7441 174.0781a2.41 2.41 0 0 1 -.8418-.1621 1.872 1.872 0 0 1 -.6835-.459 2.2039 2.2039 0 0 1 -.4639-.7646 3.0588 3.0588 0 0 1 -.1709-1.0713 3.29 3.29 0 0 1 .1348-.958 2.2664 2.2664 0 0 1 .4052-.7793 1.9252 1.9252 0 0 1 .6748-.5264 2.173 2.173 0 0 1 .9453-.1933 2.1977 2.1977 0 0 1 .9541.1933 1.9474 1.9474 0 0 1 .6748.5225 2.1558 2.1558 0 0 1 .4.7783 3.4419 3.4419 0 0 1 .1309.9629 3.13 3.13 0 0 1 -.1533 1.0078 2.265 2.265 0 0 1 -.4365.7744 1.92 1.92 0 0 1 -.6836.499 2.1845 2.1845 0 0 1 -.8864.1758zm1.584-2.457a3.2121 3.2121 0 0 0 -.09-.7744 1.8464 1.8464 0 0 0 -.2793-.625 1.3484 1.3484 0 0 0 -.4863-.419 1.581 1.581 0 0 0 -.7286-.1523 1.4858 1.4858 0 0 0 -.7246.166 1.4143 1.4143 0 0 0 -.49.4414 1.924 1.924 0 0 0 -.2793.63 2.9543 2.9543 0 0 0 -.09.7334 2.8961 2.8961 0 0 0 .1035.7969 1.835 1.835 0 0 0 .3017.625 1.3556 1.3556 0 0 0 .4942.4052 1.557 1.557 0 0 0 .6845.1436 1.4749 1.4749 0 0 0 .7247-.166 1.4153 1.4153 0 0 0 .49-.4453 2.0236 2.0236 0 0 0 .2793-.63 2.9492 2.9492 0 0 0 .0902-.7295z"/><path d="m190.4883 173.9521h-.54v-4.6621h.54v.6485a3.44 3.44 0 0 1 .67-.5586 1.5481 1.5481 0 0 1 .833-.2158 2.1324 2.1324 0 0 1 .8008.1484 1.37 1.37 0 0 1 .6211.5176 1.1526 1.1526 0 0 1 .2021.5176 4.5848 4.5848 0 0 1 .0323.5537v3.0507h-.54v-3.0421a1.3921 1.3921 0 0 0 -.2793-.9454 1.1855 1.1855 0 0 0 -.9267-.3144 1.319 1.319 0 0 0 -.459.0762 1.431 1.431 0 0 0 -.374.2021 1.3861 1.3861 0 0 0 -.2832.2881 1.308 1.308 0 0 0 -.18.3428 1.6707 1.6707 0 0 0 -.1.4316c-.0118.1377-.0176.2881-.0176.45z"/></g><path d="m237.6641 169.74v-.45h.6923v-.7382a1.5217 1.5217 0 0 1 .2256-.8819.8638.8638 0 0 1 .7647-.3242c.084 0 .1621.0039.2344.01s.1435.0146.2158.0263v.4952a1.39 1.39 0 0 0 -.3242-.045.5923.5923 0 0 0 -.3243.0762.4547.4547 0 0 0 -.1709.2031.9044.9044 0 0 0 -.0673.2832c-.0088.1055-.0137.2119-.0137.3194v.5761h.9v.45h-.9v4.2119h-.54v-4.2121z" fill="#7d9eb7"/><path d="m242.83 171.2344c.1015-.0117.2236-.03.3642-.0547a1.3641 1.3641 0 0 0 .3467-.0986.2849.2849 0 0 0 .166-.211 1.305 1.305 0 0 0 .0323-.2754.92.92 0 0 0 -.2657-.6787 1.2365 1.2365 0 0 0 -.8955-.2656 2.5432 2.5432 0 0 0 -.5136.0488 1.1247 1.1247 0 0 0 -.4092.1719.9355.9355 0 0 0 -.2881.3232 1.3847 1.3847 0 0 0 -.1484.5088h-.5487a1.6643 1.6643 0 0 1 .1885-.706 1.44 1.44 0 0 1 .4189-.4776 1.7293 1.7293 0 0 1 .5938-.2695 2.8822 2.8822 0 0 1 .7158-.0859 2.7736 2.7736 0 0 1 .6611.0761 1.5536 1.5536 0 0 1 .54.2432 1.1307 1.1307 0 0 1 .36.4453 1.6114 1.6114 0 0 1 .13.6846v2.5381c0 .21.0381.3437.1133.4s.2266.0439.4541-.0411v.4239c-.042.0117-.1035.0293-.1846.0537a.8562.8562 0 0 1 -.2382.0361 1.0518 1.0518 0 0 1 -.2432-.0273.4125.4125 0 0 1 -.2158-.085.5535.5535 0 0 1 -.1309-.1621.6608.6608 0 0 1 -.0674-.207 1.55 1.55 0 0 1 -.0176-.2393 2.35 2.35 0 0 1 -.7832.5762 2.3062 2.3062 0 0 1 -.9541.1982 2.1509 2.1509 0 0 1 -.59-.081 1.414 1.414 0 0 1 -.499-.252 1.2374 1.2374 0 0 1 -.3418-.4189 1.2813 1.2813 0 0 1 -.126-.5889q0-1.188 1.6289-1.4043zm.9092.2695a2.6383 2.6383 0 0 1 -.6934.19c-.2344.03-.4678.0537-.7021.0722a1.9823 1.9823 0 0 0 -.9678.2783.8011.8011 0 0 0 -.3457.711.7782.7782 0 0 0 .0849.374.7949.7949 0 0 0 .2246.2607.956.956 0 0 0 .3243.1534 1.43 1.43 0 0 0 .374.0488 2.4222 2.4222 0 0 0 .63-.0811 1.6779 1.6779 0 0 0 .5439-.247 1.2629 1.2629 0 0 0 .3828-.4229 1.2257 1.2257 0 0 0 .1446-.6074z" fill="#7d9eb7"/><path d="m246.2852 173.9521h-.54v-4.6621h.54v.6485a3.4151 3.4151 0 0 1 .6709-.5586 1.5443 1.5443 0 0 1 .832-.2158 2.1367 2.1367 0 0 1 .8017.1484 1.3722 1.3722 0 0 1 .62.5176 1.1663 1.1663 0 0 1 .2031.5176 4.8038 4.8038 0 0 1 .0312.5537v3.0507h-.54v-3.0421a1.3875 1.3875 0 0 0 -.2793-.9454 1.1828 1.1828 0 0 0 -.9268-.3144 1.3188 1.3188 0 0 0 -.4589.0762 1.427 1.427 0 0 0 -.3731.2021 1.3964 1.3964 0 0 0 -.2842.2881 1.3418 1.3418 0 0 0 -.18.3428 1.7092 1.7092 0 0 0 -.0986.4316c-.0127.1377-.0185.2881-.0185.45z" fill="#7d9eb7"/><path d="m251.1182 172.4941a1.3661 1.3661 0 0 0 .455.8506 1.5387 1.5387 0 0 0 .94.2471 1.6277 1.6277 0 0 0 .5127-.0713 1.02 1.02 0 0 0 .3554-.1943.8231.8231 0 0 0 .212-.2744.7517.7517 0 0 0 .0712-.3233.5976.5976 0 0 0 -.22-.5088 1.656 1.656 0 0 0 -.5537-.2607 6.9547 6.9547 0 0 0 -.72-.1621 3.4694 3.4694 0 0 1 -.7207-.2031 1.4363 1.4363 0 0 1 -.5528-.3868 1.0435 1.0435 0 0 1 -.2207-.7109 1.2141 1.2141 0 0 1 .4278-.958 1.78 1.78 0 0 1 1.21-.374 2.061 2.061 0 0 1 1.2285.3379 1.5384 1.5384 0 0 1 .5713 1.1289h-.5488a1.0084 1.0084 0 0 0 -.4092-.76 1.5233 1.5233 0 0 0 -.8506-.2207 1.2091 1.2091 0 0 0 -.7832.2207.7117.7117 0 0 0 -.27.58.5676.5676 0 0 0 .22.4814 1.8086 1.8086 0 0 0 .5537.27q.3325.1026.72.1836a3.621 3.621 0 0 1 .7207.23 1.5937 1.5937 0 0 1 .5537.4014 1.031 1.031 0 0 1 .22.7012 1.1858 1.1858 0 0 1 -.1435.59 1.2562 1.2562 0 0 1 -.3965.4277 1.825 1.825 0 0 1 -.5987.2559 3.1352 3.1352 0 0 1 -.76.0859 2.05 2.05 0 0 1 -.7334-.1211 1.5955 1.5955 0 0 1 -.5449-.3379 1.5392 1.5392 0 0 1 -.3506-.5039 1.7749 1.7749 0 0 1 -.1446-.6211z" fill="#7d9eb7"/><path d="m212.2363 172.2764h-.8808v1.6757h-1.4991v-1.6757h-3.083v-1.3379l2.8633-4.7266h1.7188v4.8672h.8808zm-2.38-1.1973v-3.3555l-1.9433 3.3555z" fill="#121212"/><path d="m213.3008 175.2256a1.2022 1.2022 0 0 0 .68-.43 1.5947 1.5947 0 0 0 .25-.8438h-.93v-1.6054h1.6543v1.39a3.2248 3.2248 0 0 1 -.0967.7637 1.5588 1.5588 0 0 1 -.3594.6875 1.8548 1.8548 0 0 1 -.6689.47 1.7321 1.7321 0 0 1 -.5293.1582z" fill="#121212"/><path d="m216.4932 172.4209a4.32 4.32 0 0 1 1.5468-1.6484 11.2766 11.2766 0 0 0 1.3692-1.085 1.6013 1.6013 0 0 0 .4785-1.1172 1.2362 1.2362 0 0 0 -.2744-.8213 1.1155 1.1155 0 0 0 -1.7344.1934 2.5709 2.5709 0 0 0 -.1719.9551h-1.4882a3.7653 3.7653 0 0 1 .36-1.6055 2.2448 2.2448 0 0 1 2.1777-1.166 2.761 2.761 0 0 1 1.9678.6855 2.3664 2.3664 0 0 1 .7315 1.8125 2.4554 2.4554 0 0 1 -.5166 1.5362 5.1709 5.1709 0 0 1 -1.1143.9931l-.6133.4356q-.5757.4086-.7881.5908a1.72 1.72 0 0 0 -.3574.4248h3.4v1.3476h-5.334a3.6715 3.6715 0 0 1 .3611-1.5312z" fill="#121212"/><path d="m223.7676 171.5615a1.7556 1.7556 0 0 0 .1494.7735 1.0272 1.0272 0 0 0 1.0127.5644 1.1175 1.1175 0 0 0 .7851-.3086 1.1471 1.1471 0 0 0 .335-.8887 1.0017 1.0017 0 0 0 -.6211-1.0263 3.1374 3.1374 0 0 0 -1.1133-.1455v-1.0957a2.865 2.865 0 0 0 1.0381-.1446.8968.8968 0 0 0 .5088-.913 1.0257 1.0257 0 0 0 -.26-.7256.9527.9527 0 0 0 -.7314-.2793.9275.9275 0 0 0 -.7959.3437 1.464 1.464 0 0 0 -.2432.919h-1.4287a3.8113 3.8113 0 0 1 .1983-1.1006 2.4823 2.4823 0 0 1 .59-.8438 2.0567 2.0567 0 0 1 .7139-.4189 3.0842 3.0842 0 0 1 1.0146-.1455 2.6984 2.6984 0 0 1 1.8.5781 1.9228 1.9228 0 0 1 .6836 1.5488 1.7091 1.7091 0 0 1 -.4082 1.16 1.3867 1.3867 0 0 1 -.5371.4033 1.1021 1.1021 0 0 1 .6016.36 1.92 1.92 0 0 1 .5859 1.4824 2.5 2.5 0 0 1 -.6846 1.7373 2.6072 2.6072 0 0 1 -2.0254.749 2.4494 2.4494 0 0 1 -2.2968-1.08 3.2052 3.2052 0 0 1 -.375-1.5039z" fill="#121212"/><path d="m229.9727 171.8682a1.48 1.48 0 0 0 .3476.77.9881.9881 0 0 0 .751.2715 1.0126 1.0126 0 0 0 .8652-.4 1.6415 1.6415 0 0 0 .2969-1.0069 1.7525 1.7525 0 0 0 -.2783-1.0068.9746.9746 0 0 0 -.8682-.4111 1.482 1.482 0 0 0 -.4824.07.9581.9581 0 0 0 -.541.4775l-1.3721-.0644.5459-4.3018h4.2852v1.2988h-3.1807l-.2783 1.7032a3.2221 3.2221 0 0 1 .5527-.3067 2.3428 2.3428 0 0 1 .81-.123 2.35 2.35 0 0 1 2.4033 2.541 2.97 2.97 0 0 1 -.6924 1.9277 2.518 2.518 0 0 1 -2.0713.8486 2.7442 2.7442 0 0 1 -1.8242-.5966 2.3149 2.3149 0 0 1 -.7939-1.6914z" fill="#121212"/></g></svg>
