<?xml version="1.0" encoding="utf-8"?><svg height="227" viewBox="0 0 279 227" width="279" xmlns="http://www.w3.org/2000/svg" xmlns:xlink="http://www.w3.org/1999/xlink"><clipPath id="a"><path d="m-9.5049-6.3117h298.0099v240.9983h-298.0099z"/></clipPath><clipPath id="b"><path d="m30 72.3748h219v84h-219z"/></clipPath><clipPath id="c"><path d="m30.1056 72.4839h218.7888v83.7818h-218.7888z"/></clipPath><clipPath id="d"><path d="m0 10.3748h279v207h-279z"/></clipPath><clipPath id="e"><path d="m123.8358 72.4839h125.0222v83.7818h-125.0222z"/></clipPath><clipPath id="f"><path d="m157.2736 97.4128h57.3259v5.7049h-57.3259z"/></clipPath><clipPath id="g"><path clip-rule="evenodd" d="m76.2554 116.5412c.0719-.0849.1259-.1486.1824-.2122q.9479-1.1464 1.8958-2.298c.7449-.9076 1.495-1.8124 2.2246-2.7332.7527-.9474 1.4951-1.9053 2.2143-2.8818.66-.8969 1.2922-1.82 1.9241-2.7412.6628-.9659 1.2613-1.9716 1.8264-3.0012a25.8215 25.8215 0 0 0 1.86-4.1661 15.0018 15.0018 0 0 0 .7295-3.3461 14.122 14.122 0 0 0 -.0256-2.9641 11.8678 11.8678 0 0 0 -.9094-3.4284 10.6946 10.6946 0 0 0 -1.6235-2.6244 11.9063 11.9063 0 0 0 -3.4859-2.8128 14.6493 14.6493 0 0 0 -3.6375-1.3029 12.0913 12.0913 0 0 0 -2.2426-.2972 14.8866 14.8866 0 0 0 -4.5161.406 13.5512 13.5512 0 0 0 -3.5938 1.417 12.1784 12.1784 0 0 0 -2.2837 1.7036 11.4024 11.4024 0 0 0 -1.9652 2.5318 11.57 11.57 0 0 0 -1.4874 5.45 14.7286 14.7286 0 0 0 .5266 4.389 21.84 21.84 0 0 0 1.7263 4.28c.4675.8943.9607 1.7726 1.49 2.63.6063.9712 1.2433 1.9212 1.9009 2.8553s1.3461 1.8468 2.0423 2.7517c.73.942 1.4822 1.8708 2.2323 2.7995.5472.6741 1.1123 1.34 1.67 2.0115.1978.2388.393.4829.5908.7217.239.2841.4801.5653.7344.8625zm9.5869 24.6359c.0514-.4246.0334-12.8327-.0154-13.0185-.3622-.053-18.9606-.0318-19.14.0186-.0488.3636-.0308 12.8035.0232 13zm3.1828-13.0317c-.0514.3237-.0411 12.83.0077 13.0264h18.84c-.5471-4.3519-1.0943-8.6852-1.6389-13.0264zm-42.7327.0026q-.8169 6.504-1.6389 13.0211h18.86v-13.0211zm39.5859-19.1217h17.9511c-.2158-1.7116-.4316-3.3992-.6423-5.09-.2132-1.7036-.4161-3.4045-.637-5.1054-.2184-1.6877-.4136-3.3781-.6448-5.0578h-10.2009c-.0077.1274-.018.2389-.0205.35a14.5379 14.5379 0 0 1 -.1824 2.1414 21.3518 21.3518 0 0 1 -1.6775 5.5168 33.9226 33.9226 0 0 1 -2.2914 4.2378c-.4778.7642-.9864 1.5125-1.5 2.25a.95.95 0 0 0 -.1543.7572zm-25.0591-15.2183c-.19-.0663-9.9877-.069-10.2112 0q-.9439 7.515-1.8881 15.0432a1.06 1.06 0 0 0 0 .1273.04.04 0 0 0 .01.0239.1951.1951 0 0 0 .0257.0292.6986.6986 0 0 0 .09.0106h17.7044a.3374.3374 0 0 0 .0745-.0132c.0051-.0027.0128-.0107.0205-.016.0052-.0053.01-.0132.0232-.0265a.952.952 0 0 0 -.0951-.5917c-.614-.91-1.2253-1.8284-1.8136-2.7545a30.0145 30.0145 0 0 1 -1.6081-2.8924 24.1907 24.1907 0 0 1 -1.6414-4.2324 17.9515 17.9515 0 0 1 -.6448-3.7655c-.0177-.3131-.0306-.6289-.046-.942zm28.2085 18.5273c-.054.276-.0463 12.2888.0077 12.4931.0642.0026.131.0106.1978.0106l16.5382-.0159a.046.046 0 0 0 .0206-.0133c.0051-.0079.0077-.0159.0179-.0318q-.7821-6.2055-1.5644-12.4427zm-40.747 0c-.5241 4.1768-1.0507 8.3217-1.567 12.48h16.7874c.0565-.3741.0385-12.302-.0154-12.48zm18.4006 12.4984h18.9324c.0668 0 .1361-.008.2029-.0133.0077-.0026.0129-.0106.0206-.0159a.15.15 0 0 0 .0154-.0212c.0488-.6687.0282-12.2437-.0283-12.4453a.32.32 0 0 0 -.0693-.0133c-.858-.0026-1.7135.0027-2.5715-.0054-.1335-.0026-.1952.0744-.2671.1646-.4881.6156-.971 1.2392-1.4643 1.8469q-1.1483 1.4091-2.3068 2.8022c-.6011.7244-1.21 1.4436-1.8136 2.1653-.149.1778-.2928.3662-.4392.544-.203.2441-.4111.4856-.6243.7377-.0745-.0822-.1335-.1406-.19-.207-.5754-.6979-1.1508-1.4011-1.7314-2.099-.55-.6633-1.1071-1.3268-1.662-1.9875-.17-.207-.3468-.4087-.5138-.6156q-1.287-1.5961-2.5637-3.1949a.3649.3649 0 0 0 -.3237-.1567c-.7989.0054-1.5952.0028-2.3941.0028-.0642 0-.131.0106-.2081.0185z"/></clipPath><clipPath id="h"><path clip-rule="evenodd" d="m76.2543 116.54c-.2543-.2972-.4932-.5758-.7321-.8624-.1978-.2388-.393-.4829-.5934-.7191-.5548-.6713-1.12-1.3374-1.67-2.0141-.75-.9287-1.5028-1.8548-2.23-2.7995-.6987-.9049-1.3846-1.815-2.0422-2.7517-.66-.9341-1.2973-1.8841-1.9009-2.8553-.5292-.8544-1.025-1.7328-1.49-2.627a21.7705 21.7705 0 0 1 -1.7257-4.2825 14.5548 14.5548 0 0 1 -.5267-4.389 11.3512 11.3512 0 0 1 3.45-7.982 12.2092 12.2092 0 0 1 2.2837-1.7009 13.5737 13.5737 0 0 1 3.5964-1.42 14.96 14.96 0 0 1 4.5134-.406 12.0912 12.0912 0 0 1 2.2427.2972 14.617 14.617 0 0 1 3.6374 1.3056 11.94 11.94 0 0 1 3.4885 2.81 10.6586 10.6586 0 0 1 1.6235 2.627 11.9214 11.9214 0 0 1 .9068 3.4285 14.2925 14.2925 0 0 1 .0283 2.964 15.1523 15.1523 0 0 1 -.73 3.3435 26.1885 26.1885 0 0 1 -1.8624 4.1688c-.5651 1.0269-1.1637 2.0326-1.8264 3.0012-.632.9181-1.2613 1.8416-1.9241 2.7411-.7167.9739-1.4591 1.9318-2.2118 2.8818-.73.9182-1.48 1.823-2.2246 2.7306q-.9479 1.1543-1.8984 2.298c-.0539.0663-.11.1273-.1824.2122m7.9249-21.8548c-.0334-.2919-.0642-.7828-.1413-1.2684a8.3754 8.3754 0 0 0 -2.2143-4.4846 7.7867 7.7867 0 0 0 -1.7365-1.3639 6.9752 6.9752 0 0 0 -2.7256-.9474 7.5307 7.5307 0 0 0 -5.4048 1.2631 8.16 8.16 0 0 0 -2.5021 2.7491 8.6842 8.6842 0 0 0 .8837 9.7466 7.4626 7.4626 0 0 0 2.4738 1.98 7.9685 7.9685 0 0 0 2.669.8041 6.965 6.965 0 0 0 2.6459-.21 8.0294 8.0294 0 0 0 2.8643-1.417 8.4292 8.4292 0 0 0 2.3608-2.98 9.0714 9.0714 0 0 0 .8271-3.8715"/></clipPath><clipPath id="i"><path clip-rule="evenodd" d="m85.8423 141.1776h-19.1323c-.054-.1963-.072-12.6363-.0232-13 .18-.05 18.7783-.0716 19.14-.0185.0488.1857.0668 12.5938.0154 13.0184"/></clipPath><clipPath id="j"><path clip-rule="evenodd" d="m89.0259 128.1454h17.2087c.5446 4.3412 1.0917 8.6745 1.6389 13.0264h-18.84c-.0514-.1964-.0617-12.7027-.0077-13.0264"/></clipPath><clipPath id="k"><path clip-rule="evenodd" d="m46.2911 128.148h17.2215v13.0211h-18.86q.8246-6.5277 1.6389-13.0211"/></clipPath><clipPath id="l"><path clip-rule="evenodd" d="m85.8775 109.0263a.9416.9416 0 0 1 .1567-.7563c.5138-.735 1.02-1.486 1.5-2.25a34.063 34.063 0 0 0 2.2888-4.2351 21.302 21.302 0 0 0 1.6775-5.52 14.54 14.54 0 0 0 .185-2.1414c.0025-.1114.0128-.2229.02-.35h10.1983c.2312 1.68.4264 3.37.6448 5.0578.2209 1.7009.4239 3.4018.6371 5.1054.2106 1.69.4264 3.378.6422 5.09z"/></clipPath><clipPath id="m"><path clip-rule="evenodd" d="m60.8187 93.807c.0154.3131.0308.6289.0488.942a17.5576 17.5576 0 0 0 .6448 3.7654 24.1773 24.1773 0 0 0 1.6389 4.2325 30.5747 30.5747 0 0 0 1.6081 2.8924c.5908.9287 1.2 1.8442 1.8136 2.7544a.9573.9573 0 0 1 .095.5944c-.0128.0133-.0154.0212-.02.0239a.1226.1226 0 0 1 -.0231.0159.3374.3374 0 0 1 -.0745.0133h-17.705a.617.617 0 0 1 -.0873-.0106c-.018-.016-.0232-.0213-.0283-.0266a.04.04 0 0 1 -.01-.0239 1.1053 1.1053 0 0 1 0-.13q.9441-7.5268 1.8881-15.0431c.2235-.0664 10.0211-.0637 10.2112 0"/></clipPath><clipPath id="n"><path clip-rule="evenodd" d="m89.0284 112.3353h15.2179q.7822 6.2332 1.5644 12.44c-.0128.0186-.0154.0266-.02.0345-.0052.0053-.0129.0133-.018.0133l-16.5383.0159c-.0667 0-.1361-.008-.1978-.0106-.0565-.2043-.0616-12.2171-.0077-12.4931"/></clipPath><clipPath id="o"><path clip-rule="evenodd" d="m48.2807 112.3353h15.205c.0539.1778.0719 12.1057.0154 12.48h-16.7874c.5163-4.1581 1.0429-8.303 1.567-12.48"/></clipPath><clipPath id="p"><path clip-rule="evenodd" d="m66.6813 124.8337v-12.4931c.0771-.0079.1439-.0185.2081-.0185.7989 0 1.5952.0026 2.3941-.0028a.3649.3649 0 0 1 .3237.1567q1.2754 1.6 2.5637 3.1949c.167.2069.3442.4086.5138.6156.5549.6607 1.1123 1.3242 1.662 1.9875.5806.6979 1.156 1.4011 1.7314 2.099.0566.0664.1156.1248.19.207.2132-.2521.4213-.4936.6243-.7377.1464-.1778.29-.3662.4392-.544.6037-.7217 1.2125-1.4409 1.8136-2.1653q1.156-1.3971 2.3068-2.8022c.4933-.6077.9762-1.2313 1.4643-1.8469.0719-.09.1336-.1672.2671-.1646.858.0081 1.7135.0028 2.5715.0054a.32.32 0 0 1 .0693.0133c.0565.2016.0771 11.7766.0283 12.4453a.15.15 0 0 1 -.0154.0212c-.0077.0053-.0129.0133-.0206.0159-.0668.0053-.1361.0133-.2029.0133z"/></clipPath><clipPath id="q"><path clip-rule="evenodd" d="m84.1782 94.6866a9.0408 9.0408 0 0 1 -.8272 3.8716 8.4 8.4 0 0 1 -2.3607 2.98 8.1194 8.1194 0 0 1 -2.8643 1.417 6.9576 6.9576 0 0 1 -2.6433.21 7.9562 7.9562 0 0 1 -2.6691-.8067 7.4286 7.4286 0 0 1 -2.4737-1.9769 8.6833 8.6833 0 0 1 -.8863-9.7492 8.1326 8.1326 0 0 1 2.5046-2.7465 7.5232 7.5232 0 0 1 5.4023-1.2659 7.0068 7.0068 0 0 1 2.7281.95 7.6993 7.6993 0 0 1 1.734 1.364 8.3877 8.3877 0 0 1 2.2174 4.4842c.0745.4856.1079.9739.1387 1.2684m-12.6987.0611a5.2029 5.2029 0 0 0 1.96 4.1793 4.3558 4.3558 0 0 0 2.8951.9606 4.479 4.479 0 0 0 3.1674-1.3347 4.9359 4.9359 0 0 0 .94-1.2631 5.1246 5.1246 0 0 0 .4881-3.4576 4.783 4.783 0 0 0 -2.6-3.4921 4.3661 4.3661 0 0 0 -4.4877.2043 4.7858 4.7858 0 0 0 -1.6467 1.68 5.0773 5.0773 0 0 0 -.7168 2.5236"/></clipPath><clipPath id="r"><path clip-rule="evenodd" d="m71.48 94.7477a5.0773 5.0773 0 0 1 .7168-2.5236 4.7858 4.7858 0 0 1 1.6467-1.68 4.3661 4.3661 0 0 1 4.4877-.2043 4.783 4.783 0 0 1 2.6 3.4921 5.1246 5.1246 0 0 1 -.4881 3.4576 4.9359 4.9359 0 0 1 -.94 1.2631 4.479 4.479 0 0 1 -3.1674 1.3347 4.3558 4.3558 0 0 1 -2.8957-.9603 5.2029 5.2029 0 0 1 -1.96-4.1793"/></clipPath><clipPath id="s"><rect height="8.0465" rx="4" width="28.98" x="173" y="129.3748"/></clipPath><clipPath id="t"><path d="m161 117.3748h53v32h-53z"/></clipPath><clipPath id="u"><path d="m173 129.3748h29v9h-29z"/></clipPath><g clip-path="url(#a)"><path d="m-16.9819-20.2827h324.7133v265.4474h-324.7133z" fill="#eee"/></g><g clip-path="url(#b)"><path d="m25 67.3748h229v94h-229z" fill="#fefefe"/></g><g clip-path="url(#c)"><path d="m25.1056 67.4839h228.7888v93.7818h-228.7888z" fill="#e1e1e1"/></g><g clip-path="url(#d)"><path d="m30.1056 72.4839h218.7888v83.7818h-218.7888z" fill="none" stroke="#e1e1e1" stroke-miterlimit="10" stroke-width="1.1495"/></g><g clip-path="url(#e)"><path d="m118.8358 67.4839h135.0221v93.7818h-135.0221z" fill="#fff"/></g><g clip-path="url(#d)" fill="none" stroke="#121212" stroke-miterlimit="10"><path d="m161.8586 116.3748h49.3036"/><path d="m161.8586 109.3748h49.3036"/></g><g clip-path="url(#f)"><g clip-path="url(#d)"><path d="m152.2723 92.3885h67.3298v15.7534h-67.3298z" fill="#121212"/></g></g><g clip-path="url(#g)"><g clip-path="url(#d)"><path d="m39.6535 76.7096h73.2192v69.4675h-73.2192z" fill="#fefefe"/></g></g><g clip-path="url(#h)"><g clip-path="url(#d)"><path d="m58.336 76.7098h35.8419v44.8306h-35.8419z" fill="#731012"/></g></g><g clip-path="url(#i)"><g clip-path="url(#d)"><path d="m61.658 123.1282h29.2152v23.0494h-29.2152z" fill="#819fb3"/></g></g><g clip-path="url(#j)"><g clip-path="url(#d)"><path d="m83.99 123.1454h28.8835v23.0264h-28.8835z" fill="#819fb3"/></g></g><g clip-path="url(#k)"><g clip-path="url(#d)"><path d="m39.6522 123.148h28.8604v23.0211h-28.8604z" fill="#819fb3"/></g></g><g clip-path="url(#l)"><g clip-path="url(#d)"><path d="m80.8586 88.7735h27.97v25.2528h-27.97z" fill="#819fb3"/></g></g><g clip-path="url(#m)"><g clip-path="url(#d)"><path d="m43.7172 88.7582h27.9544v25.283h-27.9544z" fill="#819fb3"/></g></g><g clip-path="url(#n)"><g clip-path="url(#d)"><path d="m83.9907 107.3353h26.82v22.5037h-26.82z" fill="#819fb3"/></g></g><g clip-path="url(#o)"><g clip-path="url(#d)"><path d="m41.7137 107.3353h26.822v22.4798h-26.822z" fill="#819fb3"/></g></g><g clip-path="url(#p)"><g clip-path="url(#d)"><path d="m61.6813 107.3192h29.1987v22.5145h-29.1987z" fill="#819fb3"/></g></g><g clip-path="url(#q)"><g clip-path="url(#d)"><path d="m63.3559 81.5475h25.8223v26.659h-25.8223z" fill="#fff"/></g></g><g clip-path="url(#d)"><path d="m84.1782 94.6866a9.0408 9.0408 0 0 1 -.8272 3.8716 8.4 8.4 0 0 1 -2.3607 2.98 8.1194 8.1194 0 0 1 -2.8643 1.417 6.9576 6.9576 0 0 1 -2.6433.21 7.9555 7.9555 0 0 1 -2.6691-.8067 7.43 7.43 0 0 1 -2.4738-1.9769 8.6835 8.6835 0 0 1 -.8862-9.7492 8.1326 8.1326 0 0 1 2.5046-2.7465 7.5225 7.5225 0 0 1 5.4023-1.2659 7.0051 7.0051 0 0 1 2.7281.95 7.7022 7.7022 0 0 1 1.734 1.364 8.3877 8.3877 0 0 1 2.2174 4.4842c.0745.4856.1079.9739.1387 1.2684m-12.6987.0611a5.2029 5.2029 0 0 0 1.96 4.1793 4.3564 4.3564 0 0 0 2.8951.9607 4.48 4.48 0 0 0 3.1674-1.3348 4.9359 4.9359 0 0 0 .94-1.2631 5.1246 5.1246 0 0 0 .4881-3.4576 4.783 4.783 0 0 0 -2.6-3.4921 4.3663 4.3663 0 0 0 -4.4878.2043 4.7864 4.7864 0 0 0 -1.6466 1.68 5.0773 5.0773 0 0 0 -.7168 2.5236" fill="none" stroke="#819fb3" stroke-miterlimit="10" stroke-width="1.1495"/></g><g clip-path="url(#r)"><g clip-path="url(#d)"><path d="m66.4802 84.8164h19.5593v20.0725h-19.5593z" fill="#819fb3"/></g></g><g clip-path="url(#s)"><g clip-path="url(#d)"><g clip-path="url(#t)"><g clip-path="url(#s)"><g clip-path="url(#u)"><rect fill="#121212" height="8.0465" rx="4" width="28.98" x="173" y="129.3748"/></g></g><g clip-path="url(#u)"><rect fill="none" height="8.0465" rx="4" stroke="#121212" stroke-miterlimit="10" stroke-width="2.299" width="28.98" x="173" y="129.3748"/></g></g></g></g></svg>
