<svg xmlns="http://www.w3.org/2000/svg" xmlns:xlink="http://www.w3.org/1999/xlink" width="279" height="227" viewBox="0 0 279 227"><defs><clipPath id="a"><rect x="59.8531" y="107" width="82" height="58" fill="none"/></clipPath><clipPath id="b"><polygon points="77.056 148.778 93.278 156.562 116.678 128 141.853 164.812 59.853 165 77.056 148.778" fill="none" clip-rule="evenodd"/></clipPath><clipPath id="c"><rect x="-0.1469" width="279" height="227" fill="none"/></clipPath><clipPath id="d"><path d="M93.8531,134a1.8852,1.8852,0,0,1-.9783-.2762L88.83,131.256a2.0927,2.0927,0,0,1-.977-1.7882v-4.9344a2.0948,2.0948,0,0,1,.977-1.7894l4.0447-2.4678a1.8684,1.8684,0,0,1,1.9553,0l4.0459,2.4678a2.0949,2.0949,0,0,1,.9771,1.7894v4.9344a2.0928,2.0928,0,0,1-.9771,1.7882L94.83,133.7238a1.8807,1.8807,0,0,1-.977.2762" fill="none" clip-rule="evenodd"/></clipPath><clipPath id="f"><path d="M93.5838,121a1.5056,1.5056,0,0,1,.7193.183l4.2153,2.3154a1.3635,1.3635,0,0,1,.7193,1.1856v4.63a1.3624,1.3624,0,0,1-.7193,1.1867l-4.2153,2.3155a1.4994,1.4994,0,0,1-1.44,0L88.6493,130.5a1.36,1.36,0,0,1-.7193-1.1867v-4.63a1.3611,1.3611,0,0,1,.7193-1.1856l4.2141-2.3154a1.5133,1.5133,0,0,1,.72-.183m.2693-1a2.8948,2.8948,0,0,0-1.347.3289L88.1988,122.6a2.4268,2.4268,0,0,0-1.3457,2.1284v4.541a2.4272,2.4272,0,0,0,1.3457,2.13l4.3073,2.2711a2.9115,2.9115,0,0,0,2.6927,0l4.3085-2.2711a2.4271,2.4271,0,0,0,1.3458-2.13v-4.541A2.4267,2.4267,0,0,0,99.5073,122.6l-4.3085-2.2711A2.89,2.89,0,0,0,93.8531,120" fill="none" clip-rule="evenodd"/></clipPath><clipPath id="h"><rect x="152.8531" y="173" width="55" height="39" fill="none"/></clipPath><clipPath id="i"><polygon points="164.392 201.039 175.272 206.299 190.967 187 207.853 211.873 152.853 212 164.392 201.039" fill="none" clip-rule="evenodd"/></clipPath><clipPath id="k"><path d="M176.3531,192a1.4673,1.4673,0,0,1-.7337-.1973l-3.0335-1.7627a1.4793,1.4793,0,0,1-.7328-1.2773v-3.5246a1.4808,1.4808,0,0,1,.7328-1.2781l3.0335-1.7627a1.4612,1.4612,0,0,1,1.4665,0L180.12,183.96a1.4808,1.4808,0,0,1,.7328,1.2781v3.5246a1.4793,1.4793,0,0,1-.7328,1.2773l-3.0344,1.7627a1.464,1.464,0,0,1-.7328.1973" fill="none" clip-rule="evenodd"/></clipPath><clipPath id="m"><path d="M176.18,182.7143a.8924.8924,0,0,1,.4624.1307l2.71,1.6539a.993.993,0,0,1,.4624.8468v3.307a.9925.9925,0,0,1-.4624.8476l-2.71,1.6539a.88.88,0,0,1-.9255,0L173.0078,189.5a.9909.9909,0,0,1-.4624-.8476v-3.307a.9914.9914,0,0,1,.4624-.8468l2.7091-1.6539a.8973.8973,0,0,1,.4631-.1307m.1731-.7143a1.7127,1.7127,0,0,0-.8659.2349l-2.769,1.6222a1.76,1.76,0,0,0-.8651,1.52v3.2436a1.76,1.76,0,0,0,.8651,1.5211l2.769,1.6222a1.7069,1.7069,0,0,0,1.731,0l2.77-1.6222a1.76,1.76,0,0,0,.8651-1.5211v-3.2436a1.76,1.76,0,0,0-.8651-1.52l-2.77-1.6222a1.71,1.71,0,0,0-.8651-.2349" fill="none" clip-rule="evenodd"/></clipPath><clipPath id="p"><rect x="152.6163" y="5.9836" width="56.4737" height="88.5242" fill="none"/></clipPath><clipPath id="q"><rect x="151.8531" y="5" width="58" height="89.2241" fill="none"/></clipPath><clipPath id="r"><polygon points="154.143 94.777 167.025 65.811 177.891 78.847 191.841 44.346 208.327 94.777 154.143 94.777" fill="none" clip-rule="evenodd"/></clipPath><clipPath id="t"><path d="M161.9877,23.6345V28.643a5.3136,5.3136,0,0,0,2.707,4.6151l4.4064,2.5023a5.488,5.488,0,0,0,5.414,0l4.4064-2.5023a5.3136,5.3136,0,0,0,2.707-4.6151V23.6345a5.3074,5.3074,0,0,0-2.707-4.6111l-4.4064-2.5062a5.488,5.488,0,0,0-5.414,0l-4.4064,2.5062a5.3074,5.3074,0,0,0-2.707,4.6111" fill="none" clip-rule="evenodd"/></clipPath><clipPath id="w"><ellipse cx="69.3531" cy="52.6087" rx="2.5" ry="2.6087" fill="none"/></clipPath><clipPath id="y"><ellipse cx="69.3531" cy="60.4348" rx="2.5" ry="2.6087" fill="none"/></clipPath><clipPath id="aa"><ellipse cx="69.3531" cy="67.3913" rx="2.5" ry="2.6087" fill="none"/></clipPath><clipPath id="ad"><line x1="152.8531" y1="158.25" x2="208.6198" y2="158.25" fill="none"/></clipPath></defs><g clip-path="url(#a)"><rect x="54.8531" y="102" width="92" height="68" fill="#819fb3"/></g><g clip-path="url(#b)"><g clip-path="url(#c)"><rect x="54.8531" y="123" width="92" height="47" fill="#eef8ff" opacity="0.73"/></g></g><g clip-path="url(#d)"><g clip-path="url(#c)"><rect x="82.8531" y="115" width="22" height="24" fill="#fefefe"/></g></g><g clip-path="url(#f)"><g clip-path="url(#c)"><rect x="81.8531" y="115" width="24" height="24" fill="#c8282c"/></g></g><g clip-path="url(#h)"><rect x="147.8531" y="168" width="65" height="49" fill="#819fb3"/></g><g clip-path="url(#i)"><g clip-path="url(#c)"><rect x="147.8531" y="182" width="65" height="35" fill="#eef8ff" opacity="0.73"/></g></g><g clip-path="url(#k)"><g clip-path="url(#c)"><rect x="166.8531" y="177" width="19" height="20" fill="#fefefe"/></g></g><g clip-path="url(#m)"><g clip-path="url(#c)"><rect x="166.8531" y="177" width="19" height="20" fill="#c8282c"/></g></g><g clip-path="url(#c)"><line x1="62.3531" y1="11.5" x2="128.1785" y2="11.5" fill="none" stroke="#121212" stroke-linecap="square" stroke-miterlimit="10"/><line x1="62.3531" y1="30.5" x2="128.1785" y2="30.5" fill="none" stroke="#121212" stroke-linecap="square" stroke-miterlimit="10"/><line x1="62.3531" y1="5.5" x2="128.1785" y2="5.5" fill="none" stroke="#121212" stroke-linecap="square" stroke-miterlimit="10"/><line x1="62.3531" y1="23.5" x2="128.1785" y2="23.5" fill="none" stroke="#121212" stroke-linecap="square" stroke-miterlimit="10"/><line x1="62.3531" y1="17.5" x2="128.0781" y2="17.5" fill="none" stroke="#121212" stroke-linecap="square" stroke-miterlimit="10"/><line x1="62.3531" y1="36.5" x2="128.0781" y2="36.5" fill="none" stroke="#121212" stroke-linecap="square" stroke-miterlimit="10"/><line x1="61.3531" y1="42.2874" x2="106.0531" y2="42.5374" fill="none" stroke="#121212" stroke-linecap="square" stroke-miterlimit="10"/><line x1="73.0137" y1="195.4917" x2="140.67" y2="195.4917" fill="none" stroke="#121212" stroke-linecap="square" stroke-miterlimit="10"/><line x1="73.0137" y1="201.8139" x2="140.67" y2="201.8139" fill="none" stroke="#121212" stroke-linecap="square" stroke-miterlimit="10"/><line x1="73.0137" y1="208.1362" x2="140.67" y2="208.1362" fill="none" stroke="#121212" stroke-linecap="square" stroke-miterlimit="10"/><line x1="67.5068" y1="193.9111" x2="67.5068" y2="209.7167" fill="none" stroke="#121212" stroke-linecap="square" stroke-miterlimit="10" stroke-width="3.4485"/><path d="M59.8672,194.6338a2.6435,2.6435,0,0,1,.522-1.73,2.5158,2.5158,0,0,1,1.521-.8311v.7588a1.511,1.511,0,0,0-1,.8028,1.299,1.299,0,0,0-.1093.62h1.1455v1.9189h-2.08Zm3.4585,0a2.3518,2.3518,0,0,1,2.0434-2.5606v.7588a1.4748,1.4748,0,0,0-.9926.8164,1.155,1.155,0,0,0-.1167.6065h1.1455v1.9189h-2.08Z" fill="#121212"/><line x1="60.8531" y1="169.5" x2="89.7763" y2="169.5" fill="none" stroke="#121212" stroke-linecap="square" stroke-miterlimit="10"/><line x1="110.8531" y1="169.5" x2="139.7763" y2="169.5" fill="none" stroke="#121212" stroke-linecap="square" stroke-miterlimit="10"/><line x1="60.8531" y1="175.25" x2="89.7322" y2="175.25" fill="none" stroke="#121212" stroke-linecap="square" stroke-miterlimit="10"/><line x1="110.8531" y1="175.25" x2="139.7322" y2="175.25" fill="none" stroke="#121212" stroke-linecap="square" stroke-miterlimit="10"/><line x1="60.8531" y1="180.2874" x2="80.7197" y2="180.5374" fill="none" stroke="#121212" stroke-linecap="square" stroke-miterlimit="10"/><line x1="110.8531" y1="180.2874" x2="130.7197" y2="180.5374" fill="none" stroke="#121212" stroke-linecap="square" stroke-miterlimit="10"/></g><g clip-path="url(#p)"><rect x="147.6163" y="0.9836" width="66.4736" height="98.5242" fill="#63cae4"/></g><g clip-path="url(#q)"><rect x="146.8531" width="68" height="99.2241" fill="#819fb3"/></g><g clip-path="url(#r)"><g clip-path="url(#c)"><rect x="149.1426" y="39.346" width="64.1842" height="60.431" fill="#d0e0ea"/></g></g><g clip-path="url(#t)"><g clip-path="url(#c)"><rect x="156.9877" y="10.8031" width="29.6408" height="30.6714" fill="#fefefe"/></g></g><g clip-path="url(#c)"><path d="M161.9877,23.6346v5.0085a5.3135,5.3135,0,0,0,2.7069,4.615L169.101,35.76a5.488,5.488,0,0,0,5.414,0l4.4064-2.5023a5.3134,5.3134,0,0,0,2.707-4.615V23.6346a5.3072,5.3072,0,0,0-2.707-4.6112l-4.4064-2.5062a5.488,5.488,0,0,0-5.414,0l-4.4064,2.5062A5.3073,5.3073,0,0,0,161.9877,23.6346Z" fill="none" stroke="#c8282c" stroke-miterlimit="10" stroke-width="2.0691"/><line x1="78.8531" y1="68.4479" x2="107.8531" y2="68.4479" fill="none" stroke="#121212" stroke-linecap="square" stroke-miterlimit="10"/><line x1="78.8531" y1="60.7979" x2="107.8531" y2="60.7979" fill="none" stroke="#121212" stroke-linecap="square" stroke-miterlimit="10"/><line x1="78.8531" y1="53.1479" x2="107.8531" y2="53.1479" fill="none" stroke="#121212" stroke-linecap="square" stroke-miterlimit="10"/></g><g clip-path="url(#w)"><g clip-path="url(#c)"><rect x="61.8531" y="45" width="15" height="15.2174" fill="#121212"/></g></g><g clip-path="url(#y)"><g clip-path="url(#c)"><rect x="61.8531" y="52.8261" width="15" height="15.2174" fill="#121212"/></g></g><g clip-path="url(#aa)"><g clip-path="url(#c)"><rect x="61.8531" y="59.7826" width="15" height="15.2174" fill="#121212"/></g></g><g clip-path="url(#c)"><line x1="62.3531" y1="79.5" x2="128.0781" y2="79.5" fill="none" stroke="#121212" stroke-linecap="square" stroke-miterlimit="10"/><line x1="61.3531" y1="85.2874" x2="106.0531" y2="85.5374" fill="none" stroke="#121212" stroke-linecap="square" stroke-miterlimit="10"/><line x1="152.8531" y1="108.5" x2="208.7049" y2="108.5" fill="none" stroke="#121212" stroke-linecap="square" stroke-miterlimit="10"/><line x1="152.8531" y1="136.5" x2="208.7049" y2="136.5" fill="none" stroke="#121212" stroke-linecap="square" stroke-miterlimit="10"/><line x1="152.8531" y1="131" x2="208.7049" y2="131" fill="none" stroke="#121212" stroke-linecap="square" stroke-miterlimit="10"/><line x1="152.8531" y1="114.25" x2="208.6197" y2="114.25" fill="none" stroke="#121212" stroke-linecap="square" stroke-miterlimit="10"/><line x1="152.8531" y1="119.2874" x2="191.593" y2="119.5374" fill="none" stroke="#121212" stroke-linecap="square" stroke-miterlimit="10"/><line x1="152.8531" y1="152.5" x2="208.7049" y2="152.5" fill="none" stroke="#121212" stroke-linecap="square" stroke-miterlimit="10"/></g><g clip-path="url(#ad)"><g clip-path="url(#c)"><rect x="147.8531" y="153.25" width="65.7667" height="10" fill="#d8d8d8"/></g></g><g clip-path="url(#c)"><line x1="152.8531" y1="158.25" x2="208.6197" y2="158.25" fill="none" stroke="#121212" stroke-linecap="square" stroke-miterlimit="10"/><line x1="152.8531" y1="163.2874" x2="191.593" y2="163.5374" fill="none" stroke="#121212" stroke-linecap="square" stroke-miterlimit="10"/><line x1="153.3531" y1="216.5" x2="208.3531" y2="216.5" fill="none" stroke="#121212" stroke-linecap="square" stroke-miterlimit="10"/><line x1="153.3531" y1="220.875" x2="196.3531" y2="220.5" fill="none" stroke="#121212" stroke-linecap="square" stroke-miterlimit="10"/><line x1="152.8531" y1="141.2874" x2="191.593" y2="141.5374" fill="none" stroke="#121212" stroke-linecap="square" stroke-miterlimit="10"/></g></svg>