<?xml version="1.0" encoding="utf-8"?><svg xmlns="http://www.w3.org/2000/svg" width="279" height="227" viewBox="0 0 279 227"><rect x="-56" y="-34" width="391" height="295" fill="#313131"/><path d="M152,193.338h62" fill="none" stroke="#8c8c8c" stroke-linecap="square"/><path d="M152,205.038h43.8384" fill="none" stroke="#8c8c8c" stroke-linecap="square"/><path d="M152,199.188h62" fill="none" stroke="#8c8c8c" stroke-linecap="square"/><path d="M67.4679,36.4719A6.8,6.8,0,0,1,69.0847,31.61a4.7085,4.7085,0,0,1,3.5773-1.4872,4.7562,4.7562,0,0,1,4.2489,1.9938,4.4416,4.4416,0,0,1,.7967,2.2472H75.3019a3.4658,3.4658,0,0,0-.6014-1.3074,2.6244,2.6244,0,0,0-4.0146.3228,5.5112,5.5112,0,0,0-.7576,3.1338,4.8281,4.8281,0,0,0,.8005,3.0357,2.4886,2.4886,0,0,0,2.0347,1.0092,2.2827,2.2827,0,0,0,1.9292-.8662,3.8436,3.8436,0,0,0,.6092-1.3973h2.3822a5.49,5.49,0,0,1-1.5972,3.2032,4.5576,4.5576,0,0,1-3.2922,1.234,4.86,4.86,0,0,1-3.9052-1.667A6.8738,6.8738,0,0,1,67.4679,36.4719Zm16.7715,1.5935a2.38,2.38,0,0,1-.4257.2247,3.4307,3.4307,0,0,1-.59.1593l-.5.0981a3.1267,3.1267,0,0,0-1.0075.3187,1.08,1.08,0,0,0-.5155.9888,1.0663,1.0663,0,0,0,.3163.8621,1.1568,1.1568,0,0,0,.7694.2655,2.1994,2.1994,0,0,0,1.3238-.4412,1.9221,1.9221,0,0,0,.6288-1.61Zm-1.3512-1.0869a3.3454,3.3454,0,0,0,.8826-.2042.6976.6976,0,0,0,.4764-.6619.7959.7959,0,0,0-.3632-.7559,2.183,2.183,0,0,0-1.0661-.2084,1.3547,1.3547,0,0,0-1.1169.4086,1.7414,1.7414,0,0,0-.3125.8172H79.2406a3.0932,3.0932,0,0,1,3.6554-3.0971,5.1879,5.1879,0,0,1,2.4837.58,2.2536,2.2536,0,0,1,1.0857,2.19v4.0858q0,.4249.0156,1.03a1.3432,1.3432,0,0,0,.1328.6211.8053.8053,0,0,0,.328.27v.3432H84.5206A2.683,2.683,0,0,1,84.38,41.89q-.0392-.237-.0625-.5393a4.62,4.62,0,0,1-1.0622.8907,3.0857,3.0857,0,0,1-1.6246.4331,2.7181,2.7181,0,0,1-1.91-.6905,2.5205,2.5205,0,0,1-.7537-1.9571,2.57,2.57,0,0,1,1.2106-2.378,5.1987,5.1987,0,0,1,1.9526-.572Zm7.4925,2.5741a1.5977,1.5977,0,0,0,.3046.8825,1.999,1.999,0,0,0,1.5309.4658,2.2449,2.2449,0,0,0,1.0427-.2043.6565.6565,0,0,0,.3866-.6128.6686.6686,0,0,0-.3124-.5966,12.2972,12.2972,0,0,0-2.32-.7027,4.734,4.734,0,0,1-2.0385-.94,2.087,2.087,0,0,1-.5936-1.6016,2.8345,2.8345,0,0,1,.9255-2.12,3.6138,3.6138,0,0,1,2.6048-.8866,4.614,4.614,0,0,1,2.597.6659,2.8893,2.8893,0,0,1,1.1521,2.3h-2.226a1.4178,1.4178,0,0,0-.2421-.7109,1.4875,1.4875,0,0,0-1.25-.4739,1.733,1.733,0,0,0-1.0349.2369.6892.6892,0,0,0-.3085.5557.6125.6125,0,0,0,.328.58,13.7123,13.7123,0,0,0,2.32.6456,4.1867,4.1867,0,0,1,1.9917.9887A2.2983,2.2983,0,0,1,95.8949,39.7a2.76,2.76,0,0,1-.9412,2.1614,5.4342,5.4342,0,0,1-5.8735-.049,2.9453,2.9453,0,0,1-.9568-2.26Zm10.7261-4.38a1.48,1.48,0,0,0-1.199.5067,2.592,2.592,0,0,0-.535,1.3728h3.46a2.077,2.077,0,0,0-.535-1.4014A1.6217,1.6217,0,0,0,101.1068,35.1726Zm0-1.92a4.2949,4.2949,0,0,1,1.9135.4167,3.4078,3.4078,0,0,1,1.4059,1.3157,4.6176,4.6176,0,0,1,.6483,1.8386,12.4168,12.4168,0,0,1,.07,1.7651H99.3181a2.2547,2.2547,0,0,0,.8045,1.8794,1.8345,1.8345,0,0,0,1.1091.3351,1.554,1.554,0,0,0,1.1169-.4086,1.9426,1.9426,0,0,0,.414-.6129h2.2729a3.0073,3.0073,0,0,1-.7889,1.61,3.7827,3.7827,0,0,1-3.0617,1.2993,4.2051,4.2051,0,0,1-2.8665-1.095,4.53,4.53,0,0,1-1.2419-3.5628,5.0972,5.0972,0,0,1,1.1208-3.5465A3.7485,3.7485,0,0,1,101.1068,33.2523Zm12.3138,5.4259a2.5431,2.5431,0,0,0,.43,1.234,2.412,2.412,0,0,0,2.0073.7436A4.0637,4.0637,0,0,0,117.24,40.46a1.391,1.391,0,0,0,1.0076-1.3974,1.0415,1.0415,0,0,0-.5-.9234,5.2206,5.2206,0,0,0-1.57-.5638l-1.2184-.286a7.4881,7.4881,0,0,1-2.4838-.9234,2.9881,2.9881,0,0,1-1.1638-2.6068,3.5554,3.5554,0,0,1,1.1248-2.6884A4.6176,4.6176,0,0,1,115.74,30a4.8726,4.8726,0,0,1,3.1047,1.0092,3.6647,3.6647,0,0,1,1.3473,2.9295H117.88a1.7378,1.7378,0,0,0-.906-1.5444,2.9254,2.9254,0,0,0-1.3981-.3024,2.5222,2.5222,0,0,0-1.484.3923,1.2655,1.2655,0,0,0-.5546,1.095,1.0443,1.0443,0,0,0,.5468.9642,6.4852,6.4852,0,0,0,1.5.4985l1.9839.4984a5.0174,5.0174,0,0,1,1.9682.8744,3.0047,3.0047,0,0,1,1.031,2.46,3.5391,3.5391,0,0,1-1.2067,2.7415,4.907,4.907,0,0,1-3.4093,1.0909,5.36,5.36,0,0,1-3.5382-1.0745,3.64,3.64,0,0,1-1.2887-2.9541Zm8.0783-3.4484V33.571h1.1872V31.0868h2.2026V33.571h1.3824V35.23h-1.3824v4.7069a1.0994,1.0994,0,0,0,.1327.6823q.1329.1349.8123.1348.1016,0,.2148-.0041t.2226-.0122V42.478l-1.0544.0409a2.7411,2.7411,0,0,1-2.1557-.572,1.7544,1.7544,0,0,1-.3749-1.2339V35.23Zm8.625-1.74V38.858a2.9256,2.9256,0,0,0,.1719,1.144,1.18,1.18,0,0,0,1.195.6783,1.5553,1.5553,0,0,0,1.5621-.9643,3.6346,3.6346,0,0,0,.2187-1.381V33.4893h2.2572v8.907h-2.1635V41.1379q-.0312.0408-.1562.2451a1.6231,1.6231,0,0,1-.2968.36,3.0832,3.0832,0,0,1-1.0115.67,3.3085,3.3085,0,0,1-1.1442.18,2.5293,2.5293,0,0,1-2.5462-1.4218,5.6635,5.6635,0,0,1-.3671-2.3126V33.4893Zm10.8979-.2125a2.65,2.65,0,0,1,1.3747.3555,2.7628,2.7628,0,0,1,.9763.9847V30.3677H145.63V42.3963h-2.1636V41.1624a3.2174,3.2174,0,0,1-1.0856,1.1522,2.9387,2.9387,0,0,1-1.5153.36,3.1131,3.1131,0,0,1-2.5111-1.2626,4.9942,4.9942,0,0,1-1.0192-3.24,5.7582,5.7582,0,0,1,1.0036-3.5873A3.2108,3.2108,0,0,1,141.0218,33.2768Zm.4843,7.4362a1.62,1.62,0,0,0,1.4371-.7355,3.3612,3.3612,0,0,0,.4921-1.904,2.9973,2.9973,0,0,0-.7889-2.337,1.653,1.653,0,0,0-1.1247-.425,1.5455,1.5455,0,0,0-1.4332.7723,4.3341,4.3341,0,0,0,.0078,3.89A1.552,1.552,0,0,0,141.5061,40.713Zm6.6958,3.3912.2812.0163a3.35,3.35,0,0,0,.6249-.0245,1.0909,1.0909,0,0,0,.5-.1879,1.26,1.26,0,0,0,.3632-.58,1.273,1.273,0,0,0,.1367-.5393l-3.1242-9.2993h2.4759l1.8589,6.57,1.7574-6.57h2.3666l-2.9211,8.76a12.5778,12.5778,0,0,1-1.3356,3.142A2.4664,2.4664,0,0,1,149.2173,46q-.2969,0-.4764-.0041t-.539-.0286Z" fill="#fff"/><path d="M162.4266,36.2474v4.5282h1.3a1.4071,1.4071,0,0,0,1.3919-1.012,3.661,3.661,0,0,0,.2151-1.3227,3.334,3.334,0,0,0-.3227-1.6263,1.3484,1.3484,0,0,0-1.2843-.5672Zm1.5384-1.205a3.4537,3.4537,0,0,1,1.0439.1506,2.2342,2.2342,0,0,1,1.1492.88,3.1325,3.1325,0,0,1,.4807,1.12,5.52,5.52,0,0,1,.1282,1.1486,4.7159,4.7159,0,0,1-.54,2.3441,2.4246,2.4246,0,0,1-2.2617,1.2944h-2.9073V35.0424Zm5.8479,2.7772a.8743.8743,0,0,0-.7028.2918,1.4789,1.4789,0,0,0-.3136.7908h2.0283a1.1854,1.1854,0,0,0-.3137-.8073A.959.959,0,0,0,169.8129,37.82Zm0-1.1062a2.554,2.554,0,0,1,1.1217.24,1.9845,1.9845,0,0,1,.8242.7578,2.6317,2.6317,0,0,1,.38,1.0591,7.0425,7.0425,0,0,1,.0412,1.0167h-3.4155a1.29,1.29,0,0,0,.4715,1.0827,1.0894,1.0894,0,0,0,.65.193.92.92,0,0,0,.6547-.2354,1.117,1.117,0,0,0,.2426-.353h1.3324a1.72,1.72,0,0,1-.4625.9273,2.2354,2.2354,0,0,1-1.7947.7484,2.49,2.49,0,0,1-1.68-.6307,2.5834,2.5834,0,0,1-.7279-2.0523,2.903,2.903,0,0,1,.657-2.0429A2.2154,2.2154,0,0,1,169.8129,36.7134Zm4.3829,3.6292a.91.91,0,0,0,.1785.5083,1.1852,1.1852,0,0,0,.8974.2683,1.3362,1.3362,0,0,0,.6112-.1176.3777.3777,0,0,0,.2266-.3531.3832.3832,0,0,0-.1831-.3436,7.3007,7.3007,0,0,0-1.36-.4048,2.7964,2.7964,0,0,1-1.195-.5413,1.1912,1.1912,0,0,1-.3479-.9226,1.62,1.62,0,0,1,.5425-1.2215,2.1413,2.1413,0,0,1,1.5269-.5107,2.7423,2.7423,0,0,1,1.5224.3836,1.656,1.656,0,0,1,.6753,1.3251h-1.3049a.808.808,0,0,0-.1419-.41.88.88,0,0,0-.7326-.273,1.03,1.03,0,0,0-.6066.1365.3952.3952,0,0,0-.1808.32.3517.3517,0,0,0,.1923.3342,8.1451,8.1451,0,0,0,1.36.3719,2.4707,2.4707,0,0,1,1.1675.5695,1.3119,1.3119,0,0,1,.3846.965,1.5776,1.5776,0,0,1-.5517,1.245,3.2327,3.2327,0,0,1-3.4429-.0282,1.6822,1.6822,0,0,1-.5609-1.3015Zm7.2993-1.6522a1.2118,1.2118,0,0,0-.1878-.5178.7784.7784,0,0,0-.6821-.3107.9011.9011,0,0,0-.902.6731,2.8869,2.8869,0,0,0-.1282.9509,2.6541,2.6541,0,0,0,.1282.9085.8728.8728,0,0,0,.8791.64.7642.7642,0,0,0,.65-.2542,1.287,1.287,0,0,0,.2335-.659h1.3323a2.2818,2.2818,0,0,1-.43,1.158,2.0717,2.0717,0,0,1-1.8176.88,2.0985,2.0985,0,0,1-1.7718-.7343,3.0287,3.0287,0,0,1-.5678-1.9064,3.0713,3.0713,0,0,1,.6273-2.057,2.1549,2.1549,0,0,1,1.7306-.7343,2.5537,2.5537,0,0,1,1.5361.4331,2.0349,2.0349,0,0,1,.7074,1.53Zm5.065-1.9629q.0366,0,.0618.0024c.0168.0015.0542.0039.1122.007v1.3745q-.1238-.0141-.22-.0188t-.1557-.0047a1.0738,1.0738,0,0,0-1.0576.5272,2.1019,2.1019,0,0,0-.1511.9131v2.4524h-1.314V36.85h1.2453v.8943a2.8262,2.8262,0,0,1,.5266-.7013A1.4076,1.4076,0,0,1,186.56,36.7275Zm2.4-.4895h-1.3232V35h1.3232Zm-1.3232.6119h1.3232v5.1307h-1.3232Zm6.1455,2.5654a2.0635,2.0635,0,0,0-.2632-1.05.91.91,0,0,0-.8539-.4566.9729.9729,0,0,0-.9752.6919,2.6912,2.6912,0,0,0-.1374.932,1.5079,1.5079,0,0,0,.4625,1.2568,1.033,1.033,0,0,0,.65.2119.9347.9347,0,0,0,.831-.4331A2.0637,2.0637,0,0,0,193.7828,39.4153Zm-.7417-2.6784a1.931,1.931,0,0,1,1.4811.6637,2.7959,2.7959,0,0,1,.6067,1.9488,3.151,3.151,0,0,1-.5929,2.0664,1.898,1.898,0,0,1-1.5269.7108,1.5634,1.5634,0,0,1-.989-.306,1.9591,1.9591,0,0,1-.4212-.4942V44h-1.2911V36.85h1.25v.7578a2.1374,2.1374,0,0,1,.4487-.5272A1.6192,1.6192,0,0,1,193.0411,36.7369Zm2.6385,1.1156V36.897h.6959V35.466h1.2911v1.431h.81v.9555h-.81v2.7113a.6243.6243,0,0,0,.0779.3931.8376.8376,0,0,0,.4761.0776q.06,0,.1259-.0023t.1305-.0071v1.0026l-.6181.0236a1.6267,1.6267,0,0,1-1.2636-.3295.999.999,0,0,1-.22-.7108V37.8525Zm5.0971-1.6145h-1.3232V35h1.3232Zm-1.3232.6119h1.3232v5.1307h-1.3232Zm4.946,4.1846a1.0235,1.0235,0,0,0,.879-.4189,2.46,2.46,0,0,0,0-2.3795,1.1383,1.1383,0,0,0-1.76,0,2.445,2.445,0,0,0,0,2.38A1.03,1.03,0,0,0,204.4,41.0345Zm2.5547-1.61a3.0287,3.0287,0,0,1-.6318,1.9323,2.6941,2.6941,0,0,1-3.8367,0,3.26,3.26,0,0,1,0-3.8575,2.6666,2.6666,0,0,1,3.8367,0A3.0485,3.0485,0,0,1,206.9542,39.4247Zm3.82-2.6972a1.8921,1.8921,0,0,1,1.266.4166,1.72,1.72,0,0,1,.4921,1.3815v3.455h-1.3368V38.86a1.459,1.459,0,0,0-.1054-.6213.7363.7363,0,0,0-.7325-.3954.9069.9069,0,0,0-.9111.579,2.0376,2.0376,0,0,0-.1282.7814v2.7771h-1.3V36.8593h1.2591v.7484a2.2611,2.2611,0,0,1,.4761-.5695A1.6233,1.6233,0,0,1,210.7739,36.7275Z" fill="#8c8c8c"/><path d="M67.4679,36.4719A6.8,6.8,0,0,1,69.0847,31.61a4.7085,4.7085,0,0,1,3.5773-1.4872,4.7562,4.7562,0,0,1,4.2489,1.9938,4.4416,4.4416,0,0,1,.7967,2.2472H75.3019a3.4658,3.4658,0,0,0-.6014-1.3074,2.6244,2.6244,0,0,0-4.0146.3228,5.5112,5.5112,0,0,0-.7576,3.1338,4.8281,4.8281,0,0,0,.8005,3.0357,2.4886,2.4886,0,0,0,2.0347,1.0092,2.2827,2.2827,0,0,0,1.9292-.8662,3.8436,3.8436,0,0,0,.6092-1.3973h2.3822a5.49,5.49,0,0,1-1.5972,3.2032,4.5576,4.5576,0,0,1-3.2922,1.234,4.86,4.86,0,0,1-3.9052-1.667A6.8738,6.8738,0,0,1,67.4679,36.4719Zm16.7715,1.5935a2.38,2.38,0,0,1-.4257.2247,3.4307,3.4307,0,0,1-.59.1593l-.5.0981a3.1267,3.1267,0,0,0-1.0075.3187,1.08,1.08,0,0,0-.5155.9888,1.0663,1.0663,0,0,0,.3163.8621,1.1568,1.1568,0,0,0,.7694.2655,2.1994,2.1994,0,0,0,1.3238-.4412,1.9221,1.9221,0,0,0,.6288-1.61Zm-1.3512-1.0869a3.3454,3.3454,0,0,0,.8826-.2042.6976.6976,0,0,0,.4764-.6619.7959.7959,0,0,0-.3632-.7559,2.183,2.183,0,0,0-1.0661-.2084,1.3547,1.3547,0,0,0-1.1169.4086,1.7414,1.7414,0,0,0-.3125.8172H79.2406a3.0932,3.0932,0,0,1,3.6554-3.0971,5.1879,5.1879,0,0,1,2.4837.58,2.2536,2.2536,0,0,1,1.0857,2.19v4.0858q0,.4249.0156,1.03a1.3432,1.3432,0,0,0,.1328.6211.8053.8053,0,0,0,.328.27v.3432H84.5206A2.683,2.683,0,0,1,84.38,41.89q-.0392-.237-.0625-.5393a4.62,4.62,0,0,1-1.0622.8907,3.0857,3.0857,0,0,1-1.6246.4331,2.7181,2.7181,0,0,1-1.91-.6905,2.5205,2.5205,0,0,1-.7537-1.9571,2.57,2.57,0,0,1,1.2106-2.378,5.1987,5.1987,0,0,1,1.9526-.572Zm7.4925,2.5741a1.5977,1.5977,0,0,0,.3046.8825,1.999,1.999,0,0,0,1.5309.4658,2.2449,2.2449,0,0,0,1.0427-.2043.6565.6565,0,0,0,.3866-.6128.6686.6686,0,0,0-.3124-.5966,12.2972,12.2972,0,0,0-2.32-.7027,4.734,4.734,0,0,1-2.0385-.94,2.087,2.087,0,0,1-.5936-1.6016,2.8345,2.8345,0,0,1,.9255-2.12,3.6138,3.6138,0,0,1,2.6048-.8866,4.614,4.614,0,0,1,2.597.6659,2.8893,2.8893,0,0,1,1.1521,2.3h-2.226a1.4178,1.4178,0,0,0-.2421-.7109,1.4875,1.4875,0,0,0-1.25-.4739,1.733,1.733,0,0,0-1.0349.2369.6892.6892,0,0,0-.3085.5557.6125.6125,0,0,0,.328.58,13.7123,13.7123,0,0,0,2.32.6456,4.1867,4.1867,0,0,1,1.9917.9887A2.2983,2.2983,0,0,1,95.8949,39.7a2.76,2.76,0,0,1-.9412,2.1614,5.4342,5.4342,0,0,1-5.8735-.049,2.9453,2.9453,0,0,1-.9568-2.26Zm10.7261-4.38a1.48,1.48,0,0,0-1.199.5067,2.592,2.592,0,0,0-.535,1.3728h3.46a2.077,2.077,0,0,0-.535-1.4014A1.6217,1.6217,0,0,0,101.1068,35.1726Zm0-1.92a4.2949,4.2949,0,0,1,1.9135.4167,3.4078,3.4078,0,0,1,1.4059,1.3157,4.6176,4.6176,0,0,1,.6483,1.8386,12.4168,12.4168,0,0,1,.07,1.7651H99.3181a2.2547,2.2547,0,0,0,.8045,1.8794,1.8345,1.8345,0,0,0,1.1091.3351,1.554,1.554,0,0,0,1.1169-.4086,1.9426,1.9426,0,0,0,.414-.6129h2.2729a3.0073,3.0073,0,0,1-.7889,1.61,3.7827,3.7827,0,0,1-3.0617,1.2993,4.2051,4.2051,0,0,1-2.8665-1.095,4.53,4.53,0,0,1-1.2419-3.5628,5.0972,5.0972,0,0,1,1.1208-3.5465A3.7485,3.7485,0,0,1,101.1068,33.2523Zm12.3138,5.4259a2.5431,2.5431,0,0,0,.43,1.234,2.412,2.412,0,0,0,2.0073.7436A4.0637,4.0637,0,0,0,117.24,40.46a1.391,1.391,0,0,0,1.0076-1.3974,1.0415,1.0415,0,0,0-.5-.9234,5.2206,5.2206,0,0,0-1.57-.5638l-1.2184-.286a7.4881,7.4881,0,0,1-2.4838-.9234,2.9881,2.9881,0,0,1-1.1638-2.6068,3.5554,3.5554,0,0,1,1.1248-2.6884A4.6176,4.6176,0,0,1,115.74,30a4.8726,4.8726,0,0,1,3.1047,1.0092,3.6647,3.6647,0,0,1,1.3473,2.9295H117.88a1.7378,1.7378,0,0,0-.906-1.5444,2.9254,2.9254,0,0,0-1.3981-.3024,2.5222,2.5222,0,0,0-1.484.3923,1.2655,1.2655,0,0,0-.5546,1.095,1.0443,1.0443,0,0,0,.5468.9642,6.4852,6.4852,0,0,0,1.5.4985l1.9839.4984a5.0174,5.0174,0,0,1,1.9682.8744,3.0047,3.0047,0,0,1,1.031,2.46,3.5391,3.5391,0,0,1-1.2067,2.7415,4.907,4.907,0,0,1-3.4093,1.0909,5.36,5.36,0,0,1-3.5382-1.0745,3.64,3.64,0,0,1-1.2887-2.9541Zm8.0783-3.4484V33.571h1.1872V31.0868h2.2026V33.571h1.3824V35.23h-1.3824v4.7069a1.0994,1.0994,0,0,0,.1327.6823q.1329.1349.8123.1348.1016,0,.2148-.0041t.2226-.0122V42.478l-1.0544.0409a2.7411,2.7411,0,0,1-2.1557-.572,1.7544,1.7544,0,0,1-.3749-1.2339V35.23Zm8.625-1.74V38.858a2.9256,2.9256,0,0,0,.1719,1.144,1.18,1.18,0,0,0,1.195.6783,1.5553,1.5553,0,0,0,1.5621-.9643,3.6346,3.6346,0,0,0,.2187-1.381V33.4893h2.2572v8.907h-2.1635V41.1379q-.0312.0408-.1562.2451a1.6231,1.6231,0,0,1-.2968.36,3.0832,3.0832,0,0,1-1.0115.67,3.3085,3.3085,0,0,1-1.1442.18,2.5293,2.5293,0,0,1-2.5462-1.4218,5.6635,5.6635,0,0,1-.3671-2.3126V33.4893Zm10.8979-.2125a2.65,2.65,0,0,1,1.3747.3555,2.7628,2.7628,0,0,1,.9763.9847V30.3677H145.63V42.3963h-2.1636V41.1624a3.2174,3.2174,0,0,1-1.0856,1.1522,2.9387,2.9387,0,0,1-1.5153.36,3.1131,3.1131,0,0,1-2.5111-1.2626,4.9942,4.9942,0,0,1-1.0192-3.24,5.7582,5.7582,0,0,1,1.0036-3.5873A3.2108,3.2108,0,0,1,141.0218,33.2768Zm.4843,7.4362a1.62,1.62,0,0,0,1.4371-.7355,3.3612,3.3612,0,0,0,.4921-1.904,2.9973,2.9973,0,0,0-.7889-2.337,1.653,1.653,0,0,0-1.1247-.425,1.5455,1.5455,0,0,0-1.4332.7723,4.3341,4.3341,0,0,0,.0078,3.89A1.552,1.552,0,0,0,141.5061,40.713Zm6.6958,3.3912.2812.0163a3.35,3.35,0,0,0,.6249-.0245,1.0909,1.0909,0,0,0,.5-.1879,1.26,1.26,0,0,0,.3632-.58,1.273,1.273,0,0,0,.1367-.5393l-3.1242-9.2993h2.4759l1.8589,6.57,1.7574-6.57h2.3666l-2.9211,8.76a12.5778,12.5778,0,0,1-1.3356,3.142A2.4664,2.4664,0,0,1,149.2173,46q-.2969,0-.4764-.0041t-.539-.0286Z" fill="#fff"/><path d="M162.4266,36.2474v4.5282h1.3a1.4071,1.4071,0,0,0,1.3919-1.012,3.661,3.661,0,0,0,.2151-1.3227,3.334,3.334,0,0,0-.3227-1.6263,1.3484,1.3484,0,0,0-1.2843-.5672Zm1.5384-1.205a3.4537,3.4537,0,0,1,1.0439.1506,2.2342,2.2342,0,0,1,1.1492.88,3.1325,3.1325,0,0,1,.4807,1.12,5.52,5.52,0,0,1,.1282,1.1486,4.7159,4.7159,0,0,1-.54,2.3441,2.4246,2.4246,0,0,1-2.2617,1.2944h-2.9073V35.0424Zm5.8479,2.7772a.8743.8743,0,0,0-.7028.2918,1.4789,1.4789,0,0,0-.3136.7908h2.0283a1.1854,1.1854,0,0,0-.3137-.8073A.959.959,0,0,0,169.8129,37.82Zm0-1.1062a2.554,2.554,0,0,1,1.1217.24,1.9845,1.9845,0,0,1,.8242.7578,2.6317,2.6317,0,0,1,.38,1.0591,7.0425,7.0425,0,0,1,.0412,1.0167h-3.4155a1.29,1.29,0,0,0,.4715,1.0827,1.0894,1.0894,0,0,0,.65.193.92.92,0,0,0,.6547-.2354,1.117,1.117,0,0,0,.2426-.353h1.3324a1.72,1.72,0,0,1-.4625.9273,2.2354,2.2354,0,0,1-1.7947.7484,2.49,2.49,0,0,1-1.68-.6307,2.5834,2.5834,0,0,1-.7279-2.0523,2.903,2.903,0,0,1,.657-2.0429A2.2154,2.2154,0,0,1,169.8129,36.7134Zm4.3829,3.6292a.91.91,0,0,0,.1785.5083,1.1852,1.1852,0,0,0,.8974.2683,1.3362,1.3362,0,0,0,.6112-.1176.3777.3777,0,0,0,.2266-.3531.3832.3832,0,0,0-.1831-.3436,7.3007,7.3007,0,0,0-1.36-.4048,2.7964,2.7964,0,0,1-1.195-.5413,1.1912,1.1912,0,0,1-.3479-.9226,1.62,1.62,0,0,1,.5425-1.2215,2.1413,2.1413,0,0,1,1.5269-.5107,2.7423,2.7423,0,0,1,1.5224.3836,1.656,1.656,0,0,1,.6753,1.3251h-1.3049a.808.808,0,0,0-.1419-.41.88.88,0,0,0-.7326-.273,1.03,1.03,0,0,0-.6066.1365.3952.3952,0,0,0-.1808.32.3517.3517,0,0,0,.1923.3342,8.1451,8.1451,0,0,0,1.36.3719,2.4707,2.4707,0,0,1,1.1675.5695,1.3119,1.3119,0,0,1,.3846.965,1.5776,1.5776,0,0,1-.5517,1.245,3.2327,3.2327,0,0,1-3.4429-.0282,1.6822,1.6822,0,0,1-.5609-1.3015Zm7.2993-1.6522a1.2118,1.2118,0,0,0-.1878-.5178.7784.7784,0,0,0-.6821-.3107.9011.9011,0,0,0-.902.6731,2.8869,2.8869,0,0,0-.1282.9509,2.6541,2.6541,0,0,0,.1282.9085.8728.8728,0,0,0,.8791.64.7642.7642,0,0,0,.65-.2542,1.287,1.287,0,0,0,.2335-.659h1.3323a2.2818,2.2818,0,0,1-.43,1.158,2.0717,2.0717,0,0,1-1.8176.88,2.0985,2.0985,0,0,1-1.7718-.7343,3.0287,3.0287,0,0,1-.5678-1.9064,3.0713,3.0713,0,0,1,.6273-2.057,2.1549,2.1549,0,0,1,1.7306-.7343,2.5537,2.5537,0,0,1,1.5361.4331,2.0349,2.0349,0,0,1,.7074,1.53Zm5.065-1.9629q.0366,0,.0618.0024c.0168.0015.0542.0039.1122.007v1.3745q-.1238-.0141-.22-.0188t-.1557-.0047a1.0738,1.0738,0,0,0-1.0576.5272,2.1019,2.1019,0,0,0-.1511.9131v2.4524h-1.314V36.85h1.2453v.8943a2.8262,2.8262,0,0,1,.5266-.7013A1.4076,1.4076,0,0,1,186.56,36.7275Zm2.4-.4895h-1.3232V35h1.3232Zm-1.3232.6119h1.3232v5.1307h-1.3232Zm6.1455,2.5654a2.0635,2.0635,0,0,0-.2632-1.05.91.91,0,0,0-.8539-.4566.9729.9729,0,0,0-.9752.6919,2.6912,2.6912,0,0,0-.1374.932,1.5079,1.5079,0,0,0,.4625,1.2568,1.033,1.033,0,0,0,.65.2119.9347.9347,0,0,0,.831-.4331A2.0637,2.0637,0,0,0,193.7828,39.4153Zm-.7417-2.6784a1.931,1.931,0,0,1,1.4811.6637,2.7959,2.7959,0,0,1,.6067,1.9488,3.151,3.151,0,0,1-.5929,2.0664,1.898,1.898,0,0,1-1.5269.7108,1.5634,1.5634,0,0,1-.989-.306,1.9591,1.9591,0,0,1-.4212-.4942V44h-1.2911V36.85h1.25v.7578a2.1374,2.1374,0,0,1,.4487-.5272A1.6192,1.6192,0,0,1,193.0411,36.7369Zm2.6385,1.1156V36.897h.6959V35.466h1.2911v1.431h.81v.9555h-.81v2.7113a.6243.6243,0,0,0,.0779.3931.8376.8376,0,0,0,.4761.0776q.06,0,.1259-.0023t.1305-.0071v1.0026l-.6181.0236a1.6267,1.6267,0,0,1-1.2636-.3295.999.999,0,0,1-.22-.7108V37.8525Zm5.0971-1.6145h-1.3232V35h1.3232Zm-1.3232.6119h1.3232v5.1307h-1.3232Zm4.946,4.1846a1.0235,1.0235,0,0,0,.879-.4189,2.46,2.46,0,0,0,0-2.3795,1.1383,1.1383,0,0,0-1.76,0,2.445,2.445,0,0,0,0,2.38A1.03,1.03,0,0,0,204.4,41.0345Zm2.5547-1.61a3.0287,3.0287,0,0,1-.6318,1.9323,2.6941,2.6941,0,0,1-3.8367,0,3.26,3.26,0,0,1,0-3.8575,2.6666,2.6666,0,0,1,3.8367,0A3.0485,3.0485,0,0,1,206.9542,39.4247Zm3.82-2.6972a1.8921,1.8921,0,0,1,1.266.4166,1.72,1.72,0,0,1,.4921,1.3815v3.455h-1.3368V38.86a1.459,1.459,0,0,0-.1054-.6213.7363.7363,0,0,0-.7325-.3954.9069.9069,0,0,0-.9111.579,2.0376,2.0376,0,0,0-.1282.7814v2.7771h-1.3V36.8593h1.2591v.7484a2.2611,2.2611,0,0,1,.4761-.5695A1.6233,1.6233,0,0,1,210.7739,36.7275Z" fill="#8c8c8c"/><path d="M72.8236,189.2371a.9373.9373,0,0,0-.2811-.7675,1.2131,1.2131,0,0,0-.7874-.2294H70.4217v2.0313h1.3334a1.15,1.15,0,0,0,.7874-.2481A.9975.9975,0,0,0,72.8236,189.2371Zm1.417-.0093a2.1261,2.1261,0,0,1-.6132,1.727,2.6872,2.6872,0,0,1-1.7515.5054H70.4217v2.4805H69v-6.8986h2.9827a2.4181,2.4181,0,0,1,1.6447.5336A2.0756,2.0756,0,0,1,74.2406,189.2278Zm3.8389-.51q.0372,0,.0628.0024t.1138.007v1.3666q-.1256-.0141-.223-.0187t-.158-.0047a1.0958,1.0958,0,0,0-1.0732.5242,2.0525,2.0525,0,0,0-.1533.9079v2.4384H75.3152v-5.1014h1.2637v.8892a2.8171,2.8171,0,0,1,.5343-.6973A1.4478,1.4478,0,0,1,78.08,188.7176ZM81.4259,193a1.0467,1.0467,0,0,0,.8921-.4165,2.4039,2.4039,0,0,0,0-2.3659,1.17,1.17,0,0,0-1.7864,0,2.3879,2.3879,0,0,0,0,2.3659A1.0527,1.0527,0,0,0,81.4259,193Zm2.5925-1.6006a2.9709,2.9709,0,0,1-.6412,1.9212,2.7733,2.7733,0,0,1-3.8933,0,3.1887,3.1887,0,0,1,0-3.8354,2.7449,2.7449,0,0,1,3.8933,0A2.9906,2.9906,0,0,1,84.0184,191.3994Zm2.4544-3.1685H85.1487V187h1.3241Zm-1.9606,6.688q.1114.0093.1579.0117t.0837.0023a.41.41,0,0,0,.295-.0959.5184.5184,0,0,0,.1-.3721v-5.6022h1.3241v5.6256a1.7874,1.7874,0,0,1-.302,1.142,1.4871,1.4871,0,0,1-1.1847.37q-.06,0-.1789-.0047t-.295-.0093Zm5.3395-5.1155a.8965.8965,0,0,0-.7132.29,1.4543,1.4543,0,0,0-.3182.7863h2.0582a1.1658,1.1658,0,0,0-.3183-.8027A.9843.9843,0,0,0,89.8517,189.8034Zm0-1.1a2.6382,2.6382,0,0,1,1.1383.2387,1.9986,1.9986,0,0,1,.8362.7535,2.5824,2.5824,0,0,1,.3857,1.053,6.8605,6.8605,0,0,1,.0418,1.011H88.7878a1.2714,1.2714,0,0,0,.4785,1.0764,1.1215,1.1215,0,0,0,.66.1919.9452.9452,0,0,0,.6644-.234,1.1123,1.1123,0,0,0,.2462-.351h1.352a1.6969,1.6969,0,0,1-.4692.922,2.2906,2.2906,0,0,1-1.8212.7441,2.3646,2.3646,0,0,1-2.4438-2.6677,2.849,2.849,0,0,1,.6667-2.0312A2.2711,2.2711,0,0,1,89.8517,188.7036Zm6.4406,1.9657a1.1883,1.1883,0,0,0-.1905-.5149.7961.7961,0,0,0-.6922-.3088.9123.9123,0,0,0-.9153.6692,2.8183,2.8183,0,0,0-.13.9454,2.5911,2.5911,0,0,0,.13.9033.8841.8841,0,0,0,.8921.6365.7835.7835,0,0,0,.66-.2527,1.2629,1.2629,0,0,0,.2369-.6553h1.352a2.2414,2.2414,0,0,1-.4367,1.1514,2.1176,2.1176,0,0,1-1.8445.8752,2.15,2.15,0,0,1-1.798-.73,2.97,2.97,0,0,1-.5761-1.8955,3.0128,3.0128,0,0,1,.6365-2.0453,2.2081,2.2081,0,0,1,1.7562-.73,2.63,2.63,0,0,1,1.5587.4306,2.008,2.008,0,0,1,.7178,1.5211Zm1.869-.8331v-.95h.7062v-1.4228h1.31v1.4228H101v.95h-.8223v2.6958a.6114.6114,0,0,0,.0789.3908A.8645.8645,0,0,0,100.74,193q.06,0,.1278-.0023t.1324-.0071v.9969l-.6272.0234a1.6739,1.6739,0,0,1-1.2823-.3276.98.98,0,0,1-.223-.7067v-3.14Z" fill="#fff"/><path d="M103.8244,190.693v2.5157h.7831a.8442.8442,0,0,0,.8382-.5623,1.8911,1.8911,0,0,0,.13-.7348,1.7312,1.7312,0,0,0-.1944-.9035.8387.8387,0,0,0-.7734-.3151Zm.9265-.6695a2.2452,2.2452,0,0,1,.6287.0837,1.3376,1.3376,0,0,1,.692.489,1.673,1.673,0,0,1,.29.6224,2.8454,2.8454,0,0,1,.0772.6381,2.457,2.457,0,0,1-.3254,1.3023,1.4859,1.4859,0,0,1-1.3621.7191H103v-3.8546Zm3.5219,1.5429a.5486.5486,0,0,0-.4233.1622.7878.7878,0,0,0-.1889.4393h1.2215a.6319.6319,0,0,0-.1888-.4485A.6047.6047,0,0,0,108.2728,191.5664Zm0-.6145a1.6468,1.6468,0,0,1,.6755.1334,1.1644,1.1644,0,0,1,.4963.421,1.39,1.39,0,0,1,.2289.5884,3.6046,3.6046,0,0,1,.0248.5648h-2.057a.6446.6446,0,0,0,.6756.7087.5824.5824,0,0,0,.3943-.1308.6226.6226,0,0,0,.1461-.1961h.8024a.9289.9289,0,0,1-.2785.5152,1.4018,1.4018,0,0,1-1.0809.4158,1.5747,1.5747,0,0,1-1.0119-.35,1.3745,1.3745,0,0,1-.4384-1.14,1.534,1.534,0,0,1,.3957-1.1349A1.3907,1.3907,0,0,1,108.2728,190.9519Zm2.6395,2.0162a.4828.4828,0,0,0,.1075.2824.7537.7537,0,0,0,.54.1491.8625.8625,0,0,0,.3681-.0654.2143.2143,0,0,0,.0262-.387,4.666,4.666,0,0,0-.819-.2249,1.75,1.75,0,0,1-.72-.3008.6348.6348,0,0,1-.21-.5125.87.87,0,0,1,.3268-.6786,1.3581,1.3581,0,0,1,.9195-.2837,1.7594,1.7594,0,0,1,.9168.2131.9014.9014,0,0,1,.4067.7361H111.99a.4264.4264,0,0,0-.0855-.2275.5539.5539,0,0,0-.4411-.1517.6613.6613,0,0,0-.3654.0759.216.216,0,0,0-.1089.1778.1936.1936,0,0,0,.1158.1857,5.2374,5.2374,0,0,0,.8189.2066,1.5383,1.5383,0,0,1,.7031.3164.7.7,0,0,1,.2317.5361.8485.8485,0,0,1-.3323.6917,1.623,1.623,0,0,1-1.0271.268,1.6058,1.6058,0,0,1-1.0464-.2837.9029.9029,0,0,1-.3378-.7231Zm4.3959-.9179a.6414.6414,0,0,0-.113-.2876.4849.4849,0,0,0-.4109-.1726.5392.5392,0,0,0-.5432.3739,1.491,1.491,0,0,0-.0772.5283,1.3713,1.3713,0,0,0,.0772.5047.5233.5233,0,0,0,.5295.3556.48.48,0,0,0,.3915-.1412.6809.6809,0,0,0,.1406-.3661h.8024a1.21,1.21,0,0,1-.2592.6433,1.2859,1.2859,0,0,1-1.0946.489,1.315,1.315,0,0,1-1.0671-.4079,1.593,1.593,0,0,1-.3419-1.0591,1.6188,1.6188,0,0,1,.3777-1.1428,1.35,1.35,0,0,1,1.0423-.408,1.6331,1.6331,0,0,1,.9251.2406,1.1,1.1,0,0,1,.426.85Zm3.05-1.09.0372.0013.0676.004v.7636q-.0745-.008-.1324-.0105t-.0937-.0026a.6628.6628,0,0,0-.637.2929,1.0884,1.0884,0,0,0-.091.5073v1.3624h-.7913v-2.85h.75v.4969a1.5926,1.5926,0,0,1,.3171-.39A.8943.8943,0,0,1,118.3586,190.96Zm1.4456-.2719h-.7969V190h.7969Zm-.7969.34h.7969v2.85h-.7969Zm3.7011,1.4252a1.077,1.077,0,0,0-.1585-.5831.56.56,0,0,0-.5142-.2537.5848.5848,0,0,0-.5874.3844,1.3907,1.3907,0,0,0-.0827.5178.8048.8048,0,0,0,.2785.6982.6576.6576,0,0,0,.3916.1177.5772.5772,0,0,0,.5-.2406A1.0779,1.0779,0,0,0,122.7084,192.4529Zm-.4466-1.4879a1.2076,1.2076,0,0,1,.8919.3687,1.4756,1.4756,0,0,1,.3654,1.0826,1.6565,1.6565,0,0,1-.3571,1.148,1.183,1.183,0,0,1-.9195.3949.9967.9967,0,0,1-.5956-.17,1.1153,1.1153,0,0,1-.2537-.2746V195h-.7776v-3.9723h.7528v.421a1.217,1.217,0,0,1,.27-.2928A1.0292,1.0292,0,0,1,122.2618,190.965Zm1.5889.62v-.5308h.4192v-.795h.7775v.795h.4881v.5308h-.4881v1.5063q0,.1752.0469.2184a.5411.5411,0,0,0,.2868.0431c.0239,0,.0491,0,.0758-.0013s.0528-.0022.0786-.0039v.557l-.3723.0131a1.0378,1.0378,0,0,1-.761-.1831.5273.5273,0,0,1-.1323-.3949v-1.7547Zm3.07-.8969h-.7968V190h.7968Zm-.7968.34h.7968v2.85h-.7968Zm2.9786,2.3248a.6363.6363,0,0,0,.5294-.2327,1.2744,1.2744,0,0,0,0-1.3219.7227.7227,0,0,0-1.06,0,1.2668,1.2668,0,0,0,0,1.3219A.6405.6405,0,0,0,129.1022,193.3525Zm1.5386-.8943a1.598,1.598,0,0,1-.3805,1.0734,1.72,1.72,0,0,1-2.3106,0,1.6989,1.6989,0,0,1,0-2.143,1.7014,1.7014,0,0,1,2.3106,0A1.6088,1.6088,0,0,1,130.6408,192.4582Zm2.3-1.4985a1.2023,1.2023,0,0,1,.7624.2315.9154.9154,0,0,1,.2964.7675v1.9194h-.8051v-1.7337a.7549.7549,0,0,0-.0635-.3452.4519.4519,0,0,0-.4411-.22.55.55,0,0,0-.5487.3217,1.0535,1.0535,0,0,0-.0772.4341v1.5428h-.7831v-2.8452h.7583v.4158a1.2878,1.2878,0,0,1,.2867-.3164A1.0357,1.0357,0,0,1,132.9412,190.96Z" fill="#8c8c8c"/><path d="M71.3315,203.1852v1.8333h1.5438a1.6513,1.6513,0,0,0,.69-.1111.7669.7669,0,0,0,.407-.7685.8594.8594,0,0,0-.3937-.8333,1.43,1.43,0,0,0-.6636-.12ZM73.1983,202a2.8617,2.8617,0,0,1,1.055.1759,1.6547,1.6547,0,0,1,.6259.4769,2.131,2.131,0,0,1,.3362.5741,1.9471,1.9471,0,0,1,.1239.7175,2.1207,2.1207,0,0,1-.2345.9561,1.326,1.326,0,0,1-.7741.6643,1.231,1.231,0,0,1,.6392.5394,2.3358,2.3358,0,0,1,.188,1.0671v.4583a3.6651,3.6651,0,0,0,.0354.6343.5716.5716,0,0,0,.2477.3889v.1713h-1.5q-.062-.2269-.0885-.3658a3.525,3.525,0,0,1-.0575-.5879l-.0088-.6343a1.28,1.28,0,0,0-.2278-.87,1.17,1.17,0,0,0-.8206-.2176H71.3315v2.676H70V202Zm5.4909,5.8935a.9828.9828,0,0,0,.8493-.412,2.458,2.458,0,0,0,0-2.34,1.0875,1.0875,0,0,0-1.7009,0,2.4421,2.4421,0,0,0,0,2.34A.9886.9886,0,0,0,78.6892,207.8935Zm2.4683-1.5833a3.0135,3.0135,0,0,1-.61,1.9,2.5707,2.5707,0,0,1-3.707,0,3.2528,3.2528,0,0,1,0-3.7939,2.545,2.545,0,0,1,3.707,0A3.0336,3.0336,0,0,1,81.1575,206.31Zm2.306,2.5139H82.2028V202h1.2607Zm3.2481-4.0926a.838.838,0,0,0-.679.287,1.469,1.469,0,0,0-.303.7778h1.96a1.177,1.177,0,0,0-.3031-.794A.9182.9182,0,0,0,86.7116,204.7315Zm0-1.088a2.4317,2.4317,0,0,1,1.0838.2361,1.93,1.93,0,0,1,.7963.7454,2.6176,2.6176,0,0,1,.3671,1.0417,7.0281,7.0281,0,0,1,.04,1h-3.3a1.2776,1.2776,0,0,0,.4557,1.0648,1.039,1.039,0,0,0,.6281.19.88.88,0,0,0,.6326-.2315,1.0991,1.0991,0,0,0,.2344-.3472h1.2873a1.7032,1.7032,0,0,1-.4468.912,2.1417,2.1417,0,0,1-1.734.7361,2.3811,2.3811,0,0,1-1.6235-.62,2.5666,2.5666,0,0,1-.7033-2.0185,2.8883,2.8883,0,0,1,.6348-2.0093A2.1222,2.1222,0,0,1,86.7116,203.6435Z" fill="#fff"/><path d="M91.7978,205.693v2.5157h.7579a.8174.8174,0,0,0,.8111-.5623,1.9453,1.9453,0,0,0,.1255-.7348,1.7778,1.7778,0,0,0-.1882-.9035.8.8,0,0,0-.7484-.3151Zm.8966-.6695a2.1071,2.1071,0,0,1,.6084.0837,1.2968,1.2968,0,0,1,.67.489,1.7,1.7,0,0,1,.28.6224,2.9263,2.9263,0,0,1,.0748.6381,2.5214,2.5214,0,0,1-.3149,1.3023,1.4268,1.4268,0,0,1-1.3182.7191H91v-3.8546Zm3.4083,1.5429a.5217.5217,0,0,0-.41.1622.8.8,0,0,0-.1828.4393h1.1821a.6425.6425,0,0,0-.1828-.4485A.5739.5739,0,0,0,96.1027,206.5664Zm0-.6145a1.5493,1.5493,0,0,1,.6537.1334,1.1375,1.1375,0,0,1,.48.421,1.418,1.418,0,0,1,.2215.5884,3.7142,3.7142,0,0,1,.024.5648H95.4916a.703.703,0,0,0,.2749.6015.6565.6565,0,0,0,.3789.1072.5518.5518,0,0,0,.3815-.1308.62.62,0,0,0,.1415-.1961h.7765a.9391.9391,0,0,1-.27.5152,1.334,1.334,0,0,1-1.046.4158,1.4929,1.4929,0,0,1-.9793-.35,1.398,1.398,0,0,1-.4243-1.14,1.5646,1.5646,0,0,1,.3829-1.1349A1.3228,1.3228,0,0,1,96.1027,205.9519Zm2.5544,2.0162a.4922.4922,0,0,0,.104.2824.7129.7129,0,0,0,.523.1491.8113.8113,0,0,0,.3563-.0654.2173.2173,0,0,0,.0253-.387,4.403,4.403,0,0,0-.7925-.2249,1.6655,1.6655,0,0,1-.6964-.3008.6451.6451,0,0,1-.2028-.5125.8813.8813,0,0,1,.3162-.6786,1.2863,1.2863,0,0,1,.89-.2837,1.6586,1.6586,0,0,1,.8872.2131.9082.9082,0,0,1,.3936.7361H99.7a.4363.4363,0,0,0-.0827-.2275.5264.5264,0,0,0-.427-.1517.6228.6228,0,0,0-.3535.0759.2172.2172,0,0,0-.1054.1778.1942.1942,0,0,0,.112.1857,4.94,4.94,0,0,0,.7925.2066,1.4675,1.4675,0,0,1,.68.3164.7111.7111,0,0,1,.2241.5361.8593.8593,0,0,1-.3215.6917,1.5335,1.5335,0,0,1-.994.268,1.5178,1.5178,0,0,1-1.0126-.2837.9152.9152,0,0,1-.3269-.7231Zm4.2541-.9179a.6529.6529,0,0,0-.1094-.2876.4625.4625,0,0,0-.3976-.1726.5227.5227,0,0,0-.5257.3739,1.5352,1.5352,0,0,0-.0747.5283,1.4116,1.4116,0,0,0,.0747.5047.5069.5069,0,0,0,.5124.3556.4567.4567,0,0,0,.3789-.1412.6952.6952,0,0,0,.1361-.3661h.7764a1.2481,1.2481,0,0,1-1.31,1.1323,1.2517,1.2517,0,0,1-1.0327-.4079,1.6283,1.6283,0,0,1-.3309-1.0591,1.653,1.653,0,0,1,.3656-1.1428,1.285,1.285,0,0,1,1.0087-.408,1.5418,1.5418,0,0,1,.8952.2406,1.1115,1.1115,0,0,1,.4123.85Zm2.952-1.09.036.0013.0654.004v.7636q-.0722-.008-.1281-.0105t-.0907-.0026a.6344.6344,0,0,0-.6164.2929,1.1191,1.1191,0,0,0-.0881.5073v1.3624h-.7658v-2.85h.7258v.4969a1.5848,1.5848,0,0,1,.3068-.39A.847.847,0,0,1,105.8632,205.96Zm1.3989-.2719h-.7711V205h.7711Zm-.7711.34h.7711v2.85h-.7711Zm3.5817,1.4252a1.1051,1.1051,0,0,0-.1534-.5831.5371.5371,0,0,0-.4977-.2537.5659.5659,0,0,0-.5684.3844,1.4332,1.4332,0,0,0-.08.5178.8174.8174,0,0,0,.2695.6982.6218.6218,0,0,0,.3789.1177.5525.5525,0,0,0,.4843-.2406A1.1047,1.1047,0,0,0,110.0727,207.4529Zm-.4323-1.4879a1.15,1.15,0,0,1,.8632.3687,1.5061,1.5061,0,0,1,.3536,1.0826,1.6934,1.6934,0,0,1-.3456,1.148,1.1281,1.1281,0,0,1-.89.3949.9419.9419,0,0,1-.5763-.17,1.1014,1.1014,0,0,1-.2455-.2746V210h-.7525v-3.9723h.7285v.421a1.2034,1.2034,0,0,1,.2615-.2928A.9736.9736,0,0,1,109.64,205.965Zm1.5377.62v-.5308h.4056v-.795h.7525v.795h.4723v.5308h-.4723v1.5063a.3337.3337,0,0,0,.0454.2184.5088.5088,0,0,0,.2775.0431q.0346,0,.0734-.0013t.076-.0039v.557l-.36.0131a.9807.9807,0,0,1-.7365-.1831.538.538,0,0,1-.1281-.3949v-1.7547Zm2.9707-.8969h-.7712V205h.7712Zm-.7712.34h.7712v2.85h-.7712Zm2.8826,2.3248a.6077.6077,0,0,0,.5124-.2327,1.3117,1.3117,0,0,0,0-1.3219.6841.6841,0,0,0-1.026,0,1.3022,1.3022,0,0,0,0,1.3219A.6112.6112,0,0,0,116.26,208.3525Zm1.489-.8943a1.631,1.631,0,0,1-.3683,1.0734,1.6246,1.6246,0,0,1-2.2361,0,1.7432,1.7432,0,0,1,0-2.143,1.6078,1.6078,0,0,1,2.2361,0A1.6421,1.6421,0,0,1,117.7492,207.4582Zm2.2261-1.4985a1.1382,1.1382,0,0,1,.7379.2315.931.931,0,0,1,.2868.7675v1.9194h-.7792v-1.7337a.7775.7775,0,0,0-.0613-.3452.4338.4338,0,0,0-.427-.22.53.53,0,0,0-.531.3217,1.0852,1.0852,0,0,0-.0747.4341v1.5428h-.7578v-2.8452h.7338v.4158a1.2722,1.2722,0,0,1,.2775-.3164A.9786.9786,0,0,1,119.9753,205.96Z" fill="#8c8c8c"/><polygon points="68 159 212 159 212 54 68 54 68 159" fill="#819fb3" fill-rule="evenodd"/><polygon points="102.161 127.766 129.659 142.274 172.617 96 212 157.649 73 158 102.161 127.766" fill="#eef8ff" fill-opacity="0.73" fill-rule="evenodd"/><path d="M70,172.75l43-.5" fill="none" stroke="#fff" stroke-linecap="square" stroke-width="3.4485"/><path d="M120,172.75l43-.5" fill="none" stroke="#819fb3" stroke-linecap="square" stroke-width="3.4485"/><path d="M169,172.75l43-.5" fill="none" stroke="#819fb3" stroke-linecap="square" stroke-width="3.4485"/><path d="M128,102a3.637,3.637,0,0,1-1.7934-.4735l-7.4153-4.23A3.5386,3.5386,0,0,1,117,94.2305v-8.459a3.5417,3.5417,0,0,1,1.7913-3.0674l7.4153-4.2306a3.6291,3.6291,0,0,1,3.5847,0l7.4174,4.2306A3.5417,3.5417,0,0,1,139,85.7715v8.459a3.5386,3.5386,0,0,1-1.7913,3.0655l-7.4174,4.23A3.63,3.63,0,0,1,128,102" fill="#fefefe" fill-rule="evenodd"/><path d="M128,77a4.6574,4.6574,0,0,0-2.3091.6108l-7.3839,4.2177A4.5546,4.5546,0,0,0,116,85.7812v8.4334a4.5554,4.5554,0,0,0,2.307,3.9548l7.3839,4.2177a4.6523,4.6523,0,0,0,4.6161,0l7.386-4.2177A4.5554,4.5554,0,0,0,140,94.2146V85.7812a4.5546,4.5546,0,0,0-2.307-3.9527l-7.386-4.2177A4.65,4.65,0,0,0,128,77m-.4615,1.8571a2.4255,2.4255,0,0,1,1.233.34l7.2262,4.3a2.5676,2.5676,0,0,1,1.2331,2.2018v8.598a2.566,2.566,0,0,1-1.2331,2.2039l-7.2262,4.3a2.3974,2.3974,0,0,1-2.4681,0l-7.2242-4.3a2.5613,2.5613,0,0,1-1.233-2.2039v-8.598a2.5629,2.5629,0,0,1,1.233-2.2018l7.2242-4.3a2.4382,2.4382,0,0,1,1.2351-.34" fill="#c8282c" fill-rule="evenodd"/><g style="isolation:isolate"><g style="isolation:isolate"><path d="M83.0093,102.6621l-2.7251,2.7256,2.7251,2.7246a.322.322,0,0,1,0,.4619l-.8521.8516a.322.322,0,0,1-.4619,0l-3.8076-3.8076a.3145.3145,0,0,1-.0977-.2305.3184.3184,0,0,1,.0977-.2315l3.8076-3.8076a.322.322,0,0,1,.4619,0l.8521.8516a.3181.3181,0,0,1,.0976.2314A.3143.3143,0,0,1,83.0093,102.6621Z" fill="#fff"/></g></g><g style="isolation:isolate"><g style="isolation:isolate"><path d="M204.6807,105.6182l-3.8077,3.8076a.322.322,0,0,1-.4619,0l-.8515-.8516a.3218.3218,0,0,1,0-.4619l2.7246-2.7246-2.7246-2.7256a.3121.3121,0,0,1-.0977-.23.3158.3158,0,0,1,.0977-.2314l.8515-.8516a.322.322,0,0,1,.4619,0l3.8077,3.8076a.3163.3163,0,0,1,.0976.2315A.3125.3125,0,0,1,204.6807,105.6182Z" fill="#fff"/></g></g><path d="M68.3455,21.2777a3.0392,3.0392,0,0,1,.7772-2.2341,2.6277,2.6277,0,0,1,3.7624.2328,1.9831,1.9831,0,0,1,.383,1.0326H72.1116a1.562,1.562,0,0,0-.2891-.6008,1.1762,1.1762,0,0,0-.935-.3605,1.159,1.159,0,0,0-.995.5088,2.4452,2.4452,0,0,0-.3643,1.44,2.1464,2.1464,0,0,0,.3849,1.3949,1.2161,1.2161,0,0,0,.9782.4638,1.1186,1.1186,0,0,0,.9274-.3981,1.7281,1.7281,0,0,0,.2929-.6421h1.1452a2.4847,2.4847,0,0,1-.7678,1.472,2.2492,2.2492,0,0,1-1.5827.5669,2.3875,2.3875,0,0,1-1.8775-.7659A3.0661,3.0661,0,0,1,68.3455,21.2777Zm7.4056.6308h1.4044l-.6909-2.1778Zm.0714-3.4432h1.3067L79.0892,24H77.8351l-.3567-1.1377H75.44L75.0565,24H73.8474Zm4.9049,3.8262a1.1369,1.1369,0,0,0,.2065.567,1.1885,1.1885,0,0,0,.965.3417,2.0368,2.0368,0,0,0,.6647-.09.6423.6423,0,0,0,.4843-.6421.4738.4738,0,0,0-.24-.4243,2.5852,2.5852,0,0,0-.7547-.2591l-.5858-.1314a3.7024,3.7024,0,0,1-1.194-.4243,1.35,1.35,0,0,1-.5595-1.1978,1.6,1.6,0,0,1,.5407-1.2354,2.2863,2.2863,0,0,1,1.5883-.4919,2.4147,2.4147,0,0,1,1.4926.4638,1.6554,1.6554,0,0,1,.6477,1.3461H82.8715a.7943.7943,0,0,0-.4356-.71,1.461,1.461,0,0,0-.6721-.1389,1.2557,1.2557,0,0,0-.7135.18.5741.5741,0,0,0-.2666.5032.4765.4765,0,0,0,.2629.4431,3.22,3.22,0,0,0,.7209.229l.9538.2291a2.4659,2.4659,0,0,1,.9462.4017,1.3534,1.3534,0,0,1,.4956,1.13,1.5949,1.5949,0,0,1-.58,1.26,2.43,2.43,0,0,1-1.639.5013,2.6587,2.6587,0,0,1-1.701-.4938,1.6408,1.6408,0,0,1-.6195-1.3574Zm8.4834-2.8462H86.282v1.1753h2.6885v.9613H86.282V23.005h3.0639V24H85.1517V18.4653h4.0591Zm3.3177.8v-.7284a4.7591,4.7591,0,0,0,.71-.0676,1.0012,1.0012,0,0,0,.5257-.2854.94.94,0,0,0,.21-.39.8977.8977,0,0,0,.0413-.2178h.89V24H93.8089V20.2451Zm5.5657-1.9488h.89L96.8326,24H95.95ZM98.8463,24a2.5581,2.5581,0,0,1,.2516-1.07,3.0247,3.0247,0,0,1,1.0814-1.1528,7.9388,7.9388,0,0,0,.9575-.7585,1.1207,1.1207,0,0,0,.3341-.781.8651.8651,0,0,0-.1915-.5745.7808.7808,0,0,0-1.2128.1352,1.8063,1.8063,0,0,0-.12.6684h-1.04a2.6306,2.6306,0,0,1,.2515-1.1228,1.567,1.567,0,0,1,1.5208-.8148,1.9284,1.9284,0,0,1,1.3743.4788,1.6556,1.6556,0,0,1,.5106,1.2673,1.7154,1.7154,0,0,1-.36,1.0739,3.5908,3.5908,0,0,1-.7772.6946l-.4281.3042q-.4017.2853-.55.413a1.2129,1.2129,0,0,0-.25.2966h2.3769V24Z" fill="#819fb3"/></svg>
