<?xml version="1.0" encoding="UTF-8"?>
<svg width="279px" height="207px" viewBox="0 0 279 207" version="1.1" xmlns="http://www.w3.org/2000/svg" xmlns:xlink="http://www.w3.org/1999/xlink">
    <!-- Generator: Sketch 54.1 (76490) - https://sketchapp.com -->
    <title>Large MIssion Statement + Image</title>
    <desc>Created with Sketch.</desc>
    <g id="Large-MIssion-Statement-+-Image" stroke="none" stroke-width="1" fill="none" fill-rule="evenodd">
        <rect id="Rectangle-Copy-13" fill="#313131" x="0" y="0" width="279" height="207"></rect>
        <g id="Section" transform="translate(33.000000, 53.000000)">
            <g id="1-paragraph" transform="translate(0.000000, 1.149500)">
                <rect id="Rectangle" fill="#C8282C" x="26.4385" y="90.8105" width="45.98" height="8.0465" rx="4.02325"></rect>
                <path d="M0,39.083 L98.857,39.083" id="Line-Copy-2" stroke="#FFFFFF" stroke-linecap="square"></path>
                <path d="M0,57.475 L98.857,57.475" id="Line-Copy-4" stroke="#FFFFFF" stroke-linecap="square"></path>
                <path d="M21.8405,75.867 L78.166,75.867" id="Line-Copy-5" stroke="#FFFFFF" stroke-linecap="square"></path>
                <path d="M16.04473,5.1081377 L20.5203711,5.1081377 L20.5203711,20 L17.6208022,20 L17.6208022,9.92728174 C17.6208022,9.63766017 17.6241699,9.2318593 17.6309053,8.70986694 C17.6376407,8.18787459 17.6410083,7.78544136 17.6410083,7.50255518 L14.8222637,20 L11.8014585,20 L9.00291992,7.50255518 C9.00291992,7.78544136 9.00628756,8.18787459 9.01302295,8.70986694 C9.01975833,9.2318593 9.02312598,9.63766017 9.02312598,9.92728174 L9.02312598,20 L6.12355713,20 L6.12355713,5.1081377 L10.6497134,5.1081377 L13.3573247,16.8175464 L16.04473,5.1081377 Z M26.524425,20 L23.4328987,20 L23.4328987,5.1081377 L26.524425,5.1081377 L26.524425,20 Z M31.9425034,15.4031226 C32.0367988,16.0833965 32.2220191,16.5919104 32.4981699,16.9286797 C33.0033238,17.5415997 33.8688078,17.8480552 35.0946479,17.8480552 C35.8288049,17.8480552 36.4248776,17.7672318 36.8828838,17.6055825 C37.7517485,17.2957548 38.1861743,16.719888 38.1861743,15.8779648 C38.1861743,15.3862817 37.9706452,15.0057382 37.5395805,14.7363228 C37.1085159,14.4736427 36.4316198,14.2412754 35.508872,14.0392139 L33.9327998,13.6856079 C32.3836612,13.3353679 31.312751,12.9548243 30.7200371,12.5439658 C29.7164647,11.8569565 29.214686,10.7826787 29.214686,9.3211001 C29.214686,7.98749382 29.6996265,6.87953957 30.6695219,5.9972041 C31.6394174,5.11486864 33.06393,4.67370752 34.9431025,4.67370752 C36.5124473,4.67370752 37.851085,5.08961132 38.9590559,5.9214314 C40.0670267,6.75325147 40.647945,7.96055117 40.7018281,9.5433667 L37.711332,9.5433667 C37.6574489,8.64756046 37.2668024,8.0110761 36.5393808,7.63389453 C36.0544331,7.38468528 35.4516252,7.26008252 34.7309389,7.26008252 C33.9294281,7.26008252 33.2895761,7.42172934 32.8113637,7.74502783 C32.3331514,8.06832632 32.0940488,8.51959037 32.0940488,9.0988335 C32.0940488,9.63092893 32.3297837,10.0283107 32.8012607,10.2909907 C33.104353,10.4661107 33.7509403,10.6715369 34.741042,10.9072754 L37.3072109,11.5235601 C38.4320202,11.7929755 39.280666,12.1533132 39.8531738,12.604584 C40.7422446,13.305064 41.1867734,14.3187243 41.1867734,15.6455952 C41.1867734,17.006143 40.6664727,18.135987 39.6258557,19.0351609 C38.5852387,19.9343348 37.1152629,20.383915 35.2158842,20.383915 C33.2760933,20.383915 31.7505514,19.9410701 30.6392129,19.0553669 C29.5278743,18.1696638 28.9722133,16.9522612 28.9722133,15.4031226 L31.9425034,15.4031226 Z M46.0087731,15.4031226 C46.1030685,16.0833965 46.2882889,16.5919104 46.5644396,16.9286797 C47.0695935,17.5415997 47.9350776,17.8480552 49.1609177,17.8480552 C49.8950747,17.8480552 50.4911473,17.7672318 50.9491535,17.6055825 C51.8180182,17.2957548 52.252444,16.719888 52.252444,15.8779648 C52.252444,15.3862817 52.0369149,15.0057382 51.6058503,14.7363228 C51.1747856,14.4736427 50.4978896,14.2412754 49.5751418,14.0392139 L47.9990695,13.6856079 C46.4499309,13.3353679 45.3790207,12.9548243 44.7863068,12.5439658 C43.7827344,11.8569565 43.2809558,10.7826787 43.2809558,9.3211001 C43.2809558,7.98749382 43.7658962,6.87953957 44.7357917,5.9972041 C45.7056872,5.11486864 47.1301998,4.67370752 49.0093723,4.67370752 C50.578717,4.67370752 51.9173548,5.08961132 53.0253256,5.9214314 C54.1332965,6.75325147 54.7142148,7.96055117 54.7680978,9.5433667 L51.7776018,9.5433667 C51.7237187,8.64756046 51.3330722,8.0110761 50.6056506,7.63389453 C50.1207028,7.38468528 49.5178949,7.26008252 48.7972087,7.26008252 C47.9956978,7.26008252 47.3558458,7.42172934 46.8776335,7.74502783 C46.3994211,8.06832632 46.1603186,8.51959037 46.1603186,9.0988335 C46.1603186,9.63092893 46.3960535,10.0283107 46.8675305,10.2909907 C47.1706228,10.4661107 47.8172101,10.6715369 48.8073117,10.9072754 L51.3734807,11.5235601 C52.49829,11.7929755 53.3469358,12.1533132 53.9194436,12.604584 C54.8085144,13.305064 55.2530432,14.3187243 55.2530432,15.6455952 C55.2530432,17.006143 54.7327425,18.135987 53.6921254,19.0351609 C52.6515084,19.9343348 51.1815326,20.383915 49.282154,20.383915 C47.3423631,20.383915 45.8168212,19.9410701 44.7054826,19.0553669 C43.5941441,18.1696638 43.0384831,16.9522612 43.0384831,15.4031226 L46.0087731,15.4031226 Z M60.6711215,20 L57.5795951,20 L57.5795951,5.1081377 L60.6711215,5.1081377 L60.6711215,20 Z M70.4233986,17.777334 C71.6559741,17.777334 72.6342741,17.3227023 73.358328,16.4134253 C74.082382,15.5041483 74.4444035,14.2109737 74.4444035,12.5338628 C74.4444035,10.8634873 74.082382,9.57199651 73.358328,8.65935181 C72.6342741,7.74670711 71.6559741,7.2903916 70.4233986,7.2903916 C69.1908231,7.2903916 68.2074716,7.74502329 67.4733146,8.65430029 C66.7391576,9.5635773 66.3720846,10.8567519 66.3720846,12.5338628 C66.3720846,14.2109737 66.7391576,15.5041483 67.4733146,16.4134253 C68.2074716,17.3227023 69.1908231,17.777334 70.4233986,17.777334 Z M77.5561359,12.5338628 C77.5561359,15.2078107 76.8051517,17.2553371 75.3031608,18.6765034 C74.1783515,19.8349897 72.5517803,20.4142241 70.4233986,20.4142241 C68.2950169,20.4142241 66.6684457,19.8349897 65.5436364,18.6765034 C64.0349101,17.2553371 63.2805583,15.2078107 63.2805583,12.5338628 C63.2805583,9.80603177 64.0349101,7.75850537 65.5436364,6.39122217 C66.6684457,5.23273591 68.2950169,4.65350146 70.4233986,4.65350146 C72.5517803,4.65350146 74.1783515,5.23273591 75.3031608,6.39122217 C76.8051517,7.75850537 77.5561359,9.80603177 77.5561359,12.5338628 Z M80.1453666,5.1081377 L83.4086444,5.1081377 L89.3391215,15.5041528 L89.3391215,5.1081377 L92.2386903,5.1081377 L92.2386903,20 L89.1269579,20 L83.0449354,9.42213037 L83.0449354,20 L80.1453666,20 L80.1453666,5.1081377 Z" id="MISSION" fill="#FFFFFF" fill-rule="nonzero"></path>
            </g>
            <g id="IMG" transform="translate(135.641000, 0.000000)">
                <g id="Group-22">
                    <polygon id="Fill-1" fill="#63CAE4" points="1.11711972 98.5850595 78.1983803 98.5850595 78.1983803 1.0833523 1.11711972 1.0833523"></polygon>
                    <polygon id="Fill-2" fill="#819FB3" points="0 99.6684118 79.3155 99.6684118 79.3155 0 0 0"></polygon>
                    <g id="Group-21" transform="translate(0.000000, 10.833523)">
                        <polygon id="Fill-3" fill="#D0E0EA" points="1.11711972 87.7515364 18.6465128 49.1723741 33.4317576 66.5347256 52.4139351 20.5836937 74.8470211 87.7515364"></polygon>
                        <path d="M53.7613864,15.1669322 L34.2117914,62.8344335 L19.5495951,45.5007967 L0,88.8348887 L78.1983803,88.8348887 L53.7613864,15.1669322 Z M53.6298764,24.9171029 L73.7299014,85.5848318 L5.58559859,85.5848318 L20.8255661,51.7561238 L32.0722653,65.0550481 L35.5135483,69.1334423 L37.5360567,64.1980254 L53.6298764,24.9171029 Z" id="Fill-4" fill="#D0E0EA"></path>
                        <path d="M11.3258066,9.69080301 L11.3258066,15.2072329 C11.3258066,17.304603 12.4786741,19.2416369 14.3509667,20.2903219 L19.2752305,23.0463702 C21.1475231,24.0950552 23.4532582,24.0950552 25.3255509,23.0463702 L30.2498146,20.2903219 C32.1221072,19.2416369 33.2749748,17.304603 33.2749748,15.2072329 L33.2749748,9.69080301 C33.2749748,7.59776636 32.1221072,5.65639904 30.2498146,4.61204742 L25.3255509,1.85166575 C23.4532582,0.802980726 21.1475231,0.802980726 19.2752305,1.85166575 L14.3509667,4.61204742 C12.4786741,5.65639904 11.3258066,7.59776636 11.3258066,9.69080301" id="Fill-5" fill="#FEFEFE"></path>
                        <path d="M11.3258066,9.69080301 L11.3258066,15.2072329 C11.3258066,17.304603 12.4786741,19.2416369 14.3509667,20.2903219 L19.2752305,23.0463702 C21.1475231,24.0950552 23.4532582,24.0950552 25.3255509,23.0463702 L30.2498146,20.2903219 C32.1221072,19.2416369 33.2749748,17.304603 33.2749748,15.2072329 L33.2749748,9.69080301 C33.2749748,7.59776636 32.1221072,5.65639904 30.2498146,4.61204742 L25.3255509,1.85166575 C23.4532582,0.802980726 21.1475231,0.802980726 19.2752305,1.85166575 L14.3509667,4.61204742 C12.4786741,5.65639904 11.3258066,7.59776636 11.3258066,9.69080301 Z" id="Stroke-7" stroke="#C8282C" stroke-width="2.0691"></path>
                    </g>
                </g>
            </g>
        </g>
    </g>
</svg>