<?xml version="1.0" encoding="UTF-8"?>
<svg width="279px" height="207px" viewBox="0 0 279 207" version="1.1" xmlns="http://www.w3.org/2000/svg" xmlns:xlink="http://www.w3.org/1999/xlink">
    <!-- Generator: Sketch 54.1 (76490) - https://sketchapp.com -->
    <title>large-about-resume-social-links</title>
    <desc>Created with Sketch.</desc>
    <g id="large-about-resume-social-links" stroke="none" stroke-width="1" fill="none" fill-rule="evenodd">
        <rect id="Rectangle-Copy-13" fill="#313131" x="0" y="0" width="279" height="207"></rect>
        <g id="Section" transform="translate(34.000000, 85.000000)">
            <path d="M2.34390234,3.84725635 L2.34390234,5.84765576 L4.10688062,5.84765576 C4.45712065,5.84765576 4.71979673,5.80724406 4.89491675,5.72641943 C5.20474447,5.58497634 5.35965601,5.30546205 5.35965601,4.88786816 C5.35965601,4.43659735 5.20979593,4.13350956 4.91007129,3.9785957 C4.74168666,3.8910357 4.4891135,3.84725635 4.15234424,3.84725635 L2.34390234,3.84725635 Z M4.47564111,2.55406885 C4.99763347,2.56417193 5.39922479,2.62815713 5.68042712,2.74602637 C5.96162946,2.86389561 6.19989014,3.03732918 6.39521631,3.26633228 C6.55686555,3.45492306 6.68483595,3.66371687 6.77913135,3.89271997 C6.87342674,4.12172307 6.92057373,4.38271533 6.92057373,4.67570459 C6.92057373,5.02931231 6.83133121,5.37702136 6.65284351,5.71884216 C6.4743558,6.06066296 6.17968711,6.30229128 5.76882861,6.44373438 C6.11233326,6.58180977 6.3556454,6.77797492 6.49877234,7.03223572 C6.64189928,7.28649651 6.71346167,7.67461726 6.71346167,8.19660962 L6.71346167,8.69670947 C6.71346167,9.03684643 6.72693224,9.26752991 6.75387378,9.38876685 C6.79428609,9.58072533 6.88858007,9.72216629 7.03675854,9.81309399 L7.03675854,10 L5.32429541,10 C5.27714771,9.83498306 5.24347129,9.7019612 5.22326514,9.60093042 C5.18285283,9.39213348 5.16096315,9.1782882 5.15759546,8.95938818 L5.14749243,8.26733081 C5.14075705,7.79248615 5.05404026,7.47592779 4.88733948,7.31764624 C4.72063869,7.15936469 4.40828989,7.0802251 3.95028369,7.0802251 L2.34390234,7.0802251 L2.34390234,10 L0.823396729,10 L0.823396729,2.55406885 L4.47564111,2.55406885 Z M14.0309092,3.87251392 L10.0907285,3.87251392 L10.0907285,5.4536377 L13.7076123,5.4536377 L13.7076123,6.7468252 L10.0907285,6.7468252 L10.0907285,8.66134888 L14.2127637,8.66134888 L14.2127637,10 L8.57022288,10 L8.57022288,2.55406885 L14.0309092,2.55406885 L14.0309092,3.87251392 Z M16.8171489,7.70156128 C16.8642966,8.04169823 16.9569067,8.29595521 17.0949821,8.46433984 C17.3475591,8.77079987 17.7803011,8.92402759 18.3932212,8.92402759 C18.7602997,8.92402759 19.058336,8.88361588 19.2873391,8.80279126 C19.7217714,8.6478774 19.9389843,8.359944 19.9389843,7.93898242 C19.9389843,7.69314086 19.8312198,7.50286908 19.6156875,7.36816138 C19.4001551,7.23682136 19.0617071,7.12063771 18.6003332,7.01960693 L17.8122971,6.84280396 C17.0377278,6.66768394 16.5022727,6.47741216 16.2059157,6.27198291 C15.7041295,5.92847826 15.4532402,5.39133935 15.4532402,4.66055005 C15.4532402,3.99374691 15.6957104,3.43976978 16.1806582,2.99860205 C16.6656059,2.55743432 17.3778622,2.33685376 18.3174485,2.33685376 C19.1021208,2.33685376 19.7714397,2.54480566 20.3254251,2.9607157 C20.8794106,3.37662574 21.1698697,3.98027558 21.1968112,4.77168335 L19.7015632,4.77168335 C19.6746217,4.32378023 19.4792984,4.00553805 19.1155876,3.81694727 C18.8731137,3.69234264 18.5717098,3.63004126 18.2113667,3.63004126 C17.8106112,3.63004126 17.4906852,3.71086467 17.2515791,3.87251392 C17.0124729,4.03416316 16.8929216,4.25979518 16.8929216,4.54941675 C16.8929216,4.81546446 17.0107891,5.01415535 17.2465276,5.14549536 C17.3980737,5.23305537 17.7213674,5.33576845 18.2164182,5.4536377 L19.4995027,5.76178003 C20.0619073,5.89648773 20.4862302,6.07665659 20.7724841,6.30229199 C21.2170195,6.65253202 21.4392839,7.15936216 21.4392839,7.82279761 C21.4392839,8.50307152 21.1791335,9.06799348 20.658825,9.51758044 C20.1385165,9.96716741 19.4035286,10.1919575 18.4538393,10.1919575 C17.4839438,10.1919575 16.7211729,9.97053505 16.1655036,9.52768347 C15.6098343,9.08483189 15.3320039,8.47613058 15.3320039,7.70156128 L16.8171489,7.70156128 Z M22.8565634,2.55406885 L24.4376872,2.55406885 L24.4376872,7.13074023 C24.4376872,7.64262951 24.4983048,8.01643779 24.6195417,8.25217627 C24.8081325,8.66977015 25.2189848,8.87856396 25.852111,8.87856396 C26.4818696,8.87856396 26.8910381,8.66977015 27.0796289,8.25217627 C27.2008658,8.01643779 27.2614833,7.64262951 27.2614833,7.13074023 L27.2614833,2.55406885 L28.8426071,2.55406885 L28.8426071,7.13074023 C28.8426071,7.922148 28.7196882,8.53842651 28.4738466,8.97959424 C28.0158404,9.78784047 27.1419373,10.1919575 25.852111,10.1919575 C24.5622848,10.1919575 23.6866978,9.78784047 23.2253239,8.97959424 C22.9794824,8.53842651 22.8565634,7.922148 22.8565634,7.13074023 L22.8565634,2.55406885 Z M35.5286154,2.55406885 L37.766436,2.55406885 L37.766436,10 L36.3166515,10 L36.3166515,4.96364087 C36.3166515,4.81883009 36.3183354,4.61592965 36.3217031,4.35493347 C36.3250707,4.09393729 36.3267546,3.89272068 36.3267546,3.75127759 L34.9173823,10 L33.4069797,10 L32.0077104,3.75127759 C32.0077104,3.89272068 32.0093942,4.09393729 32.0127619,4.35493347 C32.0161296,4.61592965 32.0178134,4.81883009 32.0178134,4.96364087 L32.0178134,10 L30.568029,10 L30.568029,2.55406885 L32.8311071,2.55406885 L34.1849128,8.40877319 L35.5286154,2.55406885 Z M44.9828532,3.87251392 L41.0426725,3.87251392 L41.0426725,5.4536377 L44.6595563,5.4536377 L44.6595563,6.7468252 L41.0426725,6.7468252 L41.0426725,8.66134888 L45.1647077,8.66134888 L45.1647077,10 L39.5221669,10 L39.5221669,2.55406885 L44.9828532,2.55406885 L44.9828532,3.87251392 Z" id="RESUME" fill="#FFFFFF" fill-rule="nonzero"></path>
            <g id="1-paragraph" transform="translate(112.000000, 45.000000)" stroke="#FFFFFF" stroke-linecap="square">
                <path d="M0,0.52 L99,0.52" id="Line-Copy-2"></path>
                <path d="M0,18.52 L70,18.52" id="Line-Copy-3"></path>
                <path d="M0,9.52 L99,9.52" id="Line-Copy-4"></path>
            </g>
            <g id="1-paragraph" transform="translate(111.651000, 3.980000)" stroke="#FFFFFF" stroke-linecap="square">
                <path d="M0.349,0.52 L99.349,0.52" id="Line-Copy-2"></path>
                <path d="M0.349,27.52 L70.349,27.52" id="Line-Copy-3"></path>
                <path d="M0.349,9.52 L99.349,9.52" id="Line-Copy-4"></path>
                <path d="M0.349,18.52 L99.349,18.52" id="Line-Copy-5"></path>
            </g>
        </g>
        <g id="Group-2" transform="translate(145.000000, 162.000000)">
            <g id="Section" transform="translate(14.000000, 2.000000)" stroke="#FFFFFF" stroke-linecap="square">
                <g id="1-paragraph">
                    <path d="M0,19.3505 L33,19.3505" id="Line-Copy-6"></path>
                    <path d="M0,10.3505 L33,10.3505" id="Line-Copy-7"></path>
                    <path d="M0,1.3505 L33,1.3505" id="Line-Copy-8"></path>
                </g>
            </g>
            <g id="Group" fill="#FFFFFF">
                <circle id="Oval" cx="3" cy="3" r="3"></circle>
                <circle id="Oval-Copy" cx="3" cy="12" r="3"></circle>
                <circle id="Oval-Copy-2" cx="3" cy="20" r="3"></circle>
            </g>
        </g>
        <path d="M37.5968774,22.6773022 L37.5968774,25.9607861 L41.2541733,25.9607861 C41.9075057,25.9607861 42.4379093,25.8378672 42.8454001,25.5920256 C43.252891,25.3461841 43.4566333,24.9100744 43.4566333,24.2836836 C43.4566333,23.5899389 43.1872219,23.1319396 42.6483911,22.9096719 C42.1836495,22.754758 41.5909445,22.6773022 40.8702583,22.6773022 L37.5968774,22.6773022 Z M37.5968774,28.4259248 L37.5968774,32.3964146 L41.2541733,32.3964146 C41.9075057,32.3964146 42.4160197,32.3088559 42.7797305,32.1337358 C43.4397982,31.8104373 43.7698271,31.1907912 43.7698271,30.2747788 C43.7698271,29.5002095 43.4499011,28.9681221 42.8100396,28.6785005 C42.4530641,28.5168512 41.9512855,28.4326602 41.3046885,28.4259248 L37.5968774,28.4259248 Z M41.860355,20.0909272 C43.6856444,20.1178688 44.9788189,20.6465886 45.7399175,21.6771025 C46.1979237,22.3102288 46.4269233,23.0679482 46.4269233,23.9502837 C46.4269233,24.8595607 46.1979237,25.590339 45.7399175,26.1426406 C45.4839728,26.4524683 45.1067969,26.7353503 44.6083784,26.9912949 C45.369477,27.2674457 45.9436599,27.7052392 46.3309446,28.3046885 C46.7182292,28.9041378 46.9118687,29.6315485 46.9118687,30.4869424 C46.9118687,31.3692778 46.6896043,32.1606737 46.2450688,32.8611538 C45.9621827,33.3258954 45.6085802,33.7165419 45.184251,34.033105 C44.7060386,34.3968158 44.1419586,34.6460213 43.4919939,34.780729 C42.8420292,34.9154367 42.1365082,34.9827896 41.3754097,34.9827896 L34.6265874,34.9827896 L34.6265874,20.0909272 L41.860355,20.0909272 Z M52.5118015,22.6570962 L49.5920266,22.6570962 L49.5920266,20 L52.5118015,20 L52.5118015,22.6570962 Z M49.5920266,23.9704897 L52.5118015,23.9704897 L52.5118015,34.9827896 L49.5920266,34.9827896 L49.5920266,23.9704897 Z M60.2939882,32.6186812 C60.9675268,32.6186812 61.5366583,32.3644242 62.0013999,31.8559026 C62.4661414,31.347381 62.6985088,30.5374631 62.6985088,29.4261245 C62.6985088,28.3821398 62.4779282,27.5873763 62.0367605,27.0418101 C61.5955927,26.4962439 61.0045715,26.2234648 60.2636792,26.2234648 C59.2533714,26.2234648 58.5562695,26.6983024 58.1723525,27.6479917 C57.9702909,28.1531456 57.8692617,28.7761594 57.8692617,29.5170518 C57.8692617,30.1569134 57.9770262,30.7260449 58.1925586,31.2244634 C58.5832109,32.1539465 59.2836805,32.6186812 60.2939882,32.6186812 Z M59.5766733,23.707811 C60.1289749,23.707811 60.6105477,23.7920021 61.0214062,23.9603867 C61.7218863,24.2500083 62.2876502,24.7820957 62.7187148,25.556665 L62.7187148,23.9704897 L65.5172534,23.9704897 L65.5172534,34.41702 C65.5172534,35.8381863 65.2781508,36.9090965 64.7999384,37.6297827 C63.9782214,38.8690936 62.4021649,39.4887397 60.0717216,39.4887397 C58.6640261,39.4887397 57.5156602,39.2125931 56.6265893,38.6602915 C55.7375185,38.1079899 55.2458427,37.2829176 55.1515473,36.1850498 L58.2834858,36.1850498 C58.3643104,36.5218191 58.4956485,36.7642893 58.6775039,36.9124678 C58.9873316,37.1751478 59.5093161,37.3064858 60.2434731,37.3064858 C61.2807224,37.3064858 61.9744567,36.9596187 62.3246967,36.265874 C62.5536998,35.8213386 62.6681997,35.0737221 62.6681997,34.023002 L62.6681997,33.31579 C62.3920489,33.787267 62.0956964,34.1408694 61.7791333,34.3766079 C61.2066255,34.814408 60.4623766,35.0333047 59.5463642,35.0333047 C58.1319333,35.0333047 57.0020894,34.5365775 56.1567986,33.5431082 C55.3115077,32.5496388 54.8888686,31.2042658 54.8888686,29.5069487 C54.8888686,27.8702501 55.2963533,26.4945683 56.1113349,25.3798621 C56.9263165,24.2651558 58.0814178,23.707811 59.5766733,23.707811 Z M76.7272221,31.466936 C76.7878406,31.9788253 76.9191786,32.3425307 77.1212402,32.558063 C77.4782156,32.9419799 78.1382734,33.1339355 79.1014335,33.1339355 C79.6672059,33.1339355 80.1167861,33.0497445 80.4501877,32.8813599 C80.7835892,32.7129752 80.9502875,32.4604021 80.9502875,32.1236328 C80.9502875,31.8003343 80.8155818,31.5544964 80.5461664,31.3861118 C80.276751,31.2177272 79.2765613,30.92811 77.5455673,30.5172515 C76.299521,30.2074237 75.4205665,29.8201449 74.9086772,29.3554033 C74.3967879,28.8973971 74.1408471,28.2373393 74.1408471,27.37521 C74.1408471,26.3581668 74.5399127,25.4842637 75.3380558,24.7534744 C76.136199,24.0226851 77.2593076,23.6572959 78.7074155,23.6572959 C80.081434,23.6572959 81.201175,23.9317587 82.0666721,24.4806926 C82.9321691,25.0296265 83.4288963,25.9776178 83.5568686,27.3246948 L80.6775058,27.3246948 C80.6370935,26.9542486 80.5326966,26.6612638 80.3643119,26.4457314 C80.0477488,26.0550791 79.5089261,25.8597559 78.7478276,25.8597559 C78.1214367,25.8597559 77.6752242,25.9574175 77.4091764,26.1527437 C77.1431287,26.3480698 77.0101069,26.5770695 77.0101069,26.8397495 C77.0101069,27.1697834 77.1515478,27.408886 77.434434,27.5570645 C77.7173202,27.7119783 78.7175099,27.978022 80.4350331,28.3552036 C81.5800486,28.624619 82.4387974,29.0321037 83.0113051,29.5776699 C83.5770775,30.1299715 83.8599594,30.8203381 83.8599594,31.6487905 C83.8599594,32.7399229 83.4541585,33.6306643 82.6425446,34.3210413 C81.8309307,35.0114182 80.576484,35.3566016 78.8791669,35.3566016 C77.1481729,35.3566016 75.8701527,34.9912124 75.045068,34.2604231 C74.2199834,33.5296338 73.8074472,32.5984808 73.8074472,31.466936 L76.7272221,31.466936 Z M90.6015343,26.0517134 C89.9347312,26.0517134 89.4177981,26.2605072 89.0507196,26.6781011 C88.6836411,27.095695 88.4529577,27.6614588 88.3586623,28.3754097 L92.8343034,28.3754097 C92.7871557,27.6143111 92.5564722,27.0367605 92.142246,26.6427405 C91.7280198,26.2487204 91.2144544,26.0517134 90.6015343,26.0517134 Z M90.6015343,23.677502 C91.5175467,23.677502 92.342619,23.8492517 93.076776,24.1927563 C93.810933,24.536261 94.4171086,25.0784514 94.895321,25.8193437 C95.3263856,26.4726761 95.6058999,27.2303956 95.7338722,28.0925249 C95.8079615,28.5976788 95.8382702,29.3250895 95.8247995,30.2747788 L88.2879411,30.2747788 C88.3283534,31.379382 88.6752205,32.1539397 89.3285529,32.5984751 C89.7259406,32.8746259 90.2041458,33.0126992 90.7631828,33.0126992 C91.3558967,33.0126992 91.8374695,32.8443171 92.2079157,32.5075479 C92.4099772,32.3256925 92.5884623,32.0731193 92.7433761,31.7498208 L95.6833571,31.7498208 C95.6092679,32.4031532 95.269136,33.0665787 94.6629513,33.7401172 C93.7199974,34.8110434 92.3998817,35.3464985 90.7025646,35.3464985 C89.3016045,35.3464985 88.0656798,34.8952345 86.9947536,33.9926929 C85.9238273,33.0901512 85.3883722,31.6218593 85.3883722,29.5877729 C85.3883722,27.6816589 85.8716289,26.2201023 86.8381567,25.2030591 C87.8046844,24.1860159 89.0591311,23.677502 90.6015343,23.677502 Z M104.132344,23.707811 C105.270624,23.707811 106.201777,24.0058474 106.925831,24.601929 C107.649885,25.1980105 108.011906,26.1864135 108.011906,27.5671675 L108.011906,34.9827896 L105.061822,34.9827896 L105.061822,28.2844824 C105.061822,27.7052393 104.984366,27.2607105 104.829453,26.9508828 C104.546566,26.3851105 104.007744,26.1022285 103.212968,26.1022285 C102.236337,26.1022285 101.566177,26.5164485 101.202466,27.3449009 C101.013875,27.7827009 100.919581,28.3417295 100.919581,29.0220034 L100.919581,34.9827896 L98.0503212,34.9827896 L98.0503212,23.9906958 L100.828654,23.9906958 L100.828654,25.5970771 C101.1991,25.0313048 101.549335,24.6238201 101.879369,24.3746108 C102.472082,23.9300754 103.223067,23.707811 104.132344,23.707811 Z M109.802998,26.1224346 L109.802998,24.07152 L111.338658,24.07152 L111.338658,21.0001997 L114.187712,21.0001997 L114.187712,24.07152 L115.975947,24.07152 L115.975947,26.1224346 L114.187712,26.1224346 L114.187712,31.9417783 C114.187712,32.3930491 114.244961,32.6742472 114.359463,32.7853811 C114.473965,32.896515 114.824199,32.9520811 115.410178,32.9520811 C115.497738,32.9520811 115.590348,32.9503972 115.688011,32.9470295 C115.785674,32.9436618 115.881652,32.9386104 115.975947,32.931875 L115.975947,35.0838198 L114.612039,35.134335 C113.251491,35.1814827 112.322022,34.9457477 111.823603,34.427123 C111.500305,34.0970892 111.338658,33.5885752 111.338658,32.9015659 L111.338658,26.1224346 L109.802998,26.1224346 Z M122.434638,26.0517134 C121.767834,26.0517134 121.250901,26.2605072 120.883823,26.6781011 C120.516744,27.095695 120.286061,27.6614588 120.191765,28.3754097 L124.667407,28.3754097 C124.620259,27.6143111 124.389575,27.0367605 123.975349,26.6427405 C123.561123,26.2487204 123.047558,26.0517134 122.434638,26.0517134 Z M122.434638,23.677502 C123.35065,23.677502 124.175722,23.8492517 124.909879,24.1927563 C125.644036,24.536261 126.250212,25.0784514 126.728424,25.8193437 C127.159489,26.4726761 127.439003,27.2303956 127.566975,28.0925249 C127.641065,28.5976788 127.671373,29.3250895 127.657903,30.2747788 L120.121044,30.2747788 C120.161457,31.379382 120.508324,32.1539397 121.161656,32.5984751 C121.559044,32.8746259 122.037249,33.0126992 122.596286,33.0126992 C123.189,33.0126992 123.670573,32.8443171 124.041019,32.5075479 C124.24308,32.3256925 124.421565,32.0731193 124.576479,31.7498208 L127.51646,31.7498208 C127.442371,32.4031532 127.102239,33.0665787 126.496055,33.7401172 C125.553101,34.8110434 124.232985,35.3464985 122.535668,35.3464985 C121.134708,35.3464985 119.898783,34.8952345 118.827857,33.9926929 C117.756931,33.0901512 117.221475,31.6218593 117.221475,29.5877729 C117.221475,27.6816589 117.704732,26.2201023 118.67126,25.2030591 C119.637788,24.1860159 120.892234,23.677502 122.434638,23.677502 Z M135.965447,23.707811 C137.103727,23.707811 138.03488,24.0058474 138.758934,24.601929 C139.482988,25.1980105 139.845009,26.1864135 139.845009,27.5671675 L139.845009,34.9827896 L136.894925,34.9827896 L136.894925,28.2844824 C136.894925,27.7052393 136.81747,27.2607105 136.662556,26.9508828 C136.37967,26.3851105 135.840847,26.1022285 135.046071,26.1022285 C134.069441,26.1022285 133.39928,26.5164485 133.035569,27.3449009 C132.846978,27.7827009 132.752684,28.3417295 132.752684,29.0220034 L132.752684,34.9827896 L129.883424,34.9827896 L129.883424,23.9906958 L132.661757,23.9906958 L132.661757,25.5970771 C133.032203,25.0313048 133.382438,24.6238201 133.712472,24.3746108 C134.305186,23.9300754 135.05617,23.707811 135.965447,23.707811 Z M149.344711,27.9207734 C149.290828,27.5099149 149.152754,27.1394743 148.930487,26.8094404 C148.607188,26.364905 148.105409,26.1426406 147.425136,26.1426406 C146.45524,26.1426406 145.791815,26.6242134 145.434839,27.5873735 C145.246248,28.0992628 145.151954,28.7795265 145.151954,29.6281851 C145.151954,30.4364313 145.246248,31.0863862 145.434839,31.5780693 C145.778344,32.4940817 146.424931,32.9520811 147.37462,32.9520811 C148.048159,32.9520811 148.526364,32.7702284 148.80925,32.4065176 C149.092136,32.0428068 149.263886,31.5713369 149.324505,30.9920937 L152.264486,30.9920937 C152.197132,31.8676938 151.880573,32.6961338 151.314801,33.4774385 C150.412259,34.7369555 149.075306,35.3667046 147.303899,35.3667046 C145.532493,35.3667046 144.229215,34.8413524 143.394028,33.7906323 C142.55884,32.7399122 142.141252,31.3760172 142.141252,29.6989062 C142.141252,27.806263 142.602619,26.3346034 143.525367,25.2838833 C144.448115,24.2331632 145.721084,23.707811 147.344311,23.707811 C148.725065,23.707811 149.854909,24.0176341 150.733877,24.6372896 C151.612845,25.256945 152.133146,26.3514287 152.294795,27.9207734 L149.344711,27.9207734 Z M158.884824,26.0517134 C158.218021,26.0517134 157.701088,26.2605072 157.33401,26.6781011 C156.966931,27.095695 156.736248,27.6614588 156.641952,28.3754097 L161.117593,28.3754097 C161.070446,27.6143111 160.839762,27.0367605 160.425536,26.6427405 C160.01131,26.2487204 159.497744,26.0517134 158.884824,26.0517134 Z M158.884824,23.677502 C159.800837,23.677502 160.625909,23.8492517 161.360066,24.1927563 C162.094223,24.536261 162.700399,25.0784514 163.178611,25.8193437 C163.609676,26.4726761 163.88919,27.2303956 164.017162,28.0925249 C164.091251,28.5976788 164.12156,29.3250895 164.108089,30.2747788 L156.571231,30.2747788 C156.611643,31.379382 156.95851,32.1539397 157.611843,32.5984751 C158.009231,32.8746259 158.487436,33.0126992 159.046473,33.0126992 C159.639187,33.0126992 160.120759,32.8443171 160.491206,32.5075479 C160.693267,32.3256925 160.871752,32.0731193 161.026666,31.7498208 L163.966647,31.7498208 C163.892558,32.4031532 163.552426,33.0665787 162.946241,33.7401172 C162.003287,34.8110434 160.683172,35.3464985 158.985855,35.3464985 C157.584894,35.3464985 156.34897,34.8952345 155.278044,33.9926929 C154.207117,33.0901512 153.671662,31.6218593 153.671662,29.5877729 C153.671662,27.6816589 154.154919,26.2201023 155.121447,25.2030591 C156.087974,24.1860159 157.342421,23.677502 158.884824,23.677502 Z M178.399481,23.687605 C179.079755,23.687605 179.697718,23.8054725 180.253387,24.0412109 C180.809056,24.2769494 181.265372,24.6372871 181.622347,25.1222349 C181.92544,25.5330934 182.11066,25.9557324 182.178014,26.3901648 C182.245368,26.8245971 182.279044,27.5334858 182.279044,28.5168521 L182.279044,34.9827896 L179.339063,34.9827896 L179.339063,28.2844824 C179.339063,27.6917685 179.238034,27.2135633 179.035972,26.8498525 C178.773292,26.3379633 178.274881,26.0820225 177.540724,26.0820225 C176.779626,26.0820225 176.202075,26.3362794 175.808055,26.844801 C175.414035,27.3533226 175.217028,28.0790495 175.217028,29.0220034 L175.217028,34.9827896 L172.347768,34.9827896 L172.347768,20.1414424 L175.217028,20.1414424 L175.217028,25.4051196 C175.634622,24.765258 176.117878,24.3190455 176.666812,24.0664685 C177.215746,23.8138916 177.793297,23.687605 178.399481,23.687605 Z M189.576285,26.0517134 C188.909482,26.0517134 188.392549,26.2605072 188.025471,26.6781011 C187.658392,27.095695 187.427709,27.6614588 187.333413,28.3754097 L191.809054,28.3754097 C191.761907,27.6143111 191.531223,27.0367605 191.116997,26.6427405 C190.702771,26.2487204 190.189205,26.0517134 189.576285,26.0517134 Z M189.576285,23.677502 C190.492298,23.677502 191.31737,23.8492517 192.051527,24.1927563 C192.785684,24.536261 193.39186,25.0784514 193.870072,25.8193437 C194.301137,26.4726761 194.580651,27.2303956 194.708623,28.0925249 C194.782713,28.5976788 194.813021,29.3250895 194.799551,30.2747788 L187.262692,30.2747788 C187.303104,31.379382 187.649972,32.1539397 188.303304,32.5984751 C188.700692,32.8746259 189.178897,33.0126992 189.737934,33.0126992 C190.330648,33.0126992 190.812221,32.8443171 191.182667,32.5075479 C191.384728,32.3256925 191.563213,32.0731193 191.718127,31.7498208 L194.658108,31.7498208 C194.584019,32.4031532 194.243887,33.0665787 193.637702,33.7401172 C192.694748,34.8110434 191.374633,35.3464985 189.677316,35.3464985 C188.276356,35.3464985 187.040431,34.8952345 185.969505,33.9926929 C184.898578,33.0901512 184.363123,31.6218593 184.363123,29.5877729 C184.363123,27.6816589 184.84638,26.2201023 185.812908,25.2030591 C186.779436,24.1860159 188.033882,23.677502 189.576285,23.677502 Z M203.076786,29.6281851 C202.89493,29.7426866 202.711394,29.8352968 202.526171,29.9060183 C202.340948,29.9767399 202.086691,30.0424089 201.763392,30.1030273 L201.116798,30.2242637 C200.510614,30.3320298 200.076188,30.4633679 199.813508,30.6182817 C199.368972,30.8809618 199.146708,31.2884465 199.146708,31.840748 C199.146708,32.3324312 199.283098,32.6877174 199.555881,32.9066174 C199.828664,33.1255175 200.160376,33.2349658 200.551029,33.2349658 C201.170684,33.2349658 201.7415,33.0531131 202.263492,32.6894023 C202.785484,32.3256915 203.056579,31.662266 203.076786,30.699106 L203.076786,29.6281851 Z M201.328962,28.2844824 C201.861057,28.2171286 202.241601,28.1329375 202.470604,28.0319067 C202.881462,27.8567867 203.086889,27.5840077 203.086889,27.2135615 C203.086889,26.7622907 202.930293,26.4507838 202.617098,26.2790315 C202.303902,26.1072792 201.844219,26.0214043 201.238035,26.0214043 C200.557761,26.0214043 200.076188,26.1897864 199.793302,26.5265557 C199.59124,26.7757649 199.456535,27.1125291 199.389181,27.5368584 L196.610848,27.5368584 C196.671467,26.5736983 196.940878,25.7823024 197.41909,25.162647 C198.180189,24.1927515 199.486834,23.707811 201.339065,23.707811 C202.544699,23.707811 203.615609,23.9469136 204.551828,24.425126 C205.488046,24.9033383 205.956148,25.8058664 205.956148,27.1327373 L205.956148,32.184251 C205.956148,32.534491 205.962884,32.9588139 205.976354,33.4572324 C205.996561,33.834414 206.053811,34.0903548 206.148106,34.2250625 C206.242401,34.3597702 206.383842,34.4709024 206.572433,34.5584624 L206.572433,34.9827896 L203.440495,34.9827896 C203.352935,34.7605218 203.292317,34.551728 203.25864,34.3564019 C203.224963,34.1610757 203.198022,33.9388113 203.177816,33.6896021 C202.780428,34.1206667 202.322429,34.4877397 201.803804,34.790832 C201.184149,35.1478074 200.483679,35.3262925 199.702375,35.3262925 C198.705537,35.3262925 197.882149,35.0417267 197.232184,34.4725867 C196.58222,33.9034466 196.257242,33.0968963 196.257242,32.0529116 C196.257242,30.6990992 196.779227,29.7191153 197.823211,29.1129307 C198.395719,28.7828968 199.23763,28.5471618 200.348968,28.4057187 L201.328962,28.2844824 Z M212.839166,23.707811 C213.505969,23.707811 214.098674,23.8543035 214.617299,24.1472927 C215.135923,24.440282 215.556878,24.8460829 215.880177,25.3647075 L215.880177,20.1111333 L218.799952,20.1111333 L218.799952,34.9827896 L216.001413,34.9827896 L216.001413,33.4572324 C215.590555,34.1105648 215.122453,34.5854023 214.597093,34.8817593 C214.071732,35.1781162 213.41841,35.3262925 212.637105,35.3262925 C211.350647,35.3262925 210.26795,34.8059918 209.388982,33.7653748 C208.510014,32.7247577 208.070537,31.3894876 208.070537,29.7595244 C208.070537,27.8803519 208.503279,26.401957 209.368776,25.3242954 C210.234273,24.2466338 211.391058,23.707811 212.839166,23.707811 Z M213.465553,32.9015659 C214.280535,32.9015659 214.900181,32.5984781 215.32451,31.9922935 C215.74884,31.3861088 215.961001,30.6014482 215.961001,29.6382881 C215.961001,28.291211 215.620869,27.3280654 214.940595,26.7488223 C214.523002,26.3985822 214.038061,26.2234648 213.485759,26.2234648 C212.643836,26.2234648 212.025874,26.541707 211.631854,27.1782009 C211.237834,27.8146948 211.040827,28.6044069 211.040827,29.5473608 C211.040827,30.564404 211.241202,31.3776896 211.641957,31.9872419 C212.042712,32.5967943 212.650572,32.9015659 213.465553,32.9015659 Z M224.642357,22.6570962 L221.722582,22.6570962 L221.722582,20 L224.642357,20 L224.642357,22.6570962 Z M221.722582,23.9704897 L224.642357,23.9704897 L224.642357,34.9827896 L221.722582,34.9827896 L221.722582,23.9704897 Z M233.798556,23.707811 C234.936836,23.707811 235.867989,24.0058474 236.592043,24.601929 C237.316097,25.1980105 237.678118,26.1864135 237.678118,27.5671675 L237.678118,34.9827896 L234.728034,34.9827896 L234.728034,28.2844824 C234.728034,27.7052393 234.650579,27.2607105 234.495665,26.9508828 C234.212779,26.3851105 233.673956,26.1022285 232.87918,26.1022285 C231.902549,26.1022285 231.232389,26.5164485 230.868678,27.3449009 C230.680087,27.7827009 230.585793,28.3417295 230.585793,29.0220034 L230.585793,34.9827896 L227.716533,34.9827896 L227.716533,23.9906958 L230.494866,23.9906958 L230.494866,25.5970771 C230.865312,25.0313048 231.215547,24.6238201 231.545581,24.3746108 C232.138295,23.9300754 232.889279,23.707811 233.798556,23.707811 Z M245.328966,32.6186812 C246.002504,32.6186812 246.571636,32.3644242 247.036377,31.8559026 C247.501119,31.347381 247.733486,30.5374631 247.733486,29.4261245 C247.733486,28.3821398 247.512906,27.5873763 247.071738,27.0418101 C246.63057,26.4962439 246.039549,26.2234648 245.298657,26.2234648 C244.288349,26.2234648 243.591247,26.6983024 243.20733,27.6479917 C243.005268,28.1531456 242.904239,28.7761594 242.904239,29.5170518 C242.904239,30.1569134 243.012004,30.7260449 243.227536,31.2244634 C243.618188,32.1539465 244.318658,32.6186812 245.328966,32.6186812 Z M244.611651,23.707811 C245.163952,23.707811 245.645525,23.7920021 246.056384,23.9603867 C246.756864,24.2500083 247.322628,24.7820957 247.753692,25.556665 L247.753692,23.9704897 L250.552231,23.9704897 L250.552231,34.41702 C250.552231,35.8381863 250.313128,36.9090965 249.834916,37.6297827 C249.013199,38.8690936 247.437142,39.4887397 245.106699,39.4887397 C243.699004,39.4887397 242.550638,39.2125931 241.661567,38.6602915 C240.772496,38.1079899 240.28082,37.2829176 240.186525,36.1850498 L243.318463,36.1850498 C243.399288,36.5218191 243.530626,36.7642893 243.712481,36.9124678 C244.022309,37.1751478 244.544294,37.3064858 245.278451,37.3064858 C246.3157,37.3064858 247.009434,36.9596187 247.359674,36.265874 C247.588677,35.8213386 247.703177,35.0737221 247.703177,34.023002 L247.703177,33.31579 C247.427026,33.787267 247.130674,34.1408694 246.814111,34.3766079 C246.241603,34.814408 245.497354,35.0333047 244.581342,35.0333047 C243.166911,35.0333047 242.037067,34.5365775 241.191776,33.5431082 C240.346485,32.5496388 239.923846,31.2042658 239.923846,29.5069487 C239.923846,27.8702501 240.331331,26.4945683 241.146312,25.3798621 C241.961294,24.2651558 243.116395,23.707811 244.611651,23.707811 Z M38.4051196,44.9393818 C38.586975,44.9393818 38.7519895,44.9444333 38.900168,44.9545364 C39.0483464,44.9646395 39.250405,44.9797938 39.5063496,45 L39.5063496,47.3439023 C39.3447004,47.3236962 39.0736052,47.3085418 38.6930559,47.2984387 C38.3125066,47.2883356 38.0498306,47.3725267 37.9050198,47.5510144 C37.760209,47.7295021 37.6878047,47.9265092 37.6878047,48.1420415 L37.6878047,49.07152 L39.5770708,49.07152 L39.5770708,51.1022285 L37.6878047,51.1022285 L37.6878047,59.9827896 L34.8185449,59.9827896 L34.8185449,51.1022285 L33.2121636,51.1022285 L33.2121636,49.07152 L34.7882358,49.07152 L34.7882358,48.3643081 C34.7882358,47.1856157 34.9869267,46.3740139 35.3843145,45.9294785 C35.8019083,45.2694108 36.8088333,44.9393818 38.4051196,44.9393818 Z M46.4398821,57.9520811 C47.2818052,57.9520811 47.9283925,57.6523609 48.3796633,57.0529116 C48.8309341,56.4534623 49.0565661,55.6014489 49.0565661,54.4968457 C49.0565661,53.3922425 48.8309341,52.5419129 48.3796633,51.9458313 C47.9283925,51.3497497 47.2818052,51.0517134 46.4398821,51.0517134 C45.5979589,51.0517134 44.9496878,51.3497497 44.4950493,51.9458313 C44.0404108,52.5419129 43.813095,53.3922425 43.813095,54.4968457 C43.813095,55.6014489 44.0404108,56.4534623 44.4950493,57.0529116 C44.9496878,57.6523609 45.5979589,57.9520811 46.4398821,57.9520811 Z M52.0773713,54.4968457 C52.0773713,56.1133382 51.6126367,57.4957552 50.6831535,58.6441384 C49.7536704,59.7925216 48.3426283,60.3667046 46.4499851,60.3667046 C44.5573418,60.3667046 43.1462998,59.7925216 42.2168166,58.6441384 C41.2873335,57.4957552 40.8225989,56.1133382 40.8225989,54.4968457 C40.8225989,52.9072948 41.2873335,51.5299292 42.2168166,50.3647075 C43.1462998,49.1994859 44.5573418,48.6168838 46.4499851,48.6168838 C48.3426283,48.6168838 49.7536704,49.1994859 50.6831535,50.3647075 C51.6126367,51.5299292 52.0773713,52.9072948 52.0773713,54.4968457 Z M60.3849155,48.707811 C60.4387986,48.707811 60.4842617,48.7094949 60.5213064,48.7128625 C60.558351,48.7162302 60.6408582,48.7212817 60.7688305,48.7280171 L60.7688305,51.6781011 C60.5869751,51.6578949 60.4253283,51.6444244 60.2838852,51.637689 C60.1424421,51.6309536 60.0279423,51.6275859 59.9403823,51.6275859 C58.781896,51.6275859 58.0039707,52.0047619 57.606583,52.759125 C57.3843153,53.1834543 57.2731831,53.8367768 57.2731831,54.7191123 L57.2731831,59.9827896 L54.3736142,59.9827896 L54.3736142,48.9704897 L57.1216377,48.9704897 L57.1216377,50.8900649 C57.5661731,50.155908 57.9534519,49.6541293 58.2834858,49.3847139 C58.8223166,48.9334431 59.5227862,48.707811 60.3849155,48.707811 Z M67.6041884,51.1224346 L67.6041884,49.07152 L69.1398486,49.07152 L69.1398486,46.0001997 L71.9889023,46.0001997 L71.9889023,49.07152 L73.7771381,49.07152 L73.7771381,51.1224346 L71.9889023,51.1224346 L71.9889023,56.9417783 C71.9889023,57.3930491 72.0461522,57.6742472 72.1606537,57.7853811 C72.2751553,57.896515 72.6253901,57.9520811 73.2113686,57.9520811 C73.2989286,57.9520811 73.3915388,57.9503972 73.4892018,57.9470295 C73.5868649,57.9436618 73.6828427,57.9386104 73.7771381,57.931875 L73.7771381,60.0838198 L72.4132294,60.134335 C71.0526816,60.1814827 70.1232124,59.9457477 69.6247939,59.427123 C69.3014954,59.0970892 69.1398486,58.5885752 69.1398486,57.9015659 L69.1398486,51.1224346 L67.6041884,51.1224346 Z M80.8319069,57.9520811 C81.6738301,57.9520811 82.3204173,57.6523609 82.7716881,57.0529116 C83.222959,56.4534623 83.448591,55.6014489 83.448591,54.4968457 C83.448591,53.3922425 83.222959,52.5419129 82.7716881,51.9458313 C82.3204173,51.3497497 81.6738301,51.0517134 80.8319069,51.0517134 C79.9899837,51.0517134 79.3417126,51.3497497 78.8870741,51.9458313 C78.4324356,52.5419129 78.2051198,53.3922425 78.2051198,54.4968457 C78.2051198,55.6014489 78.4324356,56.4534623 78.8870741,57.0529116 C79.3417126,57.6523609 79.9899837,57.9520811 80.8319069,57.9520811 Z M86.4693962,54.4968457 C86.4693962,56.1133382 86.0046615,57.4957552 85.0751784,58.6441384 C84.1456952,59.7925216 82.7346532,60.3667046 80.8420099,60.3667046 C78.9493667,60.3667046 77.5383246,59.7925216 76.6088415,58.6441384 C75.6793583,57.4957552 75.2146237,56.1133382 75.2146237,54.4968457 C75.2146237,52.9072948 75.6793583,51.5299292 76.6088415,50.3647075 C77.5383246,49.1994859 78.9493667,48.6168838 80.8420099,48.6168838 C82.7346532,48.6168838 84.1456952,49.1994859 85.0751784,50.3647075 C86.0046615,51.5299292 86.4693962,52.9072948 86.4693962,54.4968457 Z M96.3833217,54.4766396 C96.3833217,53.6279811 96.1896823,52.8769969 95.8023976,52.2236646 C95.415113,51.5703322 94.7870477,51.2436709 93.918183,51.2436709 C92.8741983,51.2436709 92.1568905,51.7387143 91.7662382,52.7288159 C91.5641766,53.254176 91.4631474,53.9209691 91.4631474,54.7292153 C91.4631474,56.0089385 91.8032792,56.908099 92.4835531,57.4267236 C92.8876762,57.729816 93.3658814,57.8813599 93.918183,57.8813599 C94.7196938,57.8813599 95.3309209,57.5715368 95.7518825,56.9518813 C96.172844,56.3322259 96.3833217,55.5071536 96.3833217,54.4766396 Z M94.7466312,48.7280171 C96.0330898,48.7280171 97.122522,49.2028546 98.0149606,50.1525439 C98.9073991,51.1022333 99.3536117,52.4964371 99.3536117,54.3351973 C99.3536117,56.2749882 98.9175021,57.7533831 98.0452697,58.7704263 C97.1730373,59.7874694 96.0499286,60.2959834 94.6759101,60.2959834 C93.80031,60.2959834 93.0728993,60.0770867 92.4936561,59.6392866 C92.177093,59.3968128 91.86727,59.0432103 91.5641776,58.5784687 L91.5641776,64.3169883 L88.7151239,64.3169883 L88.7151239,48.9704897 L91.4732504,48.9704897 L91.4732504,50.5970771 C91.7830781,50.1188648 92.113107,49.7416889 92.4633471,49.4655381 C93.1032087,48.973855 93.8642958,48.7280171 94.7466312,48.7280171 Z M112.654907,57.9520811 C113.49683,57.9520811 114.143418,57.6523609 114.594688,57.0529116 C115.045959,56.4534623 115.271591,55.6014489 115.271591,54.4968457 C115.271591,53.3922425 115.045959,52.5419129 114.594688,51.9458313 C114.143418,51.3497497 113.49683,51.0517134 112.654907,51.0517134 C111.812984,51.0517134 111.164713,51.3497497 110.710074,51.9458313 C110.255436,52.5419129 110.02812,53.3922425 110.02812,54.4968457 C110.02812,55.6014489 110.255436,56.4534623 110.710074,57.0529116 C111.164713,57.6523609 111.812984,57.9520811 112.654907,57.9520811 Z M118.292396,54.4968457 C118.292396,56.1133382 117.827662,57.4957552 116.898179,58.6441384 C115.968695,59.7925216 114.557653,60.3667046 112.66501,60.3667046 C110.772367,60.3667046 109.361325,59.7925216 108.431842,58.6441384 C107.502358,57.4957552 107.037624,56.1133382 107.037624,54.4968457 C107.037624,52.9072948 107.502358,51.5299292 108.431842,50.3647075 C109.361325,49.1994859 110.772367,48.6168838 112.66501,48.6168838 C114.557653,48.6168838 115.968695,49.1994859 116.898179,50.3647075 C117.827662,51.5299292 118.292396,52.9072948 118.292396,54.4968457 Z M124.680365,44.9393818 C124.862221,44.9393818 125.027235,44.9444333 125.175414,44.9545364 C125.323592,44.9646395 125.525651,44.9797938 125.781595,45 L125.781595,47.3439023 C125.619946,47.3236962 125.348851,47.3085418 124.968302,47.2984387 C124.587752,47.2883356 124.325076,47.3725267 124.180265,47.5510144 C124.035455,47.7295021 123.96305,47.9265092 123.96305,48.1420415 L123.96305,49.07152 L125.852316,49.07152 L125.852316,51.1022285 L123.96305,51.1022285 L123.96305,59.9827896 L121.093791,59.9827896 L121.093791,51.1022285 L119.487409,51.1022285 L119.487409,49.07152 L121.063482,49.07152 L121.063482,48.3643081 C121.063482,47.1856157 121.262172,46.3740139 121.65956,45.9294785 C122.077154,45.2694108 123.084079,44.9393818 124.680365,44.9393818 Z M136.031776,56.466936 C136.092395,56.9788253 136.223733,57.3425307 136.425794,57.558063 C136.78277,57.9419799 137.442828,58.1339355 138.405988,58.1339355 C138.97176,58.1339355 139.42134,58.0497445 139.754742,57.8813599 C140.088144,57.7129752 140.254842,57.4604021 140.254842,57.1236328 C140.254842,56.8003343 140.120136,56.5544964 139.850721,56.3861118 C139.581305,56.2177272 138.581116,55.92811 136.850122,55.5172515 C135.604075,55.2074237 134.725121,54.8201449 134.213232,54.3554033 C133.701342,53.8973971 133.445401,53.2373393 133.445401,52.37521 C133.445401,51.3581668 133.844467,50.4842637 134.64261,49.7534744 C135.440753,49.0226851 136.563862,48.6572959 138.01197,48.6572959 C139.385988,48.6572959 140.505729,48.9317587 141.371226,49.4806926 C142.236723,50.0296265 142.733451,50.9776178 142.861423,52.3246948 L139.98206,52.3246948 C139.941648,51.9542486 139.837251,51.6612638 139.668866,51.4457314 C139.352303,51.0550791 138.81348,50.8597559 138.052382,50.8597559 C137.425991,50.8597559 136.979778,50.9574175 136.713731,51.1527437 C136.447683,51.3480698 136.314661,51.5770695 136.314661,51.8397495 C136.314661,52.1697834 136.456102,52.408886 136.738988,52.5570645 C137.021875,52.7119783 138.022064,52.978022 139.739587,53.3552036 C140.884603,53.624619 141.743352,54.0321037 142.315859,54.5776699 C142.881632,55.1299715 143.164514,55.8203381 143.164514,56.6487905 C143.164514,57.7399229 142.758713,58.6306643 141.947099,59.3210413 C141.135485,60.0114182 139.881038,60.3566016 138.183721,60.3566016 C136.452727,60.3566016 135.174707,59.9912124 134.349622,59.2604231 C133.524538,58.5296338 133.112002,57.5984808 133.112002,56.466936 L136.031776,56.466936 Z M152.138858,52.9207734 C152.084975,52.5099149 151.946901,52.1394743 151.724634,51.8094404 C151.401335,51.364905 150.899556,51.1426406 150.219283,51.1426406 C149.249387,51.1426406 148.585962,51.6242134 148.228986,52.5873735 C148.040395,53.0992628 147.946101,53.7795265 147.946101,54.6281851 C147.946101,55.4364313 148.040395,56.0863862 148.228986,56.5780693 C148.572491,57.4940817 149.219078,57.9520811 150.168767,57.9520811 C150.842306,57.9520811 151.320511,57.7702284 151.603397,57.4065176 C151.886283,57.0428068 152.058033,56.5713369 152.118652,55.9920937 L155.058633,55.9920937 C154.991279,56.8676938 154.67472,57.6961338 154.108948,58.4774385 C153.206406,59.7369555 151.869453,60.3667046 150.098046,60.3667046 C148.32664,60.3667046 147.023362,59.8413524 146.188175,58.7906323 C145.352987,57.7399122 144.935399,56.3760172 144.935399,54.6989062 C144.935399,52.806263 145.396766,51.3346034 146.319514,50.2838833 C147.242262,49.2331632 148.51523,48.707811 150.138458,48.707811 C151.519212,48.707811 152.649056,49.0176341 153.528024,49.6372896 C154.406992,50.256945 154.927292,51.3514287 155.088942,52.9207734 L152.138858,52.9207734 Z M163.315662,48.707811 C163.369545,48.707811 163.415008,48.7094949 163.452053,48.7128625 C163.489097,48.7162302 163.571604,48.7212817 163.699577,48.7280171 L163.699577,51.6781011 C163.517721,51.6578949 163.356074,51.6444244 163.214631,51.637689 C163.073188,51.6309536 162.958688,51.6275859 162.871128,51.6275859 C161.712642,51.6275859 160.934717,52.0047619 160.537329,52.759125 C160.315061,53.1834543 160.203929,53.8367768 160.203929,54.7191123 L160.203929,59.9827896 L157.30436,59.9827896 L157.30436,48.9704897 L160.052384,48.9704897 L160.052384,50.8900649 C160.496919,50.155908 160.884198,49.6541293 161.214232,49.3847139 C161.753063,48.9334431 162.453532,48.707811 163.315662,48.707811 Z M169.996618,51.0517134 C169.329815,51.0517134 168.812882,51.2605072 168.445804,51.6781011 C168.078725,52.095695 167.848042,52.6614588 167.753746,53.3754097 L172.229387,53.3754097 C172.18224,52.6143111 171.951556,52.0367605 171.53733,51.6427405 C171.123104,51.2487204 170.609538,51.0517134 169.996618,51.0517134 Z M169.996618,48.677502 C170.912631,48.677502 171.737703,48.8492517 172.47186,49.1927563 C173.206017,49.536261 173.812193,50.0784514 174.290405,50.8193437 C174.72147,51.4726761 175.000984,52.2303956 175.128956,53.0925249 C175.203046,53.5976788 175.233354,54.3250895 175.219884,55.2747788 L167.683025,55.2747788 C167.723437,56.379382 168.070305,57.1539397 168.723637,57.5984751 C169.121025,57.8746259 169.59923,58.0126992 170.158267,58.0126992 C170.750981,58.0126992 171.232554,57.8443171 171.603,57.5075479 C171.805061,57.3256925 171.983546,57.0731193 172.13846,56.7498208 L175.078441,56.7498208 C175.004352,57.4031532 174.66422,58.0665787 174.058035,58.7401172 C173.115081,59.8110434 171.794966,60.3464985 170.097649,60.3464985 C168.696689,60.3464985 167.460764,59.8952345 166.389838,58.9926929 C165.318911,58.0901512 164.783456,56.6218593 164.783456,54.5877729 C164.783456,52.6816589 165.266713,51.2201023 166.233241,50.2030591 C167.199769,49.1860159 168.454215,48.677502 169.996618,48.677502 Z M181.769501,51.0517134 C181.102698,51.0517134 180.585765,51.2605072 180.218686,51.6781011 C179.851608,52.095695 179.620924,52.6614588 179.526629,53.3754097 L184.00227,53.3754097 C183.955122,52.6143111 183.724439,52.0367605 183.310213,51.6427405 C182.895986,51.2487204 182.382421,51.0517134 181.769501,51.0517134 Z M181.769501,48.677502 C182.685513,48.677502 183.510586,48.8492517 184.244743,49.1927563 C184.9789,49.536261 185.585075,50.0784514 186.063288,50.8193437 C186.494352,51.4726761 186.773867,52.2303956 186.901839,53.0925249 C186.975928,53.5976788 187.006237,54.3250895 186.992766,55.2747788 L179.455908,55.2747788 C179.49632,56.379382 179.843187,57.1539397 180.49652,57.5984751 C180.893907,57.8746259 181.372112,58.0126992 181.931149,58.0126992 C182.523863,58.0126992 183.005436,57.8443171 183.375882,57.5075479 C183.577944,57.3256925 183.756429,57.0731193 183.911343,56.7498208 L186.851324,56.7498208 C186.777234,57.4031532 186.437103,58.0665787 185.830918,58.7401172 C184.887964,59.8110434 183.567848,60.3464985 181.870531,60.3464985 C180.469571,60.3464985 179.233646,59.8952345 178.16272,58.9926929 C177.091794,58.0901512 176.556339,56.6218593 176.556339,54.5877729 C176.556339,52.6816589 177.039595,51.2201023 178.006123,50.2030591 C178.972651,49.1860159 180.227098,48.677502 181.769501,48.677502 Z M195.30031,48.707811 C196.43859,48.707811 197.369743,49.0058474 198.093797,49.601929 C198.817851,50.1980105 199.179873,51.1864135 199.179873,52.5671675 L199.179873,59.9827896 L196.229789,59.9827896 L196.229789,53.2844824 C196.229789,52.7052393 196.152333,52.2607105 195.997419,51.9508828 C195.714533,51.3851105 195.17571,51.1022285 194.380935,51.1022285 C193.404304,51.1022285 192.734143,51.5164485 192.370432,52.3449009 C192.181842,52.7827009 192.087548,53.3417295 192.087548,54.0220034 L192.087548,59.9827896 L189.218288,59.9827896 L189.218288,48.9906958 L191.99662,48.9906958 L191.99662,50.5970771 C192.367067,50.0313048 192.717301,49.6238201 193.047335,49.3746108 C193.640049,48.9300754 194.391033,48.707811 195.30031,48.707811 Z" id="Bigsentenceheadingfortopofscreen" fill="#FFFFFF" fill-rule="nonzero"></path>
    </g>
</svg>