<?xml version="1.0" encoding="UTF-8"?>
<svg width="279px" height="207px" viewBox="0 0 279 207" version="1.1" xmlns="http://www.w3.org/2000/svg" xmlns:xlink="http://www.w3.org/1999/xlink">
    <!-- Generator: Sketch 54.1 (76490) - https://sketchapp.com -->
    <title>offer-details-list-image-gallery-share</title>
    <desc>Created with Sketch.</desc>
    <g id="offer-details-list-image-gallery-share" stroke="none" stroke-width="1" fill="none" fill-rule="evenodd">
        <rect id="Rectangle-Copy-13" fill="#313131" x="0" y="0" width="279" height="207"></rect>
        <g id="Section" transform="translate(54.000000, 60.000000)">
            <g id="1-paragraph" transform="translate(0.000000, 0.149500)">
                <rect id="Rectangle" fill="#C8282C" x="5.4385" y="61.8105" width="45.98" height="8.0465" rx="4.02325"></rect>
                <path d="M0.8405,46.867 L57.166,46.867" id="Line-Copy-5" stroke="#FFFFFF" stroke-linecap="square"></path>
                <path d="M0.8405,32.1495 L57.166,32.1495" id="Line-Copy-6" stroke="#FFFFFF" stroke-linecap="square"></path>
                <path d="M0.8405,17.1495 L57.166,17.1495" id="Line-Copy-7" stroke="#FFFFFF" stroke-linecap="square"></path>
                <path d="M0.8405,1.1495 L57.166,1.1495" id="Line-Copy-8" stroke="#FFFFFF" stroke-linecap="square"></path>
            </g>
        </g>
        <text id="OFFER" font-family="Helvetica-Bold, Helvetica" font-size="12.6445" font-weight="bold" letter-spacing="0.241394995" fill="#FFFFFF">
            <tspan x="36" y="44">OFFER</tspan>
        </text>
        <circle id="Oval" fill="#FFFFFF" cx="44" cy="61" r="3"></circle>
        <circle id="Oval-Copy" fill="#FFFFFF" cx="44" cy="77" r="3"></circle>
        <circle id="Oval-Copy-2" fill="#FFFFFF" cx="44" cy="92" r="3"></circle>
        <circle id="Oval-Copy-3" fill="#FFFFFF" cx="44" cy="107" r="3"></circle>
        <text id="DETAILS" font-family="Helvetica-Bold, Helvetica" font-size="10.3455" font-weight="bold" letter-spacing="0.241394995" fill="#727C85">
            <tspan x="82" y="44">DETAILS</tspan>
        </text>
        <g id="Group-3" transform="translate(61.000000, 153.000000)">
            <g id="Group-2" fill-rule="nonzero">
                <path d="M5.60795499,0.0896728516 L5.60795499,1.3354126 L3.59238192,1.3354126 L3.59238192,7.125 L2.17553918,7.125 L2.17553918,1.3354126 L0.150825195,1.3354126 L0.150825195,0.0896728516 L5.60795499,0.0896728516 Z M7.77937243,2.90571289 C7.47772054,2.90571289 7.24386765,3.00435285 7.07780675,3.20163574 C6.91174586,3.39891863 6.80738806,3.66620111 6.76473021,4.00349121 L8.7894442,4.00349121 C8.76811528,3.64392724 8.66375747,3.37107637 8.47636766,3.18493042 C8.28897784,2.99878447 8.05664842,2.90571289 7.77937243,2.90571289 Z M7.77937243,1.78406982 C8.19376292,1.78406982 8.56701346,1.86520915 8.89913525,2.02749023 C9.23125704,2.18977132 9.50548192,2.44591703 9.72181813,2.79593506 C9.91682542,3.10458732 10.0432736,3.46255493 10.1011664,3.86984863 C10.1346832,4.10849729 10.1483945,4.45214619 10.1423005,4.90080566 L6.73273699,4.90080566 C6.75101892,5.42265072 6.9079365,5.78857317 7.20349442,5.99858398 C7.38326676,6.12904525 7.59959973,6.1942749 7.8524998,6.1942749 C8.12063482,6.1942749 8.33849126,6.11472654 8.50607565,5.95562744 C8.59748532,5.86971393 8.67822931,5.75039139 8.74831005,5.59765625 L10.078314,5.59765625 C10.0447972,5.90630851 9.89092654,6.21972904 9.61669754,6.53792725 C9.1901191,7.04386239 8.59291824,7.29682617 7.82507704,7.29682617 C7.19130335,7.29682617 6.63218928,7.08363657 6.14771805,6.65725098 C5.66324682,6.23086538 5.42101484,5.5372037 5.42101484,4.57624512 C5.42101484,3.6757442 5.63963301,2.98526445 6.07687591,2.50478516 C6.51411882,2.02430587 7.08161198,1.78406982 7.77937243,1.78406982 Z M12.5285296,7.125 L11.2259484,7.125 L11.2259484,0.0896728516 L12.5285296,0.0896728516 L12.5285296,7.125 Z M15.3078183,7.125 L14.005237,7.125 L14.005237,0.0896728516 L15.3078183,0.0896728516 L15.3078183,7.125 Z M22.2832384,4.59533691 C22.2009697,4.64943061 22.1179405,4.69318221 22.0341483,4.72659302 C21.9503561,4.76000383 21.835334,4.79102769 21.6890785,4.81966553 L21.3965691,4.87694092 C21.1223401,4.92785263 20.9258122,4.98990035 20.8069797,5.06308594 C20.6058784,5.18718324 20.5053293,5.37969026 20.5053293,5.64061279 C20.5053293,5.87289748 20.5670299,6.04074452 20.6904329,6.14415894 C20.813836,6.24757335 20.9638979,6.29927979 21.1406233,6.29927979 C21.4209462,6.29927979 21.6791747,6.21336756 21.9153163,6.04154053 C22.151458,5.8697135 22.2740974,5.55629297 22.2832384,5.10126953 L22.2832384,4.59533691 Z M21.4925487,3.96053467 C21.7332608,3.92871485 21.9054131,3.88894067 22.0090108,3.84121094 C22.1948771,3.7584794 22.2878088,3.62961106 22.2878088,3.45460205 C22.2878088,3.24140925 22.2169674,3.09424479 22.0752824,3.01310425 C21.9335975,2.93196371 21.7256436,2.89139404 21.4514146,2.89139404 C21.1436687,2.89139404 20.9258123,2.9709424 20.7978387,3.1300415 C20.7064291,3.24777484 20.6454902,3.40687156 20.6150203,3.60733643 L19.3581437,3.60733643 C19.3855666,3.15231299 19.5074443,2.77843571 19.7237805,2.48569336 C20.0680903,2.02748794 20.6591972,1.79838867 21.4971192,1.79838867 C22.0425302,1.79838867 22.5269942,1.91134734 22.9505256,2.13726807 C23.3740571,2.36318879 23.5858196,2.78956799 23.5858196,3.41641846 L23.5858196,5.80289307 C23.5858196,5.96835613 23.5888666,6.168818 23.5949605,6.40428467 C23.6041015,6.58247566 23.6300005,6.70338917 23.6726584,6.76702881 C23.7153162,6.83066845 23.779302,6.88317037 23.8646177,6.92453613 L23.8646177,7.125 L22.447775,7.125 C22.4081641,7.01999459 22.3807416,6.92135463 22.3655067,6.82907715 C22.3502717,6.73679967 22.338084,6.63179584 22.328943,6.5140625 C22.1491706,6.71770935 21.9419785,6.89112477 21.7073604,7.03431396 C21.4270374,7.20295901 21.1101553,7.28728027 20.7567046,7.28728027 C20.3057502,7.28728027 19.9332614,7.15284355 19.639227,6.88396606 C19.3451926,6.61508858 19.1981776,6.23405195 19.1981776,5.74084473 C19.1981776,5.10126633 19.4343157,4.63829489 19.9065989,4.3519165 C20.165593,4.19599938 20.5464609,4.08463168 21.0492141,4.01781006 L21.4925487,3.96053467 Z M29.5374566,0.0180786133 C29.6197253,0.0180786133 29.6943754,0.020465064 29.7614092,0.0252380371 C29.8284429,0.0300110102 29.9198512,0.0371703624 30.0356368,0.0467163086 L30.0356368,1.15404053 C29.9625091,1.14449458 29.8398696,1.13733523 29.6677147,1.13256226 C29.4955598,1.12778928 29.3767291,1.16756346 29.3112188,1.25188599 C29.2457085,1.33620851 29.2129539,1.42928009 29.2129539,1.53110352 L29.2129539,1.97021484 L30.06763,1.97021484 L30.06763,2.92957764 L29.2129539,2.92957764 L29.2129539,7.125 L27.9149431,7.125 L27.9149431,2.92957764 L27.1882399,2.92957764 L27.1882399,1.97021484 L27.9012317,1.97021484 L27.9012317,1.6361084 C27.9012317,1.07926154 27.9911166,0.695838452 28.1708889,0.485827637 C28.3598022,0.173993395 28.8153202,0.0180786133 29.5374566,0.0180786133 Z M33.7015948,1.79838867 C33.7259707,1.79838867 33.7465376,1.79918416 33.763296,1.80077515 C33.7800545,1.80236614 33.8173795,1.80475259 33.8752723,1.80793457 L33.8752723,3.20163574 C33.7930036,3.1920898 33.719877,3.18572593 33.6558902,3.18254395 C33.5919034,3.17936196 33.5401054,3.177771 33.5004945,3.177771 C32.9764125,3.177771 32.6244905,3.35595932 32.4447182,3.71234131 C32.3441675,3.91280618 32.293893,4.22145381 32.293893,4.63829346 L32.293893,7.125 L30.9821708,7.125 L30.9821708,1.92248535 L32.2253361,1.92248535 L32.2253361,2.8293457 C32.4264373,2.48250966 32.6016366,2.24545555 32.750939,2.11817627 C32.9946981,1.90498347 33.3115802,1.79838867 33.7015948,1.79838867 Z M36.1563808,1.30200195 L34.8355177,1.30200195 L34.8355177,0.0467163086 L36.1563808,0.0467163086 L36.1563808,1.30200195 Z M34.8355177,1.92248535 L36.1563808,1.92248535 L36.1563808,7.125 L34.8355177,7.125 L34.8355177,1.92248535 Z M39.5618226,2.90571289 C39.2601707,2.90571289 39.0263178,3.00435285 38.8602569,3.20163574 C38.694196,3.39891863 38.5898382,3.66620111 38.5471803,4.00349121 L40.5718943,4.00349121 C40.5505654,3.64392724 40.4462076,3.37107637 40.2588178,3.18493042 C40.071428,2.99878447 39.8390986,2.90571289 39.5618226,2.90571289 Z M39.5618226,1.78406982 C39.9762131,1.78406982 40.3494636,1.86520915 40.6815854,2.02749023 C41.0137072,2.18977132 41.2879321,2.44591703 41.5042683,2.79593506 C41.6992756,3.10458732 41.8257237,3.46255493 41.8836165,3.86984863 C41.9171334,4.10849729 41.9308446,4.45214619 41.9247506,4.90080566 L38.5151871,4.90080566 C38.5334691,5.42265072 38.6903866,5.78857317 38.9859445,5.99858398 C39.1657169,6.12904525 39.3820499,6.1942749 39.6349499,6.1942749 C39.903085,6.1942749 40.1209414,6.11472654 40.2885258,5.95562744 C40.3799354,5.86971393 40.4606794,5.75039139 40.5307602,5.59765625 L41.8607642,5.59765625 C41.8272473,5.90630851 41.6733767,6.21972904 41.3991477,6.53792725 C40.9725692,7.04386239 40.3753684,7.29682617 39.6075272,7.29682617 C38.9737535,7.29682617 38.4146394,7.08363657 37.9301682,6.65725098 C37.445697,6.23086538 37.203465,5.5372037 37.203465,4.57624512 C37.203465,3.6757442 37.4220831,2.98526445 37.859326,2.50478516 C38.2965689,2.02430587 38.8640621,1.78406982 39.5618226,1.78406982 Z M45.7415338,1.79838867 C46.256475,1.79838867 46.6777149,1.93918927 47.0052662,2.22079468 C47.3328175,2.50240009 47.4965907,2.96934895 47.4965907,3.62165527 L47.4965907,7.125 L46.1620162,7.125 L46.1620162,3.96053467 C46.1620162,3.68688421 46.1269764,3.47687655 46.0568956,3.33050537 C45.9289221,3.06321888 45.6851666,2.92957764 45.3256219,2.92957764 C44.8838086,2.92957764 44.5806377,3.1252666 44.4161003,3.51665039 C44.3307846,3.72347922 44.2881274,3.98757977 44.2881274,4.30895996 L44.2881274,7.125 L42.9901166,7.125 L42.9901166,1.93203125 L44.2469933,1.93203125 L44.2469933,2.69093018 C44.4145777,2.42364368 44.5730187,2.23113666 44.7223212,2.11340332 C44.9904562,1.9033925 45.3301903,1.79838867 45.7415338,1.79838867 Z M50.7146436,1.79838867 C51.0162954,1.79838867 51.2844264,1.86759574 51.5190446,2.00601196 C51.7536627,2.14442818 51.9440967,2.33613973 52.0903522,2.58115234 L52.0903522,0.09921875 L53.4112152,0.09921875 L53.4112152,7.125 L52.1451977,7.125 L52.1451977,6.40428467 C51.9593314,6.71293693 51.7475688,6.9372633 51.5099037,7.07727051 C51.2722385,7.21727772 50.9766851,7.28728027 50.6232343,7.28728027 C50.0412595,7.28728027 49.5514634,7.04147585 49.1538313,6.54985962 C48.7561993,6.05824339 48.5573862,5.42742491 48.5573862,4.65738525 C48.5573862,3.76961226 48.7531523,3.07117768 49.1446904,2.56206055 C49.5362285,2.05294342 50.0595409,1.79838867 50.7146436,1.79838867 Z M50.9980121,6.14177246 C51.3666978,6.14177246 51.6470165,5.99858542 51.8389768,5.71220703 C52.0309371,5.42582865 52.1269158,5.0551333 52.1269158,4.60010986 C52.1269158,3.96371345 51.9730452,3.50869684 51.6652993,3.23504639 C51.476386,3.06958332 51.2570061,2.98685303 51.007153,2.98685303 C50.6262794,2.98685303 50.3467224,3.13719942 50.1684735,3.43789673 C49.9902247,3.73859403 49.9011016,4.11167583 49.9011016,4.55715332 C49.9011016,5.03763261 49.9917481,5.42185118 50.173044,5.70982056 C50.3543398,5.99778993 50.6293264,6.14177246 50.9980121,6.14177246 Z" id="Tellafriend" fill="#FFFFFF"></path>
                <path d="M58.6841571,6.30610657 C59.0092634,6.30610657 59.2589413,6.18524291 59.4331983,5.94351196 C59.6074553,5.70178102 59.6945825,5.3582023 59.6945825,4.9127655 C59.6945825,4.46732871 59.6074553,4.124429 59.4331983,3.88405609 C59.2589413,3.64368319 59.0092634,3.52349854 58.6841571,3.52349854 C58.3590508,3.52349854 58.1087227,3.64368319 57.9331653,3.88405609 C57.7576079,4.124429 57.6698305,4.46732871 57.6698305,4.9127655 C57.6698305,5.3582023 57.7576079,5.70178102 57.9331653,5.94351196 C58.1087227,6.18524291 58.3590508,6.30610657 58.6841571,6.30610657 Z M60.8610581,4.9127655 C60.8610581,5.56462423 60.6816021,6.12209089 60.3226847,6.58518219 C59.9637674,7.04827349 59.4188974,7.27981567 58.6880584,7.27981567 C57.9572194,7.27981567 57.4123494,7.04827349 57.053432,6.58518219 C56.6945147,6.12209089 56.5150587,5.56462423 56.5150587,4.9127655 C56.5150587,4.27177109 56.6945147,3.71634146 57.053432,3.24645996 C57.4123494,2.77657846 57.9572194,2.54164124 58.6880584,2.54164124 C59.4188974,2.54164124 59.9637674,2.77657846 60.3226847,3.24645996 C60.6816021,3.71634146 60.8610581,4.27177109 60.8610581,4.9127655 Z M64.1528861,2.57830811 C64.1736929,2.57830811 64.1912483,2.57898711 64.205553,2.58034515 C64.2198577,2.58170319 64.2517176,2.58374022 64.3011338,2.5864563 L64.3011338,3.77609253 C64.2309108,3.7679443 64.1684914,3.76251222 64.1138735,3.75979614 C64.0592556,3.75708006 64.0150419,3.75572205 63.9812308,3.75572205 C63.5338845,3.75572205 63.2334908,3.90782013 63.0800406,4.21202087 C62.9942125,4.38313379 62.9512992,4.64658941 62.9512992,5.00239563 L62.9512992,7.125 L61.8316386,7.125 L61.8316386,2.68423462 L62.8927803,2.68423462 L62.8927803,3.45831299 C63.0644364,3.16226048 63.2139831,2.9599157 63.3414248,2.85127258 C63.5494928,2.66929535 63.8199772,2.57830811 64.1528861,2.57830811 Z M72.2970445,2.5864563 C72.4843057,2.5864563 72.6689634,2.62448082 72.8510229,2.70053101 C73.0330824,2.77658119 73.198234,2.90966702 73.3464824,3.09979248 C73.4661216,3.25460893 73.5467467,3.44473154 73.5883603,3.67016602 C73.6143688,3.81955031 73.6273729,4.03819131 73.6273729,4.32609558 L73.6195704,7.125 L72.4804035,7.125 L72.4804035,4.2975769 C72.4804035,4.12918007 72.4543954,3.99066216 72.4023784,3.88201904 C72.3035461,3.67559711 72.1214893,3.5723877 71.8562026,3.5723877 C71.5493022,3.5723877 71.3373361,3.70547352 71.2202978,3.97164917 C71.1604782,4.11288523 71.1305689,4.28263756 71.1305689,4.48091125 L71.1305689,7.125 L70.0109084,7.125 L70.0109084,4.48091125 C70.0109084,4.21745169 69.9849003,4.02597106 69.9328832,3.90646362 C69.8392526,3.69189346 69.6558954,3.58460999 69.3828061,3.58460999 C69.0655024,3.58460999 68.8522358,3.69189346 68.7430001,3.90646362 C68.6831805,4.02868713 68.6532712,4.21066163 68.6532712,4.45239258 L68.6532712,7.125 L67.5258082,7.125 L67.5258082,2.69238281 L68.6064561,2.69238281 L68.6064561,3.34016418 C68.7443012,3.10929755 68.8743418,2.9449773 68.9965818,2.84719849 C69.2124523,2.67336949 69.4920396,2.5864563 69.8353518,2.5864563 C70.1604581,2.5864563 70.4231401,2.66114732 70.6234056,2.81053162 C70.7846583,2.9490516 70.9068965,3.12695204 70.9901237,3.34423828 C71.1357713,3.08349479 71.3165277,2.89201416 71.5323983,2.76979065 C71.7612731,2.64756714 72.0161527,2.5864563 72.2970445,2.5864563 Z M75.0075853,7.97648621 L75.1480305,7.9846344 C75.2572663,7.99006656 75.3612987,7.9859925 75.460131,7.97241211 C75.5589633,7.95883172 75.6421893,7.92759729 75.7098114,7.87870789 C75.7748327,7.83253456 75.8353016,7.73611524 75.8912198,7.58944702 C75.9471381,7.44277881 75.9698952,7.35314958 75.9594918,7.32055664 L74.3989893,2.68423462 L75.6356876,2.68423462 L76.5641865,5.95980835 L77.4419692,2.68423462 L78.6240498,2.68423462 L77.16498,7.05166626 C76.8840881,7.89365045 76.6617188,8.41580862 76.4978652,8.61815643 C76.3340116,8.82050425 76.0063094,8.92167664 75.5147486,8.92167664 C75.4159163,8.92167664 75.3365915,8.92099763 75.276772,8.91963959 C75.2169524,8.91828155 75.1272244,8.91352848 75.0075853,8.90538025 L75.0075853,7.97648621 Z M84.1699716,2.5864563 C84.7291545,2.5864563 85.166741,2.79694919 85.4827443,3.21794128 C85.7987477,3.63893338 85.956747,4.18214084 85.956747,4.84757996 C85.956747,5.53746378 85.8006983,6.10918963 85.4885962,6.56277466 C85.1764942,7.01635969 84.7408582,7.2431488 84.1816754,7.2431488 C83.8305606,7.2431488 83.5483725,7.1698158 83.3351028,7.02314758 C83.2076611,6.93623309 83.0698181,6.784135 82.9215696,6.56684875 L82.9215696,7.125 L81.8331191,7.125 L81.8331191,1.12792969 L82.9410759,1.12792969 L82.9410759,3.26275635 C83.0815218,3.05633442 83.2362701,2.89880425 83.4053254,2.79016113 C83.6055909,2.65435723 83.8604704,2.5864563 84.1699716,2.5864563 Z M83.8851799,6.28573608 C84.1712735,6.28573608 84.3936429,6.16487242 84.5522947,5.92314148 C84.7109466,5.68141053 84.7902714,5.36363417 84.7902714,4.96980286 C84.7902714,4.6547378 84.7512592,4.39399822 84.6732337,4.18757629 C84.5249852,3.79646106 84.2519,3.60090637 83.8539699,3.60090637 C83.450838,3.60090637 83.1738516,3.792387 83.0230023,4.175354 C82.9449768,4.37905986 82.9059646,4.64251547 82.9059646,4.96572876 C82.9059646,5.34597968 82.9865898,5.66104001 83.1478425,5.91091919 C83.3090952,6.16079837 83.5548719,6.28573608 83.8851799,6.28573608 Z M88.8467456,6.30610657 C89.1718519,6.30610657 89.4215298,6.18524291 89.5957867,5.94351196 C89.7700437,5.70178102 89.8571709,5.3582023 89.8571709,4.9127655 C89.8571709,4.46732871 89.7700437,4.124429 89.5957867,3.88405609 C89.4215298,3.64368319 89.1718519,3.52349854 88.8467456,3.52349854 C88.5216392,3.52349854 88.2713111,3.64368319 88.0957537,3.88405609 C87.9201963,4.124429 87.8324189,4.46732871 87.8324189,4.9127655 C87.8324189,5.3582023 87.9201963,5.70178102 88.0957537,5.94351196 C88.2713111,6.18524291 88.5216392,6.30610657 88.8467456,6.30610657 Z M91.0236465,4.9127655 C91.0236465,5.56462423 90.8441905,6.12209089 90.4852732,6.58518219 C90.1263558,7.04827349 89.5814858,7.27981567 88.8506468,7.27981567 C88.1198078,7.27981567 87.5749378,7.04827349 87.2160205,6.58518219 C86.8571031,6.12209089 86.6776471,5.56462423 86.6776471,4.9127655 C86.6776471,4.27177109 86.8571031,3.71634146 87.2160205,3.24645996 C87.5749378,2.77657846 88.1198078,2.54164124 88.8506468,2.54164124 C89.5814858,2.54164124 90.1263558,2.77657846 90.4852732,3.24645996 C90.8441905,3.71634146 91.0236465,4.27177109 91.0236465,4.9127655 Z M92.8720097,5.70721436 C92.8954174,5.91363629 92.9461332,6.0603023 93.0241587,6.1472168 C93.1620038,6.30203324 93.4168833,6.37944031 93.7888049,6.37944031 C94.0072763,6.37944031 94.1808805,6.34548984 94.3096226,6.27758789 C94.4383647,6.20968594 94.5027348,6.10783454 94.5027348,5.97203064 C94.5027348,5.84165889 94.4507186,5.74252353 94.3466845,5.67462158 C94.2426505,5.60671963 93.85643,5.48993003 93.1880115,5.32424927 C92.7068541,5.19930968 92.3674482,5.04313753 92.1697836,4.85572815 C91.9721189,4.67103484 91.8732881,4.40486319 91.8732881,4.0572052 C91.8732881,3.64707742 92.0273862,3.29467158 92.335587,2.99997711 C92.6437878,2.70528265 93.0774731,2.55793762 93.6366559,2.55793762 C94.1672294,2.55793762 94.5996143,2.66861614 94.9338236,2.8899765 C95.2680329,3.11133686 95.4598427,3.49361911 95.5092589,4.03683472 L94.3974009,4.03683472 C94.3817958,3.88745042 94.3414832,3.7693028 94.2764619,3.68238831 C94.154222,3.52485578 93.946157,3.4460907 93.6522609,3.4460907 C93.4103818,3.4460907 93.2380781,3.48547324 93.1353445,3.5642395 C93.0326109,3.64300576 92.9812449,3.73535103 92.9812449,3.84127808 C92.9812449,3.9743659 93.0358619,4.07078522 93.1450976,4.13053894 C93.2543334,4.19300874 93.6405539,4.30029221 94.3037707,4.45239258 C94.7459153,4.5610357 95.0775188,4.72535596 95.2985911,4.94535828 C95.5170625,5.16807668 95.6262966,5.4464705 95.6262966,5.7805481 C95.6262966,6.22055274 95.4695977,6.57974867 95.1561952,6.85814667 C94.8427927,7.13654467 94.3583916,7.27574158 93.7029773,7.27574158 C93.0345587,7.27574158 92.5410547,7.12839655 92.2224505,6.83370209 C91.9038464,6.53900762 91.7445467,6.16351547 91.7445467,5.70721436 L92.8720097,5.70721436 Z M97.5019686,5.70721436 C97.5253762,5.91363629 97.576092,6.0603023 97.6541176,6.1472168 C97.7919626,6.30203324 98.0468421,6.37944031 98.4187638,6.37944031 C98.6372352,6.37944031 98.8108394,6.34548984 98.9395815,6.27758789 C99.0683236,6.20968594 99.1326937,6.10783454 99.1326937,5.97203064 C99.1326937,5.84165889 99.0806774,5.74252353 98.9766434,5.67462158 C98.8726094,5.60671963 98.4863889,5.48993003 97.8179703,5.32424927 C97.336813,5.19930968 96.9974071,5.04313753 96.7997424,4.85572815 C96.6020778,4.67103484 96.503247,4.40486319 96.503247,4.0572052 C96.503247,3.64707742 96.657345,3.29467158 96.9655458,2.99997711 C97.2737466,2.70528265 97.7074319,2.55793762 98.2666148,2.55793762 C98.7971883,2.55793762 99.2295732,2.66861614 99.5637825,2.8899765 C99.8979918,3.11133686 100.089802,3.49361911 100.139218,4.03683472 L99.0273597,4.03683472 C99.0117546,3.88745042 98.9714421,3.7693028 98.9064208,3.68238831 C98.7841808,3.52485578 98.5761159,3.4460907 98.2822198,3.4460907 C98.0403407,3.4460907 97.8680369,3.48547324 97.7653034,3.5642395 C97.6625698,3.64300576 97.6112037,3.73535103 97.6112037,3.84127808 C97.6112037,3.9743659 97.6658208,4.07078522 97.7750565,4.13053894 C97.8842922,4.19300874 98.2705127,4.30029221 98.9337296,4.45239258 C99.3758742,4.5610357 99.7074776,4.72535596 99.9285499,4.94535828 C100.147021,5.16807668 100.256255,5.4464705 100.256255,5.7805481 C100.256255,6.22055274 100.099557,6.57974867 99.7861541,6.85814667 C99.4727516,7.13654467 98.9883505,7.27574158 98.3329361,7.27574158 C97.6645176,7.27574158 97.1710136,7.12839655 96.8524094,6.83370209 C96.5338052,6.53900762 96.3745055,6.16351547 96.3745055,5.70721436 L97.5019686,5.70721436 Z M105.677337,2.68423462 L106.8048,2.68423462 L107.452409,5.88240051 L108.115622,2.68423462 L109.274295,2.68423462 L108.041498,7.125 L106.89843,7.125 L106.231315,3.89016724 L105.556398,7.125 L104.401626,7.125 L103.207842,2.68423462 L104.401626,2.68423462 L105.06484,5.87017822 L105.677337,2.68423462 Z M111.216289,2.15460205 L110.088826,2.15460205 L110.088826,1.08311462 L111.216289,1.08311462 L111.216289,2.15460205 Z M110.088826,2.68423462 L111.216289,2.68423462 L111.216289,7.125 L110.088826,7.125 L110.088826,2.68423462 Z M113.614729,7.125 L112.502871,7.125 L112.502871,1.11978149 L113.614729,1.11978149 L113.614729,7.125 Z M116.020972,7.125 L114.909114,7.125 L114.909114,1.11978149 L116.020972,1.11978149 L116.020972,7.125 Z M119.869847,7.97648621 L120.010292,7.9846344 C120.119528,7.99006656 120.22356,7.9859925 120.322393,7.97241211 C120.421225,7.95883172 120.504451,7.92759729 120.572073,7.87870789 C120.637094,7.83253456 120.697563,7.73611524 120.753482,7.58944702 C120.8094,7.44277881 120.832157,7.35314958 120.821754,7.32055664 L119.261251,2.68423462 L120.497949,2.68423462 L121.426448,5.95980835 L122.304231,2.68423462 L123.486312,2.68423462 L122.027242,7.05166626 C121.74635,7.89365045 121.523981,8.41580862 121.360127,8.61815643 C121.196273,8.82050425 120.868571,8.92167664 120.37701,8.92167664 C120.278178,8.92167664 120.198853,8.92099763 120.139034,8.91963959 C120.079214,8.91828155 119.989486,8.91352848 119.869847,8.90538025 L119.869847,7.97648621 Z M126.005691,3.52349854 C125.748207,3.52349854 125.548594,3.60769569 125.406848,3.77609253 C125.265102,3.94448937 125.176024,4.1726365 125.139612,4.46054077 L126.867868,4.46054077 C126.849662,4.15362395 126.760585,3.92072376 126.600632,3.76183319 C126.44068,3.60294263 126.242368,3.52349854 126.005691,3.52349854 Z M126.005691,2.56608582 C126.359406,2.56608582 126.678006,2.63534477 126.961499,2.77386475 C127.244991,2.91238473 127.479064,3.13102573 127.663725,3.42979431 C127.830179,3.69325388 127.938113,3.99880808 127.987529,4.34646606 C128.016138,4.55017192 128.027842,4.84350394 128.02264,5.22647095 L125.112303,5.22647095 C125.127908,5.67190774 125.26185,5.98425203 125.514133,6.16351318 C125.667583,6.27487238 125.85224,6.33055115 126.068111,6.33055115 C126.296986,6.33055115 126.482944,6.26265022 126.625991,6.12684631 C126.704016,6.05351221 126.772938,5.95166081 126.832757,5.82128906 L127.968023,5.82128906 C127.939413,6.08474863 127.808072,6.35227831 127.573996,6.62388611 C127.209877,7.05574252 126.700118,7.27166748 126.044703,7.27166748 C125.503726,7.27166748 125.026478,7.08969298 124.612942,6.72573853 C124.199407,6.36178407 123.992643,5.76968794 123.992643,4.94943237 C123.992643,4.18078229 124.179251,3.5914022 124.552473,3.18127441 C124.925695,2.77114663 125.410096,2.56608582 126.005691,2.56608582 Z M130.093375,7.125 L128.981517,7.125 L128.981517,1.11978149 L130.093375,1.11978149 L130.093375,7.125 Z M132.499618,7.125 L131.38776,7.125 L131.38776,1.11978149 L132.499618,1.11978149 L132.499618,7.125 Z M138.521493,4.96572876 C138.45127,5.01190209 138.380398,5.0492476 138.308874,5.07776642 C138.237351,5.10628524 138.13917,5.1327666 138.01433,5.1572113 L137.764649,5.20610046 C137.530573,5.24955771 137.36282,5.30252044 137.261387,5.36499023 C137.089731,5.47091728 137.003904,5.63523753 137.003904,5.85795593 C137.003904,6.05622963 137.056571,6.1995006 137.161905,6.28777313 C137.26724,6.37604567 137.39533,6.42018127 137.546179,6.42018127 C137.785457,6.42018127 138.005876,6.34684827 138.207442,6.20018005 C138.409008,6.05351184 138.51369,5.78598217 138.521493,5.39758301 L138.521493,4.96572876 Z M137.846576,4.4238739 C138.052043,4.39671312 138.198989,4.36276265 138.287418,4.32202148 C138.446069,4.25140346 138.525394,4.14140395 138.525394,3.99201965 C138.525394,3.81004243 138.464925,3.6844257 138.343986,3.61516571 C138.223046,3.54590572 138.045541,3.51127625 137.811464,3.51127625 C137.548778,3.51127625 137.36282,3.57917718 137.253585,3.71498108 C137.175559,3.81547597 137.123543,3.95127783 137.097534,4.12239075 L136.024689,4.12239075 C136.048097,3.73399159 136.152129,3.41485721 136.336789,3.16497803 C136.630686,2.77386279 137.135243,2.57830811 137.850477,2.57830811 C138.316029,2.57830811 138.729558,2.67472743 139.091076,2.86756897 C139.452595,3.06041051 139.633351,3.42435951 139.633351,3.95942688 L139.633351,5.99647522 C139.633351,6.13771128 139.635952,6.30882163 139.641153,6.5098114 C139.648956,6.66191177 139.671063,6.76512119 139.707475,6.81944275 C139.743887,6.87376431 139.798504,6.91857893 139.871328,6.95388794 L139.871328,7.125 L138.661938,7.125 C138.628127,7.03536942 138.60472,6.95117227 138.591716,6.87240601 C138.578711,6.79363974 138.568308,6.70401051 138.560506,6.60351562 C138.407055,6.77734462 138.2302,6.92536865 138.029935,7.04759216 C137.790656,7.1915443 137.520172,7.26351929 137.218473,7.26351929 C136.833548,7.26351929 136.515598,7.14876671 136.264616,6.91925812 C136.013634,6.68974952 135.888145,6.36450406 135.888145,5.94351196 C135.888145,5.39758028 136.089708,5.00239685 136.49284,4.75794983 C136.713912,4.62486201 137.039013,4.5298007 137.468154,4.47276306 L137.846576,4.4238739 Z M140.369856,3.55201721 L140.369856,2.72497559 L140.962847,2.72497559 L140.962847,1.4864502 L142.063001,1.4864502 L142.063001,2.72497559 L142.753524,2.72497559 L142.753524,3.55201721 L142.063001,3.55201721 L142.063001,5.8986969 C142.063001,6.08067413 142.085108,6.19406868 142.129323,6.23888397 C142.173537,6.28369926 142.308779,6.30610657 142.535053,6.30610657 C142.568864,6.30610657 142.604626,6.30542756 142.642338,6.30406952 C142.68005,6.30271148 142.717112,6.30067445 142.753524,6.29795837 L142.753524,7.16574097 L142.226854,7.18611145 C141.701482,7.205124 141.34257,7.11006269 141.150107,6.90092468 C141.025267,6.76783686 140.962847,6.56277604 140.962847,6.28573608 L140.962847,3.55201721 L140.369856,3.55201721 Z M150.811854,2.5864563 C150.999116,2.5864563 151.183773,2.62448082 151.365833,2.70053101 C151.547892,2.77658119 151.713044,2.90966702 151.861292,3.09979248 C151.980932,3.25460893 152.061557,3.44473154 152.10317,3.67016602 C152.129179,3.81955031 152.142183,4.03819131 152.142183,4.32609558 L152.13438,7.125 L150.995214,7.125 L150.995214,4.2975769 C150.995214,4.12918007 150.969205,3.99066216 150.917188,3.88201904 C150.818356,3.67559711 150.636299,3.5723877 150.371013,3.5723877 C150.064112,3.5723877 149.852146,3.70547352 149.735108,3.97164917 C149.675288,4.11288523 149.645379,4.28263756 149.645379,4.48091125 L149.645379,7.125 L148.525718,7.125 L148.525718,4.48091125 C148.525718,4.21745169 148.49971,4.02597106 148.447693,3.90646362 C148.354063,3.69189346 148.170705,3.58460999 147.897616,3.58460999 C147.580312,3.58460999 147.367046,3.69189346 147.25781,3.90646362 C147.197991,4.02868713 147.168081,4.21066163 147.168081,4.45239258 L147.168081,7.125 L146.040618,7.125 L146.040618,2.69238281 L147.121266,2.69238281 L147.121266,3.34016418 C147.259111,3.10929755 147.389152,2.9449773 147.511392,2.84719849 C147.727262,2.67336949 148.00685,2.5864563 148.350162,2.5864563 C148.675268,2.5864563 148.93795,2.66114732 149.138216,2.81053162 C149.299468,2.9490516 149.421706,3.12695204 149.504934,3.34423828 C149.650581,3.08349479 149.831338,2.89201416 150.047208,2.76979065 C150.276083,2.64756714 150.530963,2.5864563 150.811854,2.5864563 Z M155.02828,3.52349854 C154.770796,3.52349854 154.571184,3.60769569 154.429437,3.77609253 C154.287691,3.94448937 154.198613,4.1726365 154.162201,4.46054077 L155.890458,4.46054077 C155.872252,4.15362395 155.783174,3.92072376 155.623222,3.76183319 C155.463269,3.60294263 155.264958,3.52349854 155.02828,3.52349854 Z M155.02828,2.56608582 C155.381996,2.56608582 155.700595,2.63534477 155.984088,2.77386475 C156.267581,2.91238473 156.501654,3.13102573 156.686314,3.42979431 C156.852768,3.69325388 156.960702,3.99880808 157.010118,4.34646606 C157.038728,4.55017192 157.050431,4.84350394 157.04523,5.22647095 L154.134893,5.22647095 C154.150498,5.67190774 154.284439,5.98425203 154.536722,6.16351318 C154.690172,6.27487238 154.87483,6.33055115 155.0907,6.33055115 C155.319575,6.33055115 155.505533,6.26265022 155.64858,6.12684631 C155.726605,6.05351221 155.795527,5.95166081 155.855346,5.82128906 L156.990612,5.82128906 C156.962003,6.08474863 156.830662,6.35227831 156.596585,6.62388611 C156.232466,7.05574252 155.722707,7.27166748 155.067293,7.27166748 C154.526316,7.27166748 154.049067,7.08969298 153.635532,6.72573853 C153.221996,6.36178407 153.015232,5.76968794 153.015232,4.94943237 C153.015232,4.18078229 153.20184,3.5914022 153.575062,3.18127441 C153.948284,2.77114663 154.432685,2.56608582 155.02828,2.56608582 Z" id="ormybosswillyellatme" fill="#727C85"></path>
            </g>
            <g id="Group" transform="translate(16.000000, 17.000000)">
                <ellipse id="Oval" fill="#1DA1F3" cx="8.95631068" cy="9" rx="8.95631068" ry="9"></ellipse>
                <ellipse id="Oval-Copy" fill="#3A5899" cx="35.2281553" cy="9" rx="8.95631068" ry="9"></ellipse>
                <ellipse id="Oval-Copy-2" fill="#BD091B" cx="61.5" cy="9" rx="8.95631068" ry="9"></ellipse>
                <ellipse id="Oval-Copy-3" fill="#1377B5" cx="87.7718447" cy="9" rx="8.95631068" ry="9"></ellipse>
                <ellipse id="Oval-Copy-4" fill="#FB4402" cx="114.043689" cy="9" rx="8.95631068" ry="9"></ellipse>
            </g>
        </g>
        <g id="Group-22" transform="translate(141.000000, 19.000000)">
            <polygon id="Fill-1" fill="#819FB3" points="19.2277228 108.338983 103.069307 108.338983 103.069307 0 19.2277228 0"></polygon>
            <polygon id="Fill-3" fill="#FEFEFE" points="19.2277228 108.338983 38.8881223 63.3239879 55.4707739 83.5827525 76.7605695 29.9661017 101.920792 108.338983"></polygon>
            <path d="M76.8514851,29 L56.1782178,81.2033898 L40.6732673,62.220339 L20,109.677966 L102.693069,109.677966 L76.8514851,29 Z M76.756563,39.3728814 L98.0990099,106.220339 L25.7425743,106.220339 L41.924554,68.9457752 L53.8664338,83.5993529 L57.5204292,88.09318 L59.6679528,82.6550323 L76.756563,39.3728814 Z" id="Fill-4"></path>
            <g id="Group-21" transform="translate(0.000000, 15.983051)">
                <path d="M34.3173703,9.30972203 L34.3173703,15.1784678 C34.3173703,17.4097898 35.5026376,19.4705356 37.4275485,20.5861966 L42.490202,23.5182644 C44.4151129,24.6339254 46.7856475,24.6339254 48.7105584,23.5182644 L53.7732119,20.5861966 C55.6981228,19.4705356 56.8833901,17.4097898 56.8833901,15.1784678 L56.8833901,9.30972203 C56.8833901,7.08301017 55.6981228,5.01765424 53.7732119,3.90660339 L48.7105584,0.969925424 C46.7856475,-0.145735593 44.4151129,-0.145735593 42.490202,0.969925424 L37.4275485,3.90660339 C35.5026376,5.01765424 34.3173703,7.08301017 34.3173703,9.30972203" id="Fill-5" fill="#FEFEFE"></path>
                <path d="M34.3173703,9.30972203 L34.3173703,15.1784678 C34.3173703,17.4097898 35.5026376,19.4705356 37.4275485,20.5861966 L42.490202,23.5182644 C44.4151129,24.6339254 46.7856475,24.6339254 48.7105584,23.5182644 L53.7732119,20.5861966 C55.6981228,19.4705356 56.8833901,17.4097898 56.8833901,15.1784678 L56.8833901,9.30972203 C56.8833901,7.08301017 55.6981228,5.01765424 53.7732119,3.90660339 L48.7105584,0.969925424 C46.7856475,-0.145735593 44.4151129,-0.145735593 42.490202,0.969925424 L37.4275485,3.90660339 C35.5026376,5.01765424 34.3173703,7.08301017 34.3173703,9.30972203 Z" id="Stroke-7" stroke="#C8282C" stroke-width="3.2186"></path>
                <g id="Group-2" transform="translate(114.000000, 34.000000)">
                    <path d="M8.69655446,7.30250847 L2.35215842,13.6691525 C2.24649505,13.7751864 2.11326733,13.8305085 1.96625743,13.8305085 C1.81924752,13.8305085 1.69061386,13.7751864 1.58035644,13.6691525 L0.169980198,12.24 C0.0551287129,12.1339661 -1.70530257e-13,12.0094915 -1.70530257e-13,11.8573559 C-1.70530257e-13,11.7098305 0.0551287129,11.5807458 0.169980198,11.4701017 L4.70431683,6.91525424 L0.169980198,2.36040678 C0.0551287129,2.24976271 -1.70530257e-13,2.12067797 -1.70530257e-13,1.97315254 C-1.70530257e-13,1.82562712 0.0551287129,1.69654237 0.169980198,1.59050847 L1.58035644,0.165966102 C1.69061386,0.0553220339 1.81924752,0 1.96625743,0 C2.11326733,0 2.24649505,0.0553220339 2.35215842,0.165966102 L8.69655446,6.528 C8.80221782,6.6340339 8.85734653,6.76772881 8.85734653,6.91525424 C8.85734653,7.06277966 8.80221782,7.19647458 8.69655446,7.30250847" id="Fill-9" fill="#4A4B4B"></path>
                    <path d="M1.96671683,0 C1.81970693,0 1.68647921,0.0553220339 1.58081584,0.165966102 L0.165845545,1.59050847 C0.0555881188,1.69654237 0.00045940594,1.82562712 0.00045940594,1.97315254 C0.00045940594,2.12067797 0.0555881188,2.24976271 0.165845545,2.36040678 L4.70477624,6.91525424 L0.165845545,11.4701017 C0.0555881188,11.5807458 0.00045940594,11.7098305 0.00045940594,11.8573559 C0.00045940594,12.0048814 0.0555881188,12.1339661 0.165845545,12.24 L1.58081584,13.6691525 C1.68647921,13.7751864 1.81970693,13.8305085 1.96671683,13.8305085 C2.11372673,13.8305085 2.24695446,13.7751864 2.35261782,13.6691525 L8.69701386,7.30250847 C8.80267723,7.19647458 8.85780594,7.06277966 8.85780594,6.91525424 C8.85780594,6.76772881 8.80267723,6.6340339 8.69701386,6.528 L2.35261782,0.165966102 C2.24695446,0.0553220339 2.11372673,0 1.96671683,0" id="Fill-11" fill="#FFFFFF"></path>
                </g>
                <g id="Group-3" transform="translate(0.000000, 33.000000)">
                    <path d="M8.69655446,2.36040678 L4.15762376,6.91525424 L8.69655446,11.4747119 C8.80221782,11.5807458 8.85734653,11.7098305 8.85734653,11.8619661 C8.85734653,12.0094915 8.80221782,12.1339661 8.69655446,12.2446102 L7.27239604,13.6691525 C7.16673267,13.7797966 7.04269307,13.8305085 6.89108911,13.8305085 C6.74407921,13.8305085 6.61544554,13.7797966 6.50518812,13.6691525 L0.169980198,7.30250847 C0.0551287129,7.19647458 -2.22932783e-13,7.06738983 -2.22932783e-13,6.91525424 C-2.22932783e-13,6.76772881 0.0551287129,6.63864407 0.169980198,6.528 L6.50518812,0.165966102 C6.61544554,0.0553220339 6.74407921,-3.55271368e-15 6.89108911,-3.55271368e-15 C7.04269307,-3.55271368e-15 7.16673267,0.0553220339 7.27239604,0.165966102 L8.69655446,1.59050847 C8.80221782,1.69654237 8.85734653,1.82562712 8.85734653,1.97315254 C8.85734653,2.12067797 8.80221782,2.25437288 8.69655446,2.36040678" id="Fill-13" fill="#4A4B4B"></path>
                    <path d="M6.89292673,0.00138305085 C6.74591683,0.00138305085 6.61268911,0.0567050847 6.50702574,0.167349153 L0.167223762,6.52938305 C0.0569663366,6.63541695 0.00183762376,6.76911186 0.00183762376,6.91663729 C0.00183762376,7.06416271 0.0569663366,7.19785763 0.167223762,7.30389153 L6.50702574,13.6705356 C6.61268911,13.7765695 6.74591683,13.8318915 6.89292673,13.8318915 C7.03993663,13.8318915 7.1685703,13.7765695 7.27423366,13.6705356 L8.69839208,12.2413831 C8.80405545,12.1353492 8.85918416,12.0062644 8.85918416,11.858739 C8.85918416,11.7112136 8.80405545,11.5821288 8.69839208,11.4714847 L4.15486733,6.91663729 L8.69839208,2.36178983 C8.80405545,2.25114576 8.85918416,2.12206102 8.85918416,1.97453559 C8.85918416,1.82701017 8.80405545,1.69792542 8.69839208,1.59189153 L7.27423366,0.167349153 C7.1685703,0.0567050847 7.03993663,0.00138305085 6.89292673,0.00138305085" id="Fill-15" fill="#FFFFFF"></path>
                </g>
            </g>
            <g id="Group-4" transform="translate(34.000000, 118.000000)">
                <polygon id="Fill-19" fill="#FFFFFF" transform="translate(8.000000, 1.500000) scale(1, -1) translate(-8.000000, -1.500000) " points="0 3 16 3 16 0 0 0"></polygon>
                <polygon id="Fill-19-Copy" fill="#819FB3" transform="translate(27.500000, 1.500000) scale(1, -1) translate(-27.500000, -1.500000) " points="20 3 35 3 35 0 20 0"></polygon>
                <polygon id="Fill-19-Copy-2" fill="#819FB3" transform="translate(47.000000, 1.500000) scale(1, -1) translate(-47.000000, -1.500000) " points="39 3 55 3 55 0 39 0"></polygon>
            </g>
        </g>
    </g>
</svg>