<?xml version="1.0" encoding="UTF-8"?>
<svg width="279px" height="207px" viewBox="0 0 279 207" version="1.1" xmlns="http://www.w3.org/2000/svg" xmlns:xlink="http://www.w3.org/1999/xlink">
    <!-- Generator: Sketch 54.1 (76490) - https://sketchapp.com -->
    <title>Quick History</title>
    <desc>Created with Sketch.</desc>
    <g id="Quick-History" stroke="none" stroke-width="1" fill="none" fill-rule="evenodd">
        <rect id="Rectangle-Copy-13" fill="#313131" x="0" y="0" width="279" height="207"></rect>
        <g id="Section" transform="translate(33.000000, 51.000000)">
            <path d="M1.55586621,20 L1.55586621,5.1081377 L4.63728955,5.1081377 L4.63728955,10.7860391 L10.4566333,10.7860391 L10.4566333,5.1081377 L13.5481597,5.1081377 L13.5481597,20 L10.4566333,20 L10.4566333,13.352208 L4.63728955,13.352208 L4.63728955,20 L1.55586621,20 Z M19.6330378,20 L16.5415115,20 L16.5415115,5.1081377 L19.6330378,5.1081377 L19.6330378,20 Z M25.0511162,15.4031226 C25.1454116,16.0833965 25.3306319,16.5919104 25.6067827,16.9286797 C26.1119366,17.5415997 26.9774206,17.8480552 28.2032607,17.8480552 C28.9374177,17.8480552 29.5334904,17.7672318 29.9914965,17.6055825 C30.8603612,17.2957548 31.2947871,16.719888 31.2947871,15.8779648 C31.2947871,15.3862817 31.079258,15.0057382 30.6481933,14.7363228 C30.2171287,14.4736427 29.5402326,14.2412754 28.6174848,14.0392139 L27.0414126,13.6856079 C25.492274,13.3353679 24.4213638,12.9548243 23.8286499,12.5439658 C22.8250775,11.8569565 22.3232988,10.7826787 22.3232988,9.3211001 C22.3232988,7.98749382 22.8082393,6.87953957 23.7781347,5.9972041 C24.7480302,5.11486864 26.1725428,4.67370752 28.0517153,4.67370752 C29.6210601,4.67370752 30.9596978,5.08961132 32.0676687,5.9214314 C33.1756395,6.75325147 33.7565578,7.96055117 33.8104409,9.5433667 L30.8199448,9.5433667 C30.7660617,8.64756046 30.3754152,8.0110761 29.6479936,7.63389453 C29.1630459,7.38468528 28.5602379,7.26008252 27.8395517,7.26008252 C27.0380409,7.26008252 26.3981889,7.42172934 25.9199765,7.74502783 C25.4417642,8.06832632 25.2026616,8.51959037 25.2026616,9.0988335 C25.2026616,9.63092893 25.4383965,10.0283107 25.9098735,10.2909907 C26.2129658,10.4661107 26.8595531,10.6715369 27.8496548,10.9072754 L30.4158237,11.5235601 C31.540633,11.7929755 32.3892788,12.1533132 32.9617866,12.604584 C33.8508574,13.305064 34.2953862,14.3187243 34.2953862,15.6455952 C34.2953862,17.006143 33.7750855,18.135987 32.7344685,19.0351609 C31.6938515,19.9343348 30.2238757,20.383915 28.324497,20.383915 C26.3847061,20.383915 24.8591642,19.9410701 23.7478256,19.0553669 C22.6364871,18.1696638 22.0808261,16.9522612 22.0808261,15.4031226 L25.0511162,15.4031226 Z M47.6847531,5.1081377 L47.6847531,7.74502783 L43.2293181,7.74502783 L43.2293181,20 L40.0973796,20 L40.0973796,7.74502783 L35.6217385,7.74502783 L35.6217385,5.1081377 L47.6847531,5.1081377 Z M55.9922973,17.777334 C57.2248728,17.777334 58.2031728,17.3227023 58.9272267,16.4134253 C59.6512807,15.5041483 60.0133022,14.2109737 60.0133022,12.5338628 C60.0133022,10.8634873 59.6512807,9.57199651 58.9272267,8.65935181 C58.2031728,7.74670711 57.2248728,7.2903916 55.9922973,7.2903916 C54.7597218,7.2903916 53.7763703,7.74502329 53.0422133,8.65430029 C52.3080563,9.5635773 51.9409833,10.8567519 51.9409833,12.5338628 C51.9409833,14.2109737 52.3080563,15.5041483 53.0422133,16.4134253 C53.7763703,17.3227023 54.7597218,17.777334 55.9922973,17.777334 Z M63.1250346,12.5338628 C63.1250346,15.2078107 62.3740504,17.2553371 60.8720595,18.6765034 C59.7472502,19.8349897 58.120679,20.4142241 55.9922973,20.4142241 C53.8639156,20.4142241 52.2373444,19.8349897 51.1125351,18.6765034 C49.6038088,17.2553371 48.849457,15.2078107 48.849457,12.5338628 C48.849457,9.80603177 49.6038088,7.75850537 51.1125351,6.39122217 C52.2373444,5.23273591 53.8639156,4.65350146 55.9922973,4.65350146 C58.120679,4.65350146 59.7472502,5.23273591 60.8720595,6.39122217 C62.3740504,7.75850537 63.1250346,9.80603177 63.1250346,12.5338628 Z M68.8765129,7.6945127 L68.8765129,11.6953115 L72.4024694,11.6953115 C73.1029495,11.6953115 73.6283016,11.6144881 73.9785417,11.4528389 C74.5981971,11.1699527 74.9080202,10.6109241 74.9080202,9.77573633 C74.9080202,8.87319471 74.6083,8.26701913 74.0088507,7.95719141 C73.6720815,7.78207139 73.1669352,7.6945127 72.4933966,7.6945127 L68.8765129,7.6945127 Z M73.1399904,5.1081377 C74.1839751,5.12834385 74.9871577,5.25631425 75.5495624,5.49205273 C76.1119671,5.72779122 76.5884884,6.07465835 76.9791408,6.53266455 C77.3024393,6.90984612 77.5583801,7.32743375 77.7469709,7.78543994 C77.9355616,8.24344614 78.0298556,8.76543066 78.0298556,9.35140918 C78.0298556,10.0586246 77.8513706,10.7540427 77.4943952,11.4376843 C77.1374198,12.1213259 76.5480824,12.6045826 75.7263654,12.8874688 C76.4133747,13.1636195 76.899999,13.5559498 77.1862528,14.0644714 C77.4725067,14.572993 77.6156315,15.3492345 77.6156315,16.3932192 L77.6156315,17.3934189 C77.6156315,18.0736929 77.6425726,18.5350598 77.6964557,18.7775337 C77.7772803,19.1614507 77.9658683,19.4443326 78.2622253,19.626188 L78.2622253,20 L74.837299,20 C74.7430036,19.6699661 74.6756508,19.4039224 74.6352384,19.2018608 C74.5544138,18.784267 74.5106345,18.3565764 74.5038991,17.9187764 L74.483693,16.5346616 C74.4702223,15.5849723 74.2967887,14.9518556 73.9633871,14.6352925 C73.6299856,14.3187294 73.0052879,14.1604502 72.0892756,14.1604502 L68.8765129,14.1604502 L68.8765129,20 L65.8355016,20 L65.8355016,5.1081377 L73.1399904,5.1081377 Z M88.7116112,5.1081377 L92.2375678,5.1081377 L87.2567753,14.4029229 L87.2567753,20 L84.1450429,20 L84.1450429,14.4029229 L78.9924989,5.1081377 L82.6598978,5.1081377 L85.7514242,11.5942812 L88.7116112,5.1081377 Z" id="HISTORY" fill="#FFFFFF" fill-rule="nonzero"></path>
            <path d="M107.668524,18.0470613 C107.715671,18.3871982 107.808282,18.6414552 107.946357,18.8098398 C108.198934,19.1162999 108.631676,19.2695276 109.244596,19.2695276 C109.611674,19.2695276 109.909711,19.2291159 110.138714,19.1482913 C110.573146,18.9933774 110.790359,18.705444 110.790359,18.2844824 C110.790359,18.0386409 110.682595,17.8483691 110.467062,17.7136614 C110.25153,17.5823214 109.913082,17.4661377 109.451708,17.3651069 L108.663672,17.188304 C107.889103,17.0131839 107.353647,16.8229122 107.057291,16.6174829 C106.555504,16.2739783 106.304615,15.7368393 106.304615,15.00605 C106.304615,14.3392469 106.547085,13.7852698 107.032033,13.3441021 C107.516981,12.9029343 108.229237,12.6823538 109.168823,12.6823538 C109.953496,12.6823538 110.622814,12.8903057 111.1768,13.3062157 C111.730785,13.7221257 112.021244,14.3257756 112.048186,15.1171833 L110.552938,15.1171833 C110.525996,14.6692802 110.330673,14.3510381 109.966962,14.1624473 C109.724489,14.0378426 109.423085,13.9755413 109.062741,13.9755413 C108.661986,13.9755413 108.34206,14.0563647 108.102954,14.2180139 C107.863848,14.3796632 107.744296,14.6052952 107.744296,14.8949167 C107.744296,15.1609645 107.862164,15.3596553 108.097902,15.4909954 C108.249449,15.5785554 108.572742,15.6812685 109.067793,15.7991377 L110.350877,16.10728 C110.913282,16.2419877 111.337605,16.4221566 111.623859,16.647792 C112.068394,16.998032 112.290659,17.5048622 112.290659,18.1682976 C112.290659,18.8485715 112.030508,19.4134935 111.5102,19.8630804 C110.989891,20.3126674 110.254903,20.5374575 109.305214,20.5374575 C108.335319,20.5374575 107.572548,20.3160351 107.016878,19.8731835 C106.461209,19.4303319 106.183379,18.8216306 106.183379,18.0470613 L107.668524,18.0470613 Z M113.697835,20.3455 L113.697835,12.8995688 L115.238547,12.8995688 L115.238547,15.7385195 L118.148219,15.7385195 L118.148219,12.8995688 L119.693982,12.8995688 L119.693982,20.3455 L118.148219,20.3455 L118.148219,17.021604 L115.238547,17.021604 L115.238547,20.3455 L113.697835,20.3455 Z M124.738248,19.234167 C125.354536,19.234167 125.843686,19.0068512 126.205713,18.5522126 C126.56774,18.0975741 126.748751,17.4509869 126.748751,16.6124314 C126.748751,15.7772436 126.56774,15.1314983 126.205713,14.6751759 C125.843686,14.2188536 125.354536,13.9906958 124.738248,13.9906958 C124.121961,13.9906958 123.630285,14.2180116 123.263206,14.6726501 C122.896128,15.1272887 122.712591,15.7738759 122.712591,16.6124314 C122.712591,17.4509869 122.896128,18.0975741 123.263206,18.5522126 C123.630285,19.0068512 124.121961,19.234167 124.738248,19.234167 Z M128.304617,16.6124314 C128.304617,17.9494054 127.929125,18.9731686 127.178129,19.6837517 C126.615725,20.2629948 125.802439,20.5526121 124.738248,20.5526121 C123.674057,20.5526121 122.860772,20.2629948 122.298367,19.6837517 C121.544004,18.9731686 121.166828,17.9494054 121.166828,16.6124314 C121.166828,15.2485159 121.544004,14.2247527 122.298367,13.5411111 C122.860772,12.961868 123.674057,12.6722507 124.738248,12.6722507 C125.802439,12.6722507 126.615725,12.961868 127.178129,13.5411111 C127.929125,14.2247527 128.304617,15.2485159 128.304617,16.6124314 Z M131.313123,14.1927563 L131.313123,16.1931558 L133.076102,16.1931558 C133.426342,16.1931558 133.689018,16.1527441 133.864138,16.0719194 C134.173965,15.9304763 134.328877,15.650962 134.328877,15.2333682 C134.328877,14.7820974 134.179017,14.4790096 133.879292,14.3240957 C133.710908,14.2365357 133.458334,14.1927563 133.121565,14.1927563 L131.313123,14.1927563 Z M133.444862,12.8995688 C133.966854,12.9096719 134.368446,12.9736571 134.649648,13.0915264 C134.93085,13.2093956 135.169111,13.3828292 135.364437,13.6118323 C135.526086,13.8004231 135.654057,14.0092169 135.748352,14.23822 C135.842648,14.4672231 135.889795,14.7282153 135.889795,15.0212046 C135.889795,15.3748123 135.800552,15.7225214 135.622064,16.0643422 C135.443577,16.406163 135.148908,16.6477913 134.73805,16.7892344 C135.081554,16.9273098 135.324866,17.1234749 135.467993,17.3777357 C135.61112,17.6319965 135.682683,18.0201173 135.682683,18.5421096 L135.682683,19.0422095 C135.682683,19.3823464 135.696153,19.6130299 135.723095,19.7342668 C135.763507,19.9262253 135.857801,20.0676663 136.005979,20.158594 L136.005979,20.3455 L134.293516,20.3455 C134.246369,20.1804831 134.212692,20.0474612 134.192486,19.9464304 C134.152074,19.7376335 134.130184,19.5237882 134.126816,19.3048882 L134.116713,18.6128308 C134.109978,18.1379862 134.023261,17.8214278 133.85656,17.6631462 C133.68986,17.5048647 133.377511,17.4257251 132.919505,17.4257251 L131.313123,17.4257251 L131.313123,20.3455 L129.792618,20.3455 L129.792618,12.8995688 L133.444862,12.8995688 Z M142.904151,12.8995688 L142.904151,14.2180139 L140.676434,14.2180139 L140.676434,20.3455 L139.110465,20.3455 L139.110465,14.2180139 L136.872644,14.2180139 L136.872644,12.8995688 L142.904151,12.8995688 Z M151.57826,12.8995688 L153.194745,12.8995688 L150.653833,20.3455 L149.183843,20.3455 L146.668189,12.8995688 L148.330137,12.8995688 L149.946621,18.5522126 L151.57826,12.8995688 Z M159.890856,14.2180139 L155.950675,14.2180139 L155.950675,15.7991377 L159.567559,15.7991377 L159.567559,17.0923252 L155.950675,17.0923252 L155.950675,19.0068489 L160.07271,19.0068489 L160.07271,20.3455 L154.43017,20.3455 L154.43017,12.8995688 L159.890856,12.8995688 L159.890856,14.2180139 Z M163.106474,14.1927563 L163.106474,16.1931558 L164.869453,16.1931558 C165.219693,16.1931558 165.482369,16.1527441 165.657489,16.0719194 C165.967316,15.9304763 166.122228,15.650962 166.122228,15.2333682 C166.122228,14.7820974 165.972368,14.4790096 165.672643,14.3240957 C165.504259,14.2365357 165.251685,14.1927563 164.914916,14.1927563 L163.106474,14.1927563 Z M165.238213,12.8995688 C165.760205,12.9096719 166.161797,12.9736571 166.442999,13.0915264 C166.724201,13.2093956 166.962462,13.3828292 167.157788,13.6118323 C167.319437,13.8004231 167.447408,14.0092169 167.541703,14.23822 C167.635999,14.4672231 167.683146,14.7282153 167.683146,15.0212046 C167.683146,15.3748123 167.593903,15.7225214 167.415415,16.0643422 C167.236928,16.406163 166.942259,16.6477913 166.5314,16.7892344 C166.874905,16.9273098 167.118217,17.1234749 167.261344,17.3777357 C167.404471,17.6319965 167.476034,18.0201173 167.476034,18.5421096 L167.476034,19.0422095 C167.476034,19.3823464 167.489504,19.6130299 167.516446,19.7342668 C167.556858,19.9262253 167.651152,20.0676663 167.79933,20.158594 L167.79933,20.3455 L166.086867,20.3455 C166.03972,20.1804831 166.006043,20.0474612 165.985837,19.9464304 C165.945425,19.7376335 165.923535,19.5237882 165.920167,19.3048882 L165.910064,18.6128308 C165.903329,18.1379862 165.816612,17.8214278 165.649911,17.6631462 C165.483211,17.5048647 165.170862,17.4257251 164.712856,17.4257251 L163.106474,17.4257251 L163.106474,20.3455 L161.585969,20.3455 L161.585969,12.8995688 L165.238213,12.8995688 Z M170.413819,18.0470613 C170.460966,18.3871982 170.553577,18.6414552 170.691652,18.8098398 C170.944229,19.1162999 171.376971,19.2695276 171.989891,19.2695276 C172.356969,19.2695276 172.655006,19.2291159 172.884009,19.1482913 C173.318441,18.9933774 173.535654,18.705444 173.535654,18.2844824 C173.535654,18.0386409 173.42789,17.8483691 173.212357,17.7136614 C172.996825,17.5823214 172.658377,17.4661377 172.197003,17.3651069 L171.408967,17.188304 C170.634398,17.0131839 170.098942,16.8229122 169.802586,16.6174829 C169.300799,16.2739783 169.04991,15.7368393 169.04991,15.00605 C169.04991,14.3392469 169.29238,13.7852698 169.777328,13.3441021 C170.262276,12.9029343 170.974532,12.6823538 171.914118,12.6823538 C172.698791,12.6823538 173.36811,12.8903057 173.922095,13.3062157 C174.47608,13.7221257 174.76654,14.3257756 174.793481,15.1171833 L173.298233,15.1171833 C173.271291,14.6692802 173.075968,14.3510381 172.712257,14.1624473 C172.469784,14.0378426 172.16838,13.9755413 171.808036,13.9755413 C171.407281,13.9755413 171.087355,14.0563647 170.848249,14.2180139 C170.609143,14.3796632 170.489591,14.6052952 170.489591,14.8949167 C170.489591,15.1609645 170.607459,15.3596553 170.843197,15.4909954 C170.994744,15.5785554 171.318037,15.6812685 171.813088,15.7991377 L173.096172,16.10728 C173.658577,16.2419877 174.0829,16.4221566 174.369154,16.647792 C174.813689,16.998032 175.035954,17.5048622 175.035954,18.1682976 C175.035954,18.8485715 174.775803,19.4134935 174.255495,19.8630804 C173.735186,20.3126674 173.000198,20.5374575 172.050509,20.5374575 C171.080614,20.5374575 170.317843,20.3160351 169.762173,19.8731835 C169.206504,19.4303319 168.928674,18.8216306 168.928674,18.0470613 L170.413819,18.0470613 Z M177.87776,20.3455 L176.331997,20.3455 L176.331997,12.8995688 L177.87776,12.8995688 L177.87776,20.3455 Z M182.886666,19.234167 C183.502954,19.234167 183.992104,19.0068512 184.354131,18.5522126 C184.716158,18.0975741 184.897168,17.4509869 184.897168,16.6124314 C184.897168,15.7772436 184.716158,15.1314983 184.354131,14.6751759 C183.992104,14.2188536 183.502954,13.9906958 182.886666,13.9906958 C182.270378,13.9906958 181.778702,14.2180116 181.411624,14.6726501 C181.044545,15.1272887 180.861009,15.7738759 180.861009,16.6124314 C180.861009,17.4509869 181.044545,18.0975741 181.411624,18.5522126 C181.778702,19.0068512 182.270378,19.234167 182.886666,19.234167 Z M186.453034,16.6124314 C186.453034,17.9494054 186.077542,18.9731686 185.326547,19.6837517 C184.764142,20.2629948 183.950857,20.5526121 182.886666,20.5526121 C181.822475,20.5526121 181.009189,20.2629948 180.446785,19.6837517 C179.692422,18.9731686 179.315246,17.9494054 179.315246,16.6124314 C179.315246,15.2485159 179.692422,14.2247527 180.446785,13.5411111 C181.009189,12.961868 181.822475,12.6722507 182.886666,12.6722507 C183.950857,12.6722507 184.764142,12.961868 185.326547,13.5411111 C186.077542,14.2247527 186.453034,15.2485159 186.453034,16.6124314 Z M187.880417,12.8995688 L189.512056,12.8995688 L192.477294,18.0975764 L192.477294,12.8995688 L193.927079,12.8995688 L193.927079,20.3455 L192.371213,20.3455 L189.330201,15.0565652 L189.330201,20.3455 L187.880417,20.3455 L187.880417,12.8995688 Z" id="SHORTVERSION" fill="#FFFFFF" fill-rule="nonzero"></path>
            <g id="1-paragraph" transform="translate(0.000000, 45.980000)" stroke="#FFFFFF" stroke-linecap="square">
                <path d="M0,1.1495 L98.857,1.1495" id="Line-Copy-2"></path>
                <path d="M0,55.176 L70.1195,55.176" id="Line-Copy-3"></path>
                <path d="M0,19.5415 L98.857,19.5415" id="Line-Copy-4"></path>
                <path d="M0,37.9335 L98.857,37.9335" id="Line-Copy-5"></path>
            </g>
            <g id="1-paragraph" transform="translate(112.651000, 45.980000)" stroke="#FFFFFF" stroke-linecap="square">
                <path d="M0,1.1495 L98.857,1.1495" id="Line-Copy-2"></path>
                <path d="M0,55.176 L70.1195,55.176" id="Line-Copy-3"></path>
                <path d="M0,19.5415 L98.857,19.5415" id="Line-Copy-4"></path>
                <path d="M0,37.9335 L98.857,37.9335" id="Line-Copy-5"></path>
            </g>
        </g>
    </g>
</svg>