<?xml version="1.0" encoding="utf-8"?>
<!-- Generator: Adobe Illustrator 24.0.3, SVG Export Plug-In . SVG Version: 6.00 Build 0)  -->
<svg version="1.1" id="Layer_1" xmlns="http://www.w3.org/2000/svg" xmlns:xlink="http://www.w3.org/1999/xlink" x="0px" y="0px"
	 viewBox="0 0 279 207" style="enable-background:new 0 0 279 207;" xml:space="preserve">
<style type="text/css">
	.st0{fill:#222222;}
	.st1{fill:#242424;}
	.st2{fill:#292929;}
	.st3{fill:#252525;}
	.st4{fill:#353535;}
	.st5{fill:#262626;}
	.st6{fill:#2A2A2A;}
	.st7{fill:#727272;}
	.st8{fill:#737373;}
	.st9{fill:#323232;}
	.st10{fill:#444444;}
	.st11{fill:#393939;}
	.st12{fill:#414141;}
	.st13{fill:#272727;}
	.st14{fill:#2C2C2C;}
	.st15{fill:#232323;}
	.st16{fill:#303030;}
	.st17{fill:#363636;}
	.st18{fill:#2F2F2F;}
	.st19{fill:#515151;}
	.st20{fill:#4E4E4E;}
	.st21{fill:#6C6C6C;}
	.st22{fill:#3B3B3B;}
	.st23{fill:#313131;}
	.st24{fill:#3F3F3F;}
	.st25{fill:#656565;}
	.st26{fill:#424242;}
	.st27{fill:#202020;}
	.st28{fill:#5F5F5F;}
	.st29{fill:#484848;}
	.st30{fill:#282828;}
	.st31{fill:#434343;}
	.st32{fill:#535353;}
	.st33{fill:#2D2D2D;}
	.st34{fill:#686868;}
	.st35{fill:#464646;}
	.st36{fill:#4F4F4F;}
	.st37{fill:#2B2B2B;}
	.st38{fill:#6E6E6E;}
	.st39{fill:#2E2E2E;}
	.st40{fill:#4D4D4D;}
	.st41{fill:#8F8F8F;}
	.st42{fill:#808080;}
	.st43{fill:#333333;}
	.st44{fill:#626262;}
	.st45{fill:#494949;}
	.st46{fill:#373737;}
	.st47{fill:#666666;}
	.st48{fill:#3D3D3D;}
	.st49{fill:#868686;}
	.st50{fill:#C9C9C9;}
	.st51{fill:#404040;}
	.st52{fill:#5D5D5D;}
	.st53{fill:#4C4C4C;}
	.st54{fill:#585858;}
	.st55{fill:#777777;}
	.st56{fill:#343434;}
	.st57{fill:#6F6F6F;}
	.st58{fill:#636363;}
	.st59{fill:#646464;}
	.st60{fill:#5B5B5B;}
	.st61{fill:#3C3C3C;}
	.st62{fill:#606060;}
	.st63{fill:#1F1F1F;}
	.st64{fill:#505050;}
	.st65{fill:#858585;}
	.st66{fill:#525252;}
	.st67{fill:#939393;}
	.st68{fill:#3A3A3A;}
	.st69{fill:#5C5C5C;}
	.st70{fill:#717171;}
	.st71{fill:#9B9B9B;}
	.st72{fill:#4B4B4B;}
	.st73{fill:#919191;}
	.st74{fill:#707070;}
	.st75{fill:#A1A1A1;}
	.st76{fill:#545454;}
	.st77{fill:#5E5E5E;}
	.st78{fill:#616161;}
	.st79{fill:#565656;}
	.st80{fill:#474747;}
	.st81{fill:#888888;}
	.st82{fill:#6D6D6D;}
	.st83{fill:#595959;}
	.st84{fill:#6B6B6B;}
	.st85{fill:#999999;}
	.st86{fill:#8D8D8D;}
	.st87{fill:#A5A5A5;}
	.st88{fill:#B5B5B5;}
	.st89{fill:#DFDFDF;}
	.st90{fill:#676767;}
	.st91{fill:#CBCBCB;}
	.st92{fill:#848484;}
	.st93{fill:#898989;}
	.st94{fill:#7F7F7F;}
	.st95{fill:#696969;}
	.st96{fill:#7B7B7B;}
	.st97{fill:#575757;}
	.st98{fill:#767676;}
	.st99{fill:#828282;}
	.st100{fill:#838383;}
	.st101{fill:#8C8C8C;}
	.st102{fill:#909090;}
	.st103{fill:#969696;}
	.st104{fill:#A7A7A7;}
	.st105{fill:#7C7C7C;}
	.st106{fill:#7D7D7D;}
	.st107{fill:#787878;}
	.st108{fill:#8E8E8E;}
	.st109{fill:#8A8A8A;}
	.st110{fill:#A9A9A9;}
	.st111{fill:#BEBEBE;}
	.st112{fill:#C6C6C6;}
	.st113{opacity:0.8;fill-rule:evenodd;clip-rule:evenodd;fill:#313131;}
	.st114{fill-rule:evenodd;clip-rule:evenodd;fill:#FEFEFE;stroke:#FFFFFF;}
	.st115{fill-rule:evenodd;clip-rule:evenodd;fill:#FEFEFE;}
	.st116{fill:none;stroke:#FEFEFE;stroke-width:0.5748;}
	.st117{fill:#FEFEFE;}
	.st118{font-family:'FontAwesome';}
	.st119{font-size:4.3068px;}
	.st120{fill-rule:evenodd;clip-rule:evenodd;fill:#819FB3;}
	.st121{fill-rule:evenodd;clip-rule:evenodd;fill:#C8282C;}
	.st122{fill-rule:evenodd;clip-rule:evenodd;fill:#EEF8FF;fill-opacity:0.73;}
	.st123{enable-background:new    ;}
	.st124{fill:#FFFFFF;}
	.st125{fill:#727C85;}
</style>
<title>STREAMING AUDIO PREVIEW  GRID ROW</title>
<desc>Created with Sketch.</desc>
<g id="STREAMING-AUDIO-PREVIEW--GRID-ROW-">
	<g>
		<g>
			<path class="st0" d="M144.7,207c-48.5,0-97,0-145.8,0c0-35.7,0-71.5,0-107.2c4.5,1,9,2.1,13.5,3.1c0.3,2.1,0.7,4.2,1,6.3
				c0.3,2.1,0.7,4.1,1.1,6.2c3.1,0,6.3,0,9.4,0c0.2,4.4,1.1,8.8,0.5,13.1c-0.6,5.1-2.4,10-3.7,15c-0.3,4.1-0.7,8.2-0.8,12.3
				c-0.1,2.9,1.4,6.9,4.4,5.2c5.5-3,10.2-1.3,15.2,0.2c2.5-0.9,5-1.9,8-3c-0.6-1.9-1.2-4.2-1.9-6.4c0.4-4.5,0.7-8.9,1.1-13.4
				c0-1.4,0-2.8,0-4.2c2.2-0.4,4.3-0.8,6.5-1.2c3-2.8,6.1-5.5,9.1-8.3c0.9,1.4,2.2,2.7,2.6,4.3c1.7,5.8,3.2,11.7,4.7,17.5
				c-1.4,0.8-2.8,1.6-4.2,2.4c0.1,0.5,0.2,0.9,0.3,1.4c4.8-0.6,9.6-1.2,14.4-1.8c1.7,1.8,3.4,3.7,5.3,5.4c1.5,1.3,3.1,1.9,3.1-1.2
				c2.9-1.9,6.8-3.8,8.8-0.6c3,4.8,7.5,5.2,11.9,6.8c3.5,4.2,6.9,8.4,10.4,12.6c1.4,3.5,2.8,6.9,4.3,10.4c1.5,0.9,2.9,1.9,4.4,2.8
				c4.9,1.2,8.5-1.9,12.4-4c1.4-0.3,2.8-0.7,4.2-1c0.3,0.3,0.7,0.7,1,1c0,0.4,0,0.8,0,1.1c-0.6,0.5-1.1,1-1.7,1.5
				c0.2,0.2,0.3,0.4,0.5,0.6c0.4-0.4,0.8-0.7,1.2-1.1l0,0c1.5,0.7,2.9,1.4,4.4,2.1c0.6,2.1,1.2,4.1,1.8,6.2c0,2.7,0,5.3,0,9
				c-1.5-1.2-2.1-1.7-2.6-2.1C147.8,201.2,146.3,204.1,144.7,207z M96.9,173.8c-0.7,1.2-1.4,2.4-2.7,4.8c5.7-0.7,9.9-1.3,14.1-1.8
				c0.2-1.4,1-3.2,0.4-4.1c-2.5-4.1-5.3-8-8.1-12c-2.2,1.7-4.2,3.1-5.6,4.2C95.7,168.2,96.3,171,96.9,173.8z M30.8,181.1
				c-1.9,1.1-4,1.7-4.1,2.4c-0.1,2.8,0.5,5.7,0.8,8.6c0.8,0,1.6,0,2.4-0.1C30.2,188.8,30.4,185.5,30.8,181.1z M36.7,175.5
				c0.7-0.1,1.3-0.2,2-0.2c-0.6-3.1-1.2-6.1-1.8-9.2c-0.7,0.1-1.4,0.3-2.1,0.4C35.4,169.5,36.1,172.5,36.7,175.5z M75.7,162.4
				c-0.5,0.6-1,1.1-1.5,1.7c1.5,1.3,3,2.5,4.6,3.8c0.4-0.5,0.9-1,1.3-1.6C78.6,165.1,77.1,163.8,75.7,162.4z M88.5,171.2
				c-0.2,0.3-0.5,0.6-0.4,0.8c0,0.2,0.4,0.4,0.7,0.5c0.1-0.3,0.4-0.6,0.4-0.8C89.2,171.5,88.8,171.4,88.5,171.2z"/>
			<path class="st1" d="M279,158.1c0,16.3,0,32.6,0,48.9c-19.4,0-38.9,0-58.3,0c0-0.7,0-1.4,0.1-2.1c3.8-6.1,7.6-12.3,11.4-18.4
				c0.5,0.2,1,0.4,1.6,0.6c-0.5-1-1.1-2.1-1.6-3.1c-0.1-0.4-0.1-0.8-0.2-1.2c0-0.9,0.1-1.8,0.1-2.7c0-0.4,0.1-0.8,0.1-1.2
				c-0.3-1.3-0.5-2.6-0.8-3.9c2.4-2.5,4.8-4.9,7.2-7.4c1.4,0.3,2.7,0.6,4.1,0.9c-0.4,3.7-4.2,7.1-0.6,12.4c1-5.2,1.8-9.3,2.6-13.4
				c0.2-1.3,0.4-2.6,0.7-5.3c-4.4,0-8.3,0-12.2,0c-6,0-6.4,0.8-3.4,6.2c-4.7,2.7-9.5,3.2-13.5,1.8c-1.6-3.4-2.7-5.7-3.8-8
				c-0.3-0.9-0.3-2.3-0.9-2.8c-2.6-1.7-5.3-3.4-8.2-4.4c-0.9-0.3-3,1.1-3.8,2.3c-0.6,0.9,0.1,2.6,0.3,4c-1.1,0.7-2.1,1.4-3.2,2
				c-1.7,0-3.3,0-5,0c-0.7,0.4-1.5,0.7-2.2,1.1c-0.5-0.1-0.9-0.1-1.4-0.2c0,0-0.3,0-0.3,0c-3.7-0.1-6.5-1.4-7.9-5.2
				c-0.4-1.1-2-1.7-3-2.6c-2.1-0.5-4.2-1-6.2-1.5c-1-1-2.1-2.1-3.1-3.1c10.7-0.4,21.4-0.7,32.1-1.1c2.2,0,4.5,0.2,6.7-0.2
				c1.4-0.3,2.5-1.6,3.8-2.5c-1.4-0.9-2.9-2.8-4.1-2.6c-2.2,0.5-4.2,2.1-6.3,3.2c-8.6-0.2-8.9-0.3-9.4-7.3c2.8-7.3-2.5-13.4-3-20.2
				c-0.1-1-2.1-1.8-3.3-2.7c-1.3-1.7-3.9-3.7-3.6-5c0.8-3.2,3.4-2,5.9-1.3c2.9,0.8,6.1,0.6,9.9,0.9c-3.1-5.9-6.3-9.2-13.5-6.7
				c1.6-2.4,2-3.5,2.7-3.9c4.1-2.1,11,0.2,13.8,4c1.3,1.8,3.3,3.6,5.3,4.2c3.8,1.1,7.8,2,11.7,1.9c4.9-0.2,9.9-1.3,14.7-2.5
				c1.2-0.3,2.2-2.4,2.9-3.9c1.4-2.9,2.7-5.9,3.6-9c2.5-8.5,7.6-16.4,6-25.8c0.7-12.5,1.4-25,2.1-37.5c0-0.3,0.1-0.7,0.1-1
				c0.5,5.6,1,11.2,1.6,17.4c2.7-0.6,5.7-1.2,8.7-1.8c0.3,7.2,0.7,14.4,0.8,21.5c0,1.1-0.5,2.4-1.2,3.3c-2.1,2.6-5.9,4.9-6.1,7.5
				c-0.2,2.7,3,5.6,4.7,8.5c0.2,0.3,0.2,0.7,0.5,0.9c1.8,1.3,3.8,3.7,5.5,3.5c2.5-0.3,5.5-2,7-4c2.2-3,2.9-7,4.9-10.2
				c1.8-3,4.5-5.4,6.7-8.1c0,24.6,0,49.3,0,73.9c-1.6-1-3.2-2-4.2-2.6c-1.3,4.6-2.7,9.8-4.1,15.1c-4.5,0.9-1,3.4-1.1,5.2
				c1,1.7,2,3.5,3.1,5.2c0.8-0.5,1.6-1,2.4-1.4c0.1-2.2,0.3-4.5,0.3-6.7C275.4,157.6,276.2,156.3,279,158.1z M229.2,143.8
				c-3.8-0.3-8-1.2-11.3,2.2c-1,1-0.4,3.5-0.6,5.2C221.9,148.4,225.5,146.2,229.2,143.8z M250.4,131.5c0,0.3,0,0.6,0,0.9
				c5.3,0,10.5,0,15.8,0c0-0.3,0-0.6,0-0.9C260.9,131.5,255.6,131.5,250.4,131.5z M229.8,195.2c0.7,0.8,1.4,1.5,2.1,2.3
				c2.2-2.1,4.5-4.2,6.7-6.3c-0.6-0.7-1.2-1.3-1.8-2C234.4,191.1,232.1,193.2,229.8,195.2z"/>
			<path class="st0" d="M105.2-0.2c31.9,0,63.9,0,95.8,0c-0.4,1.7-0.7,3.4-1.1,5.2c-1.4,1.4-2.7,2.8-4.1,4.2
				c-1.2,1.9-2.5,3.7-3.6,5.6c-2.7,4.7-5.3,9.4-7.9,14.2c-3.8,4.9-7.6,9.7-11.4,14.6c-5.6,6.9-11.2,13.7-17,21
				c-0.5-0.4-1.6-1.3-2.8-2.2c-2.2-4.3-3.3-10-6.7-12.6c-9.6-7.2-12.2-19.8-21.9-26.7c-0.9-0.7-1.3-2.1-2.1-2.9
				c-4.5-4.4-9.1-8.7-13.6-13.1c-0.4-0.1-0.8-0.1-1.2-0.2C106.6,4.5,105.9,2.2,105.2-0.2z"/>
			<path class="st0" d="M61.4-0.2c13.2,0,26.4,0,39.6,0c0,0.3,0,0.6,0,1c0.3,1.5,0.7,3,1,4.4c0.7,7.2,1.4,14.4,2.1,21.7
				c0,10.8,0,21.5,0,32.3c0.8,5.3,1.5,10.5,2.3,15.8c0.3,1.7,0.1,3.7,1,5c3.4,4.5,2.8,9,0.8,13.6c0,2.8,0,5.6,0,8.3
				c-1.8,1-3.5,2-5.3,3c-5.8,0.7-8.1-4-11.3-7.2c1-1.4,2.1-2.8,3.1-4.2c-1.4-0.7-2.7-1.4-4.1-2.1c0-0.7-0.1-1.4-0.1-2
				c0.7-3.4,2.3-7,2-10.3c-0.8-9.6-3.4-18.9-8.2-27.4c-3.3-5.8-6-12-9.2-17.9c-2-3.8-4.3-7.3-6.5-11c-1.7-2.5-3.3-5-5-7.5
				c-0.8-4.8-1.6-9.5-2.4-14.3C61.3,0.6,61.4,0.2,61.4-0.2z"/>
			<path class="st0" d="M8.3-0.2c16.3,0,32.6,0,48.9,0c0,0.4,0.1,0.8,0.1,1.2c0,0.3,0,0.7,0.1,1c0.3,0.9,0.6,1.9,0.9,2.8
				c-0.1,0.4-0.3,0.7-0.4,1.1c-1.3,12.5-2.6,25-3.9,37.5c-1.7,8-3.5,16-5.2,24c-2-1.2-4.9-1.9-5.8-3.6c-3.6-6.6-6.6-13.5-9.8-20.3
				c-0.8-1-1.6-2-2.5-2.9c-1.6-1.8-3.2-3.6-4.7-5.4c-0.4-1-0.8-2.1-1.1-3.1c-1.9-3.8-3.7-7.6-5.7-11.3c-1.5-2.9-3.1-5.7-4.7-8.5
				C12.5,8.1,10.4,4,8.3-0.2z"/>
			<path class="st0" d="M204.1-0.2c14.9,0,29.8,0,44.8,0c-0.7,1.6-1.4,3.2-2.1,4.9c-0.7,0.8-1.4,1.6-2,2.4c-3.5,4.8-7,9.7-10.5,14.5
				c-4.9,6.7-9.9,13.4-14.6,20.3c-0.8,1.2-0.9,3-0.9,4.5c0,2.8-0.2,5.4-3.9,5.2c-3.4-0.1-4-2.3-4.4-5.2c-1.7-14.2-3.6-28.3-5.4-42.5
				C204.7,2.6,204.4,1.2,204.1-0.2z"/>
			<path class="st0" d="M216.6,207c-16.7,0-33.3,0-50,0c-0.4-1.4-0.7-2.8-1.1-4.2c-1-1.4-2-2.8-3-4.2c-0.7-0.7-1.3-1.3-2-2
				c-0.8-2.8-1.6-5.6-2.3-8.4c-0.3-1.4-0.7-2.8-1-4.2c0,0-0.1,0.1-0.1,0.1c1-0.6,2.4-1.9,2.9-1.6c5.1,2.8,6.1-1.4,7.8-4.4
				c0.9,0.2,1.8,0.5,2.7,0.7c2.2-2.1,4.3-4.2,6.5-6.2c1.3,0.8,2.7,1.6,4,2.4c0,0.2,0,0.4,0,0.5c-3.2,7.8-13.8,11-13.6,21.1
				c2.9-4.7,5.4-9.6,13.4-9.4c-4.9-2.9-2.5-4.5-0.9-6.3c1.2,0.8,2.3,1.7,3.5,2.5c1.8-2.5,3.6-5.1,5.8-8.2c-0.5,5.5,1.1,9.6,7.6,8.8
				c2.4,1.4,4.8,2.9,7.2,4.3c4.9,9.4,4.9,9.5,11.5,7.2C215.8,199.4,216.2,203.2,216.6,207z"/>
			<path class="st0" d="M246.7,4.7c0.7-1.6,1.4-3.2,2.1-4.9c10.1,0,20.1,0,30.2,0c0,6.2,0,12.5,0,18.7c-3.3,2.2-7.9,3.6-9.8,6.6
				c-4.6,7.7-11,14.5-13.1,23.6c-3,0.6-6,1.2-8.7,1.8c-0.6-6.2-1.1-11.8-1.6-17.4c0.3-4.9,0.6-9.7,0.9-14.6
				C246.7,13.9,246.7,9.3,246.7,4.7z"/>
			<path class="st2" d="M256.1,48.7c2.1-9.1,8.5-15.9,13.1-23.6c1.9-3.1,6.5-4.5,9.8-6.6c0,1,0,2.1,0,3.1
				c-3.5,5.5-6.4,11.4-10.6,16.3c-4.4,5.2-1.3,9.9,0.4,14.2c0.6,1.5,5.6,1.3,8.6,1.8c0.5,0.1,1,0,1.5,0c0,5.9,0,11.8,0,17.7
				c-2.3,2.7-4.9,5.2-6.7,8.1c-2,3.2-2.7,7.2-4.9,10.2c-1.5,2-4.5,3.7-7,4c-1.7,0.2-3.7-2.2-5.5-3.5c-0.2-0.2-0.3-0.6-0.5-0.9
				c-1.7-2.8-4.9-5.8-4.7-8.5c0.2-2.6,4-4.9,6.1-7.5c0.7-0.9,1.3-2.2,1.2-3.3C256.8,63.1,256.4,55.9,256.1,48.7z"/>
			<path class="st0" d="M-1,97.7c0-32.6,0-65.2,0-97.9c2.1,0,4.2,0,6.2,0c1,4.9,2.1,9.7,3.1,14.6c0.1,12.5,4.5,24.9,1,37.5
				c0.1,3.1,0,6.2,0.3,9.2c0.2,2.3,0.4,5,1.7,6.7c6.5,9,4.2,17.4-6.2,21.6C0.8,89.5,1,93.2,0,96C-0.4,96.6-0.7,97.1-1,97.7z"/>
			<path class="st3" d="M5.2,89.4c10.5-4.2,12.7-12.6,6.2-21.6c-1.3-1.7-1.4-4.4-1.7-6.7c-0.3-3-0.2-6.1-0.3-9.2
				c0.6,0.3,1.4,0.4,1.9,0.8c5.3,4.4,9.2,18.2,7,24.7c-2.3,6.6-1.3,8.7,5,12.5c1.3,0.7,2.9,2.9,2.7,3.8c-1.6,5,0.6,9.1,2.2,13.5
				c2.7,1.7,3.5,3.4,0.2,5.2c-1.4,1-2.9,2-4.3,3.1c-3.1,0-6.3,0-9.4,0c0.5-3.9,1.1-7.7,1.4-11.6c0-0.2-2.3-0.6-3.5-0.9
				c-4.5-1-9-2.1-13.5-3.1c0-0.7,0-1.4,0-2.1c0.3-0.6,0.7-1.1,1-1.7c1.9,0.1,3.8,0.2,5.7,0.3c0-1.8,0-3.6-0.1-5.4
				C5.6,90.3,5.3,89.9,5.2,89.4z"/>
			<path class="st4" d="M279,54c-0.5,0-1,0.1-1.5,0c-3-0.5-8-0.3-8.6-1.8c-1.7-4.3-4.8-9-0.4-14.2c4.1-4.9,7.1-10.8,10.6-16.3
				c0,1,0,2.1,0,3.1c-2,4.6-3.9,9.1-6.5,15c3.3-0.8,4.9-1.1,6.5-1.5C279,43.5,279,48.7,279,54z"/>
			<path class="st5" d="M165.5,202.8c0.4,1.4,0.7,2.8,1.1,4.2c-7.3,0-14.6,0-21.9,0c1.6-2.9,3.1-5.8,4.7-8.7
				c0.6,0.5,1.1,0.9,2.6,2.1c0-3.7,0-6.4,0-9c1.3,0.8,2.6,1.5,3.9,2.3c0.4,0.6,0.8,1.3,1.3,1.9C157.2,201.7,160.1,204.2,165.5,202.8
				z"/>
			<path class="st6" d="M270.7,158.1c1.4-5.2,2.8-10.4,4.1-15.1c1,0.6,2.6,1.6,4.2,2.6c0,4.2,0,8.3,0,12.5c-2.8-1.8-3.6-0.4-3.6,2.3
				c0,2.2-0.2,4.5-0.3,6.7c-0.8,0.5-1.6,1-2.4,1.4c-1-1.7-2-3.5-3.1-5.2C271.7,161.9,273,160.3,270.7,158.1z"/>
			<path class="st7" d="M204.1-0.2c0.3,1.4,0.7,2.8,1,4.1c-0.3,1.1-0.7,2.1-1,3.2c-0.4,3-0.5,6.2-1.3,9.1c-0.3,1.3-1.9,2.4-2.8,3.6
				c-0.8-1.3-1.8-2.5-2.3-3.9c-0.3-0.7,0.1-1.7,0.2-2.5c0.7-2.8,1.4-5.5,2.1-8.3c0.4-1.7,0.7-3.4,1.1-5.2C202-0.2,203-0.2,204.1-0.2
				z"/>
			<path class="st8" d="M102,5.2c-0.3-1.5-0.7-3-1-4.4c0.4-0.3,0.7-0.6,1.1-1c1,0,2.1,0,3.1,0c0.7,2.3,1.5,4.7,2.2,7
				c0.6,3,1.2,6.1,1.8,9.5c-1.5-0.4-2.8-0.7-4-0.9c-0.1-0.3-0.2-0.6-0.3-0.8C103.9,11.5,103,8.3,102,5.2z"/>
			<path class="st9" d="M216.6,207c-0.4-3.8-0.7-7.6-1.1-11.4c0.7-0.7,1.5-1.4,2.2-2.1c1,1.5,2,3.1,3,4.6c0,2.3,0,4.6,0,6.9
				c0,0.7,0,1.4-0.1,2.1C219.3,207,217.9,207,216.6,207z"/>
			<path class="st10" d="M279,38.3c-1.6,0.4-3.2,0.7-6.5,1.5c2.6-5.9,4.5-10.5,6.5-15C279,29.3,279,33.8,279,38.3z"/>
			<path class="st11" d="M8.3,14.4c-1-4.9-2.1-9.7-3.1-14.6c1,0,2.1,0,3.1,0c2.1,4.2,4.2,8.3,6.3,12.5c0,0.4,0,0.7,0,1.1
				c-1.4-2-2.8-4-4.2-6c-0.3,0-0.7,0.1-1,0.1c0,2.3,0,4.6,0,6.9C9,14.4,8.7,14.4,8.3,14.4z"/>
			<path class="st12" d="M57.4,1c0-0.4-0.1-0.8-0.1-1.2c1.4,0,2.8,0,4.2,0c-0.1,0.4-0.1,0.8-0.2,1.2c-0.3,0-0.7,0-1,0.1
				C59.3,1.1,58.3,1,57.4,1z"/>
			<path class="st9" d="M102-0.2c-0.4,0.3-0.7,0.6-1.1,1c0-0.3,0-0.6,0-1C101.3-0.2,101.7-0.2,102-0.2z"/>
			<path class="st13" d="M109.1,159.1c-4.3-1.6-8.9-2-11.9-6.8c-2-3.2-5.9-1.3-8.8,0.6c-0.7-2.1-1.4-4.2-2.1-6.2
				c0.4-0.4,0.7-0.7,1.1-1.1c1.9,2.1,3,1.2,3.3-1.1c0.4-3.1,0.6-6.2,0.8-9.3c1.7-1.8,3.4-3.6,5-5.5c4.9-5.6,7.7-5.9,14.1-1.9
				c1.3,0.8,3.2,1.4,4.6,1.1c3.8-0.9,5.1,0.9,5.4,4.2c-6.5,0.8-4.1,5.7-4.2,9.4c-2.5,0-4.9,0-7.8,0c0.5,2.4,1,4.6,1.5,6.9
				c1.2-0.2,2.2-0.4,3.2-0.6c-0.3,2.4-0.6,4.8-0.9,7.2c-1.1,0.4-2.2,0.8-3.3,1.2c0,0.7,0.1,1.4,0.1,2.1L109.1,159.1z"/>
			<path class="st5" d="M23.9,115.4c1.4-1,2.9-2,4.3-3.1c0,3.4,0,6.8-0.1,10.2c-0.1,3.2,1.4,4.7,4.7,4.5c1.5-0.1,3.1-0.1,4.6-0.2
				c2.1,0.6,4.1,1.2,6.2,1.9c0,0.8,0,1.6,0,2.3c-2.2,0.3-4.4,0.8-6.7,0.9c-5.4,0.2-8.3,2.5-7,8.7c2.1,0.2,4.3,0.1,6.5,0.6
				c2.5,0.5,4.9,1.5,7.3,2.3c-0.3,2.5-0.8,5-0.7,7.5c0,2.5,1.2,2.5,2.7,0.7c0.7,2.3,1.3,4.5,1.9,6.4c-3,1.1-5.5,2.1-8,3
				c-1.9-5.2-6.5-5.8-11-6c-4.3-0.2-6.3-1.8-5.9-6.4c0.1-1.7-1.2-3.6-1.9-5.3c1.3-5,3-9.9,3.7-15C25,124.2,24.2,119.8,23.9,115.4z"
				/>
			<path class="st1" d="M144.7,179.9c-1.4,0.3-2.8,0.7-4.2,1c-2.9-0.6-5.8-1.3-8.7-1.9c-0.9-0.3-1.9-0.7-2.8-1
				c-3.8-3-5.3-6.9-5-11.6c2.9,0.3,7.4,3.2,6-3.6c0.5-0.6,1.1-1.1,1.6-1.7c4.3,2.1,8.6,4.2,12.9,6.3c0.1,1.7,0.1,3.3,0.2,5
				C144.8,175,144.8,177.5,144.7,179.9z"/>
			<path class="st14" d="M87.5,145.6c-0.4,0.4-0.7,0.7-1.1,1.1c-1.4,0.3-2.8,0.7-4.2,1c-2.7-3.8-5.3-7.7-8.2-11.4
				c-0.7-0.9-2.1-1.1-3.2-1.6c-0.2,1.1-0.4,2.2-0.5,3.3c-0.2,2.9-0.4,5.8-0.6,8.7c-1.5-5.9-3-11.7-4.7-17.5
				c-0.5-1.6-1.7-2.9-2.6-4.3c0.4-0.7,0.7-1.4,1.1-2.1l0.5,0c0,0,0.5,0,0.5,0c1.1,0.3,2.2,0.6,1.9,0.5c2.4-1.6,3.9-2.6,5.4-3.6
				c0.2,2.6,0.4,5.2,0.6,7.4c4-0.8,7.3-1.4,10.6-2c-1,2.3-2.9,3.1-3.5,4.5c-0.9,2.1-1.8,4.9-1,6.7c2.7,6,5.2,6.1,10.9,1.2
				C88.8,140,88.2,142.8,87.5,145.6z"/>
			<path class="st15" d="M43.8,143.5c-2.4-0.8-4.8-1.8-7.3-2.3c-2.1-0.5-4.4-0.4-6.5-0.6c-1.3-6.2,1.6-8.4,7-8.7
				c2.2-0.1,4.4-0.6,6.7-0.9c1.1,1.1,2.1,2.1,3.2,3.2c0,1.4,0,2.8,0,4.2C45.8,140.1,44.8,141.8,43.8,143.5z"/>
			<path class="st16" d="M144.7,179.9c0-2.5,0-4.9,0.1-7.4c0.8,0.7,1.6,1.4,2.4,2.2c0.4-2,0.7-4,1.1-6.4c1.2,0.4,2.4,0.9,3.6,1.4
				c1.4,0.3,2.8,0.6,4.3,0.9c1.3,0.7,2.6,1.4,3.9,2.1c-3.9,1.4-2.7,4.6-2.8,7.4c-0.1,1.4-0.2,2.8-0.3,4.1l0.1-0.1
				c-2.4,0.4-4.7,0.7-7.1,1.1c-1.5-0.7-2.9-1.4-4.4-2.1c1.4-0.3,2.8-0.7,4.2-1c0.3-0.7,0.6-1.4,1-2.1c-1.7,0.3-3.4,0.6-5.1,1
				C145.4,180.6,145.1,180.3,144.7,179.9z"/>
			<path class="st5" d="M69.8,146.6c0.2-2.9,0.4-5.8,0.6-8.7c0.1-1.1,0.3-2.2,0.5-3.3c1.1,0.5,2.6,0.7,3.2,1.6
				c2.9,3.7,5.5,7.6,8.2,11.4c-0.7,0.3-1.4,0.7-2.1,1c-4.8,0.6-9.6,1.2-14.4,1.8c-0.1-0.5-0.2-0.9-0.3-1.4
				C66.9,148.2,68.3,147.4,69.8,146.6z"/>
			<path class="st17" d="M46.8,134.2c-1.1-1.1-2.1-2.1-3.2-3.2c0-0.8,0-1.6,0-2.3c-0.6-2.3-1.3-4.6-1.9-6.9c3-2.5,2.5-5.4,1-8.5
				c0.3,0,0.7,0,1,0c3,6.7,10.6,11.1,9.6,19.8C51.1,133.4,49,133.8,46.8,134.2z"/>
			<path class="st13" d="M53.3,133c1.1-8.6-6.6-13.1-9.6-19.8c2.2,0.7,4.4,1.5,6.5,2.2c1,5.7,2.7,6.1,8,1.9c0.4,1.1,0.7,2.1,1.1,3.2
				c1.4,0.7,2.8,1.4,4.1,2.1c-0.4,0.7-0.7,1.4-1.1,2.1C59.4,127.5,56.3,130.3,53.3,133z"/>
			<path class="st16" d="M20.8,143.5c0.7,1.8,2,3.6,1.9,5.3c-0.4,4.6,1.6,6.1,5.9,6.4c4.5,0.2,9.1,0.8,11,6c-5-1.5-9.7-3.2-15.2-0.2
				c-3,1.6-4.4-2.3-4.4-5.2C20.1,151.7,20.5,147.6,20.8,143.5z"/>
			<path class="st18" d="M96.9,173.8c-0.6-2.8-1.2-5.6-2-9c1.4-1,3.4-2.5,5.6-4.2c2.8,4,5.6,7.9,8.1,12c0.6,1-0.3,2.7-0.4,4.1
				C105.8,171,101.2,169.8,96.9,173.8z"/>
			<path class="st12" d="M119.5,171.7c-3.4-4.2-6.9-8.4-10.4-12.6c0,0,0.2,0,0.2,0c2.5-0.3,5-0.7,7.5-1c0.6,0.7,1.1,1.5,1.7,2.2
				C119.9,164.1,124.8,167.5,119.5,171.7z"/>
			<path class="st19" d="M119.5,171.7c5.3-4.3,0.4-7.7-0.9-11.4c1.5,0.6,2.9,1.2,4.4,1.8c0.4,1.4,0.8,2.9,1.1,4.3
				c-0.4,4.7,1.2,8.6,5,11.6c-1.8,1.4-3.5,2.7-5.3,4.1C122.3,178.7,120.9,175.2,119.5,171.7z"/>
			<path class="st20" d="M96.9,173.8c4.3-4,8.9-2.8,11.3,3c-4.2,0.5-8.4,1.1-14.1,1.8C95.5,176.2,96.2,175,96.9,173.8z"/>
			<path class="st21" d="M150.2,185.1c2.4-0.4,4.7-0.7,7.1-1.1c0.3,1.4,0.7,2.8,1,4.2c-0.4,1.1-0.7,2.1-1.1,3.2
				c-0.3,0.7-0.6,1.3-0.9,2l-0.4,0.2c-1.3-0.8-2.6-1.5-3.9-2.3C151.4,189.3,150.8,187.2,150.2,185.1z"/>
			<path class="st22" d="M30.8,181.1c-0.3,4.4-0.6,7.6-0.8,10.9c-0.8,0-1.6,0-2.4,0.1c-0.3-2.9-0.9-5.7-0.8-8.6
				C26.7,182.9,28.9,182.2,30.8,181.1z"/>
			<path class="st14" d="M131.9,179.1c2.9,0.6,5.8,1.3,8.7,1.9c-3.9,2.1-7.5,5.1-12.4,4C129.4,183,130.6,181,131.9,179.1z"/>
			<path class="st14" d="M12.5,102.9c1.2,0.3,3.5,0.7,3.5,0.9c-0.3,3.9-0.9,7.7-1.4,11.6c-0.4-2.1-0.7-4.1-1.1-6.2
				C13.2,107.1,12.8,105,12.5,102.9z"/>
			<path class="st23" d="M80.2,148.7c0.7-0.3,1.4-0.7,2.1-1c1.4-0.3,2.8-0.7,4.2-1c0.7,2.1,1.4,4.2,2.1,6.2c0.1,3.2-1.6,2.5-3.1,1.2
				C83.5,152.4,81.9,150.5,80.2,148.7z"/>
			<path class="st24" d="M43.8,143.5c1-1.7,2-3.4,3-5.2c-0.4,4.5-0.7,8.9-1.1,13.4c-1.4,1.8-2.6,1.9-2.7-0.7
				C43.1,148.6,43.6,146,43.8,143.5z"/>
			<path class="st25" d="M131.9,179.1c-1.2,2-2.5,3.9-3.7,5.9c-1.4-0.9-2.9-1.9-4.4-2.8c1.8-1.4,3.5-2.7,5.3-4.1
				C130,178.4,130.9,178.7,131.9,179.1z"/>
			<path class="st26" d="M36.7,175.5c-0.6-3-1.3-6-1.9-9c0.7-0.1,1.4-0.3,2.1-0.4c0.6,3.1,1.2,6.1,1.8,9.2
				C38,175.4,37.4,175.4,36.7,175.5z"/>
			<path class="st9" d="M75.7,162.4c1.5,1.3,3,2.6,4.4,4c-0.4,0.5-0.9,1-1.3,1.6c-1.5-1.3-3-2.5-4.6-3.8
				C74.7,163.6,75.2,163,75.7,162.4z"/>
			<path class="st27" d="M149.9,182c-1.4,0.3-2.8,0.7-4.2,1c0,0,0,0,0,0c0-0.3,0-0.7,0-1c0-0.4,0-0.8,0-1.1c1.7-0.3,3.4-0.6,5.1-1
				C150.6,180.7,150.3,181.3,149.9,182z"/>
			<path class="st28" d="M88.5,171.2c0.2,0.2,0.6,0.3,0.7,0.5c0,0.2-0.3,0.5-0.4,0.8c-0.2-0.2-0.7-0.3-0.7-0.5
				C88.1,171.7,88.4,171.4,88.5,171.2z"/>
			<path class="st29" d="M145.7,182.1c0,0.3,0,0.7,0,1c-0.4,0.4-0.8,0.7-1.2,1.1c-0.2-0.2-0.3-0.4-0.5-0.6
				C144.6,183.1,145.2,182.6,145.7,182.1z"/>
			<path class="st2" d="M243.6,71.6c1.6,9.4-3.5,17.3-6,25.8c-0.9,3.1-2.2,6.1-3.6,9c-0.7,1.5-1.7,3.5-2.9,3.9
				c-4.8,1.2-9.8,2.3-14.7,2.5c-3.9,0.1-7.9-0.8-11.7-1.9c-2-0.6-4-2.4-5.3-4.2c-2.8-3.8-9.7-6.2-13.8-4c-0.7,0.4-1.1,1.5-2.7,3.9
				c7.3-2.6,10.4,0.7,13.5,6.7c-3.8-0.3-7-0.1-9.9-0.9c-2.5-0.7-5.1-1.9-5.9,1.3c-0.3,1.3,2.3,3.3,3.6,5c-3.1-0.4-6.3-0.7-9.4-1.1
				c-0.7-0.7-1.4-1.4-2.1-2.1c1.3-5.3,4.4-10.2,0.1-16.2c-3.4-4.7-5-10.7-7.4-16.2c1,0.4,2,0.7,3.1,1.1c2.5,4.1,4.6,8.4,7.4,12.3
				c3.3,4.6,6.8,4.7,11.3,1.3c2.8-0.7,5.6-1.4,8.3-2.1c4.5,3,8.7,6.6,13.6,8.8c6.3,2.8,8.9,0.6,12.5-8.8c4.3-0.9,10.5-0.3,12.4-2.9
				c4-5.4,5.7-12.6,8.4-19c0-0.7,0-1.4,0-2.1C242.9,71.7,243.3,71.7,243.6,71.6z"/>
			<path class="st23" d="M190.5,141.4c0.5,6.9,0.7,7.1,9.4,7.3c0,0.4-0.1,0.8-0.1,1.2c-10.8-0.1-21.6-0.2-32.4-0.3
				c-3.5,2.1-7,4.2-10.6,6.3c-1.9,0-3.9,0-5.9,0c0.3-2.8,0.6-5.6,0.9-8.4c3.6,2.3,4.7-0.7,6.3-2.9c0-3.9,0-7.8,0-11.7
				c1.7-1.4,3.5-2.7,5.2-4.1c1.8-1,3.6-2.1,5.4-3.1c1.2-0.4,2.3-0.7,3.8-1.2c0,2.2,0,3.8,0,5.8c1.4-1.2,2.3-1.9,3.2-2.6
				c0,1.7,0,3.5,0,5.2c1.4,1.7,2.8,3.5,4.2,5.2l0,0c-0.1,3.3-0.4,6.5-5.5,3.7c3.5,6.5,4.7,7,8.7,3.6c0.3,0,0.7,0,1,0
				c0.8,0.6,1.6,1.1,2.4,1.7C188.1,145.1,189.3,143.3,190.5,141.4z M169.6,143.2c1-0.1,2-0.3,2.9-0.4c-0.4-3.3-0.8-6.7-1.2-10
				c-0.9,0.1-1.7,0.2-2.6,0.3C169,136.5,169.3,139.9,169.6,143.2z"/>
			<path class="st6" d="M196.7,163.3c1.1-0.7,2.1-1.4,3.2-2c3.3,0.3,6.6,0.7,9.9,1c0.8,3.7,1.7,7.5,2.5,11.2
				c-0.4,1.1-0.8,2.2-1.2,3.4c-0.6,0.5-1.6,1.7-1.8,1.5c-3.2-1.8-4,0.7-5.2,2.6c-1.4,0-2.7,0-4.1,0c2.4-2.5,3.7-5.2,1.4-8.5
				c-1-1.5-1.7-3.3-2.5-5C198.1,166.1,197.4,164.7,196.7,163.3z"/>
			<path class="st30" d="M196.9,184c-6.5,0.8-8.1-3.3-7.6-8.8c-2.2,3.1-4,5.6-5.8,8.2c-1.2-0.8-2.3-1.7-3.5-2.5
				c0.4-0.6,0.8-1.3,1.2-1.9c1.3,0.6,2.5,1.1,3.8,1.7c0.1-1.4,0.5-2.9,0.1-4.2c-0.6-1.8-1.7-3.4-2.6-5c1.8-2.4,3.6-4.8,5.4-7.2
				c0,0,0.3,0,0.3,0c0.1,0.4,0.3,0.8,0.4,1.2c0.3,0.3,0.6,0.7,1,1c1.4,0.7,2.8,1.4,4.2,2c0.4,0,0.7,0,1.1,0c0.7,0,1.3,0,2,0
				c0,0,0,0,0,0c0.3,3.8,0.5,7.5,0.8,11.3C197.4,181.2,197.1,182.6,196.9,184z"/>
			<path class="st18" d="M190.5,141.4c-1.2,1.9-2.4,3.7-3.8,5.8c-0.8-0.6-1.6-1.1-2.4-1.7c3.3-9.2,3.7-13.1-4.2-15.6
				c-0.3-3.9,1.4-8.9-5.2-9.4c0-1,0-2.1,0-3.1c3.1,0.4,6.3,0.7,9.4,1.1c1.1,0.9,3.2,1.7,3.3,2.7C188,128,193.4,134.2,190.5,141.4z"
				/>
			<path class="st5" d="M170.7,155c2.1,0.5,4.2,1,6.2,1.5c1.2,4.2,4,8.3,1,12.9c-2.6-1.9-5.2-3.7-8.3-0.9c-1.4-1.4-2.8-2.8-4.2-4.2
				C167.2,161.2,169,158.1,170.7,155z"/>
			<path class="st31" d="M246.7,18.5c-0.3,4.9-0.6,9.7-0.9,14.6c0,0.3-0.1,0.7-0.1,1c-0.3,0.3-0.7,0.7-1,1c-2.4,2.8-4.9,5.6-7.3,8.3
				c-3.4-1.7-4.2-7.2-9.4-6.3c2.1-4.5,4.2-9,6.3-13.5c-1.8,5.3,0.4,9.3,5.2,13.6c1.8-3.4,3.5-6.3,4.7-9.3
				C245.4,25,245.9,21.7,246.7,18.5z"/>
			<path class="st32" d="M212.3,173.5c-0.8-3.7-1.7-7.5-2.5-11.2c0.9-0.1,1.9-0.1,2.8-0.2c1.1,2.3,2.2,4.7,3.8,8
				c3.9,1.3,8.8,0.9,13.5-1.8c0.4,0,0.8,0.1,1.2,0.1c-0.8,3.1-5.3,5-2.8,9.1c-0.1,0.2-0.2,0.3-0.4,0.5c-2-0.7-4-1.5-6-2.2
				c-1.4,0-2.8,0-4.2,0c-1.4-0.3-2.7-0.7-4.1-1C213.1,174.3,212.7,173.9,212.3,173.5z"/>
			<path class="st33" d="M220.8,204.9c0-2.3,0-4.6,0-6.9c0.7-3.2,1.5-6.5,2.2-9.7c3-1.5,6.1-2.9,9.1-4.4c0.5,1,1.1,2.1,1.6,3.1
				c-0.5-0.2-1-0.4-1.6-0.6C228.4,192.7,224.6,198.8,220.8,204.9z"/>
			<path class="st10" d="M231,168.4c-0.4,0-0.8-0.1-1.2-0.1c-3-5.4-2.6-6.2,3.4-6.2c3.9,0,7.8,0,12.2,0c-0.4,2.6-0.6,3.9-0.7,5.3
				c-0.7,0.3-1.3,0.7-2,1c-1.4-0.3-2.7-0.6-4.1-0.9c0,0-0.4-0.2-0.4-0.2c-2,0-4-0.1-6-0.1C231.8,167.6,231.4,168,231,168.4z"/>
			<path class="st34" d="M178,169.4c3-4.6,0.2-8.7-1-12.9c1,0.9,2.6,1.5,3,2.6c1.4,3.8,4.2,5.1,7.9,5.2c-1.8,2.4-3.6,4.8-5.4,7.2
				c-0.5,1.2-0.9,2.4-1.4,3.6c-1.3-0.8-2.7-1.6-4-2.4C177.4,171.5,177.7,170.5,178,169.4z"/>
			<path class="st35" d="M212.6,162.1c-0.9,0.1-1.9,0.1-2.8,0.2c-3.3-0.3-6.6-0.7-9.9-1c-0.1-1.4-0.8-3.1-0.3-4
				c0.7-1.2,2.8-2.6,3.8-2.3c2.9,1,5.6,2.7,8.2,4.4C212.3,159.8,212.3,161.2,212.6,162.1z"/>
			<path class="st36" d="M170.7,155c-1.7,3.1-3.5,6.3-5.2,9.4c-0.4,0-0.7-0.1-1.1-0.1c1-6-3.1-7.2-7.5-8.2c3.5-2.1,7-4.2,10.6-6.3
				c0.1,0.7,0.1,1.5,0.2,2.2C168.7,152.9,169.7,153.9,170.7,155z"/>
			<path class="st6" d="M229.2,143.8c-3.7,2.3-7.3,4.6-11.9,7.5c0.1-1.7-0.4-4.2,0.6-5.2C221.1,142.6,225.4,143.5,229.2,143.8z"/>
			<path class="st37" d="M199.8,149.9c0-0.4,0.1-0.8,0.1-1.2c2.1-1.1,4.1-2.8,6.3-3.2c1.1-0.2,2.7,1.7,4.1,2.6
				c-1.3,0.9-2.4,2.2-3.8,2.5c-2.2,0.4-4.5,0.2-6.7,0.2C199.8,150.4,199.8,150.2,199.8,149.9z"/>
			<path class="st33" d="M244.7,35.2c0.3-0.3,0.7-0.7,1-1c-0.7,12.5-1.4,25-2.1,37.5c-0.3,0-0.7,0-1,0
				C243.3,59.5,244,47.4,244.7,35.2z"/>
			<path class="st22" d="M250.4,131.5c5.3,0,10.5,0,15.8,0c0,0.3,0,0.6,0,0.9c-5.3,0-10.5,0-15.8,0
				C250.3,132.1,250.4,131.8,250.4,131.5z"/>
			<path class="st31" d="M229.8,195.2c2.3-2,4.7-4,7-6c0.6,0.7,1.2,1.3,1.8,2c-2.2,2.1-4.5,4.2-6.7,6.3
				C231.1,196.7,230.5,195.9,229.8,195.2z"/>
			<path class="st38" d="M199.8,149.9c0,0.3-0.1,0.6-0.1,0.8c-10.7,0.4-21.4,0.7-32.1,1.1c-0.1-0.7-0.1-1.5-0.2-2.2
				C178.2,149.7,189,149.8,199.8,149.9z"/>
			<path class="st39" d="M242.6,168.4c0.7-0.3,1.3-0.7,2-1c-0.8,4.1-1.6,8.2-2.6,13.4C238.4,175.5,242.2,172.1,242.6,168.4z"/>
			<path class="st40" d="M232.1,184c-3,1.5-6.1,2.9-9.1,4.4c0,0-0.4-0.3-0.4-0.3c-0.2-0.7-0.5-1.3-0.7-2c1.8-1.4,3.6-2.8,5.3-4.2
				c1.6,0.3,3.2,0.6,4.7,0.9C232,183.2,232.1,183.6,232.1,184z"/>
			<path class="st10" d="M238.6,167.5c-2.4,2.5-4.8,4.9-7.2,7.4c-0.1-0.4-0.2-0.9-0.2-1.3c0.4-0.7,0.7-1.3,1.1-2
				c0.3-0.4,0.7-0.7,1-1.1l0,0c0.4-0.4,0.8-0.8,1.2-1.3c0,0,0.1-0.5,0.1-0.5c1.2-0.5,2.5-1,3.7-1.5
				C238.2,167.3,238.6,167.5,238.6,167.5z"/>
			<path class="st23" d="M270.7,158.1c2.3,2.3,1,3.8-1.1,5.2C269.7,161.5,266.2,159,270.7,158.1z"/>
			<path class="st41" d="M231.9,182.8c-1.6-0.3-3.2-0.6-4.7-0.9c0,0-0.1,0.1-0.1,0.1c0.1-0.6,0.1-1.3,0.2-1.9
				c0.2-0.1,0.4-0.2,0.6-0.3c1.1-0.3,2.1-0.5,3.2-0.8c0.3,0.4,0.7,0.8,1,1.2C232,181,232,181.9,231.9,182.8z"/>
			<path class="st42" d="M196.7,163.3c0.7,1.4,1.5,2.7,2.2,4.1c-0.7,0.3-1.4,0.7-2.1,1c0,0,0,0,0,0c-1.6-1.4-3.3-2.9-4.9-4.3
				c0-0.3-0.1-0.6-0.1-0.9C193.3,163.3,195,163.3,196.7,163.3z"/>
			<path class="st32" d="M231,178.9c-1.1,0.3-2.1,0.5-3.2,0.8c0-0.5-0.1-1.1-0.1-1.6c0.1-0.2,0.2-0.3,0.4-0.5c0.6-1,1.3-1.9,1.9-2.9
				c0.1-0.3,0.2-0.7,0.2-1c0.3,0,0.5,0,0.8-0.1c0.1,0.4,0.2,0.9,0.2,1.3c0.3,1.3,0.5,2.6,0.8,3.9C231.8,178.9,231.4,178.9,231,178.9
				z"/>
			<path class="st11" d="M191.7,163.3c0,0.3,0.1,0.6,0.1,0.9c-0.7,0.3-1.4,0.7-2.1,1c-0.1-0.3-0.2-0.5-0.2-0.8
				C190.2,164,191,163.7,191.7,163.3z"/>
			<path class="st10" d="M231,178.9c0.4,0,0.7,0,1.1,0c0,0.4-0.1,0.8-0.1,1.2C231.7,179.7,231.4,179.3,231,178.9z"/>
			<path class="st28" d="M189.5,164.4c0,0.3,0.1,0.6,0.2,0.8l-0.4,0.2c-0.3,0-0.5,0-0.8,0c-0.1-0.4-0.3-0.8-0.4-1.2
				C188.6,164.3,189,164.3,189.5,164.4z"/>
			<path class="st2" d="M108.6,7c4.5,4.4,9.1,8.7,13.6,13.1c0.9,0.8,1.2,2.3,2.1,2.9c9.7,6.9,12.3,19.5,21.9,26.7
				c3.4,2.6,4.6,8.3,6.7,12.6c0,0.3,0,0.7,0,1c-1.7-2.1-3.5-4.2-5.2-6.3c-0.7-0.7-1.4-1.4-2.1-2.1c-0.4-1-0.7-2-1.1-3.1
				c-4.3-3.5-9.1-6.6-10.7-12.5c-0.2-0.9-1.8-1.4-2.8-2.1c-7.3-9-14.6-18.1-21.8-27.1C109.1,9.1,108.9,8.1,108.6,7z"/>
			<path class="st43" d="M172.8,43.5c3.8-4.9,7.6-9.7,11.4-14.6c0.7-0.7,1.4-1.4,2.1-2.1c-3.5,5.6-7,11.1-10.4,16.7
				c1.6,9.3,1.6,9.3-5.7,9.6c-0.2,0-0.4,0.5-0.8,1.1c1.3,1.1,2.6,2.1,5.5,4.5c-10.2-1.6-12.2,3.1-11.9,10.2c0.1,2.9-1.8,4.3-4.9,3.8
				c0-0.4,0-0.7,0-1.1c1.4-2.1,3.6-4.2,3.9-6.4c0.5-4.2,1-7.9,4.2-11.3C169.1,51,170.7,47,172.8,43.5z"/>
			<path class="st30" d="M172.8,43.5c-2.1,3.5-3.8,7.5-6.5,10.4c-3.2,3.4-3.6,7.1-4.2,11.3c-0.3,2.3-2.5,4.3-3.9,6.4
				c-2.1,1.4-4.1,2.8-6.2,4.1c-0.6-0.2-1.1-0.5-1.7-0.7c0.9-3.9,1.8-7.8,2.7-11.8c0-0.3,0-0.7,0-1c1.2,0.9,2.3,1.9,2.8,2.2
				C161.7,57.3,167.3,50.4,172.8,43.5z"/>
			<path class="st16" d="M186.4,26.9c-0.7,0.7-1.4,1.4-2.1,2.1c2.6-4.7,5.2-9.5,7.9-14.2c1.1-1.9,2.4-3.7,3.6-5.6
				c-1.4,4.5-2.8,9-4.3,13.5C189.8,24.1,188.1,25.5,186.4,26.9z"/>
			<path class="st44" d="M108.6,7c0.2,1.1,0.5,2.1,0.7,3.2c1,2.1,2.1,4.2,3.1,6.3c0.7,1.7,1.4,3.5,2.1,5.2c-2.1,0.7-4.2,1.4-6.2,2.1
				c-0.7-1.7-1.5-3.4-2.2-5.2c-0.3-1.1-0.6-2.1-0.9-3.2c1.2,0.3,2.5,0.6,4,0.9c-0.7-3.5-1.2-6.5-1.8-9.5C107.8,6.9,108.2,7,108.6,7z
				"/>
			<path class="st45" d="M191.5,22.7c1.4-4.5,2.8-9,4.3-13.5c1.4-1.4,2.7-2.8,4.1-4.2c-0.7,2.8-1.4,5.5-2.1,8.3
				c-0.7,1.1-1.4,2.1-2,3.2c-1.4,2.1-2.7,4.2-4.1,6.3L191.5,22.7z"/>
			<path class="st14" d="M120.8,133.1c-0.3-3.4-1.6-5.1-5.4-4.2c-1.4,0.3-3.3-0.3-4.6-1.1c-6.4-4-9.2-3.6-14.1,1.9
				c-1.6,1.9-3.4,3.7-5,5.5c-0.1-2.7,0-5.4-0.3-8.1c-0.5-5.6-1.2-11.2-1.9-16.8c-0.7-1.1-1.3-2.1-2-3.2c-0.3-1.4-0.7-2.8-1-4.2
				c0.9,0.6,2.4,0.9,2.8,1.7c1.4,3.1,2,6.6,3.8,9.4c1.5,2.4,3.9,4.6,6.4,5.7c1.4,0.6,4.4-0.9,5.9-2.3c4.1-3.9,3.3-7.8-2.3-12.5
				c1.8-1,3.5-2,5.3-3c1.3,0.5,2.9,0.7,3.7,1.6c2.7,2.9,5.6,2.9,8.9,1.4c0.6,1.1,1.3,2.2,1.9,3.3c-0.3,7.2-0.6,14.5-0.9,21.7
				c0,1.4,0,2.8,0,4.2C121.5,133.8,121.1,133.4,120.8,133.1z"/>
			<path class="st30" d="M103,104.9c5.6,4.7,6.5,8.6,2.3,12.5c-1.5,1.4-4.4,2.9-5.9,2.3c-2.5-1-5-3.3-6.4-5.7
				c-1.8-2.8-2.4-6.3-3.8-9.4c-0.4-0.8-1.8-1.2-2.8-1.7c1-1.4,2.1-2.8,3.1-4.2c0.7-0.4,1.4-0.7,2.1-1.1
				C94.9,100.9,97.2,105.6,103,104.9z"/>
			<path class="st43" d="M68.7,22.7c2.2,3.7,4.5,7.2,6.5,11c3.2,5.9,5.9,12.1,9.2,17.9c4.8,8.5,7.4,17.8,8.2,27.4
				c0.3,3.4-1.3,6.9-2,10.3c-1.4-0.7-2.7-1.4-4.1-2.1c0-3.5,0-6.9,0-10.4c0.1-2.2,0.1-4.5,0.5-6.7c1.2-6.4-0.3-12.3-4.5-17
				C74.7,44.3,71.2,33.8,68.7,22.7z"/>
			<path class="st16" d="M108.3,93.5c2-4.7,2.6-9.2-0.8-13.6c-0.9-1.2-0.8-3.3-1-5c-0.8-5.3-1.5-10.5-2.3-15.8
				c0.7,1,1.4,2.1,2.1,3.1c0.9,3.1,1.3,6.5,2.9,9.3c1.7,2.9,4.1,6.5,7,7.4c5.1,1.6,7.5,4.3,7.9,9.3c-1.4,0.5-2.9,1.4-4.3,1.3
				C115.2,89.2,111.4,90.4,108.3,93.5z"/>
			<path class="st35" d="M68.7,22.7c2.5,11.1,6,21.6,13.7,30.3c4.2,4.7,5.7,10.6,4.5,17c-0.4,2.2-0.3,4.5-0.5,6.7c-0.3,0-0.7,0-1,0
				c0.1-2.6,0.1-5.2,0.4-7.7C86.5,63.6,85,59,81.2,55c-1-1.1-2.1-2.1-3.1-3.2c-1-1.2-2-2.4-3-3.6c-4.8-5.5-9.8-10.7-7.1-19.2
				c0.4-1.4-2.1-3.7-3.3-5.5c-0.3-2.8-0.7-5.5-1-8.3C65.4,17.8,67,20.3,68.7,22.7z"/>
			<path class="st46" d="M108.3,93.5c3.2-3.1,6.9-4.3,11.4-3.9c1.4,0.1,2.8-0.8,4.3-1.3c0.7,0,1.3,0,2,0.1c0,0.9,0,1.8,0,2.8
				c-2,1.9-4.1,3.7-6.1,5.6c-1.7-1-3.3-2-5-3c0,1.8-0.7,4.1,0.1,5.4c1.5,2.3,3.9,4,5.9,5.9c-3.3,1.5-6.2,1.5-8.9-1.4
				c-0.8-0.9-2.4-1.1-3.7-1.6C108.3,99.1,108.3,96.3,108.3,93.5z"/>
			<path class="st47" d="M63.7,15.3c0.3,2.8,0.7,5.5,1,8.3c0,0.4-0.1,0.8-0.1,1.2c-6.8,3.4-5.4,10.1-6.4,15.8
				c-0.3-0.1-0.6-0.1-0.9-0.2c-0.2-1.7-0.6-3.4-0.6-5.1c0.5-9.4,1.1-18.8,1.7-28.3c0.6-2,1.2-4,1.9-5.9c0.3,0,0.7,0,1-0.1
				C62.1,5.8,62.9,10.5,63.7,15.3z"/>
			<path class="st48" d="M106.2,62.3c-0.7-1-1.4-2.1-2.1-3.1c0-10.8,0-21.5,0-32.3c0.3-4.1,0.5-8.2,0.8-12.3
				c0.1,0.3,0.2,0.6,0.3,0.8c0.3,1.1,0.6,2.1,0.9,3.2c-0.3,8.4-0.8,16.8-0.9,25.2c0,5.5,0.7,10.9,1.1,16.4c0,0.7,0,1.4,0,2.1
				L106.2,62.3z"/>
			<path class="st46" d="M86.5,87.3c1.4,0.7,2.7,1.4,4.1,2.1c0,0.7,0,1.4,0.1,2c-0.7,1.8-1.5,3.5-2.2,5.3c-6.9,0.2-7.4-0.3-6.2-5.3
				C83.6,90,85,88.6,86.5,87.3z"/>
			<path class="st43" d="M88.5,96.7c0.7-1.8,1.5-3.5,2.2-5.3c1.4,0.7,2.7,1.4,4.1,2.1c-1,1.4-2.1,2.8-3.1,4.2
				c-0.7,0.4-1.4,0.7-2.1,1.1C89.2,98.1,88.8,97.4,88.5,96.7z"/>
			<path class="st9" d="M104.9,14.6c-0.3,4.1-0.5,8.2-0.8,12.3c-0.7-7.2-1.4-14.4-2.1-21.7C103,8.3,103.9,11.5,104.9,14.6z"/>
			<path class="st39" d="M26.1,35.2c1.6,1.8,3.2,3.6,4.7,5.4c0.8,1,1.6,1.9,2.5,2.9c3.1,11,6.2,22,9.4,33.6c1.8-1.2,3.5-2.3,5.1-3.4
				c0,1.4-0.1,2.8-0.1,4.2c-2.3,2.2-4.6,4.4-6.7,6.3c-4,0.3-8.2,0.7-12.3,0.8c-3.9,0.1-5.7-1.1-4.4-5.7c1.6-5.6,1.1-11.1-2.6-16.2
				c-2.6-3.7-4.1-8.2-6.1-12.3c0.3,0.3,0.7,0.7,1,1c2.5,3.3,4.5,7,7.5,9.8c2.9,2.8,3.3,5.3,2.7,9.2c-0.4,2.4,1.4,6.1,3.4,7.7
				c1.7,1.5,5.1,0.9,7.8,1.2c0.2-2.6,1.1-5.5,0.4-7.8c-3.2-11.3-6.9-22.4-10.4-33.6c-0.3,0-0.7,0-1,0c-0.4-1-0.8-2.1-1.1-3.1
				L26.1,35.2z"/>
			<path class="st11" d="M25,32.1c0.4,1,0.7,2.1,1.1,3.1c0,0-0.2,0-0.2,0c-1.7-0.7-3.4-1.4-5.1-2.1c-1,0-2.1,0-3.1,0
				c-1.4,5.2-2.8,10.4-4.2,15.6c-0.1-2.2-0.4-4.4-0.4-6.5c0-3,0.7-6.1,0.3-9c-0.7-5.6-2.1-11.1-3.1-16.7c1.4-0.4,2.8-0.7,4.2-1.1
				c1.1,2.8,2.5,5.5,3.1,8.4C18.7,28.1,20.4,31.2,25,32.1z"/>
			<path class="st2" d="M47.8,73.7c-1.7,1.1-3.3,2.2-5.1,3.4c-3.3-11.6-6.3-22.6-9.4-33.6c3.2,6.8,6.2,13.7,9.8,20.3
				c1,1.8,3.8,2.5,5.8,3.6c0,1,0,2.1,0,3.1C48.6,71.6,48.2,72.7,47.8,73.7z"/>
			<path class="st48" d="M58.4,7c-0.6,9.4-1.2,18.8-1.7,28.3c-0.1,1.7,0.4,3.4,0.6,5.1c-1,4.9-2.1,9.7-3.1,14.6c0-3.8,0-7.6,0-11.5
				c1.3-12.5,2.6-25,3.9-37.5C58.2,6.3,58.3,6.7,58.4,7z"/>
			<path class="st43" d="M54.1,43.5c0,3.8,0,7.6,0,11.5c-1.7,5.2-3.5,10.4-5.2,15.6c0-1,0-2.1,0-3.1C50.7,59.5,52.4,51.5,54.1,43.5z
				"/>
			<path class="st43" d="M25,32.1c-4.5-0.9-6.3-4-7.2-8.3c-0.6-2.9-2.1-5.6-3.1-8.4c0-0.7,0-1.4-0.1-2.1c0-0.4,0-0.7,0-1.1
				c1.6,2.8,3.2,5.6,4.7,8.5C21.3,24.5,23.1,28.3,25,32.1z"/>
			<path class="st49" d="M58.4,7c-0.1-0.3-0.2-0.7-0.3-1c0.1-0.4,0.3-0.7,0.4-1.1C58.1,3.9,57.8,3,57.5,2c-0.1-0.3-0.1-0.7-0.1-1
				c0.9,0,1.9,0,2.8,0.1C59.6,3.1,59,5,58.4,7z"/>
			<path class="st50" d="M57.5,2c0.3,0.9,0.6,1.9,0.9,2.8C58.1,3.9,57.8,3,57.5,2z"/>
			<path class="st51" d="M234.3,23.8c-2.1,4.5-4.2,9-6.3,13.5c-4.9,3.6-9.8,6.9-7.3,14.5c0.8,2.5-1,4.5-4.4,3.8
				c-2.3-0.5-4.7-0.4-7.1-0.6c-0.3-3.8-0.7-7.6-1-11.5c0-1.4-0.1-2.8-0.1-4.1c-0.4-1.1-0.5-2.6-1.3-3.3c-3.7-3.1-3.1-6.9-2.7-11
				c0.3-3.6,0-7.2-0.1-10.7c0-2.4,0-4.8,0-7.2c0.3-1.1,0.7-2.1,1-3.2c1.8,14.2,3.7,28.3,5.4,42.5c0.3,2.9,1,5.1,4.4,5.2
				c3.8,0.1,3.9-2.4,3.9-5.2c0-1.5,0.1-3.3,0.9-4.5c4.7-6.9,9.7-13.5,14.6-20.3c0.4,0.4,0.8,0.7,1.2,1.1c-0.1,0.3-0.1,0.7-0.2,1
				C235,23.8,234.7,23.8,234.3,23.8z"/>
			<path class="st52" d="M234.3,23.8c0.3,0,0.6,0,1,0c0.5,2.1,0.6,4.5,1.6,6.4c0.3,0.7,3.3,1,4,0.4c2.8-2.7,1.8-10-1.3-12.9
				c1.7-3.5,3.4-7,5.1-10.5c0.7-0.8,1.4-1.6,2-2.4c0,4.6,0,9.2,0,13.9c-0.8,3.2-1.3,6.5-2.5,9.5c-1.2,3.1-2.9,5.9-4.7,9.3
				C234.7,33.1,232.6,29.1,234.3,23.8z"/>
			<path class="st31" d="M244.7,7.1c-1.7,3.5-3.4,7-5.1,10.5c-1.4,1.7-2.7,3.4-4.1,5.2c-0.4-0.4-0.8-0.7-1.2-1.1
				C237.7,16.8,241.2,12,244.7,7.1z"/>
			<path class="st38" d="M164.4,164.2c0.4,0,0.7,0.1,1.1,0.1c1.4,1.4,2.8,2.8,4.2,4.2c0.3,3.4,0.6,6.9,0.9,10.3
				c-0.9-0.2-1.8-0.5-2.7-0.7c-0.8-0.8-1.6-1.6-2.4-2.4c-1.8-1-3.5-2-5.3-3c-1.3-0.7-2.6-1.4-3.9-2.1c2.1-1.7,4.1-3.4,6.2-5.1
				C163.1,165,163.7,164.6,164.4,164.2z"/>
			<path class="st53" d="M196.9,184c0.2-1.4,0.5-2.9,0.7-4.3c0.8,0.4,1.6,0.8,2.4,1.2c1.4,0,2.7,0,4.1,0c1.1,4.1,4.4,3.1,7.3,3.2
				c4.7,2.5,1.6,5.3,0.5,8.8c-2.9-1.7-5.3-3.1-7.8-4.6C201.7,186.9,199.3,185.5,196.9,184z"/>
			<path class="st18" d="M204,188.3c2.5,1.5,4.9,2.9,7.8,4.6c1.1-3.5,4.3-6.3-0.5-8.8c0-0.4,0-0.7,0-1.1c2,0.7,4.1,1.5,6.1,2.2
				c0.1,2.8,0.2,5.5,0.3,8.3c-0.7,0.7-1.5,1.4-2.2,2.1C209,197.8,208.9,197.7,204,188.3z"/>
			<path class="st54" d="M181.2,179c-0.4,0.6-0.8,1.3-1.2,1.9c-1.5,1.7-4,3.4,0.9,6.3c-7.9-0.1-10.5,4.7-13.4,9.4
				c-0.2-10.1,10.4-13.2,13.6-21.1C181.1,176.7,181.2,177.9,181.2,179z"/>
			<path class="st55" d="M165.5,175.7c0.8,0.8,1.6,1.6,2.4,2.4c-1.7,3.1-2.7,7.2-7.8,4.4c-0.5-0.3-1.9,1-2.9,1.6
				c0.1-1.4,0.2-2.8,0.3-4.1c0.4-0.1,0.7-0.1,1.1-0.2c0.6-0.3,1.2-0.7,1.8-1c0.4-0.7,0.7-1.4,1.1-2.1c0.3-1,0.6-1.9,0.8-2.9
				C163.3,174.5,164.4,175.1,165.5,175.7z"/>
			<path class="st48" d="M170.6,178.8c-0.3-3.4-0.6-6.9-0.9-10.3c3.1-2.9,5.7-1,8.3,0.9c-0.3,1.1-0.6,2.1-0.9,3.2
				C174.9,174.7,172.7,176.7,170.6,178.8z"/>
			<path class="st12" d="M165.5,202.8c-5.4,1.4-8.3-1.1-8.4-7.2c1.8,1,3.6,2,5.4,3C163.5,200,164.5,201.4,165.5,202.8z"/>
			<path class="st32" d="M181.2,179c0-1.2-0.1-2.3-0.1-3.5c0-0.2,0-0.4,0-0.5c0.5-1.2,0.9-2.4,1.4-3.6c0.9,1.7,2.1,3.2,2.6,5
				c0.4,1.3,0,2.8-0.1,4.2C183.7,180.1,182.4,179.6,181.2,179z"/>
			<path class="st56" d="M157.2,191.4c0.4-1.1,0.7-2.1,1.1-3.2c0.8,2.8,1.6,5.6,2.3,8.4c-0.7-1.1-1.5-2.2-2.2-3.3
				C158,192.7,157.6,192.1,157.2,191.4z"/>
			<path class="st57" d="M158.4,193.4c0.7,1.1,1.5,2.2,2.2,3.3c0.7,0.7,1.3,1.3,2,2c-1.8-1-3.6-2-5.4-3c-0.4-0.6-0.8-1.3-1.3-1.9
				c0,0,0.4-0.2,0.4-0.2C157,193.4,157.7,193.4,158.4,193.4z"/>
			<path class="st2" d="M10.4,16.5c1.1,5.6,2.4,11.1,3.1,16.7c0.4,2.9-0.3,6-0.3,9c0,2.2,0.2,4.4,0.4,6.5c0.7,0.7,1.4,1.4,2.1,2.1
				c2,4.1,3.5,8.6,6.1,12.3c3.7,5.2,4.2,10.6,2.6,16.2c-1.3,4.6,0.5,5.8,4.4,5.7c4.2-0.1,8.3-0.5,12.3-0.8c2-1.9,4.3-4.1,6.7-6.3
				c0,0,0.4,0,0.4,0c-1.1,2.8,0.4,2.9,2.7,3.3c2.3,0.4,4.4,1.9,6.6,2.9c-0.1,2.8-0.1,5.6-0.2,8.4c-0.8-0.9-1.8-1.7-2.4-2.7
				c-2-3.5-5-2.7-6.8-0.7c-1.9,2.1-3.2,5.2-3.7,8.1c-1,5-1.2,10.2-1.7,15.3c-3.1-6.4-9.3-4.4-14.5-5.4c-1.5-4.3-3.8-8.5-2.2-13.5
				c0.3-0.9-1.4-3.1-2.7-3.8c-6.4-3.7-7.3-5.8-5-12.5c2.2-6.5-1.6-20.3-7-24.7c-0.5-0.4-1.3-0.5-1.9-0.8c3.5-12.6-0.9-25-1-37.5
				c0.3,0,0.7,0,1,0C9.7,15.1,10,15.8,10.4,16.5z"/>
			<path class="st35" d="M5.2,89.4c0.2,0.5,0.4,1,0.4,1.5c0.1,1.8,0,3.6,0.1,5.4C3.8,96.2,1.9,96.1,0,96C1,93.2,0.8,89.5,5.2,89.4z"
				/>
			<path class="st52" d="M28.1,107.1c5.1,0.9,11.3-1,14.5,5.4c0,0.3,0.1,0.6,0.1,0.8c1.5,3,2,6-1,8.5c-1-2.8-2.9-4.7-5.7-2.7
				c-1.2,0.8-1.5,3.4-1.4,5.1c0.1,1,1.9,1.8,2.9,2.7c-1.5,0.1-3.1,0.1-4.6,0.2c-3.3,0.3-4.7-1.2-4.7-4.5c0.1-3.4,0.1-6.8,0.1-10.2
				C31.6,110.5,30.9,108.7,28.1,107.1z"/>
			<path class="st58" d="M204,7.1c0,2.4,0,4.8,0,7.2c-0.7,2.4-0.7,6.2-2.1,6.8c-4.8,2.1-3.5,4.9-2.1,8.2c0.8,1.9,1.4,3.8,2.1,5.7
				c-5.9-2.4-11.2-1.3-15.7,3.2c0.4-1.7,0.8-3.5,1.1-5.2c2.1-1.4,5.3-2.3,6-4.2c1.5-3.9,1.6-8.3,2.3-12.5c0.7-1.1,1.4-2.1,2.1-3.2
				c-0.1,0.9-0.5,1.8-0.2,2.5c0.6,1.4,1.5,2.6,2.3,3.9c1-1.2,2.5-2.2,2.8-3.6C203.5,13.3,203.7,10.2,204,7.1z"/>
			<path class="st40" d="M217.7,193.5c-0.1-2.8-0.2-5.5-0.3-8.3c0.8,1,1.5,2,2.3,3c0.9,0,1.9-0.1,2.8-0.1c0,0,0.4,0.3,0.4,0.3
				c-0.7,3.2-1.5,6.4-2.2,9.7C219.7,196.5,218.7,195,217.7,193.5z"/>
			<path class="st10" d="M10.4,16.5c-0.3-0.7-0.7-1.4-1-2.1c0-2.3,0-4.6,0-6.9c0.3,0,0.7-0.1,1-0.1c1.4,2,2.8,4,4.2,6
				c0,0.7,0,1.4,0.1,2.1C13.2,15.8,11.8,16.1,10.4,16.5z"/>
			<path class="st1" d="M120.8,133.1c0.4,0.3,0.7,0.7,1.1,1c0.4,4.9,0.7,9.8,1.1,14.7c-1.4-0.7-2.8-1.4-4.2-2.1
				c-0.7-1.4-1.4-2.8-2.1-4.2C116.7,138.8,114.2,133.9,120.8,133.1z"/>
			<path class="st26" d="M89.4,110.3c0.6,5.6,1.3,11.2,1.9,16.8c0.3,2.7,0.2,5.4,0.3,8.1c-0.3,3.1-0.4,6.2-0.8,9.3
				c-0.3,2.3-1.4,3.2-3.3,1.1c0.7-2.8,1.3-5.5,2-8.3c0-8.7,0-17.4,0-26.2C89.5,110.8,89.5,110.6,89.4,110.3z"/>
			<path class="st31" d="M118.7,146.6c1.4,0.7,2.8,1.4,4.2,2.1c0,0.6,0,1.2,0,1.9c-5.6-0.4-7,2.6-6,7.5c-2.5,0.3-5,0.7-7.5,1
				c0-0.7-0.1-1.4-0.1-2.1c1.1-0.4,2.2-0.8,3.3-1.2c0.3-2.4,0.6-4.8,0.9-7.2C115.2,148,116.9,147.3,118.7,146.6z"/>
			<path class="st18" d="M118.7,146.6c-1.7,0.7-3.5,1.4-5.2,2.1c-1,0.2-2,0.4-3.2,0.6c-0.5-2.3-1-4.5-1.5-6.9c2.9,0,5.4,0,7.8,0
				C117.3,143.9,118,145.3,118.7,146.6z"/>
			<path class="st35" d="M112.6,155.9c-1.1,0.4-2.2,0.8-3.3,1.2C110.4,156.7,111.5,156.3,112.6,155.9z"/>
			<path class="st59" d="M37.5,126.8c-1-0.9-2.8-1.7-2.9-2.7c-0.1-1.7,0.3-4.3,1.4-5.1c2.8-2,4.7-0.1,5.7,2.7
				c0.6,2.3,1.3,4.6,1.9,6.9C41.6,128,39.5,127.4,37.5,126.8z"/>
			<path class="st3" d="M116.9,158.1c-1-4.9,0.5-7.9,6-7.5c2.1,0,4.2,0,6.2,0c4.2,0,8.3,0.2,12.5,0.1c4.1-0.2,7.1,1.1,8.2,5.4
				c-0.3,0.9-0.7,1.8-1,2.7c-1.1,0.4-2.1,0.8-3.2,1.2c-0.7,0.3-1.3,0.7-2,1c-4-2.9-8-4.5-12,0.1c-0.5,0.6-1.1,1.1-1.6,1.7
				c-2.4-0.2-4.8-0.5-7.1-0.7c-1.5-0.6-2.9-1.2-4.4-1.8C118,159.6,117.4,158.9,116.9,158.1z"/>
			<path class="st7" d="M131.7,161.2c4-4.6,8-3,12-0.1c0.8,0.8,1.5,1.5,2.3,2.3c-0.1,0.7-0.2,1.3-0.3,2c-0.4,0.7-0.7,1.4-1.1,2.1
				C140.3,165.4,136,163.3,131.7,161.2z"/>
			<path class="st60" d="M144.6,167.5c0.4-0.7,0.7-1.4,1.1-2.1c0.4-0.1,0.8-0.2,1.2-0.2c1.3,0,2.6,0,3.9,0c0.5,0.6,1,1.3,1.5,1.9
				c-0.1,0.8-0.2,1.7-0.3,2.5c-1.2-0.5-2.5-0.9-3.6-1.4c-0.4,2.4-0.8,4.4-1.1,6.4c-0.8-0.7-1.6-1.4-2.4-2.2
				C144.8,170.9,144.7,169.2,144.6,167.5z"/>
			<path class="st23" d="M123,162.2c2.4,0.2,4.8,0.5,7.1,0.7c1.3,6.8-3.1,3.9-6,3.6C123.7,165,123.3,163.6,123,162.2z"/>
			<path class="st23" d="M89.5,111.1c0,8.7,0,17.4,0,26.2c-5.7,4.9-8.2,4.8-10.9-1.2c-0.8-1.8,0.1-4.6,1-6.7
				c0.6-1.4,2.5-2.2,3.5-4.5c-3.3,0.6-6.6,1.2-10.6,2c-0.2-2.2-0.4-4.8-0.6-7.4c8.4,4,11.3,3,14.8-5.2c0.4-0.9,0.6-2,0.9-3
				C88.2,111.3,88.8,111.2,89.5,111.1z"/>
			<path class="st37" d="M63.5,122.7c-1.4-0.7-2.8-1.4-4.1-2.1c2-1.5,3.9-3,5.3-4c-1.7-3.4-3-5.9-4.3-8.5c1-4.2,2.1-8.3,3.1-12.5
				c1,1.7,2,3.4,2.9,4.9c2.2-0.8,3.8-1.3,5.4-1.8c0.7,1.1,1.4,2.1,2.2,3.2c-2.5,2.4-5,4.8-8,7.6c1.5,1.2,2.6,2.1,3.6,2.9
				c-0.1,0.2-0.2,0.5-0.2,0.7c-0.8,1.1-1.9,2.1-2.5,3.3c-0.9,2-1.6,4.1-2.3,6.2c0,0-0.5,0-0.5,0L63.5,122.7z"/>
			<path class="st61" d="M64.5,122.7c0.8-2.1,1.4-4.2,2.3-6.2c0.6-1.2,1.6-2.2,2.5-3.3c7.3,4.9,9.5,4.5,11.9-1.8c2.1,0,4.2,0,6.3,0
				c-0.3,1-0.5,2-0.9,3c-3.5,8.2-6.4,9.2-14.8,5.2c-1.5,1-3,2-5.4,3.6C66.7,123.3,65.6,123,64.5,122.7z"/>
			<path class="st12" d="M152,169.6c0.1-0.8,0.2-1.7,0.3-2.5c3-2.8,6.1-5.2,10.1-1.7c-2.1,1.7-4.1,3.4-6.2,5.1
				C154.9,170.2,153.4,169.9,152,169.6z"/>
			<path class="st62" d="M158.5,179.9c-0.4,0.1-0.7,0.1-1.1,0.2c0-2.8-1.1-6,2.8-7.4c1.8,1,3.5,2,5.3,3c-1.1-0.6-2.2-1.2-3.3-1.8
				c-0.3,0-0.6,0-0.9,0c-0.7-0.1-1.3-0.1-2-0.2c-0.3,0.6-0.6,1.3-0.9,1.9c0,1.1,0,2.1,0,3.2C158.5,179.2,158.5,179.5,158.5,179.9z"
				/>
			<path class="st63" d="M149.9,182c0.3-0.7,0.6-1.4,1-2.1C150.6,180.7,150.3,181.3,149.9,182z"/>
			<path class="st15" d="M63.5,95.6c-1,4.2-2.1,8.3-3.1,12.5c-2.4,2.4-4.9,4.9-7.3,7.3c-0.9,0-1.9,0.1-2.8,0.1
				c-2.2-0.7-4.4-1.5-6.5-2.2c-0.3,0-0.7,0-1,0c-0.1-0.3-0.1-0.6-0.1-0.8c0.5-5.1,0.8-10.3,1.7-15.3c0.6-2.9,1.8-6,3.7-8.1
				c1.8-2,4.8-2.8,6.8,0.7c0.6,1,1.6,1.8,2.4,2.7c0.8,0.1,1.6,0.2,2.4,0.3C60.9,93.7,62.2,94.7,63.5,95.6z"/>
			<path class="st23" d="M53.1,115.4c2.4-2.4,4.9-4.9,7.3-7.3c1.3,2.5,2.6,5.1,4.3,8.5c-1.4,1.1-3.4,2.5-5.3,4
				c-0.4-1.1-0.7-2.1-1.1-3.2C56.6,116.7,54.8,116.1,53.1,115.4z"/>
			<path class="st64" d="M53.1,115.4c1.7,0.7,3.4,1.3,5.2,2c-5.3,4.2-7,3.8-8-1.9C51.2,115.5,52.2,115.4,53.1,115.4z"/>
			<path class="st65" d="M158.4,193.4c-0.7,0-1.4,0.1-2.1,0.1c0.3-0.7,0.6-1.3,0.9-2C157.6,192.1,158,192.7,158.4,193.4z"/>
			<path class="st12" d="M158.3,72.7c3,0.5,5-0.8,4.9-3.8c-0.3-7.2,1.7-11.9,11.9-10.2c-2.9-2.4-4.2-3.4-5.5-4.5
				c0.4-0.6,0.6-1.1,0.8-1.1c7.3-0.3,7.3-0.2,5.7-9.6c2.5,2.9,4.7,6.7,9.4,3.3c1,1.3,2,2.6,3,3.9c-1,2.9-2.1,5.7-3.4,9.4
				c-3.8-5.9-6.4-6.7-8-3.3c-1.5,3.2-3.8,3.3-6.6,3.7c-1.7,0.2-4.7,1.4-4.7,2.1c0.3,4.7,1.1,9.5,1.8,14.2c1.4,3.1,3.8,2.8,6.4,2
				c4.4-0.4,7.6,0.8,9.2,5.5c1.3,3.7,3.9,6.5,8.5,6.2c-0.4,0.3-0.7,0.6-1.1,0.9c-1.9,0.7-4.7,2.6-5.6,1.9c-2.3-1.7-5.3-4.4-5.5-6.9
				c-0.4-7.2-3.7-5.4-7.6-3.4c-1,0.3-2.1,0.7-3.1,1c-1-0.4-2-0.7-3.1-1.1c0-0.3,0-0.6-0.1-1C160.7,80.8,158.2,77.8,158.3,72.7z"/>
			<path class="st1" d="M165.5,82.1c0,0.3,0,0.6,0.1,1c2.4,5.4,4,11.5,7.4,16.2c4.3,5.9,1.2,10.8-0.1,16.2c-1-0.4-2.1-0.7-3.1-1.1
				c-0.8-3-1.1-6.2-2.5-8.8c-0.8-1.5-3.4-2-5.2-3c-0.6,1.9-1.2,3.7-1.8,5.6c0,0.7,0,1.4,0,2.1c-0.6-0.5-1.7-1-1.8-1.7
				c-1.3-8.9-4-18,1.8-26.4C162.1,82.1,163.8,82.1,165.5,82.1z"/>
			<path class="st33" d="M242.6,73.7c-2.7,6.4-4.4,13.5-8.4,19c-1.9,2.6-8.1,2-12.4,2.9c0,0-0.1,0-0.1,0c1.8-3.5,3.5-6.9,5.3-10.4
				c0.3,0,0.7,0,1,0C232.9,81.4,237.7,77.5,242.6,73.7z"/>
			<path class="st9" d="M221.8,95.6c-3.5,9.4-6.2,11.6-12.5,8.8c-4.9-2.2-9.1-5.8-13.6-8.8c0.7-0.7,1.4-1.4,2.1-2.1
				c2.6-0.4,5-1.9,7.1,1.6c3.1,5.1,4.9,5,9.6,0.6C216.9,95.6,219.3,95.6,221.8,95.6L221.8,95.6z"/>
			<path class="st46" d="M242.6,73.7c-4.9,3.8-9.7,7.6-14.6,11.4c2.6-3.6,2.7-9.2,8.3-10.4c1.7-2.1,4-4,4.8-6.4
				c0.9-2.4,0.3-5.4,0.4-8.1c-1.4-5.6-2.8-11.1-4.2-16.7c0,0,0,0,0,0c2.4-2.8,4.9-5.6,7.3-8.3c-0.7,12.2-1.4,24.3-2.1,36.5
				C242.6,72.3,242.6,73,242.6,73.7z"/>
			<path class="st11" d="M197.8,93.5c-0.7,0.7-1.4,1.4-2.1,2.1c-2.8,0.7-5.6,1.4-8.3,2.1c-5,1.4-7.7-1.3-9.9-5.3
				c-1.7-3.2-3.8-6.2-5.7-9.2c3.9-1.9,7.3-3.8,7.6,3.4c0.1,2.4,3.1,5.2,5.5,6.9c0.9,0.7,3.7-1.2,5.6-1.9
				C192.9,92.2,195.4,92.8,197.8,93.5z"/>
			<path class="st18" d="M169.7,114.3c1,0.4,2.1,0.7,3.1,1.1c0.7,0.7,1.4,1.4,2.1,2.1c0,1,0,2.1,0,3.1c0.3,2.4,0.7,4.9,1,7.3
				c-0.9,0.7-1.8,1.5-3.2,2.6c0-2.1,0-3.6,0-5.8c-1.5,0.5-2.7,0.8-3.8,1.2c-0.8-3.1-1.6-6.3-2.3-9.4
				C167.6,115.7,168.7,115,169.7,114.3z"/>
			<path class="st33" d="M171.8,83.1c1.9,3.1,4,6.1,5.7,9.2c2.2,4,4.9,6.8,9.9,5.3c-4.5,3.4-8,3.3-11.3-1.3c-2.8-3.9-5-8.2-7.4-12.3
				C169.7,83.8,170.7,83.4,171.8,83.1z"/>
			<path class="st9" d="M162.4,165.4c-4.1-3.4-7.1-1.1-10.1,1.7c-0.5-0.6-1-1.3-1.5-1.9c0-0.2,0-0.5-0.1-0.7
				c0.4-0.8,0.7-1.6,1.1-2.4c-0.3-0.6-0.5-1.3-0.8-1.9c-0.7-0.4-1.4-0.8-2.1-1.2c0.3-0.9,0.7-1.8,1-2.7c0.4,0,0.8-0.1,1.2-0.1
				c2,0,3.9,0,5.9,0c4.4,1,8.6,2.3,7.5,8.2C163.7,164.6,163.1,165,162.4,165.4z"/>
			<path class="st66" d="M151,156c-0.4,0-0.8,0.1-1.2,0.1c-1.1-4.3-4.1-5.6-8.2-5.4c-4.2,0.2-8.3,0-12.5-0.1c0-1.4,0-2.7-0.1-4.1
				c0.3-2.4,0.6-4.9,0.9-7.3c0.8,0,1.5,0,2.3,0c0,2.4,0,4.9,0,7.3c1.7,1,3.5,2,5.2,3c2.1-0.7,4.2-1.3,6.3-2c3.2,2.9,5.6,0.4,8.1-1.2
				c0.1,0.4,0.1,0.8,0.2,1.2C151.7,150.4,151.4,153.2,151,156z"/>
			<path class="st1" d="M180.1,129.9c7.8,2.6,7.5,6.4,4.2,15.6c-0.3,0-0.7,0-1,0c-1-2.4-2.1-4.8-3.1-7.3l0,0
				C180.1,135.5,180.1,132.7,180.1,129.9L180.1,129.9z"/>
			<path class="st10" d="M152,147.6c-0.1-0.4-0.1-0.8-0.2-1.2c-1.9-2-3.9-3.9-5.8-5.9c2.4-0.8,4.7-1.6,7.1-2.3
				c1.7,2.2,3.4,4.4,5.2,6.5C156.7,146.9,155.6,149.9,152,147.6z"/>
			<path class="st67" d="M158.3,144.7c-1.7-2.2-3.4-4.4-5.2-6.5c0.7-2.1,1.4-4.2,2.1-6.3c1,0.4,2,0.8,3,1.2
				C158.3,136.9,158.3,140.8,158.3,144.7z"/>
			<path class="st48" d="M175.9,127.9c-0.3-2.4-0.7-4.9-1-7.3c6.5,0.4,4.9,5.5,5.2,9.4c0,0,0,0,0,0c-1.4,1.1-2.8,2.1-4.2,3.2
				C175.9,131.4,175.9,129.6,175.9,127.9z"/>
			<path class="st18" d="M169.6,143.2c-0.3-3.4-0.6-6.7-0.9-10.1c0.9-0.1,1.7-0.2,2.6-0.3c0.4,3.3,0.8,6.7,1.2,10
				C171.6,143,170.6,143.1,169.6,143.2z"/>
			<path class="st18" d="M180.1,138.3c1,2.4,2.1,4.8,3.1,7.3c-3.9,3.4-5.2,3-8.7-3.6C179.8,144.8,180,141.6,180.1,138.3z"/>
			<path class="st36" d="M166.6,116.4c0.8,3.1,1.6,6.3,2.3,9.4c-1.8,1-3.6,2.1-5.4,3.1c-1.1-1.1-2.1-2.1-3.2-3.2
				C162.4,122.7,164.5,119.6,166.6,116.4z"/>
			<path class="st68" d="M160.3,125.8c1.1,1.1,2.1,2.1,3.2,3.2c-1.7,1.4-3.5,2.7-5.2,4.1c-1-0.4-2-0.8-3-1.2c-0.4-1.7-0.8-3.3-1.2-5
				c0.7-1,1.4-2.1,2.1-3.1C157.6,124.4,158.9,125.1,160.3,125.8z"/>
			<path class="st18" d="M176,133.1c1.4-1.1,2.8-2.1,4.2-3.2c0,2.8,0,5.6,0,8.3C178.7,136.6,177.3,134.8,176,133.1z"/>
			<path class="st69" d="M200,180.9c-0.8-0.4-1.6-0.8-2.4-1.2c-0.3-3.8-0.6-7.5-0.8-11.3c0.7-0.3,1.4-0.7,2.1-1
				c0.8,1.7,1.5,3.4,2.5,5C203.7,175.8,202.4,178.4,200,180.9z"/>
			<path class="st18" d="M211.4,183c0,0.4,0,0.7,0,1.1c-2.9-0.1-6.2,0.9-7.3-3.2c1.2-1.9,2-4.4,5.2-2.6c0.2,0.1,1.2-1,1.8-1.5
				c0,0,0.4,0,0.4,0c0,1.7,0,3.4,0,5.1C211.5,182.3,211.4,182.6,211.4,183z"/>
			<path class="st60" d="M212.3,173.5c0.4,0.4,0.8,0.9,1.2,1.3c0.4,2,0.7,4,1.1,6.1c0,0-0.2,0.2-0.2,0.2c-1-1.4-2-2.8-3-4.1
				c0,0-0.4,0-0.4,0C211.5,175.7,211.9,174.6,212.3,173.5z"/>
			<path class="st66" d="M189.7,165.2c0.7-0.3,1.4-0.7,2.1-1c1.6,1.4,3.3,2.9,4.9,4.3c-0.7,0-1.3,0-2,0c-0.4-0.4-0.7-0.7-1.1-1.1
				c0,0.3,0,0.7,0,1c-1.4-0.7-2.8-1.4-4.2-2c0-0.3-0.1-0.7-0.2-1L189.7,165.2z"/>
			<path class="st70" d="M193.7,168.5c0-0.3,0-0.7,0-1l0,0c0.4,0.4,0.7,0.7,1.1,1.1C194.4,168.5,194,168.5,193.7,168.5z"/>
			<path class="st71" d="M189.3,165.5c0.1,0.3,0.1,0.7,0.2,1c-0.3-0.3-0.6-0.7-1-1C188.8,165.4,189.1,165.4,189.3,165.5z"/>
			<path class="st72" d="M209.3,55c2.4,0.2,4.8,0.2,7.1,0.6c3.3,0.7,5.2-1.3,4.4-3.8c-2.5-7.6,2.4-10.9,7.3-14.5
				c5.2-1,6,4.5,9.4,6.3c0,0,0,0,0,0c-0.3,3.8-0.7,7.6-1,11.4c-0.3,0-0.6,0-0.9,0c-0.3-2.4-0.3-4.9-1.1-7.2
				c-0.7-2.1-2.3-3.9-3.5-5.8c-2.6,2.1-5.3,4.1-7.6,6.4c-0.7,0.6-0.3,2.3-0.4,3.5c2,4.3,4,8.6,6.3,13.5c-2.5-0.4-4.4-0.7-6.3-1
				c-3.1-2.1-6.2-4.1-9.4-6.2C212.1,57.1,210.7,56,209.3,55z"/>
			<path class="st73" d="M230.1,174.7c-0.6,1-1.3,1.9-1.9,2.9c-2.4-4.1,2.1-6,2.8-9.1c0.4-0.4,0.7-0.8,1.1-1.2
				c0.4,1.1,0.7,2.2,1.1,3.3c0,0,0,0,0,0c-0.3,0.4-0.7,0.7-1,1.1c-0.4,0.7-0.7,1.3-1.1,2c-0.3,0-0.5,0-0.8,0.1
				C230.3,174.1,230.2,174.4,230.1,174.7z"/>
			<path class="st45" d="M214.6,180.8c-0.4-2-0.7-4-1.1-6.1c1.4,0.3,2.7,0.7,4.1,1c1.4,1.5,3.7,2.9,1,5.3c-0.6,0.3-1.3,0.6-1.9,0.9
				C216,181.6,215.3,181.2,214.6,180.8z"/>
			<path class="st9" d="M227.8,178c0,0.5,0.1,1.1,0.1,1.6c-0.2,0.1-0.4,0.3-0.6,0.3c-1.2,0.3-2.3,0.6-3.5,1l0,0
				c-0.7-1.7-1.4-3.5-2-5.2C223.8,176.6,225.8,177.3,227.8,178z"/>
			<path class="st48" d="M221.8,175.8c0.7,1.7,1.4,3.5,2,5.2c-1.7,0-3.5,0-5.2,0c2.7-2.3,0.4-3.7-1-5.3
				C219,175.8,220.4,175.8,221.8,175.8z"/>
			<path class="st74" d="M233.2,170.5c-0.4-1.1-0.7-2.2-1.1-3.3c2,0,4,0.1,6.1,0.1c-1.2,0.5-2.5,1-3.7,1.5c0,0-0.1,0.5-0.1,0.5
				C234,169.7,233.6,170.1,233.2,170.5z"/>
			<path class="st30" d="M218.6,181c1.7,0,3.5,0,5.2,0c0,0,0,0,0,0c1.1,0.3,2.2,0.6,3.3,1c0,0,0.1-0.1,0.1-0.1
				c-1.8,1.4-3.6,2.8-5.3,4.2c0,0-0.1,0.1-0.1,0.1c-1.7-1.4-3.4-2.8-5.1-4.2C217.3,181.6,218,181.3,218.6,181z"/>
			<path class="st70" d="M222.5,188.1c-0.9,0-1.9,0.1-2.8,0.1c0.7-0.7,1.3-1.4,2-2c0,0,0.1-0.1,0.1-0.1
				C222.1,186.8,222.3,187.4,222.5,188.1z"/>
			<path class="st74" d="M232.2,171.6c0.3-0.4,0.7-0.7,1-1.1C232.9,170.9,232.5,171.3,232.2,171.6z"/>
			<path class="st1" d="M234.4,169.3c0,0,0.1-0.5,0.1-0.5C234.4,168.8,234.4,169.3,234.4,169.3z"/>
			<path class="st48" d="M227.1,181.9c-1.1-0.3-2.2-0.6-3.3-1c1.2-0.3,2.3-0.6,3.5-1C227.2,180.7,227.2,181.3,227.1,181.9z"/>
			<path class="st75" d="M230.1,174.7c0.1-0.3,0.2-0.7,0.2-1C230.3,174.1,230.2,174.4,230.1,174.7z"/>
			<path class="st16" d="M165.5,82.1c-1.7,0-3.5,0-5.2,0c-6.1,2.7-5.8,8.7-7.3,13.9c-1,3.5-2.7,6.8-4.1,10.1c-1-1.3-1.9-2.6-2.9-3.9
				c-2.1,1.1-3.8,2-5.4,2.9c-0.7-1.4-1.4-2.8-2.1-4.2c0.4-1.3,0.7-2.6,1.1-4c0.1-0.4,0.2-0.8,0.3-1.2c1.9-0.5,4-0.7,5.8-1.5
				c2-0.9,4.5-2,5.3-3.7c1.7-3.7,0.3-7.6-3.2-9.2c-1.4-0.7-4.5,1.6-6.7,2.9c-2,1.2-3.7,2.8-5.6,4.2c-0.1-1.4-0.1-2.7-0.2-4.1
				c0.6-1.8,1.3-3.6,2-5.8c9.7-2,10.4-2.9,10.5-13.6c0-2.6,0-5.2,0-7.8c1.7,2.1,3.5,4.2,5.2,6.3c-0.9,3.9-1.8,7.8-2.7,11.8
				c0.6,0.2,1.1,0.5,1.7,0.7c2.1-1.4,4.1-2.8,6.2-4.1c0,0.4,0,0.7,0,1.1C158.2,77.8,160.7,80.8,165.5,82.1z"/>
			<path class="st68" d="M147.9,57.1c0,2.6,0,5.2,0,7.8c-0.1,10.7-0.8,11.6-10.5,13.6c-0.8,2.1-1.4,4-2,5.8c-1.4-1-2.7-2.1-4.1-3.1
				c0.2-5,2.5-8,7.3-10c6.7-2.9,8.8-7.7,7.3-13.9c0-0.3-0.1-0.6-0.1-0.9c0-0.4,0-0.8,0.1-1.2C146.5,55.7,147.2,56.4,147.9,57.1z"/>
			<path class="st16" d="M131.2,37.3c1,0.7,2.6,1.2,2.8,2.1c1.5,6,6.3,9,10.7,12.5c-5.4,0-11.3-1-13.5,6.1c-0.6,0-1.3,0-1.9,0
				c-0.5-0.7-0.9-1.3-1.4-2c-0.3-0.4-0.6-0.8-0.8-1.3c0.9-2.2,1.9-4.3,2.8-6.5c1.1-2.6,2.3-5.3,3.4-7.9
				C132.6,39.4,131.9,38.3,131.2,37.3z"/>
			<path class="st48" d="M131.1,58c2.2-7.1,8.1-6.1,13.5-6.1c0.4,1,0.7,2,1.1,3.1c0,0.4,0,0.8-0.1,1.2c-1.4,1.4-2.7,2.7-4.1,4.1
				c-1.7,0.3-3.5,0.7-5.2,1C134.7,60.2,132.9,59.1,131.1,58z"/>
			<path class="st22" d="M131.2,37.3c0.7,1,1.4,2.1,2.1,3.1c-1,0-2,0-3.1,0c-5.9-8-11.8-16-17.8-23.9c-1-2.1-2.1-4.2-3.1-6.3
				C116.6,19.2,123.9,28.3,131.2,37.3z"/>
			<path class="st45" d="M185.4,46.9c-4.7,3.3-6.9-0.5-9.4-3.3c3.5-5.6,7-11.1,10.4-16.7c1.7-1.4,3.4-2.8,5.1-4.2
				c0,0,0.1,0.1,0.1,0.1c-1.4,3.5-2.8,6.9-4.2,10.4c-0.4,1.7-0.8,3.5-1.1,5.2C184.5,41,182.4,43.7,185.4,46.9z"/>
			<path class="st76" d="M112.4,16.5c5.9,8,11.8,16,17.8,23.9c-2.8,3.8-5.6,7.7-8.4,11.5c-0.3-0.6-1.1-1.4-0.9-1.7
				c3.2-6.7-1.3-8.4-6.3-9.8c-0.4-0.3-0.7-0.7-1.1-1c1-1.4,2.1-2.8,3.1-4.1c3.3-1.4,2.9-3.7,1.5-6.3c-1.3-2.4-2.4-4.9-3.6-7.3
				C113.8,19.9,113.1,18.2,112.4,16.5z"/>
			<path class="st21" d="M114.5,21.7c1.2,2.4,2.4,4.9,3.6,7.3c1.4,2.6,1.8,4.9-1.5,6.3c-6.3-0.7-8.1-3.1-8.3-11.5
				C110.4,23.1,112.4,22.4,114.5,21.7z"/>
			<path class="st77" d="M108.3,23.8c0.3,8.4,2,10.8,8.3,11.5c-1,1.4-2.1,2.8-3.1,4.1c-4.7-3.6-5.8-3-7.2,4.3c0,1.4,0,2.7-0.1,4.1
				c0.7,3.5,1.4,7,2,10.4c0,0.7,0,1.4,0,2c-0.7,0-1.4,0-2,0c-0.4-5.5-1.1-10.9-1.1-16.4c0-8.4,0.6-16.8,0.9-25.2
				C106.8,20.3,107.5,22,108.3,23.8z"/>
			<path class="st54" d="M187.4,33.1c1.4-3.5,2.8-6.9,4.2-10.4c1.4-2.1,2.7-4.2,4.1-6.3c-0.7,4.2-0.9,8.6-2.3,12.5
				C192.7,30.8,189.5,31.8,187.4,33.1z"/>
			<path class="st31" d="M88.5,96.7c0.4,0.7,0.7,1.3,1.1,2c-1,1.4-2.1,2.8-3.1,4.2c0.3,1.4,0.7,2.8,1,4.2c-1.7-0.1-3.4-0.1-5.1-0.2
				c0-3.5-1.8-5.1-5.3-5.1c-0.4-2.4,0.1-6.1-1.2-6.9c-5.1-3.2-5.9-7.6-5-12.8c2.8,4.4,4.4,10.2,11.4,9.3
				C81,96.4,81.6,96.9,88.5,96.7z"/>
			<path class="st19" d="M129.1,146.6c0,1.4,0,2.7,0.1,4.1c-2.1,0-4.2,0-6.2,0c0-0.6,0-1.2,0-1.9c-0.4-4.9-0.7-9.8-1.1-14.7
				c0-1.4,0-2.8,0-4.2c0.4,0.6,0.9,1.1,1.3,1.7c0.6-2.6,1.1-4.8,1.6-7c0,2.9-0.4,5.9,0.3,8.7C126,137.8,127.7,142.2,129.1,146.6z"/>
			<path class="st47" d="M124.8,124.7c-0.5,2.2-1,4.4-1.6,7c-0.4-0.6-0.9-1.1-1.3-1.7c0.3-7.2,0.6-14.5,0.9-21.7
				c-0.3-1.7-0.6-3.5-1-5.2c0.4-0.4,0.8-0.8,1.1-1.2c1,4.2,1.9,8.3,2.9,12.5c-0.3,2.1-0.5,4.2-0.8,6.3
				C124.9,122,124.8,123.3,124.8,124.7z"/>
			<path class="st78" d="M82.3,106.9c1.7,0.1,3.4,0.1,5.1,0.2c0.7,1.1,1.3,2.1,2,3.2c0,0.3,0.1,0.6,0.1,0.9c-0.7,0.1-1.4,0.1-2,0.2
				c-2.1,0-4.2,0-6.3,0c-2.8,0-5.6-0.1-8.4-0.1C74.8,107.2,77.8,105.5,82.3,106.9z"/>
			<path class="st79" d="M121.8,103c0.3,1.7,0.6,3.5,1,5.2c-0.6-1.1-1.3-2.2-1.9-3.3c-2-1.9-4.4-3.6-5.9-5.9
				c-0.8-1.3-0.1-3.5-0.1-5.4c1.7,1,3.3,2,5,3C120.5,98.8,121.1,100.9,121.8,103z"/>
			<path class="st36" d="M82.2,91.4c-7.1,0.9-8.6-5-11.4-9.3c-3.8,1.7-7.7,3.4-11.5,5.1c0.1,1.9,0.2,3.7,0.3,5.6
				c-0.8-0.1-1.6-0.2-2.4-0.3c0.1-2.8,0.1-5.6,0.2-8.4c4.8-1.7,9.6-3.5,14.5-5.2c0.3,0,0.7,0.1,1,0.1c1,2.4,1.7,4.9,3.2,7
				c0.9,1.3,3.2,2.9,4.3,2.6c1.6-0.4,3.3-2.4,3.9-4c0.9-2.4,0.8-5.1,1.1-7.7c0.3,0,0.7,0,1,0c0,3.5,0,6.9,0,10.4
				C85,88.6,83.6,90,82.2,91.4z"/>
			<path class="st48" d="M125.9,88.4c-0.7,0-1.3,0-2-0.1c-0.3-5.1-2.8-7.7-7.9-9.3c-2.9-0.9-5.3-4.5-7-7.4c-1.6-2.7-2-6.1-2.9-9.3
				c0,0,0.1-0.1,0.1-0.1c1,2.1,2,4.2,3,6.3c1.7,2.4,3.5,4.9,5.2,7.3c2.1-0.5,4.1-1.4,6.2-1.5c2.1-0.1,4.5-0.1,6.2,0.9
				c0.9,0.5,0.7,3.2,0.8,4.9c0,1-0.4,2-0.6,3C126.7,84.8,126.3,86.6,125.9,88.4z"/>
			<path class="st21" d="M72.9,78.9c-0.3,0-0.7-0.1-1-0.1c0-0.4,0-0.7,0-1.1c0.3-0.3,0.7-0.6,1-0.9c3.1-3.5,6.1-7,9.2-10.6
				c0.2-0.2,0-1.1-0.3-1.4c-3.5-4.3-3.5-10.8-8.9-13.9c1.7,0.3,3.5,0.7,5.2,1c1,1.1,2.1,2.1,3.1,3.2c0.6,2,1.2,3.9,1.9,5.9
				c1.6,4.4,2.1,8.5-4.9,10.5c5.8,3.2,5.5,7,2.9,10.9c-0.5,0.8-1.9,1-2.9,1.5c-0.3-1-0.7-2-0.8-3.1c-0.1-0.7,0.3-1.5,0.5-2.7
				C75.9,78.4,74.4,78.7,72.9,78.9z"/>
			<path class="st62" d="M78.1,51.9c-1.7-0.3-3.5-0.7-5.2-1c-4.8-0.8-6.4-4.6-8.3-8.4c0-1-0.1-2-0.1-3.1c-0.5-1.7-1.5-3.4-1.4-5
				c0.2-3.2,1-6.4,1.5-9.7c0-0.4,0.1-0.8,0.1-1.2c1.2,1.9,3.7,4.2,3.3,5.5c-2.7,8.5,2.3,13.7,7.1,19.2
				C76.1,49.5,77.1,50.7,78.1,51.9z"/>
			<path class="st28" d="M72.9,78.9c1.5-0.3,3-0.5,5-0.9c-0.2,1.2-0.6,1.9-0.5,2.7c0.1,1,0.6,2.1,0.8,3.1c1-0.5,2.3-0.7,2.9-1.5
				c2.6-4,2.9-7.8-2.9-10.9c7-2,6.5-6,4.9-10.5c-0.7-1.9-1.3-3.9-1.9-5.9c3.8,4,5.4,8.6,4.6,14.1c-0.3,2.5-0.3,5.1-0.4,7.7
				c-0.3,2.6-0.2,5.3-1.1,7.7c-0.6,1.7-2.3,3.6-3.9,4c-1.2,0.3-3.4-1.3-4.3-2.6C74.6,83.9,73.9,81.3,72.9,78.9z"/>
			<path class="st80" d="M125.9,88.4c0.4-1.8,0.8-3.5,1.2-5.3c1.4-0.7,2.8-1.4,4.2-2.1c1.4,1,2.7,2.1,4.1,3.1
				c0.1,1.4,0.1,2.7,0.2,4.1c-0.3,0.4-0.7,0.7-1,1.1c-1.1,0.4-2.3,0.8-3.4,1.2c-1.7,0.2-3.4,0.4-5.2,0.6
				C125.9,90.2,125.9,89.3,125.9,88.4z"/>
			<path class="st81" d="M125.9,91.1c1.7-0.2,3.4-0.4,5.2-0.6c0.1,0.3,0.1,0.6,0.2,0.9c-0.7,0.9-1.4,1.7-2.1,2.6
				c-0.5,0.8-0.9,1.6-1.4,2.3c-3.5,0.1-5.9,1.3-4.8,5.5c-0.4,0.4-0.8,0.8-1.1,1.2c-0.7-2.1-1.3-4.2-2-6.3
				C121.8,94.8,123.9,93,125.9,91.1z"/>
			<path class="st45" d="M48.9,70.6c1.7-5.2,3.5-10.4,5.2-15.6c1-4.9,2.1-9.7,3.1-14.6c0.3,0.1,0.6,0.1,0.9,0.2c0.4,1,0.7,2,1.1,3
				c0,0.3,0,0.7,0,1c-1.1,4-2.1,8-3.3,11.9c-0.5,1.6-1.1,3.2-1.7,4.8c-0.7,2.4-1.3,4.8-2,7.2c-0.8,3.1-1.6,6.2-2.4,9.4
				c-0.6,0-1.2,0-1.8,0.1c0,0-0.4,0-0.4,0c0-1.4,0.1-2.8,0.1-4.2C48.2,72.7,48.6,71.6,48.9,70.6z"/>
			<path class="st82" d="M59.3,43.6c-0.4-1-0.7-2-1.1-3c1-5.7-0.5-12.4,6.4-15.8c-0.5,3.2-1.3,6.4-1.5,9.7c-0.1,1.6,0.9,3.3,1.4,5
				C62.8,40.8,61,42.2,59.3,43.6z"/>
			<path class="st66" d="M109.3,68.5c-1-2.1-2-4.2-3-6.3c0-0.7,0-1.4,0-2.1c0.7,0,1.4,0,2,0c6.1,1.4,1.4,5.6,2.1,8.3
				C110,68.5,109.7,68.5,109.3,68.5z"/>
			<path class="st43" d="M28.1,38.3c3.5,11.2,7.2,22.3,10.4,33.6c0.7,2.4-0.3,5.2-0.4,7.8c-2.7-0.3-6.1,0.2-7.8-1.2
				c-2-1.7-3.8-5.3-3.4-7.7c0.6-3.9,0.1-6.4-2.7-9.2c-2.9-2.8-5-6.5-7.5-9.8c1,0,2.1,0,3.1,0.1c0.6,0.6,1.2,1.3,1.9,1.8
				c1.4,0.9,2.8,1.7,4.2,2.6c0.7-1.6,1.8-3.2,1.9-4.9C28.1,47,28,42.7,28.1,38.3z"/>
			<path class="st80" d="M19.8,51.9c-1,0-2.1,0-3.1-0.1c-0.3-0.3-0.7-0.7-1-1c-0.7-0.7-1.4-1.4-2.1-2.1c1.4-5.2,2.8-10.4,4.2-15.6
				c0.1,4.9,0.2,9.9,0.4,15.8c7.5-5.9,7.9-10.3,2.7-15.8c1.7,0.7,3.4,1.4,5.1,2.1c0.4,1,0.8,2.1,1.1,3.1
				C26.1,43.6,25.7,49.2,19.8,51.9z"/>
			<path class="st68" d="M19.8,51.9c5.9-2.7,6.3-8.3,7.3-13.6c0.3,0,0.7,0,1,0c-0.1,4.3,0,8.7-0.3,13c-0.1,1.7-1.3,3.3-1.9,4.9
				c-1.4-0.8-2.9-1.6-4.2-2.6C20.9,53.2,20.4,52.5,19.8,51.9z"/>
			<path class="st83" d="M20.8,33.1c5.2,5.6,4.7,9.9-2.7,15.8c-0.1-5.9-0.2-10.8-0.4-15.8C18.8,33.2,19.8,33.1,20.8,33.1z"/>
			<path class="st21" d="M185.4,46.9c-2.9-3.2-0.9-5.9,0.9-8.6c4.6-4.5,9.8-5.5,15.7-3.2c2,1.4,4.1,2.8,6.1,4.3
				c0,1.4,0.1,2.8,0.1,4.1c-0.5,2.7-0.8,5.3-1.4,8c-1,4.6,0.8,6.8,5.5,6.7c0,0.3,0,0.7,0,1c-2.5,0-5.1,0-7.3,0c0-4.7,0-9.1,0-13.5
				c-0.3-2.1-0.6-4.3-0.9-6.4c-2.1-0.3-4.2-0.5-6.3-0.8c-1.4,1.7-2.8,3.4-4.2,5.1c-0.4,2-0.7,3.9-1.1,5.9c-1,4.3-2,8.6-3,12.9
				c-0.7-0.3-1.3-0.7-2-1c0.3-3.5,0.5-7,0.8-10.5C187.3,49.5,186.3,48.2,185.4,46.9z"/>
			<path class="st84" d="M235.5,22.7c1.4-1.7,2.7-3.4,4.1-5.2c3.1,2.9,4.1,10.2,1.3,12.9c-0.7,0.6-3.6,0.3-4-0.4
				c-1-1.9-1.1-4.2-1.6-6.4C235.4,23.4,235.4,23.1,235.5,22.7z"/>
			<path class="st60" d="M208.1,39.4c-2-1.4-4.1-2.8-6.1-4.3c-0.7-1.9-1.3-3.9-2.1-5.7c-1.5-3.3-2.7-6.1,2.1-8.2
				c1.4-0.6,1.4-4.5,2.1-6.8c0,3.6,0.4,7.2,0.1,10.7c-0.4,4.1-1,7.9,2.7,11C207.6,36.7,207.7,38.3,208.1,39.4z"/>
			<path class="st62" d="M212.4,58.1c-4.7,0.1-6.5-2.1-5.5-6.7c0.5-2.6,0.9-5.3,1.4-8c0.3,3.8,0.7,7.6,1,11.5c1.4,1,2.8,2.1,4.2,3.1
				C213.1,58.1,212.7,58.1,212.4,58.1z"/>
			<path class="st28" d="M221.8,186.2c-0.7,0.7-1.3,1.4-2,2c-0.8-1-1.5-2-2.3-3c-2-0.7-4.1-1.5-6.1-2.2c0-0.4,0.1-0.7,0.1-1.1
				c1-0.3,2-0.6,2.9-0.9c0,0,0.2-0.2,0.2-0.2c0.7,0.4,1.4,0.7,2.1,1.1C218.4,183.3,220.1,184.8,221.8,186.2z"/>
			<path class="st85" d="M158.5,178.8c0-1.1,0-2.1,0-3.2c0.3-0.6,0.6-1.3,0.9-1.9c0.7,0.1,1.3,0.1,2,0.2c0,1,0.1,1.9,0.1,2.9
				c-0.4,0.7-0.7,1.4-1.1,2.1C159.7,178.9,159.1,178.8,158.5,178.8z"/>
			<path class="st86" d="M161.4,176.8c0-1-0.1-1.9-0.1-2.9c0.3,0,0.6,0,0.9,0C162,174.9,161.7,175.9,161.4,176.8z"/>
			<path class="st86" d="M158.5,178.8c0.6,0,1.2,0,1.9,0.1c-0.6,0.3-1.2,0.7-1.8,1C158.5,179.5,158.5,179.2,158.5,178.8z"/>
			<path class="st25" d="M48.1,77.9c0.6,0,1.2,0,1.8-0.1c3.3,0.8,6.5,1.9,9.9,2.2c1.2,0.1,2.5-1.4,3.8-2.2c0.3,0,0.7,0,1-0.1
				c2.4,0,4.9-0.1,7.3-0.1c0,0.4,0,0.7,0,1.1c-4.8,1.7-9.6,3.5-14.5,5.2c-2.2-1-4.3-2.5-6.6-2.9C48.5,80.8,47,80.7,48.1,77.9z"/>
			<path class="st87" d="M148.9,158.9c0.7,0.4,1.4,0.8,2.1,1.2c-0.7,0.6-1.3,1.3-2,1.9c-1.1-0.6-2.2-1.3-3.3-1.9
				C146.7,159.7,147.8,159.3,148.9,158.9z"/>
			<path class="st47" d="M145.7,160.1c1.1,0.6,2.2,1.3,3.3,1.9l-0.1,0.2c0,0.3-0.1,0.6-0.1,1c-0.9,0.1-1.9,0.2-2.8,0.3
				c-0.8-0.8-1.5-1.5-2.3-2.3C144.4,160.8,145,160.4,145.7,160.1z"/>
			<path class="st88" d="M146,163.4c0.9-0.1,1.9-0.2,2.8-0.3c0.4,0.4,0.7,0.8,1.1,1.2c-1,0.3-2,0.6-3,0.9c-0.4,0.1-0.8,0.2-1.2,0.2
				C145.8,164.8,145.9,164.1,146,163.4z"/>
			<path class="st89" d="M146.9,165.2c1-0.3,2-0.6,3-0.9c0.3,0.1,0.5,0.1,0.8,0.2c0,0.2,0.1,0.5,0.1,0.7
				C149.5,165.2,148.2,165.2,146.9,165.2z"/>
			<path class="st56" d="M59.6,92.8c-0.1-1.9-0.2-3.7-0.3-5.6c9-0.2,12.8,3.3,12.5,11.5c-1.6,0.5-3.2,1.1-5.4,1.8
				c-0.9-1.5-1.9-3.2-2.9-4.9C62.2,94.7,60.9,93.7,59.6,92.8z"/>
			<path class="st48" d="M71.8,98.7c0.3-8.2-3.5-11.7-12.5-11.5c3.8-1.7,7.7-3.4,11.5-5.1c-0.9,5.3-0.1,9.6,5,12.8
				c1.3,0.8,0.9,4.5,1.2,6.9c-1,0-2,0.1-3,0.1C73.3,100.9,72.6,99.8,71.8,98.7z"/>
			<path class="st53" d="M74,101.9c1,0,2-0.1,3-0.1c3.5-0.1,5.2,1.6,5.3,5.1c-4.5-1.4-7.5,0.3-9.5,4.3c-1.1,0.4-2.2,0.8-3.3,1.2
				c-1-0.8-2.1-1.7-3.6-2.9C69,106.7,71.5,104.3,74,101.9z"/>
			<path class="st10" d="M69.6,112.5c1.1-0.4,2.2-0.8,3.3-1.2c2.8,0,5.6,0.1,8.4,0.1c-2.4,6.4-4.6,6.7-11.9,1.8
				C69.4,112.9,69.5,112.7,69.6,112.5z"/>
			<path class="st86" d="M159.3,173.7c-0.3,0.6-0.6,1.3-0.9,1.9C158.7,175,159,174.4,159.3,173.7z"/>
			<path class="st76" d="M188.3,50.8c-0.3,3.5-0.5,7-0.8,10.5c-2.6,1.6-6.4,1.9-6.3,6.2c-2.1-1.3-4-3-6.2-3.7
				c-1.9-0.6-4.4-0.4-6.3,0.2c-0.8,0.2-1.2,2.6-1.2,3.9c-0.2,3,0,6,0.1,9c-0.7-4.7-1.5-9.4-1.8-14.2c0-0.6,3-1.8,4.7-2.1
				c2.8-0.4,5-0.5,6.6-3.7c1.7-3.4,4.2-2.6,8,3.3C186.3,56.6,187.3,53.7,188.3,50.8z"/>
			<path class="st10" d="M197.8,93.5c-2.4-0.7-4.9-1.4-7.3-2.1c0.4-0.3,0.7-0.6,1.1-0.9c1-0.1,2.1-0.2,3.1-0.3c1.8-1,3.5-2,5.3-3
				c4.9,2.8,9.7,5.5,14.6,8.3l0.1,0.1c-4.7,4.4-6.5,4.5-9.6-0.6C202.8,91.6,200.4,93.1,197.8,93.5z"/>
			<path class="st90" d="M194.6,90.3c-1,0.1-2.1,0.2-3.1,0.3c-4.5,0.3-7.2-2.5-8.5-6.2c-1.6-4.7-4.8-5.9-9.2-5.5c0-0.3,0-0.7,0-1.1
				c3.7,0.9,7.6,1.5,11.2,2.8c3.3,1.2,6.4,3,9.7,4.5C194.7,86.9,194.7,88.6,194.6,90.3z"/>
			<path class="st38" d="M173.9,77.9c0,0.4,0,0.7,0,1.1c-2.6,0.8-5,1.1-6.4-2c0-3-0.2-6-0.1-9c0.1-1.4,0.5-3.7,1.2-3.9
				c2-0.6,4.4-0.8,6.3-0.2c2.2,0.7,4.1,2.4,6.2,3.7c0.7,0.7,1.4,1.4,2,2.1c-1.8,0.5-4,1.8-5.2,1.2c-2.3-1.2-4-3.5-5.9-5.4
				C169.3,68.9,169.9,74.5,173.9,77.9z"/>
			<path class="st6" d="M148.9,106c1.4-3.4,3.1-6.6,4.1-10.1c1.5-5.1,1.2-11.2,7.3-13.9c-5.9,8.4-3.1,17.5-1.8,26.4
				c0.1,0.6,1.2,1.1,1.8,1.7c0.7,1.1,1.4,2.2,2.1,3.2c-4.1,4.7-7,0-10.4-1.2C150.9,110.2,149.9,108.1,148.9,106z"/>
			<path class="st33" d="M152,112.2c3.4,1.2,6.4,5.9,10.4,1.2c3.5-0.1,4.5-2.4,3.9-5.3c-0.3-1.4-1.8-2.5-2.8-3.7
				c-1.1,1.2-2.2,2.5-3.2,3.7c0.6-1.9,1.2-3.7,1.8-5.6c1.8,1,4.4,1.5,5.2,3c1.4,2.6,1.7,5.8,2.5,8.8c-1.1,0.7-2.1,1.4-3.2,2.1
				c-2.1,3.1-4.2,6.2-6.3,9.3c-1.4-0.7-2.7-1.3-4.1-2c0.6-2.4,0.9-4.4-2-6.1C152.8,117,152.7,114.1,152,112.2z"/>
			<path class="st84" d="M160.3,108.1c1.1-1.2,2.2-2.5,3.2-3.7c1,1.2,2.5,2.4,2.8,3.7c0.6,2.9-0.4,5.2-3.9,5.3
				c-0.7-1.1-1.4-2.2-2.1-3.2C160.3,109.5,160.3,108.8,160.3,108.1z"/>
			<path class="st72" d="M236.3,74.8c-5.6,1.2-5.8,6.8-8.3,10.4c-0.3,0-0.7,0-1,0c-0.6-0.3-1.3-0.7-1.9-1c0.3-0.7,0.5-1.4,0.8-2.1
				c0.4-2.5,0.7-4.9,1.1-7.4c0.4-3.3,1.3-6,6-5.3c-0.6,2.9-0.7,5.6,3.4,4.4C236.3,74.1,236.3,74.4,236.3,74.8z"/>
			<path class="st10" d="M225.1,84.2c0.6,0.3,1.3,0.7,1.9,1c-1.7,3.5-3.5,6.9-5.2,10.4c-2.4,0-4.8,0-7.2,0.1c0,0-0.1-0.1-0.1-0.1
				c0-0.3,0-0.7,0-1c2.1-0.3,4.2-0.7,6.3-1C222.2,90.4,223.6,87.3,225.1,84.2z"/>
			<path class="st72" d="M236.3,74.8c0-0.4,0-0.7,0-1.1c2.4-5,3.8-10.1,2.1-15.6c1,0.7,2.1,1.4,3.1,2.1c-0.1,2.7,0.5,5.7-0.4,8.1
				C240.3,70.8,238,72.7,236.3,74.8z"/>
			<path class="st31" d="M241.5,60.2c-1-0.7-2.1-1.4-3.1-2.1c-0.7-1-1.4-2.1-2.1-3.1c0.3-3.8,0.7-7.6,1-11.4
				C238.8,49.1,240.1,54.6,241.5,60.2z"/>
			<path class="st91" d="M149,162c0.7-0.6,1.3-1.3,2-1.9c0.3,0.6,0.5,1.3,0.8,1.9c-1,0-1.9,0.1-2.9,0.1L149,162z"/>
			<path class="st92" d="M148.9,162.2c1,0,1.9-0.1,2.9-0.1c-0.4,0.8-0.7,1.6-1.1,2.4c-0.3,0-0.5-0.1-0.8-0.2
				c-0.4-0.4-0.7-0.8-1.1-1.2C148.9,162.8,148.9,162.5,148.9,162.2z"/>
			<path class="st33" d="M124.8,124.7c0.1-1.3,0.2-2.7,0.3-4c4.7,2.7,9.4,4.7,13.4-1.1l0,0c0.3,1.4,0.7,2.8,1,4.2
				c-4.5,3.7-4,8.8-4.2,13.8c-0.2,3.2,1.3,7.2-3,9.1c0-2.4,0-4.9,0-7.3c0.2-3.4-1-6-4.1-7.3c-0.5,0.3-1,0.5-1.5,0.8
				c1.1,2.2,2.2,4.4,3.3,6.6c-0.3,2.4-0.6,4.9-0.9,7.3c-1.4-4.4-3.1-8.8-4.1-13.3C124.4,130.6,124.8,127.6,124.8,124.7z"/>
			<path class="st46" d="M132.3,146.6c4.3-1.9,2.9-5.9,3-9.1c0.2-5-0.2-10.1,4.2-13.8c-0.3,3.5-0.7,6.9-1,10.4
				c-0.3,5.2-0.7,10.3-1,15.5C135.7,148.6,134,147.6,132.3,146.6z"/>
			<path class="st14" d="M137.5,149.6c0.3-5.2,0.7-10.3,1-15.5c0.4,1.4,0.7,2.8,1.1,4.2c1.4,3.1,2.8,6.2,4.2,9.4l0,0
				C141.6,148.3,139.5,149,137.5,149.6z"/>
			<path class="st93" d="M146.1,140.5c1.9,2,3.9,3.9,5.8,5.9c-2.5,1.6-4.9,4.1-8.1,1.2c0,0,0,0,0,0c0.3-2.8,0.7-5.6,1-8.4
				C145.2,139.6,145.6,140.1,146.1,140.5z"/>
			<path class="st11" d="M130,139.3c-1.1-2.2-2.2-4.4-3.3-6.6c0.5-0.3,1-0.5,1.5-0.8c3.1,1.4,4.3,3.9,4.1,7.3
				C131.5,139.3,130.8,139.3,130,139.3z"/>
			<path class="st83" d="M146.1,140.5c-0.4-0.4-0.9-0.9-1.3-1.3c0.3-0.3,0.6-0.6,0.9-0.9c0.1-0.5,0.2-0.9,0.3-1.4
				c-0.4,0.1-0.9,0.2-1.3,0.3c-0.6-1.4-1.3-2.8-1.9-4.1c2-1,4-1.9,5.9-3c1.9-1,3.6-2.2,5.5-3.3c0.4,1.7,0.8,3.3,1.2,5
				c-0.7,2.1-1.4,4.2-2.1,6.3C150.8,139,148.4,139.7,146.1,140.5z"/>
			<path class="st13" d="M154.1,126.8c-1.8,1.1-3.6,2.3-5.5,3.3c-1.9,1.1-3.9,2-5.9,3c-1.1,1.7-2.1,3.4-3.2,5.1
				c-0.4-1.4-0.7-2.8-1.1-4.2c0.3-3.5,0.7-6.9,1-10.4c-0.3-1.4-0.7-2.8-1-4.2c0.7-4.9,1.4-9.7,2.1-14.6c1.6-0.9,3.3-1.7,5.4-2.9
				c1,1.3,1.9,2.6,2.9,3.9c1,2.1,2.1,4.1,3.1,6.2c0.7,1.9,0.9,4.7,2.2,5.5c3,1.6,2.6,3.6,2,6.1C155.5,124.8,154.8,125.8,154.1,126.8
				z"/>
			<path class="st94" d="M214.4,181c-1,0.3-2,0.6-2.9,0.9c0-1.7,0-3.4,0-5.1C212.5,178.2,213.4,179.6,214.4,181z"/>
			<path class="st66" d="M236.3,55c0.7,1,1.4,2.1,2.1,3.1c1.7,5.5,0.3,10.6-2.1,15.6c-4.1,1.2-4-1.4-3.4-4.4c-4.6-0.7-5.5,2-6,5.3
				c-0.3,0-0.7,0-1,0.1c-1.1-3.5-2.1-6.9-3.2-10.4c1.9,0.3,3.8,0.6,6.3,1c-2.3-4.9-4.3-9.2-6.3-13.5c2.8,2.8,5.5,5.6,8.3,8.4
				c1.6,1.3,3.1,2.6,4.7,3.9c0.1-2,0.2-4.1,0.2-6.1c0-0.6-0.5-1.3-0.7-1.9c0-0.4,0.1-0.7,0.1-1.1C235.7,55,236,55,236.3,55z"/>
			<path class="st78" d="M231.1,60.2c-2.8-2.8-5.5-5.6-8.3-8.4c0.1-1.2-0.2-2.9,0.4-3.5c2.4-2.3,5-4.3,7.6-6.4
				c1.2,1.9,2.7,3.7,3.5,5.8c0.8,2.2,0.8,4.8,1.1,7.2c0,0.4-0.1,0.7-0.1,1.1c-0.5-1.5-0.7-3.2-1.6-4.3c-0.9-1.1-2.6-1.7-4-2.4
				c-0.4,1.4-1.4,2.9-1.1,4.2C229,55.8,230.2,58,231.1,60.2z"/>
			<path class="st95" d="M222.8,64.3c1.1,3.5,2.1,6.9,3.2,10.4c-1.4-2.1-2.8-4.1-4.2-6.2c-2.8-2.8-5.6-5.5-8.3-8.3l0,0
				c-0.3-0.4-0.7-0.7-1-1.1c0-0.3,0-0.7,0-1c0.4,0,0.7,0,1.1,0C216.6,60.2,219.7,62.3,222.8,64.3z"/>
			<path class="st61" d="M134.5,89.4c0.3-0.4,0.7-0.7,1-1.1c1.8-1.4,3.6-3,5.6-4.2c2.2-1.3,5.2-3.6,6.7-2.9c3.4,1.6,4.9,5.6,3.2,9.2
				c-0.8,1.7-3.3,2.8-5.3,3.7c-1.8,0.8-3.9,1-5.8,1.5c-1.5-1-3-2.1-4.6-3.1C135,91.5,134.7,90.4,134.5,89.4z"/>
			<path class="st14" d="M140.6,105c-0.7,4.9-1.4,9.7-2.1,14.6c0,0,0,0,0,0c-0.3-1.2-0.6-2.3-0.9-3.5c-0.6-2.4-1.2-4.8-1.9-7.2
				c-1.8,1.7-3.6,3.5-5.3,5.2c-0.4-1.8-0.8-3.9-1.3-6c0-3.1,0-6.2,0-9.4c2.1,0.7,4.1,1.4,6.2,2.1c1,0,2.1,0,3.1,0
				C139.2,102.2,139.9,103.6,140.6,105z"/>
			<path class="st9" d="M138.5,100.8c-1,0-2.1,0-3.1,0c-0.7-1.4-1.4-2.8-2.1-4.2c1,0,2.1,0,3.1,0c1,0.1,2.1,0.2,3.1,0.3
				C139.2,98.2,138.8,99.5,138.5,100.8z"/>
			<path class="st96" d="M139.6,96.9c-1-0.1-2.1-0.2-3.1-0.3c-1.1-1-2.1-2.1-3.2-3.1c0.7-0.3,1.3-0.6,2-1c1.5,1,3,2.1,4.6,3.1
				C139.7,96,139.7,96.4,139.6,96.9z"/>
			<path class="st35" d="M131.2,81c-1.4,0.7-2.8,1.4-4.2,2.1c0.2-1,0.7-2,0.6-3c-0.1-1.7,0.1-4.3-0.8-4.9c-1.7-1-4.1-1.1-6.2-0.9
				c-2.1,0.1-4.1,1-6.2,1.5c3.5-2.4,7.1-4.6,10.3-7.3c1.5-1.2,2.2-3.5,3.2-5.2c1,0.2,2.2,0.1,3,0.7c3.7,2.7,5.3,1.6,5.3-2.8
				c1.7-0.3,3.5-0.7,5.2-1c0.4,1.2,0.9,2.5,1.3,3.7c0.6,0,1.2-0.1,1.7-0.1c0.4-2.2,0.7-4.5,1.1-6.7c1.5,6.2-0.6,11-7.3,13.9
				C133.7,73.1,131.4,76,131.2,81z"/>
			<path class="st97" d="M145.8,57c-0.4,2.2-0.7,4.5-1.1,6.7c-0.6,0-1.2,0.1-1.7,0.1c-0.4-1.2-0.9-2.5-1.3-3.7
				c1.4-1.4,2.7-2.7,4.1-4.1C145.7,56.4,145.8,56.7,145.8,57z"/>
			<path class="st98" d="M108.3,58.1c-0.7-3.5-1.4-7-2-10.4c1.1,2.2,2.3,4.4,3.5,6.8c1.9-3.2,3.4-6,5.6-9.6c-2.4-0.8-4.7-1.5-7-2.3
				c2.1-0.7,4.2-1.4,6.3-2.2c5,1.4,9.5,3,6.3,9.8c-0.2,0.4,0.6,1.1,0.9,1.7c1.8,1,3.5,1.9,5.3,2.9c0.3,0.4,0.6,0.8,0.8,1.3
				c-2.4-0.7-4.7-1.4-7.1-2.1c-1.4-0.7-2.8-1.4-4.2-2.1c-0.7,2.1-1.4,4.2-2.1,6.3C112.4,58.1,110.4,58.1,108.3,58.1z"/>
			<path class="st99" d="M114.5,58.1c0.7-2.1,1.4-4.2,2.1-6.3c0.2,3.5,0.4,7.1,0.6,10.6c0.5,0,0.9,0,1.4,0c0.7-2.8,1.5-5.7,2.2-8.5
				c2.4,0.7,4.7,1.4,7.1,2.1c0.5,0.7,0.9,1.3,1.4,2c-0.7,1.4-1.5,2.8-2.2,4.2c-2.6,1.3-5.2,2.6-7.8,3.8c-1.6,0.7-3.3,1.3-5,1.9
				c-0.1-1.8-0.3-3.5-0.2-5.3C114,61.2,114.3,59.7,114.5,58.1z"/>
			<path class="st22" d="M127,54.8c-1.8-1-3.5-1.9-5.3-2.9c2.8-3.8,5.6-7.7,8.4-11.5c1,0,2,0,3.1,0c-1.1,2.6-2.3,5.3-3.4,7.9
				C128.9,50.5,128,52.7,127,54.8z"/>
			<path class="st54" d="M127,62.3c0.7-1.4,1.5-2.8,2.2-4.2c0.6,0,1.3,0,1.9,0c1.8,1.1,3.5,2.1,5.3,3.2c0,4.3-1.6,5.4-5.3,2.8
				c-0.8-0.5-2-0.5-3-0.7c-0.3,0-0.7,0-1,0C127,63,127,62.6,127,62.3z"/>
			<path class="st70" d="M114.6,40.4c-2.1,0.7-4.2,1.4-6.3,2.2c-0.7,0.4-1.3,0.7-2,1.1c1.4-7.2,2.5-7.9,7.2-4.3
				C113.8,39.7,114.2,40,114.6,40.4z"/>
			<path class="st34" d="M127,62.3c0,0.4,0,0.7,0,1.1c-2.5,2-5.2,3.9-7.6,6.1c-5.1,4.8-5,4.9-9.1-0.9c-0.7-2.8,4-6.9-2.1-8.3
				c0-0.7,0-1.4,0-2c2.1,0,4.2,0,6.2,0c-0.2,1.5-0.5,3.1-0.6,4.6c0,1.7,0.2,3.5,0.2,5.3c1.7-0.6,3.4-1.1,5-1.9
				C121.8,64.9,124.4,63.5,127,62.3z"/>
			<path class="st49" d="M106.3,43.6c0.7-0.4,1.3-0.7,2-1.1c2.3,0.8,4.6,1.5,7,2.3c-2.1,3.7-3.7,6.4-5.6,9.6
				c-1.3-2.4-2.4-4.6-3.5-6.8C106.3,46.3,106.3,45,106.3,43.6z"/>
			<path class="st46" d="M129.1,108.1c0.4,2.1,0.9,4.2,1.3,6c1.8-1.7,3.6-3.5,5.3-5.2c0.6,2.4,1.3,4.8,1.9,7.2
				c0.3,1.2,0.6,2.3,0.9,3.5c-4,5.8-8.7,3.8-13.4,1.1c0.3-2.1,0.5-4.2,0.8-6.3C126.9,112.2,128,110.1,129.1,108.1z"/>
			<path class="st10" d="M129.1,108.1c-1.1,2.1-2.2,4.2-3.3,6.2c-1-4.2-1.9-8.3-2.9-12.5c-1.1-4.2,1.3-5.4,4.8-5.5
				c0.2,0.1,0.3,0.3,0.5,0.4c0.3,0.6,0.6,1.3,0.9,1.9C129.1,101.8,129.1,104.9,129.1,108.1z"/>
			<path class="st64" d="M110.4,68.5c4.1,5.8,4,5.7,9.1,0.9c2.3-2.2,5-4.1,7.6-6.1c0.3,0,0.7,0,1,0c-1,1.8-1.7,4-3.2,5.2
				c-3.2,2.7-6.9,4.9-10.3,7.3c-1.7-2.4-3.5-4.9-5.2-7.3C109.7,68.5,110,68.5,110.4,68.5z"/>
			<path class="st96" d="M52.3,68.5c0.7-2.4,1.3-4.8,2-7.2c3.9-4.5,10.5-8.2,5.2-15.7c1.7-1,3.4-2,5.2-3c1.8,3.7,3.5,7.6,8.3,8.4
				c5.3,3.1,5.4,9.6,8.9,13.9c0.3,0.4,0.5,1.2,0.3,1.4c-3,3.6-6.1,7.1-9.2,10.6c0.7-1.7,1.4-3.5,2.1-5.2c-0.3-2.8-0.7-5.5-1-8.3
				c0.3-1,0.7-2.1,1-3.1c-0.2-2.5-0.3-5.8-3.6-5c-4.2,1-8,3.3-12,5c-0.7,5,3,2.9,5.2,3.2c0,0.3,0,0.7,0,1
				C60.4,65.8,56.3,67.1,52.3,68.5z"/>
			<path class="st100" d="M75,71.6c-0.7,1.7-1.4,3.5-2.1,5.2c-0.3,0.3-0.7,0.6-1,0.9c-2.4,0-4.9,0.1-7.3,0.1c-0.3-1-0.7-2.1-1-3.1
				C67.3,73.7,71.1,72.7,75,71.6z"/>
			<path class="st101" d="M64.6,42.5c-1.7,1-3.4,2-5.2,3c0-0.3-0.1-0.6-0.2-1c0-0.3,0-0.7,0-1c1.7-1.4,3.5-2.8,5.2-4.1
				C64.5,40.5,64.6,41.5,64.6,42.5z"/>
			<path class="st44" d="M135.3,92.5c-0.7,0.3-1.3,0.6-2,1c-0.7,1-1.5,2.1-2.2,3.1c-0.3,0-0.6,0.1-1,0.1c0,0,0,0,0,0
				c0-0.7,0-1.3,0-2c0.4-1.1,0.8-2.2,1.2-3.3c-0.1-0.3-0.1-0.6-0.2-0.9c1.1-0.4,2.3-0.8,3.4-1.2C134.7,90.4,135,91.5,135.3,92.5z"/>
			<path class="st102" d="M131.2,91.4c-0.4,1.1-0.8,2.2-1.2,3.3c-0.3-0.2-0.6-0.4-1-0.7C129.8,93.1,130.5,92.3,131.2,91.4z"/>
			<path class="st10" d="M129.1,94c0.3,0.2,0.6,0.4,1,0.7c0,0.7,0,1.3,0,2c-0.6,0-1.3,0.1-1.9,0.1c-0.2-0.1-0.3-0.3-0.5-0.4
				C128.2,95.6,128.6,94.8,129.1,94z"/>
			<path class="st38" d="M52.3,68.5c4.1-1.4,8.2-2.7,12.3-4.1c1.3,7.4-4.9,7.4-9.3,9.1c1.4,3.2,1.4,3.2,8.3,4.5
				c-1.3,0.8-2.6,2.3-3.8,2.2c-3.3-0.4-6.6-1.4-9.9-2.2C50.7,74.7,51.5,71.6,52.3,68.5z"/>
			<path class="st47" d="M59.3,44.6c0.1,0.3,0.1,0.6,0.2,1c5.3,7.6-1.3,11.2-5.2,15.7c0.6-1.6,1.3-3.1,1.7-4.8
				C57.1,52.5,58.2,48.6,59.3,44.6z"/>
			<path class="st100" d="M213.4,60.2c2.8,2.8,5.6,5.5,8.3,8.3c0.7,4.5,1.4,9,2.1,13.5c-1.5,3.6-3.2,4.5-7.5,2.6
				c-3.9-1.7-8.8-1.2-13.3-1.6c-2.8,0.7-5.5,1.4-8.3,2.1c-3.2-1.5-6.3-3.4-9.7-4.5c-3.6-1.3-7.4-1.9-11.2-2.8
				c-3.9-3.3-4.6-8.9-1.7-12.5c1.9,1.9,3.6,4.2,5.9,5.4c1.2,0.6,3.4-0.8,5.2-1.2c2.1-2.4,4.2-4.8,6.3-7.2c1-4.3,2-8.6,3-12.9
				c0.4-2,0.8-3.9,1.1-5.9c0,3.6-0.2,7.2,0.2,10.8c0.3,2.1,1.5,4.1,2.4,6.1c2.1-1.4,5-2.4,6-4.4c1.6-3.1,2-6.9,2.9-10.4
				c0,4.4,0,8.8,0,13.5c2.2,0,4.7,0,7.3,0C212.7,59.5,213.1,59.9,213.4,60.2c-1,1.3-3.1,3-2.8,3.7c1.1,2.5,3.1,4.6,4.7,6.8
				c0.4-0.3,0.9-0.6,1.3-1C215.5,66.6,214.5,63.4,213.4,60.2z M186.4,71.7c-2.5,1-4.9,2-8.8,3.6c6.9,2.2,12.5,4,18.2,5.8
				c1.9,0.1,3.8,0.6,5.6,0.2c1.8-0.4,3.3-1.9,5.1-2.4c4.1-1.2,4.4-4.1,3.2-7.4c-2.1-5.5-6.1-6.4-11.7-3c-2.3-1-4.6-1.9-6.8-2.9
				C189.4,67.7,187.9,69.7,186.4,71.7z"/>
			<path class="st103" d="M205.1,45.6c-0.9,3.5-1.3,7.3-2.9,10.4c-1,2-3.9,3-6,4.4c-0.8-2-2.1-4-2.4-6.1c-0.4-3.6-0.2-7.2-0.2-10.8
				c1.4-1.7,2.8-3.4,4.2-5.1c-1.4,5.3-3.8,10.5-0.8,15.8c0.7,0.2,1.3,0.3,2,0.5c1.7-5.2,3.4-10.3,5.1-15.5
				C204.5,41.4,204.8,43.5,205.1,45.6z"/>
			<path class="st104" d="M204.2,39.2c-1.7,5.2-3.4,10.3-5.1,15.5c-0.7-0.2-1.3-0.3-2-0.5c-3.1-5.3-0.6-10.6,0.8-15.8
				C200,38.7,202.1,39,204.2,39.2z"/>
			<path class="st70" d="M189.5,62.3c-2.1,2.4-4.2,4.8-6.3,7.2c-0.7-0.7-1.4-1.4-2-2.1c-0.1-4.3,3.8-4.6,6.3-6.2
				C188.2,61.7,188.9,62,189.5,62.3z"/>
			<path class="st105" d="M63.5,77.9c-6.9-1.3-6.9-1.3-8.3-4.5c4.4-1.7,10.6-1.7,9.3-9.1c0-0.3,0-0.7,0-1c0,0,0.5,0,0.5,0l0.5,0
				c0.3,0.3,0.7,0.7,1,1c-1,3.5-2.1,6.9-3.1,10.4c0.3,1,0.7,2.1,1,3.1C64.2,77.9,63.9,77.9,63.5,77.9z"/>
			<path class="st36" d="M214.5,94.5c0,0.3,0,0.7,0,1c-4.9-2.8-9.7-5.5-14.6-8.3c1.7-1.4,3.5-2.8,5.2-4.2c1.7,0.7,3.5,1.4,5.2,2.1
				C211.7,88.3,213.1,91.4,214.5,94.5z"/>
			<path class="st83" d="M205.1,83.1c-1.7,1.4-3.5,2.8-5.2,4.2c-1.8,1-3.5,2-5.3,3c0-1.7,0-3.4,0-5.1c2.8-0.7,5.5-1.4,8.3-2.1
				C203.7,83.1,204.4,83.1,205.1,83.1z"/>
			<path class="st84" d="M205.1,83.1c-0.7,0-1.4,0-2.1,0c4.5,0.4,9.4-0.1,13.3,1.6c4.2,1.9,5.9,1,7.5-2.6c0.7,0,1.4,0,2,0
				c-0.3,0.7-0.5,1.4-0.8,2.1c-1.4,3.1-2.9,6.2-4.3,9.4c-0.9-1.4-1.9-2.8-2.6-4.3c-1.6-3.3-3.9-5.3-7.8-4.1
				C208.6,84.5,206.8,83.8,205.1,83.1z"/>
			<path class="st106" d="M225.9,82c-0.7,0-1.4,0-2,0c-0.7-4.5-1.4-9-2.1-13.5c1.4,2.1,2.8,4.1,4.2,6.2c0.3,0,0.7,0,1-0.1
				C226.6,77.1,226.2,79.6,225.9,82z"/>
			<path class="st60" d="M210.3,85.2c4-1.2,6.2,0.7,7.8,4.1c0.7,1.5,1.7,2.9,2.6,4.3c-2.1,0.3-4.2,0.7-6.3,1
				C213.1,91.4,211.7,88.3,210.3,85.2z"/>
			<path class="st29" d="M139.5,138.3c1.1-1.7,2.1-3.4,3.2-5.1c0.6,1.4,1.3,2.8,1.9,4.1c0.3,0.4,0.6,0.7,0.9,1.1
				c-0.3,0.3-0.6,0.6-0.9,0.9c-0.3,2.8-0.7,5.6-1,8.4C142.3,144.5,140.9,141.4,139.5,138.3z"/>
			<path class="st107" d="M145.6,138.3c-0.3-0.4-0.6-0.7-0.9-1.1c0.4-0.1,0.9-0.2,1.3-0.3C145.8,137.4,145.7,137.9,145.6,138.3z"/>
			<path class="st55" d="M231.1,60.2c-0.9-2.2-2.1-4.4-2.5-6.7c-0.3-1.3,0.7-2.8,1.1-4.2c1.4,0.8,3,1.3,4,2.4
				c0.9,1.1,1.1,2.8,1.6,4.3c0.2,0.6,0.7,1.3,0.7,1.9c0,2-0.1,4.1-0.2,6.1C234.2,62.8,232.7,61.5,231.1,60.2z"/>
			<path class="st27" d="M128.2,96.8c0.6,0,1.3-0.1,1.9-0.1c0,0,0,0,0,0c0.7,0,1.4,0,2.1,0c0.4,0,0.7,0,1.1,0
				c0.7,1.4,1.4,2.8,2.1,4.2c-2.1-0.7-4.1-1.4-6.2-2.1C128.8,98.1,128.5,97.4,128.2,96.8z"/>
			<path class="st53" d="M133.3,96.6c-0.4,0-0.7,0-1.1,0c-0.4,0-0.7,0-1.1-0.1c0.7-1,1.5-2.1,2.2-3.1c1.1,1,2.1,2.1,3.2,3.1
				C135.4,96.6,134.4,96.6,133.3,96.6z"/>
			<path class="st108" d="M120.8,53.9c-0.7,2.8-1.5,5.7-2.2,8.5c-0.5,0-0.9,0-1.4,0c-0.2-3.5-0.4-7.1-0.6-10.6
				C118,52.5,119.4,53.2,120.8,53.9z"/>
			<path class="st101" d="M63.5,74.8c1-3.5,2.1-6.9,3.1-10.4c2.4-0.4,4.9-0.7,7.3-1.1c0.3,2.8,0.7,5.5,1,8.3
				C71.1,72.7,67.3,73.7,63.5,74.8z"/>
			<path class="st67" d="M73.9,63.3c-2.4,0.4-4.9,0.7-7.3,1.1c-0.3-0.3-0.7-0.7-1-1c0.4-1.7,0.7-3.5,1.1-5.2
				c2.8,0.7,5.5,1.4,8.3,2.1C74.6,61.2,74.3,62.3,73.9,63.3z"/>
			<path class="st93" d="M74.9,60.2c-2.8-0.7-5.5-1.4-8.3-2.1c-2.4,0.7-4.9,1.4-7.3,2.1c4-1.7,7.9-4,12-5
				C74.7,54.4,74.8,57.7,74.9,60.2z"/>
			<path class="st109" d="M59.3,60.2c2.4-0.7,4.9-1.4,7.3-2.1c-0.4,1.7-0.7,3.5-1.1,5.2c0,0-0.5,0-0.5,0s-0.5,0-0.5,0
				C62.3,63.1,58.7,65.2,59.3,60.2z"/>
			<path class="st10" d="M131.1,96.6c0.4,0,0.7,0,1.1,0.1c-0.7,0-1.4,0-2.1,0C130.5,96.6,130.8,96.6,131.1,96.6z"/>
			<path class="st110" d="M197.8,68.5c5.5-3.4,9.6-2.5,11.7,3c1.2,3.3,1,6.1-3.2,7.4c-1.8,0.5-3.3,2-5.1,2.4
				c-1.8,0.4-3.7-0.1-5.6-0.2c-4.1-1.8-9.2-2.9-7.2-9.4C191.6,70.6,194.7,69.6,197.8,68.5z M205.1,70.6c-2.8-2.2-5.1-0.9-7.3,1
				c-0.9,1.7-1.9,3.3-2.8,5c1.9,0.4,3.8,0.9,5.8,1c1.2,0.1,2.4-0.3,3.5-0.7C208.5,75.6,208.7,73.7,205.1,70.6z"/>
			<path class="st71" d="M188.5,71.7c-1.9,6.5,3.1,7.6,7.2,9.4c-5.6-1.8-11.3-3.6-18.2-5.8c3.9-1.6,6.4-2.6,8.8-3.6
				C187.1,71.7,187.8,71.7,188.5,71.7z"/>
			<path class="st86" d="M213.4,60.2c1.1,3.2,2.1,6.4,3.2,9.6c-0.4,0.3-0.9,0.6-1.3,1c-1.6-2.2-3.6-4.4-4.7-6.8
				C210.3,63.3,212.4,61.5,213.4,60.2C213.4,60.2,213.4,60.2,213.4,60.2z"/>
			<path class="st73" d="M188.5,71.7c-0.7,0-1.4,0-2.1,0c1.5-2,3-3.9,4.6-6c2.2,0.9,4.5,1.9,6.8,2.9
				C194.7,69.6,191.6,70.6,188.5,71.7z"/>
			<path class="st111" d="M205.1,70.6c3.6,3.2,3.3,5-0.8,6.4c-1.1,0.4-2.4,0.8-3.5,0.7c-1.9-0.1-3.9-0.7-5.8-1
				c0.9-1.7,1.9-3.3,2.8-5c1.1,0.9,2,2.1,3.2,2.5C203.9,75,206.3,74.7,205.1,70.6z"/>
			<path class="st112" d="M205.1,70.6c1.2,4.2-1.2,4.4-4.1,3.6c-1.2-0.4-2.1-1.6-3.2-2.5C200,69.7,202.3,68.4,205.1,70.6z"/>
		</g>
	</g>
	<rect id="Rectangle-Copy" class="st113" width="279" height="207"/>
	<g id="Audio-3" transform="translate(193.000000, 136.000000)">
		<g id="Group-16">
			<path id="Fill-1" class="st114" d="M0,28.6h74V0H0V28.6z M0.7,27.9h72.6V0.7H0.7V27.9z"/>
			<g id="Group-8" transform="translate(2.930098, 1.377820)">
				<path id="Fill-2" class="st115" d="M65.1,6.7c0-0.1,0-0.1-0.1-0.2c-0.5-0.3-1.1-0.4-1.8-0.4c-0.4,0-0.7,0-1.2,0.1
					c-0.1,0-0.2,0.1-0.2,0.2c0,0.1,0,0.1,0.1,0.1c0,0,0.1,0.1,0.1,0.1c0,0,0.1,0,0.1,0c0.4-0.1,0.7-0.1,1-0.1c0.6,0,1.1,0.1,1.6,0.4
					c0.1,0,0.1,0,0.1,0c0.1,0,0.1,0,0.1-0.1C65.1,6.8,65.1,6.7,65.1,6.7 M65.5,5.9c0-0.1,0-0.2-0.1-0.2c-0.6-0.4-1.4-0.5-2.2-0.5
					c-0.4,0-0.8,0.1-1.2,0.2c-0.1,0-0.2,0.1-0.2,0.2c0,0.1,0,0.1,0.1,0.2c0,0,0.1,0.1,0.2,0.1c0,0,0.1,0,0.1,0
					c0.3-0.1,0.7-0.1,1-0.1c0.7,0,1.4,0.2,2,0.5c0.1,0,0.1,0,0.2,0c0.1,0,0.1,0,0.2-0.1C65.5,6,65.5,5.9,65.5,5.9 M65.9,5
					c0-0.1-0.1-0.2-0.2-0.3c-0.3-0.2-0.7-0.3-1.2-0.4c-0.4-0.1-0.9-0.1-1.4-0.1c-0.5,0-1,0.1-1.5,0.2c-0.1,0-0.1,0-0.2,0.1
					c0,0-0.1,0.1-0.1,0.2c0,0.1,0,0.1,0.1,0.2c0.1,0.1,0.1,0.1,0.2,0.1c0,0,0.1,0,0.2,0c0.4-0.1,0.8-0.1,1.2-0.1
					c0.4,0,0.8,0,1.2,0.1c0.4,0.1,0.7,0.2,1,0.4c0.1,0,0.1,0,0.2,0c0.1,0,0.1,0,0.2-0.1C65.9,5.1,65.9,5,65.9,5 M66.3,4.1
					c0.3,0.4,0.4,0.9,0.4,1.4s-0.1,1-0.4,1.4c-0.3,0.4-0.7,0.8-1.1,1c-0.5,0.3-1,0.4-1.5,0.4c-0.6,0-1.1-0.1-1.5-0.4
					c-0.5-0.3-0.8-0.6-1.1-1c-0.3-0.4-0.4-0.9-0.4-1.4s0.1-1,0.4-1.4c0.3-0.4,0.7-0.8,1.1-1c0.5-0.3,1-0.4,1.5-0.4
					c0.6,0,1.1,0.1,1.5,0.4C65.7,3.3,66,3.6,66.3,4.1"/>
				<path id="Stroke-4" class="st116" d="M13.7,7.9c0,3.4-2.9,6.1-6.6,6.1s-6.6-2.7-6.6-6.1s2.9-6.1,6.6-6.1S13.7,4.6,13.7,7.9z"/>
				<path id="Fill-6" class="st115" d="M8.7,7.9c-1.1,0.7-2.2,1.4-3.3,2V5.9C5.5,5.9,8.7,7.9,8.7,7.9"/>
			</g>
			<text transform="matrix(1 0 0 1 64.4116 22.1921)" class="st117 st118 st119"></text>
			<g id="Group-15" transform="translate(19.222454, 17.502625)">
				<polygon id="Fill-9" class="st115" points="7.3,3.4 35,3.4 35,2 7.3,2 				"/>
				<path id="Fill-11" class="st115" d="M2.4,2.6c1.1,0.7,2.2,1.3,3.3,2v-4C5.7,0.6,2.5,2.6,2.4,2.6"/>
				<path id="Stroke-12" class="st116" d="M1.1,0.6v4.3"/>
				<path id="Fill-13" class="st115" d="M39.8,2.6c-1.1,0.7-2.2,1.3-3.3,2v-4C36.6,0.6,39.8,2.6,39.8,2.6"/>
				<path id="Stroke-14" class="st116" d="M41.2,0.6v4.3"/>
			</g>
		</g>
	</g>
	<g id="IMG_1" transform="translate(12.000000, 44.000000)">
		<g id="Group-12">
			<polygon id="Fill-1_1_" class="st120" points="0,79.8 75,79.8 75,0 0,0 			"/>
			<g id="Group-11" transform="translate(24.317388, 17.254286)">
				<path id="Fill-3" class="st115" d="M1.2,16.2c-0.5,0-0.9-0.1-1.3-0.4l-5.4-3.3c-0.8-0.5-1.3-1.4-1.3-2.4V3.7
					c0-1,0.5-1.9,1.3-2.4l5.4-3.3c0.4-0.2,0.9-0.4,1.3-0.4s0.9,0.1,1.3,0.4l5.4,3.3c0.8,0.5,1.3,1.4,1.3,2.4v6.5
					c0,1-0.5,1.9-1.3,2.4l-5.4,3.3C2.1,16.1,1.6,16.2,1.2,16.2"/>
				<path id="Fill-5" class="st121" d="M1.2-3.5C0.5-3.5-0.1-3.3-0.6-3l-5.7,3.4c-1.1,0.7-1.8,1.9-1.8,3.2v6.8
					c0,1.3,0.7,2.5,1.8,3.2l5.7,3.4c0.6,0.3,1.2,0.5,1.8,0.5c0.6,0,1.2-0.2,1.8-0.5l5.7-3.4c1.1-0.7,1.8-1.9,1.8-3.2V3.6
					c0-1.3-0.7-2.5-1.8-3.2L2.9-3C2.4-3.3,1.8-3.5,1.2-3.5 M1.2-1.8c0.3,0,0.7,0.1,1,0.3l5.7,3.4c0.6,0.4,1,1,1,1.7v6.8
					c0,0.7-0.4,1.4-1,1.7l-5.7,3.4c-0.3,0.2-0.6,0.3-1,0.3s-0.7-0.1-1-0.3l-5.7-3.4c-0.6-0.4-1-1-1-1.7V3.6c0-0.7,0.4-1.4,1-1.7
					l5.7-3.4C0.5-1.7,0.8-1.8,1.2-1.8"/>
			</g>
			<polygon id="Fill-7" class="st122" points="15.6,53.8 30.6,68.8 51.9,30.1 75,80.1 0,80.3 			"/>
		</g>
	</g>
	<g id="IMG_2" transform="translate(103.000000, 44.000000)">
		<g id="Group-12_1_">
			<polygon id="Fill-1_2_" class="st120" points="0,79.8 75,79.8 75,0 0,0 			"/>
			<g id="Group-11_1_" transform="translate(24.317388, 17.254286)">
				<path id="Fill-3_1_" class="st115" d="M1.2,16.2c-0.5,0-0.9-0.1-1.3-0.4l-5.4-3.3c-0.8-0.5-1.3-1.4-1.3-2.4V3.7
					c0-1,0.5-1.9,1.3-2.4l5.4-3.3c0.4-0.2,0.9-0.4,1.3-0.4s0.9,0.1,1.3,0.4l5.4,3.3c0.8,0.5,1.3,1.4,1.3,2.4v6.5
					c0,1-0.5,1.9-1.3,2.4l-5.4,3.3C2.1,16.1,1.6,16.2,1.2,16.2"/>
				<path id="Fill-5_1_" class="st121" d="M1.2-3.5C0.5-3.5-0.1-3.3-0.6-3l-5.7,3.4c-1.1,0.7-1.8,1.9-1.8,3.2v6.8
					c0,1.3,0.7,2.5,1.8,3.2l5.7,3.4c0.6,0.3,1.2,0.5,1.8,0.5c0.6,0,1.2-0.2,1.8-0.5l5.7-3.4c1.1-0.7,1.8-1.9,1.8-3.2V3.6
					c0-1.3-0.7-2.5-1.8-3.2L2.9-3C2.4-3.3,1.8-3.5,1.2-3.5 M1.2-1.8c0.3,0,0.7,0.1,1,0.3l5.7,3.4c0.6,0.4,1,1,1,1.7v6.8
					c0,0.7-0.4,1.4-1,1.7l-5.7,3.4c-0.3,0.2-0.6,0.3-1,0.3s-0.7-0.1-1-0.3l-5.7-3.4c-0.6-0.4-1-1-1-1.7V3.6c0-0.7,0.4-1.4,1-1.7
					l5.7-3.4C0.5-1.7,0.8-1.8,1.2-1.8"/>
			</g>
			<polygon id="Fill-7_1_" class="st122" points="15.6,53.8 30.6,68.8 51.9,30.1 75,80.1 0,80.3 			"/>
		</g>
	</g>
	<g id="IMG_2-Copy" transform="translate(193.000000, 44.000000)">
		<g id="Group-12_2_">
			<polygon id="Fill-1_3_" class="st120" points="0,79.8 75,79.8 75,0 0,0 			"/>
			<g id="Group-11_2_" transform="translate(24.317388, 17.254286)">
				<path id="Fill-3_2_" class="st115" d="M1.2,16.2c-0.5,0-0.9-0.1-1.3-0.4l-5.4-3.3c-0.8-0.5-1.3-1.4-1.3-2.4V3.7
					c0-1,0.5-1.9,1.3-2.4l5.4-3.3c0.4-0.2,0.9-0.4,1.3-0.4s0.9,0.1,1.3,0.4l5.4,3.3c0.8,0.5,1.3,1.4,1.3,2.4v6.5
					c0,1-0.5,1.9-1.3,2.4l-5.4,3.3C2.1,16.1,1.6,16.2,1.2,16.2"/>
				<path id="Fill-5_2_" class="st121" d="M1.2-3.5C0.5-3.5-0.1-3.3-0.6-3l-5.7,3.4c-1.1,0.7-1.8,1.9-1.8,3.2v6.8
					c0,1.3,0.7,2.5,1.8,3.2l5.7,3.4c0.6,0.3,1.2,0.5,1.8,0.5c0.6,0,1.2-0.2,1.8-0.5l5.7-3.4c1.1-0.7,1.8-1.9,1.8-3.2V3.6
					c0-1.3-0.7-2.5-1.8-3.2L2.9-3C2.4-3.3,1.8-3.5,1.2-3.5 M1.2-1.8c0.3,0,0.7,0.1,1,0.3l5.7,3.4c0.6,0.4,1,1,1,1.7v6.8
					c0,0.7-0.4,1.4-1,1.7l-5.7,3.4c-0.3,0.2-0.6,0.3-1,0.3s-0.7-0.1-1-0.3l-5.7-3.4c-0.6-0.4-1-1-1-1.7V3.6c0-0.7,0.4-1.4,1-1.7
					l5.7-3.4C0.5-1.7,0.8-1.8,1.2-1.8"/>
			</g>
			<polygon id="Fill-7_2_" class="st122" points="15.6,53.8 30.6,68.8 51.9,30.1 75,80.1 0,80.3 			"/>
		</g>
	</g>
	<g id="Audio-2" transform="translate(103.000000, 136.000000)">
		<g id="Group-16_1_">
			<path id="Fill-1_4_" class="st114" d="M0,28.6h74V0H0V28.6z M0.7,27.9h72.6V0.7H0.7V27.9z"/>
			<g id="Group-8_1_" transform="translate(2.930098, 1.377820)">
				<path id="Fill-2_1_" class="st115" d="M65.1,6.7c0-0.1,0-0.1-0.1-0.2c-0.5-0.3-1.1-0.4-1.8-0.4c-0.4,0-0.7,0-1.2,0.1
					c-0.1,0-0.2,0.1-0.2,0.2c0,0.1,0,0.1,0.1,0.1c0,0,0.1,0.1,0.1,0.1c0,0,0.1,0,0.1,0c0.4-0.1,0.7-0.1,1-0.1c0.6,0,1.1,0.1,1.6,0.4
					c0.1,0,0.1,0,0.1,0c0.1,0,0.1,0,0.1-0.1C65.1,6.8,65.1,6.7,65.1,6.7 M65.5,5.9c0-0.1,0-0.2-0.1-0.2c-0.6-0.4-1.4-0.5-2.2-0.5
					c-0.4,0-0.8,0.1-1.2,0.2c-0.1,0-0.2,0.1-0.2,0.2c0,0.1,0,0.1,0.1,0.2c0,0,0.1,0.1,0.2,0.1c0,0,0.1,0,0.1,0
					c0.3-0.1,0.7-0.1,1-0.1c0.7,0,1.4,0.2,2,0.5c0.1,0,0.1,0,0.2,0c0.1,0,0.1,0,0.2-0.1C65.5,6,65.5,5.9,65.5,5.9 M65.9,5
					c0-0.1-0.1-0.2-0.2-0.3c-0.3-0.2-0.7-0.3-1.2-0.4c-0.4-0.1-0.9-0.1-1.4-0.1c-0.5,0-1,0.1-1.5,0.2c-0.1,0-0.1,0-0.2,0.1
					c0,0-0.1,0.1-0.1,0.2c0,0.1,0,0.1,0.1,0.2c0.1,0.1,0.1,0.1,0.2,0.1c0,0,0.1,0,0.2,0c0.4-0.1,0.8-0.1,1.2-0.1
					c0.4,0,0.8,0,1.2,0.1c0.4,0.1,0.7,0.2,1,0.4c0.1,0,0.1,0,0.2,0c0.1,0,0.1,0,0.2-0.1C65.9,5.1,65.9,5,65.9,5 M66.3,4.1
					c0.3,0.4,0.4,0.9,0.4,1.4s-0.1,1-0.4,1.4c-0.3,0.4-0.7,0.8-1.1,1c-0.5,0.3-1,0.4-1.5,0.4c-0.6,0-1.1-0.1-1.5-0.4
					c-0.5-0.3-0.8-0.6-1.1-1c-0.3-0.4-0.4-0.9-0.4-1.4s0.1-1,0.4-1.4c0.3-0.4,0.7-0.8,1.1-1c0.5-0.3,1-0.4,1.5-0.4
					c0.6,0,1.1,0.1,1.5,0.4C65.7,3.3,66,3.6,66.3,4.1"/>
				<path id="Stroke-4_1_" class="st116" d="M13.7,7.9c0,3.4-2.9,6.1-6.6,6.1s-6.6-2.7-6.6-6.1s2.9-6.1,6.6-6.1S13.7,4.6,13.7,7.9z"
					/>
				<path id="Fill-6_1_" class="st115" d="M8.7,7.9c-1.1,0.7-2.2,1.4-3.3,2V5.9C5.5,5.9,8.7,7.9,8.7,7.9"/>
			</g>
			<text transform="matrix(1 0 0 1 64.4116 22.1921)" class="st117 st118 st119"></text>
			<g id="Group-15_1_" transform="translate(19.222454, 17.502625)">
				<polygon id="Fill-9_1_" class="st115" points="7.3,3.4 35,3.4 35,2 7.3,2 				"/>
				<path id="Fill-11_1_" class="st115" d="M2.4,2.6c1.1,0.7,2.2,1.3,3.3,2v-4C5.7,0.6,2.5,2.6,2.4,2.6"/>
				<path id="Stroke-12_1_" class="st116" d="M1.1,0.6v4.3"/>
				<path id="Fill-13_1_" class="st115" d="M39.8,2.6c-1.1,0.7-2.2,1.3-3.3,2v-4C36.6,0.6,39.8,2.6,39.8,2.6"/>
				<path id="Stroke-14_1_" class="st116" d="M41.2,0.6v4.3"/>
			</g>
		</g>
	</g>
	<g id="Audio-1" transform="translate(12.000000, 136.000000)">
		<g id="Group-16_2_">
			<path id="Fill-1_5_" class="st114" d="M0,28.6h74V0H0V28.6z M0.7,27.9h72.6V0.7H0.7V27.9z"/>
			<g id="Group-8_2_" transform="translate(2.930098, 1.377820)">
				<path id="Fill-2_2_" class="st115" d="M65.1,6.7c0-0.1,0-0.1-0.1-0.2c-0.5-0.3-1.1-0.4-1.8-0.4c-0.4,0-0.7,0-1.2,0.1
					c-0.1,0-0.2,0.1-0.2,0.2c0,0.1,0,0.1,0.1,0.1c0,0,0.1,0.1,0.1,0.1c0,0,0.1,0,0.1,0c0.4-0.1,0.7-0.1,1-0.1c0.6,0,1.1,0.1,1.6,0.4
					c0.1,0,0.1,0,0.1,0c0.1,0,0.1,0,0.1-0.1C65.1,6.8,65.1,6.7,65.1,6.7 M65.5,5.9c0-0.1,0-0.2-0.1-0.2c-0.6-0.4-1.4-0.5-2.2-0.5
					c-0.4,0-0.8,0.1-1.2,0.2c-0.1,0-0.2,0.1-0.2,0.2c0,0.1,0,0.1,0.1,0.2c0,0,0.1,0.1,0.2,0.1c0,0,0.1,0,0.1,0
					c0.3-0.1,0.7-0.1,1-0.1c0.7,0,1.4,0.2,2,0.5c0.1,0,0.1,0,0.2,0c0.1,0,0.1,0,0.2-0.1C65.5,6,65.5,5.9,65.5,5.9 M65.9,5
					c0-0.1-0.1-0.2-0.2-0.3c-0.3-0.2-0.7-0.3-1.2-0.4c-0.4-0.1-0.9-0.1-1.4-0.1c-0.5,0-1,0.1-1.5,0.2c-0.1,0-0.1,0-0.2,0.1
					c0,0-0.1,0.1-0.1,0.2c0,0.1,0,0.1,0.1,0.2c0.1,0.1,0.1,0.1,0.2,0.1c0,0,0.1,0,0.2,0c0.4-0.1,0.8-0.1,1.2-0.1
					c0.4,0,0.8,0,1.2,0.1c0.4,0.1,0.7,0.2,1,0.4c0.1,0,0.1,0,0.2,0c0.1,0,0.1,0,0.2-0.1C65.9,5.1,65.9,5,65.9,5 M66.3,4.1
					c0.3,0.4,0.4,0.9,0.4,1.4s-0.1,1-0.4,1.4c-0.3,0.4-0.7,0.8-1.1,1c-0.5,0.3-1,0.4-1.5,0.4c-0.6,0-1.1-0.1-1.5-0.4
					c-0.5-0.3-0.8-0.6-1.1-1c-0.3-0.4-0.4-0.9-0.4-1.4s0.1-1,0.4-1.4c0.3-0.4,0.7-0.8,1.1-1c0.5-0.3,1-0.4,1.5-0.4
					c0.6,0,1.1,0.1,1.5,0.4C65.7,3.3,66,3.6,66.3,4.1"/>
				<path id="Stroke-4_2_" class="st116" d="M13.7,7.9c0,3.4-2.9,6.1-6.6,6.1s-6.6-2.7-6.6-6.1s2.9-6.1,6.6-6.1S13.7,4.6,13.7,7.9z"
					/>
				<path id="Fill-6_2_" class="st115" d="M8.7,7.9c-1.1,0.7-2.2,1.4-3.3,2V5.9C5.5,5.9,8.7,7.9,8.7,7.9"/>
			</g>
			<text transform="matrix(1 0 0 1 64.4116 22.1921)" class="st117 st118 st119"></text>
			<g id="Group-15_2_" transform="translate(19.222454, 17.502625)">
				<polygon id="Fill-9_2_" class="st115" points="7.3,3.4 35,3.4 35,2 7.3,2 				"/>
				<path id="Fill-11_2_" class="st115" d="M2.4,2.6c1.1,0.7,2.2,1.3,3.3,2v-4C5.7,0.6,2.5,2.6,2.4,2.6"/>
				<path id="Stroke-12_2_" class="st116" d="M1.1,0.6v4.3"/>
				<path id="Fill-13_2_" class="st115" d="M39.8,2.6c-1.1,0.7-2.2,1.3-3.3,2v-4C36.6,0.6,39.8,2.6,39.8,2.6"/>
				<path id="Stroke-14_2_" class="st116" d="M41.2,0.6v4.3"/>
			</g>
		</g>
	</g>
</g>
<g id="Group-2" transform="translate(81.000000, 10.000000)">
	<g class="st123">
		<path class="st124" d="M2,9.5v2h-3.4v9.3h-2.4v-9.3h-3.4v-2C-7.2,9.5,2,9.5,2,9.5z"/>
		<path class="st124" d="M5.5,20.8H3.2V9.5h2.3C5.5,9.5,5.5,20.8,5.5,20.8z"/>
		<path class="st124" d="M15.9,9.5v2h-3.4v9.3h-2.4v-9.3H6.8v-2C6.8,9.5,15.9,9.5,15.9,9.5z"/>
		<path class="st124" d="M17.2,9.5h2.4v9.3h5.6v2h-8V9.5z"/>
		<path class="st124" d="M35.1,11.5h-6v2.4h5.5v2h-5.5v2.9h6.2v2h-8.5V9.5h8.3V11.5z"/>
	</g>
	<g class="st123">
		<path class="st125" d="M40.1,17.9c0,0.4,0.1,0.8,0.3,1.1c0.2,0.3,0.4,0.5,0.6,0.7s0.5,0.3,0.8,0.4s0.7,0.1,1,0.1
			c0.4,0,0.8-0.1,1.1-0.2c0.3-0.1,0.6-0.3,0.8-0.4c0.2-0.2,0.3-0.4,0.4-0.6s0.1-0.5,0.1-0.8c0-0.4-0.1-0.7-0.3-0.9s-0.4-0.4-0.7-0.6
			c-0.3-0.1-0.6-0.3-0.9-0.4s-0.7-0.2-1.1-0.3c-0.4-0.1-0.7-0.2-1.1-0.3c-0.2,0.1-0.5-0.1-0.8-0.3s-0.5-0.4-0.7-0.8
			c-0.2-0.3-0.3-0.7-0.3-1.2c0-0.3,0.1-0.6,0.2-1s0.3-0.6,0.6-0.8s0.6-0.4,1-0.6c0.4-0.1,0.9-0.2,1.4-0.2s1,0.1,1.4,0.2
			c0.4,0.2,0.7,0.4,1,0.6c0.3,0.3,0.5,0.6,0.6,0.9c0.1,0.3,0.2,0.7,0.2,1.1h-0.9c0-0.4-0.1-0.7-0.2-0.9c-0.1-0.3-0.3-0.5-0.5-0.7
			c-0.2-0.2-0.5-0.3-0.8-0.4s-0.6-0.1-0.9-0.1c-0.5,0-0.9,0.1-1.2,0.2c-0.3,0.1-0.6,0.3-0.8,0.5c-0.2,0.2-0.3,0.4-0.4,0.7
			c-0.1,0.2-0.1,0.5,0,0.7c0.1,0.3,0.2,0.6,0.4,0.7c0.2,0.2,0.4,0.3,0.7,0.5c0.3,0.1,0.6,0.2,0.9,0.3c0.3,0.1,0.7,0.2,1,0.2
			c0.4,0.1,0.7,0.2,1,0.3s0.6,0.3,0.9,0.5c0.3,0.2,0.5,0.4,0.6,0.8c0.2,0.3,0.2,0.7,0.2,1.2c0,0.9-0.3,1.6-0.9,2.1
			c-0.6,0.5-1.5,0.7-2.6,0.7c-0.5,0-1-0.1-1.4-0.2c-0.4-0.1-0.8-0.3-1.1-0.6c-0.3-0.3-0.6-0.6-0.7-1c-0.2-0.4-0.3-0.8-0.3-1.4h1.4
			V17.9z"/>
		<path class="st125" d="M47.9,11.2h0.9v5.7c0,1.2,0.2,2.1,0.7,2.6c0.4,0.5,1.2,0.8,2.1,0.8c0.5,0,1-0.1,1.3-0.2
			c0.3-0.1,0.7-0.3,0.9-0.6c0.2-0.3,0.4-0.6,0.5-1c0.1-0.4,0.1-0.9,0.1-1.5v-5.8h0.9v6c0,1.3-0.3,2.2-0.9,2.9c-0.6,0.7-1.6,1-2.8,1
			c-1.3,0-2.2-0.3-2.8-1c-0.6-0.7-0.9-1.6-0.9-2.9V11.2z"/>
		<path class="st125" d="M57.5,20.8v-9.6H61c0.6,0,1,0.1,1.4,0.2c0.4,0.1,0.7,0.3,1,0.5c0.3,0.2,0.4,0.5,0.6,0.8
			c0.2,0.3,0.2,0.6,0.2,1c0,0.3,0,0.6-0.1,0.9c-0.1,0.2-0.2,0.4-0.3,0.6s-0.3,0.3-0.5,0.4c-0.2,0.1-0.4,0.2-0.6,0.2l0,0
			c0.7,0.1,1.2,0.4,1.5,0.8s0.5,1,0.5,1.6c0,0.5-0.1,0.9-0.2,1.3c-0.2,0.3-0.4,0.6-0.6,0.8c-0.3,0.2-0.6,0.4-1,0.5c-0.6,0-1,0-1.5,0
			H57.5z M58.4,15.4h2.3c0.5,0,0.9,0,1.2-0.1s0.6-0.2,0.8-0.4c0.2-0.2,0.3-0.3,0.4-0.6c0.1-0.2,0.1-0.5,0.1-0.8s0-0.6-0.1-0.8
			s-0.3-0.2-0.5-0.4s-0.5-0.2-0.8-0.3c-0.3-0.1-0.8-0.1-1.3-0.1h-2.1V15.4z M58.4,20h2.3c0.5,0,0.9,0,1.3-0.1c0.4,0,0.7-0.1,0.9-0.3
			c0.2-0.1,0.4-0.3,0.5-0.6c0.1-0.3,0.2-0.6,0.2-1c0-0.4-0.1-0.7-0.2-1c-0.1-0.2-0.3-0.4-0.6-0.6c-0.2-0.1-0.5-0.2-0.9-0.3
			c-0.3,0-0.7-0.1-1.2-0.1h-2.4L58.4,20L58.4,20z"/>
		<path class="st125" d="M66.4,20.8v-9.6h0.9v4.1H73v-4.1h0.9v9.6H73v-4.7h-5.7v4.7H66.4z"/>
		<path class="st125" d="M76,20.8v-9.6h6.4V12h-5.5v3.5h5v0.8h-5v3.8h5.6v0.7H76z"/>
		<path class="st125" d="M83.2,20.8l3.8-9.6h1l3.7,9.6h-0.9l-1.1-3h-4.4l-1.1,3H83.2z M85.7,17h3.8l-1.9-5L85.7,17z"/>
		<path class="st125" d="M93.1,20.8v-9.6h3.3c0.3,0,0.5,0,0.8,0s0.5,0,0.8,0.1s0.5,0.1,0.7,0.2s0.5,0.2,0.7,0.4
			c0.3,0.2,0.6,0.5,0.8,0.8c0.2,0.3,0.4,0.7,0.5,1.1c0.1,0.4,0.2,0.7,0.3,1.1s0.1,0.7,0.1,1s0,0.6-0.1,1c-0.1,0.4-0.1,0.7-0.2,1
			c-0.1,0.3-0.2,0.6-0.4,0.9c-0.1,0.3-0.3,0.6-0.6,0.8c-0.2,0.2-0.5,0.4-0.7,0.6s-0.5,0.3-0.8,0.4s-0.6,0.1-0.9,0.2
			c-0.3,0.1-0.6,0-0.9,0H93.1z M94,20h2.2c0.4,0,0.8,0,1.2-0.1s0.7-0.2,1.1-0.4c0.3-0.2,0.6-0.4,0.8-0.7c0.2-0.3,0.4-0.6,0.5-0.9
			c0.1-0.3,0.2-0.7,0.3-1c0-0.4,0.1-0.7,0.1-1s0-0.7-0.1-1.1c0-0.4-0.1-0.7-0.3-1c-0.1-0.3-0.3-0.6-0.5-0.9
			c-0.2-0.3-0.5-0.5-0.8-0.7c-0.3-0.2-0.6-0.2-1-0.3c-0.4,0-0.8-0.1-1.2-0.1h-2.2L94,20L94,20z"/>
		<path class="st125" d="M103,20.8v-9.6h0.9v9.6H103z"/>
		<path class="st125" d="M107.2,12.4L107.2,12.4v8.4h-0.9v-9.6h1l5.6,8.4l0,0v-8.4h0.9v9.6h-1.1L107.2,12.4z"/>
		<path class="st125" d="M120.2,16.6v-0.8h4.1v5h-0.8v-1.6c-0.2,0.3-0.4,0.5-0.6,0.8c-0.2,0.2-0.5,0.4-0.8,0.6
			c-0.3,0.2-0.6,0.3-1,0.4c-0.4,0.1-0.8,0.1-1.3,0.1c-0.6,0-1.2-0.1-1.7-0.3c-0.5-0.2-1-0.5-1.3-1s-0.7-1-0.9-1.6
			c-0.2-0.6-0.3-1.4-0.3-2.2c0-0.7,0.1-1.4,0.3-2c0.2-0.6,0.5-1.1,0.8-1.6c0.4-0.4,0.8-0.8,1.4-1.1s1.2-0.4,2-0.4
			c0.5,0,1,0.1,1.4,0.2c0.4,0.1,0.8,0.3,1.2,0.6s0.6,0.6,0.9,0.9c0.2,0.4,0.4,0.8,0.5,1.3h-0.9c-0.1-0.4-0.2-0.7-0.4-1
			c-0.2-0.3-0.4-0.5-0.7-0.7c-0.3-0.2-0.6-0.3-0.9-0.4c-0.3-0.1-0.7-0.2-1-0.2c-0.6,0-1.2,0.1-1.6,0.3c-0.5,0.2-0.8,0.5-1.1,0.9
			s-0.5,0.9-0.6,1.5c-0.1,0.6-0.2,1.2-0.2,1.9c0,0.5,0.1,1,0.2,1.5c0.2,0.5,0.4,0.9,0.7,1.3c0.3,0.4,0.7,0.7,1.1,0.9
			s0.9,0.3,1.5,0.3c0.3,0,0.5,0,0.8-0.1c0.3-0.1,0.5-0.2,0.8-0.3s0.5-0.3,0.7-0.5s0.4-0.5,0.6-0.8c0.2-0.3,0.3-0.6,0.3-0.9
			c0.1-0.3,0.1-0.7,0.1-1C123.4,16.6,120.2,16.6,120.2,16.6z"/>
	</g>
</g>
</svg>
