<?xml version="1.0" encoding="utf-8"?>
<!-- Generator: Adobe Illustrator 24.0.3, SVG Export Plug-In . SVG Version: 6.00 Build 0)  -->
<svg version="1.1" id="Layer_1" xmlns="http://www.w3.org/2000/svg" xmlns:xlink="http://www.w3.org/1999/xlink" x="0px" y="0px"
	 viewBox="0 0 279 207" style="enable-background:new 0 0 279 207;" xml:space="preserve">
<style type="text/css">
	.st0{fill-rule:evenodd;clip-rule:evenodd;fill:#9B9B9B;}
	.st1{fill-rule:evenodd;clip-rule:evenodd;fill:#313131;fill-opacity:0.81;}
	.st2{fill-rule:evenodd;clip-rule:evenodd;fill:#313131;fill-opacity:0.76;}
	.st3{enable-background:new    ;}
	.st4{fill:#FFFFFF;}
	.st5{fill:#727C85;}
	.st6{fill-rule:evenodd;clip-rule:evenodd;fill:#313131;fill-opacity:0.9;}
	.st7{font-family:'Helvetica-Bold';}
	.st8{font-size:11.39px;}
	.st9{fill:none;stroke:#FFFFFF;stroke-linecap:square;}
	.st10{fill-rule:evenodd;clip-rule:evenodd;fill:#819FB3;}
	.st11{fill-rule:evenodd;clip-rule:evenodd;fill:#D0E0EA;}
</style>
<title>team-member-bios</title>
<desc>Created with Sketch.</desc>
<g id="team-member-bios">
	<rect id="Rectangle" y="-5" class="st0" width="279" height="212"/>
	<rect y="-3" class="st1" width="279" height="212"/>
	<rect id="Rectangle-Copy-19" y="-5" class="st2" width="279" height="212"/>
	<g id="Group-2" transform="translate(81.000000, 10.000000)">
		<g class="st3">
			<path class="st4" d="M4.4,3.7v2H1V15h-2.4V5.7h-3.4v-2H4.4z"/>
			<path class="st4" d="M7.9,15H5.6V3.7h2.3V15z"/>
			<path class="st4" d="M18.3,3.7v2h-3.4V15h-2.4V5.7H9.2v-2H18.3z"/>
			<path class="st4" d="M19.6,3.7H22V13h5.6v2h-8V3.7z"/>
			<path class="st4" d="M37.5,5.7h-6v2.4H37v2h-5.5V13h6.2v2h-8.5V3.7h8.3V5.7z"/>
		</g>
		<g class="st3">
			<path class="st5" d="M42.5,12.1c0,0.4,0.1,0.8,0.3,1.1s0.4,0.5,0.6,0.7s0.5,0.3,0.8,0.4c0.3,0.1,0.7,0.1,1,0.1
				c0.4,0,0.8-0.1,1.1-0.2c0.3-0.1,0.6-0.3,0.8-0.4c0.2-0.2,0.3-0.4,0.4-0.6s0.1-0.5,0.1-0.8c0-0.4-0.1-0.7-0.3-0.9
				c-0.2-0.2-0.4-0.4-0.7-0.6c-0.3-0.1-0.6-0.3-0.9-0.4s-0.7-0.2-1.1-0.3c-0.4-0.1-0.7-0.2-1.1-0.3C43.3,10,43,9.8,42.7,9.6
				c-0.3-0.2-0.5-0.4-0.7-0.8c-0.2-0.3-0.3-0.7-0.3-1.2c0-0.3,0.1-0.6,0.2-1s0.3-0.6,0.6-0.8s0.6-0.4,1-0.6c0.4-0.1,0.9-0.2,1.4-0.2
				c0.5,0,1,0.1,1.4,0.2c0.4,0.2,0.7,0.4,1,0.6c0.3,0.3,0.5,0.6,0.6,0.9s0.2,0.7,0.2,1.1h-0.9c0-0.4-0.1-0.7-0.2-0.9
				c-0.1-0.3-0.3-0.5-0.5-0.7c-0.2-0.2-0.5-0.3-0.8-0.4c-0.3-0.1-0.6-0.1-0.9-0.1c-0.5,0-0.9,0.1-1.2,0.2s-0.6,0.3-0.8,0.5
				c-0.2,0.2-0.3,0.4-0.4,0.7c-0.1,0.2-0.1,0.5,0,0.7c0.1,0.3,0.2,0.6,0.4,0.7c0.2,0.2,0.4,0.3,0.7,0.5c0.3,0.1,0.6,0.2,0.9,0.3
				c0.3,0.1,0.7,0.2,1,0.2c0.4,0.1,0.7,0.2,1,0.3c0.3,0.1,0.6,0.3,0.9,0.5c0.3,0.2,0.5,0.4,0.6,0.8c0.2,0.3,0.2,0.7,0.2,1.2
				c0,0.9-0.3,1.6-0.9,2.1c-0.6,0.5-1.5,0.7-2.6,0.7c-0.5,0-1-0.1-1.4-0.2s-0.8-0.3-1.1-0.6s-0.6-0.6-0.7-1
				c-0.2-0.4-0.3-0.8-0.3-1.4H42.5z"/>
			<path class="st5" d="M50.3,5.4h0.9v5.7c0,1.2,0.2,2.1,0.7,2.6c0.4,0.5,1.2,0.8,2.1,0.8c0.5,0,1-0.1,1.3-0.2s0.7-0.3,0.9-0.6
				c0.2-0.3,0.4-0.6,0.5-1c0.1-0.4,0.1-0.9,0.1-1.5V5.4h0.9v6c0,1.3-0.3,2.2-0.9,2.9s-1.6,1-2.8,1c-1.3,0-2.2-0.3-2.8-1
				c-0.6-0.7-0.9-1.6-0.9-2.9V5.4z"/>
			<path class="st5" d="M59.9,15V5.4h3.5c0.6,0,1,0.1,1.4,0.2c0.4,0.1,0.7,0.3,1,0.5s0.4,0.5,0.6,0.8s0.2,0.6,0.2,1
				c0,0.3,0,0.6-0.1,0.9c-0.1,0.2-0.2,0.4-0.3,0.6s-0.3,0.3-0.5,0.4c-0.2,0.1-0.4,0.2-0.6,0.2v0c0.7,0.1,1.2,0.4,1.5,0.8
				c0.3,0.4,0.5,1,0.5,1.6c0,0.5-0.1,0.9-0.2,1.3c-0.2,0.3-0.4,0.6-0.6,0.8c-0.3,0.2-0.6,0.4-1,0.5C64.7,15,64.3,15,63.8,15H59.9z
				 M60.8,9.6h2.3c0.5,0,0.9,0,1.2-0.1s0.6-0.2,0.8-0.4c0.2-0.2,0.3-0.3,0.4-0.6c0.1-0.2,0.1-0.5,0.1-0.8c0-0.3,0-0.6-0.1-0.8
				S65.2,6.7,65,6.5s-0.5-0.2-0.8-0.3c-0.3-0.1-0.8-0.1-1.3-0.1h-2.1V9.6z M60.8,14.2h2.3c0.5,0,0.9,0,1.3-0.1
				c0.4,0,0.7-0.1,0.9-0.3c0.2-0.1,0.4-0.3,0.5-0.6c0.1-0.3,0.2-0.6,0.2-1c0-0.4-0.1-0.7-0.2-1c-0.1-0.2-0.3-0.4-0.6-0.6
				c-0.2-0.1-0.5-0.2-0.9-0.3c-0.3,0-0.7-0.1-1.2-0.1h-2.4V14.2z"/>
			<path class="st5" d="M68.8,15V5.4h0.9v4.1h5.7V5.4h0.9V15h-0.9v-4.7h-5.7V15H68.8z"/>
			<path class="st5" d="M78.4,15V5.4h6.4v0.8h-5.5v3.5h5v0.8h-5v3.8h5.6V15H78.4z"/>
			<path class="st5" d="M85.7,15l3.8-9.6h1l3.7,9.6h-0.9l-1.1-3h-4.4l-1.1,3H85.7z M88.1,11.2h3.8l-1.9-5L88.1,11.2z"/>
			<path class="st5" d="M95.5,15V5.4h3.3c0.3,0,0.5,0,0.8,0c0.3,0,0.5,0,0.8,0.1s0.5,0.1,0.7,0.2c0.2,0.1,0.5,0.2,0.7,0.4
				c0.3,0.2,0.6,0.5,0.8,0.8c0.2,0.3,0.4,0.7,0.5,1.1c0.1,0.4,0.2,0.7,0.3,1.1s0.1,0.7,0.1,1s0,0.6-0.1,1s-0.1,0.7-0.2,1
				c-0.1,0.3-0.2,0.6-0.4,0.9c-0.1,0.3-0.3,0.6-0.6,0.8c-0.2,0.2-0.5,0.4-0.7,0.6s-0.5,0.3-0.8,0.4c-0.3,0.1-0.6,0.1-0.9,0.2
				s-0.6,0-0.9,0H95.5z M96.4,14.2h2.2c0.4,0,0.8,0,1.2-0.1s0.7-0.2,1.1-0.4c0.3-0.2,0.6-0.4,0.8-0.7c0.2-0.3,0.4-0.6,0.5-0.9
				c0.1-0.3,0.2-0.7,0.3-1c0-0.4,0.1-0.7,0.1-1c0-0.3,0-0.7-0.1-1.1c0-0.4-0.1-0.7-0.3-1c-0.1-0.3-0.3-0.6-0.5-0.9
				c-0.2-0.3-0.5-0.5-0.8-0.7c-0.3-0.2-0.6-0.2-1-0.3c-0.4,0-0.8-0.1-1.2-0.1h-2.2V14.2z"/>
			<path class="st5" d="M105.4,15V5.4h0.9V15H105.4z"/>
			<path class="st5" d="M109.7,6.6L109.7,6.6l0,8.4h-0.9V5.4h1l5.6,8.4h0V5.4h0.9V15h-1.1L109.7,6.6z"/>
			<path class="st5" d="M122.6,10.8V10h4.1v5h-0.8v-1.6c-0.2,0.3-0.4,0.5-0.6,0.8c-0.2,0.2-0.5,0.4-0.8,0.6c-0.3,0.2-0.6,0.3-1,0.4
				c-0.4,0.1-0.8,0.1-1.3,0.1c-0.6,0-1.2-0.1-1.7-0.3c-0.5-0.2-1-0.5-1.3-1s-0.7-1-0.9-1.6c-0.2-0.6-0.3-1.4-0.3-2.2
				c0-0.7,0.1-1.4,0.3-2c0.2-0.6,0.5-1.1,0.8-1.6c0.4-0.4,0.8-0.8,1.4-1.1c0.6-0.3,1.2-0.4,2-0.4c0.5,0,1,0.1,1.4,0.2
				s0.8,0.3,1.2,0.6s0.6,0.6,0.9,0.9c0.2,0.4,0.4,0.8,0.5,1.3h-0.9c-0.1-0.4-0.2-0.7-0.4-1c-0.2-0.3-0.4-0.5-0.7-0.7
				c-0.3-0.2-0.6-0.3-0.9-0.4c-0.3-0.1-0.7-0.2-1-0.2c-0.6,0-1.2,0.1-1.6,0.3c-0.5,0.2-0.8,0.5-1.1,0.9s-0.5,0.9-0.6,1.5
				s-0.2,1.2-0.2,1.9c0,0.5,0.1,1,0.2,1.5c0.2,0.5,0.4,0.9,0.7,1.3c0.3,0.4,0.7,0.7,1.1,0.9c0.4,0.2,0.9,0.3,1.5,0.3
				c0.3,0,0.5,0,0.8-0.1c0.3-0.1,0.5-0.2,0.8-0.3c0.3-0.1,0.5-0.3,0.7-0.5c0.2-0.2,0.4-0.5,0.6-0.8c0.2-0.3,0.3-0.6,0.3-0.9
				c0.1-0.3,0.1-0.7,0.1-1H122.6z"/>
		</g>
	</g>
	<g id="Group" transform="translate(15.000000, 48.000000)">
		<rect class="st6" width="250" height="138"/>
		<g id="Bio" transform="translate(13.000000, 12.000000)">
			<text transform="matrix(1 0 0 1 2 76)" class="st4 st7 st8">NAME</text>
			<path id="Line" class="st9" d="M2,100.7h39.7"/>
			<path class="st9" d="M2,108.7h31.8"/>
			<path id="Line-Copy-2" class="st9" d="M2,93h40.7"/>
			<rect class="st10" width="60" height="60"/>
			<g id="BIO" transform="translate(8.000000, 9.000000)">
				<ellipse id="Oval" class="st11" cx="22.6" cy="14.1" rx="14" ry="13.5"/>
				<path id="Combined-Shape" class="st11" d="M43.6,39.8L43.6,39.8v10.8h-44V39.8l0,0c0-0.1,0-0.2,0-0.3c0-5.5,4.4-9.9,9.9-9.9
					h24.2c5.5,0,9.9,4.4,9.9,9.9C43.6,39.6,43.6,39.7,43.6,39.8z"/>
			</g>
		</g>
		<g id="Bio-Copy-2" transform="translate(176.000000, 12.000000)">
			<text transform="matrix(1 0 0 1 2 76)" class="st4 st7 st8">NAME</text>
			<path class="st9" d="M2,100.7h39.7"/>
			<path class="st9" d="M2,108.7h31.8"/>
			<path class="st9" d="M2,93h40.7"/>
			<rect class="st10" width="60" height="60"/>
			<g transform="translate(8.000000, 9.000000)">
				<ellipse class="st11" cx="22.6" cy="14.1" rx="14" ry="13.5"/>
				<path class="st11" d="M43.6,39.8L43.6,39.8v10.8h-44V39.8l0,0c0-0.1,0-0.2,0-0.3c0-5.5,4.4-9.9,9.9-9.9h24.2
					c5.5,0,9.9,4.4,9.9,9.9C43.6,39.6,43.6,39.7,43.6,39.8z"/>
			</g>
		</g>
		<g id="Bio-Copy-3" transform="translate(94.000000, 12.000000)">
			<text transform="matrix(1 0 0 1 2 76)" class="st4 st7 st8">NAME</text>
			<path class="st9" d="M2,100.7h39.7"/>
			<path class="st9" d="M2,108.7h31.8"/>
			<path class="st9" d="M2,93h40.7"/>
			<rect class="st10" width="60" height="60"/>
			<g transform="translate(8.000000, 9.000000)">
				<ellipse class="st11" cx="22.6" cy="14.1" rx="14" ry="13.5"/>
				<path class="st11" d="M43.6,39.8L43.6,39.8v10.8h-44V39.8l0,0c0-0.1,0-0.2,0-0.3c0-5.5,4.4-9.9,9.9-9.9h24.2
					c5.5,0,9.9,4.4,9.9,9.9C43.6,39.6,43.6,39.7,43.6,39.8z"/>
			</g>
		</g>
	</g>
</g>
</svg>
