<?xml version="1.0" encoding="utf-8"?>
<!-- Generator: Adobe Illustrator 23.1.1, SVG Export Plug-In . SVG Version: 6.00 Build 0)  -->
<svg version="1.1" id="Layer_1" xmlns="http://www.w3.org/2000/svg" xmlns:xlink="http://www.w3.org/1999/xlink" x="0px" y="0px"
	 viewBox="0 0 279 207" style="enable-background:new 0 0 279 207;" xml:space="preserve">
<style type="text/css">
	.st0{fill-rule:evenodd;clip-rule:evenodd;fill:#313131;}
	.st1{fill-rule:evenodd;clip-rule:evenodd;}
	.st2{fill-rule:evenodd;clip-rule:evenodd;fill:#819FB3;}
	.st3{enable-background:new    ;}
	.st4{fill:#FFFFFF;}
	.st5{fill:#819FB3;}
	.st6{fill-rule:evenodd;clip-rule:evenodd;fill:#C8282C;}
	.st7{fill-rule:evenodd;clip-rule:evenodd;fill:#FFFFFF;}
</style>
<title>Video Embed with Heading + Butto</title>
<desc>Created with Sketch.</desc>
<g>
	<rect id="Rectangle-Copy-27" class="st0" width="279" height="207"/>
	<g id="Group-14" transform="translate(19.000000, 68.000000)">
		<g id="Video" transform="translate(122.578500, 0.000000)">
			<rect id="Rectangle" x="0.4" y="-2.9" class="st1" width="106.9" height="73.6"/>
			<rect x="0.4" y="65.5" class="st2" width="106.9" height="8"/>
			<g class="st3">
				<path class="st4" d="M8.6,70.3l-3.4,1.9c0,0-0.1,0-0.1,0c0,0,0,0,0-0.1v-3.8c0,0,0-0.1,0-0.1c0,0,0.1,0,0.1,0l3.4,1.9
					C8.6,70.1,8.6,70.1,8.6,70.3C8.6,70.2,8.6,70.2,8.6,70.3z"/>
			</g>
			<g>
				<g class="st3">
					<path class="st5" d="M63.2,29v8.8c0,0.2-0.1,0.4-0.4,0.5c-0.1,0-0.2,0-0.3,0c-0.2,0-0.4-0.1-0.5-0.2l-4.4-3.3v1.3
						c0,0.6-0.3,1.2-0.9,1.6c-0.6,0.5-1.4,0.7-2.2,0.7h-7.7c-0.9,0-1.6-0.2-2.2-0.7c-0.6-0.5-0.9-1-0.9-1.6v-5.7
						c0-0.6,0.3-1.2,0.9-1.6c0.6-0.5,1.4-0.7,2.2-0.7h7.7c0.9,0,1.6,0.2,2.2,0.7c0.6,0.5,0.9,1,0.9,1.6v1.3l4.4-3.3
						c0.1-0.1,0.3-0.2,0.5-0.2c0.1,0,0.2,0,0.3,0C63,28.6,63.2,28.7,63.2,29z"/>
				</g>
			</g>
			<g class="st3">
				<path d="M53.2,33.1L49.8,35c0,0-0.1,0-0.1,0c0,0,0,0,0-0.1v-3.8c0,0,0-0.1,0-0.1c0,0,0.1,0,0.1,0l3.4,1.9
					C53.3,33,53.3,33,53.2,33.1C53.3,33.1,53.3,33.1,53.2,33.1z"/>
			</g>
		</g>
		<path class="st6" d="M4,44.8H42c2.2,0,4,1.8,4,4l0,0c0,2.2-1.8,4-4,4H4c-2.2,0-4-1.8-4-4l0,0C0,46.6,1.8,44.8,4,44.8z"/>
		<path id="MUSICVIDEOS" class="st4" d="M6.4,15.4h2.5v8.3H7.2V18c0-0.2,0-0.4,0-0.7s0-0.5,0-0.7l-1.6,6.9H4l-1.6-6.9
			c0,0.2,0,0.4,0,0.7c0,0.3,0,0.5,0,0.7v5.6H0.8v-8.3h2.5l1.5,6.5L6.4,15.4z M10.7,15.4h1.8v5.1c0,0.6,0.1,1,0.2,1.2
			c0.2,0.5,0.7,0.7,1.4,0.7c0.7,0,1.2-0.2,1.4-0.7c0.1-0.3,0.2-0.7,0.2-1.2v-5.1h1.8v5.1c0,0.9-0.1,1.6-0.4,2.1
			c-0.5,0.9-1.5,1.3-2.9,1.3s-2.4-0.4-2.9-1.3c-0.3-0.5-0.4-1.2-0.4-2.1V15.4z M20.5,21.1c0.1,0.4,0.2,0.7,0.3,0.8
			c0.3,0.3,0.8,0.5,1.4,0.5c0.4,0,0.7,0,1-0.1c0.5-0.2,0.7-0.5,0.7-1c0-0.3-0.1-0.5-0.4-0.6c-0.2-0.1-0.6-0.3-1.1-0.4l-0.9-0.2
			c-0.9-0.2-1.5-0.4-1.8-0.6c-0.6-0.4-0.8-1-0.8-1.8c0-0.7,0.3-1.4,0.8-1.8c0.5-0.5,1.3-0.7,2.4-0.7c0.9,0,1.6,0.2,2.2,0.7
			c0.6,0.5,0.9,1.1,1,2h-1.7c0-0.5-0.2-0.9-0.7-1.1c-0.3-0.1-0.6-0.2-1-0.2c-0.4,0-0.8,0.1-1.1,0.3c-0.3,0.2-0.4,0.4-0.4,0.8
			c0,0.3,0.1,0.5,0.4,0.7c0.2,0.1,0.5,0.2,1.1,0.3l1.4,0.3c0.6,0.1,1.1,0.3,1.4,0.6c0.5,0.4,0.7,1,0.7,1.7c0,0.8-0.3,1.4-0.9,1.9
			c-0.6,0.5-1.4,0.7-2.4,0.7c-1.1,0-1.9-0.2-2.5-0.7c-0.6-0.5-0.9-1.2-0.9-2H20.5z M28.7,23.6H27v-8.3h1.7V23.6z M30.2,19.6
			c0-1.4,0.4-2.6,1.2-3.3c0.7-0.7,1.5-1,2.6-1c1.4,0,2.4,0.5,3.1,1.4c0.4,0.5,0.5,1,0.6,1.5h-1.7c-0.1-0.4-0.3-0.7-0.4-0.9
			c-0.3-0.4-0.8-0.5-1.4-0.5c-0.6,0-1.1,0.3-1.5,0.8C32.2,18,32,18.7,32,19.6s0.2,1.6,0.6,2.1c0.4,0.5,0.9,0.7,1.5,0.7
			c0.6,0,1.1-0.2,1.4-0.6c0.2-0.2,0.3-0.5,0.4-1h1.7c-0.1,0.9-0.5,1.6-1.1,2.2c-0.6,0.6-1.4,0.8-2.4,0.8c-1.2,0-2.1-0.4-2.8-1.1
			C30.6,22,30.2,20.9,30.2,19.6z M47.4,15.4h1.8l-2.8,8.3h-1.6l-2.8-8.3h1.8l1.8,6.3L47.4,15.4z M52,23.6h-1.7v-8.3H52V23.6z
			 M55.6,16.8v5.4h1.6c0.8,0,1.4-0.4,1.7-1.2c0.2-0.4,0.3-1,0.3-1.6c0-0.8-0.1-1.5-0.4-1.9c-0.3-0.5-0.8-0.7-1.6-0.7H55.6z
			 M57.5,15.4c0.5,0,0.9,0.1,1.3,0.2c0.6,0.2,1,0.5,1.4,1c0.3,0.4,0.5,0.9,0.6,1.3c0.1,0.5,0.2,0.9,0.2,1.4c0,1.1-0.2,2-0.7,2.8
			c-0.6,1-1.5,1.5-2.8,1.5h-3.6v-8.3H57.5z M68.6,16.8h-4.4v1.8h4V20h-4v2.1h4.6v1.5h-6.3v-8.3h6.1V16.8z M74,22.4
			c0.7,0,1.2-0.3,1.6-0.8s0.6-1.2,0.6-2.2c0-0.9-0.2-1.6-0.6-2.2s-0.9-0.8-1.6-0.8c-0.7,0-1.2,0.3-1.6,0.8c-0.4,0.5-0.6,1.2-0.6,2.2
			s0.2,1.7,0.6,2.2C72.8,22.2,73.3,22.4,74,22.4z M78,19.5c0,1.5-0.4,2.6-1.3,3.4c-0.6,0.6-1.5,1-2.7,1s-2.1-0.3-2.7-1
			C70.5,22.1,70,21,70,19.5c0-1.5,0.4-2.7,1.3-3.4c0.6-0.6,1.5-1,2.7-1s2.1,0.3,2.7,1C77.6,16.8,78,18,78,19.5z M80.8,21.1
			c0.1,0.4,0.2,0.7,0.3,0.8c0.3,0.3,0.8,0.5,1.4,0.5c0.4,0,0.7,0,1-0.1c0.5-0.2,0.7-0.5,0.7-1c0-0.3-0.1-0.5-0.4-0.6
			c-0.2-0.1-0.6-0.3-1.1-0.4l-0.9-0.2c-0.9-0.2-1.5-0.4-1.8-0.6c-0.6-0.4-0.8-1-0.8-1.8c0-0.7,0.3-1.4,0.8-1.8
			c0.5-0.5,1.3-0.7,2.4-0.7c0.9,0,1.6,0.2,2.2,0.7c0.6,0.5,0.9,1.1,1,2H84c0-0.5-0.2-0.9-0.7-1.1c-0.3-0.1-0.6-0.2-1-0.2
			c-0.4,0-0.8,0.1-1.1,0.3c-0.3,0.2-0.4,0.4-0.4,0.8c0,0.3,0.1,0.5,0.4,0.7c0.2,0.1,0.5,0.2,1.1,0.3l1.4,0.3
			c0.6,0.1,1.1,0.3,1.4,0.6c0.5,0.4,0.7,1,0.7,1.7c0,0.8-0.3,1.4-0.9,1.9c-0.6,0.5-1.4,0.7-2.4,0.7c-1.1,0-1.9-0.2-2.5-0.7
			c-0.6-0.5-0.9-1.2-0.9-2H80.8z"/>
		<rect y="32.2" class="st7" width="81.6" height="3.4"/>
	</g>
</g>
</svg>
