<svg xmlns="http://www.w3.org/2000/svg" xmlns:xlink="http://www.w3.org/1999/xlink" width="279" height="227" viewBox="0 0 279 227"><defs><clipPath id="a"><rect x="-7.9397" y="-7.3311" width="294.8794" height="241.6622" fill="none"/></clipPath><clipPath id="b"><rect x="9" y="62" width="262" height="103" fill="none"/></clipPath><clipPath id="c"><rect x="150.418" y="77.7599" width="106.9035" height="73.568" fill="none"/></clipPath><clipPath id="d"><rect x="150.418" y="143.5215" width="106.9035" height="8.0465" fill="none"/></clipPath><clipPath id="e"><rect width="279" height="227" fill="none"/></clipPath><clipPath id="f"><path d="M49.8737,132H90.1062a2.8738,2.8738,0,0,1,2.8738,2.8738v2.299a2.8738,2.8738,0,0,1-2.8738,2.8738H49.8737A2.8737,2.8737,0,0,1,47,137.1728v-2.299A2.8737,2.8737,0,0,1,49.8737,132Z" fill="none"/></clipPath><clipPath id="i"><rect x="29" y="99" width="81.6145" height="3.4485" fill="none"/></clipPath></defs><g clip-path="url(#a)"><rect x="-13.2243" y="-31.8167" width="305.4486" height="290.6333" fill="#dfdfdf"/></g><g clip-path="url(#b)"><rect x="4" y="57" width="272" height="113" fill="#fff"/></g><g clip-path="url(#c)"><rect x="145.418" y="72.7599" width="116.9035" height="83.568"/></g><g clip-path="url(#d)"><rect x="145.418" y="138.5215" width="116.9035" height="18.0465" fill="#819fb3"/></g><g clip-path="url(#e)"><path d="M156.5671,147.2579l-3.4074,1.8936a.0963.0963,0,0,1-.1014.0077.0991.0991,0,0,1-.0423-.0924V145.29a.0991.0991,0,0,1,.0423-.0924.0965.0965,0,0,1,.1014.0077l3.4074,1.8936a.0831.0831,0,0,1,0,.1591Z" fill="#fff"/></g><g clip-path="url(#f)"><g clip-path="url(#e)"><rect x="42" y="127" width="55.98" height="18.0465" fill="#c8282c"/></g></g><g clip-path="url(#e)"><path d="M25.7959,82.7266l1.0923,4.7382.2378,1.3184.2387-1.292.9346-4.7646h1.8242l.9829,4.7373.252,1.3193.2554-1.2686,1.1025-4.788h1.76L32.1489,91H30.4937l-.9991-4.8379-.292-1.6-.2915,1.6L27.9121,91H26.3062L23.96,82.7266Z" fill="#5c5c5c"/><path d="M37.6416,87.2783a2.5523,2.5523,0,0,0,.6392-.14.4819.4819,0,0,0,.3447-.4551.536.536,0,0,0-.2647-.5186,1.6662,1.6662,0,0,0-.7763-.1435,1.0206,1.0206,0,0,0-.8135.28,1.1574,1.1574,0,0,0-.2275.5615H35a2.3441,2.3441,0,0,1,.4507-1.3194,2.6321,2.6321,0,0,1,2.1875-.8076,3.9006,3.9006,0,0,1,1.7925.3985,1.5274,1.5274,0,0,1,.7832,1.5039v2.8066c0,.1943.0039.4307.0112.707a.8853.8853,0,0,0,.0957.4268.57.57,0,0,0,.2358.1855V91h-1.74a1.7545,1.7545,0,0,1-.1011-.3477c-.0185-.1084-.0337-.2324-.0449-.3711a3.3057,3.3057,0,0,1-.7676.6124,2.321,2.321,0,0,1-1.1743.2968,2.03,2.03,0,0,1-1.38-.4736,1.688,1.688,0,0,1-.5449-1.3447,1.7409,1.7409,0,0,1,.8765-1.6328,3.9158,3.9158,0,0,1,1.4136-.3936Zm.9785.7471a1.7789,1.7789,0,0,1-.31.1543,2.7044,2.7044,0,0,1-.43.1094l-.3643.0673a2.3924,2.3924,0,0,0-.7353.2188.7312.7312,0,0,0-.378.68.7108.7108,0,0,0,.231.5918.88.88,0,0,0,.5615.1826,1.6712,1.6712,0,0,0,.9658-.3037A1.2841,1.2841,0,0,0,38.62,88.62Z" fill="#5c5c5c"/><path d="M41.2241,86.0771V84.9385h.8535V83.2314H43.66v1.7071h.9936v1.1386H43.66v3.2334a.7246.7246,0,0,0,.0957.4688,1.05,1.05,0,0,0,.5835.0928c.0488,0,.1-.001.1543-.003s.1074-.0048.16-.0087v1.1953l-.7578.0283a2.033,2.033,0,0,1-1.5493-.3926,1.1719,1.1719,0,0,1-.2691-.8476V86.0771Z" fill="#5c5c5c"/><path d="M49.582,87.0762a1.4209,1.4209,0,0,0-.2309-.6172.9678.9678,0,0,0-.8384-.37,1.1037,1.1037,0,0,0-1.1084.8027,3.33,3.33,0,0,0-.1572,1.1309,3.0606,3.0606,0,0,0,.1572,1.08,1.07,1.07,0,0,0,1.0806.7637.9534.9534,0,0,0,.7988-.3027,1.5135,1.5135,0,0,0,.2871-.7862h1.6333a2.68,2.68,0,0,1-.5283,1.3809,2.57,2.57,0,0,1-2.23,1.05,2.61,2.61,0,0,1-2.1743-.876,3.5376,3.5376,0,0,1-.6968-2.27,3.5912,3.5912,0,0,1,.77-2.45,2.6826,2.6826,0,0,1,2.124-.875,3.1964,3.1964,0,0,1,1.8847.5166,2.3992,2.3992,0,0,1,.8682,1.8233Z" fill="#5c5c5c"/><path d="M56.9536,84.916a1.7923,1.7923,0,0,1,.7568.6006,1.6043,1.6043,0,0,1,.3077.7051,8.7713,8.7713,0,0,1,.0556,1.1826V91H56.44V87.2744a1.6512,1.6512,0,0,0-.167-.7978.8386.8386,0,0,0-.8247-.4268,1.1326,1.1326,0,0,0-.9555.4238,1.9545,1.9545,0,0,0-.3257,1.211V91h-1.6V82.7549h1.6v2.9189a1.9583,1.9583,0,0,1,.8017-.7441,2.2538,2.2538,0,0,1,.9585-.21A2.5957,2.5957,0,0,1,56.9536,84.916Z" fill="#5c5c5c"/><path d="M62.626,86.0771V84.9385H63.48V83.2314H65.062v1.7071h.9937v1.1386H65.062v3.2334a.7252.7252,0,0,0,.0957.4688,1.0507,1.0507,0,0,0,.5835.0928c.0488,0,.1-.001.1543-.003s.1074-.0048.16-.0087v1.1953l-.7578.0283a2.0334,2.0334,0,0,1-1.5494-.3926,1.1719,1.1719,0,0,1-.269-.8476V86.0771Z" fill="#5c5c5c"/><path d="M71.7207,84.916a1.7923,1.7923,0,0,1,.7568.6006,1.6043,1.6043,0,0,1,.3077.7051,8.7713,8.7713,0,0,1,.0556,1.1826V91H71.2075V87.2744a1.6512,1.6512,0,0,0-.167-.7978.8386.8386,0,0,0-.8247-.4268,1.1326,1.1326,0,0,0-.9555.4238,1.9545,1.9545,0,0,0-.3257,1.211V91h-1.6V82.7549h1.6v2.9189a1.9583,1.9583,0,0,1,.8017-.7441,2.2538,2.2538,0,0,1,.9585-.21A2.5957,2.5957,0,0,1,71.7207,84.916Z" fill="#5c5c5c"/><path d="M78.5737,85.0059a2.4961,2.4961,0,0,1,1.0572.9052,3.0077,3.0077,0,0,1,.4873,1.2647,7.8465,7.8465,0,0,1,.0527,1.2138H75.7148a1.4675,1.4675,0,0,0,.64,1.2911,1.625,1.625,0,0,0,.8818.23,1.241,1.241,0,0,0,1.2173-.7011h1.6333a1.9968,1.9968,0,0,1-.5933,1.1054,2.9724,2.9724,0,0,1-2.3012.8926,3.3353,3.3353,0,0,1-2.1553-.7529,2.9668,2.9668,0,0,1-.9336-2.4492,3.3155,3.3155,0,0,1,.8428-2.4385,2.95,2.95,0,0,1,2.188-.8477A3.4794,3.4794,0,0,1,78.5737,85.0059Zm-2.393,1.3818a1.6608,1.6608,0,0,0-.4263.9473H78.51a1.3356,1.3356,0,0,0-.4263-.9668,1.4021,1.4021,0,0,0-.9487-.33A1.27,1.27,0,0,0,76.1807,86.3877Z" fill="#5c5c5c"/><path d="M89.6265,82.7266h1.7959L88.6016,91H86.9688l-2.7979-8.2734h1.8462l1.7964,6.2812Z" fill="#5c5c5c"/><path d="M94.0024,84.1523H92.38V82.6758h1.622Zm-1.622.73h1.622V91H92.38Z" fill="#5c5c5c"/><path d="M99.0371,84.9805a1.9379,1.9379,0,0,1,.7017.6757V82.7383h1.622V91H99.8062v-.8477a2.2606,2.2606,0,0,1-.78.792,2.1965,2.1965,0,0,1-1.0889.2461,2.2735,2.2735,0,0,1-1.8047-.8672A3.3281,3.3281,0,0,1,95.4,88.0986a3.8315,3.8315,0,0,1,.7212-2.4648,2.3467,2.3467,0,0,1,1.9282-.8975A1.97,1.97,0,0,1,99.0371,84.9805Zm.3931,4.3584a2.2347,2.2347,0,0,0,.3535-1.3077,2.0046,2.0046,0,0,0-.5669-1.6054,1.221,1.221,0,0,0-.8081-.292,1.1233,1.1233,0,0,0-1.03.53,2.8607,2.8607,0,0,0,.0059,2.6718,1.1288,1.1288,0,0,0,1.0132.5079A1.1808,1.1808,0,0,0,99.43,89.3389Z" fill="#5c5c5c"/><path d="M107.043,85.0059a2.4958,2.4958,0,0,1,1.0571.9052,3.0051,3.0051,0,0,1,.4873,1.2647A7.8338,7.8338,0,0,1,108.64,88.39h-4.456a1.4677,1.4677,0,0,0,.64,1.2911,1.6253,1.6253,0,0,0,.8819.23,1.241,1.241,0,0,0,1.2172-.7011h1.6333a1.9966,1.9966,0,0,1-.5932,1.1054,2.9728,2.9728,0,0,1-2.3013.8926,3.3355,3.3355,0,0,1-2.1553-.7529,2.9671,2.9671,0,0,1-.9336-2.4492,3.3155,3.3155,0,0,1,.8428-2.4385,2.95,2.95,0,0,1,2.188-.8477A3.48,3.48,0,0,1,107.043,85.0059ZM104.65,86.3877a1.6608,1.6608,0,0,0-.4263.9473H106.98a1.3356,1.3356,0,0,0-.4263-.9668,1.4021,1.4021,0,0,0-.9487-.33A1.27,1.27,0,0,0,104.65,86.3877Z" fill="#5c5c5c"/><path d="M114.7925,90.252a3.3708,3.3708,0,0,1-4.7036,0,3.7965,3.7965,0,0,1,0-4.5958,3.3343,3.3343,0,0,1,4.7036,0,3.7965,3.7965,0,0,1,0,4.5958Zm-1.28-.8848a2.8562,2.8562,0,0,0,0-2.833,1.4217,1.4217,0,0,0-2.1582,0,2.8372,2.8372,0,0,0,0,2.833,1.4163,1.4163,0,0,0,2.1582,0Z" fill="#5c5c5c"/></g><g clip-path="url(#i)"><rect x="24" y="94" width="91.6145" height="13.4485" fill="#5c5c5c"/></g><g clip-path="url(#e)"><line x1="29" y1="110.1495" x2="109.5" y2="110.6495" fill="none" stroke="#5c5c5c" stroke-linecap="square" stroke-miterlimit="10"/><line x1="29" y1="120.1495" x2="109.5" y2="120.6495" fill="none" stroke="#5c5c5c" stroke-linecap="square" stroke-miterlimit="10"/></g><path d="M192.7067,106.42H209.203a2.488,2.488,0,0,1,2.4807,2.4807v2.8527l4.8372-3.3489a.6621.6621,0,0,1,.9923.62v11.0389a.6618.6618,0,0,1-.9923.62l-4.8372-3.3489v2.8527a2.488,2.488,0,0,1-2.4807,2.4807H192.7067a2.488,2.488,0,0,1-2.4806-2.4807V109.0243a2.5179,2.5179,0,0,1,2.429-2.6036h0Zm10.6668,7.3179-4.2171-2.2326a.9813.9813,0,0,0-1.4884.7442v4.4649a.9812.9812,0,0,0,1.4884.7442l4.2171-2.2326a.828.828,0,0,0,0-1.4884Z" fill="#819fb3" fill-rule="evenodd"/></svg>