<?xml version="1.0" encoding="utf-8"?><svg height="227" viewBox="0 0 279 227" width="279" xmlns="http://www.w3.org/2000/svg" xmlns:xlink="http://www.w3.org/1999/xlink"><clipPath id="a"><path d="m-7.9397-7.3311h294.8794v241.6622h-294.8794z"/></clipPath><clipPath id="b"><path d="m9 62h262v103h-262z"/></clipPath><clipPath id="c"><path d="m150.418 77.7599h106.9035v73.568h-106.9035z"/></clipPath><clipPath id="d"><path d="m150.418 143.5215h106.9035v8.0465h-106.9035z"/></clipPath><clipPath id="e"><path d="m0 0h279v227h-279z"/></clipPath><clipPath id="f"><path d="m49.8737 132h40.2325a2.8738 2.8738 0 0 1 2.8738 2.8738v2.299a2.8738 2.8738 0 0 1 -2.8738 2.8738h-40.2325a2.8737 2.8737 0 0 1 -2.8737-2.8738v-2.299a2.8737 2.8737 0 0 1 2.8737-2.8738z"/></clipPath><clipPath id="g"><path d="m29 99h81.6145v3.4485h-81.6145z"/></clipPath><g clip-path="url(#a)"><path d="m-13.2243-31.8167h305.4486v290.6333h-305.4486z" fill="#dfdfdf"/></g><g clip-path="url(#b)"><path d="m4 57h272v113h-272z" fill="#fff"/></g><g clip-path="url(#c)"><path d="m145.418 72.7599h116.9035v83.568h-116.9035z"/></g><g clip-path="url(#d)"><path d="m145.418 138.5215h116.9035v18.0465h-116.9035z" fill="#819fb3"/></g><g clip-path="url(#e)"><path d="m156.5671 147.2579-3.4074 1.8936a.0963.0963 0 0 1 -.1014.0077.0991.0991 0 0 1 -.0423-.0924v-3.7768a.0991.0991 0 0 1 .0423-.0924.0965.0965 0 0 1 .1014.0077l3.4074 1.8936a.0831.0831 0 0 1 0 .1591z" fill="#fff"/></g><g clip-path="url(#f)"><g clip-path="url(#e)"><path d="m42 127h55.98v18.0465h-55.98z" fill="#c8282c"/></g></g><g clip-path="url(#e)" fill="#5c5c5c"><path d="m25.7959 82.7266 1.0923 4.7382.2378 1.3184.2387-1.292.9346-4.7646h1.8242l.9829 4.7373.252 1.3193.2554-1.2686 1.1025-4.788h1.76l-2.3274 8.2734h-1.6552l-.9991-4.8379-.292-1.6-.2915 1.6-.999 4.8379h-1.6059l-2.3462-8.2734z"/><path d="m37.6416 87.2783a2.5523 2.5523 0 0 0 .6392-.14.4819.4819 0 0 0 .3447-.4551.536.536 0 0 0 -.2647-.5186 1.6662 1.6662 0 0 0 -.7763-.1435 1.0206 1.0206 0 0 0 -.8135.28 1.1574 1.1574 0 0 0 -.2275.5615h-1.5435a2.3441 2.3441 0 0 1 .4507-1.3194 2.6321 2.6321 0 0 1 2.1875-.8076 3.9006 3.9006 0 0 1 1.7925.3985 1.5274 1.5274 0 0 1 .7832 1.5039v2.8066c0 .1943.0039.4307.0112.707a.8853.8853 0 0 0 .0957.4268.57.57 0 0 0 .2358.1855v.2361h-1.74a1.7545 1.7545 0 0 1 -.1011-.3477c-.0185-.1084-.0337-.2324-.0449-.3711a3.3057 3.3057 0 0 1 -.7676.6124 2.321 2.321 0 0 1 -1.1743.2968 2.03 2.03 0 0 1 -1.38-.4736 1.688 1.688 0 0 1 -.5449-1.3447 1.7409 1.7409 0 0 1 .8765-1.6328 3.9158 3.9158 0 0 1 1.4136-.3936zm.9785.7471a1.7789 1.7789 0 0 1 -.31.1543 2.7044 2.7044 0 0 1 -.43.1094l-.3643.0673a2.3924 2.3924 0 0 0 -.7353.2188.7312.7312 0 0 0 -.378.68.7108.7108 0 0 0 .231.5918.88.88 0 0 0 .5615.1826 1.6712 1.6712 0 0 0 .9658-.3037 1.2841 1.2841 0 0 0 .4592-1.1059z"/><path d="m41.2241 86.0771v-1.1386h.8535v-1.7071h1.5824v1.7071h.9936v1.1386h-.9936v3.2334a.7246.7246 0 0 0 .0957.4688 1.05 1.05 0 0 0 .5835.0928c.0488 0 .1-.001.1543-.003s.1074-.0048.16-.0087v1.1953l-.7578.0283a2.033 2.033 0 0 1 -1.5493-.3926 1.1719 1.1719 0 0 1 -.2691-.8476v-3.7667z"/><path d="m49.582 87.0762a1.4209 1.4209 0 0 0 -.2309-.6172.9678.9678 0 0 0 -.8384-.37 1.1037 1.1037 0 0 0 -1.1084.8027 3.33 3.33 0 0 0 -.1572 1.1309 3.0606 3.0606 0 0 0 .1572 1.08 1.07 1.07 0 0 0 1.0806.7637.9534.9534 0 0 0 .7988-.3027 1.5135 1.5135 0 0 0 .2871-.7862h1.6333a2.68 2.68 0 0 1 -.5283 1.3809 2.57 2.57 0 0 1 -2.23 1.05 2.61 2.61 0 0 1 -2.1743-.876 3.5376 3.5376 0 0 1 -.6968-2.27 3.5912 3.5912 0 0 1 .77-2.45 2.6826 2.6826 0 0 1 2.124-.875 3.1964 3.1964 0 0 1 1.8847.5166 2.3992 2.3992 0 0 1 .8682 1.8233z"/><path d="m56.9536 84.916a1.7923 1.7923 0 0 1 .7568.6006 1.6043 1.6043 0 0 1 .3077.7051 8.7713 8.7713 0 0 1 .0556 1.1826v3.5957h-1.6337v-3.7256a1.6512 1.6512 0 0 0 -.167-.7978.8386.8386 0 0 0 -.8247-.4268 1.1326 1.1326 0 0 0 -.9555.4238 1.9545 1.9545 0 0 0 -.3257 1.211v3.3154h-1.6v-8.2451h1.6v2.9189a1.9583 1.9583 0 0 1 .8017-.7441 2.2538 2.2538 0 0 1 .9585-.21 2.5957 2.5957 0 0 1 1.0263.1963z"/><path d="m62.626 86.0771v-1.1386h.854v-1.7071h1.582v1.7071h.9937v1.1386h-.9937v3.2334a.7252.7252 0 0 0 .0957.4688 1.0507 1.0507 0 0 0 .5835.0928c.0488 0 .1-.001.1543-.003s.1074-.0048.16-.0087v1.1953l-.7578.0283a2.0334 2.0334 0 0 1 -1.5494-.3926 1.1719 1.1719 0 0 1 -.269-.8476v-3.7667z"/><path d="m71.7207 84.916a1.7923 1.7923 0 0 1 .7568.6006 1.6043 1.6043 0 0 1 .3077.7051 8.7713 8.7713 0 0 1 .0556 1.1826v3.5957h-1.6333v-3.7256a1.6512 1.6512 0 0 0 -.167-.7978.8386.8386 0 0 0 -.8247-.4268 1.1326 1.1326 0 0 0 -.9555.4238 1.9545 1.9545 0 0 0 -.3257 1.211v3.3154h-1.6v-8.2451h1.6v2.9189a1.9583 1.9583 0 0 1 .8017-.7441 2.2538 2.2538 0 0 1 .9585-.21 2.5957 2.5957 0 0 1 1.0259.1963z"/><path d="m78.5737 85.0059a2.4961 2.4961 0 0 1 1.0572.9052 3.0077 3.0077 0 0 1 .4873 1.2647 7.8465 7.8465 0 0 1 .0527 1.2138h-4.4561a1.4675 1.4675 0 0 0 .64 1.2911 1.625 1.625 0 0 0 .8818.23 1.241 1.241 0 0 0 1.2173-.7011h1.6333a1.9968 1.9968 0 0 1 -.5933 1.1054 2.9724 2.9724 0 0 1 -2.3012.8926 3.3353 3.3353 0 0 1 -2.1553-.7529 2.9668 2.9668 0 0 1 -.9336-2.4492 3.3155 3.3155 0 0 1 .8428-2.4385 2.95 2.95 0 0 1 2.188-.8477 3.4794 3.4794 0 0 1 1.4391.2866zm-2.393 1.3818a1.6608 1.6608 0 0 0 -.4263.9473h2.7556a1.3356 1.3356 0 0 0 -.4263-.9668 1.4021 1.4021 0 0 0 -.9487-.33 1.27 1.27 0 0 0 -.9543.3495z"/><path d="m89.6265 82.7266h1.7959l-2.8208 8.2734h-1.6328l-2.7979-8.2734h1.8462l1.7964 6.2812z"/><path d="m94.0024 84.1523h-1.6224v-1.4765h1.622zm-1.622.73h1.622v6.1177h-1.6224z"/><path d="m99.0371 84.9805a1.9379 1.9379 0 0 1 .7017.6757v-2.9179h1.622v8.2617h-1.5546v-.8477a2.2606 2.2606 0 0 1 -.78.792 2.1965 2.1965 0 0 1 -1.0889.2461 2.2735 2.2735 0 0 1 -1.8047-.8672 3.3281 3.3281 0 0 1 -.7326-2.2246 3.8315 3.8315 0 0 1 .7212-2.4648 2.3467 2.3467 0 0 1 1.9282-.8975 1.97 1.97 0 0 1 .9877.2442zm.3931 4.3584a2.2347 2.2347 0 0 0 .3535-1.3077 2.0046 2.0046 0 0 0 -.5669-1.6054 1.221 1.221 0 0 0 -.8081-.292 1.1233 1.1233 0 0 0 -1.03.53 2.8607 2.8607 0 0 0 .0059 2.6718 1.1288 1.1288 0 0 0 1.0132.5079 1.1808 1.1808 0 0 0 1.0322-.5046z"/><path d="m107.043 85.0059a2.4958 2.4958 0 0 1 1.0571.9052 3.0051 3.0051 0 0 1 .4873 1.2647 7.8338 7.8338 0 0 1 .0526 1.2142h-4.456a1.4677 1.4677 0 0 0 .64 1.2911 1.6253 1.6253 0 0 0 .8819.23 1.241 1.241 0 0 0 1.2172-.7011h1.6333a1.9966 1.9966 0 0 1 -.5932 1.1054 2.9728 2.9728 0 0 1 -2.3013.8926 3.3355 3.3355 0 0 1 -2.1553-.7529 2.9671 2.9671 0 0 1 -.9336-2.4492 3.3155 3.3155 0 0 1 .8428-2.4385 2.95 2.95 0 0 1 2.188-.8477 3.48 3.48 0 0 1 1.4392.2862zm-2.393 1.3818a1.6608 1.6608 0 0 0 -.4263.9473h2.7563a1.3356 1.3356 0 0 0 -.4263-.9668 1.4021 1.4021 0 0 0 -.9487-.33 1.27 1.27 0 0 0 -.955.3495z"/><path d="m114.7925 90.252a3.3708 3.3708 0 0 1 -4.7036 0 3.7965 3.7965 0 0 1 0-4.5958 3.3343 3.3343 0 0 1 4.7036 0 3.7965 3.7965 0 0 1 0 4.5958zm-1.28-.8848a2.8562 2.8562 0 0 0 0-2.833 1.4217 1.4217 0 0 0 -2.1582 0 2.8372 2.8372 0 0 0 0 2.833 1.4163 1.4163 0 0 0 2.1582 0z"/></g><g clip-path="url(#g)"><path d="m24 94h91.6145v13.4485h-91.6145z" fill="#5c5c5c"/></g><g clip-path="url(#e)" fill="none" stroke="#5c5c5c" stroke-linecap="square" stroke-miterlimit="10"><path d="m29 110.1495 80.5.5"/><path d="m29 120.1495 80.5.5"/></g><path d="m192.7067 106.42h16.4963a2.488 2.488 0 0 1 2.4807 2.4807v2.8527l4.8372-3.3489a.6621.6621 0 0 1 .9923.62v11.0389a.6618.6618 0 0 1 -.9923.62l-4.8372-3.3489v2.8527a2.488 2.488 0 0 1 -2.4807 2.4807h-16.4963a2.488 2.488 0 0 1 -2.4806-2.4807v-11.1629a2.5179 2.5179 0 0 1 2.429-2.6036zm10.6668 7.3179-4.2171-2.2326a.9813.9813 0 0 0 -1.4884.7442v4.4649a.9812.9812 0 0 0 1.4884.7442l4.2171-2.2326a.828.828 0 0 0 0-1.4884z" fill="#819fb3" fill-rule="evenodd"/></svg>
